%TF.GenerationSoftware,KiCad,Pcbnew,9.0.0*%
%TF.CreationDate,2025-08-18T11:13:34-07:00*%
%TF.ProjectId,USB_C_Simple_Trig,5553425f-435f-4536-996d-706c655f5472,rev?*%
%TF.SameCoordinates,Original*%
%TF.FileFunction,Copper,L1,Top*%
%TF.FilePolarity,Positive*%
%FSLAX46Y46*%
G04 Gerber Fmt 4.6, Leading zero omitted, Abs format (unit mm)*
G04 Created by KiCad (PCBNEW 9.0.0) date 2025-08-18 11:13:34*
%MOMM*%
%LPD*%
G01*
G04 APERTURE LIST*
G04 Aperture macros list*
%AMRoundRect*
0 Rectangle with rounded corners*
0 $1 Rounding radius*
0 $2 $3 $4 $5 $6 $7 $8 $9 X,Y pos of 4 corners*
0 Add a 4 corners polygon primitive as box body*
4,1,4,$2,$3,$4,$5,$6,$7,$8,$9,$2,$3,0*
0 Add four circle primitives for the rounded corners*
1,1,$1+$1,$2,$3*
1,1,$1+$1,$4,$5*
1,1,$1+$1,$6,$7*
1,1,$1+$1,$8,$9*
0 Add four rect primitives between the rounded corners*
20,1,$1+$1,$2,$3,$4,$5,0*
20,1,$1+$1,$4,$5,$6,$7,0*
20,1,$1+$1,$6,$7,$8,$9,0*
20,1,$1+$1,$8,$9,$2,$3,0*%
G04 Aperture macros list end*
%TA.AperFunction,SMDPad,CuDef*%
%ADD10RoundRect,0.237500X-0.287500X-0.237500X0.287500X-0.237500X0.287500X0.237500X-0.287500X0.237500X0*%
%TD*%
%TA.AperFunction,SMDPad,CuDef*%
%ADD11RoundRect,0.237500X-0.250000X-0.237500X0.250000X-0.237500X0.250000X0.237500X-0.250000X0.237500X0*%
%TD*%
%TA.AperFunction,SMDPad,CuDef*%
%ADD12RoundRect,0.237500X-0.300000X-0.237500X0.300000X-0.237500X0.300000X0.237500X-0.300000X0.237500X0*%
%TD*%
%TA.AperFunction,ComponentPad*%
%ADD13R,1.000000X1.000000*%
%TD*%
%TA.AperFunction,ComponentPad*%
%ADD14O,1.000000X1.000000*%
%TD*%
%TA.AperFunction,SMDPad,CuDef*%
%ADD15RoundRect,0.237500X0.300000X0.237500X-0.300000X0.237500X-0.300000X-0.237500X0.300000X-0.237500X0*%
%TD*%
%TA.AperFunction,SMDPad,CuDef*%
%ADD16RoundRect,0.237500X0.250000X0.237500X-0.250000X0.237500X-0.250000X-0.237500X0.250000X-0.237500X0*%
%TD*%
%TA.AperFunction,ComponentPad*%
%ADD17C,6.400000*%
%TD*%
%TA.AperFunction,SMDPad,CuDef*%
%ADD18RoundRect,0.375000X0.375000X-0.625000X0.375000X0.625000X-0.375000X0.625000X-0.375000X-0.625000X0*%
%TD*%
%TA.AperFunction,SMDPad,CuDef*%
%ADD19RoundRect,0.500000X1.400000X-0.500000X1.400000X0.500000X-1.400000X0.500000X-1.400000X-0.500000X0*%
%TD*%
%TA.AperFunction,SMDPad,CuDef*%
%ADD20RoundRect,0.237500X-0.237500X0.300000X-0.237500X-0.300000X0.237500X-0.300000X0.237500X0.300000X0*%
%TD*%
%TA.AperFunction,ComponentPad*%
%ADD21C,2.000000*%
%TD*%
%TA.AperFunction,ComponentPad*%
%ADD22O,1.600200X1.016000*%
%TD*%
%TA.AperFunction,ComponentPad*%
%ADD23O,0.914400X1.193800*%
%TD*%
%TA.AperFunction,SMDPad,CuDef*%
%ADD24R,0.889000X0.304800*%
%TD*%
%TA.AperFunction,ComponentPad*%
%ADD25C,0.609600*%
%TD*%
%TA.AperFunction,ComponentPad*%
%ADD26RoundRect,0.250000X1.050000X-1.050000X1.050000X1.050000X-1.050000X1.050000X-1.050000X-1.050000X0*%
%TD*%
%TA.AperFunction,ComponentPad*%
%ADD27C,2.600000*%
%TD*%
%TA.AperFunction,SMDPad,CuDef*%
%ADD28RoundRect,0.100000X-0.637500X-0.100000X0.637500X-0.100000X0.637500X0.100000X-0.637500X0.100000X0*%
%TD*%
%TA.AperFunction,SMDPad,CuDef*%
%ADD29RoundRect,0.237500X0.237500X-0.250000X0.237500X0.250000X-0.237500X0.250000X-0.237500X-0.250000X0*%
%TD*%
%TA.AperFunction,ComponentPad*%
%ADD30R,1.700000X1.700000*%
%TD*%
%TA.AperFunction,ComponentPad*%
%ADD31O,1.700000X1.700000*%
%TD*%
%TA.AperFunction,SMDPad,CuDef*%
%ADD32RoundRect,0.237500X-0.237500X0.250000X-0.237500X-0.250000X0.237500X-0.250000X0.237500X0.250000X0*%
%TD*%
%TA.AperFunction,SMDPad,CuDef*%
%ADD33RoundRect,0.237500X0.237500X-0.300000X0.237500X0.300000X-0.237500X0.300000X-0.237500X-0.300000X0*%
%TD*%
%TA.AperFunction,SMDPad,CuDef*%
%ADD34R,2.387600X1.193800*%
%TD*%
%TA.AperFunction,SMDPad,CuDef*%
%ADD35RoundRect,0.250000X-0.625000X0.400000X-0.625000X-0.400000X0.625000X-0.400000X0.625000X0.400000X0*%
%TD*%
%TA.AperFunction,SMDPad,CuDef*%
%ADD36R,0.300000X0.750000*%
%TD*%
%TA.AperFunction,SMDPad,CuDef*%
%ADD37R,0.750000X0.300000*%
%TD*%
%TA.AperFunction,SMDPad,CuDef*%
%ADD38R,2.700000X2.700000*%
%TD*%
%TA.AperFunction,SMDPad,CuDef*%
%ADD39RoundRect,0.150000X0.587500X0.150000X-0.587500X0.150000X-0.587500X-0.150000X0.587500X-0.150000X0*%
%TD*%
%TA.AperFunction,ViaPad*%
%ADD40C,1.500000*%
%TD*%
%TA.AperFunction,ViaPad*%
%ADD41C,0.500000*%
%TD*%
%TA.AperFunction,ViaPad*%
%ADD42C,0.900000*%
%TD*%
%TA.AperFunction,ViaPad*%
%ADD43C,0.700000*%
%TD*%
%TA.AperFunction,Conductor*%
%ADD44C,1.500000*%
%TD*%
%TA.AperFunction,Conductor*%
%ADD45C,0.300000*%
%TD*%
%TA.AperFunction,Conductor*%
%ADD46C,3.000000*%
%TD*%
%TA.AperFunction,Conductor*%
%ADD47C,2.000000*%
%TD*%
%TA.AperFunction,Conductor*%
%ADD48C,0.254000*%
%TD*%
%TA.AperFunction,Conductor*%
%ADD49C,0.500000*%
%TD*%
%TA.AperFunction,Conductor*%
%ADD50C,1.000000*%
%TD*%
%TA.AperFunction,Conductor*%
%ADD51C,0.550000*%
%TD*%
%TA.AperFunction,Conductor*%
%ADD52C,0.200000*%
%TD*%
%TA.AperFunction,Conductor*%
%ADD53C,0.150000*%
%TD*%
G04 APERTURE END LIST*
D10*
%TO.P,D2,1,K*%
%TO.N,GND*%
X121625000Y-108500000D03*
%TO.P,D2,2,A*%
%TO.N,Net-(D2-A)*%
X123375000Y-108500000D03*
%TD*%
D11*
%TO.P,R9,1*%
%TO.N,Net-(D3-A)*%
X126175000Y-112500000D03*
%TO.P,R9,2*%
%TO.N,/MCU/STATUS_LED*%
X128000000Y-112500000D03*
%TD*%
D12*
%TO.P,C4,1*%
%TO.N,VBUS*%
X139137500Y-114500000D03*
%TO.P,C4,2*%
%TO.N,GND*%
X140862500Y-114500000D03*
%TD*%
%TO.P,C2,1*%
%TO.N,VBUS*%
X137137500Y-110500000D03*
%TO.P,C2,2*%
%TO.N,GND*%
X138862500Y-110500000D03*
%TD*%
D13*
%TO.P,J4,1,VTref*%
%TO.N,+3V3*%
X149375000Y-87920000D03*
D14*
%TO.P,J4,2,SWDIO/TMS*%
%TO.N,/MCU/SWDIO*%
X150645000Y-87920000D03*
%TO.P,J4,3,GND*%
%TO.N,GND*%
X149375000Y-89190000D03*
%TO.P,J4,4,SWCLK/TCK*%
%TO.N,/MCU/SWCLK*%
X150645000Y-89190000D03*
%TO.P,J4,5,GND*%
%TO.N,GND*%
X149375000Y-90460000D03*
%TO.P,J4,6,SWO/TDO*%
%TO.N,unconnected-(J4-SWO{slash}TDO-Pad6)*%
X150645000Y-90460000D03*
%TO.P,J4,7,KEY*%
%TO.N,unconnected-(J4-KEY-Pad7)*%
X149375000Y-91730000D03*
%TO.P,J4,8,NC/TDI*%
%TO.N,unconnected-(J4-NC{slash}TDI-Pad8)*%
X150645000Y-91730000D03*
%TO.P,J4,9,GNDDetect*%
%TO.N,GND*%
X149375000Y-93000000D03*
%TO.P,J4,10,~{RESET}*%
%TO.N,/MCU/NRST*%
X150645000Y-93000000D03*
%TD*%
D15*
%TO.P,C9,1*%
%TO.N,VOUT*%
X149862500Y-117000000D03*
%TO.P,C9,2*%
%TO.N,GND*%
X148137500Y-117000000D03*
%TD*%
D16*
%TO.P,R2,1*%
%TO.N,VBUS*%
X128087500Y-108500000D03*
%TO.P,R2,2*%
%TO.N,Net-(D2-A)*%
X126262500Y-108500000D03*
%TD*%
D17*
%TO.P,H4,1,1*%
%TO.N,GND*%
X123100000Y-125700000D03*
%TD*%
D18*
%TO.P,Q2,1,D*%
%TO.N,Net-(Q1-D)*%
X149500000Y-128000000D03*
D19*
X149500000Y-121700000D03*
D18*
%TO.P,Q2,2,G*%
%TO.N,Net-(Q1-G)*%
X147200000Y-128000000D03*
%TO.P,Q2,3,S*%
%TO.N,VOUT*%
X151800000Y-128000000D03*
%TD*%
D20*
%TO.P,C21,1*%
%TO.N,+3V3*%
X137500000Y-90762500D03*
%TO.P,C21,2*%
%TO.N,GND*%
X137500000Y-92487500D03*
%TD*%
D21*
%TO.P,SW1,1,1*%
%TO.N,GND*%
X135250000Y-121250000D03*
X135250000Y-127750000D03*
%TO.P,SW1,2,2*%
%TO.N,/MCU/NRST*%
X130750000Y-121250000D03*
X130750000Y-127750000D03*
%TD*%
D11*
%TO.P,R12,1*%
%TO.N,Net-(Q1-G)*%
X130587500Y-105850000D03*
%TO.P,R12,2*%
%TO.N,/USB_C_IC/PWR_EN*%
X132412500Y-105850000D03*
%TD*%
D22*
%TO.P,J1,25*%
%TO.N,N/C*%
X124247400Y-96876201D03*
%TO.P,J1,26*%
X119847400Y-96516199D03*
%TO.P,J1,27*%
X124247400Y-105136199D03*
%TO.P,J1,28*%
X119847400Y-105496201D03*
D23*
%TO.P,J1,29*%
X125487400Y-104606200D03*
D24*
%TO.P,J1,A1,GND*%
%TO.N,GND*%
X126052400Y-98255507D03*
%TO.P,J1,A2,TX1+*%
%TO.N,unconnected-(J1-TX1+-PadA2)*%
X126052400Y-98755633D03*
%TO.P,J1,A3,TX1-*%
%TO.N,unconnected-(J1-TX1--PadA3)*%
X126052400Y-99255759D03*
%TO.P,J1,A4,VBUS*%
%TO.N,VBUS*%
X126052400Y-99755885D03*
%TO.P,J1,A5,CC1*%
%TO.N,/USB_C_IC/CC1*%
X126052400Y-100256011D03*
%TO.P,J1,A6,D+*%
%TO.N,/USB_C_IC/data_+*%
X126052400Y-100756137D03*
%TO.P,J1,A7,D-*%
%TO.N,/USB_C_IC/data_-*%
X126052400Y-101256263D03*
%TO.P,J1,A8,SBU1*%
%TO.N,unconnected-(J1-SBU1-PadA8)*%
X126052400Y-101756389D03*
%TO.P,J1,A9,VBUS*%
%TO.N,VBUS*%
X126052400Y-102256515D03*
%TO.P,J1,A10,RX2-*%
%TO.N,unconnected-(J1-RX2--PadA10)*%
X126052400Y-102756641D03*
%TO.P,J1,A11,RX2+*%
%TO.N,unconnected-(J1-RX2+-PadA11)*%
X126052400Y-103256767D03*
%TO.P,J1,A12,GND*%
%TO.N,GND*%
X126052400Y-103756893D03*
D25*
%TO.P,J1,B1,GND*%
X124837400Y-103806393D03*
%TO.P,J1,B2,TX2+*%
%TO.N,unconnected-(J1-TX2+-PadB2)*%
X124137400Y-103406267D03*
%TO.P,J1,B3,TX2-*%
%TO.N,unconnected-(J1-TX2--PadB3)*%
X124137400Y-102606141D03*
%TO.P,J1,B4,VBUS*%
%TO.N,VBUS*%
X124837400Y-102206015D03*
%TO.P,J1,B5,CC2*%
%TO.N,/USB_C_IC/CC2*%
X124137400Y-101781389D03*
%TO.P,J1,B6,D+*%
%TO.N,/USB_C_IC/data_+*%
X124837400Y-101418763D03*
%TO.P,J1,B7,D-*%
%TO.N,/USB_C_IC/data_-*%
X124837400Y-100618637D03*
%TO.P,J1,B8,SBU2*%
%TO.N,unconnected-(J1-SBU2-PadB8)*%
X124137400Y-100181011D03*
%TO.P,J1,B9,VBUS*%
%TO.N,VBUS*%
X124837400Y-99806385D03*
%TO.P,J1,B10,RX1-*%
%TO.N,unconnected-(J1-RX1--PadB10)*%
X124137400Y-99406259D03*
%TO.P,J1,B11,RX1+*%
%TO.N,unconnected-(J1-RX1+-PadB11)*%
X124137400Y-98606133D03*
%TO.P,J1,B12,GND*%
%TO.N,GND*%
X124837400Y-98206007D03*
%TD*%
D17*
%TO.P,H3,1,1*%
%TO.N,GND*%
X123100000Y-89400000D03*
%TD*%
D12*
%TO.P,C6,1*%
%TO.N,+5V*%
X148137500Y-110500000D03*
%TO.P,C6,2*%
%TO.N,GND*%
X149862500Y-110500000D03*
%TD*%
D26*
%TO.P,J2,1,Pin_1*%
%TO.N,VOUT*%
X157000000Y-115000000D03*
D27*
%TO.P,J2,2,Pin_2*%
X157000000Y-110000000D03*
%TO.P,J2,3,Pin_3*%
%TO.N,GND*%
X157000000Y-105000000D03*
%TO.P,J2,4,Pin_4*%
X157000000Y-100000000D03*
%TD*%
D28*
%TO.P,U5,1,PB7*%
%TO.N,/MCU/I2C_SDA*%
X139775000Y-87575000D03*
%TO.P,U5,2,PC14*%
%TO.N,/MCU/OSC_IN*%
X139775000Y-88225000D03*
%TO.P,U5,3,PC15*%
%TO.N,/MCU/OSC_OUT*%
X139775000Y-88875000D03*
%TO.P,U5,4,VDD*%
%TO.N,+3V3*%
X139775000Y-89525000D03*
%TO.P,U5,5,VSS*%
%TO.N,GND*%
X139775000Y-90175000D03*
%TO.P,U5,6,PF2*%
%TO.N,/MCU/NRST*%
X139775000Y-90825000D03*
%TO.P,U5,7,PA0*%
%TO.N,/MCU/UART_TX*%
X139775000Y-91475000D03*
%TO.P,U5,8,PA1*%
%TO.N,/MCU/UART_RX*%
X139775000Y-92125000D03*
%TO.P,U5,9,PA2*%
%TO.N,unconnected-(U5-PA2-Pad9)*%
X139775000Y-92775000D03*
%TO.P,U5,10,PA3*%
%TO.N,unconnected-(U5-PA3-Pad10)*%
X139775000Y-93425000D03*
%TO.P,U5,11,PA4*%
%TO.N,/MCU/STATUS_LED*%
X145500000Y-93425000D03*
%TO.P,U5,12,PA5*%
%TO.N,unconnected-(U5-PA5-Pad12)*%
X145500000Y-92775000D03*
%TO.P,U5,13,PA6*%
%TO.N,unconnected-(U5-PA6-Pad13)*%
X145500000Y-92125000D03*
%TO.P,U5,14,PA7*%
%TO.N,unconnected-(U5-PA7-Pad14)*%
X145500000Y-91475000D03*
%TO.P,U5,15,PA8*%
%TO.N,unconnected-(U5-PA8-Pad15)*%
X145500000Y-90825000D03*
%TO.P,U5,16,PA9/PA11*%
%TO.N,unconnected-(U5-PA9{slash}PA11-Pad16)*%
X145500000Y-90175000D03*
%TO.P,U5,17,PA10/PA12*%
%TO.N,unconnected-(U5-PA10{slash}PA12-Pad17)*%
X145500000Y-89525000D03*
%TO.P,U5,18,PA13*%
%TO.N,/MCU/SWDIO*%
X145500000Y-88875000D03*
%TO.P,U5,19,PA14*%
%TO.N,/MCU/SWCLK*%
X145500000Y-88225000D03*
%TO.P,U5,20,PB6*%
%TO.N,/MCU/I2C_SCL*%
X145500000Y-87575000D03*
%TD*%
D29*
%TO.P,R11,1*%
%TO.N,+5V*%
X141000000Y-112412500D03*
%TO.P,R11,2*%
%TO.N,/MCU/I2C_SDA*%
X141000000Y-110587500D03*
%TD*%
D12*
%TO.P,C3,1*%
%TO.N,VBUS*%
X137137500Y-112520000D03*
%TO.P,C3,2*%
%TO.N,GND*%
X138862500Y-112520000D03*
%TD*%
D18*
%TO.P,Q1,1,D*%
%TO.N,Net-(Q1-D)*%
X141500000Y-128000000D03*
D19*
X141500000Y-121700000D03*
D18*
%TO.P,Q1,2,G*%
%TO.N,Net-(Q1-G)*%
X139200000Y-128000000D03*
%TO.P,Q1,3,S*%
%TO.N,Net-(IC1-VCC)*%
X143800000Y-128000000D03*
%TD*%
D30*
%TO.P,J3,1,Pin_1*%
%TO.N,GND*%
X122340000Y-117000000D03*
D31*
%TO.P,J3,2,Pin_2*%
%TO.N,unconnected-(J3-Pin_2-Pad2)*%
X124880000Y-117000000D03*
%TO.P,J3,3,Pin_3*%
%TO.N,unconnected-(J3-Pin_3-Pad3)*%
X127420000Y-117000000D03*
%TO.P,J3,4,Pin_4*%
%TO.N,/MCU/UART_RX*%
X129960000Y-117000000D03*
%TO.P,J3,5,Pin_5*%
%TO.N,/MCU/UART_TX*%
X132500000Y-117000000D03*
%TO.P,J3,6,Pin_6*%
%TO.N,unconnected-(J3-Pin_6-Pad6)*%
X135040000Y-117000000D03*
%TD*%
D32*
%TO.P,R5,1*%
%TO.N,GND*%
X134000000Y-99437500D03*
%TO.P,R5,2*%
%TO.N,/USB_C_IC/CC1*%
X134000000Y-101262500D03*
%TD*%
D20*
%TO.P,C19,1*%
%TO.N,+3V3*%
X133500000Y-90762500D03*
%TO.P,C19,2*%
%TO.N,GND*%
X133500000Y-92487500D03*
%TD*%
D15*
%TO.P,C10,1*%
%TO.N,VOUT*%
X149862500Y-115000000D03*
%TO.P,C10,2*%
%TO.N,GND*%
X148137500Y-115000000D03*
%TD*%
D20*
%TO.P,C20,1*%
%TO.N,+3V3*%
X135500000Y-90762500D03*
%TO.P,C20,2*%
%TO.N,GND*%
X135500000Y-92487500D03*
%TD*%
%TO.P,C7,1*%
%TO.N,+1V8*%
X142500000Y-105137500D03*
%TO.P,C7,2*%
%TO.N,GND*%
X142500000Y-106862500D03*
%TD*%
D12*
%TO.P,C22,1*%
%TO.N,GND*%
X131637500Y-86125000D03*
%TO.P,C22,2*%
%TO.N,/MCU/OSC_IN*%
X133362500Y-86125000D03*
%TD*%
D33*
%TO.P,C1,1*%
%TO.N,Net-(IC1-IFB)*%
X138000000Y-101212500D03*
%TO.P,C1,2*%
%TO.N,GND*%
X138000000Y-99487500D03*
%TD*%
D12*
%TO.P,C25,1*%
%TO.N,+3V3*%
X146137500Y-97490000D03*
%TO.P,C25,2*%
%TO.N,GND*%
X147862500Y-97490000D03*
%TD*%
D29*
%TO.P,R6,1*%
%TO.N,Net-(IC1-OTP)*%
X140000000Y-101262500D03*
%TO.P,R6,2*%
%TO.N,GND*%
X140000000Y-99437500D03*
%TD*%
D12*
%TO.P,C23,1*%
%TO.N,GND*%
X131637500Y-88625000D03*
%TO.P,C23,2*%
%TO.N,/MCU/OSC_OUT*%
X133362500Y-88625000D03*
%TD*%
D10*
%TO.P,D1,1,K*%
%TO.N,GND*%
X121625000Y-110500000D03*
%TO.P,D1,2,A*%
%TO.N,Net-(D1-A)*%
X123375000Y-110500000D03*
%TD*%
D20*
%TO.P,C17,1*%
%TO.N,+3V3*%
X129500000Y-90762500D03*
%TO.P,C17,2*%
%TO.N,GND*%
X129500000Y-92487500D03*
%TD*%
D17*
%TO.P,H1,1,1*%
%TO.N,GND*%
X157600000Y-89400000D03*
%TD*%
%TO.P,H2,1,1*%
%TO.N,GND*%
X157600000Y-125700000D03*
%TD*%
D32*
%TO.P,R4,1*%
%TO.N,GND*%
X136000000Y-99437500D03*
%TO.P,R4,2*%
%TO.N,/USB_C_IC/CC2*%
X136000000Y-101262500D03*
%TD*%
D29*
%TO.P,R10,1*%
%TO.N,+5V*%
X144000000Y-111912500D03*
%TO.P,R10,2*%
%TO.N,/MCU/I2C_SCL*%
X144000000Y-110087500D03*
%TD*%
D20*
%TO.P,C18,1*%
%TO.N,+3V3*%
X131500000Y-90762500D03*
%TO.P,C18,2*%
%TO.N,GND*%
X131500000Y-92487500D03*
%TD*%
D12*
%TO.P,C5,1*%
%TO.N,+5V*%
X148137500Y-108500000D03*
%TO.P,C5,2*%
%TO.N,GND*%
X149862500Y-108500000D03*
%TD*%
D10*
%TO.P,D3,1,K*%
%TO.N,GND*%
X121625000Y-112500000D03*
%TO.P,D3,2,A*%
%TO.N,Net-(D3-A)*%
X123375000Y-112500000D03*
%TD*%
D34*
%TO.P,Y1,1,1*%
%TO.N,/MCU/OSC_OUT*%
X136500000Y-88503300D03*
%TO.P,Y1,2,2*%
%TO.N,/MCU/OSC_IN*%
X136500000Y-86496700D03*
%TD*%
D11*
%TO.P,R1,1*%
%TO.N,Net-(D1-A)*%
X126175000Y-110500000D03*
%TO.P,R1,2*%
%TO.N,Net-(IC1-LED)*%
X128000000Y-110500000D03*
%TD*%
D35*
%TO.P,R3,1*%
%TO.N,VBUS*%
X132500000Y-109450000D03*
%TO.P,R3,2*%
%TO.N,Net-(IC1-VCC)*%
X132500000Y-112550000D03*
%TD*%
D15*
%TO.P,C8,1*%
%TO.N,VOUT*%
X149862500Y-119020000D03*
%TO.P,C8,2*%
%TO.N,GND*%
X148137500Y-119020000D03*
%TD*%
D12*
%TO.P,C24,1*%
%TO.N,+3V3*%
X146137500Y-99500000D03*
%TO.P,C24,2*%
%TO.N,GND*%
X147862500Y-99500000D03*
%TD*%
D36*
%TO.P,IC1,1,ISENP*%
%TO.N,VBUS*%
X136500000Y-107850000D03*
%TO.P,IC1,2,NC_1*%
%TO.N,unconnected-(IC1-NC_1-Pad2)*%
X137000000Y-107850000D03*
%TO.P,IC1,3,GND_1*%
%TO.N,GND*%
X137500000Y-107850000D03*
%TO.P,IC1,4,SDA*%
%TO.N,/MCU/I2C_SDA*%
X138000000Y-107850000D03*
%TO.P,IC1,5,SCL*%
%TO.N,/MCU/I2C_SCL*%
X138500000Y-107850000D03*
%TO.P,IC1,6,FLIP*%
%TO.N,unconnected-(IC1-FLIP-Pad6)*%
X139000000Y-107850000D03*
D37*
%TO.P,IC1,7,NC_2*%
%TO.N,unconnected-(IC1-NC_2-Pad7)*%
X139675000Y-107175000D03*
%TO.P,IC1,8,LED*%
%TO.N,Net-(IC1-LED)*%
X139675000Y-106675000D03*
%TO.P,IC1,9,INT*%
%TO.N,unconnected-(IC1-INT-Pad9)*%
X139675000Y-106175000D03*
%TO.P,IC1,10,NC_3*%
%TO.N,unconnected-(IC1-NC_3-Pad10)*%
X139675000Y-105675000D03*
%TO.P,IC1,11,NC_4*%
%TO.N,unconnected-(IC1-NC_4-Pad11)*%
X139675000Y-105175000D03*
%TO.P,IC1,12,V18*%
%TO.N,+1V8*%
X139675000Y-104675000D03*
D36*
%TO.P,IC1,13,OTP*%
%TO.N,Net-(IC1-OTP)*%
X139000000Y-104000000D03*
%TO.P,IC1,14,NC_5*%
%TO.N,unconnected-(IC1-NC_5-Pad14)*%
X138500000Y-104000000D03*
%TO.P,IC1,15,IFB*%
%TO.N,Net-(IC1-IFB)*%
X138000000Y-104000000D03*
%TO.P,IC1,16,CC2*%
%TO.N,/USB_C_IC/CC2*%
X137500000Y-104000000D03*
%TO.P,IC1,17,CC1*%
%TO.N,/USB_C_IC/CC1*%
X137000000Y-104000000D03*
%TO.P,IC1,18,DN*%
%TO.N,/USB_C_IC/data_-*%
X136500000Y-104000000D03*
D37*
%TO.P,IC1,19,DP*%
%TO.N,/USB_C_IC/data_+*%
X135825000Y-104675000D03*
%TO.P,IC1,20,V5V*%
%TO.N,+5V*%
X135825000Y-105175000D03*
%TO.P,IC1,21,NC_6*%
%TO.N,unconnected-(IC1-NC_6-Pad21)*%
X135825000Y-105675000D03*
%TO.P,IC1,22,VOUT*%
%TO.N,Net-(IC1-VOUT)*%
X135825000Y-106175000D03*
%TO.P,IC1,23,PWR_EN*%
%TO.N,/USB_C_IC/PWR_EN*%
X135825000Y-106675000D03*
%TO.P,IC1,24,VCC*%
%TO.N,Net-(IC1-VCC)*%
X135825000Y-107175000D03*
D38*
%TO.P,IC1,25,GND_2*%
%TO.N,GND*%
X137750000Y-105925000D03*
%TD*%
D16*
%TO.P,R8,1*%
%TO.N,+3V3*%
X142412500Y-96500000D03*
%TO.P,R8,2*%
%TO.N,/MCU/NRST*%
X140587500Y-96500000D03*
%TD*%
D11*
%TO.P,R7,1*%
%TO.N,Net-(IC1-VOUT)*%
X148087500Y-113000000D03*
%TO.P,R7,2*%
%TO.N,VOUT*%
X149912500Y-113000000D03*
%TD*%
D39*
%TO.P,U10,1,GND*%
%TO.N,GND*%
X149437500Y-104450000D03*
%TO.P,U10,2,VO*%
%TO.N,+3V3*%
X149437500Y-102550000D03*
%TO.P,U10,3,VI*%
%TO.N,+5V*%
X147562500Y-103500000D03*
%TD*%
D40*
%TO.N,VBUS*%
X134000000Y-110849000D03*
D41*
%TO.N,Net-(IC1-VOUT)*%
X135500000Y-111000000D03*
D40*
%TO.N,VBUS*%
X129500000Y-109400000D03*
%TO.N,Net-(IC1-VCC)*%
X130500000Y-113500000D03*
D41*
%TO.N,Net-(Q1-G)*%
X129000000Y-112708619D03*
D40*
%TO.N,Net-(IC1-VCC)*%
X146000000Y-125500000D03*
X143000000Y-129490674D03*
X145500000Y-129000000D03*
%TO.N,VOUT*%
X152000000Y-126000000D03*
X152000000Y-129991674D03*
X157000000Y-120500000D03*
X153500000Y-120500000D03*
X152500000Y-124000000D03*
%TO.N,Net-(Q1-D)*%
X140582114Y-129490674D03*
X145000000Y-121700000D03*
X149500000Y-125000000D03*
X141500000Y-119500000D03*
%TO.N,Net-(IC1-VCC)*%
X143800000Y-125000000D03*
X132500000Y-114500000D03*
D41*
%TO.N,/MCU/NRST*%
X120153000Y-113500000D03*
D40*
%TO.N,Net-(IC1-VCC)*%
X134912500Y-114087500D03*
D41*
%TO.N,GND*%
X126850000Y-98250000D03*
X125157898Y-103400000D03*
X150000000Y-107500000D03*
X126750000Y-97700000D03*
X126650000Y-105550000D03*
X141000000Y-99500000D03*
X123103000Y-104024270D03*
X151000000Y-105500000D03*
X127000000Y-104200000D03*
X136900000Y-93500000D03*
D40*
X144000000Y-119000000D03*
D41*
X123103000Y-103200000D03*
X126729529Y-103794375D03*
X120753000Y-111500000D03*
X137500000Y-109000000D03*
X137750000Y-105925000D03*
D42*
X127400000Y-97750000D03*
D41*
X123150000Y-97950000D03*
D40*
X142500000Y-114500000D03*
D41*
X128000000Y-92500000D03*
X125400000Y-106200000D03*
D43*
X131637500Y-87350000D03*
D42*
X127900000Y-98400000D03*
D41*
X141000000Y-106000000D03*
X126317576Y-97399866D03*
X123150000Y-98950000D03*
X149500000Y-97500000D03*
X126900000Y-104750000D03*
X135000000Y-100500000D03*
D40*
%TO.N,VBUS*%
X128500000Y-105000000D03*
X128500000Y-103850000D03*
D41*
X126946902Y-99679011D03*
%TO.N,+5V*%
X132500000Y-99500000D03*
X132500000Y-101000000D03*
X142500000Y-98500000D03*
X134500000Y-104500000D03*
X144654000Y-99000000D03*
X134000000Y-102725000D03*
%TO.N,+3V3*%
X142500000Y-97500000D03*
X142000000Y-88000000D03*
X145000000Y-97500000D03*
X148000000Y-88000000D03*
X146500000Y-86500000D03*
X141000000Y-89000000D03*
%TO.N,/MCU/STATUS_LED*%
X123000000Y-94400000D03*
X122602000Y-97000000D03*
%TO.N,Net-(IC1-LED)*%
X135500000Y-108000000D03*
X139689468Y-108423000D03*
X128750000Y-110500000D03*
X131900000Y-108000000D03*
%TO.N,Net-(IC1-VOUT)*%
X133825735Y-107522794D03*
%TO.N,/MCU/NRST*%
X142325735Y-86825735D03*
X130800000Y-124300000D03*
X140943236Y-90423265D03*
%TO.N,/MCU/I2C_SCL*%
X142500000Y-108423000D03*
X144077000Y-108000000D03*
%TO.N,Net-(Q1-G)*%
X130587500Y-106715442D03*
X131000000Y-118500000D03*
X131161000Y-115199000D03*
%TO.N,Net-(IC1-VCC)*%
X133825735Y-106674265D03*
X132500000Y-110650000D03*
%TO.N,/USB_C_IC/CC2*%
X125185202Y-94185201D03*
X126000000Y-94400000D03*
X122000000Y-94400000D03*
X130000000Y-101000000D03*
X132000000Y-102000000D03*
X135043015Y-101456985D03*
X120000000Y-98000000D03*
X124000000Y-93500000D03*
X127000000Y-96617201D03*
X130000000Y-99500000D03*
X120000000Y-101500000D03*
%TO.N,/USB_C_IC/data_-*%
X127774626Y-100833011D03*
%TO.N,/USB_C_IC/data_+*%
X127269003Y-101343698D03*
D40*
%TO.N,Net-(Q1-D)*%
X140500000Y-126000000D03*
X139500000Y-119500000D03*
%TD*%
D44*
%TO.N,VBUS*%
X134000000Y-109950000D02*
X134000000Y-110849000D01*
X133500000Y-109450000D02*
X134000000Y-109950000D01*
X133500000Y-109450000D02*
X136087500Y-109450000D01*
D45*
%TO.N,Net-(IC1-VOUT)*%
X145486500Y-115601000D02*
X148087500Y-113000000D01*
X138161577Y-115601000D02*
X145486500Y-115601000D01*
X135000000Y-112439423D02*
X138161577Y-115601000D01*
X135500000Y-111400000D02*
X135000000Y-111900000D01*
X135500000Y-111000000D02*
X135500000Y-111400000D01*
X135000000Y-111900000D02*
X135000000Y-112439423D01*
D44*
%TO.N,VBUS*%
X130237500Y-108662500D02*
X129500000Y-109400000D01*
X130837500Y-108662500D02*
X130237500Y-108662500D01*
D45*
%TO.N,Net-(Q1-G)*%
X130587500Y-106715442D02*
X130587500Y-105850000D01*
D44*
%TO.N,VBUS*%
X130837500Y-108662500D02*
X129087500Y-106912500D01*
%TO.N,Net-(IC1-VCC)*%
X134912500Y-114087500D02*
X134325000Y-113500000D01*
X134325000Y-113500000D02*
X132500000Y-113500000D01*
X132500000Y-113500000D02*
X132500000Y-112550000D01*
X134500000Y-114500000D02*
X134912500Y-114087500D01*
X132500000Y-114500000D02*
X134500000Y-114500000D01*
X131500000Y-113500000D02*
X132500000Y-114500000D01*
X130500000Y-113500000D02*
X131500000Y-113500000D01*
X131450000Y-112550000D02*
X132500000Y-112550000D01*
X130500000Y-113500000D02*
X131450000Y-112550000D01*
D45*
%TO.N,Net-(Q1-G)*%
X129000000Y-115000000D02*
X129000000Y-112708619D01*
X129298000Y-115298000D02*
X129000000Y-115000000D01*
X131161000Y-115199000D02*
X131062000Y-115298000D01*
X131062000Y-115298000D02*
X129298000Y-115298000D01*
D44*
%TO.N,Net-(IC1-VCC)*%
X143800000Y-127700000D02*
X146000000Y-125500000D01*
X143800000Y-128000000D02*
X143800000Y-127700000D01*
%TO.N,Net-(Q1-D)*%
X141500000Y-127500000D02*
X141500000Y-127000000D01*
%TO.N,Net-(IC1-VCC)*%
X143800000Y-128690674D02*
X143000000Y-129490674D01*
X143800000Y-128000000D02*
X143800000Y-128690674D01*
X144500000Y-128000000D02*
X145500000Y-129000000D01*
X143800000Y-128000000D02*
X144500000Y-128000000D01*
D45*
%TO.N,Net-(Q1-G)*%
X146909326Y-130590674D02*
X147200000Y-130300000D01*
X138090674Y-130590674D02*
X146909326Y-130590674D01*
X147200000Y-130300000D02*
X147200000Y-128000000D01*
X136500000Y-129000000D02*
X138090674Y-130590674D01*
D44*
%TO.N,Net-(IC1-VCC)*%
X143800000Y-128000000D02*
X143800000Y-128621577D01*
%TO.N,Net-(Q1-D)*%
X141500000Y-128572788D02*
X140582114Y-129490674D01*
X141500000Y-128000000D02*
X141500000Y-128572788D01*
D45*
%TO.N,Net-(Q1-G)*%
X136500000Y-129000000D02*
X137500000Y-128000000D01*
X137500000Y-128000000D02*
X139200000Y-128000000D01*
X136399000Y-129101000D02*
X136500000Y-129000000D01*
D46*
%TO.N,Net-(Q1-D)*%
X145000000Y-121700000D02*
X148500000Y-121700000D01*
D47*
X149500000Y-125000000D02*
X149500000Y-122700000D01*
D44*
X141500000Y-121700000D02*
X141500000Y-119500000D01*
%TO.N,Net-(IC1-VCC)*%
X143800000Y-125000000D02*
X143800000Y-128000000D01*
X132500000Y-114500000D02*
X132500000Y-113500000D01*
D45*
%TO.N,Net-(IC1-LED)*%
X133095421Y-107501000D02*
X132399000Y-107501000D01*
X133224735Y-107630314D02*
X133095421Y-107501000D01*
X133224735Y-107771737D02*
X133224735Y-107630314D01*
X133576792Y-108123794D02*
X133224735Y-107771737D01*
X134426735Y-107771737D02*
X134074678Y-108123794D01*
X134426735Y-107676000D02*
X134426735Y-107771737D01*
X134074678Y-108123794D02*
X133576792Y-108123794D01*
X132399000Y-107501000D02*
X131900000Y-108000000D01*
X134533990Y-107676000D02*
X134426735Y-107676000D01*
X135099000Y-107676000D02*
X134533990Y-107676000D01*
X135176000Y-107676000D02*
X135099000Y-107676000D01*
X135500000Y-108000000D02*
X135176000Y-107676000D01*
%TO.N,Net-(IC1-VOUT)*%
X134000000Y-105000000D02*
X135175000Y-106175000D01*
X131574000Y-105362154D02*
X131936154Y-105000000D01*
X131574000Y-106426000D02*
X131574000Y-105362154D01*
X131936154Y-105000000D02*
X134000000Y-105000000D01*
X135175000Y-106175000D02*
X135825000Y-106175000D01*
X132148000Y-107000000D02*
X131574000Y-106426000D01*
X133825735Y-107522794D02*
X133302941Y-107000000D01*
X133302941Y-107000000D02*
X132148000Y-107000000D01*
%TO.N,Net-(IC1-IFB)*%
X138000000Y-104000000D02*
X138000000Y-101212500D01*
D48*
%TO.N,GND*%
X126052400Y-103756893D02*
X126272600Y-103977093D01*
D45*
X149490000Y-97490000D02*
X149500000Y-97500000D01*
D49*
X138862500Y-110500000D02*
X138862500Y-110362500D01*
D48*
X126729529Y-103794375D02*
X126692047Y-103756893D01*
X126052400Y-103756893D02*
X126406893Y-103756893D01*
D45*
X131637500Y-86125000D02*
X131637500Y-87350000D01*
D50*
X146020000Y-119020000D02*
X148137500Y-119020000D01*
D48*
X126650000Y-105550000D02*
X126600000Y-105500000D01*
D45*
X149950000Y-104450000D02*
X151000000Y-105500000D01*
X134000000Y-99437500D02*
X136000000Y-99437500D01*
X134000000Y-99437500D02*
X134000000Y-99500000D01*
D49*
X123150000Y-103153000D02*
X123103000Y-103200000D01*
D45*
X129500000Y-92487500D02*
X131500000Y-92487500D01*
X140937500Y-99437500D02*
X141000000Y-99500000D01*
X129500000Y-92487500D02*
X128012500Y-92487500D01*
X147862500Y-97490000D02*
X149490000Y-97490000D01*
D49*
X123544105Y-104191163D02*
X123103000Y-103750058D01*
X123150000Y-98950000D02*
X123150000Y-103153000D01*
D48*
X127000000Y-104200000D02*
X127000000Y-104050000D01*
X126317576Y-97990331D02*
X126317576Y-97399866D01*
X126231587Y-103756893D02*
X126052400Y-103756893D01*
D45*
X131637500Y-87350000D02*
X131637500Y-88625000D01*
D48*
X126406893Y-103756893D02*
X126700000Y-104050000D01*
D45*
X120753000Y-111500000D02*
X120753000Y-111628000D01*
X121625000Y-110500000D02*
X121625000Y-112500000D01*
D49*
X124466594Y-97835201D02*
X124837400Y-98206007D01*
D45*
X136000000Y-99437500D02*
X137950000Y-99437500D01*
D48*
X126194493Y-98255507D02*
X126750000Y-97700000D01*
X127000000Y-104050000D02*
X126706893Y-103756893D01*
X126052400Y-98255507D02*
X126317576Y-97990331D01*
D50*
X144000000Y-119000000D02*
X146000000Y-119000000D01*
X146000000Y-119000000D02*
X146020000Y-119020000D01*
D48*
X126844493Y-98255507D02*
X126850000Y-98250000D01*
D50*
X140862500Y-114172976D02*
X139209524Y-112520000D01*
D48*
X126052400Y-98255507D02*
X126844493Y-98255507D01*
X126600000Y-105500000D02*
X126600000Y-105100000D01*
X126692047Y-103756893D02*
X126052400Y-103756893D01*
D50*
X140862500Y-114500000D02*
X140862500Y-114172976D01*
D45*
X141862500Y-106862500D02*
X141000000Y-106000000D01*
X136900000Y-93100000D02*
X137500000Y-92500000D01*
X139950000Y-99487500D02*
X140000000Y-99437500D01*
X149862500Y-108500000D02*
X149862500Y-110500000D01*
D48*
X126700000Y-104050000D02*
X126700000Y-104550000D01*
X126272600Y-103977093D02*
X126272600Y-105327400D01*
D45*
X137500000Y-92487500D02*
X135500000Y-92487500D01*
X131650000Y-88612500D02*
X131637500Y-88625000D01*
X138000000Y-99487500D02*
X139950000Y-99487500D01*
X131500000Y-92487500D02*
X133500000Y-92487500D01*
X137500000Y-107850000D02*
X137500000Y-109000000D01*
D48*
X126700000Y-104550000D02*
X126900000Y-104750000D01*
D45*
X137500000Y-92500000D02*
X137500000Y-92487500D01*
D48*
X126706893Y-103756893D02*
X126052400Y-103756893D01*
X124886900Y-98255507D02*
X124837400Y-98206007D01*
X126272600Y-105327400D02*
X125400000Y-106200000D01*
D45*
X147862500Y-97490000D02*
X147862500Y-99500000D01*
X149862500Y-108500000D02*
X149862500Y-107637500D01*
D49*
X138862500Y-110362500D02*
X137500000Y-109000000D01*
D45*
X133500000Y-92487500D02*
X135500000Y-92487500D01*
D49*
X124466594Y-104177199D02*
X123558069Y-104177199D01*
D45*
X149437500Y-104450000D02*
X149950000Y-104450000D01*
X120753000Y-111628000D02*
X121625000Y-112500000D01*
D49*
X124837400Y-103806393D02*
X124466594Y-104177199D01*
D45*
X134000000Y-99500000D02*
X135000000Y-100500000D01*
X142500000Y-106862500D02*
X141862500Y-106862500D01*
X136900000Y-93500000D02*
X136900000Y-93100000D01*
D48*
X126500000Y-105000000D02*
X126500000Y-104204493D01*
X126600000Y-105100000D02*
X126500000Y-105000000D01*
D45*
X149862500Y-107637500D02*
X150000000Y-107500000D01*
D48*
X126052400Y-98255507D02*
X124886900Y-98255507D01*
D45*
X139775000Y-90175000D02*
X138825000Y-90175000D01*
D49*
X123558069Y-104177199D02*
X123544105Y-104191163D01*
D50*
X138862500Y-112520000D02*
X138862500Y-110500000D01*
D45*
X128012500Y-92487500D02*
X128000000Y-92500000D01*
D49*
X123150000Y-97950000D02*
X123264799Y-97835201D01*
D48*
X126052400Y-98255507D02*
X126194493Y-98255507D01*
D45*
X138326000Y-91661500D02*
X137500000Y-92487500D01*
D49*
X123264799Y-97835201D02*
X124466594Y-97835201D01*
D50*
X140862500Y-114500000D02*
X142500000Y-114500000D01*
X148137500Y-115000000D02*
X148137500Y-117000000D01*
D45*
X137950000Y-99437500D02*
X138000000Y-99487500D01*
D48*
X126500000Y-104204493D02*
X126052400Y-103756893D01*
D49*
X123150000Y-97950000D02*
X123150000Y-98950000D01*
D50*
X148137500Y-117000000D02*
X148137500Y-119020000D01*
D45*
X138825000Y-90175000D02*
X138326000Y-90674000D01*
X140000000Y-99437500D02*
X140937500Y-99437500D01*
D49*
X123103000Y-103750058D02*
X123103000Y-103200000D01*
D50*
X139209524Y-112520000D02*
X138862500Y-112520000D01*
D45*
X121625000Y-108500000D02*
X121625000Y-110500000D01*
X138326000Y-90674000D02*
X138326000Y-91661500D01*
%TO.N,VBUS*%
X136500000Y-107850000D02*
X136500000Y-109037500D01*
D48*
X126946902Y-99682109D02*
X126873126Y-99755885D01*
X126072126Y-102276241D02*
X126823759Y-102276241D01*
X126052400Y-102256515D02*
X126072126Y-102236789D01*
X126052400Y-99755885D02*
X124887900Y-99755885D01*
X126873126Y-99755885D02*
X126052400Y-99755885D01*
D45*
X128087500Y-107912500D02*
X129087500Y-106912500D01*
D51*
X128500000Y-103850000D02*
X128500000Y-103557050D01*
D44*
X138617626Y-114500000D02*
X139137500Y-114500000D01*
D48*
X126052400Y-102256515D02*
X124887900Y-102256515D01*
D51*
X127192950Y-102250000D02*
X126850000Y-102250000D01*
D48*
X124887900Y-102256515D02*
X124837400Y-102206015D01*
D44*
X128500000Y-106325000D02*
X128500000Y-105000000D01*
X131625000Y-109450000D02*
X130837500Y-108662500D01*
X137137500Y-113019874D02*
X138617626Y-114500000D01*
D51*
X128500000Y-105000000D02*
X128500000Y-103850000D01*
D44*
X137137500Y-110500000D02*
X137137500Y-112520000D01*
D48*
X126072126Y-102236789D02*
X126600000Y-102236789D01*
D45*
X136500000Y-109037500D02*
X136087500Y-109450000D01*
X128087500Y-108500000D02*
X128087500Y-107912500D01*
D44*
X136087500Y-109450000D02*
X137137500Y-110500000D01*
X129087500Y-106912500D02*
X128500000Y-106325000D01*
D48*
X126052400Y-102256515D02*
X126072126Y-102276241D01*
D44*
X132500000Y-109450000D02*
X133500000Y-109450000D01*
D48*
X126823759Y-102276241D02*
X126850000Y-102250000D01*
X124887900Y-99755885D02*
X124837400Y-99806385D01*
D44*
X137137500Y-112520000D02*
X137137500Y-113019874D01*
X132500000Y-109450000D02*
X131625000Y-109450000D01*
D48*
X126946902Y-99679011D02*
X126946902Y-99682109D01*
D51*
X128500000Y-103557050D02*
X127192950Y-102250000D01*
D49*
%TO.N,+5V*%
X133000000Y-98500000D02*
X132500000Y-99000000D01*
X144654000Y-100591500D02*
X144654000Y-99000000D01*
X133994734Y-102725000D02*
X134000000Y-102725000D01*
D45*
X135825000Y-105175000D02*
X135175000Y-105175000D01*
X135175000Y-105175000D02*
X134500000Y-104500000D01*
D49*
X148137500Y-108500000D02*
X148137500Y-110500000D01*
X148137500Y-108500000D02*
X148137500Y-104075000D01*
X147562500Y-103500000D02*
X144654000Y-100591500D01*
X132500000Y-99000000D02*
X132500000Y-99500000D01*
X142500000Y-98500000D02*
X133000000Y-98500000D01*
D45*
X144000000Y-111912500D02*
X146725000Y-111912500D01*
X143500000Y-112412500D02*
X144000000Y-111912500D01*
D49*
X148137500Y-104075000D02*
X147562500Y-103500000D01*
X132500000Y-101000000D02*
X132500000Y-101230266D01*
D45*
X141000000Y-112412500D02*
X143500000Y-112412500D01*
X146725000Y-111912500D02*
X148137500Y-110500000D01*
D49*
X132500000Y-101230266D02*
X133994734Y-102725000D01*
D45*
%TO.N,+3V3*%
X133500000Y-90762500D02*
X131500000Y-90762500D01*
D49*
X149437500Y-102550000D02*
X149187500Y-102550000D01*
D45*
X137500000Y-90762500D02*
X135500000Y-90762500D01*
X146500000Y-86500000D02*
X143500000Y-86500000D01*
D49*
X142500000Y-97500000D02*
X142500000Y-96587500D01*
D45*
X143500000Y-86500000D02*
X142000000Y-88000000D01*
X129500000Y-90762500D02*
X131500000Y-90762500D01*
X141000000Y-89000000D02*
X141000000Y-89037499D01*
X141000000Y-89028082D02*
X140503082Y-89525000D01*
X140503082Y-89525000D02*
X139775000Y-89525000D01*
X139775000Y-89525000D02*
X138737500Y-89525000D01*
X149375000Y-87920000D02*
X148080000Y-87920000D01*
X148080000Y-87920000D02*
X148000000Y-88000000D01*
D49*
X145010000Y-97490000D02*
X145000000Y-97500000D01*
X146137500Y-97490000D02*
X145010000Y-97490000D01*
D45*
X135500000Y-90762500D02*
X133500000Y-90762500D01*
D49*
X142412500Y-90412500D02*
X141000000Y-89000000D01*
X142500000Y-96587500D02*
X142412500Y-96500000D01*
D45*
X138737500Y-89525000D02*
X137500000Y-90762500D01*
D49*
X142412500Y-96500000D02*
X142412500Y-90412500D01*
D45*
X141000000Y-89000000D02*
X141000000Y-89028082D01*
D49*
X149187500Y-102550000D02*
X146137500Y-99500000D01*
X146137500Y-99500000D02*
X146137500Y-97490000D01*
D48*
%TO.N,/MCU/OSC_IN*%
X136996700Y-86496700D02*
X136500000Y-86496700D01*
X139775000Y-88225000D02*
X138725000Y-88225000D01*
D45*
X136128300Y-86125000D02*
X136500000Y-86496700D01*
X133362500Y-86125000D02*
X136128300Y-86125000D01*
D48*
X138725000Y-88225000D02*
X136996700Y-86496700D01*
%TO.N,/MCU/OSC_OUT*%
X136500000Y-88503300D02*
X136003300Y-88503300D01*
X136003300Y-88503300D02*
X135881600Y-88625000D01*
X135881600Y-88625000D02*
X133362500Y-88625000D01*
X136871700Y-88875000D02*
X136500000Y-88503300D01*
X139775000Y-88875000D02*
X136871700Y-88875000D01*
D45*
%TO.N,Net-(D1-A)*%
X126175000Y-110500000D02*
X123375000Y-110500000D01*
%TO.N,Net-(D2-A)*%
X126262500Y-108500000D02*
X123375000Y-108500000D01*
%TO.N,/MCU/STATUS_LED*%
X127551000Y-87599057D02*
X127551000Y-90970873D01*
X122766217Y-104642656D02*
X123001000Y-104877438D01*
X124121873Y-94400000D02*
X123000000Y-94400000D01*
X123001000Y-105251000D02*
X123001000Y-105292481D01*
X145500000Y-93425000D02*
X145926000Y-93851000D01*
X122709521Y-104585960D02*
X122766217Y-104642656D01*
X152452000Y-92396496D02*
X152452000Y-87171517D01*
X126588846Y-107500000D02*
X127161500Y-108072654D01*
X145926000Y-93851000D02*
X150997496Y-93851000D01*
X150997496Y-93851000D02*
X152452000Y-92396496D01*
X123001000Y-104877438D02*
X123001000Y-104877439D01*
X129851057Y-85299000D02*
X127551000Y-87599057D01*
X125104292Y-107500000D02*
X126588846Y-107500000D01*
X150579483Y-85299000D02*
X129851057Y-85299000D01*
X127161500Y-108072654D02*
X127161500Y-111661500D01*
X123001000Y-105292481D02*
X123001000Y-105396708D01*
X122503000Y-97099000D02*
X122503000Y-104377438D01*
X122602000Y-97000000D02*
X122503000Y-97099000D01*
X122709521Y-104583958D02*
X122709521Y-104585960D01*
X152452000Y-87171517D02*
X150579483Y-85299000D01*
X127551000Y-90970873D02*
X124121873Y-94400000D01*
X123001000Y-104877440D02*
X123001000Y-105251000D01*
X123001000Y-105396708D02*
X125104292Y-107500000D01*
X122503000Y-104377438D02*
X122709521Y-104583958D01*
X123001000Y-104877439D02*
X123001000Y-104877440D01*
X127161500Y-111661500D02*
X128000000Y-112500000D01*
%TO.N,/MCU/UART_TX*%
X119500000Y-108500000D02*
X119500000Y-114000000D01*
X139775000Y-91475000D02*
X140512499Y-91475000D01*
X136572367Y-95500000D02*
X136571366Y-95501000D01*
X139078082Y-95500000D02*
X136572367Y-95500000D01*
X121501000Y-106499000D02*
X119500000Y-108500000D01*
X121501000Y-96207520D02*
X121501000Y-106499000D01*
X136571366Y-95501000D02*
X122207520Y-95501000D01*
X119500000Y-114000000D02*
X121299000Y-115799000D01*
X131299000Y-115799000D02*
X132500000Y-117000000D01*
X140863500Y-91826001D02*
X140863500Y-93714582D01*
X140863500Y-93714582D02*
X139078082Y-95500000D01*
X121299000Y-115799000D02*
X131299000Y-115799000D01*
X122207520Y-95501000D02*
X121501000Y-96207520D01*
X140512499Y-91475000D02*
X140863500Y-91826001D01*
%TO.N,/MCU/UART_RX*%
X139775000Y-92125000D02*
X139046918Y-92125000D01*
X126460000Y-120500000D02*
X129960000Y-117000000D01*
X119000000Y-118500000D02*
X121000000Y-120500000D01*
X138326000Y-93037846D02*
X136363846Y-95000000D01*
X121000000Y-106000000D02*
X119000000Y-108000000D01*
X138326000Y-92845918D02*
X138326000Y-93037846D01*
X122000000Y-95000000D02*
X121000000Y-96000000D01*
X136363846Y-95000000D02*
X122000000Y-95000000D01*
X139046918Y-92125000D02*
X138326000Y-92845918D01*
X121000000Y-96000000D02*
X121000000Y-106000000D01*
X121000000Y-120500000D02*
X126460000Y-120500000D01*
X119000000Y-108000000D02*
X119000000Y-118500000D01*
%TO.N,Net-(IC1-LED)*%
X140675000Y-106675000D02*
X141000000Y-107000000D01*
X139675000Y-106675000D02*
X140675000Y-106675000D01*
X140577000Y-108423000D02*
X139689468Y-108423000D01*
X128750000Y-110500000D02*
X128000000Y-110500000D01*
X141000000Y-107000000D02*
X141000000Y-108000000D01*
X141000000Y-108000000D02*
X140577000Y-108423000D01*
%TO.N,Net-(IC1-OTP)*%
X139000000Y-102262500D02*
X140000000Y-101262500D01*
X139000000Y-104000000D02*
X139000000Y-102262500D01*
%TO.N,/MCU/NRST*%
X141071020Y-94215582D02*
X139269401Y-96017201D01*
X140503082Y-90825000D02*
X139775000Y-90825000D01*
X151951000Y-87379037D02*
X150470963Y-85899000D01*
X139775000Y-90825000D02*
X140571019Y-90825000D01*
X120153000Y-108555521D02*
X120153000Y-113500000D01*
X122500000Y-105084960D02*
X122500000Y-105789480D01*
X122498000Y-105791480D02*
X122500000Y-105793480D01*
X122399839Y-96017201D02*
X122002000Y-96415040D01*
X140943236Y-90423265D02*
X140904817Y-90423265D01*
X141364500Y-92042939D02*
X141364500Y-92207061D01*
X140904817Y-90423265D02*
X140503082Y-90825000D01*
X141364500Y-91618480D02*
X141364500Y-91618481D01*
X143252470Y-85899000D02*
X142325735Y-86825735D01*
X140720020Y-90974000D02*
X141013499Y-91267479D01*
X139269401Y-96017201D02*
X122399839Y-96017201D01*
X122500000Y-105789480D02*
X122498000Y-105791480D01*
X141364500Y-91618481D02*
X141364500Y-91627897D01*
X122002000Y-104584960D02*
X122208521Y-104791480D01*
X141364500Y-92622103D02*
X141364500Y-93507062D01*
X150645000Y-93000000D02*
X151951000Y-91694000D01*
X141364500Y-92207061D02*
X141364500Y-92622103D01*
X122500000Y-106206520D02*
X122206521Y-106500000D01*
X151951000Y-91694000D02*
X151951000Y-87379037D01*
X139269401Y-96017201D02*
X139752200Y-96500000D01*
X140571019Y-90825000D02*
X140720019Y-90974000D01*
X141364500Y-93507062D02*
X141364500Y-93922102D01*
X141071021Y-91325001D02*
X141071020Y-91325001D01*
X130750000Y-121250000D02*
X130750000Y-124250000D01*
X150470963Y-85899000D02*
X143252470Y-85899000D01*
X141364500Y-91627897D02*
X141364500Y-92033521D01*
X141013499Y-91267480D02*
X141071021Y-91325001D01*
X141364500Y-93922102D02*
X141364500Y-93922103D01*
X141364500Y-92033521D02*
X141364500Y-92042939D01*
X122206521Y-104791480D02*
X122500000Y-105084960D01*
X122206521Y-106500000D02*
X122206520Y-106500000D01*
X139752200Y-96500000D02*
X140587500Y-96500000D01*
X141013499Y-91267479D02*
X141013499Y-91267480D01*
X141364500Y-93922103D02*
X141071020Y-94215582D01*
X122002000Y-96415040D02*
X122002000Y-104584960D01*
X122206520Y-106500000D02*
X120151000Y-108555521D01*
X141071021Y-91325001D02*
X141364500Y-91618480D01*
X140720019Y-90974000D02*
X140720020Y-90974000D01*
X130750000Y-124250000D02*
X130800000Y-124300000D01*
X122500000Y-105793480D02*
X122500000Y-106206520D01*
%TO.N,/MCU/I2C_SDA*%
X141000000Y-110587500D02*
X141000000Y-109500000D01*
D48*
X143500000Y-108500000D02*
X143500000Y-90562501D01*
X138000000Y-107850000D02*
X138000000Y-108531000D01*
X140512499Y-87575000D02*
X139775000Y-87575000D01*
X141000000Y-109500000D02*
X142500000Y-109500000D01*
X143500000Y-90562501D02*
X140512499Y-87575000D01*
X138000000Y-108531000D02*
X138969000Y-109500000D01*
X138969000Y-109500000D02*
X141000000Y-109500000D01*
X142500000Y-109500000D02*
X143500000Y-108500000D01*
%TO.N,/MCU/I2C_SCL*%
X144077000Y-88260501D02*
X144077000Y-108000000D01*
X139112468Y-109000000D02*
X138500000Y-108387532D01*
D45*
X144000000Y-108077000D02*
X144077000Y-108000000D01*
X144000000Y-110087500D02*
X144000000Y-108077000D01*
D48*
X138500000Y-108387532D02*
X138500000Y-107850000D01*
X144762501Y-87575000D02*
X144077000Y-88260501D01*
X141923000Y-109000000D02*
X139112468Y-109000000D01*
X145500000Y-87575000D02*
X144762501Y-87575000D01*
X142500000Y-108423000D02*
X141923000Y-109000000D01*
D45*
%TO.N,+1V8*%
X139675000Y-104675000D02*
X140325000Y-104675000D01*
X140325000Y-104675000D02*
X140787500Y-105137500D01*
X140787500Y-105137500D02*
X142500000Y-105137500D01*
D47*
%TO.N,Net-(Q1-D)*%
X149500000Y-122700000D02*
X148500000Y-121700000D01*
D46*
X148500000Y-121700000D02*
X149500000Y-121700000D01*
X141500000Y-121700000D02*
X145000000Y-121700000D01*
D44*
X141500000Y-127000000D02*
X140500000Y-126000000D01*
X139500000Y-119700000D02*
X141500000Y-121700000D01*
X141500000Y-128000000D02*
X141500000Y-127500000D01*
D47*
X149500000Y-128000000D02*
X149500000Y-125000000D01*
D44*
X139500000Y-119500000D02*
X139500000Y-119700000D01*
D45*
%TO.N,Net-(Q1-G)*%
X129399000Y-123809602D02*
X134690398Y-129101000D01*
X129399000Y-120101000D02*
X129399000Y-123809602D01*
X131000000Y-118500000D02*
X129399000Y-120101000D01*
X134690398Y-129101000D02*
X136399000Y-129101000D01*
D44*
%TO.N,Net-(IC1-VCC)*%
X132500000Y-112550000D02*
X133375000Y-112550000D01*
D45*
X132500000Y-110650000D02*
X132500000Y-112550000D01*
D44*
X133375000Y-112550000D02*
X134912500Y-114087500D01*
D45*
X133825735Y-106674265D02*
X134326470Y-107175000D01*
X134326470Y-107175000D02*
X135825000Y-107175000D01*
%TO.N,/USB_C_IC/CC2*%
X126000000Y-94400000D02*
X125400001Y-94400000D01*
X130000000Y-98000000D02*
X128617201Y-96617201D01*
X137500000Y-102762500D02*
X136000000Y-101262500D01*
X125400001Y-94400000D02*
X125185202Y-94185201D01*
X137500000Y-104000000D02*
X137500000Y-102762500D01*
X136000000Y-101262500D02*
X135237500Y-101262500D01*
X130000000Y-99500000D02*
X130000000Y-98000000D01*
X120000000Y-98000000D02*
X120000000Y-101500000D01*
X128617201Y-96617201D02*
X127000000Y-96617201D01*
X124000000Y-93500000D02*
X122900000Y-93500000D01*
X132000000Y-102000000D02*
X131000000Y-102000000D01*
X131000000Y-102000000D02*
X130000000Y-101000000D01*
X135237500Y-101262500D02*
X135043015Y-101456985D01*
X122900000Y-93500000D02*
X122000000Y-94400000D01*
%TO.N,/USB_C_IC/CC1*%
X137000000Y-104000000D02*
X137000000Y-103176000D01*
D48*
X126054400Y-100256011D02*
X132993511Y-100256011D01*
D45*
X137000000Y-103176000D02*
X136648000Y-102824000D01*
D48*
X132993511Y-100256011D02*
X134000000Y-101262500D01*
D45*
X135561500Y-102824000D02*
X134000000Y-101262500D01*
X136648000Y-102824000D02*
X135561500Y-102824000D01*
D52*
%TO.N,/USB_C_IC/data_-*%
X136102252Y-103602252D02*
X136500000Y-104000000D01*
X127774626Y-100833011D02*
X127734313Y-100792698D01*
X127734313Y-100792698D02*
X127040771Y-100792698D01*
X128265165Y-101446966D02*
X130093198Y-103275000D01*
X130093198Y-103275000D02*
X135418198Y-103275000D01*
X135745450Y-103602252D02*
X136102252Y-103602252D01*
X128265165Y-101305546D02*
X128265165Y-101446966D01*
X135418198Y-103275000D02*
X135745450Y-103602252D01*
X127792630Y-100833011D02*
X128265165Y-101305546D01*
X127040771Y-100792698D02*
X126577206Y-101256263D01*
X126577206Y-101256263D02*
X126052400Y-101256263D01*
X127774626Y-100833011D02*
X127792630Y-100833011D01*
D45*
%TO.N,/USB_C_IC/PWR_EN*%
X133850000Y-105850000D02*
X132412500Y-105850000D01*
X135825000Y-106675000D02*
X134675000Y-106675000D01*
X134675000Y-106675000D02*
X133850000Y-105850000D01*
D52*
%TO.N,/USB_C_IC/data_+*%
X129906802Y-103725000D02*
X135231802Y-103725000D01*
X135231802Y-103725000D02*
X135427252Y-103920450D01*
D53*
X124858650Y-101418763D02*
X125521276Y-100756137D01*
X125521276Y-100756137D02*
X126052400Y-100756137D01*
D52*
X127690470Y-101765165D02*
X127946966Y-101765165D01*
X127946966Y-101765165D02*
X129906802Y-103725000D01*
X135427252Y-103920450D02*
X135427252Y-104277252D01*
D53*
X124837400Y-101418763D02*
X124858650Y-101418763D01*
D52*
X127269003Y-101343698D02*
X127690470Y-101765165D01*
X135427252Y-104277252D02*
X135825000Y-104675000D01*
D48*
%TO.N,/MCU/SWCLK*%
X151473000Y-87577031D02*
X150532969Y-86637000D01*
X151473000Y-88362000D02*
X151473000Y-87577031D01*
X146195554Y-88225000D02*
X145500000Y-88225000D01*
X147783554Y-86637000D02*
X146195554Y-88225000D01*
X150532969Y-86637000D02*
X147783554Y-86637000D01*
X150645000Y-89190000D02*
X151473000Y-88362000D01*
%TO.N,/MCU/SWDIO*%
X150645000Y-87920000D02*
X150645000Y-87534000D01*
X146195554Y-88875000D02*
X145500000Y-88875000D01*
X150645000Y-87534000D02*
X150203000Y-87092000D01*
X147978554Y-87092000D02*
X146195554Y-88875000D01*
X150203000Y-87092000D02*
X147978554Y-87092000D01*
D45*
%TO.N,Net-(D3-A)*%
X123375000Y-112500000D02*
X126175000Y-112500000D01*
D44*
%TO.N,Net-(IC1-VCC)*%
X140484763Y-124151000D02*
X143651000Y-124151000D01*
X134912500Y-114087500D02*
X137649000Y-116824000D01*
X143651000Y-124151000D02*
X143800000Y-124300000D01*
X143800000Y-124300000D02*
X143800000Y-125000000D01*
X139000000Y-124000000D02*
X140333763Y-124000000D01*
X137649000Y-122649000D02*
X139000000Y-124000000D01*
X137649000Y-116824000D02*
X137649000Y-122649000D01*
X140333763Y-124000000D02*
X140484763Y-124151000D01*
%TD*%
%TA.AperFunction,Conductor*%
%TO.N,GND*%
G36*
X127202592Y-103356812D02*
G01*
X127209080Y-103362852D01*
X127256750Y-103410522D01*
X127261338Y-103418925D01*
X127268956Y-103424728D01*
X127277811Y-103449093D01*
X127290235Y-103471845D01*
X127289732Y-103481892D01*
X127292823Y-103490395D01*
X127288311Y-103510329D01*
X127287002Y-103536516D01*
X127280290Y-103557173D01*
X127249500Y-103751577D01*
X127249500Y-103948422D01*
X127280291Y-104142827D01*
X127280291Y-104142830D01*
X127341114Y-104330021D01*
X127360825Y-104368707D01*
X127373720Y-104437376D01*
X127360825Y-104481293D01*
X127341114Y-104519978D01*
X127280291Y-104707169D01*
X127280291Y-104707172D01*
X127249500Y-104901577D01*
X127249500Y-106423422D01*
X127280290Y-106617826D01*
X127341117Y-106805030D01*
X127430478Y-106980408D01*
X127446975Y-107003115D01*
X127451206Y-107014974D01*
X127459451Y-107024489D01*
X127462724Y-107047255D01*
X127470455Y-107068921D01*
X127467603Y-107081184D01*
X127469395Y-107093647D01*
X127459838Y-107114572D01*
X127454629Y-107136975D01*
X127445600Y-107145749D01*
X127440370Y-107157203D01*
X127421019Y-107169638D01*
X127404524Y-107185670D01*
X127390776Y-107189074D01*
X127381592Y-107194977D01*
X127346657Y-107200000D01*
X127260154Y-107200000D01*
X127193115Y-107180315D01*
X127172473Y-107163681D01*
X127003520Y-106994727D01*
X127003519Y-106994726D01*
X127003515Y-106994723D01*
X126896973Y-106923535D01*
X126778590Y-106874499D01*
X126778584Y-106874497D01*
X126652917Y-106849500D01*
X126652915Y-106849500D01*
X125425100Y-106849500D01*
X125358061Y-106829815D01*
X125337419Y-106813181D01*
X125016757Y-106492519D01*
X124992734Y-106458674D01*
X124881518Y-106227900D01*
X124870147Y-106158965D01*
X124897851Y-106094822D01*
X124945771Y-106059508D01*
X124967520Y-106050499D01*
X125017198Y-106029923D01*
X125017201Y-106029921D01*
X125017204Y-106029920D01*
X125182381Y-105919552D01*
X125322853Y-105779080D01*
X125336464Y-105758710D01*
X125390076Y-105713904D01*
X125439566Y-105703600D01*
X125581727Y-105703600D01*
X125581728Y-105703599D01*
X125766751Y-105666796D01*
X125941041Y-105594603D01*
X126097898Y-105489794D01*
X126231294Y-105356398D01*
X126336103Y-105199541D01*
X126408296Y-105025251D01*
X126445100Y-104840225D01*
X126445100Y-104531387D01*
X126464785Y-104464348D01*
X126517589Y-104418593D01*
X126555845Y-104408097D01*
X126604280Y-104402889D01*
X126738986Y-104352647D01*
X126738993Y-104352643D01*
X126854087Y-104266483D01*
X126854090Y-104266480D01*
X126940250Y-104151386D01*
X126940254Y-104151379D01*
X126990496Y-104016672D01*
X126990498Y-104016665D01*
X126996899Y-103957137D01*
X126996900Y-103957120D01*
X126996900Y-103909293D01*
X126995433Y-103909293D01*
X126982509Y-103905498D01*
X126969073Y-103906459D01*
X126949637Y-103895845D01*
X126928394Y-103889608D01*
X126919573Y-103879429D01*
X126907751Y-103872973D01*
X126897137Y-103853536D01*
X126882639Y-103836804D01*
X126880722Y-103823473D01*
X126874266Y-103811650D01*
X126875846Y-103789562D01*
X126872695Y-103767646D01*
X126878399Y-103753874D01*
X126879252Y-103741958D01*
X126896167Y-103710981D01*
X126938688Y-103654181D01*
X126972588Y-103628804D01*
X126996900Y-103604493D01*
X126996900Y-103556673D01*
X126996899Y-103556659D01*
X126993219Y-103522433D01*
X126993721Y-103519646D01*
X126992754Y-103516984D01*
X126993218Y-103495929D01*
X126997400Y-103457040D01*
X126997399Y-103450542D01*
X127017077Y-103383504D01*
X127069876Y-103337744D01*
X127139034Y-103327793D01*
X127202592Y-103356812D01*
G37*
%TD.AperFunction*%
%TD*%
%TA.AperFunction,Conductor*%
%TO.N,VOUT*%
G36*
X152483243Y-107519685D02*
G01*
X152528998Y-107572489D01*
X152533858Y-107584841D01*
X152551383Y-107637497D01*
X152551386Y-107637503D01*
X152629171Y-107758537D01*
X152629179Y-107758548D01*
X152674923Y-107811340D01*
X152674926Y-107811343D01*
X152674930Y-107811347D01*
X152783664Y-107905567D01*
X152783667Y-107905568D01*
X152783668Y-107905569D01*
X152877636Y-107948484D01*
X152914541Y-107965338D01*
X152981580Y-107985023D01*
X152981584Y-107985024D01*
X153124000Y-108005500D01*
X153124003Y-108005500D01*
X156547039Y-108005500D01*
X156614078Y-108025185D01*
X156659833Y-108077989D01*
X156669777Y-108147147D01*
X156640752Y-108210703D01*
X156581974Y-108248477D01*
X156579133Y-108249275D01*
X156420170Y-108291868D01*
X156420159Y-108291872D01*
X156372338Y-108311679D01*
X157000000Y-108939340D01*
X157000001Y-108939340D01*
X157627660Y-108311679D01*
X157627660Y-108311678D01*
X157579837Y-108291871D01*
X157420867Y-108249275D01*
X157361207Y-108212910D01*
X157330678Y-108150063D01*
X157338973Y-108080687D01*
X157383458Y-108026809D01*
X157450010Y-108005535D01*
X157452961Y-108005500D01*
X162725499Y-108005500D01*
X162792538Y-108025185D01*
X162838293Y-108077989D01*
X162849499Y-108129500D01*
X162849499Y-121676000D01*
X162829814Y-121743039D01*
X162777010Y-121788794D01*
X162725499Y-121800000D01*
X153950000Y-121800000D01*
X153950000Y-125069441D01*
X153947617Y-125093632D01*
X153935137Y-125156369D01*
X153899500Y-125518209D01*
X153899500Y-125881790D01*
X153935136Y-126243620D01*
X153935138Y-126243633D01*
X153941967Y-126277967D01*
X153946050Y-126298492D01*
X153947617Y-126306366D01*
X153950000Y-126330558D01*
X153950000Y-130617174D01*
X153930315Y-130684213D01*
X153877511Y-130729968D01*
X153826000Y-130741174D01*
X150624000Y-130741174D01*
X150556961Y-130721489D01*
X150511206Y-130668685D01*
X150500000Y-130617174D01*
X150500000Y-129288546D01*
X150506821Y-129265314D01*
X150509380Y-129241235D01*
X150518338Y-129226094D01*
X150519685Y-129221507D01*
X150527341Y-129210874D01*
X150553675Y-129178112D01*
X150611015Y-129138196D01*
X150680837Y-129135616D01*
X150740970Y-129171194D01*
X150746967Y-129178115D01*
X150802632Y-129247366D01*
X150802633Y-129247367D01*
X150950972Y-129366606D01*
X151050000Y-129415719D01*
X151050000Y-129415718D01*
X152550000Y-129415718D01*
X152649027Y-129366606D01*
X152797366Y-129247367D01*
X152797367Y-129247366D01*
X152916607Y-129099025D01*
X152916609Y-129099022D01*
X153001168Y-128928523D01*
X153045566Y-128750000D01*
X152550000Y-128750000D01*
X152550000Y-129415718D01*
X151050000Y-129415718D01*
X151050000Y-127250000D01*
X152550000Y-127250000D01*
X153045566Y-127250000D01*
X153001168Y-127071476D01*
X152916609Y-126900977D01*
X152916607Y-126900974D01*
X152797367Y-126752633D01*
X152797366Y-126752632D01*
X152649025Y-126633392D01*
X152550000Y-126584280D01*
X152550000Y-127250000D01*
X151050000Y-127250000D01*
X151050000Y-126579736D01*
X151012544Y-126537882D01*
X151000500Y-126484573D01*
X151000500Y-123305390D01*
X151020185Y-123238351D01*
X151072989Y-123192596D01*
X151090382Y-123186176D01*
X151273049Y-123133909D01*
X151453407Y-123039698D01*
X151611109Y-122911109D01*
X151739698Y-122753407D01*
X151833909Y-122573049D01*
X151889886Y-122377418D01*
X151900500Y-122258037D01*
X151900499Y-121141964D01*
X151889886Y-121022582D01*
X151833909Y-120826951D01*
X151739698Y-120646593D01*
X151611109Y-120488891D01*
X151611107Y-120488889D01*
X151611106Y-120488888D01*
X151545638Y-120435505D01*
X151506122Y-120377884D01*
X151500000Y-120339404D01*
X151500000Y-120000000D01*
X150762345Y-120000000D01*
X150695306Y-119980315D01*
X150649551Y-119927511D01*
X150639607Y-119858353D01*
X150668632Y-119794797D01*
X150674664Y-119788319D01*
X150744944Y-119718038D01*
X150744947Y-119718034D01*
X150835448Y-119571311D01*
X150835453Y-119571300D01*
X150860737Y-119495000D01*
X149986500Y-119495000D01*
X149919461Y-119475315D01*
X149873706Y-119422511D01*
X149862500Y-119371000D01*
X149862500Y-119020000D01*
X149511500Y-119020000D01*
X149444461Y-119000315D01*
X149398706Y-118947511D01*
X149387500Y-118896000D01*
X149387500Y-118545000D01*
X150337500Y-118545000D01*
X150860736Y-118545000D01*
X150835453Y-118468699D01*
X150835448Y-118468688D01*
X150744947Y-118321965D01*
X150744944Y-118321961D01*
X150623038Y-118200055D01*
X150623034Y-118200052D01*
X150486016Y-118115538D01*
X150439291Y-118063590D01*
X150428070Y-117994628D01*
X150455913Y-117930546D01*
X150486016Y-117904462D01*
X150623034Y-117819947D01*
X150623038Y-117819944D01*
X150744944Y-117698038D01*
X150744947Y-117698034D01*
X150835448Y-117551311D01*
X150835453Y-117551300D01*
X150860737Y-117475000D01*
X150337500Y-117475000D01*
X150337500Y-118545000D01*
X149387500Y-118545000D01*
X149387500Y-116525000D01*
X150337500Y-116525000D01*
X150860736Y-116525000D01*
X150835453Y-116448699D01*
X150835448Y-116448688D01*
X150744947Y-116301965D01*
X150744944Y-116301961D01*
X150623039Y-116180056D01*
X150502228Y-116105539D01*
X150497233Y-116099986D01*
X155200001Y-116099986D01*
X155210494Y-116202697D01*
X155265641Y-116369119D01*
X155265643Y-116369124D01*
X155357684Y-116518345D01*
X155481654Y-116642315D01*
X155630875Y-116734356D01*
X155630880Y-116734358D01*
X155797302Y-116789505D01*
X155797309Y-116789506D01*
X155900019Y-116799999D01*
X156249999Y-116799999D01*
X157750000Y-116799999D01*
X158099972Y-116799999D01*
X158099986Y-116799998D01*
X158202697Y-116789505D01*
X158369119Y-116734358D01*
X158369124Y-116734356D01*
X158518345Y-116642315D01*
X158642315Y-116518345D01*
X158734356Y-116369124D01*
X158734358Y-116369119D01*
X158789505Y-116202697D01*
X158789506Y-116202690D01*
X158799999Y-116099986D01*
X158800000Y-116099973D01*
X158800000Y-115750000D01*
X157750000Y-115750000D01*
X157750000Y-116799999D01*
X156249999Y-116799999D01*
X156250000Y-116799998D01*
X156250000Y-115750000D01*
X155200001Y-115750000D01*
X155200001Y-116099986D01*
X150497233Y-116099986D01*
X150455504Y-116053591D01*
X150444282Y-115984628D01*
X150472125Y-115920546D01*
X150502228Y-115894461D01*
X150623039Y-115819943D01*
X150744944Y-115698038D01*
X150744947Y-115698034D01*
X150784728Y-115633541D01*
X150835448Y-115551311D01*
X150835453Y-115551300D01*
X150860737Y-115475000D01*
X150337500Y-115475000D01*
X150337500Y-116525000D01*
X149387500Y-116525000D01*
X149387500Y-114935981D01*
X156350000Y-114935981D01*
X156350000Y-115064019D01*
X156374979Y-115189598D01*
X156423978Y-115307890D01*
X156495112Y-115414351D01*
X156585649Y-115504888D01*
X156692110Y-115576022D01*
X156810402Y-115625021D01*
X156935981Y-115650000D01*
X157064019Y-115650000D01*
X157189598Y-115625021D01*
X157307890Y-115576022D01*
X157414351Y-115504888D01*
X157504888Y-115414351D01*
X157576022Y-115307890D01*
X157625021Y-115189598D01*
X157650000Y-115064019D01*
X157650000Y-114935981D01*
X157625021Y-114810402D01*
X157576022Y-114692110D01*
X157504888Y-114585649D01*
X157414351Y-114495112D01*
X157307890Y-114423978D01*
X157189598Y-114374979D01*
X157064019Y-114350000D01*
X156935981Y-114350000D01*
X156810402Y-114374979D01*
X156692110Y-114423978D01*
X156585649Y-114495112D01*
X156495112Y-114585649D01*
X156423978Y-114692110D01*
X156374979Y-114810402D01*
X156350000Y-114935981D01*
X149387500Y-114935981D01*
X149387500Y-114105000D01*
X150337500Y-114105000D01*
X150337500Y-114525000D01*
X150860736Y-114525000D01*
X150835453Y-114448699D01*
X150835448Y-114448688D01*
X150744947Y-114301965D01*
X150744944Y-114301961D01*
X150623039Y-114180056D01*
X150502228Y-114105539D01*
X150502224Y-114105534D01*
X150502221Y-114105534D01*
X150481700Y-114082716D01*
X150455504Y-114053591D01*
X150455503Y-114053586D01*
X150455500Y-114053583D01*
X150448758Y-114012132D01*
X150444282Y-113984628D01*
X150444283Y-113984623D01*
X150444283Y-113984619D01*
X150460928Y-113946315D01*
X150472125Y-113920546D01*
X150472128Y-113920543D01*
X150472130Y-113920539D01*
X150472205Y-113920473D01*
X150494955Y-113900013D01*
X155200000Y-113900013D01*
X155200000Y-114250000D01*
X156250000Y-114250000D01*
X157750000Y-114250000D01*
X158799999Y-114250000D01*
X158799999Y-113900028D01*
X158799998Y-113900013D01*
X158789505Y-113797302D01*
X158734358Y-113630880D01*
X158734356Y-113630875D01*
X158642315Y-113481654D01*
X158518345Y-113357684D01*
X158369124Y-113265643D01*
X158369119Y-113265641D01*
X158202697Y-113210494D01*
X158202690Y-113210493D01*
X158099986Y-113200000D01*
X157750000Y-113200000D01*
X157750000Y-114250000D01*
X156250000Y-114250000D01*
X156250000Y-113200000D01*
X155900028Y-113200000D01*
X155900012Y-113200001D01*
X155797302Y-113210494D01*
X155630880Y-113265641D01*
X155630875Y-113265643D01*
X155481654Y-113357684D01*
X155357684Y-113481654D01*
X155265643Y-113630875D01*
X155265641Y-113630880D01*
X155210494Y-113797302D01*
X155210493Y-113797309D01*
X155200000Y-113900013D01*
X150494955Y-113900013D01*
X150498373Y-113896939D01*
X150642410Y-113800572D01*
X150744944Y-113698038D01*
X150744947Y-113698034D01*
X150835448Y-113551311D01*
X150835453Y-113551300D01*
X150860737Y-113475000D01*
X150387500Y-113475000D01*
X150387500Y-114003638D01*
X150367815Y-114070677D01*
X150351181Y-114091319D01*
X150337500Y-114105000D01*
X149387500Y-114105000D01*
X149387500Y-113996362D01*
X149407185Y-113929323D01*
X149423819Y-113908681D01*
X149437500Y-113895000D01*
X149437500Y-113124000D01*
X149457185Y-113056961D01*
X149509989Y-113011206D01*
X149561500Y-113000000D01*
X149912500Y-113000000D01*
X149912500Y-112649000D01*
X149932185Y-112581961D01*
X149984989Y-112536206D01*
X150036500Y-112525000D01*
X150860736Y-112525000D01*
X150835453Y-112448699D01*
X150835448Y-112448688D01*
X150744947Y-112301965D01*
X150744944Y-112301961D01*
X150654664Y-112211681D01*
X150621179Y-112150358D01*
X150626163Y-112080666D01*
X150668035Y-112024733D01*
X150733499Y-112000316D01*
X150742345Y-112000000D01*
X151500000Y-112000000D01*
X151500000Y-111688319D01*
X156372338Y-111688319D01*
X156372338Y-111688320D01*
X156420152Y-111708125D01*
X156420165Y-111708129D01*
X156648087Y-111769201D01*
X156882014Y-111799999D01*
X156882029Y-111800000D01*
X157117971Y-111800000D01*
X157117985Y-111799999D01*
X157351914Y-111769200D01*
X157579834Y-111708130D01*
X157627660Y-111688319D01*
X157000001Y-111060660D01*
X157000000Y-111060660D01*
X156372338Y-111688319D01*
X151500000Y-111688319D01*
X151500000Y-109882014D01*
X155200000Y-109882014D01*
X155200000Y-110117985D01*
X155230798Y-110351912D01*
X155291871Y-110579837D01*
X155311678Y-110627660D01*
X155311679Y-110627660D01*
X155939340Y-110000000D01*
X155939340Y-109999999D01*
X155875322Y-109935981D01*
X156350000Y-109935981D01*
X156350000Y-110064019D01*
X156374979Y-110189598D01*
X156423978Y-110307890D01*
X156495112Y-110414351D01*
X156585649Y-110504888D01*
X156692110Y-110576022D01*
X156810402Y-110625021D01*
X156935981Y-110650000D01*
X157064019Y-110650000D01*
X157189598Y-110625021D01*
X157307890Y-110576022D01*
X157414351Y-110504888D01*
X157504888Y-110414351D01*
X157576022Y-110307890D01*
X157625021Y-110189598D01*
X157650000Y-110064019D01*
X157650000Y-109999999D01*
X158060660Y-109999999D01*
X158060660Y-110000000D01*
X158688319Y-110627660D01*
X158708130Y-110579834D01*
X158769200Y-110351914D01*
X158799999Y-110117985D01*
X158800000Y-110117971D01*
X158800000Y-109882028D01*
X158799999Y-109882014D01*
X158769201Y-109648087D01*
X158708129Y-109420165D01*
X158708125Y-109420152D01*
X158688320Y-109372338D01*
X158688319Y-109372338D01*
X158060660Y-109999999D01*
X157650000Y-109999999D01*
X157650000Y-109935981D01*
X157625021Y-109810402D01*
X157576022Y-109692110D01*
X157504888Y-109585649D01*
X157414351Y-109495112D01*
X157307890Y-109423978D01*
X157189598Y-109374979D01*
X157064019Y-109350000D01*
X156935981Y-109350000D01*
X156810402Y-109374979D01*
X156692110Y-109423978D01*
X156585649Y-109495112D01*
X156495112Y-109585649D01*
X156423978Y-109692110D01*
X156374979Y-109810402D01*
X156350000Y-109935981D01*
X155875322Y-109935981D01*
X155311679Y-109372338D01*
X155291872Y-109420159D01*
X155291868Y-109420170D01*
X155230798Y-109648087D01*
X155200000Y-109882014D01*
X151500000Y-109882014D01*
X151500000Y-107624000D01*
X151519685Y-107556961D01*
X151572489Y-107511206D01*
X151624000Y-107500000D01*
X152416204Y-107500000D01*
X152483243Y-107519685D01*
G37*
%TD.AperFunction*%
%TD*%
%TA.AperFunction,Conductor*%
%TO.N,GND*%
G36*
X156552324Y-83000587D02*
G01*
X156585205Y-83001817D01*
X157016140Y-83017942D01*
X157025356Y-83018632D01*
X157484289Y-83070341D01*
X157493442Y-83071721D01*
X157947224Y-83157581D01*
X157956227Y-83159635D01*
X158402325Y-83279167D01*
X158411182Y-83281899D01*
X158847088Y-83434429D01*
X158855720Y-83437817D01*
X159279008Y-83622496D01*
X159287362Y-83626520D01*
X159695640Y-83842301D01*
X159703671Y-83846937D01*
X160094707Y-84092641D01*
X160102369Y-84097865D01*
X160473949Y-84372104D01*
X160481193Y-84377881D01*
X160831233Y-84679115D01*
X160838030Y-84685422D01*
X161164577Y-85011969D01*
X161170884Y-85018766D01*
X161472118Y-85368806D01*
X161477900Y-85376056D01*
X161752134Y-85747630D01*
X161757358Y-85755292D01*
X162003062Y-86146328D01*
X162007698Y-86154359D01*
X162223479Y-86562637D01*
X162227503Y-86570991D01*
X162412182Y-86994279D01*
X162415570Y-87002911D01*
X162568100Y-87438817D01*
X162570833Y-87447678D01*
X162690358Y-87893750D01*
X162692421Y-87902791D01*
X162778277Y-88356550D01*
X162779659Y-88365719D01*
X162831365Y-88824625D01*
X162832058Y-88833873D01*
X162849412Y-89297673D01*
X162849499Y-89302309D01*
X162849499Y-107376000D01*
X162829814Y-107443039D01*
X162777010Y-107488794D01*
X162725499Y-107500000D01*
X153124000Y-107500000D01*
X153056961Y-107480315D01*
X153011206Y-107427511D01*
X153000000Y-107376000D01*
X153000000Y-106688319D01*
X156372338Y-106688319D01*
X156372338Y-106688320D01*
X156420152Y-106708125D01*
X156420165Y-106708129D01*
X156648087Y-106769201D01*
X156882014Y-106799999D01*
X156882029Y-106800000D01*
X157117971Y-106800000D01*
X157117985Y-106799999D01*
X157351914Y-106769200D01*
X157579834Y-106708130D01*
X157627660Y-106688319D01*
X157000001Y-106060660D01*
X157000000Y-106060660D01*
X156372338Y-106688319D01*
X153000000Y-106688319D01*
X153000000Y-104882014D01*
X155200000Y-104882014D01*
X155200000Y-105117985D01*
X155230798Y-105351912D01*
X155291871Y-105579837D01*
X155311678Y-105627660D01*
X155311679Y-105627660D01*
X155939340Y-105000000D01*
X155939340Y-104999999D01*
X155875322Y-104935981D01*
X156350000Y-104935981D01*
X156350000Y-105064019D01*
X156374979Y-105189598D01*
X156423978Y-105307890D01*
X156495112Y-105414351D01*
X156585649Y-105504888D01*
X156692110Y-105576022D01*
X156810402Y-105625021D01*
X156935981Y-105650000D01*
X157064019Y-105650000D01*
X157189598Y-105625021D01*
X157307890Y-105576022D01*
X157414351Y-105504888D01*
X157504888Y-105414351D01*
X157576022Y-105307890D01*
X157625021Y-105189598D01*
X157650000Y-105064019D01*
X157650000Y-104999999D01*
X158060660Y-104999999D01*
X158060660Y-105000000D01*
X158688319Y-105627660D01*
X158708130Y-105579834D01*
X158769200Y-105351914D01*
X158799999Y-105117985D01*
X158800000Y-105117971D01*
X158800000Y-104882028D01*
X158799999Y-104882014D01*
X158769201Y-104648087D01*
X158708129Y-104420165D01*
X158708125Y-104420152D01*
X158688320Y-104372338D01*
X158688319Y-104372338D01*
X158060660Y-104999999D01*
X157650000Y-104999999D01*
X157650000Y-104935981D01*
X157625021Y-104810402D01*
X157576022Y-104692110D01*
X157504888Y-104585649D01*
X157414351Y-104495112D01*
X157307890Y-104423978D01*
X157189598Y-104374979D01*
X157064019Y-104350000D01*
X156935981Y-104350000D01*
X156810402Y-104374979D01*
X156692110Y-104423978D01*
X156585649Y-104495112D01*
X156495112Y-104585649D01*
X156423978Y-104692110D01*
X156374979Y-104810402D01*
X156350000Y-104935981D01*
X155875322Y-104935981D01*
X155311679Y-104372338D01*
X155291872Y-104420159D01*
X155291868Y-104420170D01*
X155230798Y-104648087D01*
X155200000Y-104882014D01*
X153000000Y-104882014D01*
X153000000Y-103311679D01*
X156372338Y-103311679D01*
X157000000Y-103939340D01*
X157000001Y-103939340D01*
X157627660Y-103311679D01*
X157627660Y-103311678D01*
X157579837Y-103291871D01*
X157351912Y-103230798D01*
X157117985Y-103200000D01*
X156882014Y-103200000D01*
X156648087Y-103230798D01*
X156420170Y-103291868D01*
X156420159Y-103291872D01*
X156372338Y-103311679D01*
X153000000Y-103311679D01*
X153000000Y-101688319D01*
X156372338Y-101688319D01*
X156372338Y-101688320D01*
X156420152Y-101708125D01*
X156420165Y-101708129D01*
X156648087Y-101769201D01*
X156882014Y-101799999D01*
X156882029Y-101800000D01*
X157117971Y-101800000D01*
X157117985Y-101799999D01*
X157351914Y-101769200D01*
X157579834Y-101708130D01*
X157627660Y-101688319D01*
X157000001Y-101060660D01*
X157000000Y-101060660D01*
X156372338Y-101688319D01*
X153000000Y-101688319D01*
X153000000Y-99882014D01*
X155200000Y-99882014D01*
X155200000Y-100117985D01*
X155230798Y-100351912D01*
X155291871Y-100579837D01*
X155311678Y-100627660D01*
X155311679Y-100627660D01*
X155939340Y-100000000D01*
X155939340Y-99999999D01*
X155875322Y-99935981D01*
X156350000Y-99935981D01*
X156350000Y-100064019D01*
X156374979Y-100189598D01*
X156423978Y-100307890D01*
X156495112Y-100414351D01*
X156585649Y-100504888D01*
X156692110Y-100576022D01*
X156810402Y-100625021D01*
X156935981Y-100650000D01*
X157064019Y-100650000D01*
X157189598Y-100625021D01*
X157307890Y-100576022D01*
X157414351Y-100504888D01*
X157504888Y-100414351D01*
X157576022Y-100307890D01*
X157625021Y-100189598D01*
X157650000Y-100064019D01*
X157650000Y-99999999D01*
X158060660Y-99999999D01*
X158060660Y-100000000D01*
X158688319Y-100627660D01*
X158708130Y-100579834D01*
X158769200Y-100351914D01*
X158799999Y-100117985D01*
X158800000Y-100117971D01*
X158800000Y-99882028D01*
X158799999Y-99882014D01*
X158769201Y-99648087D01*
X158708129Y-99420165D01*
X158708125Y-99420152D01*
X158688320Y-99372338D01*
X158688319Y-99372338D01*
X158060660Y-99999999D01*
X157650000Y-99999999D01*
X157650000Y-99935981D01*
X157625021Y-99810402D01*
X157576022Y-99692110D01*
X157504888Y-99585649D01*
X157414351Y-99495112D01*
X157307890Y-99423978D01*
X157189598Y-99374979D01*
X157064019Y-99350000D01*
X156935981Y-99350000D01*
X156810402Y-99374979D01*
X156692110Y-99423978D01*
X156585649Y-99495112D01*
X156495112Y-99585649D01*
X156423978Y-99692110D01*
X156374979Y-99810402D01*
X156350000Y-99935981D01*
X155875322Y-99935981D01*
X155311679Y-99372338D01*
X155291872Y-99420159D01*
X155291868Y-99420170D01*
X155230798Y-99648087D01*
X155200000Y-99882014D01*
X153000000Y-99882014D01*
X153000000Y-98311679D01*
X156372338Y-98311679D01*
X157000000Y-98939340D01*
X157000001Y-98939340D01*
X157627660Y-98311679D01*
X157627660Y-98311678D01*
X157579837Y-98291871D01*
X157351912Y-98230798D01*
X157117985Y-98200000D01*
X156882014Y-98200000D01*
X156648087Y-98230798D01*
X156420170Y-98291868D01*
X156420159Y-98291872D01*
X156372338Y-98311679D01*
X153000000Y-98311679D01*
X153000000Y-92784839D01*
X153019685Y-92717800D01*
X153020899Y-92715946D01*
X153028465Y-92704623D01*
X153077501Y-92586240D01*
X153102500Y-92460565D01*
X153102500Y-89218234D01*
X153900000Y-89218234D01*
X153900000Y-89581765D01*
X153935632Y-89943556D01*
X154006550Y-90300090D01*
X154006553Y-90300101D01*
X154112086Y-90647997D01*
X154251207Y-90983864D01*
X154251209Y-90983869D01*
X154422570Y-91304462D01*
X154422581Y-91304480D01*
X154507607Y-91431731D01*
X156070118Y-89869220D01*
X156117221Y-90014187D01*
X156231557Y-90238583D01*
X156379588Y-90442330D01*
X156557670Y-90620412D01*
X156761417Y-90768443D01*
X156985813Y-90882779D01*
X157130778Y-90929880D01*
X155568267Y-92492391D01*
X155695519Y-92577418D01*
X155695537Y-92577429D01*
X156016130Y-92748790D01*
X156016135Y-92748792D01*
X156352002Y-92887913D01*
X156699898Y-92993446D01*
X156699909Y-92993449D01*
X157056443Y-93064367D01*
X157418234Y-93100000D01*
X157781766Y-93100000D01*
X158143556Y-93064367D01*
X158500090Y-92993449D01*
X158500101Y-92993446D01*
X158847997Y-92887913D01*
X159183864Y-92748792D01*
X159183869Y-92748790D01*
X159504462Y-92577429D01*
X159504480Y-92577418D01*
X159631731Y-92492391D01*
X158069221Y-90929881D01*
X158214187Y-90882779D01*
X158438583Y-90768443D01*
X158642330Y-90620412D01*
X158820412Y-90442330D01*
X158968443Y-90238583D01*
X159082779Y-90014187D01*
X159129881Y-89869221D01*
X160692391Y-91431731D01*
X160777418Y-91304480D01*
X160777429Y-91304462D01*
X160948790Y-90983869D01*
X160948792Y-90983864D01*
X161087913Y-90647997D01*
X161193446Y-90300101D01*
X161193449Y-90300090D01*
X161264367Y-89943556D01*
X161300000Y-89581765D01*
X161300000Y-89218234D01*
X161264367Y-88856443D01*
X161193449Y-88499909D01*
X161193446Y-88499898D01*
X161087913Y-88152002D01*
X160948792Y-87816135D01*
X160948790Y-87816130D01*
X160777429Y-87495537D01*
X160777418Y-87495519D01*
X160692391Y-87368267D01*
X159129880Y-88930778D01*
X159082779Y-88785813D01*
X158968443Y-88561417D01*
X158820412Y-88357670D01*
X158642330Y-88179588D01*
X158438583Y-88031557D01*
X158214187Y-87917221D01*
X158069221Y-87870119D01*
X159631731Y-86307607D01*
X159504480Y-86222581D01*
X159504462Y-86222570D01*
X159183869Y-86051209D01*
X159183864Y-86051207D01*
X158847997Y-85912086D01*
X158500101Y-85806553D01*
X158500090Y-85806550D01*
X158143556Y-85735632D01*
X157781766Y-85700000D01*
X157418234Y-85700000D01*
X157056443Y-85735632D01*
X156699909Y-85806550D01*
X156699898Y-85806553D01*
X156352002Y-85912086D01*
X156016135Y-86051207D01*
X156016130Y-86051209D01*
X155695537Y-86222570D01*
X155695519Y-86222581D01*
X155568268Y-86307608D01*
X157130778Y-87870118D01*
X156985813Y-87917221D01*
X156761417Y-88031557D01*
X156557670Y-88179588D01*
X156379588Y-88357670D01*
X156231557Y-88561417D01*
X156117221Y-88785813D01*
X156070118Y-88930778D01*
X154507608Y-87368268D01*
X154422581Y-87495519D01*
X154422570Y-87495537D01*
X154251209Y-87816130D01*
X154251207Y-87816135D01*
X154112086Y-88152002D01*
X154006553Y-88499898D01*
X154006550Y-88499909D01*
X153935632Y-88856443D01*
X153900000Y-89218234D01*
X153102500Y-89218234D01*
X153102500Y-87107448D01*
X153102500Y-87107445D01*
X153077502Y-86981778D01*
X153077501Y-86981777D01*
X153077501Y-86981773D01*
X153028465Y-86863390D01*
X153020895Y-86852060D01*
X153000020Y-86785382D01*
X153000000Y-86783173D01*
X153000000Y-83124500D01*
X153019685Y-83057461D01*
X153072489Y-83011706D01*
X153124000Y-83000500D01*
X156484108Y-83000500D01*
X156547688Y-83000500D01*
X156552324Y-83000587D01*
G37*
%TD.AperFunction*%
%TD*%
%TA.AperFunction,Conductor*%
%TO.N,GND*%
G36*
X127443039Y-83020185D02*
G01*
X127488794Y-83072989D01*
X127500000Y-83124500D01*
X127500000Y-86678748D01*
X127480315Y-86745787D01*
X127463681Y-86766429D01*
X127045727Y-87184382D01*
X127045726Y-87184383D01*
X126974534Y-87290931D01*
X126925499Y-87409312D01*
X126925497Y-87409318D01*
X126900500Y-87534985D01*
X126900500Y-88346522D01*
X126880815Y-88413561D01*
X126828011Y-88459316D01*
X126758853Y-88469260D01*
X126695297Y-88440235D01*
X126657839Y-88382517D01*
X126587913Y-88152002D01*
X126448792Y-87816135D01*
X126448790Y-87816130D01*
X126277429Y-87495537D01*
X126277418Y-87495519D01*
X126192391Y-87368267D01*
X124629880Y-88930778D01*
X124582779Y-88785813D01*
X124468443Y-88561417D01*
X124320412Y-88357670D01*
X124142330Y-88179588D01*
X123938583Y-88031557D01*
X123714187Y-87917221D01*
X123569221Y-87870119D01*
X125131731Y-86307607D01*
X125004480Y-86222581D01*
X125004462Y-86222570D01*
X124683869Y-86051209D01*
X124683864Y-86051207D01*
X124347997Y-85912086D01*
X124000101Y-85806553D01*
X124000090Y-85806550D01*
X123643556Y-85735632D01*
X123281766Y-85700000D01*
X122918234Y-85700000D01*
X122556443Y-85735632D01*
X122199909Y-85806550D01*
X122199898Y-85806553D01*
X121852002Y-85912086D01*
X121516135Y-86051207D01*
X121516130Y-86051209D01*
X121195537Y-86222570D01*
X121195519Y-86222581D01*
X121068268Y-86307608D01*
X122630778Y-87870118D01*
X122485813Y-87917221D01*
X122261417Y-88031557D01*
X122057670Y-88179588D01*
X121879588Y-88357670D01*
X121731557Y-88561417D01*
X121617221Y-88785813D01*
X121570118Y-88930778D01*
X120007608Y-87368268D01*
X119922581Y-87495519D01*
X119922570Y-87495537D01*
X119751209Y-87816130D01*
X119751207Y-87816135D01*
X119612086Y-88152002D01*
X119506553Y-88499898D01*
X119506550Y-88499909D01*
X119435632Y-88856443D01*
X119400000Y-89218234D01*
X119400000Y-89581765D01*
X119435632Y-89943556D01*
X119506550Y-90300090D01*
X119506553Y-90300101D01*
X119612086Y-90647997D01*
X119751207Y-90983864D01*
X119751209Y-90983869D01*
X119922570Y-91304462D01*
X119922581Y-91304480D01*
X120007607Y-91431731D01*
X121570118Y-89869219D01*
X121617221Y-90014187D01*
X121731557Y-90238583D01*
X121879588Y-90442330D01*
X122057670Y-90620412D01*
X122261417Y-90768443D01*
X122485813Y-90882779D01*
X122630778Y-90929880D01*
X121068267Y-92492391D01*
X121195519Y-92577418D01*
X121195537Y-92577429D01*
X121516130Y-92748790D01*
X121516135Y-92748792D01*
X121852002Y-92887913D01*
X122199897Y-92993446D01*
X122211507Y-92995755D01*
X122273418Y-93028139D01*
X122307994Y-93088854D01*
X122304256Y-93158624D01*
X122274999Y-93205054D01*
X121832655Y-93647398D01*
X121786356Y-93675148D01*
X121786714Y-93676011D01*
X121644507Y-93734914D01*
X121644498Y-93734919D01*
X121521584Y-93817048D01*
X121521580Y-93817051D01*
X121417051Y-93921580D01*
X121417048Y-93921584D01*
X121334919Y-94044498D01*
X121334912Y-94044511D01*
X121278343Y-94181082D01*
X121278340Y-94181092D01*
X121249500Y-94326079D01*
X121249500Y-94376000D01*
X121229815Y-94443039D01*
X121177011Y-94488794D01*
X121125500Y-94500000D01*
X118082826Y-94500000D01*
X118015787Y-94480315D01*
X117970032Y-94427511D01*
X117958826Y-94376000D01*
X117958826Y-89302311D01*
X117958913Y-89297674D01*
X117961292Y-89234108D01*
X117976268Y-88833858D01*
X117976958Y-88824646D01*
X118028667Y-88365708D01*
X118030048Y-88356552D01*
X118063532Y-88179588D01*
X118115908Y-87902773D01*
X118117960Y-87893781D01*
X118237502Y-87447645D01*
X118240223Y-87438824D01*
X118392756Y-87002912D01*
X118396132Y-86994308D01*
X118580824Y-86570990D01*
X118584846Y-86562642D01*
X118725835Y-86295878D01*
X118800627Y-86154365D01*
X118805263Y-86146334D01*
X118865034Y-86051209D01*
X119050973Y-85755289D01*
X119056184Y-85747647D01*
X119330440Y-85376045D01*
X119336191Y-85368833D01*
X119637454Y-85018761D01*
X119643736Y-85011992D01*
X119970308Y-84685420D01*
X119977064Y-84679150D01*
X120327174Y-84377857D01*
X120334369Y-84372120D01*
X120705968Y-84097870D01*
X120713594Y-84092669D01*
X121104668Y-83846942D01*
X121112651Y-83842333D01*
X121520985Y-83626524D01*
X121529317Y-83622512D01*
X121952633Y-83437822D01*
X121961218Y-83434453D01*
X122397152Y-83281914D01*
X122405986Y-83279190D01*
X122852087Y-83159659D01*
X122861106Y-83157600D01*
X123314898Y-83071741D01*
X123324024Y-83070365D01*
X123782967Y-83018656D01*
X123792182Y-83017966D01*
X124005846Y-83009972D01*
X124256712Y-83000587D01*
X124261348Y-83000500D01*
X127376000Y-83000500D01*
X127443039Y-83020185D01*
G37*
%TD.AperFunction*%
%TD*%
%TA.AperFunction,Conductor*%
%TO.N,GND*%
G36*
X120606858Y-121019685D02*
G01*
X120608710Y-121020898D01*
X120691866Y-121076461D01*
X120691872Y-121076464D01*
X120691873Y-121076465D01*
X120810256Y-121125501D01*
X120810260Y-121125501D01*
X120810261Y-121125502D01*
X120935928Y-121150500D01*
X120935931Y-121150500D01*
X126524071Y-121150500D01*
X126608615Y-121133682D01*
X126649744Y-121125501D01*
X126768127Y-121076465D01*
X126851292Y-121020896D01*
X126917968Y-121000020D01*
X126920181Y-121000000D01*
X128381059Y-121000000D01*
X128448098Y-121019685D01*
X128493853Y-121072489D01*
X128504951Y-121118835D01*
X128733337Y-126600090D01*
X128900500Y-130612012D01*
X128883623Y-130679813D01*
X128832769Y-130727726D01*
X128776607Y-130741174D01*
X124260635Y-130741174D01*
X124255999Y-130741087D01*
X123792196Y-130723734D01*
X123782949Y-130723041D01*
X123324043Y-130671336D01*
X123314873Y-130669954D01*
X122861114Y-130584100D01*
X122852076Y-130582037D01*
X122674936Y-130534573D01*
X122405995Y-130462511D01*
X122397135Y-130459778D01*
X121961236Y-130307253D01*
X121952603Y-130303865D01*
X121529312Y-130119184D01*
X121520958Y-130115161D01*
X121112671Y-129899376D01*
X121104648Y-129894744D01*
X120713612Y-129649040D01*
X120705950Y-129643816D01*
X120334383Y-129369588D01*
X120327133Y-129363807D01*
X120245375Y-129293449D01*
X119977077Y-129062560D01*
X119970280Y-129056252D01*
X119643747Y-128729719D01*
X119637439Y-128722922D01*
X119605950Y-128686331D01*
X119336186Y-128372858D01*
X119330411Y-128365616D01*
X119056183Y-127994049D01*
X119050959Y-127986387D01*
X118805255Y-127595351D01*
X118800627Y-127587336D01*
X118584830Y-127179025D01*
X118580815Y-127170687D01*
X118471621Y-126920412D01*
X118396127Y-126747380D01*
X118392752Y-126738779D01*
X118240219Y-126302859D01*
X118237491Y-126294016D01*
X118117957Y-125847904D01*
X118115902Y-125838901D01*
X118055229Y-125518234D01*
X119400000Y-125518234D01*
X119400000Y-125881765D01*
X119435632Y-126243556D01*
X119506550Y-126600090D01*
X119506553Y-126600101D01*
X119612086Y-126947997D01*
X119751207Y-127283864D01*
X119751209Y-127283869D01*
X119922570Y-127604462D01*
X119922581Y-127604480D01*
X120007607Y-127731731D01*
X121570118Y-126169219D01*
X121617221Y-126314187D01*
X121731557Y-126538583D01*
X121879588Y-126742330D01*
X122057670Y-126920412D01*
X122261417Y-127068443D01*
X122485813Y-127182779D01*
X122630778Y-127229880D01*
X121068267Y-128792391D01*
X121195519Y-128877418D01*
X121195537Y-128877429D01*
X121516130Y-129048790D01*
X121516135Y-129048792D01*
X121852002Y-129187913D01*
X122199898Y-129293446D01*
X122199909Y-129293449D01*
X122556443Y-129364367D01*
X122918234Y-129400000D01*
X123281766Y-129400000D01*
X123643556Y-129364367D01*
X124000090Y-129293449D01*
X124000101Y-129293446D01*
X124347997Y-129187913D01*
X124683864Y-129048792D01*
X124683869Y-129048790D01*
X125004462Y-128877429D01*
X125004480Y-128877418D01*
X125131731Y-128792391D01*
X123569221Y-127229881D01*
X123714187Y-127182779D01*
X123938583Y-127068443D01*
X124142330Y-126920412D01*
X124320412Y-126742330D01*
X124468443Y-126538583D01*
X124582779Y-126314187D01*
X124629881Y-126169221D01*
X126192391Y-127731731D01*
X126277418Y-127604480D01*
X126277429Y-127604462D01*
X126448790Y-127283869D01*
X126448792Y-127283864D01*
X126587913Y-126947997D01*
X126693446Y-126600101D01*
X126693449Y-126600090D01*
X126764367Y-126243556D01*
X126800000Y-125881765D01*
X126800000Y-125518234D01*
X126764367Y-125156443D01*
X126693449Y-124799909D01*
X126693446Y-124799898D01*
X126587913Y-124452002D01*
X126448792Y-124116135D01*
X126448790Y-124116130D01*
X126277429Y-123795537D01*
X126277418Y-123795519D01*
X126192391Y-123668267D01*
X124629880Y-125230778D01*
X124582779Y-125085813D01*
X124468443Y-124861417D01*
X124320412Y-124657670D01*
X124142330Y-124479588D01*
X123938583Y-124331557D01*
X123714187Y-124217221D01*
X123569221Y-124170119D01*
X125131731Y-122607607D01*
X125004480Y-122522581D01*
X125004462Y-122522570D01*
X124683869Y-122351209D01*
X124683864Y-122351207D01*
X124347997Y-122212086D01*
X124000101Y-122106553D01*
X124000090Y-122106550D01*
X123643556Y-122035632D01*
X123281766Y-122000000D01*
X122918234Y-122000000D01*
X122556443Y-122035632D01*
X122199909Y-122106550D01*
X122199898Y-122106553D01*
X121852002Y-122212086D01*
X121516135Y-122351207D01*
X121516130Y-122351209D01*
X121195537Y-122522570D01*
X121195519Y-122522581D01*
X121068268Y-122607608D01*
X122630778Y-124170118D01*
X122485813Y-124217221D01*
X122261417Y-124331557D01*
X122057670Y-124479588D01*
X121879588Y-124657670D01*
X121731557Y-124861417D01*
X121617221Y-125085813D01*
X121570118Y-125230778D01*
X120007608Y-123668268D01*
X119922581Y-123795519D01*
X119922570Y-123795537D01*
X119751209Y-124116130D01*
X119751207Y-124116135D01*
X119612086Y-124452002D01*
X119506553Y-124799898D01*
X119506550Y-124799909D01*
X119435632Y-125156443D01*
X119400000Y-125518234D01*
X118055229Y-125518234D01*
X118030044Y-125385124D01*
X118028663Y-125375956D01*
X118011380Y-125222559D01*
X117976956Y-124917036D01*
X117976266Y-124907817D01*
X117958913Y-124444001D01*
X117958826Y-124439365D01*
X117958826Y-121124000D01*
X117978511Y-121056961D01*
X118031315Y-121011206D01*
X118082826Y-121000000D01*
X120539819Y-121000000D01*
X120606858Y-121019685D01*
G37*
%TD.AperFunction*%
%TD*%
%TA.AperFunction,Conductor*%
%TO.N,GND*%
G36*
X162792538Y-122325185D02*
G01*
X162838293Y-122377989D01*
X162849499Y-122429500D01*
X162849499Y-124439391D01*
X162849412Y-124444027D01*
X162832060Y-124907803D01*
X162831367Y-124917050D01*
X162779662Y-125375957D01*
X162778280Y-125385127D01*
X162692426Y-125838887D01*
X162690363Y-125847927D01*
X162570838Y-126294007D01*
X162568105Y-126302868D01*
X162415577Y-126738772D01*
X162412189Y-126747404D01*
X162227514Y-127170687D01*
X162223490Y-127179042D01*
X162007706Y-127587327D01*
X162003070Y-127595358D01*
X161757367Y-127986394D01*
X161752143Y-127994056D01*
X161477909Y-128365631D01*
X161472128Y-128372880D01*
X161170893Y-128722924D01*
X161164585Y-128729722D01*
X160838039Y-129056269D01*
X160831242Y-129062576D01*
X160481201Y-129363812D01*
X160473951Y-129369594D01*
X160102376Y-129643829D01*
X160094714Y-129649053D01*
X159703678Y-129894758D01*
X159695647Y-129899394D01*
X159287368Y-130115176D01*
X159279014Y-130119200D01*
X158855714Y-130303885D01*
X158847082Y-130307272D01*
X158411203Y-130459794D01*
X158402341Y-130462528D01*
X157956247Y-130582058D01*
X157947207Y-130584121D01*
X157493452Y-130669976D01*
X157484283Y-130671358D01*
X157025373Y-130723065D01*
X157016126Y-130723758D01*
X156553020Y-130741087D01*
X156548383Y-130741174D01*
X154579500Y-130741174D01*
X154512461Y-130721489D01*
X154466706Y-130668685D01*
X154455500Y-130617174D01*
X154455500Y-127835201D01*
X154475185Y-127768162D01*
X154491819Y-127747520D01*
X156070118Y-126169220D01*
X156117221Y-126314187D01*
X156231557Y-126538583D01*
X156379588Y-126742330D01*
X156557670Y-126920412D01*
X156761417Y-127068443D01*
X156985813Y-127182779D01*
X157130778Y-127229880D01*
X155568267Y-128792391D01*
X155695519Y-128877418D01*
X155695537Y-128877429D01*
X156016130Y-129048790D01*
X156016135Y-129048792D01*
X156352002Y-129187913D01*
X156699898Y-129293446D01*
X156699909Y-129293449D01*
X157056443Y-129364367D01*
X157418234Y-129400000D01*
X157781766Y-129400000D01*
X158143556Y-129364367D01*
X158500090Y-129293449D01*
X158500101Y-129293446D01*
X158847997Y-129187913D01*
X159183864Y-129048792D01*
X159183869Y-129048790D01*
X159504462Y-128877429D01*
X159504480Y-128877418D01*
X159631731Y-128792391D01*
X158069221Y-127229881D01*
X158214187Y-127182779D01*
X158438583Y-127068443D01*
X158642330Y-126920412D01*
X158820412Y-126742330D01*
X158968443Y-126538583D01*
X159082779Y-126314187D01*
X159129881Y-126169221D01*
X160692391Y-127731731D01*
X160777418Y-127604480D01*
X160777429Y-127604462D01*
X160948790Y-127283869D01*
X160948792Y-127283864D01*
X161087913Y-126947997D01*
X161193446Y-126600101D01*
X161193449Y-126600090D01*
X161264367Y-126243556D01*
X161300000Y-125881765D01*
X161300000Y-125518234D01*
X161264367Y-125156443D01*
X161193449Y-124799909D01*
X161193446Y-124799898D01*
X161087913Y-124452002D01*
X160948792Y-124116135D01*
X160948790Y-124116130D01*
X160777429Y-123795537D01*
X160777418Y-123795519D01*
X160692391Y-123668267D01*
X159129880Y-125230778D01*
X159082779Y-125085813D01*
X158968443Y-124861417D01*
X158820412Y-124657670D01*
X158642330Y-124479588D01*
X158438583Y-124331557D01*
X158214187Y-124217221D01*
X158069221Y-124170119D01*
X159631731Y-122607607D01*
X159519477Y-122532602D01*
X159474672Y-122478990D01*
X159465965Y-122409665D01*
X159496119Y-122346637D01*
X159555562Y-122309918D01*
X159588368Y-122305500D01*
X162725499Y-122305500D01*
X162792538Y-122325185D01*
G37*
%TD.AperFunction*%
%TA.AperFunction,Conductor*%
G36*
X155678671Y-122325185D02*
G01*
X155724426Y-122377989D01*
X155734370Y-122447147D01*
X155705345Y-122510703D01*
X155680523Y-122532602D01*
X155568268Y-122607608D01*
X157130778Y-124170118D01*
X156985813Y-124217221D01*
X156761417Y-124331557D01*
X156557670Y-124479588D01*
X156379588Y-124657670D01*
X156231557Y-124861417D01*
X156117221Y-125085813D01*
X156070118Y-125230778D01*
X154491819Y-123652479D01*
X154458334Y-123591156D01*
X154455500Y-123564798D01*
X154455500Y-122429500D01*
X154475185Y-122362461D01*
X154527989Y-122316706D01*
X154579500Y-122305500D01*
X155611632Y-122305500D01*
X155678671Y-122325185D01*
G37*
%TD.AperFunction*%
%TD*%
M02*
