%TF.GenerationSoftware,KiCad,Pcbnew,9.0.0*%
%TF.CreationDate,2025-08-18T11:13:34-07:00*%
%TF.ProjectId,USB_C_Simple_Trig,5553425f-435f-4536-996d-706c655f5472,rev?*%
%TF.SameCoordinates,Original*%
%TF.FileFunction,Copper,L2,Inr*%
%TF.FilePolarity,Positive*%
%FSLAX46Y46*%
G04 Gerber Fmt 4.6, Leading zero omitted, Abs format (unit mm)*
G04 Created by KiCad (PCBNEW 9.0.0) date 2025-08-18 11:13:34*
%MOMM*%
%LPD*%
G01*
G04 APERTURE LIST*
G04 Aperture macros list*
%AMRoundRect*
0 Rectangle with rounded corners*
0 $1 Rounding radius*
0 $2 $3 $4 $5 $6 $7 $8 $9 X,Y pos of 4 corners*
0 Add a 4 corners polygon primitive as box body*
4,1,4,$2,$3,$4,$5,$6,$7,$8,$9,$2,$3,0*
0 Add four circle primitives for the rounded corners*
1,1,$1+$1,$2,$3*
1,1,$1+$1,$4,$5*
1,1,$1+$1,$6,$7*
1,1,$1+$1,$8,$9*
0 Add four rect primitives between the rounded corners*
20,1,$1+$1,$2,$3,$4,$5,0*
20,1,$1+$1,$4,$5,$6,$7,0*
20,1,$1+$1,$6,$7,$8,$9,0*
20,1,$1+$1,$8,$9,$2,$3,0*%
G04 Aperture macros list end*
%TA.AperFunction,ComponentPad*%
%ADD10R,1.000000X1.000000*%
%TD*%
%TA.AperFunction,ComponentPad*%
%ADD11O,1.000000X1.000000*%
%TD*%
%TA.AperFunction,ComponentPad*%
%ADD12C,6.400000*%
%TD*%
%TA.AperFunction,ComponentPad*%
%ADD13C,2.000000*%
%TD*%
%TA.AperFunction,ComponentPad*%
%ADD14O,1.600200X1.016000*%
%TD*%
%TA.AperFunction,ComponentPad*%
%ADD15O,0.914400X1.193800*%
%TD*%
%TA.AperFunction,ComponentPad*%
%ADD16C,0.609600*%
%TD*%
%TA.AperFunction,ComponentPad*%
%ADD17RoundRect,0.250000X1.050000X-1.050000X1.050000X1.050000X-1.050000X1.050000X-1.050000X-1.050000X0*%
%TD*%
%TA.AperFunction,ComponentPad*%
%ADD18C,2.600000*%
%TD*%
%TA.AperFunction,ComponentPad*%
%ADD19R,1.700000X1.700000*%
%TD*%
%TA.AperFunction,ComponentPad*%
%ADD20O,1.700000X1.700000*%
%TD*%
%TA.AperFunction,ViaPad*%
%ADD21C,1.500000*%
%TD*%
%TA.AperFunction,ViaPad*%
%ADD22C,0.500000*%
%TD*%
%TA.AperFunction,ViaPad*%
%ADD23C,0.900000*%
%TD*%
%TA.AperFunction,ViaPad*%
%ADD24C,0.700000*%
%TD*%
%TA.AperFunction,Conductor*%
%ADD25C,0.300000*%
%TD*%
%TA.AperFunction,Conductor*%
%ADD26C,0.500000*%
%TD*%
%TA.AperFunction,Conductor*%
%ADD27C,0.800000*%
%TD*%
%TA.AperFunction,Conductor*%
%ADD28C,0.550000*%
%TD*%
%TA.AperFunction,Conductor*%
%ADD29C,0.254000*%
%TD*%
%TA.AperFunction,Conductor*%
%ADD30C,0.200000*%
%TD*%
G04 APERTURE END LIST*
D10*
%TO.N,+3V3*%
%TO.C,J4*%
X149375000Y-87920000D03*
D11*
%TO.N,/MCU/SWDIO*%
X150645000Y-87920000D03*
%TO.N,GND*%
X149375000Y-89190000D03*
%TO.N,/MCU/SWCLK*%
X150645000Y-89190000D03*
%TO.N,GND*%
X149375000Y-90460000D03*
%TO.N,unconnected-(J4-SWO{slash}TDO-Pad6)*%
X150645000Y-90460000D03*
%TO.N,unconnected-(J4-KEY-Pad7)*%
X149375000Y-91730000D03*
%TO.N,unconnected-(J4-NC{slash}TDI-Pad8)*%
X150645000Y-91730000D03*
%TO.N,GND*%
X149375000Y-93000000D03*
%TO.N,/MCU/NRST*%
X150645000Y-93000000D03*
%TD*%
D12*
%TO.N,GND*%
%TO.C,H4*%
X123100000Y-125700000D03*
%TD*%
D13*
%TO.N,GND*%
%TO.C,SW1*%
X135250000Y-121250000D03*
X135250000Y-127750000D03*
%TO.N,/MCU/NRST*%
X130750000Y-121250000D03*
X130750000Y-127750000D03*
%TD*%
D14*
%TO.N,N/C*%
%TO.C,J1*%
X124247400Y-96876201D03*
X119847400Y-96516199D03*
X124247400Y-105136199D03*
X119847400Y-105496201D03*
D15*
X125487400Y-104606200D03*
D16*
%TO.N,GND*%
X124837400Y-103806393D03*
%TO.N,unconnected-(J1-TX2+-PadB2)*%
X124137400Y-103406267D03*
%TO.N,unconnected-(J1-TX2--PadB3)*%
X124137400Y-102606141D03*
%TO.N,VBUS*%
X124837400Y-102206015D03*
%TO.N,/USB_C_IC/CC2*%
X124137400Y-101781389D03*
%TO.N,/USB_C_IC/data_+*%
X124837400Y-101418763D03*
%TO.N,/USB_C_IC/data_-*%
X124837400Y-100618637D03*
%TO.N,unconnected-(J1-SBU2-PadB8)*%
X124137400Y-100181011D03*
%TO.N,VBUS*%
X124837400Y-99806385D03*
%TO.N,unconnected-(J1-RX1--PadB10)*%
X124137400Y-99406259D03*
%TO.N,unconnected-(J1-RX1+-PadB11)*%
X124137400Y-98606133D03*
%TO.N,GND*%
X124837400Y-98206007D03*
%TD*%
D12*
%TO.N,GND*%
%TO.C,H3*%
X123100000Y-89400000D03*
%TD*%
D17*
%TO.N,VOUT*%
%TO.C,J2*%
X157000000Y-115000000D03*
D18*
X157000000Y-110000000D03*
%TO.N,GND*%
X157000000Y-105000000D03*
X157000000Y-100000000D03*
%TD*%
D19*
%TO.N,GND*%
%TO.C,J3*%
X122340000Y-117000000D03*
D20*
%TO.N,unconnected-(J3-Pin_2-Pad2)*%
X124880000Y-117000000D03*
%TO.N,unconnected-(J3-Pin_3-Pad3)*%
X127420000Y-117000000D03*
%TO.N,/MCU/UART_RX*%
X129960000Y-117000000D03*
%TO.N,/MCU/UART_TX*%
X132500000Y-117000000D03*
%TO.N,unconnected-(J3-Pin_6-Pad6)*%
X135040000Y-117000000D03*
%TD*%
D12*
%TO.N,GND*%
%TO.C,H1*%
X157600000Y-89400000D03*
%TD*%
%TO.N,GND*%
%TO.C,H2*%
X157600000Y-125700000D03*
%TD*%
D21*
%TO.N,VBUS*%
X134000000Y-110849000D03*
D22*
%TO.N,Net-(IC1-VOUT)*%
X135500000Y-111000000D03*
D21*
%TO.N,VBUS*%
X129500000Y-109400000D03*
%TO.N,Net-(IC1-VCC)*%
X130500000Y-113500000D03*
D22*
%TO.N,Net-(Q1-G)*%
X129000000Y-112708619D03*
D21*
%TO.N,Net-(IC1-VCC)*%
X146000000Y-125500000D03*
X143000000Y-129490674D03*
X145500000Y-129000000D03*
%TO.N,VOUT*%
X152000000Y-126000000D03*
X152000000Y-129991674D03*
X157000000Y-120500000D03*
X153500000Y-120500000D03*
X152500000Y-124000000D03*
%TO.N,Net-(Q1-D)*%
X140582114Y-129490674D03*
X145000000Y-121700000D03*
X149500000Y-125000000D03*
X141500000Y-119500000D03*
%TO.N,Net-(IC1-VCC)*%
X143800000Y-125000000D03*
X132500000Y-114500000D03*
D22*
%TO.N,/MCU/NRST*%
X120153000Y-113500000D03*
D21*
%TO.N,Net-(IC1-VCC)*%
X134912500Y-114087500D03*
D22*
%TO.N,GND*%
X126850000Y-98250000D03*
X125157898Y-103400000D03*
X150000000Y-107500000D03*
X126750000Y-97700000D03*
X126650000Y-105550000D03*
X141000000Y-99500000D03*
X123103000Y-104024270D03*
X151000000Y-105500000D03*
X127000000Y-104200000D03*
X136900000Y-93500000D03*
D21*
X144000000Y-119000000D03*
D22*
X123103000Y-103200000D03*
X126729529Y-103794375D03*
X120753000Y-111500000D03*
X137500000Y-109000000D03*
X137750000Y-105925000D03*
D23*
X127400000Y-97750000D03*
D22*
X123150000Y-97950000D03*
D21*
X142500000Y-114500000D03*
D22*
X128000000Y-92500000D03*
X125400000Y-106200000D03*
D24*
X131637500Y-87350000D03*
D23*
X127900000Y-98400000D03*
D22*
X141000000Y-106000000D03*
X126317576Y-97399866D03*
X123150000Y-98950000D03*
X149500000Y-97500000D03*
X126900000Y-104750000D03*
X135000000Y-100500000D03*
D21*
%TO.N,VBUS*%
X128500000Y-105000000D03*
X128500000Y-103850000D03*
D22*
X126946902Y-99679011D03*
%TO.N,+5V*%
X132500000Y-99500000D03*
X132500000Y-101000000D03*
X142500000Y-98500000D03*
X134500000Y-104500000D03*
X144654000Y-99000000D03*
X134000000Y-102725000D03*
%TO.N,+3V3*%
X142500000Y-97500000D03*
X142000000Y-88000000D03*
X145000000Y-97500000D03*
X148000000Y-88000000D03*
X146500000Y-86500000D03*
X141000000Y-89000000D03*
%TO.N,/MCU/STATUS_LED*%
X123000000Y-94400000D03*
X122602000Y-97000000D03*
%TO.N,Net-(IC1-LED)*%
X135500000Y-108000000D03*
X139689468Y-108423000D03*
X128750000Y-110500000D03*
X131900000Y-108000000D03*
%TO.N,Net-(IC1-VOUT)*%
X133825735Y-107522794D03*
%TO.N,/MCU/NRST*%
X142325735Y-86825735D03*
X130800000Y-124300000D03*
X140943236Y-90423265D03*
%TO.N,/MCU/I2C_SCL*%
X142500000Y-108423000D03*
X144077000Y-108000000D03*
%TO.N,Net-(Q1-G)*%
X130587500Y-106715442D03*
X131000000Y-118500000D03*
X131161000Y-115199000D03*
%TO.N,Net-(IC1-VCC)*%
X133825735Y-106674265D03*
X132500000Y-110650000D03*
%TO.N,/USB_C_IC/CC2*%
X125185202Y-94185201D03*
X126000000Y-94400000D03*
X122000000Y-94400000D03*
X130000000Y-101000000D03*
X132000000Y-102000000D03*
X135043015Y-101456985D03*
X120000000Y-98000000D03*
X124000000Y-93500000D03*
X127000000Y-96617201D03*
X130000000Y-99500000D03*
X120000000Y-101500000D03*
%TO.N,/USB_C_IC/data_-*%
X127774626Y-100833011D03*
%TO.N,/USB_C_IC/data_+*%
X127269003Y-101343698D03*
D21*
%TO.N,Net-(Q1-D)*%
X140500000Y-126000000D03*
X139500000Y-119500000D03*
%TD*%
D25*
%TO.N,Net-(IC1-VOUT)*%
X135500000Y-109197059D02*
X135500000Y-111000000D01*
X134000000Y-107697059D02*
X135500000Y-109197059D01*
%TO.N,Net-(Q1-G)*%
X129000000Y-112000000D02*
X129000000Y-112708619D01*
X128686029Y-107313971D02*
X128000000Y-108000000D01*
X130587500Y-106715442D02*
X129988971Y-107313971D01*
X129988971Y-107313971D02*
X128686029Y-107313971D01*
X128000000Y-108000000D02*
X128000000Y-111000000D01*
X128000000Y-111000000D02*
X129000000Y-112000000D01*
%TO.N,Net-(IC1-LED)*%
X131900000Y-110100000D02*
X131900000Y-108100000D01*
X131500000Y-110500000D02*
X131900000Y-110100000D01*
X128750000Y-110500000D02*
X131500000Y-110500000D01*
%TO.N,Net-(Q1-G)*%
X131161000Y-118339000D02*
X131000000Y-118500000D01*
X131161000Y-115199000D02*
X131161000Y-118339000D01*
%TO.N,/MCU/NRST*%
X129500000Y-120000000D02*
X130750000Y-121250000D01*
X122000000Y-120000000D02*
X129500000Y-120000000D01*
X120153000Y-118153000D02*
X122000000Y-120000000D01*
X120153000Y-113500000D02*
X120153000Y-118153000D01*
%TO.N,/USB_C_IC/CC2*%
X120281389Y-101781389D02*
X124137400Y-101781389D01*
X120000000Y-101500000D02*
X120281389Y-101781389D01*
%TO.N,/MCU/STATUS_LED*%
X123000000Y-96602000D02*
X122602000Y-97000000D01*
X123000000Y-94400000D02*
X123000000Y-96602000D01*
%TO.N,/USB_C_IC/CC2*%
X122000000Y-96000000D02*
X120000000Y-98000000D01*
X122000000Y-94400000D02*
X122000000Y-96000000D01*
X124500001Y-93500000D02*
X125185202Y-94185201D01*
X124000000Y-93500000D02*
X124500001Y-93500000D01*
X127000000Y-95400000D02*
X127000000Y-96617201D01*
X126000000Y-94400000D02*
X127000000Y-95400000D01*
%TO.N,+3V3*%
X146500000Y-86500000D02*
X148000000Y-88000000D01*
%TO.N,/MCU/NRST*%
X142601000Y-87101000D02*
X142325735Y-86825735D01*
X142601000Y-88765501D02*
X142601000Y-87101000D01*
X140943236Y-90423265D02*
X142601000Y-88765501D01*
%TO.N,+3V3*%
X142000000Y-88000000D02*
X141000000Y-89000000D01*
D26*
%TO.N,GND*%
X123150000Y-98524670D02*
X123824337Y-97850333D01*
X127400000Y-97750000D02*
X126912600Y-98237400D01*
D27*
X127500000Y-98800000D02*
X125431393Y-98800000D01*
X125431393Y-98800000D02*
X125043200Y-98411807D01*
D26*
X123824337Y-97850333D02*
X124481726Y-97850333D01*
X124481726Y-97850333D02*
X124837400Y-98206007D01*
X124481726Y-104162067D02*
X123240797Y-104162067D01*
X123150000Y-98950000D02*
X123150000Y-98524670D01*
X124837400Y-103720498D02*
X125157898Y-103400000D01*
D27*
X127900000Y-98400000D02*
X127500000Y-98800000D01*
D26*
X123240797Y-104162067D02*
X123103000Y-104024270D01*
D27*
X125043200Y-98411807D02*
X125043200Y-98349626D01*
D26*
X124837400Y-103806393D02*
X124481726Y-104162067D01*
X126912600Y-98237400D02*
X124868793Y-98237400D01*
D28*
%TO.N,VBUS*%
X124931385Y-102300000D02*
X124837400Y-102206015D01*
X126719701Y-101819701D02*
X127300000Y-102400000D01*
X125129366Y-99806385D02*
X124837400Y-99806385D01*
X126626720Y-102300000D02*
X124931385Y-102300000D01*
X128176720Y-103850000D02*
X126626720Y-102300000D01*
X124837400Y-99806385D02*
X124964774Y-99679011D01*
X128000000Y-104500000D02*
X128500000Y-105000000D01*
X128500626Y-100532291D02*
X128075346Y-100107011D01*
X128991165Y-103508835D02*
X128500000Y-104000000D01*
X127342950Y-102400000D02*
X128346475Y-103403525D01*
X124964774Y-99679011D02*
X128379011Y-99679011D01*
X128075346Y-100107011D02*
X125442989Y-100107011D01*
X128000000Y-103750000D02*
X128000000Y-104500000D01*
X125160818Y-102199563D02*
X125540680Y-101819701D01*
X128379011Y-99679011D02*
X128991165Y-100291165D01*
X125436490Y-100113510D02*
X125129366Y-99806385D01*
X128500626Y-103849374D02*
X128500626Y-100532291D01*
X125442989Y-100107011D02*
X125436490Y-100113510D01*
X128346475Y-103403525D02*
X128000000Y-103750000D01*
X128991165Y-100291165D02*
X128991165Y-103508835D01*
X125540680Y-101819701D02*
X126719701Y-101819701D01*
X124843852Y-102199563D02*
X125160818Y-102199563D01*
X127300000Y-102400000D02*
X127342950Y-102400000D01*
D26*
%TO.N,+5V*%
X144654000Y-99000000D02*
X143000000Y-99000000D01*
X134000000Y-104000000D02*
X134500000Y-104500000D01*
X143000000Y-99000000D02*
X142500000Y-98500000D01*
X134000000Y-102725000D02*
X134000000Y-104000000D01*
X132500000Y-99500000D02*
X132500000Y-101000000D01*
%TO.N,+3V3*%
X145000000Y-97500000D02*
X142500000Y-97500000D01*
D25*
%TO.N,Net-(IC1-LED)*%
X139689468Y-108423000D02*
X139266468Y-108000000D01*
X139266468Y-108000000D02*
X135500000Y-108000000D01*
%TO.N,/MCU/NRST*%
X130750000Y-124350000D02*
X130750000Y-127750000D01*
D29*
%TO.N,/MCU/I2C_SCL*%
X142923000Y-108000000D02*
X142500000Y-108423000D01*
X144077000Y-108000000D02*
X142923000Y-108000000D01*
D25*
%TO.N,Net-(IC1-VCC)*%
X132500000Y-108000000D02*
X132500000Y-110650000D01*
X133825735Y-106674265D02*
X132500000Y-108000000D01*
%TO.N,/USB_C_IC/CC2*%
X130000000Y-101000000D02*
X130000000Y-99500000D01*
X135043015Y-101456985D02*
X134500000Y-102000000D01*
X134500000Y-102000000D02*
X132000000Y-102000000D01*
D30*
%TO.N,/USB_C_IC/data_-*%
X127611898Y-100793699D02*
X125014462Y-100793699D01*
X125014462Y-100793699D02*
X124839400Y-100618637D01*
X127651210Y-100833011D02*
X127611898Y-100793699D01*
%TO.N,/USB_C_IC/data_+*%
X125014462Y-101243701D02*
X124839400Y-101418763D01*
X127169006Y-101243701D02*
X125014462Y-101243701D01*
D25*
%TO.N,/MCU/NRST*%
X142601000Y-87101000D02*
X142325735Y-86825735D01*
%TD*%
%TA.AperFunction,Conductor*%
%TO.N,GND*%
G36*
X156552324Y-83000587D02*
G01*
X156585205Y-83001817D01*
X157016140Y-83017942D01*
X157025356Y-83018632D01*
X157484289Y-83070341D01*
X157493442Y-83071721D01*
X157947224Y-83157581D01*
X157956227Y-83159635D01*
X158402325Y-83279167D01*
X158411182Y-83281899D01*
X158847088Y-83434429D01*
X158855720Y-83437817D01*
X159279008Y-83622496D01*
X159287362Y-83626520D01*
X159695640Y-83842301D01*
X159703671Y-83846937D01*
X160094707Y-84092641D01*
X160102369Y-84097865D01*
X160473949Y-84372104D01*
X160481187Y-84377876D01*
X160831233Y-84679115D01*
X160838030Y-84685422D01*
X161164577Y-85011969D01*
X161170884Y-85018766D01*
X161472118Y-85368806D01*
X161477900Y-85376056D01*
X161752134Y-85747630D01*
X161757358Y-85755292D01*
X162003062Y-86146328D01*
X162007698Y-86154359D01*
X162223479Y-86562637D01*
X162227503Y-86570991D01*
X162412182Y-86994279D01*
X162415570Y-87002911D01*
X162568100Y-87438817D01*
X162570833Y-87447678D01*
X162690358Y-87893750D01*
X162692421Y-87902791D01*
X162778277Y-88356550D01*
X162779659Y-88365719D01*
X162831365Y-88824625D01*
X162832058Y-88833873D01*
X162849412Y-89297673D01*
X162849499Y-89302309D01*
X162849499Y-106870500D01*
X162829814Y-106937539D01*
X162777010Y-106983294D01*
X162725499Y-106994500D01*
X157452961Y-106994500D01*
X157385922Y-106974815D01*
X157340167Y-106922011D01*
X157330223Y-106852853D01*
X157359248Y-106789297D01*
X157418026Y-106751523D01*
X157420868Y-106750725D01*
X157579834Y-106708130D01*
X157627660Y-106688319D01*
X157000001Y-106060660D01*
X157000000Y-106060660D01*
X156372338Y-106688319D01*
X156372338Y-106688320D01*
X156420152Y-106708125D01*
X156420165Y-106708129D01*
X156579133Y-106750725D01*
X156638793Y-106787090D01*
X156669322Y-106849937D01*
X156661027Y-106919313D01*
X156616542Y-106973191D01*
X156549990Y-106994465D01*
X156547039Y-106994500D01*
X151124000Y-106994500D01*
X151123991Y-106994500D01*
X151123990Y-106994501D01*
X151016549Y-107006052D01*
X151016537Y-107006054D01*
X150965027Y-107017260D01*
X150862502Y-107051383D01*
X150862496Y-107051386D01*
X150741462Y-107129171D01*
X150741451Y-107129179D01*
X150688659Y-107174923D01*
X150594433Y-107283664D01*
X150594430Y-107283668D01*
X150534664Y-107414534D01*
X150514976Y-107481582D01*
X150494500Y-107624001D01*
X150494500Y-122870500D01*
X150474815Y-122937539D01*
X150422011Y-122983294D01*
X150370500Y-122994500D01*
X147629500Y-122994500D01*
X147562461Y-122974815D01*
X147516706Y-122922011D01*
X147505500Y-122870500D01*
X147505500Y-120624010D01*
X147505500Y-120624000D01*
X147493947Y-120516544D01*
X147482741Y-120465033D01*
X147454737Y-120380894D01*
X147448616Y-120362502D01*
X147448613Y-120362496D01*
X147390769Y-120272490D01*
X147370825Y-120241457D01*
X147370820Y-120241451D01*
X147325076Y-120188659D01*
X147325072Y-120188656D01*
X147325070Y-120188653D01*
X147216336Y-120094433D01*
X147216333Y-120094431D01*
X147216331Y-120094430D01*
X147085465Y-120034664D01*
X147085460Y-120034662D01*
X147085459Y-120034662D01*
X147018420Y-120014977D01*
X147018422Y-120014977D01*
X147018417Y-120014976D01*
X146970944Y-120008150D01*
X146876000Y-119994500D01*
X146875998Y-119994500D01*
X143629500Y-119994500D01*
X143562461Y-119974815D01*
X143516706Y-119922011D01*
X143505500Y-119870500D01*
X143505500Y-119791359D01*
X143505294Y-119776973D01*
X143505294Y-119776969D01*
X143505092Y-119769889D01*
X143504473Y-119755442D01*
X143475898Y-119614428D01*
X143452418Y-119548623D01*
X143385276Y-119421375D01*
X143368550Y-119398355D01*
X143358387Y-119381772D01*
X143314008Y-119294673D01*
X143306567Y-119276709D01*
X143276356Y-119183730D01*
X143271817Y-119164824D01*
X143256526Y-119068271D01*
X143255000Y-119048875D01*
X143255000Y-118951122D01*
X143256526Y-118931726D01*
X143271816Y-118835181D01*
X143276357Y-118816265D01*
X143306567Y-118723290D01*
X143314006Y-118705330D01*
X143358393Y-118618215D01*
X143368549Y-118601643D01*
X143385275Y-118578625D01*
X143393607Y-118566805D01*
X143397604Y-118560959D01*
X143405567Y-118548949D01*
X143465338Y-118418072D01*
X143485023Y-118351033D01*
X143485024Y-118351029D01*
X143505500Y-118208613D01*
X143505500Y-117624000D01*
X143493947Y-117516544D01*
X143482741Y-117465033D01*
X143481615Y-117461650D01*
X143448616Y-117362502D01*
X143448613Y-117362496D01*
X143370828Y-117241462D01*
X143370825Y-117241457D01*
X143328831Y-117192993D01*
X143325076Y-117188659D01*
X143325072Y-117188656D01*
X143325070Y-117188653D01*
X143216336Y-117094433D01*
X143216333Y-117094431D01*
X143216331Y-117094430D01*
X143085465Y-117034664D01*
X143085460Y-117034662D01*
X143085459Y-117034662D01*
X143018420Y-117014977D01*
X143018422Y-117014977D01*
X143018417Y-117014976D01*
X142956347Y-117006052D01*
X142876000Y-116994500D01*
X138124000Y-116994500D01*
X138123991Y-116994500D01*
X138123990Y-116994501D01*
X138016549Y-117006052D01*
X138016537Y-117006054D01*
X137965027Y-117017260D01*
X137862502Y-117051383D01*
X137862496Y-117051386D01*
X137741462Y-117129171D01*
X137741451Y-117129179D01*
X137688659Y-117174923D01*
X137594433Y-117283664D01*
X137594430Y-117283668D01*
X137534664Y-117414534D01*
X137514976Y-117481582D01*
X137509949Y-117516549D01*
X137494502Y-117623990D01*
X137494500Y-117624001D01*
X137494500Y-130617174D01*
X137474815Y-130684213D01*
X137422011Y-130729968D01*
X137370500Y-130741174D01*
X124260635Y-130741174D01*
X124255999Y-130741087D01*
X123792196Y-130723734D01*
X123782949Y-130723041D01*
X123324043Y-130671336D01*
X123314873Y-130669954D01*
X122861114Y-130584100D01*
X122852076Y-130582037D01*
X122674936Y-130534573D01*
X122405995Y-130462511D01*
X122397135Y-130459778D01*
X121961236Y-130307253D01*
X121952603Y-130303865D01*
X121529312Y-130119184D01*
X121520958Y-130115161D01*
X121112671Y-129899376D01*
X121104648Y-129894744D01*
X120713612Y-129649040D01*
X120705950Y-129643816D01*
X120461667Y-129463528D01*
X120334379Y-129369584D01*
X120327133Y-129363807D01*
X120245375Y-129293449D01*
X119977077Y-129062560D01*
X119970280Y-129056252D01*
X119643747Y-128729719D01*
X119637439Y-128722921D01*
X119463146Y-128520388D01*
X119463146Y-128520387D01*
X119336193Y-128372866D01*
X119330411Y-128365616D01*
X119301170Y-128325996D01*
X119056183Y-127994049D01*
X119050959Y-127986387D01*
X118805255Y-127595351D01*
X118800627Y-127587336D01*
X118584830Y-127179025D01*
X118580815Y-127170687D01*
X118454379Y-126880894D01*
X118396127Y-126747380D01*
X118392752Y-126738779D01*
X118240219Y-126302859D01*
X118237491Y-126294016D01*
X118117957Y-125847904D01*
X118115902Y-125838901D01*
X118055229Y-125518234D01*
X119400000Y-125518234D01*
X119400000Y-125881765D01*
X119435632Y-126243556D01*
X119506550Y-126600090D01*
X119506553Y-126600101D01*
X119612086Y-126947997D01*
X119751207Y-127283864D01*
X119751209Y-127283869D01*
X119922570Y-127604462D01*
X119922581Y-127604480D01*
X120124551Y-127906750D01*
X120311678Y-128134765D01*
X120311679Y-128134766D01*
X121805747Y-126640697D01*
X121879588Y-126742330D01*
X122057670Y-126920412D01*
X122159301Y-126994251D01*
X120665232Y-128488319D01*
X120665233Y-128488320D01*
X120893249Y-128675448D01*
X121195519Y-128877418D01*
X121195537Y-128877429D01*
X121516130Y-129048790D01*
X121516135Y-129048792D01*
X121852002Y-129187913D01*
X122199898Y-129293446D01*
X122199909Y-129293449D01*
X122556443Y-129364367D01*
X122918234Y-129400000D01*
X123281766Y-129400000D01*
X123643556Y-129364367D01*
X124000090Y-129293449D01*
X124000101Y-129293446D01*
X124347997Y-129187913D01*
X124683864Y-129048792D01*
X124683869Y-129048790D01*
X125004462Y-128877429D01*
X125004480Y-128877418D01*
X125306736Y-128675457D01*
X125306750Y-128675447D01*
X125534765Y-128488320D01*
X125534766Y-128488319D01*
X124040698Y-126994251D01*
X124142330Y-126920412D01*
X124320412Y-126742330D01*
X124394251Y-126640698D01*
X125888319Y-128134766D01*
X125888320Y-128134765D01*
X126075447Y-127906750D01*
X126075457Y-127906736D01*
X126259095Y-127631902D01*
X129249500Y-127631902D01*
X129249500Y-127868097D01*
X129286446Y-128101368D01*
X129359433Y-128325996D01*
X129442142Y-128488320D01*
X129466657Y-128536433D01*
X129605483Y-128727510D01*
X129772490Y-128894517D01*
X129963567Y-129033343D01*
X130020909Y-129062560D01*
X130174003Y-129140566D01*
X130174005Y-129140566D01*
X130174008Y-129140568D01*
X130294412Y-129179689D01*
X130398631Y-129213553D01*
X130631903Y-129250500D01*
X130631908Y-129250500D01*
X130868097Y-129250500D01*
X131101368Y-129213553D01*
X131102870Y-129213065D01*
X131325992Y-129140568D01*
X131536433Y-129033343D01*
X131727510Y-128894517D01*
X131894517Y-128727510D01*
X132033343Y-128536433D01*
X132140568Y-128325992D01*
X132213553Y-128101368D01*
X132231764Y-127986387D01*
X132250500Y-127868097D01*
X132250500Y-127631947D01*
X133750000Y-127631947D01*
X133750000Y-127868052D01*
X133786934Y-128101247D01*
X133859897Y-128325802D01*
X133967087Y-128536174D01*
X134027338Y-128619104D01*
X134027340Y-128619105D01*
X134726212Y-127920233D01*
X134737482Y-127962292D01*
X134809890Y-128087708D01*
X134912292Y-128190110D01*
X135037708Y-128262518D01*
X135079765Y-128273787D01*
X134380893Y-128972658D01*
X134463828Y-129032914D01*
X134674197Y-129140102D01*
X134898752Y-129213065D01*
X134898751Y-129213065D01*
X135131948Y-129250000D01*
X135368052Y-129250000D01*
X135601247Y-129213065D01*
X135825802Y-129140102D01*
X136036163Y-129032918D01*
X136036169Y-129032914D01*
X136119104Y-128972658D01*
X136119105Y-128972658D01*
X135420233Y-128273787D01*
X135462292Y-128262518D01*
X135587708Y-128190110D01*
X135690110Y-128087708D01*
X135762518Y-127962292D01*
X135773787Y-127920234D01*
X136472658Y-128619105D01*
X136472658Y-128619104D01*
X136532914Y-128536169D01*
X136532918Y-128536163D01*
X136640102Y-128325802D01*
X136713065Y-128101247D01*
X136750000Y-127868052D01*
X136750000Y-127631947D01*
X136713065Y-127398752D01*
X136640102Y-127174197D01*
X136532914Y-126963828D01*
X136472658Y-126880894D01*
X136472658Y-126880893D01*
X135773787Y-127579765D01*
X135762518Y-127537708D01*
X135690110Y-127412292D01*
X135587708Y-127309890D01*
X135462292Y-127237482D01*
X135420234Y-127226212D01*
X136119105Y-126527340D01*
X136119104Y-126527338D01*
X136036174Y-126467087D01*
X135825802Y-126359897D01*
X135601247Y-126286934D01*
X135601248Y-126286934D01*
X135368052Y-126250000D01*
X135131948Y-126250000D01*
X134898752Y-126286934D01*
X134674197Y-126359897D01*
X134463830Y-126467084D01*
X134380894Y-126527340D01*
X135079766Y-127226212D01*
X135037708Y-127237482D01*
X134912292Y-127309890D01*
X134809890Y-127412292D01*
X134737482Y-127537708D01*
X134726212Y-127579766D01*
X134027340Y-126880894D01*
X133967084Y-126963830D01*
X133859897Y-127174197D01*
X133786934Y-127398752D01*
X133750000Y-127631947D01*
X132250500Y-127631947D01*
X132250500Y-127631902D01*
X132213553Y-127398631D01*
X132176262Y-127283864D01*
X132140568Y-127174008D01*
X132140566Y-127174005D01*
X132140566Y-127174003D01*
X132033477Y-126963830D01*
X132033343Y-126963567D01*
X131894517Y-126772490D01*
X131727510Y-126605483D01*
X131536433Y-126466657D01*
X131536432Y-126466656D01*
X131536430Y-126466655D01*
X131468204Y-126431891D01*
X131417408Y-126383916D01*
X131400500Y-126321407D01*
X131400500Y-124789767D01*
X131420185Y-124722728D01*
X131421398Y-124720876D01*
X131465080Y-124655501D01*
X131465080Y-124655500D01*
X131465084Y-124655495D01*
X131521658Y-124518913D01*
X131537023Y-124441672D01*
X131550500Y-124373920D01*
X131550500Y-124226079D01*
X131521659Y-124081092D01*
X131521658Y-124081091D01*
X131521658Y-124081087D01*
X131511045Y-124055464D01*
X131465087Y-123944511D01*
X131465080Y-123944498D01*
X131382951Y-123821584D01*
X131382948Y-123821580D01*
X131278419Y-123717051D01*
X131278415Y-123717048D01*
X131155501Y-123634919D01*
X131155488Y-123634912D01*
X131018917Y-123578343D01*
X131018907Y-123578340D01*
X130873920Y-123549500D01*
X130873918Y-123549500D01*
X130726082Y-123549500D01*
X130726080Y-123549500D01*
X130581092Y-123578340D01*
X130581082Y-123578343D01*
X130444511Y-123634912D01*
X130444498Y-123634919D01*
X130321584Y-123717048D01*
X130321580Y-123717051D01*
X130217051Y-123821580D01*
X130217048Y-123821584D01*
X130134919Y-123944498D01*
X130134912Y-123944511D01*
X130078343Y-124081082D01*
X130078340Y-124081092D01*
X130049500Y-124226079D01*
X130049500Y-124226082D01*
X130049500Y-124373918D01*
X130049500Y-124373920D01*
X130049499Y-124373920D01*
X130078340Y-124518907D01*
X130078343Y-124518917D01*
X130090061Y-124547206D01*
X130099500Y-124594658D01*
X130099500Y-126321407D01*
X130079815Y-126388446D01*
X130031796Y-126431891D01*
X129963569Y-126466655D01*
X129880047Y-126527338D01*
X129772490Y-126605483D01*
X129772488Y-126605485D01*
X129772487Y-126605485D01*
X129605485Y-126772487D01*
X129605485Y-126772488D01*
X129605483Y-126772490D01*
X129601727Y-126777660D01*
X129466657Y-126963566D01*
X129359433Y-127174003D01*
X129286446Y-127398631D01*
X129249500Y-127631902D01*
X126259095Y-127631902D01*
X126277418Y-127604480D01*
X126277420Y-127604477D01*
X126296606Y-127568583D01*
X126296608Y-127568580D01*
X126448790Y-127283869D01*
X126448792Y-127283864D01*
X126587913Y-126947997D01*
X126693446Y-126600101D01*
X126693449Y-126600090D01*
X126764367Y-126243556D01*
X126800000Y-125881765D01*
X126800000Y-125518234D01*
X126764367Y-125156443D01*
X126693449Y-124799909D01*
X126693446Y-124799898D01*
X126587913Y-124452002D01*
X126448792Y-124116135D01*
X126448790Y-124116130D01*
X126277429Y-123795537D01*
X126277418Y-123795519D01*
X126075448Y-123493249D01*
X125888320Y-123265233D01*
X125888319Y-123265232D01*
X124394251Y-124759300D01*
X124320412Y-124657670D01*
X124142330Y-124479588D01*
X124040698Y-124405748D01*
X125534766Y-122911679D01*
X125534765Y-122911678D01*
X125306750Y-122724551D01*
X125004480Y-122522581D01*
X125004462Y-122522570D01*
X124683869Y-122351209D01*
X124683864Y-122351207D01*
X124347997Y-122212086D01*
X124000101Y-122106553D01*
X124000090Y-122106550D01*
X123643556Y-122035632D01*
X123281766Y-122000000D01*
X122918234Y-122000000D01*
X122556443Y-122035632D01*
X122199909Y-122106550D01*
X122199898Y-122106553D01*
X121852002Y-122212086D01*
X121516135Y-122351207D01*
X121516130Y-122351209D01*
X121195537Y-122522570D01*
X121195519Y-122522581D01*
X120893258Y-122724545D01*
X120893254Y-122724548D01*
X120665233Y-122911679D01*
X120665233Y-122911680D01*
X122159301Y-124405748D01*
X122057670Y-124479588D01*
X121879588Y-124657670D01*
X121805748Y-124759301D01*
X120311680Y-123265233D01*
X120311679Y-123265233D01*
X120124548Y-123493254D01*
X120124545Y-123493258D01*
X119922581Y-123795519D01*
X119922570Y-123795537D01*
X119751209Y-124116130D01*
X119751207Y-124116135D01*
X119612086Y-124452002D01*
X119506553Y-124799898D01*
X119506550Y-124799909D01*
X119435632Y-125156443D01*
X119400000Y-125518234D01*
X118055229Y-125518234D01*
X118030044Y-125385124D01*
X118028663Y-125375956D01*
X118011380Y-125222559D01*
X117976956Y-124917036D01*
X117976266Y-124907817D01*
X117958913Y-124444001D01*
X117958826Y-124439365D01*
X117958826Y-113573920D01*
X119402499Y-113573920D01*
X119431340Y-113718907D01*
X119431343Y-113718917D01*
X119490247Y-113861124D01*
X119489383Y-113861481D01*
X119502500Y-113913840D01*
X119502500Y-118217071D01*
X119521036Y-118310253D01*
X119521036Y-118310254D01*
X119527497Y-118342737D01*
X119527498Y-118342741D01*
X119527499Y-118342744D01*
X119576535Y-118461127D01*
X119580236Y-118466666D01*
X119647726Y-118567673D01*
X121585327Y-120505274D01*
X121585330Y-120505276D01*
X121638969Y-120541116D01*
X121691873Y-120576465D01*
X121810256Y-120625501D01*
X121810260Y-120625501D01*
X121810261Y-120625502D01*
X121935928Y-120650500D01*
X121935931Y-120650500D01*
X129179192Y-120650500D01*
X129208632Y-120659144D01*
X129238619Y-120665668D01*
X129243634Y-120669422D01*
X129246231Y-120670185D01*
X129266873Y-120686819D01*
X129279859Y-120699805D01*
X129313344Y-120761128D01*
X129310109Y-120825803D01*
X129286447Y-120898628D01*
X129249500Y-121131902D01*
X129249500Y-121368097D01*
X129286446Y-121601368D01*
X129359433Y-121825996D01*
X129448093Y-122000000D01*
X129466657Y-122036433D01*
X129605483Y-122227510D01*
X129772490Y-122394517D01*
X129963567Y-122533343D01*
X130062991Y-122584002D01*
X130174003Y-122640566D01*
X130174005Y-122640566D01*
X130174008Y-122640568D01*
X130294412Y-122679689D01*
X130398631Y-122713553D01*
X130631903Y-122750500D01*
X130631908Y-122750500D01*
X130868097Y-122750500D01*
X131101368Y-122713553D01*
X131179596Y-122688135D01*
X131325992Y-122640568D01*
X131536433Y-122533343D01*
X131727510Y-122394517D01*
X131894517Y-122227510D01*
X132033343Y-122036433D01*
X132140568Y-121825992D01*
X132213553Y-121601368D01*
X132215717Y-121587708D01*
X132250500Y-121368097D01*
X132250500Y-121131947D01*
X133750000Y-121131947D01*
X133750000Y-121368052D01*
X133786934Y-121601247D01*
X133859897Y-121825802D01*
X133967087Y-122036174D01*
X134027338Y-122119104D01*
X134027340Y-122119105D01*
X134726212Y-121420233D01*
X134737482Y-121462292D01*
X134809890Y-121587708D01*
X134912292Y-121690110D01*
X135037708Y-121762518D01*
X135079765Y-121773787D01*
X134380893Y-122472658D01*
X134463828Y-122532914D01*
X134674197Y-122640102D01*
X134898752Y-122713065D01*
X134898751Y-122713065D01*
X135131948Y-122750000D01*
X135368052Y-122750000D01*
X135601247Y-122713065D01*
X135825802Y-122640102D01*
X136036163Y-122532918D01*
X136036169Y-122532914D01*
X136119104Y-122472658D01*
X136119105Y-122472658D01*
X135420233Y-121773787D01*
X135462292Y-121762518D01*
X135587708Y-121690110D01*
X135690110Y-121587708D01*
X135762518Y-121462292D01*
X135773787Y-121420234D01*
X136472658Y-122119105D01*
X136472658Y-122119104D01*
X136532914Y-122036169D01*
X136532918Y-122036163D01*
X136640102Y-121825802D01*
X136713065Y-121601247D01*
X136750000Y-121368052D01*
X136750000Y-121131947D01*
X136713065Y-120898752D01*
X136640102Y-120674197D01*
X136532914Y-120463828D01*
X136472658Y-120380894D01*
X136472658Y-120380893D01*
X135773787Y-121079765D01*
X135762518Y-121037708D01*
X135690110Y-120912292D01*
X135587708Y-120809890D01*
X135462292Y-120737482D01*
X135420234Y-120726212D01*
X136119105Y-120027340D01*
X136119104Y-120027338D01*
X136036174Y-119967087D01*
X135825802Y-119859897D01*
X135601247Y-119786934D01*
X135601248Y-119786934D01*
X135368052Y-119750000D01*
X135131948Y-119750000D01*
X134898752Y-119786934D01*
X134674197Y-119859897D01*
X134463830Y-119967084D01*
X134380894Y-120027340D01*
X135079766Y-120726212D01*
X135037708Y-120737482D01*
X134912292Y-120809890D01*
X134809890Y-120912292D01*
X134737482Y-121037708D01*
X134726212Y-121079766D01*
X134027340Y-120380894D01*
X133967084Y-120463830D01*
X133859897Y-120674197D01*
X133786934Y-120898752D01*
X133750000Y-121131947D01*
X132250500Y-121131947D01*
X132250500Y-121131902D01*
X132213553Y-120898631D01*
X132168875Y-120761128D01*
X132140568Y-120674008D01*
X132140566Y-120674005D01*
X132140566Y-120674003D01*
X132072856Y-120541116D01*
X132033343Y-120463567D01*
X131894517Y-120272490D01*
X131727510Y-120105483D01*
X131536433Y-119966657D01*
X131325996Y-119859433D01*
X131101368Y-119786446D01*
X130868097Y-119749500D01*
X130868092Y-119749500D01*
X130631908Y-119749500D01*
X130631903Y-119749500D01*
X130398628Y-119786447D01*
X130325803Y-119810109D01*
X130255962Y-119812104D01*
X130199805Y-119779859D01*
X129914674Y-119494727D01*
X129914673Y-119494726D01*
X129914669Y-119494723D01*
X129808127Y-119423535D01*
X129802912Y-119421375D01*
X129689744Y-119374499D01*
X129689738Y-119374497D01*
X129564071Y-119349500D01*
X129564069Y-119349500D01*
X122320808Y-119349500D01*
X122253769Y-119329815D01*
X122233127Y-119313181D01*
X121481627Y-118561681D01*
X121448142Y-118500358D01*
X121453126Y-118430666D01*
X121494998Y-118374733D01*
X121560462Y-118350316D01*
X121569308Y-118350000D01*
X122090000Y-118350000D01*
X122090000Y-117433012D01*
X122147007Y-117465925D01*
X122274174Y-117500000D01*
X122405826Y-117500000D01*
X122532993Y-117465925D01*
X122590000Y-117433012D01*
X122590000Y-118350000D01*
X123237828Y-118350000D01*
X123237844Y-118349999D01*
X123297372Y-118343598D01*
X123297379Y-118343596D01*
X123432086Y-118293354D01*
X123432093Y-118293350D01*
X123547187Y-118207190D01*
X123547190Y-118207187D01*
X123633350Y-118092093D01*
X123633354Y-118092086D01*
X123682422Y-117960529D01*
X123724293Y-117904595D01*
X123789757Y-117880178D01*
X123858030Y-117895030D01*
X123886285Y-117916181D01*
X124000213Y-118030109D01*
X124172179Y-118155048D01*
X124172181Y-118155049D01*
X124172184Y-118155051D01*
X124361588Y-118251557D01*
X124563757Y-118317246D01*
X124773713Y-118350500D01*
X124773714Y-118350500D01*
X124986286Y-118350500D01*
X124986287Y-118350500D01*
X125196243Y-118317246D01*
X125398412Y-118251557D01*
X125587816Y-118155051D01*
X125674471Y-118092093D01*
X125759786Y-118030109D01*
X125759788Y-118030106D01*
X125759792Y-118030104D01*
X125910104Y-117879792D01*
X125910106Y-117879788D01*
X125910109Y-117879786D01*
X126035048Y-117707820D01*
X126035047Y-117707820D01*
X126035051Y-117707816D01*
X126039514Y-117699054D01*
X126087488Y-117648259D01*
X126155308Y-117631463D01*
X126221444Y-117653999D01*
X126260486Y-117699056D01*
X126264951Y-117707820D01*
X126389890Y-117879786D01*
X126540213Y-118030109D01*
X126712179Y-118155048D01*
X126712181Y-118155049D01*
X126712184Y-118155051D01*
X126901588Y-118251557D01*
X127103757Y-118317246D01*
X127313713Y-118350500D01*
X127313714Y-118350500D01*
X127526286Y-118350500D01*
X127526287Y-118350500D01*
X127736243Y-118317246D01*
X127938412Y-118251557D01*
X128127816Y-118155051D01*
X128214471Y-118092093D01*
X128299786Y-118030109D01*
X128299788Y-118030106D01*
X128299792Y-118030104D01*
X128450104Y-117879792D01*
X128450106Y-117879788D01*
X128450109Y-117879786D01*
X128575048Y-117707820D01*
X128575047Y-117707820D01*
X128575051Y-117707816D01*
X128579514Y-117699054D01*
X128627488Y-117648259D01*
X128695308Y-117631463D01*
X128761444Y-117653999D01*
X128800486Y-117699056D01*
X128804951Y-117707820D01*
X128929890Y-117879786D01*
X129080213Y-118030109D01*
X129252179Y-118155048D01*
X129252181Y-118155049D01*
X129252184Y-118155051D01*
X129441588Y-118251557D01*
X129643757Y-118317246D01*
X129853713Y-118350500D01*
X129853714Y-118350500D01*
X130066284Y-118350500D01*
X130066287Y-118350500D01*
X130106104Y-118344193D01*
X130175394Y-118353147D01*
X130228846Y-118398142D01*
X130249487Y-118464893D01*
X130249500Y-118466666D01*
X130249500Y-118573918D01*
X130249500Y-118573920D01*
X130249499Y-118573920D01*
X130278340Y-118718907D01*
X130278343Y-118718917D01*
X130334912Y-118855488D01*
X130334919Y-118855501D01*
X130417048Y-118978415D01*
X130417051Y-118978419D01*
X130521580Y-119082948D01*
X130521584Y-119082951D01*
X130644498Y-119165080D01*
X130644511Y-119165087D01*
X130781082Y-119221656D01*
X130781087Y-119221658D01*
X130781091Y-119221658D01*
X130781092Y-119221659D01*
X130926079Y-119250500D01*
X130926082Y-119250500D01*
X131073920Y-119250500D01*
X131171462Y-119231096D01*
X131218913Y-119221658D01*
X131355495Y-119165084D01*
X131478416Y-119082951D01*
X131582951Y-118978416D01*
X131665084Y-118855495D01*
X131721658Y-118718913D01*
X131732143Y-118666196D01*
X131736029Y-118651464D01*
X131737461Y-118647132D01*
X131737465Y-118647127D01*
X131786501Y-118528744D01*
X131799951Y-118461127D01*
X131811500Y-118403069D01*
X131811500Y-118366682D01*
X131831185Y-118299643D01*
X131883989Y-118253888D01*
X131953147Y-118243944D01*
X131976826Y-118250443D01*
X131976954Y-118250051D01*
X131981586Y-118251556D01*
X131981588Y-118251557D01*
X132183757Y-118317246D01*
X132393713Y-118350500D01*
X132393714Y-118350500D01*
X132606286Y-118350500D01*
X132606287Y-118350500D01*
X132816243Y-118317246D01*
X133018412Y-118251557D01*
X133207816Y-118155051D01*
X133294471Y-118092093D01*
X133379786Y-118030109D01*
X133379788Y-118030106D01*
X133379792Y-118030104D01*
X133530104Y-117879792D01*
X133530106Y-117879788D01*
X133530109Y-117879786D01*
X133655048Y-117707820D01*
X133655047Y-117707820D01*
X133655051Y-117707816D01*
X133659514Y-117699054D01*
X133707488Y-117648259D01*
X133775308Y-117631463D01*
X133841444Y-117653999D01*
X133880486Y-117699056D01*
X133884951Y-117707820D01*
X134009890Y-117879786D01*
X134160213Y-118030109D01*
X134332179Y-118155048D01*
X134332181Y-118155049D01*
X134332184Y-118155051D01*
X134521588Y-118251557D01*
X134723757Y-118317246D01*
X134933713Y-118350500D01*
X134933714Y-118350500D01*
X135146286Y-118350500D01*
X135146287Y-118350500D01*
X135356243Y-118317246D01*
X135558412Y-118251557D01*
X135747816Y-118155051D01*
X135834471Y-118092093D01*
X135919786Y-118030109D01*
X135919788Y-118030106D01*
X135919792Y-118030104D01*
X136070104Y-117879792D01*
X136070106Y-117879788D01*
X136070109Y-117879786D01*
X136195048Y-117707820D01*
X136195047Y-117707820D01*
X136195051Y-117707816D01*
X136291557Y-117518412D01*
X136357246Y-117316243D01*
X136390500Y-117106287D01*
X136390500Y-116893713D01*
X136357246Y-116683757D01*
X136291557Y-116481588D01*
X136195051Y-116292184D01*
X136195049Y-116292181D01*
X136195048Y-116292179D01*
X136070109Y-116120213D01*
X135919786Y-115969890D01*
X135747820Y-115844951D01*
X135558414Y-115748444D01*
X135558413Y-115748443D01*
X135558412Y-115748443D01*
X135356243Y-115682754D01*
X135356241Y-115682753D01*
X135356240Y-115682753D01*
X135194957Y-115657208D01*
X135146287Y-115649500D01*
X134933713Y-115649500D01*
X134885042Y-115657208D01*
X134723760Y-115682753D01*
X134521585Y-115748444D01*
X134332179Y-115844951D01*
X134160213Y-115969890D01*
X134009890Y-116120213D01*
X133884949Y-116292182D01*
X133880484Y-116300946D01*
X133832509Y-116351742D01*
X133764688Y-116368536D01*
X133698553Y-116345998D01*
X133659516Y-116300946D01*
X133655050Y-116292182D01*
X133530109Y-116120213D01*
X133379786Y-115969890D01*
X133207820Y-115844951D01*
X133128173Y-115804369D01*
X133077377Y-115756394D01*
X133060582Y-115688573D01*
X133083119Y-115622439D01*
X133128174Y-115583399D01*
X133155403Y-115569525D01*
X133155402Y-115569525D01*
X133155405Y-115569524D01*
X133314646Y-115453828D01*
X133453828Y-115314646D01*
X133569524Y-115155405D01*
X133658884Y-114980025D01*
X133693805Y-114872548D01*
X133733243Y-114814873D01*
X133797601Y-114787675D01*
X133866448Y-114799590D01*
X133912053Y-114837981D01*
X133958672Y-114902146D01*
X134097854Y-115041328D01*
X134257095Y-115157024D01*
X134339955Y-115199243D01*
X134432470Y-115246382D01*
X134432472Y-115246382D01*
X134432475Y-115246384D01*
X134514138Y-115272918D01*
X134619673Y-115307209D01*
X134814078Y-115338000D01*
X134814083Y-115338000D01*
X135010922Y-115338000D01*
X135205326Y-115307209D01*
X135392525Y-115246384D01*
X135567905Y-115157024D01*
X135727146Y-115041328D01*
X135866328Y-114902146D01*
X135982024Y-114742905D01*
X136071384Y-114567525D01*
X136132209Y-114380326D01*
X136163000Y-114185922D01*
X136163000Y-113989077D01*
X136132209Y-113794673D01*
X136103987Y-113707817D01*
X136071384Y-113607475D01*
X136071382Y-113607472D01*
X136071382Y-113607470D01*
X135982023Y-113432094D01*
X135866328Y-113272854D01*
X135727146Y-113133672D01*
X135567905Y-113017976D01*
X135392529Y-112928617D01*
X135205326Y-112867790D01*
X135010922Y-112837000D01*
X135010917Y-112837000D01*
X134814083Y-112837000D01*
X134814078Y-112837000D01*
X134619673Y-112867790D01*
X134432470Y-112928617D01*
X134257094Y-113017976D01*
X134166241Y-113083985D01*
X134097854Y-113133672D01*
X134097852Y-113133674D01*
X134097851Y-113133674D01*
X133958674Y-113272851D01*
X133958674Y-113272852D01*
X133958672Y-113272854D01*
X133945074Y-113291570D01*
X133842976Y-113432094D01*
X133753618Y-113607469D01*
X133718694Y-113714952D01*
X133679255Y-113772627D01*
X133614896Y-113799824D01*
X133546050Y-113787909D01*
X133500445Y-113749517D01*
X133453830Y-113685357D01*
X133453825Y-113685351D01*
X133314648Y-113546174D01*
X133314646Y-113546172D01*
X133155405Y-113430476D01*
X133111478Y-113408094D01*
X132980029Y-113341117D01*
X132792826Y-113280290D01*
X132598422Y-113249500D01*
X132598417Y-113249500D01*
X132401583Y-113249500D01*
X132401578Y-113249500D01*
X132207173Y-113280290D01*
X132019967Y-113341118D01*
X131913829Y-113395198D01*
X131845159Y-113408094D01*
X131780419Y-113381817D01*
X131740163Y-113324710D01*
X131735062Y-113304110D01*
X131719709Y-113207174D01*
X131719709Y-113207173D01*
X131691487Y-113120317D01*
X131658884Y-113019975D01*
X131658882Y-113019972D01*
X131658882Y-113019970D01*
X131569523Y-112844594D01*
X131562494Y-112834919D01*
X131453828Y-112685354D01*
X131314646Y-112546172D01*
X131155405Y-112430476D01*
X131148324Y-112426868D01*
X130980029Y-112341117D01*
X130792826Y-112280290D01*
X130598422Y-112249500D01*
X130598417Y-112249500D01*
X130401583Y-112249500D01*
X130401578Y-112249500D01*
X130207173Y-112280290D01*
X130019970Y-112341117D01*
X129842346Y-112431622D01*
X129829905Y-112433958D01*
X129819153Y-112440637D01*
X129796219Y-112440284D01*
X129773676Y-112444518D01*
X129761947Y-112439757D01*
X129749291Y-112439563D01*
X129730189Y-112426868D01*
X129708936Y-112418242D01*
X129700258Y-112406976D01*
X129691101Y-112400890D01*
X129674461Y-112373484D01*
X129672478Y-112370909D01*
X129671981Y-112369775D01*
X129665084Y-112353124D01*
X129663921Y-112351384D01*
X129660927Y-112344551D01*
X129658791Y-112327882D01*
X129650500Y-112294779D01*
X129650500Y-111935928D01*
X129625502Y-111810261D01*
X129625501Y-111810260D01*
X129625501Y-111810256D01*
X129600749Y-111750500D01*
X129576466Y-111691874D01*
X129557606Y-111663648D01*
X129505278Y-111585332D01*
X129505272Y-111585325D01*
X129282127Y-111362181D01*
X129248642Y-111300858D01*
X129253626Y-111231167D01*
X129295497Y-111175233D01*
X129360962Y-111150816D01*
X129369808Y-111150500D01*
X131564071Y-111150500D01*
X131648615Y-111133682D01*
X131689744Y-111125501D01*
X131772633Y-111091166D01*
X131842101Y-111083698D01*
X131904580Y-111114973D01*
X131915938Y-111127063D01*
X131917050Y-111128418D01*
X132021580Y-111232948D01*
X132021584Y-111232951D01*
X132144498Y-111315080D01*
X132144511Y-111315087D01*
X132242049Y-111355488D01*
X132281087Y-111371658D01*
X132281091Y-111371658D01*
X132281092Y-111371659D01*
X132426079Y-111400500D01*
X132426082Y-111400500D01*
X132573920Y-111400500D01*
X132671462Y-111381096D01*
X132718913Y-111371658D01*
X132731856Y-111366296D01*
X132801322Y-111358827D01*
X132863802Y-111390100D01*
X132889794Y-111424562D01*
X132930476Y-111504405D01*
X133046172Y-111663646D01*
X133185354Y-111802828D01*
X133344595Y-111918524D01*
X133427455Y-111960743D01*
X133519970Y-112007882D01*
X133519972Y-112007882D01*
X133519975Y-112007884D01*
X133620317Y-112040487D01*
X133707173Y-112068709D01*
X133901578Y-112099500D01*
X133901583Y-112099500D01*
X134098422Y-112099500D01*
X134292826Y-112068709D01*
X134480025Y-112007884D01*
X134655405Y-111918524D01*
X134814646Y-111802828D01*
X134953828Y-111663646D01*
X134953828Y-111663645D01*
X134957273Y-111660201D01*
X134959052Y-111661980D01*
X135008631Y-111629235D01*
X135078495Y-111628361D01*
X135113942Y-111644664D01*
X135144493Y-111665077D01*
X135144502Y-111665082D01*
X135144505Y-111665084D01*
X135144507Y-111665084D01*
X135144511Y-111665087D01*
X135281082Y-111721656D01*
X135281087Y-111721658D01*
X135281091Y-111721658D01*
X135281092Y-111721659D01*
X135426079Y-111750500D01*
X135426082Y-111750500D01*
X135573920Y-111750500D01*
X135671462Y-111731096D01*
X135718913Y-111721658D01*
X135855495Y-111665084D01*
X135978416Y-111582951D01*
X136082951Y-111478416D01*
X136165084Y-111355495D01*
X136221658Y-111218913D01*
X136239659Y-111128418D01*
X136250500Y-111073920D01*
X136250500Y-110926079D01*
X136221659Y-110781092D01*
X136221658Y-110781091D01*
X136221658Y-110781087D01*
X136165084Y-110644505D01*
X136165083Y-110644504D01*
X136162753Y-110638878D01*
X136163614Y-110638520D01*
X136150500Y-110586160D01*
X136150500Y-109132987D01*
X136125502Y-109007320D01*
X136125501Y-109007319D01*
X136125501Y-109007315D01*
X136076465Y-108888932D01*
X136069046Y-108877829D01*
X136046034Y-108843388D01*
X136027479Y-108784124D01*
X136025158Y-108776712D01*
X136025158Y-108776710D01*
X136039776Y-108723427D01*
X136043643Y-108709332D01*
X136043643Y-108709331D01*
X136043644Y-108709330D01*
X136072137Y-108683738D01*
X136095622Y-108662643D01*
X136095624Y-108662642D01*
X136095625Y-108662642D01*
X136095629Y-108662641D01*
X136149138Y-108650500D01*
X138888513Y-108650500D01*
X138955552Y-108670185D01*
X139001307Y-108722989D01*
X139003055Y-108727004D01*
X139024381Y-108778488D01*
X139024386Y-108778499D01*
X139106513Y-108901411D01*
X139106519Y-108901419D01*
X139211048Y-109005948D01*
X139211052Y-109005951D01*
X139333966Y-109088080D01*
X139333979Y-109088087D01*
X139442386Y-109132990D01*
X139470555Y-109144658D01*
X139470559Y-109144658D01*
X139470560Y-109144659D01*
X139615547Y-109173500D01*
X139615550Y-109173500D01*
X139763388Y-109173500D01*
X139860930Y-109154096D01*
X139908381Y-109144658D01*
X140044963Y-109088084D01*
X140167884Y-109005951D01*
X140272419Y-108901416D01*
X140354552Y-108778495D01*
X140411126Y-108641913D01*
X140439968Y-108496920D01*
X141749499Y-108496920D01*
X141778340Y-108641907D01*
X141778343Y-108641917D01*
X141834912Y-108778488D01*
X141834919Y-108778501D01*
X141917048Y-108901415D01*
X141917051Y-108901419D01*
X142021580Y-109005948D01*
X142021584Y-109005951D01*
X142144498Y-109088080D01*
X142144511Y-109088087D01*
X142252918Y-109132990D01*
X142281087Y-109144658D01*
X142281091Y-109144658D01*
X142281092Y-109144659D01*
X142426079Y-109173500D01*
X142426082Y-109173500D01*
X142573920Y-109173500D01*
X142671462Y-109154096D01*
X142718913Y-109144658D01*
X142855495Y-109088084D01*
X142978416Y-109005951D01*
X143082951Y-108901416D01*
X143165084Y-108778495D01*
X143188627Y-108721658D01*
X143195921Y-108704048D01*
X143239761Y-108649644D01*
X143306055Y-108627579D01*
X143310482Y-108627500D01*
X143627641Y-108627500D01*
X143694680Y-108647185D01*
X143696525Y-108648393D01*
X143721505Y-108665084D01*
X143858087Y-108721658D01*
X143858091Y-108721658D01*
X143858092Y-108721659D01*
X144003079Y-108750500D01*
X144003082Y-108750500D01*
X144150920Y-108750500D01*
X144268816Y-108727048D01*
X144295913Y-108721658D01*
X144432495Y-108665084D01*
X144555416Y-108582951D01*
X144659951Y-108478416D01*
X144742084Y-108355495D01*
X144798658Y-108218913D01*
X144809494Y-108164438D01*
X144827500Y-108073920D01*
X144827500Y-107926079D01*
X144798659Y-107781092D01*
X144798658Y-107781091D01*
X144798658Y-107781087D01*
X144765627Y-107701342D01*
X144742087Y-107644511D01*
X144742080Y-107644498D01*
X144659951Y-107521584D01*
X144659948Y-107521580D01*
X144555419Y-107417051D01*
X144555415Y-107417048D01*
X144432501Y-107334919D01*
X144432488Y-107334912D01*
X144295917Y-107278343D01*
X144295907Y-107278340D01*
X144150920Y-107249500D01*
X144150918Y-107249500D01*
X144003082Y-107249500D01*
X144003080Y-107249500D01*
X143858092Y-107278340D01*
X143858082Y-107278343D01*
X143721508Y-107334914D01*
X143696531Y-107351603D01*
X143629853Y-107372480D01*
X143627641Y-107372500D01*
X142861195Y-107372500D01*
X142739970Y-107396613D01*
X142739960Y-107396616D01*
X142625773Y-107443913D01*
X142625760Y-107443920D01*
X142522992Y-107512588D01*
X142374034Y-107661546D01*
X142312711Y-107695030D01*
X142310547Y-107695481D01*
X142281089Y-107701341D01*
X142281084Y-107701342D01*
X142144511Y-107757912D01*
X142144498Y-107757919D01*
X142021584Y-107840048D01*
X142021580Y-107840051D01*
X141917051Y-107944580D01*
X141917048Y-107944584D01*
X141834919Y-108067498D01*
X141834912Y-108067511D01*
X141778343Y-108204082D01*
X141778340Y-108204092D01*
X141749500Y-108349079D01*
X141749500Y-108349082D01*
X141749500Y-108496918D01*
X141749500Y-108496920D01*
X141749499Y-108496920D01*
X140439968Y-108496920D01*
X140439968Y-108496918D01*
X140439968Y-108349082D01*
X140439968Y-108349079D01*
X140411127Y-108204092D01*
X140411126Y-108204091D01*
X140411126Y-108204087D01*
X140404409Y-108187871D01*
X140354555Y-108067511D01*
X140354548Y-108067498D01*
X140272419Y-107944584D01*
X140272416Y-107944580D01*
X140167887Y-107840051D01*
X140167883Y-107840048D01*
X140044969Y-107757919D01*
X140044956Y-107757912D01*
X139902754Y-107699011D01*
X139903111Y-107698149D01*
X139856812Y-107670398D01*
X139681142Y-107494727D01*
X139681141Y-107494726D01*
X139681137Y-107494723D01*
X139574595Y-107423535D01*
X139558941Y-107417051D01*
X139456212Y-107374499D01*
X139456206Y-107374497D01*
X139330539Y-107349500D01*
X139330537Y-107349500D01*
X135913840Y-107349500D01*
X135861479Y-107336385D01*
X135861122Y-107337247D01*
X135855495Y-107334916D01*
X135718913Y-107278342D01*
X135718907Y-107278340D01*
X135573920Y-107249500D01*
X135573918Y-107249500D01*
X135426082Y-107249500D01*
X135426080Y-107249500D01*
X135281092Y-107278340D01*
X135281082Y-107278343D01*
X135144511Y-107334912D01*
X135144498Y-107334919D01*
X135021584Y-107417048D01*
X134918440Y-107520192D01*
X134910493Y-107524531D01*
X134905069Y-107531777D01*
X134880311Y-107541011D01*
X134857117Y-107553676D01*
X134848087Y-107553030D01*
X134839605Y-107556194D01*
X134813784Y-107550577D01*
X134787425Y-107548692D01*
X134778371Y-107542873D01*
X134771332Y-107541342D01*
X134743078Y-107520191D01*
X134578336Y-107355449D01*
X134550588Y-107309151D01*
X134549724Y-107309509D01*
X134545118Y-107298390D01*
X134524868Y-107249500D01*
X134490821Y-107167303D01*
X134487950Y-107161932D01*
X134489006Y-107161367D01*
X134470021Y-107100751D01*
X134488010Y-107035159D01*
X134487950Y-107035127D01*
X134488091Y-107034861D01*
X134488501Y-107033370D01*
X134490811Y-107029775D01*
X134490821Y-107029755D01*
X134495997Y-107017259D01*
X134547393Y-106893178D01*
X134575571Y-106751523D01*
X134576235Y-106748185D01*
X134576235Y-106600344D01*
X134547394Y-106455357D01*
X134547393Y-106455356D01*
X134547393Y-106455352D01*
X134547391Y-106455347D01*
X134490822Y-106318776D01*
X134490815Y-106318763D01*
X134408686Y-106195849D01*
X134408683Y-106195845D01*
X134304154Y-106091316D01*
X134304150Y-106091313D01*
X134181236Y-106009184D01*
X134181223Y-106009177D01*
X134044652Y-105952608D01*
X134044642Y-105952605D01*
X133899655Y-105923765D01*
X133899653Y-105923765D01*
X133751817Y-105923765D01*
X133751815Y-105923765D01*
X133606827Y-105952605D01*
X133606817Y-105952608D01*
X133470246Y-106009177D01*
X133470233Y-106009184D01*
X133347319Y-106091313D01*
X133347315Y-106091316D01*
X133242786Y-106195845D01*
X133242783Y-106195849D01*
X133160654Y-106318763D01*
X133160649Y-106318772D01*
X133101746Y-106460979D01*
X133100884Y-106460622D01*
X133073133Y-106506919D01*
X132306757Y-107273295D01*
X132245434Y-107306780D01*
X132175742Y-107301796D01*
X132171624Y-107300175D01*
X132118917Y-107278343D01*
X132118907Y-107278340D01*
X131973920Y-107249500D01*
X131973918Y-107249500D01*
X131826082Y-107249500D01*
X131826080Y-107249500D01*
X131681092Y-107278340D01*
X131681082Y-107278343D01*
X131544511Y-107334912D01*
X131544498Y-107334919D01*
X131421584Y-107417048D01*
X131421580Y-107417051D01*
X131317051Y-107521580D01*
X131317048Y-107521584D01*
X131234919Y-107644498D01*
X131234912Y-107644511D01*
X131178343Y-107781082D01*
X131178340Y-107781092D01*
X131149500Y-107926079D01*
X131149500Y-107926082D01*
X131149500Y-108073918D01*
X131149500Y-108073920D01*
X131149499Y-108073920D01*
X131178340Y-108218907D01*
X131178343Y-108218917D01*
X131237247Y-108361124D01*
X131236383Y-108361481D01*
X131249500Y-108413840D01*
X131249500Y-109725500D01*
X131229815Y-109792539D01*
X131177011Y-109838294D01*
X131125500Y-109849500D01*
X130839388Y-109849500D01*
X130772349Y-109829815D01*
X130726594Y-109777011D01*
X130716650Y-109707853D01*
X130718814Y-109696553D01*
X130719704Y-109692840D01*
X130719709Y-109692826D01*
X130735104Y-109595621D01*
X130750500Y-109498422D01*
X130750500Y-109301577D01*
X130719709Y-109107173D01*
X130658882Y-108919970D01*
X130585887Y-108776710D01*
X130569524Y-108744595D01*
X130453828Y-108585354D01*
X130314646Y-108446172D01*
X130155405Y-108330476D01*
X129980029Y-108241117D01*
X129873187Y-108206402D01*
X129815512Y-108166964D01*
X129788314Y-108102605D01*
X129800229Y-108033759D01*
X129847473Y-107982283D01*
X129911506Y-107964471D01*
X130053042Y-107964471D01*
X130153036Y-107944580D01*
X130178715Y-107939472D01*
X130297098Y-107890436D01*
X130302525Y-107886809D01*
X130302536Y-107886806D01*
X130302535Y-107886804D01*
X130378192Y-107836251D01*
X130403640Y-107819248D01*
X130754846Y-107468040D01*
X130801142Y-107440294D01*
X130800785Y-107439431D01*
X130854816Y-107417051D01*
X130904153Y-107396615D01*
X130942988Y-107380529D01*
X130942988Y-107380528D01*
X130942995Y-107380526D01*
X131065916Y-107298393D01*
X131170451Y-107193858D01*
X131252584Y-107070937D01*
X131309158Y-106934355D01*
X131325950Y-106849937D01*
X131338000Y-106789362D01*
X131338000Y-106641521D01*
X131309159Y-106496534D01*
X131309158Y-106496533D01*
X131309158Y-106496529D01*
X131292100Y-106455347D01*
X131252587Y-106359953D01*
X131252580Y-106359940D01*
X131170451Y-106237026D01*
X131170448Y-106237022D01*
X131065919Y-106132493D01*
X131065915Y-106132490D01*
X130943001Y-106050361D01*
X130942988Y-106050354D01*
X130806417Y-105993785D01*
X130806407Y-105993782D01*
X130661420Y-105964942D01*
X130661418Y-105964942D01*
X130513582Y-105964942D01*
X130513580Y-105964942D01*
X130368592Y-105993782D01*
X130368582Y-105993785D01*
X130232011Y-106050354D01*
X130231998Y-106050361D01*
X130109084Y-106132490D01*
X130109080Y-106132493D01*
X130004551Y-106237022D01*
X130004548Y-106237026D01*
X129922419Y-106359940D01*
X129922414Y-106359949D01*
X129863511Y-106502156D01*
X129862649Y-106501799D01*
X129858450Y-106508804D01*
X129856050Y-106519839D01*
X129834899Y-106548094D01*
X129755844Y-106627151D01*
X129694522Y-106660637D01*
X129668162Y-106663471D01*
X128621958Y-106663471D01*
X128496290Y-106688468D01*
X128496280Y-106688471D01*
X128447249Y-106708781D01*
X128377910Y-106737501D01*
X128377892Y-106737511D01*
X128271361Y-106808692D01*
X128271354Y-106808698D01*
X127494726Y-107585326D01*
X127494723Y-107585331D01*
X127427906Y-107685331D01*
X127427903Y-107685334D01*
X127427903Y-107685335D01*
X127423539Y-107691864D01*
X127423534Y-107691873D01*
X127374499Y-107810255D01*
X127374497Y-107810261D01*
X127349500Y-107935928D01*
X127349500Y-111064070D01*
X127351966Y-111076465D01*
X127366693Y-111150500D01*
X127374499Y-111189744D01*
X127423535Y-111308127D01*
X127465985Y-111371659D01*
X127494726Y-111414673D01*
X127494727Y-111414674D01*
X128305109Y-112225055D01*
X128338594Y-112286378D01*
X128333610Y-112356069D01*
X128331989Y-112360188D01*
X128278343Y-112489701D01*
X128278340Y-112489711D01*
X128249500Y-112634698D01*
X128249500Y-112634701D01*
X128249500Y-112782537D01*
X128249500Y-112782539D01*
X128249499Y-112782539D01*
X128278340Y-112927526D01*
X128278343Y-112927536D01*
X128334912Y-113064107D01*
X128334919Y-113064120D01*
X128417048Y-113187034D01*
X128417051Y-113187038D01*
X128521580Y-113291567D01*
X128521584Y-113291570D01*
X128644498Y-113373699D01*
X128644511Y-113373706D01*
X128770952Y-113426079D01*
X128781087Y-113430277D01*
X128781091Y-113430277D01*
X128781092Y-113430278D01*
X128926079Y-113459119D01*
X128926082Y-113459119D01*
X129073919Y-113459119D01*
X129101308Y-113453671D01*
X129170899Y-113459898D01*
X129226077Y-113502760D01*
X129249322Y-113568650D01*
X129249500Y-113575288D01*
X129249500Y-113598422D01*
X129280290Y-113792826D01*
X129341117Y-113980029D01*
X129430476Y-114155405D01*
X129546172Y-114314646D01*
X129685354Y-114453828D01*
X129844595Y-114569524D01*
X129901301Y-114598417D01*
X130019970Y-114658882D01*
X130019972Y-114658882D01*
X130019975Y-114658884D01*
X130207174Y-114719709D01*
X130342357Y-114741119D01*
X130370903Y-114745641D01*
X130434037Y-114775570D01*
X130470969Y-114834881D01*
X130469971Y-114904744D01*
X130466067Y-114915565D01*
X130439342Y-114980087D01*
X130439340Y-114980092D01*
X130410500Y-115125079D01*
X130410500Y-115125082D01*
X130410500Y-115272918D01*
X130410500Y-115272920D01*
X130410499Y-115272920D01*
X130439340Y-115417907D01*
X130439343Y-115417917D01*
X130488534Y-115536675D01*
X130496003Y-115606144D01*
X130464728Y-115668623D01*
X130404639Y-115704275D01*
X130335656Y-115702058D01*
X130276244Y-115682754D01*
X130276240Y-115682753D01*
X130114957Y-115657208D01*
X130066287Y-115649500D01*
X129853713Y-115649500D01*
X129805042Y-115657208D01*
X129643760Y-115682753D01*
X129441585Y-115748444D01*
X129252179Y-115844951D01*
X129080213Y-115969890D01*
X128929890Y-116120213D01*
X128804949Y-116292182D01*
X128800484Y-116300946D01*
X128752509Y-116351742D01*
X128684688Y-116368536D01*
X128618553Y-116345998D01*
X128579516Y-116300946D01*
X128575050Y-116292182D01*
X128450109Y-116120213D01*
X128299786Y-115969890D01*
X128127820Y-115844951D01*
X127938414Y-115748444D01*
X127938413Y-115748443D01*
X127938412Y-115748443D01*
X127736243Y-115682754D01*
X127736241Y-115682753D01*
X127736240Y-115682753D01*
X127574957Y-115657208D01*
X127526287Y-115649500D01*
X127313713Y-115649500D01*
X127265042Y-115657208D01*
X127103760Y-115682753D01*
X126901585Y-115748444D01*
X126712179Y-115844951D01*
X126540213Y-115969890D01*
X126389890Y-116120213D01*
X126264949Y-116292182D01*
X126260484Y-116300946D01*
X126212509Y-116351742D01*
X126144688Y-116368536D01*
X126078553Y-116345998D01*
X126039516Y-116300946D01*
X126035050Y-116292182D01*
X125910109Y-116120213D01*
X125759786Y-115969890D01*
X125587820Y-115844951D01*
X125398414Y-115748444D01*
X125398413Y-115748443D01*
X125398412Y-115748443D01*
X125196243Y-115682754D01*
X125196241Y-115682753D01*
X125196240Y-115682753D01*
X125034957Y-115657208D01*
X124986287Y-115649500D01*
X124773713Y-115649500D01*
X124725042Y-115657208D01*
X124563760Y-115682753D01*
X124361585Y-115748444D01*
X124172179Y-115844951D01*
X124000215Y-115969889D01*
X123886285Y-116083819D01*
X123824962Y-116117303D01*
X123755270Y-116112319D01*
X123699337Y-116070447D01*
X123682422Y-116039470D01*
X123633354Y-115907913D01*
X123633350Y-115907906D01*
X123547190Y-115792812D01*
X123547187Y-115792809D01*
X123432093Y-115706649D01*
X123432086Y-115706645D01*
X123297379Y-115656403D01*
X123297372Y-115656401D01*
X123237844Y-115650000D01*
X122590000Y-115650000D01*
X122590000Y-116566988D01*
X122532993Y-116534075D01*
X122405826Y-116500000D01*
X122274174Y-116500000D01*
X122147007Y-116534075D01*
X122090000Y-116566988D01*
X122090000Y-115650000D01*
X121442155Y-115650000D01*
X121382627Y-115656401D01*
X121382620Y-115656403D01*
X121247913Y-115706645D01*
X121247906Y-115706649D01*
X121132812Y-115792809D01*
X121132809Y-115792812D01*
X121046649Y-115907906D01*
X121046646Y-115907912D01*
X121043682Y-115915860D01*
X121001810Y-115971793D01*
X120936346Y-115996210D01*
X120868073Y-115981358D01*
X120818668Y-115931952D01*
X120803500Y-115872526D01*
X120803500Y-113913840D01*
X120816616Y-113861481D01*
X120815753Y-113861124D01*
X120874656Y-113718917D01*
X120874658Y-113718913D01*
X120898627Y-113598417D01*
X120903500Y-113573920D01*
X120903500Y-113426079D01*
X120874659Y-113281092D01*
X120874658Y-113281091D01*
X120874658Y-113281087D01*
X120861574Y-113249500D01*
X120818087Y-113144511D01*
X120818080Y-113144498D01*
X120735951Y-113021584D01*
X120735948Y-113021580D01*
X120631419Y-112917051D01*
X120631415Y-112917048D01*
X120508501Y-112834919D01*
X120508488Y-112834912D01*
X120371917Y-112778343D01*
X120371907Y-112778340D01*
X120226920Y-112749500D01*
X120226918Y-112749500D01*
X120079082Y-112749500D01*
X120079080Y-112749500D01*
X119934092Y-112778340D01*
X119934082Y-112778343D01*
X119797511Y-112834912D01*
X119797498Y-112834919D01*
X119674584Y-112917048D01*
X119674580Y-112917051D01*
X119570051Y-113021580D01*
X119570048Y-113021584D01*
X119487919Y-113144498D01*
X119487912Y-113144511D01*
X119431343Y-113281082D01*
X119431340Y-113281092D01*
X119402500Y-113426079D01*
X119402500Y-113426082D01*
X119402500Y-113573918D01*
X119402500Y-113573920D01*
X119402499Y-113573920D01*
X117958826Y-113573920D01*
X117958826Y-105396867D01*
X118546800Y-105396867D01*
X118546800Y-105595534D01*
X118585554Y-105790362D01*
X118585556Y-105790370D01*
X118661577Y-105973902D01*
X118661582Y-105973911D01*
X118771946Y-106139081D01*
X118771949Y-106139085D01*
X118912415Y-106279551D01*
X118912419Y-106279554D01*
X119077589Y-106389918D01*
X119077595Y-106389921D01*
X119077596Y-106389922D01*
X119261131Y-106465945D01*
X119455966Y-106504700D01*
X119455970Y-106504701D01*
X119455971Y-106504701D01*
X120238830Y-106504701D01*
X120238831Y-106504700D01*
X120433669Y-106465945D01*
X120617204Y-106389922D01*
X120782381Y-106279554D01*
X120922853Y-106139082D01*
X121033221Y-105973905D01*
X121109244Y-105790370D01*
X121148000Y-105595530D01*
X121148000Y-105396872D01*
X121109244Y-105202032D01*
X121033221Y-105018497D01*
X121033220Y-105018496D01*
X121033217Y-105018490D01*
X120922853Y-104853320D01*
X120922850Y-104853316D01*
X120782384Y-104712850D01*
X120782380Y-104712847D01*
X120617210Y-104602483D01*
X120617201Y-104602478D01*
X120433669Y-104526457D01*
X120433661Y-104526455D01*
X120238833Y-104487701D01*
X120238829Y-104487701D01*
X119455971Y-104487701D01*
X119455966Y-104487701D01*
X119261138Y-104526455D01*
X119261130Y-104526457D01*
X119077598Y-104602478D01*
X119077589Y-104602483D01*
X118912419Y-104712847D01*
X118912415Y-104712850D01*
X118771949Y-104853316D01*
X118771946Y-104853320D01*
X118661582Y-105018490D01*
X118661577Y-105018499D01*
X118585556Y-105202031D01*
X118585554Y-105202039D01*
X118546800Y-105396867D01*
X117958826Y-105396867D01*
X117958826Y-96416865D01*
X118546800Y-96416865D01*
X118546800Y-96615532D01*
X118585554Y-96810360D01*
X118585556Y-96810368D01*
X118661577Y-96993900D01*
X118661582Y-96993909D01*
X118771946Y-97159079D01*
X118771949Y-97159083D01*
X118912415Y-97299549D01*
X118912419Y-97299552D01*
X119077589Y-97409916D01*
X119077602Y-97409923D01*
X119116614Y-97426082D01*
X119261131Y-97485943D01*
X119261132Y-97485943D01*
X119265608Y-97487797D01*
X119320012Y-97531638D01*
X119342077Y-97597932D01*
X119332718Y-97649810D01*
X119278340Y-97781091D01*
X119278340Y-97781092D01*
X119249500Y-97926079D01*
X119249500Y-97926082D01*
X119249500Y-98073918D01*
X119249500Y-98073920D01*
X119249499Y-98073920D01*
X119278340Y-98218907D01*
X119278343Y-98218917D01*
X119334912Y-98355488D01*
X119334919Y-98355501D01*
X119417048Y-98478415D01*
X119417051Y-98478419D01*
X119521580Y-98582948D01*
X119521584Y-98582951D01*
X119644498Y-98665080D01*
X119644511Y-98665087D01*
X119781082Y-98721656D01*
X119781087Y-98721658D01*
X119781091Y-98721658D01*
X119781092Y-98721659D01*
X119926079Y-98750500D01*
X119926082Y-98750500D01*
X120073920Y-98750500D01*
X120171462Y-98731096D01*
X120218913Y-98721658D01*
X120355495Y-98665084D01*
X120478416Y-98582951D01*
X120582951Y-98478416D01*
X120665084Y-98355495D01*
X120721658Y-98218913D01*
X120721658Y-98218912D01*
X120723989Y-98213285D01*
X120724852Y-98213642D01*
X120752600Y-98167344D01*
X121696601Y-97223343D01*
X121757922Y-97189860D01*
X121827614Y-97194844D01*
X121883547Y-97236716D01*
X121898841Y-97263574D01*
X121936912Y-97355488D01*
X121936919Y-97355501D01*
X122019048Y-97478415D01*
X122019051Y-97478419D01*
X122123580Y-97582948D01*
X122123584Y-97582951D01*
X122246498Y-97665080D01*
X122246511Y-97665087D01*
X122383082Y-97721656D01*
X122383087Y-97721658D01*
X122383091Y-97721658D01*
X122383092Y-97721659D01*
X122528079Y-97750500D01*
X122528082Y-97750500D01*
X122675920Y-97750500D01*
X122773462Y-97731096D01*
X122820913Y-97721658D01*
X122957495Y-97665084D01*
X122988294Y-97644505D01*
X123085481Y-97579567D01*
X123086439Y-97581001D01*
X123143176Y-97556891D01*
X123212046Y-97568667D01*
X123245235Y-97592370D01*
X123297370Y-97644505D01*
X123312420Y-97659555D01*
X123477589Y-97769918D01*
X123477593Y-97769920D01*
X123477596Y-97769922D01*
X123504563Y-97781092D01*
X123558684Y-97803510D01*
X123613087Y-97847351D01*
X123635152Y-97913645D01*
X123617873Y-97981345D01*
X123598913Y-98005752D01*
X123511881Y-98092784D01*
X123423755Y-98224673D01*
X123423748Y-98224686D01*
X123363047Y-98371234D01*
X123363044Y-98371243D01*
X123332100Y-98526813D01*
X123332100Y-98685452D01*
X123363044Y-98841022D01*
X123363047Y-98841031D01*
X123411805Y-98958744D01*
X123419274Y-99028213D01*
X123411805Y-99053648D01*
X123363047Y-99171360D01*
X123363044Y-99171369D01*
X123332100Y-99326939D01*
X123332100Y-99485578D01*
X123363044Y-99641148D01*
X123363047Y-99641157D01*
X123406550Y-99746183D01*
X123414019Y-99815652D01*
X123406550Y-99841087D01*
X123363047Y-99946112D01*
X123363044Y-99946121D01*
X123332100Y-100101691D01*
X123332100Y-100260330D01*
X123363044Y-100415900D01*
X123363047Y-100415909D01*
X123423748Y-100562457D01*
X123423755Y-100562470D01*
X123511881Y-100694359D01*
X123511884Y-100694363D01*
X123624047Y-100806526D01*
X123624051Y-100806529D01*
X123731161Y-100878098D01*
X123752201Y-100903274D01*
X123774127Y-100927683D01*
X123774494Y-100929948D01*
X123775966Y-100931710D01*
X123780054Y-100964265D01*
X123785303Y-100996653D01*
X123784386Y-100998757D01*
X123784673Y-101001035D01*
X123770512Y-101030634D01*
X123757418Y-101060717D01*
X123755141Y-101062761D01*
X123754519Y-101064063D01*
X123731161Y-101084302D01*
X123692715Y-101109991D01*
X123626038Y-101130869D01*
X123623824Y-101130889D01*
X120722266Y-101130889D01*
X120655227Y-101111204D01*
X120619164Y-101075780D01*
X120582951Y-101021584D01*
X120582948Y-101021580D01*
X120478419Y-100917051D01*
X120478415Y-100917048D01*
X120355501Y-100834919D01*
X120355488Y-100834912D01*
X120218917Y-100778343D01*
X120218907Y-100778340D01*
X120073920Y-100749500D01*
X120073918Y-100749500D01*
X119926082Y-100749500D01*
X119926080Y-100749500D01*
X119781092Y-100778340D01*
X119781082Y-100778343D01*
X119644511Y-100834912D01*
X119644498Y-100834919D01*
X119521584Y-100917048D01*
X119521580Y-100917051D01*
X119417051Y-101021580D01*
X119417048Y-101021584D01*
X119334919Y-101144498D01*
X119334912Y-101144511D01*
X119278343Y-101281082D01*
X119278340Y-101281092D01*
X119249500Y-101426079D01*
X119249500Y-101426082D01*
X119249500Y-101573918D01*
X119249500Y-101573920D01*
X119249499Y-101573920D01*
X119278340Y-101718907D01*
X119278343Y-101718917D01*
X119334912Y-101855488D01*
X119334919Y-101855501D01*
X119417048Y-101978415D01*
X119417051Y-101978419D01*
X119521580Y-102082948D01*
X119521584Y-102082951D01*
X119644498Y-102165080D01*
X119644511Y-102165087D01*
X119748505Y-102208162D01*
X119774445Y-102218907D01*
X119786715Y-102223989D01*
X119786358Y-102224850D01*
X119832656Y-102252602D01*
X119866716Y-102286662D01*
X119866720Y-102286665D01*
X119973255Y-102357850D01*
X119973261Y-102357853D01*
X119973262Y-102357854D01*
X120091645Y-102406890D01*
X120091649Y-102406890D01*
X120091650Y-102406891D01*
X120217317Y-102431889D01*
X120217320Y-102431889D01*
X123208100Y-102431889D01*
X123275139Y-102451574D01*
X123320894Y-102504378D01*
X123332100Y-102555889D01*
X123332100Y-102685460D01*
X123363044Y-102841030D01*
X123363047Y-102841039D01*
X123411805Y-102958752D01*
X123419274Y-103028221D01*
X123411805Y-103053656D01*
X123363047Y-103171368D01*
X123363044Y-103171377D01*
X123332100Y-103326947D01*
X123332100Y-103485586D01*
X123363044Y-103641156D01*
X123363047Y-103641165D01*
X123423748Y-103787713D01*
X123423755Y-103787726D01*
X123511881Y-103919615D01*
X123511884Y-103919619D01*
X123598912Y-104006647D01*
X123632397Y-104067970D01*
X123627413Y-104137662D01*
X123585541Y-104193595D01*
X123558685Y-104208889D01*
X123477596Y-104242478D01*
X123477589Y-104242481D01*
X123312419Y-104352845D01*
X123312415Y-104352848D01*
X123171949Y-104493314D01*
X123171946Y-104493318D01*
X123061582Y-104658488D01*
X123061577Y-104658497D01*
X122985556Y-104842029D01*
X122985554Y-104842037D01*
X122946800Y-105036865D01*
X122946800Y-105235532D01*
X122985554Y-105430360D01*
X122985556Y-105430368D01*
X123061577Y-105613900D01*
X123061582Y-105613909D01*
X123171946Y-105779079D01*
X123171949Y-105779083D01*
X123312415Y-105919549D01*
X123312419Y-105919552D01*
X123477589Y-106029916D01*
X123477595Y-106029919D01*
X123477596Y-106029920D01*
X123661131Y-106105943D01*
X123855966Y-106144698D01*
X123855970Y-106144699D01*
X123855971Y-106144699D01*
X124638830Y-106144699D01*
X124638831Y-106144698D01*
X124833669Y-106105943D01*
X125017204Y-106029920D01*
X125182381Y-105919552D01*
X125322853Y-105779080D01*
X125336464Y-105758710D01*
X125390076Y-105713904D01*
X125439566Y-105703600D01*
X125581727Y-105703600D01*
X125581728Y-105703599D01*
X125766751Y-105666796D01*
X125901549Y-105610960D01*
X125941034Y-105594606D01*
X125941034Y-105594605D01*
X125941041Y-105594603D01*
X126097898Y-105489794D01*
X126231294Y-105356398D01*
X126336103Y-105199541D01*
X126408296Y-105025251D01*
X126445100Y-104840225D01*
X126445100Y-104372175D01*
X126445100Y-104372172D01*
X126445099Y-104372170D01*
X126444138Y-104367337D01*
X126408296Y-104187149D01*
X126390633Y-104144507D01*
X126336106Y-104012865D01*
X126336099Y-104012852D01*
X126231294Y-103856002D01*
X126231291Y-103855998D01*
X126097901Y-103722608D01*
X126097897Y-103722605D01*
X125941047Y-103617800D01*
X125941034Y-103617793D01*
X125766755Y-103545605D01*
X125766743Y-103545602D01*
X125658407Y-103524052D01*
X125658399Y-103524051D01*
X125581725Y-103508800D01*
X125393075Y-103508800D01*
X125393072Y-103508800D01*
X125208056Y-103545602D01*
X125208053Y-103545603D01*
X125208052Y-103545603D01*
X125208049Y-103545604D01*
X125164487Y-103563648D01*
X125114152Y-103584497D01*
X125081513Y-103588005D01*
X125049053Y-103592673D01*
X125046965Y-103591719D01*
X125044682Y-103591965D01*
X125015339Y-103577276D01*
X124985497Y-103563648D01*
X124984255Y-103561716D01*
X124982203Y-103560689D01*
X124965457Y-103532466D01*
X124947723Y-103504870D01*
X124947287Y-103501841D01*
X124946551Y-103500600D01*
X124942700Y-103469935D01*
X124942700Y-103398901D01*
X124962385Y-103331862D01*
X124979019Y-103311220D01*
X125178420Y-103111819D01*
X125239743Y-103078334D01*
X125266101Y-103075500D01*
X126254136Y-103075500D01*
X126321175Y-103095185D01*
X126341817Y-103111819D01*
X127188181Y-103958183D01*
X127221666Y-104019506D01*
X127224500Y-104045864D01*
X127224500Y-104576384D01*
X127254300Y-104726202D01*
X127254302Y-104726208D01*
X127257540Y-104734025D01*
X127265450Y-104800867D01*
X127249500Y-104901582D01*
X127249500Y-105098422D01*
X127280290Y-105292826D01*
X127341117Y-105480029D01*
X127416339Y-105627660D01*
X127430476Y-105655405D01*
X127546172Y-105814646D01*
X127685354Y-105953828D01*
X127844595Y-106069524D01*
X127916070Y-106105942D01*
X128019970Y-106158882D01*
X128019972Y-106158882D01*
X128019975Y-106158884D01*
X128120317Y-106191487D01*
X128207173Y-106219709D01*
X128401578Y-106250500D01*
X128401583Y-106250500D01*
X128598422Y-106250500D01*
X128792826Y-106219709D01*
X128980025Y-106158884D01*
X129155405Y-106069524D01*
X129314646Y-105953828D01*
X129453828Y-105814646D01*
X129569524Y-105655405D01*
X129658884Y-105480025D01*
X129719709Y-105292826D01*
X129726413Y-105250500D01*
X129750500Y-105098422D01*
X129750500Y-104901577D01*
X129719709Y-104707173D01*
X129700510Y-104648087D01*
X129658884Y-104519975D01*
X129658881Y-104519971D01*
X129658881Y-104519968D01*
X129639176Y-104481296D01*
X129626279Y-104412627D01*
X129639176Y-104368704D01*
X129658881Y-104330031D01*
X129658881Y-104330030D01*
X129658884Y-104330025D01*
X129719709Y-104142826D01*
X129727241Y-104095270D01*
X129750500Y-103948422D01*
X129750500Y-103751583D01*
X129746460Y-103726076D01*
X129747316Y-103682486D01*
X129766665Y-103585217D01*
X129766665Y-102073920D01*
X131249499Y-102073920D01*
X131278340Y-102218907D01*
X131278343Y-102218917D01*
X131334912Y-102355488D01*
X131334919Y-102355501D01*
X131417048Y-102478415D01*
X131417051Y-102478419D01*
X131521580Y-102582948D01*
X131521584Y-102582951D01*
X131644498Y-102665080D01*
X131644511Y-102665087D01*
X131781082Y-102721656D01*
X131781087Y-102721658D01*
X131781091Y-102721658D01*
X131781092Y-102721659D01*
X131926079Y-102750500D01*
X131926082Y-102750500D01*
X132073920Y-102750500D01*
X132171462Y-102731096D01*
X132218913Y-102721658D01*
X132355495Y-102665084D01*
X132355496Y-102665083D01*
X132361122Y-102662753D01*
X132361479Y-102663614D01*
X132413840Y-102650500D01*
X133125500Y-102650500D01*
X133192539Y-102670185D01*
X133238294Y-102722989D01*
X133249500Y-102774500D01*
X133249500Y-104073918D01*
X133249500Y-104073920D01*
X133249499Y-104073920D01*
X133278340Y-104218907D01*
X133278343Y-104218917D01*
X133334912Y-104355488D01*
X133334916Y-104355495D01*
X133352423Y-104381696D01*
X133352424Y-104381699D01*
X133417046Y-104478414D01*
X133417052Y-104478421D01*
X134021584Y-105082952D01*
X134021586Y-105082954D01*
X134044730Y-105098417D01*
X134085265Y-105125501D01*
X134144505Y-105165084D01*
X134144507Y-105165085D01*
X134144511Y-105165087D01*
X134233722Y-105202039D01*
X134281087Y-105221658D01*
X134281091Y-105221658D01*
X134281092Y-105221659D01*
X134426079Y-105250500D01*
X134426082Y-105250500D01*
X134573920Y-105250500D01*
X134671462Y-105231096D01*
X134718913Y-105221658D01*
X134796313Y-105189598D01*
X134855491Y-105165086D01*
X134855492Y-105165085D01*
X134855495Y-105165084D01*
X134978416Y-105082952D01*
X135082952Y-104978416D01*
X135147365Y-104882014D01*
X155200000Y-104882014D01*
X155200000Y-105117985D01*
X155230798Y-105351912D01*
X155291871Y-105579837D01*
X155311678Y-105627660D01*
X155311679Y-105627660D01*
X155939340Y-105000000D01*
X155939340Y-104999999D01*
X155875322Y-104935981D01*
X156350000Y-104935981D01*
X156350000Y-105064019D01*
X156374979Y-105189598D01*
X156423978Y-105307890D01*
X156495112Y-105414351D01*
X156585649Y-105504888D01*
X156692110Y-105576022D01*
X156810402Y-105625021D01*
X156935981Y-105650000D01*
X157064019Y-105650000D01*
X157189598Y-105625021D01*
X157307890Y-105576022D01*
X157414351Y-105504888D01*
X157504888Y-105414351D01*
X157576022Y-105307890D01*
X157625021Y-105189598D01*
X157650000Y-105064019D01*
X157650000Y-104999999D01*
X158060660Y-104999999D01*
X158060660Y-105000000D01*
X158688319Y-105627660D01*
X158708130Y-105579834D01*
X158769200Y-105351914D01*
X158799999Y-105117985D01*
X158800000Y-105117971D01*
X158800000Y-104882028D01*
X158799999Y-104882014D01*
X158769201Y-104648087D01*
X158708129Y-104420165D01*
X158708125Y-104420152D01*
X158688320Y-104372338D01*
X158688319Y-104372338D01*
X158060660Y-104999999D01*
X157650000Y-104999999D01*
X157650000Y-104935981D01*
X157625021Y-104810402D01*
X157576022Y-104692110D01*
X157504888Y-104585649D01*
X157414351Y-104495112D01*
X157307890Y-104423978D01*
X157189598Y-104374979D01*
X157064019Y-104350000D01*
X156935981Y-104350000D01*
X156810402Y-104374979D01*
X156692110Y-104423978D01*
X156585649Y-104495112D01*
X156495112Y-104585649D01*
X156423978Y-104692110D01*
X156374979Y-104810402D01*
X156350000Y-104935981D01*
X155875322Y-104935981D01*
X155311679Y-104372338D01*
X155291872Y-104420159D01*
X155291868Y-104420170D01*
X155230798Y-104648087D01*
X155200000Y-104882014D01*
X135147365Y-104882014D01*
X135165084Y-104855495D01*
X135221658Y-104718913D01*
X135248167Y-104585649D01*
X135250500Y-104573920D01*
X135250500Y-104426082D01*
X135250499Y-104426081D01*
X135238815Y-104367337D01*
X135235933Y-104352848D01*
X135221660Y-104281093D01*
X135221657Y-104281084D01*
X135165086Y-104144509D01*
X135165085Y-104144507D01*
X135161147Y-104138614D01*
X135132186Y-104095270D01*
X135117921Y-104073920D01*
X135082956Y-104021589D01*
X135082952Y-104021584D01*
X134786819Y-103725451D01*
X134753334Y-103664128D01*
X134750500Y-103637770D01*
X134750500Y-103311679D01*
X156372338Y-103311679D01*
X157000000Y-103939340D01*
X157000001Y-103939340D01*
X157627660Y-103311679D01*
X157627660Y-103311678D01*
X157579837Y-103291871D01*
X157351912Y-103230798D01*
X157117985Y-103200000D01*
X156882014Y-103200000D01*
X156648087Y-103230798D01*
X156420170Y-103291868D01*
X156420159Y-103291872D01*
X156372338Y-103311679D01*
X134750500Y-103311679D01*
X134750500Y-102681249D01*
X134770185Y-102614210D01*
X134805613Y-102578145D01*
X134822445Y-102566899D01*
X134891534Y-102520734D01*
X134914669Y-102505277D01*
X135210358Y-102209585D01*
X135256658Y-102181841D01*
X135256299Y-102180975D01*
X135309842Y-102158796D01*
X135398510Y-102122069D01*
X135521431Y-102039936D01*
X135625966Y-101935401D01*
X135708099Y-101812480D01*
X135759528Y-101688319D01*
X156372338Y-101688319D01*
X156372338Y-101688320D01*
X156420152Y-101708125D01*
X156420165Y-101708129D01*
X156648087Y-101769201D01*
X156882014Y-101799999D01*
X156882029Y-101800000D01*
X157117971Y-101800000D01*
X157117985Y-101799999D01*
X157351914Y-101769200D01*
X157579834Y-101708130D01*
X157627660Y-101688319D01*
X157000001Y-101060660D01*
X157000000Y-101060660D01*
X156372338Y-101688319D01*
X135759528Y-101688319D01*
X135764673Y-101675898D01*
X135793515Y-101530903D01*
X135793515Y-101383067D01*
X135793515Y-101383064D01*
X135764674Y-101238077D01*
X135764673Y-101238076D01*
X135764673Y-101238072D01*
X135725919Y-101144511D01*
X135708102Y-101101496D01*
X135708095Y-101101483D01*
X135625966Y-100978569D01*
X135625963Y-100978565D01*
X135521434Y-100874036D01*
X135521430Y-100874033D01*
X135398516Y-100791904D01*
X135398503Y-100791897D01*
X135261932Y-100735328D01*
X135261922Y-100735325D01*
X135116935Y-100706485D01*
X135116933Y-100706485D01*
X134969097Y-100706485D01*
X134969095Y-100706485D01*
X134824107Y-100735325D01*
X134824097Y-100735328D01*
X134687526Y-100791897D01*
X134687513Y-100791904D01*
X134564599Y-100874033D01*
X134564595Y-100874036D01*
X134460066Y-100978565D01*
X134460063Y-100978569D01*
X134377934Y-101101483D01*
X134377927Y-101101496D01*
X134319026Y-101243699D01*
X134318164Y-101243342D01*
X134313965Y-101250348D01*
X134311565Y-101261384D01*
X134290415Y-101289638D01*
X134266875Y-101313179D01*
X134205553Y-101346666D01*
X134179192Y-101349500D01*
X133346777Y-101349500D01*
X133279738Y-101329815D01*
X133233983Y-101277011D01*
X133224039Y-101207853D01*
X133225160Y-101201308D01*
X133250500Y-101073920D01*
X133250500Y-99882014D01*
X155200000Y-99882014D01*
X155200000Y-100117985D01*
X155230798Y-100351912D01*
X155291871Y-100579837D01*
X155311678Y-100627660D01*
X155311679Y-100627660D01*
X155939340Y-100000000D01*
X155939340Y-99999999D01*
X155875322Y-99935981D01*
X156350000Y-99935981D01*
X156350000Y-100064019D01*
X156374979Y-100189598D01*
X156423978Y-100307890D01*
X156495112Y-100414351D01*
X156585649Y-100504888D01*
X156692110Y-100576022D01*
X156810402Y-100625021D01*
X156935981Y-100650000D01*
X157064019Y-100650000D01*
X157189598Y-100625021D01*
X157307890Y-100576022D01*
X157414351Y-100504888D01*
X157504888Y-100414351D01*
X157576022Y-100307890D01*
X157625021Y-100189598D01*
X157650000Y-100064019D01*
X157650000Y-99999999D01*
X158060660Y-99999999D01*
X158060660Y-100000000D01*
X158688319Y-100627660D01*
X158708130Y-100579834D01*
X158769200Y-100351914D01*
X158799999Y-100117985D01*
X158800000Y-100117971D01*
X158800000Y-99882028D01*
X158799999Y-99882014D01*
X158769201Y-99648087D01*
X158708129Y-99420165D01*
X158708125Y-99420152D01*
X158688320Y-99372338D01*
X158688319Y-99372338D01*
X158060660Y-99999999D01*
X157650000Y-99999999D01*
X157650000Y-99935981D01*
X157625021Y-99810402D01*
X157576022Y-99692110D01*
X157504888Y-99585649D01*
X157414351Y-99495112D01*
X157307890Y-99423978D01*
X157189598Y-99374979D01*
X157064019Y-99350000D01*
X156935981Y-99350000D01*
X156810402Y-99374979D01*
X156692110Y-99423978D01*
X156585649Y-99495112D01*
X156495112Y-99585649D01*
X156423978Y-99692110D01*
X156374979Y-99810402D01*
X156350000Y-99935981D01*
X155875322Y-99935981D01*
X155311679Y-99372338D01*
X155291872Y-99420159D01*
X155291868Y-99420170D01*
X155230798Y-99648087D01*
X155200000Y-99882014D01*
X133250500Y-99882014D01*
X133250500Y-99426079D01*
X133221659Y-99281092D01*
X133221658Y-99281091D01*
X133221658Y-99281087D01*
X133209375Y-99251432D01*
X133165087Y-99144511D01*
X133165080Y-99144498D01*
X133082951Y-99021584D01*
X133082948Y-99021580D01*
X132978419Y-98917051D01*
X132978415Y-98917048D01*
X132855501Y-98834919D01*
X132855488Y-98834912D01*
X132718917Y-98778343D01*
X132718907Y-98778340D01*
X132573920Y-98749500D01*
X132573918Y-98749500D01*
X132426082Y-98749500D01*
X132426080Y-98749500D01*
X132281092Y-98778340D01*
X132281082Y-98778343D01*
X132144511Y-98834912D01*
X132144498Y-98834919D01*
X132021584Y-98917048D01*
X132021580Y-98917051D01*
X131917051Y-99021580D01*
X131917048Y-99021584D01*
X131834919Y-99144498D01*
X131834912Y-99144511D01*
X131778343Y-99281082D01*
X131778340Y-99281092D01*
X131749500Y-99426079D01*
X131749500Y-99426082D01*
X131749500Y-101073918D01*
X131749500Y-101073920D01*
X131749499Y-101073920D01*
X131769618Y-101175058D01*
X131763391Y-101244650D01*
X131720528Y-101299827D01*
X131695456Y-101313810D01*
X131644510Y-101334913D01*
X131644498Y-101334919D01*
X131521584Y-101417048D01*
X131521580Y-101417051D01*
X131417051Y-101521580D01*
X131417048Y-101521584D01*
X131334919Y-101644498D01*
X131334912Y-101644511D01*
X131278343Y-101781082D01*
X131278340Y-101781092D01*
X131249500Y-101926079D01*
X131249500Y-101926082D01*
X131249500Y-102073918D01*
X131249500Y-102073920D01*
X131249499Y-102073920D01*
X129766665Y-102073920D01*
X129766665Y-101869884D01*
X129786350Y-101802845D01*
X129839154Y-101757090D01*
X129908312Y-101747146D01*
X129914861Y-101748268D01*
X129926079Y-101750500D01*
X129926082Y-101750500D01*
X130073920Y-101750500D01*
X130171462Y-101731096D01*
X130218913Y-101721658D01*
X130355495Y-101665084D01*
X130478416Y-101582951D01*
X130582951Y-101478416D01*
X130665084Y-101355495D01*
X130721658Y-101218913D01*
X130736459Y-101144505D01*
X130750500Y-101073920D01*
X130750500Y-100926079D01*
X130721659Y-100781092D01*
X130721658Y-100781091D01*
X130721658Y-100781087D01*
X130665084Y-100644505D01*
X130665083Y-100644504D01*
X130662753Y-100638878D01*
X130663614Y-100638520D01*
X130650500Y-100586160D01*
X130650500Y-99913840D01*
X130663616Y-99861481D01*
X130662753Y-99861124D01*
X130710362Y-99746183D01*
X130721658Y-99718913D01*
X130748703Y-99582952D01*
X130750500Y-99573920D01*
X130750500Y-99426079D01*
X130721659Y-99281092D01*
X130721658Y-99281091D01*
X130721658Y-99281087D01*
X130709375Y-99251432D01*
X130665087Y-99144511D01*
X130665080Y-99144498D01*
X130582951Y-99021584D01*
X130582948Y-99021580D01*
X130478419Y-98917051D01*
X130478415Y-98917048D01*
X130355501Y-98834919D01*
X130355488Y-98834912D01*
X130218917Y-98778343D01*
X130218907Y-98778340D01*
X130073920Y-98749500D01*
X130073918Y-98749500D01*
X129926082Y-98749500D01*
X129926080Y-98749500D01*
X129781092Y-98778340D01*
X129781082Y-98778343D01*
X129644511Y-98834912D01*
X129644498Y-98834919D01*
X129521584Y-98917048D01*
X129521580Y-98917051D01*
X129417051Y-99021580D01*
X129417048Y-99021584D01*
X129334919Y-99144498D01*
X129334914Y-99144508D01*
X129290625Y-99251432D01*
X129246784Y-99305835D01*
X129180490Y-99327900D01*
X129112790Y-99310621D01*
X129088383Y-99291660D01*
X128873366Y-99076643D01*
X128873362Y-99076640D01*
X128746354Y-98991775D01*
X128746345Y-98991770D01*
X128605216Y-98933313D01*
X128605208Y-98933311D01*
X128455395Y-98903511D01*
X128455391Y-98903511D01*
X125232713Y-98903511D01*
X125165674Y-98883826D01*
X125145032Y-98867192D01*
X124979019Y-98701179D01*
X124945534Y-98639856D01*
X124942700Y-98613498D01*
X124942700Y-98526817D01*
X124942699Y-98526813D01*
X124916148Y-98393330D01*
X124952504Y-98378272D01*
X125009665Y-98321111D01*
X125040600Y-98246426D01*
X125040600Y-98165588D01*
X125009665Y-98090903D01*
X125003293Y-98084531D01*
X125057510Y-98088409D01*
X125101857Y-98116910D01*
X125556919Y-98571974D01*
X125611271Y-98440758D01*
X125611273Y-98440750D01*
X125642199Y-98285277D01*
X125642200Y-98285275D01*
X125642200Y-98126738D01*
X125642199Y-98126736D01*
X125624329Y-98036895D01*
X125630556Y-97967304D01*
X125673419Y-97912126D01*
X125685535Y-97905372D01*
X125685203Y-97904797D01*
X125720010Y-97884701D01*
X125813257Y-97830865D01*
X125912065Y-97732057D01*
X125981933Y-97611042D01*
X125991880Y-97573920D01*
X141749499Y-97573920D01*
X141778340Y-97718907D01*
X141778343Y-97718917D01*
X141834912Y-97855488D01*
X141834919Y-97855501D01*
X141885439Y-97931109D01*
X141891411Y-97950182D01*
X141901916Y-97967186D01*
X141901637Y-97982842D01*
X141906317Y-97997787D01*
X141901029Y-98017061D01*
X141900674Y-98037044D01*
X141888652Y-98062174D01*
X141887832Y-98065167D01*
X141885444Y-98068883D01*
X141880384Y-98076457D01*
X141880379Y-98076465D01*
X141834919Y-98144499D01*
X141834912Y-98144511D01*
X141778343Y-98281082D01*
X141778340Y-98281092D01*
X141749500Y-98426079D01*
X141749500Y-98426082D01*
X141749500Y-98573918D01*
X141749500Y-98573920D01*
X141749499Y-98573920D01*
X141778340Y-98718907D01*
X141778343Y-98718917D01*
X141834913Y-98855489D01*
X141834914Y-98855491D01*
X141834916Y-98855495D01*
X141847613Y-98874498D01*
X141847614Y-98874500D01*
X141917046Y-98978414D01*
X141917052Y-98978421D01*
X142521584Y-99582952D01*
X142521586Y-99582954D01*
X142525620Y-99585649D01*
X142575773Y-99619159D01*
X142644505Y-99665084D01*
X142644506Y-99665084D01*
X142644507Y-99665085D01*
X142781082Y-99721656D01*
X142781087Y-99721658D01*
X142781091Y-99721658D01*
X142781092Y-99721659D01*
X142926079Y-99750500D01*
X142926082Y-99750500D01*
X144727920Y-99750500D01*
X144825462Y-99731096D01*
X144872913Y-99721658D01*
X145009495Y-99665084D01*
X145132416Y-99582951D01*
X145236951Y-99478416D01*
X145319084Y-99355495D01*
X145375658Y-99218913D01*
X145390458Y-99144511D01*
X145404500Y-99073920D01*
X145404500Y-98926079D01*
X145375659Y-98781092D01*
X145375658Y-98781091D01*
X145375658Y-98781087D01*
X145374520Y-98778340D01*
X145319087Y-98644511D01*
X145319080Y-98644498D01*
X145236951Y-98521584D01*
X145236948Y-98521580D01*
X145147834Y-98432466D01*
X145114349Y-98371143D01*
X145118602Y-98311679D01*
X156372338Y-98311679D01*
X157000000Y-98939340D01*
X157000001Y-98939340D01*
X157627660Y-98311679D01*
X157627660Y-98311678D01*
X157579837Y-98291871D01*
X157351912Y-98230798D01*
X157117985Y-98200000D01*
X156882014Y-98200000D01*
X156648087Y-98230798D01*
X156420170Y-98291868D01*
X156420159Y-98291872D01*
X156372338Y-98311679D01*
X145118602Y-98311679D01*
X145119333Y-98301451D01*
X145161205Y-98245518D01*
X145211324Y-98223168D01*
X145214460Y-98222543D01*
X145218913Y-98221658D01*
X145355495Y-98165084D01*
X145478416Y-98082951D01*
X145582951Y-97978416D01*
X145665084Y-97855495D01*
X145721658Y-97718913D01*
X145743115Y-97611044D01*
X145750500Y-97573920D01*
X145750500Y-97426079D01*
X145721659Y-97281092D01*
X145721658Y-97281091D01*
X145721658Y-97281087D01*
X145695905Y-97218913D01*
X145665087Y-97144511D01*
X145665080Y-97144498D01*
X145582951Y-97021584D01*
X145582948Y-97021580D01*
X145478419Y-96917051D01*
X145478415Y-96917048D01*
X145355501Y-96834919D01*
X145355488Y-96834912D01*
X145218917Y-96778343D01*
X145218907Y-96778340D01*
X145073920Y-96749500D01*
X145073918Y-96749500D01*
X142426082Y-96749500D01*
X142426080Y-96749500D01*
X142281092Y-96778340D01*
X142281082Y-96778343D01*
X142144511Y-96834912D01*
X142144498Y-96834919D01*
X142021584Y-96917048D01*
X142021580Y-96917051D01*
X141917051Y-97021580D01*
X141917048Y-97021584D01*
X141834919Y-97144498D01*
X141834912Y-97144511D01*
X141778343Y-97281082D01*
X141778340Y-97281092D01*
X141749500Y-97426079D01*
X141749500Y-97426082D01*
X141749500Y-97573918D01*
X141749500Y-97573920D01*
X141749499Y-97573920D01*
X125991880Y-97573920D01*
X126018100Y-97476068D01*
X126018100Y-97336332D01*
X125981933Y-97201358D01*
X125981932Y-97201357D01*
X125981932Y-97201355D01*
X125981931Y-97201354D01*
X125961175Y-97165404D01*
X125912065Y-97080343D01*
X125813257Y-96981535D01*
X125777303Y-96960777D01*
X125692245Y-96911668D01*
X125692238Y-96911665D01*
X125639905Y-96897642D01*
X125580245Y-96861277D01*
X125549717Y-96798429D01*
X125548000Y-96777868D01*
X125548000Y-96776871D01*
X125547999Y-96776867D01*
X125530943Y-96691119D01*
X125509244Y-96582032D01*
X125433221Y-96398497D01*
X125433220Y-96398496D01*
X125433217Y-96398490D01*
X125322853Y-96233320D01*
X125322850Y-96233316D01*
X125182384Y-96092850D01*
X125182380Y-96092847D01*
X125017210Y-95982483D01*
X125017201Y-95982478D01*
X124833669Y-95906457D01*
X124833661Y-95906455D01*
X124638833Y-95867701D01*
X124638829Y-95867701D01*
X123855971Y-95867701D01*
X123855966Y-95867701D01*
X123798691Y-95879094D01*
X123729099Y-95872867D01*
X123673922Y-95830003D01*
X123650678Y-95764114D01*
X123650500Y-95757477D01*
X123650500Y-94813840D01*
X123663616Y-94761481D01*
X123662753Y-94761124D01*
X123721656Y-94618917D01*
X123721658Y-94618913D01*
X123750500Y-94473918D01*
X123750500Y-94366669D01*
X123770185Y-94299630D01*
X123822989Y-94253875D01*
X123892147Y-94243931D01*
X123898692Y-94245052D01*
X123926080Y-94250500D01*
X123926082Y-94250500D01*
X124073919Y-94250500D01*
X124163629Y-94232655D01*
X124218913Y-94221658D01*
X124218913Y-94221657D01*
X124222969Y-94220851D01*
X124230876Y-94221558D01*
X124238315Y-94218784D01*
X124265178Y-94224627D01*
X124292560Y-94227078D01*
X124300569Y-94232326D01*
X124306588Y-94233636D01*
X124334842Y-94254787D01*
X124432600Y-94352545D01*
X124460351Y-94398844D01*
X124461213Y-94398487D01*
X124520114Y-94540689D01*
X124520121Y-94540702D01*
X124602250Y-94663616D01*
X124602253Y-94663620D01*
X124706782Y-94768149D01*
X124706786Y-94768152D01*
X124829700Y-94850281D01*
X124829713Y-94850288D01*
X124966284Y-94906857D01*
X124966289Y-94906859D01*
X124966293Y-94906859D01*
X124966294Y-94906860D01*
X125111281Y-94935701D01*
X125111284Y-94935701D01*
X125259122Y-94935701D01*
X125373620Y-94912925D01*
X125443211Y-94919152D01*
X125485493Y-94946861D01*
X125521580Y-94982948D01*
X125521584Y-94982951D01*
X125644498Y-95065080D01*
X125644511Y-95065087D01*
X125786715Y-95123989D01*
X125786357Y-95124853D01*
X125832655Y-95152601D01*
X126313181Y-95633127D01*
X126346666Y-95694450D01*
X126349500Y-95720808D01*
X126349500Y-96203361D01*
X126336385Y-96255721D01*
X126337247Y-96256079D01*
X126278342Y-96398287D01*
X126278340Y-96398293D01*
X126249500Y-96543280D01*
X126249500Y-96543283D01*
X126249500Y-96691119D01*
X126249500Y-96691121D01*
X126249499Y-96691121D01*
X126278340Y-96836108D01*
X126278343Y-96836118D01*
X126334912Y-96972689D01*
X126334919Y-96972702D01*
X126417048Y-97095616D01*
X126417051Y-97095620D01*
X126521580Y-97200149D01*
X126521584Y-97200152D01*
X126644498Y-97282281D01*
X126644511Y-97282288D01*
X126781082Y-97338857D01*
X126781087Y-97338859D01*
X126781091Y-97338859D01*
X126781092Y-97338860D01*
X126926079Y-97367701D01*
X126926082Y-97367701D01*
X127073920Y-97367701D01*
X127171462Y-97348297D01*
X127218913Y-97338859D01*
X127355495Y-97282285D01*
X127478416Y-97200152D01*
X127582951Y-97095617D01*
X127665084Y-96972696D01*
X127721658Y-96836114D01*
X127733442Y-96776872D01*
X127750500Y-96691121D01*
X127750500Y-96543280D01*
X127721659Y-96398293D01*
X127721658Y-96398292D01*
X127721658Y-96398288D01*
X127665084Y-96261706D01*
X127665083Y-96261705D01*
X127662753Y-96256079D01*
X127663614Y-96255721D01*
X127650500Y-96203361D01*
X127650500Y-95335928D01*
X127625502Y-95210261D01*
X127625501Y-95210260D01*
X127625501Y-95210256D01*
X127600749Y-95150500D01*
X127576466Y-95091874D01*
X127505277Y-94985331D01*
X127505272Y-94985325D01*
X126752601Y-94232655D01*
X126724853Y-94186357D01*
X126723989Y-94186715D01*
X126665087Y-94044511D01*
X126665080Y-94044498D01*
X126582951Y-93921584D01*
X126582948Y-93921580D01*
X126478419Y-93817051D01*
X126478415Y-93817048D01*
X126355501Y-93734919D01*
X126355488Y-93734912D01*
X126218917Y-93678343D01*
X126218907Y-93678340D01*
X126073920Y-93649500D01*
X126073918Y-93649500D01*
X125926082Y-93649500D01*
X125926077Y-93649500D01*
X125811580Y-93672275D01*
X125741988Y-93666048D01*
X125699708Y-93638339D01*
X125663621Y-93602252D01*
X125663617Y-93602249D01*
X125540703Y-93520120D01*
X125540690Y-93520113D01*
X125398488Y-93461212D01*
X125398845Y-93460350D01*
X125391840Y-93456151D01*
X125380800Y-93453750D01*
X125352546Y-93432599D01*
X125224297Y-93304350D01*
X125169947Y-93250000D01*
X148405138Y-93250000D01*
X148413430Y-93291690D01*
X148413430Y-93291692D01*
X148488807Y-93473671D01*
X148488814Y-93473684D01*
X148598248Y-93637462D01*
X148598251Y-93637466D01*
X148737533Y-93776748D01*
X148737537Y-93776751D01*
X148901315Y-93886185D01*
X148901328Y-93886192D01*
X149083308Y-93961569D01*
X149125000Y-93969862D01*
X149125000Y-93250000D01*
X148405138Y-93250000D01*
X125169947Y-93250000D01*
X124914675Y-92994727D01*
X124914674Y-92994726D01*
X124912763Y-92993449D01*
X124808128Y-92923535D01*
X124808125Y-92923533D01*
X124808124Y-92923533D01*
X124796148Y-92918572D01*
X124741746Y-92874730D01*
X124719682Y-92808436D01*
X124736962Y-92740737D01*
X124785150Y-92694654D01*
X125004462Y-92577429D01*
X125004480Y-92577418D01*
X125306736Y-92375457D01*
X125306750Y-92375447D01*
X125534765Y-92188320D01*
X125534766Y-92188319D01*
X124040698Y-90694251D01*
X124142330Y-90620412D01*
X124320412Y-90442330D01*
X124394251Y-90340698D01*
X125888319Y-91834766D01*
X125888320Y-91834765D01*
X126075447Y-91606750D01*
X126075457Y-91606736D01*
X126277418Y-91304480D01*
X126277429Y-91304462D01*
X126448790Y-90983869D01*
X126448792Y-90983864D01*
X126587913Y-90647997D01*
X126633662Y-90497185D01*
X140192735Y-90497185D01*
X140221576Y-90642172D01*
X140221579Y-90642182D01*
X140278148Y-90778753D01*
X140278155Y-90778766D01*
X140360284Y-90901680D01*
X140360287Y-90901684D01*
X140464816Y-91006213D01*
X140464820Y-91006216D01*
X140587734Y-91088345D01*
X140587747Y-91088352D01*
X140724318Y-91144921D01*
X140724323Y-91144923D01*
X140724327Y-91144923D01*
X140724328Y-91144924D01*
X140869315Y-91173765D01*
X140869318Y-91173765D01*
X141017156Y-91173765D01*
X141114698Y-91154361D01*
X141162149Y-91144923D01*
X141289103Y-91092337D01*
X141298724Y-91088352D01*
X141298724Y-91088351D01*
X141298731Y-91088349D01*
X141421652Y-91006216D01*
X141526187Y-90901681D01*
X141608320Y-90778760D01*
X141612594Y-90768443D01*
X141641443Y-90698794D01*
X141664894Y-90642178D01*
X141664894Y-90642177D01*
X141667225Y-90636550D01*
X141668088Y-90636907D01*
X141695836Y-90590609D01*
X142076445Y-90210000D01*
X148405138Y-90210000D01*
X149125000Y-90210000D01*
X149125000Y-89440000D01*
X148405138Y-89440000D01*
X148413430Y-89481690D01*
X148413430Y-89481692D01*
X148488807Y-89663671D01*
X148488814Y-89663684D01*
X148550571Y-89756109D01*
X148571449Y-89822786D01*
X148552965Y-89890167D01*
X148550571Y-89893891D01*
X148488814Y-89986315D01*
X148488807Y-89986328D01*
X148413430Y-90168307D01*
X148413430Y-90168309D01*
X148405138Y-90210000D01*
X142076445Y-90210000D01*
X142307994Y-89978451D01*
X142967460Y-89318988D01*
X143106271Y-89180176D01*
X143106271Y-89180175D01*
X143106276Y-89180171D01*
X143177270Y-89073920D01*
X143177464Y-89073630D01*
X143188724Y-89046446D01*
X143226501Y-88955245D01*
X143232302Y-88926082D01*
X143233412Y-88920502D01*
X143233412Y-88920499D01*
X143251500Y-88829570D01*
X143251500Y-87036931D01*
X143251500Y-87036928D01*
X143226502Y-86911261D01*
X143226501Y-86911260D01*
X143226501Y-86911256D01*
X143177465Y-86792873D01*
X143177463Y-86792870D01*
X143158878Y-86765055D01*
X143158873Y-86765049D01*
X143156613Y-86761666D01*
X143106276Y-86686330D01*
X143072595Y-86652649D01*
X143067654Y-86646212D01*
X143061497Y-86630294D01*
X143050588Y-86612092D01*
X143049724Y-86612450D01*
X143033765Y-86573920D01*
X145749499Y-86573920D01*
X145778340Y-86718907D01*
X145778343Y-86718917D01*
X145834912Y-86855488D01*
X145834919Y-86855501D01*
X145917048Y-86978415D01*
X145917051Y-86978419D01*
X146021580Y-87082948D01*
X146021584Y-87082951D01*
X146144498Y-87165080D01*
X146144511Y-87165087D01*
X146212523Y-87193258D01*
X146278605Y-87220630D01*
X146286715Y-87223989D01*
X146286357Y-87224853D01*
X146332655Y-87252601D01*
X147247398Y-88167344D01*
X147275149Y-88213643D01*
X147276011Y-88213286D01*
X147334912Y-88355488D01*
X147334919Y-88355501D01*
X147417048Y-88478415D01*
X147417051Y-88478419D01*
X147521580Y-88582948D01*
X147521584Y-88582951D01*
X147644498Y-88665080D01*
X147644511Y-88665087D01*
X147767620Y-88716080D01*
X147781087Y-88721658D01*
X147781091Y-88721658D01*
X147781092Y-88721659D01*
X147926079Y-88750500D01*
X147926082Y-88750500D01*
X148073920Y-88750500D01*
X148171462Y-88731096D01*
X148218913Y-88721658D01*
X148265466Y-88702374D01*
X148334934Y-88694906D01*
X148397413Y-88726181D01*
X148433066Y-88786269D01*
X148430573Y-88856095D01*
X148427480Y-88864387D01*
X148413431Y-88898305D01*
X148413430Y-88898307D01*
X148405138Y-88940000D01*
X149165382Y-88940000D01*
X149114936Y-88990446D01*
X149072149Y-89064555D01*
X149050000Y-89147213D01*
X149050000Y-89232787D01*
X149072149Y-89315445D01*
X149114936Y-89389554D01*
X149175446Y-89450064D01*
X149249555Y-89492851D01*
X149332213Y-89515000D01*
X149417787Y-89515000D01*
X149500445Y-89492851D01*
X149574554Y-89450064D01*
X149625000Y-89399618D01*
X149625000Y-90250382D01*
X149574554Y-90199936D01*
X149500445Y-90157149D01*
X149417787Y-90135000D01*
X149332213Y-90135000D01*
X149249555Y-90157149D01*
X149175446Y-90199936D01*
X149114936Y-90260446D01*
X149072149Y-90334555D01*
X149050000Y-90417213D01*
X149050000Y-90502787D01*
X149072149Y-90585445D01*
X149114936Y-90659554D01*
X149165382Y-90710000D01*
X148405138Y-90710000D01*
X148413430Y-90751690D01*
X148413430Y-90751692D01*
X148488807Y-90933671D01*
X148488814Y-90933684D01*
X148550270Y-91025659D01*
X148571148Y-91092337D01*
X148552663Y-91159717D01*
X148550271Y-91163440D01*
X148488370Y-91256082D01*
X148488364Y-91256093D01*
X148412950Y-91438160D01*
X148412947Y-91438170D01*
X148374500Y-91631456D01*
X148374500Y-91631459D01*
X148374500Y-91828541D01*
X148374500Y-91828543D01*
X148374499Y-91828543D01*
X148412947Y-92021829D01*
X148412950Y-92021839D01*
X148488365Y-92203907D01*
X148488368Y-92203914D01*
X148528885Y-92264552D01*
X148550271Y-92296559D01*
X148571148Y-92363236D01*
X148552663Y-92430616D01*
X148550271Y-92434339D01*
X148488809Y-92526325D01*
X148413430Y-92708307D01*
X148413430Y-92708309D01*
X148405138Y-92750000D01*
X149165382Y-92750000D01*
X149114936Y-92800446D01*
X149072149Y-92874555D01*
X149050000Y-92957213D01*
X149050000Y-93042787D01*
X149072149Y-93125445D01*
X149114936Y-93199554D01*
X149175446Y-93260064D01*
X149249555Y-93302851D01*
X149332213Y-93325000D01*
X149417787Y-93325000D01*
X149500445Y-93302851D01*
X149574554Y-93260064D01*
X149625000Y-93209618D01*
X149625000Y-93969862D01*
X149666690Y-93961569D01*
X149666692Y-93961569D01*
X149848673Y-93886191D01*
X149848676Y-93886189D01*
X149940657Y-93824729D01*
X150007334Y-93803850D01*
X150074715Y-93822334D01*
X150078440Y-93824728D01*
X150171079Y-93886628D01*
X150171092Y-93886635D01*
X150255468Y-93921584D01*
X150353165Y-93962051D01*
X150353169Y-93962051D01*
X150353170Y-93962052D01*
X150546456Y-94000500D01*
X150546459Y-94000500D01*
X150743543Y-94000500D01*
X150897567Y-93969862D01*
X150936835Y-93962051D01*
X151118914Y-93886632D01*
X151282782Y-93777139D01*
X151422139Y-93637782D01*
X151531632Y-93473914D01*
X151607051Y-93291835D01*
X151636357Y-93144505D01*
X151645500Y-93098543D01*
X151645500Y-92901456D01*
X151607052Y-92708170D01*
X151607051Y-92708169D01*
X151607051Y-92708165D01*
X151601455Y-92694654D01*
X151531635Y-92526092D01*
X151531633Y-92526088D01*
X151531632Y-92526086D01*
X151470029Y-92433891D01*
X151449151Y-92367214D01*
X151467635Y-92299834D01*
X151470029Y-92296109D01*
X151482872Y-92276887D01*
X151531632Y-92203914D01*
X151607051Y-92021835D01*
X151645500Y-91828541D01*
X151645500Y-91631459D01*
X151645500Y-91631456D01*
X151607052Y-91438170D01*
X151607051Y-91438169D01*
X151607051Y-91438165D01*
X151607049Y-91438160D01*
X151531635Y-91256092D01*
X151531633Y-91256088D01*
X151531632Y-91256086D01*
X151531628Y-91256080D01*
X151470029Y-91163891D01*
X151449151Y-91097214D01*
X151467635Y-91029834D01*
X151470029Y-91026109D01*
X151498256Y-90983864D01*
X151531632Y-90933914D01*
X151607051Y-90751835D01*
X151628863Y-90642182D01*
X151645500Y-90558543D01*
X151645500Y-90361456D01*
X151607052Y-90168170D01*
X151607051Y-90168169D01*
X151607051Y-90168165D01*
X151565469Y-90067776D01*
X151531635Y-89986092D01*
X151531633Y-89986088D01*
X151531632Y-89986086D01*
X151504078Y-89944849D01*
X151470029Y-89893891D01*
X151449151Y-89827214D01*
X151467635Y-89759834D01*
X151470029Y-89756109D01*
X151506446Y-89701607D01*
X151531632Y-89663914D01*
X151607051Y-89481835D01*
X151639444Y-89318988D01*
X151645500Y-89288543D01*
X151645500Y-89218234D01*
X153900000Y-89218234D01*
X153900000Y-89581765D01*
X153935632Y-89943556D01*
X154006550Y-90300090D01*
X154006553Y-90300101D01*
X154112086Y-90647997D01*
X154251207Y-90983864D01*
X154251209Y-90983869D01*
X154422570Y-91304462D01*
X154422581Y-91304480D01*
X154624551Y-91606750D01*
X154811678Y-91834765D01*
X154811679Y-91834766D01*
X156305747Y-90340697D01*
X156379588Y-90442330D01*
X156557670Y-90620412D01*
X156659301Y-90694251D01*
X155165232Y-92188319D01*
X155165233Y-92188320D01*
X155393249Y-92375448D01*
X155695519Y-92577418D01*
X155695537Y-92577429D01*
X156016130Y-92748790D01*
X156016135Y-92748792D01*
X156352002Y-92887913D01*
X156699898Y-92993446D01*
X156699909Y-92993449D01*
X157056443Y-93064367D01*
X157418234Y-93100000D01*
X157781766Y-93100000D01*
X158143556Y-93064367D01*
X158500090Y-92993449D01*
X158500101Y-92993446D01*
X158847997Y-92887913D01*
X159183864Y-92748792D01*
X159183869Y-92748790D01*
X159504462Y-92577429D01*
X159504480Y-92577418D01*
X159806736Y-92375457D01*
X159806750Y-92375447D01*
X160034765Y-92188320D01*
X160034766Y-92188319D01*
X158540698Y-90694251D01*
X158642330Y-90620412D01*
X158820412Y-90442330D01*
X158894251Y-90340698D01*
X160388319Y-91834766D01*
X160388320Y-91834765D01*
X160575447Y-91606750D01*
X160575457Y-91606736D01*
X160777418Y-91304480D01*
X160777429Y-91304462D01*
X160948790Y-90983869D01*
X160948792Y-90983864D01*
X161087913Y-90647997D01*
X161193446Y-90300101D01*
X161193449Y-90300090D01*
X161264367Y-89943556D01*
X161300000Y-89581765D01*
X161300000Y-89218234D01*
X161264367Y-88856443D01*
X161193449Y-88499909D01*
X161193446Y-88499898D01*
X161087913Y-88152002D01*
X160948792Y-87816135D01*
X160948790Y-87816130D01*
X160777429Y-87495537D01*
X160777418Y-87495519D01*
X160575448Y-87193249D01*
X160388320Y-86965233D01*
X160388319Y-86965232D01*
X158894251Y-88459300D01*
X158820412Y-88357670D01*
X158642330Y-88179588D01*
X158540698Y-88105748D01*
X160034766Y-86611679D01*
X160034765Y-86611678D01*
X159806750Y-86424551D01*
X159504480Y-86222581D01*
X159504462Y-86222570D01*
X159183869Y-86051209D01*
X159183864Y-86051207D01*
X158847997Y-85912086D01*
X158500101Y-85806553D01*
X158500090Y-85806550D01*
X158143556Y-85735632D01*
X157781766Y-85700000D01*
X157418234Y-85700000D01*
X157056443Y-85735632D01*
X156699909Y-85806550D01*
X156699898Y-85806553D01*
X156352002Y-85912086D01*
X156016135Y-86051207D01*
X156016130Y-86051209D01*
X155695537Y-86222570D01*
X155695519Y-86222581D01*
X155393258Y-86424545D01*
X155393254Y-86424548D01*
X155165233Y-86611679D01*
X155165233Y-86611680D01*
X156659301Y-88105748D01*
X156557670Y-88179588D01*
X156379588Y-88357670D01*
X156305748Y-88459301D01*
X154811680Y-86965233D01*
X154811679Y-86965233D01*
X154624548Y-87193254D01*
X154624545Y-87193258D01*
X154422581Y-87495519D01*
X154422570Y-87495537D01*
X154251209Y-87816130D01*
X154251207Y-87816135D01*
X154112086Y-88152002D01*
X154006553Y-88499898D01*
X154006550Y-88499909D01*
X153935632Y-88856443D01*
X153900000Y-89218234D01*
X151645500Y-89218234D01*
X151645500Y-89091456D01*
X151607052Y-88898170D01*
X151607051Y-88898169D01*
X151607051Y-88898165D01*
X151578501Y-88829238D01*
X151531635Y-88716092D01*
X151531633Y-88716088D01*
X151531632Y-88716086D01*
X151470029Y-88623891D01*
X151449151Y-88557214D01*
X151467635Y-88489834D01*
X151470029Y-88486109D01*
X151516172Y-88417051D01*
X151531632Y-88393914D01*
X151607051Y-88211835D01*
X151645500Y-88018541D01*
X151645500Y-87821459D01*
X151645500Y-87821456D01*
X151607052Y-87628170D01*
X151607051Y-87628169D01*
X151607051Y-87628165D01*
X151562904Y-87521584D01*
X151531635Y-87446092D01*
X151531628Y-87446079D01*
X151422139Y-87282218D01*
X151422136Y-87282214D01*
X151282785Y-87142863D01*
X151282781Y-87142860D01*
X151118920Y-87033371D01*
X151118907Y-87033364D01*
X150936839Y-86957950D01*
X150936829Y-86957947D01*
X150743543Y-86919500D01*
X150743541Y-86919500D01*
X150546459Y-86919500D01*
X150546457Y-86919500D01*
X150353171Y-86957947D01*
X150353168Y-86957948D01*
X150353166Y-86957948D01*
X150353165Y-86957949D01*
X150313206Y-86974500D01*
X150250874Y-87000318D01*
X150181404Y-87007785D01*
X150129113Y-86985023D01*
X150117335Y-86976206D01*
X150117328Y-86976202D01*
X149982482Y-86925908D01*
X149982483Y-86925908D01*
X149922883Y-86919501D01*
X149922881Y-86919500D01*
X149922873Y-86919500D01*
X149922864Y-86919500D01*
X148827129Y-86919500D01*
X148827123Y-86919501D01*
X148767516Y-86925908D01*
X148632671Y-86976202D01*
X148632664Y-86976206D01*
X148517455Y-87062452D01*
X148517452Y-87062455D01*
X148431206Y-87177664D01*
X148431202Y-87177671D01*
X148415180Y-87220630D01*
X148408885Y-87229039D01*
X148406414Y-87239246D01*
X148388309Y-87256524D01*
X148373309Y-87276564D01*
X148363467Y-87280234D01*
X148355870Y-87287486D01*
X148331294Y-87292234D01*
X148307844Y-87300981D01*
X148295762Y-87299099D01*
X148287269Y-87300741D01*
X148255378Y-87292811D01*
X148252966Y-87292436D01*
X148252190Y-87292125D01*
X148218913Y-87278342D01*
X148216523Y-87277866D01*
X148208993Y-87274856D01*
X148195602Y-87264335D01*
X148167344Y-87247398D01*
X147252601Y-86332655D01*
X147224853Y-86286357D01*
X147223989Y-86286715D01*
X147165087Y-86144511D01*
X147165080Y-86144498D01*
X147082951Y-86021584D01*
X147082948Y-86021580D01*
X146978419Y-85917051D01*
X146978415Y-85917048D01*
X146855501Y-85834919D01*
X146855488Y-85834912D01*
X146718917Y-85778343D01*
X146718907Y-85778340D01*
X146573920Y-85749500D01*
X146573918Y-85749500D01*
X146426082Y-85749500D01*
X146426080Y-85749500D01*
X146281092Y-85778340D01*
X146281082Y-85778343D01*
X146144511Y-85834912D01*
X146144498Y-85834919D01*
X146021584Y-85917048D01*
X146021580Y-85917051D01*
X145917051Y-86021580D01*
X145917048Y-86021584D01*
X145834919Y-86144498D01*
X145834912Y-86144511D01*
X145778343Y-86281082D01*
X145778340Y-86281092D01*
X145749500Y-86426079D01*
X145749500Y-86426082D01*
X145749500Y-86573918D01*
X145749500Y-86573920D01*
X145749499Y-86573920D01*
X143033765Y-86573920D01*
X142990823Y-86470249D01*
X142990815Y-86470233D01*
X142908686Y-86347319D01*
X142908683Y-86347315D01*
X142804154Y-86242786D01*
X142804150Y-86242783D01*
X142681236Y-86160654D01*
X142681223Y-86160647D01*
X142544652Y-86104078D01*
X142544642Y-86104075D01*
X142399655Y-86075235D01*
X142399653Y-86075235D01*
X142251817Y-86075235D01*
X142251815Y-86075235D01*
X142106827Y-86104075D01*
X142106817Y-86104078D01*
X141970246Y-86160647D01*
X141970233Y-86160654D01*
X141847319Y-86242783D01*
X141847315Y-86242786D01*
X141742786Y-86347315D01*
X141742783Y-86347319D01*
X141660654Y-86470233D01*
X141660647Y-86470246D01*
X141604078Y-86606817D01*
X141604075Y-86606827D01*
X141575235Y-86751814D01*
X141575235Y-86751817D01*
X141575235Y-86899653D01*
X141575235Y-86899655D01*
X141575234Y-86899655D01*
X141604075Y-87044642D01*
X141604078Y-87044652D01*
X141660649Y-87181228D01*
X141663521Y-87186600D01*
X141661206Y-87187837D01*
X141678649Y-87243687D01*
X141660114Y-87311054D01*
X141623558Y-87348911D01*
X141521584Y-87417048D01*
X141521580Y-87417051D01*
X141417051Y-87521580D01*
X141417048Y-87521584D01*
X141334919Y-87644498D01*
X141334914Y-87644507D01*
X141276011Y-87786714D01*
X141275149Y-87786357D01*
X141247398Y-87832654D01*
X140832654Y-88247398D01*
X140786357Y-88275149D01*
X140786714Y-88276011D01*
X140644507Y-88334914D01*
X140644498Y-88334919D01*
X140521584Y-88417048D01*
X140521580Y-88417051D01*
X140417051Y-88521580D01*
X140417048Y-88521584D01*
X140334919Y-88644498D01*
X140334912Y-88644511D01*
X140278343Y-88781082D01*
X140278340Y-88781092D01*
X140249500Y-88926079D01*
X140249500Y-88926082D01*
X140249500Y-89073918D01*
X140249500Y-89073920D01*
X140249499Y-89073920D01*
X140278340Y-89218907D01*
X140278343Y-89218917D01*
X140334912Y-89355488D01*
X140334919Y-89355501D01*
X140417048Y-89478415D01*
X140417051Y-89478419D01*
X140521580Y-89582948D01*
X140521587Y-89582953D01*
X140531484Y-89589567D01*
X140576289Y-89643180D01*
X140584995Y-89712505D01*
X140554839Y-89775532D01*
X140531484Y-89795770D01*
X140464816Y-89840316D01*
X140360287Y-89944845D01*
X140360284Y-89944849D01*
X140278155Y-90067763D01*
X140278148Y-90067776D01*
X140221579Y-90204347D01*
X140221576Y-90204357D01*
X140192736Y-90349344D01*
X140192736Y-90349347D01*
X140192736Y-90497183D01*
X140192736Y-90497185D01*
X140192735Y-90497185D01*
X126633662Y-90497185D01*
X126691275Y-90307260D01*
X126693446Y-90300101D01*
X126693449Y-90300090D01*
X126764367Y-89943556D01*
X126800000Y-89581765D01*
X126800000Y-89218234D01*
X126764367Y-88856443D01*
X126693449Y-88499909D01*
X126693446Y-88499898D01*
X126587913Y-88152002D01*
X126448792Y-87816135D01*
X126448790Y-87816130D01*
X126277429Y-87495537D01*
X126277418Y-87495519D01*
X126075448Y-87193249D01*
X125888320Y-86965233D01*
X125888319Y-86965232D01*
X124394251Y-88459300D01*
X124320412Y-88357670D01*
X124142330Y-88179588D01*
X124040698Y-88105748D01*
X125534766Y-86611679D01*
X125534765Y-86611678D01*
X125306750Y-86424551D01*
X125004480Y-86222581D01*
X125004462Y-86222570D01*
X124683869Y-86051209D01*
X124683864Y-86051207D01*
X124347997Y-85912086D01*
X124000101Y-85806553D01*
X124000090Y-85806550D01*
X123643556Y-85735632D01*
X123281766Y-85700000D01*
X122918234Y-85700000D01*
X122556443Y-85735632D01*
X122199909Y-85806550D01*
X122199898Y-85806553D01*
X121852002Y-85912086D01*
X121516135Y-86051207D01*
X121516130Y-86051209D01*
X121195537Y-86222570D01*
X121195519Y-86222581D01*
X120893258Y-86424545D01*
X120893254Y-86424548D01*
X120665233Y-86611679D01*
X120665233Y-86611680D01*
X122159301Y-88105748D01*
X122057670Y-88179588D01*
X121879588Y-88357670D01*
X121805748Y-88459301D01*
X120311680Y-86965233D01*
X120311679Y-86965233D01*
X120124548Y-87193254D01*
X120124545Y-87193258D01*
X119922581Y-87495519D01*
X119922570Y-87495537D01*
X119751209Y-87816130D01*
X119751207Y-87816135D01*
X119612086Y-88152002D01*
X119506553Y-88499898D01*
X119506550Y-88499909D01*
X119435632Y-88856443D01*
X119400000Y-89218234D01*
X119400000Y-89581765D01*
X119435632Y-89943556D01*
X119506550Y-90300090D01*
X119506553Y-90300101D01*
X119612086Y-90647997D01*
X119751207Y-90983864D01*
X119751209Y-90983869D01*
X119922570Y-91304462D01*
X119922581Y-91304480D01*
X120124551Y-91606750D01*
X120311678Y-91834765D01*
X120311679Y-91834766D01*
X121805747Y-90340697D01*
X121879588Y-90442330D01*
X122057670Y-90620412D01*
X122159301Y-90694251D01*
X120665232Y-92188319D01*
X120665233Y-92188320D01*
X120893249Y-92375448D01*
X121195519Y-92577418D01*
X121195537Y-92577429D01*
X121516130Y-92748790D01*
X121516135Y-92748792D01*
X121852002Y-92887913D01*
X122199898Y-92993446D01*
X122199909Y-92993449D01*
X122556443Y-93064367D01*
X122918234Y-93100000D01*
X123167772Y-93100000D01*
X123234811Y-93119685D01*
X123280566Y-93172489D01*
X123290510Y-93241647D01*
X123282332Y-93271454D01*
X123278343Y-93281082D01*
X123278340Y-93281092D01*
X123249500Y-93426079D01*
X123249500Y-93533330D01*
X123229815Y-93600369D01*
X123177011Y-93646124D01*
X123107853Y-93656068D01*
X123101311Y-93654948D01*
X123073919Y-93649500D01*
X123073918Y-93649500D01*
X122926082Y-93649500D01*
X122926080Y-93649500D01*
X122781092Y-93678340D01*
X122781082Y-93678343D01*
X122644511Y-93734912D01*
X122644498Y-93734919D01*
X122568891Y-93785439D01*
X122502213Y-93806317D01*
X122434833Y-93787832D01*
X122431109Y-93785439D01*
X122355501Y-93734919D01*
X122355488Y-93734912D01*
X122218917Y-93678343D01*
X122218907Y-93678340D01*
X122073920Y-93649500D01*
X122073918Y-93649500D01*
X121926082Y-93649500D01*
X121926080Y-93649500D01*
X121781092Y-93678340D01*
X121781082Y-93678343D01*
X121644511Y-93734912D01*
X121644498Y-93734919D01*
X121521584Y-93817048D01*
X121521580Y-93817051D01*
X121417051Y-93921580D01*
X121417048Y-93921584D01*
X121334919Y-94044498D01*
X121334912Y-94044511D01*
X121278343Y-94181082D01*
X121278340Y-94181092D01*
X121249500Y-94326079D01*
X121249500Y-94326082D01*
X121249500Y-94473918D01*
X121249500Y-94473920D01*
X121249499Y-94473920D01*
X121278340Y-94618907D01*
X121278343Y-94618917D01*
X121337247Y-94761124D01*
X121336383Y-94761481D01*
X121349500Y-94813840D01*
X121349500Y-95679192D01*
X121340855Y-95708632D01*
X121334332Y-95738619D01*
X121330577Y-95743634D01*
X121329815Y-95746231D01*
X121313181Y-95766873D01*
X121143400Y-95936653D01*
X121082077Y-95970138D01*
X121012385Y-95965154D01*
X120956452Y-95923282D01*
X120952616Y-95917862D01*
X120947937Y-95910860D01*
X120922853Y-95873318D01*
X120922851Y-95873315D01*
X120782384Y-95732848D01*
X120782380Y-95732845D01*
X120617210Y-95622481D01*
X120617201Y-95622476D01*
X120433669Y-95546455D01*
X120433661Y-95546453D01*
X120238833Y-95507699D01*
X120238829Y-95507699D01*
X119455971Y-95507699D01*
X119455966Y-95507699D01*
X119261138Y-95546453D01*
X119261130Y-95546455D01*
X119077598Y-95622476D01*
X119077589Y-95622481D01*
X118912419Y-95732845D01*
X118912415Y-95732848D01*
X118771949Y-95873314D01*
X118771946Y-95873318D01*
X118661582Y-96038488D01*
X118661577Y-96038497D01*
X118585556Y-96222029D01*
X118585554Y-96222037D01*
X118546800Y-96416865D01*
X117958826Y-96416865D01*
X117958826Y-89302311D01*
X117958913Y-89297674D01*
X117961860Y-89218907D01*
X117976268Y-88833858D01*
X117976958Y-88824646D01*
X118028667Y-88365708D01*
X118030048Y-88356552D01*
X118115908Y-87902773D01*
X118117960Y-87893781D01*
X118237502Y-87447645D01*
X118240226Y-87438817D01*
X118392757Y-87002911D01*
X118396132Y-86994308D01*
X118580824Y-86570990D01*
X118584846Y-86562642D01*
X118657022Y-86426079D01*
X118800630Y-86154358D01*
X118805263Y-86146334D01*
X118805267Y-86146328D01*
X119050973Y-85755289D01*
X119056184Y-85747647D01*
X119330440Y-85376045D01*
X119336191Y-85368833D01*
X119637454Y-85018761D01*
X119643736Y-85011992D01*
X119970308Y-84685420D01*
X119977064Y-84679150D01*
X120327174Y-84377857D01*
X120334369Y-84372120D01*
X120705968Y-84097870D01*
X120713594Y-84092669D01*
X121104668Y-83846942D01*
X121112651Y-83842333D01*
X121520985Y-83626524D01*
X121529317Y-83622512D01*
X121952633Y-83437822D01*
X121961218Y-83434453D01*
X122397152Y-83281914D01*
X122405986Y-83279190D01*
X122852087Y-83159659D01*
X122861106Y-83157600D01*
X123314898Y-83071741D01*
X123324024Y-83070365D01*
X123782967Y-83018656D01*
X123792182Y-83017966D01*
X124005846Y-83009972D01*
X124256712Y-83000587D01*
X124261348Y-83000500D01*
X124324216Y-83000500D01*
X156484108Y-83000500D01*
X156547688Y-83000500D01*
X156552324Y-83000587D01*
G37*
%TD.AperFunction*%
%TD*%
%TA.AperFunction,Conductor*%
%TO.N,Net-(Q1-D)*%
G36*
X142943039Y-117519685D02*
G01*
X142988794Y-117572489D01*
X143000000Y-117624000D01*
X143000000Y-118208613D01*
X142980315Y-118275652D01*
X142976318Y-118281498D01*
X142930478Y-118344591D01*
X142841117Y-118519970D01*
X142780290Y-118707173D01*
X142749500Y-118901577D01*
X142749500Y-119098422D01*
X142780290Y-119292826D01*
X142841117Y-119480029D01*
X142930476Y-119655405D01*
X142976318Y-119718501D01*
X142999798Y-119784306D01*
X143000000Y-119791386D01*
X143000000Y-120500000D01*
X146876000Y-120500000D01*
X146943039Y-120519685D01*
X146988794Y-120572489D01*
X147000000Y-120624000D01*
X147000000Y-123500000D01*
X150370500Y-123500000D01*
X150437539Y-123519685D01*
X150483294Y-123572489D01*
X150494500Y-123624000D01*
X150494500Y-130617174D01*
X150474815Y-130684213D01*
X150422011Y-130729968D01*
X150370500Y-130741174D01*
X143787945Y-130741174D01*
X143720906Y-130721489D01*
X143675151Y-130668685D01*
X143665207Y-130599527D01*
X143694232Y-130535971D01*
X143715055Y-130516858D01*
X143814646Y-130444502D01*
X143953828Y-130305320D01*
X144069524Y-130146079D01*
X144158884Y-129970699D01*
X144219709Y-129783500D01*
X144227258Y-129735830D01*
X144257186Y-129672700D01*
X144316497Y-129635768D01*
X144386359Y-129636764D01*
X144444593Y-129675373D01*
X144450049Y-129682345D01*
X144546172Y-129814646D01*
X144685354Y-129953828D01*
X144844595Y-130069524D01*
X144927455Y-130111743D01*
X145019970Y-130158882D01*
X145019972Y-130158882D01*
X145019975Y-130158884D01*
X145120317Y-130191487D01*
X145207173Y-130219709D01*
X145401578Y-130250500D01*
X145401583Y-130250500D01*
X145598422Y-130250500D01*
X145792826Y-130219709D01*
X145980025Y-130158884D01*
X146155405Y-130069524D01*
X146314646Y-129953828D01*
X146453828Y-129814646D01*
X146569524Y-129655405D01*
X146658884Y-129480025D01*
X146719709Y-129292826D01*
X146734752Y-129197847D01*
X146750500Y-129098422D01*
X146750500Y-128901577D01*
X146719709Y-128707173D01*
X146664366Y-128536848D01*
X146658884Y-128519975D01*
X146658882Y-128519972D01*
X146658882Y-128519970D01*
X146569523Y-128344594D01*
X146560221Y-128331791D01*
X146453828Y-128185354D01*
X146314646Y-128046172D01*
X146155405Y-127930476D01*
X145980029Y-127841117D01*
X145792826Y-127780290D01*
X145598422Y-127749500D01*
X145598417Y-127749500D01*
X145401583Y-127749500D01*
X145401578Y-127749500D01*
X145207173Y-127780290D01*
X145019970Y-127841117D01*
X144844594Y-127930476D01*
X144753741Y-127996485D01*
X144685354Y-128046172D01*
X144685352Y-128046174D01*
X144685351Y-128046174D01*
X144546174Y-128185351D01*
X144546174Y-128185352D01*
X144546172Y-128185354D01*
X144506343Y-128240174D01*
X144430476Y-128344594D01*
X144341117Y-128519970D01*
X144280291Y-128707172D01*
X144272741Y-128754841D01*
X144242811Y-128817975D01*
X144183500Y-128854906D01*
X144113637Y-128853908D01*
X144055405Y-128815298D01*
X144049950Y-128808328D01*
X143953828Y-128676028D01*
X143814646Y-128536846D01*
X143655405Y-128421150D01*
X143480029Y-128331791D01*
X143292826Y-128270964D01*
X143098422Y-128240174D01*
X143098417Y-128240174D01*
X142901583Y-128240174D01*
X142901578Y-128240174D01*
X142707173Y-128270964D01*
X142519970Y-128331791D01*
X142344594Y-128421150D01*
X142253741Y-128487159D01*
X142185354Y-128536846D01*
X142185352Y-128536848D01*
X142185351Y-128536848D01*
X142046174Y-128676025D01*
X142046174Y-128676026D01*
X142046172Y-128676028D01*
X142023544Y-128707173D01*
X141930476Y-128835268D01*
X141841117Y-129010644D01*
X141780290Y-129197847D01*
X141749500Y-129392251D01*
X141749500Y-129589096D01*
X141780290Y-129783500D01*
X141841117Y-129970703D01*
X141895315Y-130077072D01*
X141930476Y-130146079D01*
X142046172Y-130305320D01*
X142185354Y-130444502D01*
X142284942Y-130516857D01*
X142327606Y-130572186D01*
X142333585Y-130641800D01*
X142300979Y-130703595D01*
X142240140Y-130737952D01*
X142212055Y-130741174D01*
X138124000Y-130741174D01*
X138056961Y-130721489D01*
X138011206Y-130668685D01*
X138000000Y-130617174D01*
X138000000Y-124901577D01*
X142549500Y-124901577D01*
X142549500Y-125098422D01*
X142580290Y-125292826D01*
X142641117Y-125480029D01*
X142701439Y-125598417D01*
X142730476Y-125655405D01*
X142846172Y-125814646D01*
X142985354Y-125953828D01*
X143144595Y-126069524D01*
X143227455Y-126111743D01*
X143319970Y-126158882D01*
X143319972Y-126158882D01*
X143319975Y-126158884D01*
X143352257Y-126169373D01*
X143507173Y-126219709D01*
X143701578Y-126250500D01*
X143701583Y-126250500D01*
X143898422Y-126250500D01*
X144092826Y-126219709D01*
X144280025Y-126158884D01*
X144455405Y-126069524D01*
X144614646Y-125953828D01*
X144636070Y-125932403D01*
X144697390Y-125898918D01*
X144767082Y-125903901D01*
X144823017Y-125945772D01*
X144838591Y-125975806D01*
X144839255Y-125975532D01*
X144841115Y-125980023D01*
X144841116Y-125980025D01*
X144930476Y-126155405D01*
X145046172Y-126314646D01*
X145185354Y-126453828D01*
X145344595Y-126569524D01*
X145427455Y-126611743D01*
X145519970Y-126658882D01*
X145519972Y-126658882D01*
X145519975Y-126658884D01*
X145620317Y-126691487D01*
X145707173Y-126719709D01*
X145901578Y-126750500D01*
X145901583Y-126750500D01*
X146098422Y-126750500D01*
X146292826Y-126719709D01*
X146480025Y-126658884D01*
X146655405Y-126569524D01*
X146814646Y-126453828D01*
X146953828Y-126314646D01*
X147069524Y-126155405D01*
X147158884Y-125980025D01*
X147219709Y-125792826D01*
X147221608Y-125780836D01*
X147250500Y-125598422D01*
X147250500Y-125401577D01*
X147219709Y-125207173D01*
X147184373Y-125098422D01*
X147158884Y-125019975D01*
X147158882Y-125019972D01*
X147158882Y-125019970D01*
X147109346Y-124922751D01*
X147069524Y-124844595D01*
X146953828Y-124685354D01*
X146814646Y-124546172D01*
X146655405Y-124430476D01*
X146480029Y-124341117D01*
X146292826Y-124280290D01*
X146098422Y-124249500D01*
X146098417Y-124249500D01*
X145901583Y-124249500D01*
X145901578Y-124249500D01*
X145707173Y-124280290D01*
X145519970Y-124341117D01*
X145344594Y-124430476D01*
X145299930Y-124462927D01*
X145185354Y-124546172D01*
X145185352Y-124546174D01*
X145185350Y-124546175D01*
X145163927Y-124567598D01*
X145102604Y-124601082D01*
X145032912Y-124596096D01*
X144976979Y-124554223D01*
X144961411Y-124524192D01*
X144960745Y-124524468D01*
X144958884Y-124519976D01*
X144958884Y-124519975D01*
X144869524Y-124344595D01*
X144753828Y-124185354D01*
X144614646Y-124046172D01*
X144455405Y-123930476D01*
X144280029Y-123841117D01*
X144092826Y-123780290D01*
X143898422Y-123749500D01*
X143898417Y-123749500D01*
X143701583Y-123749500D01*
X143701578Y-123749500D01*
X143507173Y-123780290D01*
X143319970Y-123841117D01*
X143144594Y-123930476D01*
X143053741Y-123996485D01*
X142985354Y-124046172D01*
X142985352Y-124046174D01*
X142985351Y-124046174D01*
X142846174Y-124185351D01*
X142846174Y-124185352D01*
X142846172Y-124185354D01*
X142799567Y-124249500D01*
X142730476Y-124344594D01*
X142641117Y-124519970D01*
X142580290Y-124707173D01*
X142549500Y-124901577D01*
X138000000Y-124901577D01*
X138000000Y-117624000D01*
X138019685Y-117556961D01*
X138072489Y-117511206D01*
X138124000Y-117500000D01*
X142876000Y-117500000D01*
X142943039Y-117519685D01*
G37*
%TD.AperFunction*%
%TD*%
%TA.AperFunction,Conductor*%
%TO.N,VOUT*%
G36*
X162792538Y-107519685D02*
G01*
X162838293Y-107572489D01*
X162849499Y-107624000D01*
X162849499Y-124439391D01*
X162849412Y-124444027D01*
X162832060Y-124907803D01*
X162831367Y-124917050D01*
X162779662Y-125375957D01*
X162778280Y-125385127D01*
X162692426Y-125838887D01*
X162690363Y-125847927D01*
X162570838Y-126294007D01*
X162568105Y-126302868D01*
X162415577Y-126738772D01*
X162412189Y-126747404D01*
X162227514Y-127170687D01*
X162223490Y-127179042D01*
X162007706Y-127587327D01*
X162003070Y-127595358D01*
X161757367Y-127986394D01*
X161752143Y-127994056D01*
X161477909Y-128365631D01*
X161472128Y-128372880D01*
X161170893Y-128722924D01*
X161164585Y-128729722D01*
X160838039Y-129056269D01*
X160831242Y-129062576D01*
X160481201Y-129363812D01*
X160473951Y-129369594D01*
X160102376Y-129643829D01*
X160094714Y-129649053D01*
X159703678Y-129894758D01*
X159695647Y-129899394D01*
X159287368Y-130115176D01*
X159279014Y-130119200D01*
X158855714Y-130303885D01*
X158847082Y-130307272D01*
X158411203Y-130459794D01*
X158402341Y-130462528D01*
X157956247Y-130582058D01*
X157947207Y-130584121D01*
X157493452Y-130669976D01*
X157484283Y-130671358D01*
X157025373Y-130723065D01*
X157016126Y-130723758D01*
X156553020Y-130741087D01*
X156548383Y-130741174D01*
X151124000Y-130741174D01*
X151056961Y-130721489D01*
X151011206Y-130668685D01*
X151000000Y-130617174D01*
X151000000Y-125518209D01*
X153899500Y-125518209D01*
X153899500Y-125881790D01*
X153935137Y-126243630D01*
X154006064Y-126600212D01*
X154006067Y-126600223D01*
X154111614Y-126948165D01*
X154250754Y-127284078D01*
X154250756Y-127284083D01*
X154422140Y-127604720D01*
X154422151Y-127604738D01*
X154624140Y-127907035D01*
X154624150Y-127907049D01*
X154854807Y-128188106D01*
X155111893Y-128445192D01*
X155111898Y-128445196D01*
X155111899Y-128445197D01*
X155392956Y-128675854D01*
X155695268Y-128877853D01*
X155695277Y-128877858D01*
X155695279Y-128877859D01*
X156015916Y-129049243D01*
X156015918Y-129049243D01*
X156015924Y-129049247D01*
X156351836Y-129188386D01*
X156699767Y-129293930D01*
X156699773Y-129293931D01*
X156699776Y-129293932D01*
X156699787Y-129293935D01*
X157051090Y-129363812D01*
X157056369Y-129364862D01*
X157418206Y-129400500D01*
X157418209Y-129400500D01*
X157781791Y-129400500D01*
X157781794Y-129400500D01*
X158143631Y-129364862D01*
X158213045Y-129351054D01*
X158500212Y-129293935D01*
X158500223Y-129293932D01*
X158500223Y-129293931D01*
X158500233Y-129293930D01*
X158848164Y-129188386D01*
X159184076Y-129049247D01*
X159504732Y-128877853D01*
X159807044Y-128675854D01*
X160088101Y-128445197D01*
X160345197Y-128188101D01*
X160575854Y-127907044D01*
X160777853Y-127604732D01*
X160949247Y-127284076D01*
X161088386Y-126948164D01*
X161193930Y-126600233D01*
X161193932Y-126600223D01*
X161193935Y-126600212D01*
X161264862Y-126243630D01*
X161300500Y-125881790D01*
X161300500Y-125518209D01*
X161286489Y-125375957D01*
X161264862Y-125156369D01*
X161193935Y-124799787D01*
X161193932Y-124799776D01*
X161193931Y-124799773D01*
X161193930Y-124799767D01*
X161088386Y-124451836D01*
X160949247Y-124115924D01*
X160777853Y-123795268D01*
X160575854Y-123492956D01*
X160345197Y-123211899D01*
X160345196Y-123211898D01*
X160345192Y-123211893D01*
X160088106Y-122954807D01*
X159807049Y-122724150D01*
X159807048Y-122724149D01*
X159807044Y-122724146D01*
X159504732Y-122522147D01*
X159504727Y-122522144D01*
X159504720Y-122522140D01*
X159184083Y-122350756D01*
X159184078Y-122350754D01*
X158848165Y-122211614D01*
X158500223Y-122106067D01*
X158500212Y-122106064D01*
X158143630Y-122035137D01*
X157871111Y-122008296D01*
X157781794Y-121999500D01*
X157418206Y-121999500D01*
X157335679Y-122007628D01*
X157056369Y-122035137D01*
X156699787Y-122106064D01*
X156699776Y-122106067D01*
X156351834Y-122211614D01*
X156015921Y-122350754D01*
X156015916Y-122350756D01*
X155695279Y-122522140D01*
X155695261Y-122522151D01*
X155392964Y-122724140D01*
X155392950Y-122724150D01*
X155111893Y-122954807D01*
X154854807Y-123211893D01*
X154624150Y-123492950D01*
X154624140Y-123492964D01*
X154422151Y-123795261D01*
X154422140Y-123795279D01*
X154250756Y-124115916D01*
X154250754Y-124115921D01*
X154111614Y-124451834D01*
X154006067Y-124799776D01*
X154006064Y-124799787D01*
X153935137Y-125156369D01*
X153899500Y-125518209D01*
X151000000Y-125518209D01*
X151000000Y-116099986D01*
X155200001Y-116099986D01*
X155210494Y-116202697D01*
X155265641Y-116369119D01*
X155265643Y-116369124D01*
X155357684Y-116518345D01*
X155481654Y-116642315D01*
X155630875Y-116734356D01*
X155630880Y-116734358D01*
X155797302Y-116789505D01*
X155797309Y-116789506D01*
X155900019Y-116799999D01*
X156249999Y-116799999D01*
X157750000Y-116799999D01*
X158099972Y-116799999D01*
X158099986Y-116799998D01*
X158202697Y-116789505D01*
X158369119Y-116734358D01*
X158369124Y-116734356D01*
X158518345Y-116642315D01*
X158642315Y-116518345D01*
X158734356Y-116369124D01*
X158734358Y-116369119D01*
X158789505Y-116202697D01*
X158789506Y-116202690D01*
X158799999Y-116099986D01*
X158800000Y-116099973D01*
X158800000Y-115750000D01*
X157750000Y-115750000D01*
X157750000Y-116799999D01*
X156249999Y-116799999D01*
X156250000Y-116799998D01*
X156250000Y-115750000D01*
X155200001Y-115750000D01*
X155200001Y-116099986D01*
X151000000Y-116099986D01*
X151000000Y-114935981D01*
X156350000Y-114935981D01*
X156350000Y-115064019D01*
X156374979Y-115189598D01*
X156423978Y-115307890D01*
X156495112Y-115414351D01*
X156585649Y-115504888D01*
X156692110Y-115576022D01*
X156810402Y-115625021D01*
X156935981Y-115650000D01*
X157064019Y-115650000D01*
X157189598Y-115625021D01*
X157307890Y-115576022D01*
X157414351Y-115504888D01*
X157504888Y-115414351D01*
X157576022Y-115307890D01*
X157625021Y-115189598D01*
X157650000Y-115064019D01*
X157650000Y-114935981D01*
X157625021Y-114810402D01*
X157576022Y-114692110D01*
X157504888Y-114585649D01*
X157414351Y-114495112D01*
X157307890Y-114423978D01*
X157189598Y-114374979D01*
X157064019Y-114350000D01*
X156935981Y-114350000D01*
X156810402Y-114374979D01*
X156692110Y-114423978D01*
X156585649Y-114495112D01*
X156495112Y-114585649D01*
X156423978Y-114692110D01*
X156374979Y-114810402D01*
X156350000Y-114935981D01*
X151000000Y-114935981D01*
X151000000Y-113900013D01*
X155200000Y-113900013D01*
X155200000Y-114250000D01*
X156250000Y-114250000D01*
X157750000Y-114250000D01*
X158799999Y-114250000D01*
X158799999Y-113900028D01*
X158799998Y-113900013D01*
X158789505Y-113797302D01*
X158734358Y-113630880D01*
X158734356Y-113630875D01*
X158642315Y-113481654D01*
X158518345Y-113357684D01*
X158369124Y-113265643D01*
X158369119Y-113265641D01*
X158202697Y-113210494D01*
X158202690Y-113210493D01*
X158099986Y-113200000D01*
X157750000Y-113200000D01*
X157750000Y-114250000D01*
X156250000Y-114250000D01*
X156250000Y-113200000D01*
X155900028Y-113200000D01*
X155900012Y-113200001D01*
X155797302Y-113210494D01*
X155630880Y-113265641D01*
X155630875Y-113265643D01*
X155481654Y-113357684D01*
X155357684Y-113481654D01*
X155265643Y-113630875D01*
X155265641Y-113630880D01*
X155210494Y-113797302D01*
X155210493Y-113797309D01*
X155200000Y-113900013D01*
X151000000Y-113900013D01*
X151000000Y-111688319D01*
X156372338Y-111688319D01*
X156372338Y-111688320D01*
X156420152Y-111708125D01*
X156420165Y-111708129D01*
X156648087Y-111769201D01*
X156882014Y-111799999D01*
X156882029Y-111800000D01*
X157117971Y-111800000D01*
X157117985Y-111799999D01*
X157351914Y-111769200D01*
X157579834Y-111708130D01*
X157627660Y-111688319D01*
X157000001Y-111060660D01*
X157000000Y-111060660D01*
X156372338Y-111688319D01*
X151000000Y-111688319D01*
X151000000Y-109882014D01*
X155200000Y-109882014D01*
X155200000Y-110117985D01*
X155230798Y-110351912D01*
X155291871Y-110579837D01*
X155311678Y-110627660D01*
X155311679Y-110627660D01*
X155939340Y-110000000D01*
X155939340Y-109999999D01*
X155875322Y-109935981D01*
X156350000Y-109935981D01*
X156350000Y-110064019D01*
X156374979Y-110189598D01*
X156423978Y-110307890D01*
X156495112Y-110414351D01*
X156585649Y-110504888D01*
X156692110Y-110576022D01*
X156810402Y-110625021D01*
X156935981Y-110650000D01*
X157064019Y-110650000D01*
X157189598Y-110625021D01*
X157307890Y-110576022D01*
X157414351Y-110504888D01*
X157504888Y-110414351D01*
X157576022Y-110307890D01*
X157625021Y-110189598D01*
X157650000Y-110064019D01*
X157650000Y-109999999D01*
X158060660Y-109999999D01*
X158060660Y-110000000D01*
X158688319Y-110627660D01*
X158708130Y-110579834D01*
X158769200Y-110351914D01*
X158799999Y-110117985D01*
X158800000Y-110117971D01*
X158800000Y-109882028D01*
X158799999Y-109882014D01*
X158769201Y-109648087D01*
X158708129Y-109420165D01*
X158708125Y-109420152D01*
X158688320Y-109372338D01*
X158688319Y-109372338D01*
X158060660Y-109999999D01*
X157650000Y-109999999D01*
X157650000Y-109935981D01*
X157625021Y-109810402D01*
X157576022Y-109692110D01*
X157504888Y-109585649D01*
X157414351Y-109495112D01*
X157307890Y-109423978D01*
X157189598Y-109374979D01*
X157064019Y-109350000D01*
X156935981Y-109350000D01*
X156810402Y-109374979D01*
X156692110Y-109423978D01*
X156585649Y-109495112D01*
X156495112Y-109585649D01*
X156423978Y-109692110D01*
X156374979Y-109810402D01*
X156350000Y-109935981D01*
X155875322Y-109935981D01*
X155311679Y-109372338D01*
X155291872Y-109420159D01*
X155291868Y-109420170D01*
X155230798Y-109648087D01*
X155200000Y-109882014D01*
X151000000Y-109882014D01*
X151000000Y-108311679D01*
X156372338Y-108311679D01*
X157000000Y-108939340D01*
X157000001Y-108939340D01*
X157627660Y-108311679D01*
X157627660Y-108311678D01*
X157579837Y-108291871D01*
X157351912Y-108230798D01*
X157117985Y-108200000D01*
X156882014Y-108200000D01*
X156648087Y-108230798D01*
X156420170Y-108291868D01*
X156420159Y-108291872D01*
X156372338Y-108311679D01*
X151000000Y-108311679D01*
X151000000Y-107624000D01*
X151019685Y-107556961D01*
X151072489Y-107511206D01*
X151124000Y-107500000D01*
X162725499Y-107500000D01*
X162792538Y-107519685D01*
G37*
%TD.AperFunction*%
%TD*%
M02*
