%TF.GenerationSoftware,KiCad,Pcbnew,9.0.0*%
%TF.CreationDate,2025-07-23T16:42:48-04:00*%
%TF.ProjectId,USB_C_Simple_Trig,5553425f-435f-4536-996d-706c655f5472,rev?*%
%TF.SameCoordinates,Original*%
%TF.FileFunction,Soldermask,Bot*%
%TF.FilePolarity,Negative*%
%FSLAX46Y46*%
G04 Gerber Fmt 4.6, Leading zero omitted, Abs format (unit mm)*
G04 Created by KiCad (PCBNEW 9.0.0) date 2025-07-23 16:42:48*
%MOMM*%
%LPD*%
G01*
G04 APERTURE LIST*
G04 Aperture macros list*
%AMRoundRect*
0 Rectangle with rounded corners*
0 $1 Rounding radius*
0 $2 $3 $4 $5 $6 $7 $8 $9 X,Y pos of 4 corners*
0 Add a 4 corners polygon primitive as box body*
4,1,4,$2,$3,$4,$5,$6,$7,$8,$9,$2,$3,0*
0 Add four circle primitives for the rounded corners*
1,1,$1+$1,$2,$3*
1,1,$1+$1,$4,$5*
1,1,$1+$1,$6,$7*
1,1,$1+$1,$8,$9*
0 Add four rect primitives between the rounded corners*
20,1,$1+$1,$2,$3,$4,$5,0*
20,1,$1+$1,$4,$5,$6,$7,0*
20,1,$1+$1,$6,$7,$8,$9,0*
20,1,$1+$1,$8,$9,$2,$3,0*%
G04 Aperture macros list end*
%ADD10C,6.400000*%
%ADD11C,0.609600*%
%ADD12O,1.600200X1.016000*%
%ADD13C,0.660400*%
%ADD14O,0.914400X1.193800*%
%ADD15R,1.700000X1.700000*%
%ADD16O,1.700000X1.700000*%
%ADD17R,1.000000X1.000000*%
%ADD18O,1.000000X1.000000*%
%ADD19C,2.000000*%
%ADD20RoundRect,0.250000X1.050000X-1.050000X1.050000X1.050000X-1.050000X1.050000X-1.050000X-1.050000X0*%
%ADD21C,2.600000*%
G04 APERTURE END LIST*
D10*
%TO.C,H1*%
X157600000Y-89400000D03*
%TD*%
%TO.C,H2*%
X157600000Y-125700000D03*
%TD*%
%TO.C,H3*%
X123100000Y-89400000D03*
%TD*%
D11*
%TO.C,J1*%
X124137400Y-98606133D03*
X124137400Y-99406259D03*
X124137400Y-100181011D03*
D12*
X119847400Y-96516199D03*
D11*
X124137400Y-101781389D03*
X124137400Y-102606141D03*
X124137400Y-103406267D03*
D13*
X125487400Y-97406200D03*
D11*
X124837400Y-98206007D03*
D12*
X119847400Y-105496201D03*
D11*
X124837400Y-99806385D03*
X124837400Y-100618637D03*
X124837400Y-101418763D03*
X124837400Y-102206015D03*
D12*
X124247400Y-96876201D03*
D11*
X124837400Y-103806393D03*
D12*
X124247400Y-105136199D03*
D14*
X125487400Y-104606200D03*
%TD*%
D15*
%TO.C,J3*%
X122340000Y-117000000D03*
D16*
X124880000Y-117000000D03*
X127420000Y-117000000D03*
X129960000Y-117000000D03*
X132500000Y-117000000D03*
X135040000Y-117000000D03*
%TD*%
D17*
%TO.C,J4*%
X149375000Y-87920000D03*
D18*
X150645000Y-87920000D03*
X149375000Y-89190000D03*
X150645000Y-89190000D03*
X149375000Y-90460000D03*
X150645000Y-90460000D03*
X149375000Y-91730000D03*
X150645000Y-91730000D03*
X149375000Y-93000000D03*
X150645000Y-93000000D03*
%TD*%
D10*
%TO.C,H4*%
X123100000Y-125700000D03*
%TD*%
D19*
%TO.C,SW1*%
X135250000Y-121250000D03*
X135250000Y-127750000D03*
X130750000Y-121250000D03*
X130750000Y-127750000D03*
%TD*%
D20*
%TO.C,J2*%
X157000000Y-115000000D03*
D21*
X157000000Y-110000000D03*
X157000000Y-105000000D03*
X157000000Y-100000000D03*
%TD*%
M02*
