%TF.GenerationSoftware,KiCad,Pcbnew,9.0.0*%
%TF.CreationDate,2025-07-24T15:18:37-04:00*%
%TF.ProjectId,USB_C_Simple_Trig,5553425f-435f-4536-996d-706c655f5472,rev?*%
%TF.SameCoordinates,Original*%
%TF.FileFunction,Soldermask,Top*%
%TF.FilePolarity,Negative*%
%FSLAX46Y46*%
G04 Gerber Fmt 4.6, Leading zero omitted, Abs format (unit mm)*
G04 Created by KiCad (PCBNEW 9.0.0) date 2025-07-24 15:18:37*
%MOMM*%
%LPD*%
G01*
G04 APERTURE LIST*
G04 Aperture macros list*
%AMRoundRect*
0 Rectangle with rounded corners*
0 $1 Rounding radius*
0 $2 $3 $4 $5 $6 $7 $8 $9 X,Y pos of 4 corners*
0 Add a 4 corners polygon primitive as box body*
4,1,4,$2,$3,$4,$5,$6,$7,$8,$9,$2,$3,0*
0 Add four circle primitives for the rounded corners*
1,1,$1+$1,$2,$3*
1,1,$1+$1,$4,$5*
1,1,$1+$1,$6,$7*
1,1,$1+$1,$8,$9*
0 Add four rect primitives between the rounded corners*
20,1,$1+$1,$2,$3,$4,$5,0*
20,1,$1+$1,$4,$5,$6,$7,0*
20,1,$1+$1,$6,$7,$8,$9,0*
20,1,$1+$1,$8,$9,$2,$3,0*%
G04 Aperture macros list end*
%ADD10RoundRect,0.237500X-0.287500X-0.237500X0.287500X-0.237500X0.287500X0.237500X-0.287500X0.237500X0*%
%ADD11RoundRect,0.237500X-0.250000X-0.237500X0.250000X-0.237500X0.250000X0.237500X-0.250000X0.237500X0*%
%ADD12RoundRect,0.237500X-0.300000X-0.237500X0.300000X-0.237500X0.300000X0.237500X-0.300000X0.237500X0*%
%ADD13R,1.000000X1.000000*%
%ADD14O,1.000000X1.000000*%
%ADD15RoundRect,0.237500X0.300000X0.237500X-0.300000X0.237500X-0.300000X-0.237500X0.300000X-0.237500X0*%
%ADD16RoundRect,0.237500X0.250000X0.237500X-0.250000X0.237500X-0.250000X-0.237500X0.250000X-0.237500X0*%
%ADD17C,6.400000*%
%ADD18RoundRect,0.375000X0.375000X-0.625000X0.375000X0.625000X-0.375000X0.625000X-0.375000X-0.625000X0*%
%ADD19RoundRect,0.500000X1.400000X-0.500000X1.400000X0.500000X-1.400000X0.500000X-1.400000X-0.500000X0*%
%ADD20RoundRect,0.237500X-0.237500X0.300000X-0.237500X-0.300000X0.237500X-0.300000X0.237500X0.300000X0*%
%ADD21C,2.000000*%
%ADD22C,0.660400*%
%ADD23O,1.600200X1.016000*%
%ADD24O,0.914400X1.193800*%
%ADD25R,0.889000X0.304800*%
%ADD26C,0.609600*%
%ADD27RoundRect,0.250000X1.050000X-1.050000X1.050000X1.050000X-1.050000X1.050000X-1.050000X-1.050000X0*%
%ADD28C,2.600000*%
%ADD29RoundRect,0.100000X-0.637500X-0.100000X0.637500X-0.100000X0.637500X0.100000X-0.637500X0.100000X0*%
%ADD30RoundRect,0.237500X0.237500X-0.250000X0.237500X0.250000X-0.237500X0.250000X-0.237500X-0.250000X0*%
%ADD31R,1.700000X1.700000*%
%ADD32O,1.700000X1.700000*%
%ADD33RoundRect,0.237500X-0.237500X0.250000X-0.237500X-0.250000X0.237500X-0.250000X0.237500X0.250000X0*%
%ADD34RoundRect,0.237500X0.237500X-0.300000X0.237500X0.300000X-0.237500X0.300000X-0.237500X-0.300000X0*%
%ADD35R,2.387600X1.193800*%
%ADD36RoundRect,0.250000X-0.625000X0.400000X-0.625000X-0.400000X0.625000X-0.400000X0.625000X0.400000X0*%
%ADD37R,0.300000X0.750000*%
%ADD38R,0.750000X0.300000*%
%ADD39R,2.700000X2.700000*%
%ADD40RoundRect,0.150000X0.587500X0.150000X-0.587500X0.150000X-0.587500X-0.150000X0.587500X-0.150000X0*%
G04 APERTURE END LIST*
D10*
%TO.C,D2*%
X121625000Y-108500000D03*
X123375000Y-108500000D03*
%TD*%
D11*
%TO.C,R9*%
X126175000Y-112500000D03*
X128000000Y-112500000D03*
%TD*%
D12*
%TO.C,C4*%
X139137500Y-114500000D03*
X140862500Y-114500000D03*
%TD*%
%TO.C,C2*%
X137137500Y-110500000D03*
X138862500Y-110500000D03*
%TD*%
D13*
%TO.C,J4*%
X149375000Y-87920000D03*
D14*
X150645000Y-87920000D03*
X149375000Y-89190000D03*
X150645000Y-89190000D03*
X149375000Y-90460000D03*
X150645000Y-90460000D03*
X149375000Y-91730000D03*
X150645000Y-91730000D03*
X149375000Y-93000000D03*
X150645000Y-93000000D03*
%TD*%
D15*
%TO.C,C9*%
X149862500Y-117000000D03*
X148137500Y-117000000D03*
%TD*%
D16*
%TO.C,R2*%
X128087500Y-108500000D03*
X126262500Y-108500000D03*
%TD*%
D17*
%TO.C,H4*%
X123100000Y-125700000D03*
%TD*%
D18*
%TO.C,Q2*%
X149500000Y-128000000D03*
D19*
X149500000Y-121700000D03*
D18*
X147200000Y-128000000D03*
X151800000Y-128000000D03*
%TD*%
D20*
%TO.C,C21*%
X137500000Y-90762500D03*
X137500000Y-92487500D03*
%TD*%
D21*
%TO.C,SW1*%
X135250000Y-121250000D03*
X135250000Y-127750000D03*
X130750000Y-121250000D03*
X130750000Y-127750000D03*
%TD*%
D11*
%TO.C,R12*%
X130587500Y-105850000D03*
X132412500Y-105850000D03*
%TD*%
D22*
%TO.C,J1*%
X125487400Y-97406200D03*
D23*
X124247400Y-96876201D03*
X119847400Y-96516199D03*
X124247400Y-105136199D03*
X119847400Y-105496201D03*
D24*
X125487400Y-104606200D03*
D25*
X126052400Y-98255507D03*
X126052400Y-98755633D03*
X126052400Y-99255759D03*
X126052400Y-99755885D03*
X126052400Y-100256011D03*
X126052400Y-100756137D03*
X126052400Y-101256263D03*
X126052400Y-101756389D03*
X126052400Y-102256515D03*
X126052400Y-102756641D03*
X126052400Y-103256767D03*
X126052400Y-103756893D03*
D26*
X124837400Y-103806393D03*
X124137400Y-103406267D03*
X124137400Y-102606141D03*
X124837400Y-102206015D03*
X124137400Y-101781389D03*
X124837400Y-101418763D03*
X124837400Y-100618637D03*
X124137400Y-100181011D03*
X124837400Y-99806385D03*
X124137400Y-99406259D03*
X124137400Y-98606133D03*
X124837400Y-98206007D03*
%TD*%
D17*
%TO.C,H3*%
X123100000Y-89400000D03*
%TD*%
D12*
%TO.C,C6*%
X148137500Y-110500000D03*
X149862500Y-110500000D03*
%TD*%
D27*
%TO.C,J2*%
X157000000Y-115000000D03*
D28*
X157000000Y-110000000D03*
X157000000Y-105000000D03*
X157000000Y-100000000D03*
%TD*%
D29*
%TO.C,U5*%
X139775000Y-87575000D03*
X139775000Y-88225000D03*
X139775000Y-88875000D03*
X139775000Y-89525000D03*
X139775000Y-90175000D03*
X139775000Y-90825000D03*
X139775000Y-91475000D03*
X139775000Y-92125000D03*
X139775000Y-92775000D03*
X139775000Y-93425000D03*
X145500000Y-93425000D03*
X145500000Y-92775000D03*
X145500000Y-92125000D03*
X145500000Y-91475000D03*
X145500000Y-90825000D03*
X145500000Y-90175000D03*
X145500000Y-89525000D03*
X145500000Y-88875000D03*
X145500000Y-88225000D03*
X145500000Y-87575000D03*
%TD*%
D30*
%TO.C,R11*%
X141000000Y-112412500D03*
X141000000Y-110587500D03*
%TD*%
D12*
%TO.C,C3*%
X137137500Y-112520000D03*
X138862500Y-112520000D03*
%TD*%
D18*
%TO.C,Q1*%
X141500000Y-128000000D03*
D19*
X141500000Y-121700000D03*
D18*
X139200000Y-128000000D03*
X143800000Y-128000000D03*
%TD*%
D31*
%TO.C,J3*%
X122340000Y-117000000D03*
D32*
X124880000Y-117000000D03*
X127420000Y-117000000D03*
X129960000Y-117000000D03*
X132500000Y-117000000D03*
X135040000Y-117000000D03*
%TD*%
D33*
%TO.C,R5*%
X134000000Y-99437500D03*
X134000000Y-101262500D03*
%TD*%
D20*
%TO.C,C19*%
X133500000Y-90762500D03*
X133500000Y-92487500D03*
%TD*%
D15*
%TO.C,C10*%
X149862500Y-115000000D03*
X148137500Y-115000000D03*
%TD*%
D20*
%TO.C,C20*%
X135500000Y-90762500D03*
X135500000Y-92487500D03*
%TD*%
%TO.C,C7*%
X142500000Y-105137500D03*
X142500000Y-106862500D03*
%TD*%
D12*
%TO.C,C22*%
X131637500Y-86125000D03*
X133362500Y-86125000D03*
%TD*%
D34*
%TO.C,C1*%
X138000000Y-101212500D03*
X138000000Y-99487500D03*
%TD*%
D12*
%TO.C,C25*%
X146137500Y-97490000D03*
X147862500Y-97490000D03*
%TD*%
D30*
%TO.C,R6*%
X140000000Y-101262500D03*
X140000000Y-99437500D03*
%TD*%
D12*
%TO.C,C23*%
X131637500Y-88625000D03*
X133362500Y-88625000D03*
%TD*%
D10*
%TO.C,D1*%
X121625000Y-110500000D03*
X123375000Y-110500000D03*
%TD*%
D20*
%TO.C,C17*%
X129500000Y-90762500D03*
X129500000Y-92487500D03*
%TD*%
D17*
%TO.C,H1*%
X157600000Y-89400000D03*
%TD*%
%TO.C,H2*%
X157600000Y-125700000D03*
%TD*%
D33*
%TO.C,R4*%
X136000000Y-99437500D03*
X136000000Y-101262500D03*
%TD*%
D30*
%TO.C,R10*%
X144000000Y-111912500D03*
X144000000Y-110087500D03*
%TD*%
D20*
%TO.C,C18*%
X131500000Y-90762500D03*
X131500000Y-92487500D03*
%TD*%
D12*
%TO.C,C5*%
X148137500Y-108500000D03*
X149862500Y-108500000D03*
%TD*%
D10*
%TO.C,D3*%
X121625000Y-112500000D03*
X123375000Y-112500000D03*
%TD*%
D35*
%TO.C,Y1*%
X136500000Y-88503300D03*
X136500000Y-86496700D03*
%TD*%
D11*
%TO.C,R1*%
X126175000Y-110500000D03*
X128000000Y-110500000D03*
%TD*%
D36*
%TO.C,R3*%
X132500000Y-109450000D03*
X132500000Y-112550000D03*
%TD*%
D15*
%TO.C,C8*%
X149862500Y-119020000D03*
X148137500Y-119020000D03*
%TD*%
D12*
%TO.C,C24*%
X146137500Y-99500000D03*
X147862500Y-99500000D03*
%TD*%
D37*
%TO.C,IC1*%
X136500000Y-107850000D03*
X137000000Y-107850000D03*
X137500000Y-107850000D03*
X138000000Y-107850000D03*
X138500000Y-107850000D03*
X139000000Y-107850000D03*
D38*
X139675000Y-107175000D03*
X139675000Y-106675000D03*
X139675000Y-106175000D03*
X139675000Y-105675000D03*
X139675000Y-105175000D03*
X139675000Y-104675000D03*
D37*
X139000000Y-104000000D03*
X138500000Y-104000000D03*
X138000000Y-104000000D03*
X137500000Y-104000000D03*
X137000000Y-104000000D03*
X136500000Y-104000000D03*
D38*
X135825000Y-104675000D03*
X135825000Y-105175000D03*
X135825000Y-105675000D03*
X135825000Y-106175000D03*
X135825000Y-106675000D03*
X135825000Y-107175000D03*
D39*
X137750000Y-105925000D03*
%TD*%
D16*
%TO.C,R8*%
X142412500Y-96500000D03*
X140587500Y-96500000D03*
%TD*%
D11*
%TO.C,R7*%
X148087500Y-113000000D03*
X149912500Y-113000000D03*
%TD*%
D40*
%TO.C,U10*%
X149437500Y-104450000D03*
X149437500Y-102550000D03*
X147562500Y-103500000D03*
%TD*%
M02*
