%TF.GenerationSoftware,KiCad,Pcbnew,9.0.0*%
%TF.CreationDate,2025-08-18T11:13:34-07:00*%
%TF.ProjectId,USB_C_Simple_Trig,5553425f-435f-4536-996d-706c655f5472,rev?*%
%TF.SameCoordinates,Original*%
%TF.FileFunction,Copper,L4,Inr*%
%TF.FilePolarity,Positive*%
%FSLAX46Y46*%
G04 Gerber Fmt 4.6, Leading zero omitted, Abs format (unit mm)*
G04 Created by KiCad (PCBNEW 9.0.0) date 2025-08-18 11:13:34*
%MOMM*%
%LPD*%
G01*
G04 APERTURE LIST*
G04 Aperture macros list*
%AMRoundRect*
0 Rectangle with rounded corners*
0 $1 Rounding radius*
0 $2 $3 $4 $5 $6 $7 $8 $9 X,Y pos of 4 corners*
0 Add a 4 corners polygon primitive as box body*
4,1,4,$2,$3,$4,$5,$6,$7,$8,$9,$2,$3,0*
0 Add four circle primitives for the rounded corners*
1,1,$1+$1,$2,$3*
1,1,$1+$1,$4,$5*
1,1,$1+$1,$6,$7*
1,1,$1+$1,$8,$9*
0 Add four rect primitives between the rounded corners*
20,1,$1+$1,$2,$3,$4,$5,0*
20,1,$1+$1,$4,$5,$6,$7,0*
20,1,$1+$1,$6,$7,$8,$9,0*
20,1,$1+$1,$8,$9,$2,$3,0*%
G04 Aperture macros list end*
%TA.AperFunction,ComponentPad*%
%ADD10R,1.000000X1.000000*%
%TD*%
%TA.AperFunction,ComponentPad*%
%ADD11O,1.000000X1.000000*%
%TD*%
%TA.AperFunction,ComponentPad*%
%ADD12C,6.400000*%
%TD*%
%TA.AperFunction,ComponentPad*%
%ADD13C,2.000000*%
%TD*%
%TA.AperFunction,ComponentPad*%
%ADD14O,1.600200X1.016000*%
%TD*%
%TA.AperFunction,ComponentPad*%
%ADD15O,0.914400X1.193800*%
%TD*%
%TA.AperFunction,ComponentPad*%
%ADD16C,0.609600*%
%TD*%
%TA.AperFunction,ComponentPad*%
%ADD17RoundRect,0.250000X1.050000X-1.050000X1.050000X1.050000X-1.050000X1.050000X-1.050000X-1.050000X0*%
%TD*%
%TA.AperFunction,ComponentPad*%
%ADD18C,2.600000*%
%TD*%
%TA.AperFunction,ComponentPad*%
%ADD19R,1.700000X1.700000*%
%TD*%
%TA.AperFunction,ComponentPad*%
%ADD20O,1.700000X1.700000*%
%TD*%
%TA.AperFunction,ViaPad*%
%ADD21C,1.500000*%
%TD*%
%TA.AperFunction,ViaPad*%
%ADD22C,0.500000*%
%TD*%
%TA.AperFunction,ViaPad*%
%ADD23C,0.900000*%
%TD*%
%TA.AperFunction,ViaPad*%
%ADD24C,0.700000*%
%TD*%
G04 APERTURE END LIST*
D10*
%TO.N,+3V3*%
%TO.C,J4*%
X149375000Y-87920000D03*
D11*
%TO.N,/MCU/SWDIO*%
X150645000Y-87920000D03*
%TO.N,GND*%
X149375000Y-89190000D03*
%TO.N,/MCU/SWCLK*%
X150645000Y-89190000D03*
%TO.N,GND*%
X149375000Y-90460000D03*
%TO.N,unconnected-(J4-SWO{slash}TDO-Pad6)*%
X150645000Y-90460000D03*
%TO.N,unconnected-(J4-KEY-Pad7)*%
X149375000Y-91730000D03*
%TO.N,unconnected-(J4-NC{slash}TDI-Pad8)*%
X150645000Y-91730000D03*
%TO.N,GND*%
X149375000Y-93000000D03*
%TO.N,/MCU/NRST*%
X150645000Y-93000000D03*
%TD*%
D12*
%TO.N,GND*%
%TO.C,H4*%
X123100000Y-125700000D03*
%TD*%
D13*
%TO.N,GND*%
%TO.C,SW1*%
X135250000Y-121250000D03*
X135250000Y-127750000D03*
%TO.N,/MCU/NRST*%
X130750000Y-121250000D03*
X130750000Y-127750000D03*
%TD*%
D14*
%TO.N,N/C*%
%TO.C,J1*%
X124247400Y-96876201D03*
X119847400Y-96516199D03*
X124247400Y-105136199D03*
X119847400Y-105496201D03*
D15*
X125487400Y-104606200D03*
D16*
%TO.N,GND*%
X124837400Y-103806393D03*
%TO.N,unconnected-(J1-TX2+-PadB2)*%
X124137400Y-103406267D03*
%TO.N,unconnected-(J1-TX2--PadB3)*%
X124137400Y-102606141D03*
%TO.N,VBUS*%
X124837400Y-102206015D03*
%TO.N,/USB_C_IC/CC2*%
X124137400Y-101781389D03*
%TO.N,/USB_C_IC/data_+*%
X124837400Y-101418763D03*
%TO.N,/USB_C_IC/data_-*%
X124837400Y-100618637D03*
%TO.N,unconnected-(J1-SBU2-PadB8)*%
X124137400Y-100181011D03*
%TO.N,VBUS*%
X124837400Y-99806385D03*
%TO.N,unconnected-(J1-RX1--PadB10)*%
X124137400Y-99406259D03*
%TO.N,unconnected-(J1-RX1+-PadB11)*%
X124137400Y-98606133D03*
%TO.N,GND*%
X124837400Y-98206007D03*
%TD*%
D12*
%TO.N,GND*%
%TO.C,H3*%
X123100000Y-89400000D03*
%TD*%
D17*
%TO.N,VOUT*%
%TO.C,J2*%
X157000000Y-115000000D03*
D18*
X157000000Y-110000000D03*
%TO.N,GND*%
X157000000Y-105000000D03*
X157000000Y-100000000D03*
%TD*%
D19*
%TO.N,GND*%
%TO.C,J3*%
X122340000Y-117000000D03*
D20*
%TO.N,unconnected-(J3-Pin_2-Pad2)*%
X124880000Y-117000000D03*
%TO.N,unconnected-(J3-Pin_3-Pad3)*%
X127420000Y-117000000D03*
%TO.N,/MCU/UART_RX*%
X129960000Y-117000000D03*
%TO.N,/MCU/UART_TX*%
X132500000Y-117000000D03*
%TO.N,unconnected-(J3-Pin_6-Pad6)*%
X135040000Y-117000000D03*
%TD*%
D12*
%TO.N,GND*%
%TO.C,H1*%
X157600000Y-89400000D03*
%TD*%
%TO.N,GND*%
%TO.C,H2*%
X157600000Y-125700000D03*
%TD*%
D21*
%TO.N,VBUS*%
X134000000Y-110849000D03*
D22*
%TO.N,Net-(IC1-VOUT)*%
X135500000Y-111000000D03*
D21*
%TO.N,VBUS*%
X129500000Y-109400000D03*
%TO.N,Net-(IC1-VCC)*%
X130500000Y-113500000D03*
D22*
%TO.N,Net-(Q1-G)*%
X129000000Y-112708619D03*
D21*
%TO.N,Net-(IC1-VCC)*%
X146000000Y-125500000D03*
X143000000Y-129490674D03*
X145500000Y-129000000D03*
%TO.N,VOUT*%
X152000000Y-126000000D03*
X152000000Y-129991674D03*
X157000000Y-120500000D03*
X153500000Y-120500000D03*
X152500000Y-124000000D03*
%TO.N,Net-(Q1-D)*%
X140582114Y-129490674D03*
X145000000Y-121700000D03*
X149500000Y-125000000D03*
X141500000Y-119500000D03*
%TO.N,Net-(IC1-VCC)*%
X143800000Y-125000000D03*
X132500000Y-114500000D03*
D22*
%TO.N,/MCU/NRST*%
X120153000Y-113500000D03*
D21*
%TO.N,Net-(IC1-VCC)*%
X134912500Y-114087500D03*
D22*
%TO.N,GND*%
X126850000Y-98250000D03*
X125157898Y-103400000D03*
X150000000Y-107500000D03*
X126750000Y-97700000D03*
X126650000Y-105550000D03*
X141000000Y-99500000D03*
X123103000Y-104024270D03*
X151000000Y-105500000D03*
X127000000Y-104200000D03*
X136900000Y-93500000D03*
D21*
X144000000Y-119000000D03*
D22*
X123103000Y-103200000D03*
X126729529Y-103794375D03*
X120753000Y-111500000D03*
X137500000Y-109000000D03*
X137750000Y-105925000D03*
D23*
X127400000Y-97750000D03*
D22*
X123150000Y-97950000D03*
D21*
X142500000Y-114500000D03*
D22*
X128000000Y-92500000D03*
X125400000Y-106200000D03*
D24*
X131637500Y-87350000D03*
D23*
X127900000Y-98400000D03*
D22*
X141000000Y-106000000D03*
X126317576Y-97399866D03*
X123150000Y-98950000D03*
X149500000Y-97500000D03*
X126900000Y-104750000D03*
X135000000Y-100500000D03*
D21*
%TO.N,VBUS*%
X128500000Y-105000000D03*
X128500000Y-103850000D03*
D22*
X126946902Y-99679011D03*
%TO.N,+5V*%
X132500000Y-99500000D03*
X132500000Y-101000000D03*
X142500000Y-98500000D03*
X134500000Y-104500000D03*
X144654000Y-99000000D03*
X134000000Y-102725000D03*
%TO.N,+3V3*%
X142500000Y-97500000D03*
X142000000Y-88000000D03*
X145000000Y-97500000D03*
X148000000Y-88000000D03*
X146500000Y-86500000D03*
X141000000Y-89000000D03*
%TO.N,/MCU/STATUS_LED*%
X123000000Y-94400000D03*
X122602000Y-97000000D03*
%TO.N,Net-(IC1-LED)*%
X135500000Y-108000000D03*
X139689468Y-108423000D03*
X128750000Y-110500000D03*
X131900000Y-108000000D03*
%TO.N,Net-(IC1-VOUT)*%
X133825735Y-107522794D03*
%TO.N,/MCU/NRST*%
X142325735Y-86825735D03*
X130800000Y-124300000D03*
X140943236Y-90423265D03*
%TO.N,/MCU/I2C_SCL*%
X142500000Y-108423000D03*
X144077000Y-108000000D03*
%TO.N,Net-(Q1-G)*%
X130587500Y-106715442D03*
X131000000Y-118500000D03*
X131161000Y-115199000D03*
%TO.N,Net-(IC1-VCC)*%
X133825735Y-106674265D03*
X132500000Y-110650000D03*
%TO.N,/USB_C_IC/CC2*%
X125185202Y-94185201D03*
X126000000Y-94400000D03*
X122000000Y-94400000D03*
X130000000Y-101000000D03*
X132000000Y-102000000D03*
X135043015Y-101456985D03*
X120000000Y-98000000D03*
X124000000Y-93500000D03*
X127000000Y-96617201D03*
X130000000Y-99500000D03*
X120000000Y-101500000D03*
%TO.N,/USB_C_IC/data_-*%
X127774626Y-100833011D03*
%TO.N,/USB_C_IC/data_+*%
X127269003Y-101343698D03*
D21*
%TO.N,Net-(Q1-D)*%
X140500000Y-126000000D03*
X139500000Y-119500000D03*
%TD*%
%TA.AperFunction,Conductor*%
%TO.N,GND*%
G36*
X156552324Y-83000587D02*
G01*
X156585205Y-83001817D01*
X157016140Y-83017942D01*
X157025356Y-83018632D01*
X157484289Y-83070341D01*
X157493442Y-83071721D01*
X157947224Y-83157581D01*
X157956227Y-83159635D01*
X158402325Y-83279167D01*
X158411182Y-83281899D01*
X158847088Y-83434429D01*
X158855720Y-83437817D01*
X159279008Y-83622496D01*
X159287362Y-83626520D01*
X159695640Y-83842301D01*
X159703671Y-83846937D01*
X160094707Y-84092641D01*
X160102369Y-84097865D01*
X160473949Y-84372104D01*
X160481187Y-84377876D01*
X160831233Y-84679115D01*
X160838030Y-84685422D01*
X161164577Y-85011969D01*
X161170884Y-85018766D01*
X161472118Y-85368806D01*
X161477900Y-85376056D01*
X161752134Y-85747630D01*
X161757358Y-85755292D01*
X162003062Y-86146328D01*
X162007698Y-86154359D01*
X162223479Y-86562637D01*
X162227503Y-86570991D01*
X162412182Y-86994279D01*
X162415570Y-87002911D01*
X162568100Y-87438817D01*
X162570833Y-87447678D01*
X162690358Y-87893750D01*
X162692421Y-87902791D01*
X162778277Y-88356550D01*
X162779659Y-88365719D01*
X162831365Y-88824625D01*
X162832058Y-88833873D01*
X162849412Y-89297673D01*
X162849499Y-89302309D01*
X162849499Y-124439391D01*
X162849412Y-124444027D01*
X162832060Y-124907803D01*
X162831367Y-124917050D01*
X162779662Y-125375957D01*
X162778280Y-125385127D01*
X162692426Y-125838887D01*
X162690363Y-125847927D01*
X162570838Y-126294007D01*
X162568105Y-126302868D01*
X162415577Y-126738772D01*
X162412189Y-126747404D01*
X162227514Y-127170687D01*
X162223490Y-127179042D01*
X162007706Y-127587327D01*
X162003070Y-127595358D01*
X161757367Y-127986394D01*
X161752143Y-127994056D01*
X161477909Y-128365631D01*
X161472128Y-128372880D01*
X161170893Y-128722924D01*
X161164585Y-128729722D01*
X160838039Y-129056269D01*
X160831242Y-129062576D01*
X160481201Y-129363812D01*
X160473951Y-129369594D01*
X160102376Y-129643829D01*
X160094714Y-129649053D01*
X159703678Y-129894758D01*
X159695647Y-129899394D01*
X159287368Y-130115176D01*
X159279014Y-130119200D01*
X158855714Y-130303885D01*
X158847082Y-130307272D01*
X158411203Y-130459794D01*
X158402341Y-130462528D01*
X157956247Y-130582058D01*
X157947207Y-130584121D01*
X157493452Y-130669976D01*
X157484283Y-130671358D01*
X157025373Y-130723065D01*
X157016126Y-130723758D01*
X156553020Y-130741087D01*
X156548383Y-130741174D01*
X153223930Y-130741174D01*
X153156891Y-130721489D01*
X153111136Y-130668685D01*
X153101192Y-130599527D01*
X153113445Y-130560879D01*
X153158882Y-130471703D01*
X153158882Y-130471702D01*
X153158884Y-130471699D01*
X153219709Y-130284500D01*
X153229971Y-130219709D01*
X153250500Y-130090096D01*
X153250500Y-129893251D01*
X153219709Y-129698847D01*
X153184048Y-129589096D01*
X153158884Y-129511649D01*
X153158882Y-129511646D01*
X153158882Y-129511644D01*
X153086504Y-129369594D01*
X153069524Y-129336269D01*
X152953828Y-129177028D01*
X152814646Y-129037846D01*
X152655405Y-128922150D01*
X152601172Y-128894517D01*
X152480029Y-128832791D01*
X152292826Y-128771964D01*
X152098422Y-128741174D01*
X152098417Y-128741174D01*
X151901583Y-128741174D01*
X151901578Y-128741174D01*
X151707173Y-128771964D01*
X151519970Y-128832791D01*
X151344594Y-128922150D01*
X151292986Y-128959646D01*
X151185354Y-129037846D01*
X151185352Y-129037848D01*
X151185351Y-129037848D01*
X151046174Y-129177025D01*
X151046174Y-129177026D01*
X151046172Y-129177028D01*
X151019635Y-129213553D01*
X150930476Y-129336268D01*
X150841117Y-129511644D01*
X150780290Y-129698847D01*
X150749500Y-129893251D01*
X150749500Y-130090096D01*
X150780290Y-130284500D01*
X150841117Y-130471703D01*
X150886555Y-130560879D01*
X150899451Y-130629549D01*
X150873174Y-130694289D01*
X150816068Y-130734546D01*
X150776070Y-130741174D01*
X143787945Y-130741174D01*
X143720906Y-130721489D01*
X143675151Y-130668685D01*
X143665207Y-130599527D01*
X143694232Y-130535971D01*
X143715055Y-130516858D01*
X143814646Y-130444502D01*
X143953828Y-130305320D01*
X144069524Y-130146079D01*
X144158884Y-129970699D01*
X144219709Y-129783500D01*
X144227258Y-129735830D01*
X144257186Y-129672700D01*
X144316497Y-129635768D01*
X144386359Y-129636764D01*
X144444593Y-129675373D01*
X144450049Y-129682345D01*
X144546172Y-129814646D01*
X144685354Y-129953828D01*
X144844595Y-130069524D01*
X144927455Y-130111743D01*
X145019970Y-130158882D01*
X145019972Y-130158882D01*
X145019975Y-130158884D01*
X145120317Y-130191487D01*
X145207173Y-130219709D01*
X145401578Y-130250500D01*
X145401583Y-130250500D01*
X145598422Y-130250500D01*
X145792826Y-130219709D01*
X145980025Y-130158884D01*
X146155405Y-130069524D01*
X146314646Y-129953828D01*
X146453828Y-129814646D01*
X146569524Y-129655405D01*
X146658884Y-129480025D01*
X146719709Y-129292826D01*
X146726492Y-129250000D01*
X146750500Y-129098422D01*
X146750500Y-128901577D01*
X146719709Y-128707173D01*
X146664366Y-128536848D01*
X146658884Y-128519975D01*
X146658881Y-128519971D01*
X146658881Y-128519968D01*
X146646567Y-128495801D01*
X146646566Y-128495799D01*
X146569525Y-128344596D01*
X146552144Y-128320674D01*
X146453828Y-128185354D01*
X146314646Y-128046172D01*
X146155405Y-127930476D01*
X146108840Y-127906750D01*
X145980029Y-127841117D01*
X145792826Y-127780290D01*
X145598422Y-127749500D01*
X145598417Y-127749500D01*
X145401583Y-127749500D01*
X145401578Y-127749500D01*
X145207173Y-127780290D01*
X145019970Y-127841117D01*
X144844594Y-127930476D01*
X144757095Y-127994049D01*
X144685354Y-128046172D01*
X144685352Y-128046174D01*
X144685351Y-128046174D01*
X144546174Y-128185351D01*
X144546174Y-128185352D01*
X144546172Y-128185354D01*
X144542717Y-128190110D01*
X144430476Y-128344594D01*
X144341117Y-128519970D01*
X144280291Y-128707172D01*
X144272741Y-128754841D01*
X144242811Y-128817975D01*
X144183500Y-128854906D01*
X144113637Y-128853908D01*
X144055405Y-128815298D01*
X144049950Y-128808328D01*
X143953828Y-128676028D01*
X143814646Y-128536846D01*
X143655405Y-128421150D01*
X143480029Y-128331791D01*
X143292826Y-128270964D01*
X143098422Y-128240174D01*
X143098417Y-128240174D01*
X142901583Y-128240174D01*
X142901578Y-128240174D01*
X142707173Y-128270964D01*
X142519970Y-128331791D01*
X142344594Y-128421150D01*
X142253741Y-128487159D01*
X142185354Y-128536846D01*
X142185352Y-128536848D01*
X142185351Y-128536848D01*
X142046174Y-128676025D01*
X142046174Y-128676026D01*
X142046172Y-128676028D01*
X142007163Y-128729719D01*
X141930476Y-128835268D01*
X141901542Y-128892055D01*
X141853567Y-128942851D01*
X141785746Y-128959646D01*
X141719611Y-128937108D01*
X141680572Y-128892055D01*
X141661135Y-128853908D01*
X141651638Y-128835269D01*
X141535942Y-128676028D01*
X141396760Y-128536846D01*
X141237519Y-128421150D01*
X141062143Y-128331791D01*
X140874940Y-128270964D01*
X140680536Y-128240174D01*
X140680531Y-128240174D01*
X140483697Y-128240174D01*
X140483692Y-128240174D01*
X140289287Y-128270964D01*
X140102084Y-128331791D01*
X139926708Y-128421150D01*
X139835855Y-128487159D01*
X139767468Y-128536846D01*
X139767466Y-128536848D01*
X139767465Y-128536848D01*
X139628288Y-128676025D01*
X139628288Y-128676026D01*
X139628286Y-128676028D01*
X139589277Y-128729719D01*
X139512590Y-128835268D01*
X139423231Y-129010644D01*
X139362404Y-129197847D01*
X139331614Y-129392251D01*
X139331614Y-129589096D01*
X139362404Y-129783500D01*
X139423231Y-129970703D01*
X139504285Y-130129779D01*
X139512590Y-130146079D01*
X139628286Y-130305320D01*
X139767468Y-130444502D01*
X139867056Y-130516857D01*
X139909720Y-130572186D01*
X139915699Y-130641800D01*
X139883093Y-130703595D01*
X139822254Y-130737952D01*
X139794169Y-130741174D01*
X124260635Y-130741174D01*
X124255999Y-130741087D01*
X123792196Y-130723734D01*
X123782949Y-130723041D01*
X123324043Y-130671336D01*
X123314873Y-130669954D01*
X122861114Y-130584100D01*
X122852076Y-130582037D01*
X122608814Y-130516856D01*
X122405995Y-130462511D01*
X122397135Y-130459778D01*
X121961236Y-130307253D01*
X121952603Y-130303865D01*
X121529312Y-130119184D01*
X121520958Y-130115161D01*
X121112671Y-129899376D01*
X121104648Y-129894744D01*
X120713612Y-129649040D01*
X120705950Y-129643816D01*
X120461667Y-129463528D01*
X120334379Y-129369584D01*
X120327133Y-129363807D01*
X120295133Y-129336269D01*
X119977077Y-129062560D01*
X119970280Y-129056252D01*
X119643747Y-128729719D01*
X119637439Y-128722921D01*
X119463146Y-128520388D01*
X119463146Y-128520387D01*
X119336193Y-128372866D01*
X119330411Y-128365616D01*
X119314896Y-128344594D01*
X119056183Y-127994049D01*
X119050959Y-127986387D01*
X118805255Y-127595351D01*
X118800627Y-127587336D01*
X118584830Y-127179025D01*
X118580815Y-127170687D01*
X118454379Y-126880894D01*
X118396127Y-126747380D01*
X118392750Y-126738772D01*
X118240219Y-126302859D01*
X118237489Y-126294007D01*
X118117957Y-125847904D01*
X118115902Y-125838901D01*
X118055229Y-125518234D01*
X119400000Y-125518234D01*
X119400000Y-125881765D01*
X119435632Y-126243556D01*
X119506550Y-126600090D01*
X119506553Y-126600101D01*
X119612086Y-126947997D01*
X119751207Y-127283864D01*
X119751209Y-127283869D01*
X119922570Y-127604462D01*
X119922581Y-127604480D01*
X120124551Y-127906750D01*
X120311678Y-128134765D01*
X120311679Y-128134766D01*
X121805747Y-126640697D01*
X121879588Y-126742330D01*
X122057670Y-126920412D01*
X122159301Y-126994251D01*
X120665232Y-128488319D01*
X120665233Y-128488320D01*
X120893249Y-128675448D01*
X121195519Y-128877418D01*
X121195537Y-128877429D01*
X121516130Y-129048790D01*
X121516135Y-129048792D01*
X121852002Y-129187913D01*
X122199898Y-129293446D01*
X122199909Y-129293449D01*
X122556443Y-129364367D01*
X122918234Y-129400000D01*
X123281766Y-129400000D01*
X123643556Y-129364367D01*
X124000090Y-129293449D01*
X124000101Y-129293446D01*
X124347997Y-129187913D01*
X124683864Y-129048792D01*
X124683869Y-129048790D01*
X125004462Y-128877429D01*
X125004480Y-128877418D01*
X125306736Y-128675457D01*
X125306750Y-128675447D01*
X125534765Y-128488320D01*
X125534766Y-128488319D01*
X124040698Y-126994251D01*
X124142330Y-126920412D01*
X124320412Y-126742330D01*
X124394251Y-126640698D01*
X125888319Y-128134766D01*
X125888320Y-128134765D01*
X126075447Y-127906750D01*
X126075457Y-127906736D01*
X126259095Y-127631902D01*
X129249500Y-127631902D01*
X129249500Y-127868097D01*
X129286446Y-128101368D01*
X129359433Y-128325996D01*
X129442142Y-128488320D01*
X129466657Y-128536433D01*
X129605483Y-128727510D01*
X129772490Y-128894517D01*
X129963567Y-129033343D01*
X130020909Y-129062560D01*
X130174003Y-129140566D01*
X130174005Y-129140566D01*
X130174008Y-129140568D01*
X130286211Y-129177025D01*
X130398631Y-129213553D01*
X130631903Y-129250500D01*
X130631908Y-129250500D01*
X130868097Y-129250500D01*
X131101368Y-129213553D01*
X131102870Y-129213065D01*
X131325992Y-129140568D01*
X131536433Y-129033343D01*
X131727510Y-128894517D01*
X131894517Y-128727510D01*
X132033343Y-128536433D01*
X132140568Y-128325992D01*
X132213553Y-128101368D01*
X132222295Y-128046172D01*
X132250500Y-127868097D01*
X132250500Y-127631947D01*
X133750000Y-127631947D01*
X133750000Y-127868052D01*
X133786934Y-128101247D01*
X133859897Y-128325802D01*
X133967087Y-128536174D01*
X134027338Y-128619104D01*
X134027340Y-128619105D01*
X134726212Y-127920233D01*
X134737482Y-127962292D01*
X134809890Y-128087708D01*
X134912292Y-128190110D01*
X135037708Y-128262518D01*
X135079765Y-128273787D01*
X134380893Y-128972658D01*
X134463828Y-129032914D01*
X134674197Y-129140102D01*
X134898752Y-129213065D01*
X134898751Y-129213065D01*
X135131948Y-129250000D01*
X135368052Y-129250000D01*
X135601247Y-129213065D01*
X135825802Y-129140102D01*
X136036163Y-129032918D01*
X136036169Y-129032914D01*
X136119104Y-128972658D01*
X136119105Y-128972658D01*
X135420233Y-128273787D01*
X135462292Y-128262518D01*
X135587708Y-128190110D01*
X135690110Y-128087708D01*
X135762518Y-127962292D01*
X135773787Y-127920234D01*
X136472658Y-128619105D01*
X136472658Y-128619104D01*
X136532914Y-128536169D01*
X136532918Y-128536163D01*
X136640102Y-128325802D01*
X136713065Y-128101247D01*
X136750000Y-127868052D01*
X136750000Y-127631947D01*
X136713065Y-127398752D01*
X136640102Y-127174197D01*
X136532914Y-126963828D01*
X136472658Y-126880894D01*
X136472658Y-126880893D01*
X135773787Y-127579765D01*
X135762518Y-127537708D01*
X135690110Y-127412292D01*
X135587708Y-127309890D01*
X135462292Y-127237482D01*
X135420234Y-127226212D01*
X136119105Y-126527340D01*
X136119104Y-126527338D01*
X136036174Y-126467087D01*
X135825802Y-126359897D01*
X135601247Y-126286934D01*
X135601248Y-126286934D01*
X135368052Y-126250000D01*
X135131948Y-126250000D01*
X134898752Y-126286934D01*
X134674197Y-126359897D01*
X134463830Y-126467084D01*
X134380894Y-126527340D01*
X135079766Y-127226212D01*
X135037708Y-127237482D01*
X134912292Y-127309890D01*
X134809890Y-127412292D01*
X134737482Y-127537708D01*
X134726212Y-127579766D01*
X134027340Y-126880894D01*
X133967084Y-126963830D01*
X133859897Y-127174197D01*
X133786934Y-127398752D01*
X133750000Y-127631947D01*
X132250500Y-127631947D01*
X132250500Y-127631902D01*
X132213553Y-127398631D01*
X132176262Y-127283864D01*
X132140568Y-127174008D01*
X132140566Y-127174005D01*
X132140566Y-127174003D01*
X132033477Y-126963830D01*
X132033343Y-126963567D01*
X131894517Y-126772490D01*
X131727510Y-126605483D01*
X131536433Y-126466657D01*
X131511249Y-126453825D01*
X131325996Y-126359433D01*
X131101368Y-126286446D01*
X130868097Y-126249500D01*
X130868092Y-126249500D01*
X130631908Y-126249500D01*
X130631903Y-126249500D01*
X130398631Y-126286446D01*
X130174003Y-126359433D01*
X129963566Y-126466657D01*
X129880047Y-126527338D01*
X129772490Y-126605483D01*
X129772488Y-126605485D01*
X129772487Y-126605485D01*
X129605485Y-126772487D01*
X129605485Y-126772488D01*
X129605483Y-126772490D01*
X129545862Y-126854550D01*
X129466657Y-126963566D01*
X129359433Y-127174003D01*
X129286446Y-127398631D01*
X129249500Y-127631902D01*
X126259095Y-127631902D01*
X126277418Y-127604480D01*
X126277420Y-127604477D01*
X126296606Y-127568583D01*
X126296608Y-127568580D01*
X126448790Y-127283869D01*
X126448792Y-127283864D01*
X126587913Y-126947997D01*
X126693446Y-126600101D01*
X126693449Y-126600090D01*
X126764367Y-126243556D01*
X126798049Y-125901577D01*
X139249500Y-125901577D01*
X139249500Y-126098422D01*
X139280290Y-126292826D01*
X139341117Y-126480029D01*
X139430476Y-126655405D01*
X139546172Y-126814646D01*
X139685354Y-126953828D01*
X139844595Y-127069524D01*
X139927455Y-127111743D01*
X140019970Y-127158882D01*
X140019972Y-127158882D01*
X140019975Y-127158884D01*
X140069375Y-127174935D01*
X140207173Y-127219709D01*
X140401578Y-127250500D01*
X140401583Y-127250500D01*
X140598422Y-127250500D01*
X140792826Y-127219709D01*
X140980025Y-127158884D01*
X141155405Y-127069524D01*
X141314646Y-126953828D01*
X141453828Y-126814646D01*
X141569524Y-126655405D01*
X141658884Y-126480025D01*
X141719709Y-126292826D01*
X141720719Y-126286447D01*
X141750500Y-126098422D01*
X141750500Y-125901577D01*
X141719709Y-125707173D01*
X141684373Y-125598422D01*
X141658884Y-125519975D01*
X141658882Y-125519972D01*
X141658882Y-125519970D01*
X141611743Y-125427455D01*
X141569524Y-125344595D01*
X141453828Y-125185354D01*
X141314646Y-125046172D01*
X141155405Y-124930476D01*
X141129055Y-124917050D01*
X141098688Y-124901577D01*
X142549500Y-124901577D01*
X142549500Y-125098422D01*
X142580290Y-125292826D01*
X142641117Y-125480029D01*
X142701439Y-125598417D01*
X142730476Y-125655405D01*
X142846172Y-125814646D01*
X142985354Y-125953828D01*
X143144595Y-126069524D01*
X143201301Y-126098417D01*
X143319970Y-126158882D01*
X143319972Y-126158882D01*
X143319975Y-126158884D01*
X143420317Y-126191487D01*
X143507173Y-126219709D01*
X143701578Y-126250500D01*
X143701583Y-126250500D01*
X143898422Y-126250500D01*
X144092826Y-126219709D01*
X144280025Y-126158884D01*
X144455405Y-126069524D01*
X144614646Y-125953828D01*
X144636070Y-125932403D01*
X144697390Y-125898918D01*
X144767082Y-125903901D01*
X144823017Y-125945772D01*
X144838591Y-125975806D01*
X144839255Y-125975532D01*
X144841115Y-125980023D01*
X144841116Y-125980025D01*
X144930476Y-126155405D01*
X145046172Y-126314646D01*
X145185354Y-126453828D01*
X145344595Y-126569524D01*
X145404585Y-126600090D01*
X145519970Y-126658882D01*
X145519972Y-126658882D01*
X145519975Y-126658884D01*
X145620317Y-126691487D01*
X145707173Y-126719709D01*
X145901578Y-126750500D01*
X145901583Y-126750500D01*
X146098422Y-126750500D01*
X146292826Y-126719709D01*
X146480025Y-126658884D01*
X146655405Y-126569524D01*
X146814646Y-126453828D01*
X146953828Y-126314646D01*
X147069524Y-126155405D01*
X147158884Y-125980025D01*
X147219709Y-125792826D01*
X147234411Y-125700000D01*
X147250500Y-125598422D01*
X147250500Y-125401577D01*
X147219709Y-125207173D01*
X147184373Y-125098421D01*
X147158884Y-125019975D01*
X147158882Y-125019972D01*
X147158882Y-125019970D01*
X147124762Y-124953006D01*
X147098561Y-124901583D01*
X147098558Y-124901577D01*
X148249500Y-124901577D01*
X148249500Y-125098422D01*
X148280290Y-125292826D01*
X148341117Y-125480029D01*
X148401439Y-125598417D01*
X148430476Y-125655405D01*
X148546172Y-125814646D01*
X148685354Y-125953828D01*
X148844595Y-126069524D01*
X148901301Y-126098417D01*
X149019970Y-126158882D01*
X149019972Y-126158882D01*
X149019975Y-126158884D01*
X149120317Y-126191487D01*
X149207173Y-126219709D01*
X149401578Y-126250500D01*
X149401583Y-126250500D01*
X149598422Y-126250500D01*
X149792826Y-126219709D01*
X149980025Y-126158884D01*
X150155405Y-126069524D01*
X150314646Y-125953828D01*
X150453828Y-125814646D01*
X150545943Y-125687861D01*
X150601272Y-125645197D01*
X150670886Y-125639218D01*
X150732681Y-125671824D01*
X150767038Y-125732663D01*
X150768733Y-125780146D01*
X150749500Y-125901577D01*
X150749500Y-126098422D01*
X150780290Y-126292826D01*
X150841117Y-126480029D01*
X150930476Y-126655405D01*
X151046172Y-126814646D01*
X151185354Y-126953828D01*
X151344595Y-127069524D01*
X151427455Y-127111743D01*
X151519970Y-127158882D01*
X151519972Y-127158882D01*
X151519975Y-127158884D01*
X151569375Y-127174935D01*
X151707173Y-127219709D01*
X151901578Y-127250500D01*
X151901583Y-127250500D01*
X152098422Y-127250500D01*
X152292826Y-127219709D01*
X152480025Y-127158884D01*
X152655405Y-127069524D01*
X152814646Y-126953828D01*
X152953828Y-126814646D01*
X153069524Y-126655405D01*
X153158884Y-126480025D01*
X153219709Y-126292826D01*
X153220719Y-126286447D01*
X153250500Y-126098422D01*
X153250500Y-125901577D01*
X153219709Y-125707173D01*
X153199571Y-125645197D01*
X153158884Y-125519975D01*
X153157997Y-125518234D01*
X153900000Y-125518234D01*
X153900000Y-125881765D01*
X153935632Y-126243556D01*
X154006550Y-126600090D01*
X154006553Y-126600101D01*
X154112086Y-126947997D01*
X154251207Y-127283864D01*
X154251209Y-127283869D01*
X154422570Y-127604462D01*
X154422581Y-127604480D01*
X154624551Y-127906750D01*
X154811678Y-128134765D01*
X154811679Y-128134766D01*
X156305747Y-126640697D01*
X156379588Y-126742330D01*
X156557670Y-126920412D01*
X156659301Y-126994251D01*
X155165232Y-128488319D01*
X155165233Y-128488320D01*
X155393249Y-128675448D01*
X155695519Y-128877418D01*
X155695537Y-128877429D01*
X156016130Y-129048790D01*
X156016135Y-129048792D01*
X156352002Y-129187913D01*
X156699898Y-129293446D01*
X156699909Y-129293449D01*
X157056443Y-129364367D01*
X157418234Y-129400000D01*
X157781766Y-129400000D01*
X158143556Y-129364367D01*
X158500090Y-129293449D01*
X158500101Y-129293446D01*
X158847997Y-129187913D01*
X159183864Y-129048792D01*
X159183869Y-129048790D01*
X159504462Y-128877429D01*
X159504480Y-128877418D01*
X159806736Y-128675457D01*
X159806750Y-128675447D01*
X160034765Y-128488320D01*
X160034766Y-128488319D01*
X158540698Y-126994251D01*
X158642330Y-126920412D01*
X158820412Y-126742330D01*
X158894251Y-126640698D01*
X160388319Y-128134766D01*
X160388320Y-128134765D01*
X160575447Y-127906750D01*
X160575457Y-127906736D01*
X160777418Y-127604480D01*
X160777429Y-127604462D01*
X160948790Y-127283869D01*
X160948792Y-127283864D01*
X161087913Y-126947997D01*
X161193446Y-126600101D01*
X161193449Y-126600090D01*
X161264367Y-126243556D01*
X161300000Y-125881765D01*
X161300000Y-125518234D01*
X161264367Y-125156443D01*
X161193449Y-124799909D01*
X161193446Y-124799898D01*
X161087913Y-124452002D01*
X160948792Y-124116135D01*
X160948790Y-124116130D01*
X160777429Y-123795537D01*
X160777418Y-123795519D01*
X160575448Y-123493249D01*
X160388320Y-123265233D01*
X160388319Y-123265232D01*
X158894251Y-124759300D01*
X158820412Y-124657670D01*
X158642330Y-124479588D01*
X158540698Y-124405748D01*
X160034766Y-122911679D01*
X160034765Y-122911678D01*
X159806750Y-122724551D01*
X159504480Y-122522581D01*
X159504462Y-122522570D01*
X159183869Y-122351209D01*
X159183864Y-122351207D01*
X158847997Y-122212086D01*
X158500101Y-122106553D01*
X158500090Y-122106550D01*
X158143556Y-122035632D01*
X157781766Y-122000000D01*
X157418234Y-122000000D01*
X157056443Y-122035632D01*
X156699909Y-122106550D01*
X156699898Y-122106553D01*
X156352002Y-122212086D01*
X156016135Y-122351207D01*
X156016130Y-122351209D01*
X155695537Y-122522570D01*
X155695519Y-122522581D01*
X155393258Y-122724545D01*
X155393254Y-122724548D01*
X155165233Y-122911679D01*
X155165233Y-122911680D01*
X156659301Y-124405748D01*
X156557670Y-124479588D01*
X156379588Y-124657670D01*
X156305748Y-124759301D01*
X154811680Y-123265233D01*
X154811679Y-123265233D01*
X154624548Y-123493254D01*
X154624545Y-123493258D01*
X154422581Y-123795519D01*
X154422570Y-123795537D01*
X154251209Y-124116130D01*
X154251207Y-124116135D01*
X154112086Y-124452002D01*
X154006553Y-124799898D01*
X154006550Y-124799909D01*
X153935632Y-125156443D01*
X153900000Y-125518234D01*
X153157997Y-125518234D01*
X153069524Y-125344595D01*
X153069522Y-125344592D01*
X153069521Y-125344590D01*
X153032209Y-125293235D01*
X153008728Y-125227429D01*
X153024553Y-125159375D01*
X153074658Y-125110680D01*
X153076187Y-125109887D01*
X153155405Y-125069524D01*
X153314646Y-124953828D01*
X153453828Y-124814646D01*
X153569524Y-124655405D01*
X153658884Y-124480025D01*
X153719709Y-124292826D01*
X153721694Y-124280291D01*
X153750500Y-124098422D01*
X153750500Y-123901577D01*
X153719709Y-123707173D01*
X153658882Y-123519970D01*
X153569523Y-123344594D01*
X153453828Y-123185354D01*
X153314646Y-123046172D01*
X153155405Y-122930476D01*
X152980029Y-122841117D01*
X152792826Y-122780290D01*
X152598422Y-122749500D01*
X152598417Y-122749500D01*
X152401583Y-122749500D01*
X152401578Y-122749500D01*
X152207173Y-122780290D01*
X152019970Y-122841117D01*
X151844594Y-122930476D01*
X151817034Y-122950500D01*
X151685354Y-123046172D01*
X151685352Y-123046174D01*
X151685351Y-123046174D01*
X151546174Y-123185351D01*
X151546174Y-123185352D01*
X151546172Y-123185354D01*
X151496485Y-123253741D01*
X151430476Y-123344594D01*
X151341117Y-123519970D01*
X151280290Y-123707173D01*
X151249500Y-123901577D01*
X151249500Y-124098422D01*
X151280290Y-124292826D01*
X151341117Y-124480029D01*
X151402797Y-124601082D01*
X151430476Y-124655405D01*
X151464627Y-124702410D01*
X151467791Y-124706764D01*
X151491271Y-124772570D01*
X151475446Y-124840624D01*
X151425340Y-124889319D01*
X151423768Y-124890135D01*
X151344594Y-124930476D01*
X151296961Y-124965084D01*
X151185354Y-125046172D01*
X151185352Y-125046174D01*
X151185351Y-125046174D01*
X151046171Y-125185354D01*
X150954056Y-125312138D01*
X150898726Y-125354803D01*
X150829112Y-125360781D01*
X150767318Y-125328174D01*
X150732961Y-125267335D01*
X150731266Y-125219856D01*
X150748687Y-125109864D01*
X150750500Y-125098421D01*
X150750500Y-124901577D01*
X150719709Y-124707173D01*
X150667397Y-124546175D01*
X150658884Y-124519975D01*
X150658882Y-124519972D01*
X150658882Y-124519970D01*
X150585411Y-124375776D01*
X150569524Y-124344595D01*
X150453828Y-124185354D01*
X150314646Y-124046172D01*
X150155405Y-123930476D01*
X149980029Y-123841117D01*
X149792826Y-123780290D01*
X149598422Y-123749500D01*
X149598417Y-123749500D01*
X149401583Y-123749500D01*
X149401578Y-123749500D01*
X149207173Y-123780290D01*
X149019970Y-123841117D01*
X148844594Y-123930476D01*
X148753741Y-123996485D01*
X148685354Y-124046172D01*
X148685352Y-124046174D01*
X148685351Y-124046174D01*
X148546174Y-124185351D01*
X148546174Y-124185352D01*
X148546172Y-124185354D01*
X148516581Y-124226082D01*
X148430476Y-124344594D01*
X148341117Y-124519970D01*
X148280290Y-124707173D01*
X148249500Y-124901577D01*
X147098558Y-124901577D01*
X147069524Y-124844595D01*
X146953828Y-124685354D01*
X146814646Y-124546172D01*
X146655405Y-124430476D01*
X146480029Y-124341117D01*
X146292826Y-124280290D01*
X146098422Y-124249500D01*
X146098417Y-124249500D01*
X145901583Y-124249500D01*
X145901578Y-124249500D01*
X145707173Y-124280290D01*
X145519970Y-124341117D01*
X145344594Y-124430476D01*
X145253741Y-124496485D01*
X145185354Y-124546172D01*
X145185352Y-124546174D01*
X145185350Y-124546175D01*
X145163927Y-124567598D01*
X145102604Y-124601082D01*
X145032912Y-124596096D01*
X144976979Y-124554223D01*
X144961411Y-124524192D01*
X144960745Y-124524468D01*
X144958884Y-124519976D01*
X144958884Y-124519975D01*
X144869524Y-124344595D01*
X144753828Y-124185354D01*
X144614646Y-124046172D01*
X144455405Y-123930476D01*
X144280029Y-123841117D01*
X144092826Y-123780290D01*
X143898422Y-123749500D01*
X143898417Y-123749500D01*
X143701583Y-123749500D01*
X143701578Y-123749500D01*
X143507173Y-123780290D01*
X143319970Y-123841117D01*
X143144594Y-123930476D01*
X143053741Y-123996485D01*
X142985354Y-124046172D01*
X142985352Y-124046174D01*
X142985351Y-124046174D01*
X142846174Y-124185351D01*
X142846174Y-124185352D01*
X142846172Y-124185354D01*
X142816581Y-124226082D01*
X142730476Y-124344594D01*
X142641117Y-124519970D01*
X142580290Y-124707173D01*
X142549500Y-124901577D01*
X141098688Y-124901577D01*
X140980029Y-124841117D01*
X140792826Y-124780290D01*
X140598422Y-124749500D01*
X140598417Y-124749500D01*
X140401583Y-124749500D01*
X140401578Y-124749500D01*
X140207173Y-124780290D01*
X140019970Y-124841117D01*
X139844594Y-124930476D01*
X139796961Y-124965084D01*
X139685354Y-125046172D01*
X139685352Y-125046174D01*
X139685351Y-125046174D01*
X139546174Y-125185351D01*
X139546174Y-125185352D01*
X139546172Y-125185354D01*
X139530319Y-125207174D01*
X139430476Y-125344594D01*
X139341117Y-125519970D01*
X139280290Y-125707173D01*
X139249500Y-125901577D01*
X126798049Y-125901577D01*
X126799725Y-125884557D01*
X126799725Y-125884555D01*
X126800000Y-125881763D01*
X126800000Y-125518234D01*
X126764367Y-125156443D01*
X126693449Y-124799909D01*
X126693446Y-124799898D01*
X126587913Y-124452002D01*
X126555570Y-124373920D01*
X130049499Y-124373920D01*
X130078340Y-124518907D01*
X130078343Y-124518917D01*
X130134912Y-124655488D01*
X130134919Y-124655501D01*
X130217048Y-124778415D01*
X130217051Y-124778419D01*
X130321580Y-124882948D01*
X130321584Y-124882951D01*
X130444498Y-124965080D01*
X130444511Y-124965087D01*
X130521627Y-124997029D01*
X130581087Y-125021658D01*
X130581091Y-125021658D01*
X130581092Y-125021659D01*
X130726079Y-125050500D01*
X130726082Y-125050500D01*
X130873920Y-125050500D01*
X130971462Y-125031096D01*
X131018913Y-125021658D01*
X131155495Y-124965084D01*
X131278416Y-124882951D01*
X131382951Y-124778416D01*
X131465084Y-124655495D01*
X131521658Y-124518913D01*
X131537476Y-124439391D01*
X131550500Y-124373920D01*
X131550500Y-124226079D01*
X131521659Y-124081092D01*
X131521658Y-124081091D01*
X131521658Y-124081087D01*
X131507196Y-124046172D01*
X131465087Y-123944511D01*
X131465080Y-123944498D01*
X131382951Y-123821584D01*
X131382948Y-123821580D01*
X131278419Y-123717051D01*
X131278415Y-123717048D01*
X131155501Y-123634919D01*
X131155488Y-123634912D01*
X131018917Y-123578343D01*
X131018907Y-123578340D01*
X130873920Y-123549500D01*
X130873918Y-123549500D01*
X130726082Y-123549500D01*
X130726080Y-123549500D01*
X130581092Y-123578340D01*
X130581082Y-123578343D01*
X130444511Y-123634912D01*
X130444498Y-123634919D01*
X130321584Y-123717048D01*
X130321580Y-123717051D01*
X130217051Y-123821580D01*
X130217048Y-123821584D01*
X130134919Y-123944498D01*
X130134912Y-123944511D01*
X130078343Y-124081082D01*
X130078340Y-124081092D01*
X130049500Y-124226079D01*
X130049500Y-124226082D01*
X130049500Y-124373918D01*
X130049500Y-124373920D01*
X130049499Y-124373920D01*
X126555570Y-124373920D01*
X126511466Y-124267443D01*
X126448792Y-124116135D01*
X126448790Y-124116130D01*
X126277429Y-123795537D01*
X126277418Y-123795519D01*
X126075448Y-123493249D01*
X125888320Y-123265233D01*
X125888319Y-123265232D01*
X124394251Y-124759300D01*
X124320412Y-124657670D01*
X124142330Y-124479588D01*
X124040698Y-124405748D01*
X125534766Y-122911679D01*
X125534765Y-122911678D01*
X125306750Y-122724551D01*
X125004480Y-122522581D01*
X125004462Y-122522570D01*
X124683869Y-122351209D01*
X124683864Y-122351207D01*
X124347997Y-122212086D01*
X124000101Y-122106553D01*
X124000090Y-122106550D01*
X123643556Y-122035632D01*
X123281766Y-122000000D01*
X122918234Y-122000000D01*
X122556443Y-122035632D01*
X122199909Y-122106550D01*
X122199898Y-122106553D01*
X121852002Y-122212086D01*
X121516135Y-122351207D01*
X121516130Y-122351209D01*
X121195537Y-122522570D01*
X121195519Y-122522581D01*
X120893258Y-122724545D01*
X120893254Y-122724548D01*
X120665233Y-122911679D01*
X120665233Y-122911680D01*
X122159301Y-124405748D01*
X122057670Y-124479588D01*
X121879588Y-124657670D01*
X121805748Y-124759301D01*
X120311680Y-123265233D01*
X120311679Y-123265233D01*
X120124548Y-123493254D01*
X120124545Y-123493258D01*
X119922581Y-123795519D01*
X119922570Y-123795537D01*
X119751209Y-124116130D01*
X119751207Y-124116135D01*
X119612086Y-124452002D01*
X119506553Y-124799898D01*
X119506550Y-124799909D01*
X119435632Y-125156443D01*
X119400000Y-125518234D01*
X118055229Y-125518234D01*
X118030044Y-125385124D01*
X118028663Y-125375956D01*
X118025130Y-125344595D01*
X117976956Y-124917036D01*
X117976266Y-124907817D01*
X117958913Y-124444001D01*
X117958826Y-124439365D01*
X117958826Y-121131902D01*
X129249500Y-121131902D01*
X129249500Y-121368097D01*
X129286446Y-121601368D01*
X129359433Y-121825996D01*
X129444438Y-121992826D01*
X129466657Y-122036433D01*
X129605483Y-122227510D01*
X129772490Y-122394517D01*
X129963567Y-122533343D01*
X130062991Y-122584002D01*
X130174003Y-122640566D01*
X130174005Y-122640566D01*
X130174008Y-122640568D01*
X130294412Y-122679689D01*
X130398631Y-122713553D01*
X130631903Y-122750500D01*
X130631908Y-122750500D01*
X130868097Y-122750500D01*
X131101368Y-122713553D01*
X131102870Y-122713065D01*
X131325992Y-122640568D01*
X131536433Y-122533343D01*
X131727510Y-122394517D01*
X131894517Y-122227510D01*
X132033343Y-122036433D01*
X132140568Y-121825992D01*
X132213553Y-121601368D01*
X132218597Y-121569523D01*
X132250500Y-121368097D01*
X132250500Y-121131947D01*
X133750000Y-121131947D01*
X133750000Y-121368052D01*
X133786934Y-121601247D01*
X133859897Y-121825802D01*
X133967087Y-122036174D01*
X134027338Y-122119104D01*
X134027340Y-122119105D01*
X134726212Y-121420233D01*
X134737482Y-121462292D01*
X134809890Y-121587708D01*
X134912292Y-121690110D01*
X135037708Y-121762518D01*
X135079765Y-121773787D01*
X134380893Y-122472658D01*
X134463828Y-122532914D01*
X134674197Y-122640102D01*
X134898752Y-122713065D01*
X134898751Y-122713065D01*
X135131948Y-122750000D01*
X135368052Y-122750000D01*
X135601247Y-122713065D01*
X135825802Y-122640102D01*
X136036163Y-122532918D01*
X136036169Y-122532914D01*
X136119104Y-122472658D01*
X136119105Y-122472658D01*
X135420233Y-121773787D01*
X135462292Y-121762518D01*
X135587708Y-121690110D01*
X135690110Y-121587708D01*
X135762518Y-121462292D01*
X135773787Y-121420234D01*
X136472658Y-122119105D01*
X136472658Y-122119104D01*
X136532914Y-122036169D01*
X136532918Y-122036163D01*
X136640102Y-121825802D01*
X136712958Y-121601577D01*
X143749500Y-121601577D01*
X143749500Y-121798422D01*
X143780290Y-121992826D01*
X143841117Y-122180029D01*
X143921464Y-122337718D01*
X143930476Y-122355405D01*
X144046172Y-122514646D01*
X144185354Y-122653828D01*
X144344595Y-122769524D01*
X144365725Y-122780290D01*
X144519970Y-122858882D01*
X144519972Y-122858882D01*
X144519975Y-122858884D01*
X144620317Y-122891487D01*
X144707173Y-122919709D01*
X144901578Y-122950500D01*
X144901583Y-122950500D01*
X145098422Y-122950500D01*
X145292826Y-122919709D01*
X145480025Y-122858884D01*
X145655405Y-122769524D01*
X145814646Y-122653828D01*
X145953828Y-122514646D01*
X146069524Y-122355405D01*
X146158884Y-122180025D01*
X146219709Y-121992826D01*
X146250500Y-121798422D01*
X146250500Y-121601577D01*
X146219709Y-121407173D01*
X146158882Y-121219970D01*
X146069523Y-121044594D01*
X146064520Y-121037708D01*
X145953828Y-120885354D01*
X145814646Y-120746172D01*
X145655405Y-120630476D01*
X145480029Y-120541117D01*
X145438453Y-120527608D01*
X145374928Y-120506967D01*
X145292826Y-120480290D01*
X145098422Y-120449500D01*
X145098417Y-120449500D01*
X144901583Y-120449500D01*
X144901578Y-120449500D01*
X144707173Y-120480290D01*
X144519970Y-120541117D01*
X144344594Y-120630476D01*
X144253741Y-120696485D01*
X144185354Y-120746172D01*
X144185352Y-120746174D01*
X144185351Y-120746174D01*
X144046174Y-120885351D01*
X144046174Y-120885352D01*
X144046172Y-120885354D01*
X143996485Y-120953741D01*
X143930476Y-121044594D01*
X143841117Y-121219970D01*
X143780290Y-121407173D01*
X143749500Y-121601577D01*
X136712958Y-121601577D01*
X136713065Y-121601249D01*
X136716857Y-121577311D01*
X136716857Y-121577309D01*
X136750000Y-121368053D01*
X136750000Y-121131947D01*
X136713065Y-120898752D01*
X136640102Y-120674197D01*
X136532914Y-120463828D01*
X136472658Y-120380894D01*
X136472658Y-120380893D01*
X135773787Y-121079765D01*
X135762518Y-121037708D01*
X135690110Y-120912292D01*
X135587708Y-120809890D01*
X135462292Y-120737482D01*
X135420234Y-120726212D01*
X136119105Y-120027340D01*
X136119104Y-120027338D01*
X136036174Y-119967087D01*
X135825802Y-119859897D01*
X135601247Y-119786934D01*
X135601248Y-119786934D01*
X135368052Y-119750000D01*
X135131948Y-119750000D01*
X134898752Y-119786934D01*
X134674197Y-119859897D01*
X134463830Y-119967084D01*
X134380894Y-120027340D01*
X135079766Y-120726212D01*
X135037708Y-120737482D01*
X134912292Y-120809890D01*
X134809890Y-120912292D01*
X134737482Y-121037708D01*
X134726212Y-121079766D01*
X134027340Y-120380894D01*
X133967084Y-120463830D01*
X133859897Y-120674197D01*
X133786934Y-120898752D01*
X133750000Y-121131947D01*
X132250500Y-121131947D01*
X132250500Y-121131902D01*
X132213553Y-120898631D01*
X132164016Y-120746174D01*
X132140568Y-120674008D01*
X132140566Y-120674005D01*
X132140566Y-120674003D01*
X132041864Y-120480291D01*
X132033343Y-120463567D01*
X131894517Y-120272490D01*
X131727510Y-120105483D01*
X131536433Y-119966657D01*
X131325996Y-119859433D01*
X131101368Y-119786446D01*
X130868097Y-119749500D01*
X130868092Y-119749500D01*
X130631908Y-119749500D01*
X130631903Y-119749500D01*
X130398631Y-119786446D01*
X130174003Y-119859433D01*
X129963566Y-119966657D01*
X129890188Y-120019970D01*
X129772490Y-120105483D01*
X129772488Y-120105485D01*
X129772487Y-120105485D01*
X129605485Y-120272487D01*
X129605485Y-120272488D01*
X129605483Y-120272490D01*
X129569025Y-120322670D01*
X129466657Y-120463566D01*
X129359433Y-120674003D01*
X129286446Y-120898631D01*
X129249500Y-121131902D01*
X117958826Y-121131902D01*
X117958826Y-119401577D01*
X138249500Y-119401577D01*
X138249500Y-119598422D01*
X138280290Y-119792826D01*
X138341117Y-119980029D01*
X138430476Y-120155405D01*
X138546172Y-120314646D01*
X138685354Y-120453828D01*
X138844595Y-120569524D01*
X138901301Y-120598417D01*
X139019970Y-120658882D01*
X139019972Y-120658882D01*
X139019975Y-120658884D01*
X139120317Y-120691487D01*
X139207173Y-120719709D01*
X139401578Y-120750500D01*
X139401583Y-120750500D01*
X139598422Y-120750500D01*
X139792826Y-120719709D01*
X139980025Y-120658884D01*
X140155405Y-120569524D01*
X140314646Y-120453828D01*
X140412319Y-120356155D01*
X140473642Y-120322670D01*
X140543334Y-120327654D01*
X140587681Y-120356155D01*
X140685354Y-120453828D01*
X140844595Y-120569524D01*
X140901301Y-120598417D01*
X141019970Y-120658882D01*
X141019972Y-120658882D01*
X141019975Y-120658884D01*
X141120317Y-120691487D01*
X141207173Y-120719709D01*
X141401578Y-120750500D01*
X141401583Y-120750500D01*
X141598422Y-120750500D01*
X141792826Y-120719709D01*
X141980025Y-120658884D01*
X142155405Y-120569524D01*
X142314646Y-120453828D01*
X142366897Y-120401577D01*
X152249500Y-120401577D01*
X152249500Y-120598422D01*
X152280290Y-120792826D01*
X152341117Y-120980029D01*
X152430476Y-121155405D01*
X152546172Y-121314646D01*
X152685354Y-121453828D01*
X152844595Y-121569524D01*
X152906859Y-121601249D01*
X153019970Y-121658882D01*
X153019972Y-121658882D01*
X153019975Y-121658884D01*
X153116078Y-121690110D01*
X153207173Y-121719709D01*
X153401578Y-121750500D01*
X153401583Y-121750500D01*
X153598422Y-121750500D01*
X153792826Y-121719709D01*
X153980025Y-121658884D01*
X154155405Y-121569524D01*
X154314646Y-121453828D01*
X154453828Y-121314646D01*
X154569524Y-121155405D01*
X154658884Y-120980025D01*
X154719709Y-120792826D01*
X154728475Y-120737482D01*
X154750500Y-120598422D01*
X154750500Y-120401577D01*
X155749500Y-120401577D01*
X155749500Y-120598422D01*
X155780290Y-120792826D01*
X155841117Y-120980029D01*
X155930476Y-121155405D01*
X156046172Y-121314646D01*
X156185354Y-121453828D01*
X156344595Y-121569524D01*
X156406859Y-121601249D01*
X156519970Y-121658882D01*
X156519972Y-121658882D01*
X156519975Y-121658884D01*
X156616078Y-121690110D01*
X156707173Y-121719709D01*
X156901578Y-121750500D01*
X156901583Y-121750500D01*
X157098422Y-121750500D01*
X157292826Y-121719709D01*
X157480025Y-121658884D01*
X157655405Y-121569524D01*
X157814646Y-121453828D01*
X157953828Y-121314646D01*
X158069524Y-121155405D01*
X158158884Y-120980025D01*
X158219709Y-120792826D01*
X158228475Y-120737482D01*
X158250500Y-120598422D01*
X158250500Y-120401577D01*
X158219709Y-120207173D01*
X158158882Y-120019970D01*
X158111743Y-119927455D01*
X158069524Y-119844595D01*
X157953828Y-119685354D01*
X157814646Y-119546172D01*
X157655405Y-119430476D01*
X157480029Y-119341117D01*
X157292826Y-119280290D01*
X157098422Y-119249500D01*
X157098417Y-119249500D01*
X156901583Y-119249500D01*
X156901578Y-119249500D01*
X156707173Y-119280290D01*
X156519970Y-119341117D01*
X156344594Y-119430476D01*
X156253741Y-119496485D01*
X156185354Y-119546172D01*
X156185352Y-119546174D01*
X156185351Y-119546174D01*
X156046174Y-119685351D01*
X156046174Y-119685352D01*
X156046172Y-119685354D01*
X155999567Y-119749500D01*
X155930476Y-119844594D01*
X155841117Y-120019970D01*
X155780290Y-120207173D01*
X155749500Y-120401577D01*
X154750500Y-120401577D01*
X154719709Y-120207173D01*
X154658882Y-120019970D01*
X154611743Y-119927455D01*
X154569524Y-119844595D01*
X154453828Y-119685354D01*
X154314646Y-119546172D01*
X154155405Y-119430476D01*
X153980029Y-119341117D01*
X153792826Y-119280290D01*
X153598422Y-119249500D01*
X153598417Y-119249500D01*
X153401583Y-119249500D01*
X153401578Y-119249500D01*
X153207173Y-119280290D01*
X153019970Y-119341117D01*
X152844594Y-119430476D01*
X152753741Y-119496485D01*
X152685354Y-119546172D01*
X152685352Y-119546174D01*
X152685351Y-119546174D01*
X152546174Y-119685351D01*
X152546174Y-119685352D01*
X152546172Y-119685354D01*
X152499567Y-119749500D01*
X152430476Y-119844594D01*
X152341117Y-120019970D01*
X152280290Y-120207173D01*
X152249500Y-120401577D01*
X142366897Y-120401577D01*
X142453828Y-120314646D01*
X142569524Y-120155405D01*
X142658884Y-119980025D01*
X142719709Y-119792826D01*
X142720719Y-119786447D01*
X142750500Y-119598422D01*
X142750500Y-119401577D01*
X142719709Y-119207173D01*
X142658882Y-119019970D01*
X142611743Y-118927455D01*
X142569524Y-118844595D01*
X142453828Y-118685354D01*
X142314646Y-118546172D01*
X142155405Y-118430476D01*
X142091946Y-118398142D01*
X141980029Y-118341117D01*
X141792826Y-118280290D01*
X141598422Y-118249500D01*
X141598417Y-118249500D01*
X141401583Y-118249500D01*
X141401578Y-118249500D01*
X141207173Y-118280290D01*
X141019970Y-118341117D01*
X140844594Y-118430476D01*
X140797224Y-118464893D01*
X140685354Y-118546172D01*
X140685352Y-118546174D01*
X140685351Y-118546174D01*
X140587681Y-118643845D01*
X140526358Y-118677330D01*
X140456666Y-118672346D01*
X140412319Y-118643845D01*
X140314648Y-118546174D01*
X140314646Y-118546172D01*
X140155405Y-118430476D01*
X140091946Y-118398142D01*
X139980029Y-118341117D01*
X139792826Y-118280290D01*
X139598422Y-118249500D01*
X139598417Y-118249500D01*
X139401583Y-118249500D01*
X139401578Y-118249500D01*
X139207173Y-118280290D01*
X139019970Y-118341117D01*
X138844594Y-118430476D01*
X138797224Y-118464893D01*
X138685354Y-118546172D01*
X138685352Y-118546174D01*
X138685351Y-118546174D01*
X138546174Y-118685351D01*
X138546174Y-118685352D01*
X138546172Y-118685354D01*
X138521794Y-118718907D01*
X138430476Y-118844594D01*
X138341117Y-119019970D01*
X138280290Y-119207173D01*
X138249500Y-119401577D01*
X117958826Y-119401577D01*
X117958826Y-116102155D01*
X120990000Y-116102155D01*
X120990000Y-116750000D01*
X121906988Y-116750000D01*
X121874075Y-116807007D01*
X121840000Y-116934174D01*
X121840000Y-117065826D01*
X121874075Y-117192993D01*
X121906988Y-117250000D01*
X120990000Y-117250000D01*
X120990000Y-117897844D01*
X120996401Y-117957372D01*
X120996403Y-117957379D01*
X121046645Y-118092086D01*
X121046649Y-118092093D01*
X121132809Y-118207187D01*
X121132812Y-118207190D01*
X121247906Y-118293350D01*
X121247913Y-118293354D01*
X121382620Y-118343596D01*
X121382627Y-118343598D01*
X121442155Y-118349999D01*
X121442172Y-118350000D01*
X122090000Y-118350000D01*
X122090000Y-117433012D01*
X122147007Y-117465925D01*
X122274174Y-117500000D01*
X122405826Y-117500000D01*
X122532993Y-117465925D01*
X122590000Y-117433012D01*
X122590000Y-118350000D01*
X123237828Y-118350000D01*
X123237844Y-118349999D01*
X123297372Y-118343598D01*
X123297379Y-118343596D01*
X123432086Y-118293354D01*
X123432093Y-118293350D01*
X123547187Y-118207190D01*
X123547190Y-118207187D01*
X123633350Y-118092093D01*
X123633354Y-118092086D01*
X123682422Y-117960529D01*
X123724293Y-117904595D01*
X123789757Y-117880178D01*
X123858030Y-117895030D01*
X123886285Y-117916181D01*
X124000213Y-118030109D01*
X124172179Y-118155048D01*
X124172181Y-118155049D01*
X124172184Y-118155051D01*
X124361588Y-118251557D01*
X124563757Y-118317246D01*
X124773713Y-118350500D01*
X124773714Y-118350500D01*
X124986286Y-118350500D01*
X124986287Y-118350500D01*
X125196243Y-118317246D01*
X125398412Y-118251557D01*
X125587816Y-118155051D01*
X125674471Y-118092093D01*
X125759786Y-118030109D01*
X125759788Y-118030106D01*
X125759792Y-118030104D01*
X125910104Y-117879792D01*
X125910106Y-117879788D01*
X125910109Y-117879786D01*
X126035048Y-117707820D01*
X126035047Y-117707820D01*
X126035051Y-117707816D01*
X126039514Y-117699054D01*
X126087488Y-117648259D01*
X126155308Y-117631463D01*
X126221444Y-117653999D01*
X126260486Y-117699056D01*
X126264951Y-117707820D01*
X126389890Y-117879786D01*
X126540213Y-118030109D01*
X126712179Y-118155048D01*
X126712181Y-118155049D01*
X126712184Y-118155051D01*
X126901588Y-118251557D01*
X127103757Y-118317246D01*
X127313713Y-118350500D01*
X127313714Y-118350500D01*
X127526286Y-118350500D01*
X127526287Y-118350500D01*
X127736243Y-118317246D01*
X127938412Y-118251557D01*
X128127816Y-118155051D01*
X128214471Y-118092093D01*
X128299786Y-118030109D01*
X128299788Y-118030106D01*
X128299792Y-118030104D01*
X128450104Y-117879792D01*
X128450106Y-117879788D01*
X128450109Y-117879786D01*
X128575048Y-117707820D01*
X128575047Y-117707820D01*
X128575051Y-117707816D01*
X128579514Y-117699054D01*
X128627488Y-117648259D01*
X128695308Y-117631463D01*
X128761444Y-117653999D01*
X128800486Y-117699056D01*
X128804951Y-117707820D01*
X128929890Y-117879786D01*
X129080213Y-118030109D01*
X129252179Y-118155048D01*
X129252181Y-118155049D01*
X129252184Y-118155051D01*
X129441588Y-118251557D01*
X129643757Y-118317246D01*
X129853713Y-118350500D01*
X129853714Y-118350500D01*
X130066284Y-118350500D01*
X130066287Y-118350500D01*
X130106104Y-118344193D01*
X130175394Y-118353147D01*
X130228846Y-118398142D01*
X130249487Y-118464893D01*
X130249500Y-118466666D01*
X130249500Y-118573918D01*
X130249500Y-118573920D01*
X130249499Y-118573920D01*
X130278340Y-118718907D01*
X130278343Y-118718917D01*
X130334912Y-118855488D01*
X130334919Y-118855501D01*
X130417048Y-118978415D01*
X130417051Y-118978419D01*
X130521580Y-119082948D01*
X130521584Y-119082951D01*
X130644498Y-119165080D01*
X130644511Y-119165087D01*
X130746117Y-119207173D01*
X130781087Y-119221658D01*
X130781091Y-119221658D01*
X130781092Y-119221659D01*
X130926079Y-119250500D01*
X130926082Y-119250500D01*
X131073920Y-119250500D01*
X131171462Y-119231096D01*
X131218913Y-119221658D01*
X131355495Y-119165084D01*
X131478416Y-119082951D01*
X131582951Y-118978416D01*
X131665084Y-118855495D01*
X131721658Y-118718913D01*
X131750500Y-118573918D01*
X131750500Y-118426082D01*
X131735682Y-118351589D01*
X131741909Y-118281998D01*
X131784771Y-118226820D01*
X131850661Y-118203575D01*
X131913592Y-118216911D01*
X131981588Y-118251557D01*
X132183757Y-118317246D01*
X132393713Y-118350500D01*
X132393714Y-118350500D01*
X132606286Y-118350500D01*
X132606287Y-118350500D01*
X132816243Y-118317246D01*
X133018412Y-118251557D01*
X133207816Y-118155051D01*
X133294471Y-118092093D01*
X133379786Y-118030109D01*
X133379788Y-118030106D01*
X133379792Y-118030104D01*
X133530104Y-117879792D01*
X133530106Y-117879788D01*
X133530109Y-117879786D01*
X133655048Y-117707820D01*
X133655047Y-117707820D01*
X133655051Y-117707816D01*
X133659514Y-117699054D01*
X133707488Y-117648259D01*
X133775308Y-117631463D01*
X133841444Y-117653999D01*
X133880486Y-117699056D01*
X133884951Y-117707820D01*
X134009890Y-117879786D01*
X134160213Y-118030109D01*
X134332179Y-118155048D01*
X134332181Y-118155049D01*
X134332184Y-118155051D01*
X134521588Y-118251557D01*
X134723757Y-118317246D01*
X134933713Y-118350500D01*
X134933714Y-118350500D01*
X135146286Y-118350500D01*
X135146287Y-118350500D01*
X135356243Y-118317246D01*
X135558412Y-118251557D01*
X135747816Y-118155051D01*
X135834471Y-118092093D01*
X135919786Y-118030109D01*
X135919788Y-118030106D01*
X135919792Y-118030104D01*
X136070104Y-117879792D01*
X136070106Y-117879788D01*
X136070109Y-117879786D01*
X136195048Y-117707820D01*
X136195047Y-117707820D01*
X136195051Y-117707816D01*
X136291557Y-117518412D01*
X136357246Y-117316243D01*
X136390500Y-117106287D01*
X136390500Y-116893713D01*
X136357246Y-116683757D01*
X136291557Y-116481588D01*
X136195051Y-116292184D01*
X136195049Y-116292181D01*
X136195048Y-116292179D01*
X136070109Y-116120213D01*
X135919786Y-115969890D01*
X135747820Y-115844951D01*
X135558414Y-115748444D01*
X135558413Y-115748443D01*
X135558412Y-115748443D01*
X135356243Y-115682754D01*
X135356241Y-115682753D01*
X135356240Y-115682753D01*
X135194957Y-115657208D01*
X135146287Y-115649500D01*
X134933713Y-115649500D01*
X134885042Y-115657208D01*
X134723760Y-115682753D01*
X134521585Y-115748444D01*
X134332179Y-115844951D01*
X134160213Y-115969890D01*
X134009890Y-116120213D01*
X133884949Y-116292182D01*
X133880484Y-116300946D01*
X133832509Y-116351742D01*
X133764688Y-116368536D01*
X133698553Y-116345998D01*
X133659516Y-116300946D01*
X133655050Y-116292182D01*
X133530109Y-116120213D01*
X133379786Y-115969890D01*
X133207820Y-115844951D01*
X133128173Y-115804369D01*
X133077377Y-115756394D01*
X133060582Y-115688573D01*
X133083119Y-115622439D01*
X133128174Y-115583399D01*
X133155403Y-115569525D01*
X133155402Y-115569525D01*
X133155405Y-115569524D01*
X133314646Y-115453828D01*
X133453828Y-115314646D01*
X133569524Y-115155405D01*
X133658884Y-114980025D01*
X133693805Y-114872548D01*
X133733243Y-114814873D01*
X133797601Y-114787675D01*
X133866448Y-114799590D01*
X133912053Y-114837981D01*
X133958672Y-114902146D01*
X134097854Y-115041328D01*
X134257095Y-115157024D01*
X134339955Y-115199243D01*
X134432470Y-115246382D01*
X134432472Y-115246382D01*
X134432475Y-115246384D01*
X134514138Y-115272918D01*
X134619673Y-115307209D01*
X134814078Y-115338000D01*
X134814083Y-115338000D01*
X135010922Y-115338000D01*
X135205326Y-115307209D01*
X135392525Y-115246384D01*
X135567905Y-115157024D01*
X135727146Y-115041328D01*
X135866328Y-114902146D01*
X135982024Y-114742905D01*
X136071384Y-114567525D01*
X136132209Y-114380326D01*
X136163000Y-114185922D01*
X136163000Y-113989077D01*
X136151462Y-113916232D01*
X136148888Y-113899983D01*
X155199500Y-113899983D01*
X155199500Y-116100001D01*
X155199501Y-116100018D01*
X155210000Y-116202796D01*
X155210001Y-116202799D01*
X155239619Y-116292179D01*
X155265186Y-116369334D01*
X155357288Y-116518656D01*
X155481344Y-116642712D01*
X155630666Y-116734814D01*
X155797203Y-116789999D01*
X155899991Y-116800500D01*
X158100008Y-116800499D01*
X158202797Y-116789999D01*
X158369334Y-116734814D01*
X158518656Y-116642712D01*
X158642712Y-116518656D01*
X158734814Y-116369334D01*
X158789999Y-116202797D01*
X158800500Y-116100009D01*
X158800499Y-113899992D01*
X158789999Y-113797203D01*
X158734814Y-113630666D01*
X158642712Y-113481344D01*
X158518656Y-113357288D01*
X158369334Y-113265186D01*
X158202797Y-113210001D01*
X158202795Y-113210000D01*
X158100010Y-113199500D01*
X155899998Y-113199500D01*
X155899981Y-113199501D01*
X155797203Y-113210000D01*
X155797200Y-113210001D01*
X155630668Y-113265185D01*
X155630663Y-113265187D01*
X155481342Y-113357289D01*
X155357289Y-113481342D01*
X155265187Y-113630663D01*
X155265186Y-113630666D01*
X155210001Y-113797203D01*
X155210001Y-113797204D01*
X155210000Y-113797204D01*
X155199500Y-113899983D01*
X136148888Y-113899983D01*
X136132209Y-113794673D01*
X136103987Y-113707817D01*
X136071384Y-113607475D01*
X136071382Y-113607472D01*
X136071382Y-113607470D01*
X135982023Y-113432094D01*
X135866328Y-113272854D01*
X135727146Y-113133672D01*
X135567905Y-113017976D01*
X135392529Y-112928617D01*
X135205326Y-112867790D01*
X135010922Y-112837000D01*
X135010917Y-112837000D01*
X134814083Y-112837000D01*
X134814078Y-112837000D01*
X134619673Y-112867790D01*
X134432470Y-112928617D01*
X134257094Y-113017976D01*
X134166241Y-113083985D01*
X134097854Y-113133672D01*
X134097852Y-113133674D01*
X134097851Y-113133674D01*
X133958674Y-113272851D01*
X133958674Y-113272852D01*
X133958672Y-113272854D01*
X133945074Y-113291570D01*
X133842976Y-113432094D01*
X133753618Y-113607469D01*
X133718694Y-113714952D01*
X133679255Y-113772627D01*
X133614896Y-113799824D01*
X133546050Y-113787909D01*
X133500445Y-113749517D01*
X133453830Y-113685357D01*
X133453825Y-113685351D01*
X133314648Y-113546174D01*
X133314646Y-113546172D01*
X133155405Y-113430476D01*
X133111478Y-113408094D01*
X132980029Y-113341117D01*
X132792826Y-113280290D01*
X132598422Y-113249500D01*
X132598417Y-113249500D01*
X132401583Y-113249500D01*
X132401578Y-113249500D01*
X132207173Y-113280290D01*
X132019967Y-113341118D01*
X131913829Y-113395198D01*
X131845159Y-113408094D01*
X131780419Y-113381817D01*
X131740163Y-113324710D01*
X131735062Y-113304110D01*
X131719709Y-113207174D01*
X131719709Y-113207173D01*
X131691487Y-113120317D01*
X131658884Y-113019975D01*
X131658882Y-113019972D01*
X131658882Y-113019970D01*
X131569523Y-112844594D01*
X131562494Y-112834919D01*
X131453828Y-112685354D01*
X131314646Y-112546172D01*
X131155405Y-112430476D01*
X130980029Y-112341117D01*
X130792826Y-112280290D01*
X130598422Y-112249500D01*
X130598417Y-112249500D01*
X130401583Y-112249500D01*
X130401578Y-112249500D01*
X130207173Y-112280290D01*
X130019970Y-112341117D01*
X129842346Y-112431622D01*
X129773676Y-112444518D01*
X129708936Y-112418242D01*
X129671489Y-112368588D01*
X129665084Y-112353124D01*
X129665080Y-112353117D01*
X129582951Y-112230203D01*
X129582948Y-112230199D01*
X129478419Y-112125670D01*
X129478415Y-112125667D01*
X129355501Y-112043538D01*
X129355488Y-112043531D01*
X129218917Y-111986962D01*
X129218907Y-111986959D01*
X129073920Y-111958119D01*
X129073918Y-111958119D01*
X128926082Y-111958119D01*
X128926080Y-111958119D01*
X128781092Y-111986959D01*
X128781082Y-111986962D01*
X128644511Y-112043531D01*
X128644498Y-112043538D01*
X128521584Y-112125667D01*
X128521580Y-112125670D01*
X128417051Y-112230199D01*
X128417048Y-112230203D01*
X128334919Y-112353117D01*
X128334912Y-112353130D01*
X128278343Y-112489701D01*
X128278340Y-112489711D01*
X128249500Y-112634698D01*
X128249500Y-112634701D01*
X128249500Y-112782537D01*
X128249500Y-112782539D01*
X128249499Y-112782539D01*
X128278340Y-112927526D01*
X128278343Y-112927536D01*
X128334912Y-113064107D01*
X128334919Y-113064120D01*
X128417048Y-113187034D01*
X128417051Y-113187038D01*
X128521580Y-113291567D01*
X128521584Y-113291570D01*
X128644498Y-113373699D01*
X128644511Y-113373706D01*
X128770952Y-113426079D01*
X128781087Y-113430277D01*
X128781091Y-113430277D01*
X128781092Y-113430278D01*
X128926079Y-113459119D01*
X128926082Y-113459119D01*
X129073919Y-113459119D01*
X129101308Y-113453671D01*
X129170899Y-113459898D01*
X129226077Y-113502760D01*
X129249322Y-113568650D01*
X129249500Y-113575288D01*
X129249500Y-113598422D01*
X129280290Y-113792826D01*
X129341117Y-113980029D01*
X129393559Y-114082951D01*
X129430476Y-114155405D01*
X129546172Y-114314646D01*
X129685354Y-114453828D01*
X129844595Y-114569524D01*
X129901301Y-114598417D01*
X130019970Y-114658882D01*
X130019972Y-114658882D01*
X130019975Y-114658884D01*
X130207174Y-114719709D01*
X130342357Y-114741119D01*
X130370903Y-114745641D01*
X130434037Y-114775570D01*
X130470969Y-114834881D01*
X130469971Y-114904744D01*
X130466067Y-114915565D01*
X130439342Y-114980087D01*
X130439340Y-114980092D01*
X130410500Y-115125079D01*
X130410500Y-115125082D01*
X130410500Y-115272918D01*
X130410500Y-115272920D01*
X130410499Y-115272920D01*
X130439340Y-115417907D01*
X130439343Y-115417917D01*
X130488534Y-115536675D01*
X130496003Y-115606144D01*
X130464728Y-115668623D01*
X130404639Y-115704275D01*
X130335656Y-115702058D01*
X130276244Y-115682754D01*
X130276240Y-115682753D01*
X130114957Y-115657208D01*
X130066287Y-115649500D01*
X129853713Y-115649500D01*
X129805042Y-115657208D01*
X129643760Y-115682753D01*
X129441585Y-115748444D01*
X129252179Y-115844951D01*
X129080213Y-115969890D01*
X128929890Y-116120213D01*
X128804949Y-116292182D01*
X128800484Y-116300946D01*
X128752509Y-116351742D01*
X128684688Y-116368536D01*
X128618553Y-116345998D01*
X128579516Y-116300946D01*
X128575050Y-116292182D01*
X128450109Y-116120213D01*
X128299786Y-115969890D01*
X128127820Y-115844951D01*
X127938414Y-115748444D01*
X127938413Y-115748443D01*
X127938412Y-115748443D01*
X127736243Y-115682754D01*
X127736241Y-115682753D01*
X127736240Y-115682753D01*
X127574957Y-115657208D01*
X127526287Y-115649500D01*
X127313713Y-115649500D01*
X127265042Y-115657208D01*
X127103760Y-115682753D01*
X126901585Y-115748444D01*
X126712179Y-115844951D01*
X126540213Y-115969890D01*
X126389890Y-116120213D01*
X126264949Y-116292182D01*
X126260484Y-116300946D01*
X126212509Y-116351742D01*
X126144688Y-116368536D01*
X126078553Y-116345998D01*
X126039516Y-116300946D01*
X126035050Y-116292182D01*
X125910109Y-116120213D01*
X125759786Y-115969890D01*
X125587820Y-115844951D01*
X125398414Y-115748444D01*
X125398413Y-115748443D01*
X125398412Y-115748443D01*
X125196243Y-115682754D01*
X125196241Y-115682753D01*
X125196240Y-115682753D01*
X125034957Y-115657208D01*
X124986287Y-115649500D01*
X124773713Y-115649500D01*
X124725042Y-115657208D01*
X124563760Y-115682753D01*
X124361585Y-115748444D01*
X124172179Y-115844951D01*
X124000215Y-115969889D01*
X123886285Y-116083819D01*
X123824962Y-116117303D01*
X123755270Y-116112319D01*
X123699337Y-116070447D01*
X123682422Y-116039470D01*
X123633354Y-115907913D01*
X123633350Y-115907906D01*
X123547190Y-115792812D01*
X123547187Y-115792809D01*
X123432093Y-115706649D01*
X123432086Y-115706645D01*
X123297379Y-115656403D01*
X123297372Y-115656401D01*
X123237844Y-115650000D01*
X122590000Y-115650000D01*
X122590000Y-116566988D01*
X122532993Y-116534075D01*
X122405826Y-116500000D01*
X122274174Y-116500000D01*
X122147007Y-116534075D01*
X122090000Y-116566988D01*
X122090000Y-115650000D01*
X121442155Y-115650000D01*
X121382627Y-115656401D01*
X121382620Y-115656403D01*
X121247913Y-115706645D01*
X121247906Y-115706649D01*
X121132812Y-115792809D01*
X121132809Y-115792812D01*
X121046649Y-115907906D01*
X121046645Y-115907913D01*
X120996403Y-116042620D01*
X120996401Y-116042627D01*
X120990000Y-116102155D01*
X117958826Y-116102155D01*
X117958826Y-113573920D01*
X119402499Y-113573920D01*
X119431340Y-113718907D01*
X119431343Y-113718917D01*
X119487912Y-113855488D01*
X119487919Y-113855501D01*
X119570048Y-113978415D01*
X119570051Y-113978419D01*
X119674580Y-114082948D01*
X119674584Y-114082951D01*
X119797498Y-114165080D01*
X119797511Y-114165087D01*
X119847800Y-114185917D01*
X119934087Y-114221658D01*
X119934091Y-114221658D01*
X119934092Y-114221659D01*
X120079079Y-114250500D01*
X120079082Y-114250500D01*
X120226920Y-114250500D01*
X120324462Y-114231096D01*
X120371913Y-114221658D01*
X120508495Y-114165084D01*
X120631416Y-114082951D01*
X120735951Y-113978416D01*
X120818084Y-113855495D01*
X120874658Y-113718913D01*
X120884096Y-113671462D01*
X120903500Y-113573920D01*
X120903500Y-113426079D01*
X120874659Y-113281092D01*
X120874658Y-113281091D01*
X120874658Y-113281087D01*
X120861574Y-113249500D01*
X120818087Y-113144511D01*
X120818080Y-113144498D01*
X120735951Y-113021584D01*
X120735948Y-113021580D01*
X120631419Y-112917051D01*
X120631415Y-112917048D01*
X120508501Y-112834919D01*
X120508488Y-112834912D01*
X120371917Y-112778343D01*
X120371907Y-112778340D01*
X120226920Y-112749500D01*
X120226918Y-112749500D01*
X120079082Y-112749500D01*
X120079080Y-112749500D01*
X119934092Y-112778340D01*
X119934082Y-112778343D01*
X119797511Y-112834912D01*
X119797498Y-112834919D01*
X119674584Y-112917048D01*
X119674580Y-112917051D01*
X119570051Y-113021580D01*
X119570048Y-113021584D01*
X119487919Y-113144498D01*
X119487912Y-113144511D01*
X119431343Y-113281082D01*
X119431340Y-113281092D01*
X119402500Y-113426079D01*
X119402500Y-113426082D01*
X119402500Y-113573918D01*
X119402500Y-113573920D01*
X119402499Y-113573920D01*
X117958826Y-113573920D01*
X117958826Y-110573920D01*
X127999499Y-110573920D01*
X128028340Y-110718907D01*
X128028343Y-110718917D01*
X128084912Y-110855488D01*
X128084919Y-110855501D01*
X128167048Y-110978415D01*
X128167051Y-110978419D01*
X128271580Y-111082948D01*
X128271584Y-111082951D01*
X128394498Y-111165080D01*
X128394511Y-111165087D01*
X128531082Y-111221656D01*
X128531087Y-111221658D01*
X128531091Y-111221658D01*
X128531092Y-111221659D01*
X128676079Y-111250500D01*
X128676082Y-111250500D01*
X128823920Y-111250500D01*
X128921462Y-111231096D01*
X128968913Y-111221658D01*
X129105495Y-111165084D01*
X129228416Y-111082951D01*
X129332951Y-110978416D01*
X129415084Y-110855495D01*
X129468289Y-110727047D01*
X129470809Y-110723920D01*
X131749499Y-110723920D01*
X131778340Y-110868907D01*
X131778343Y-110868917D01*
X131834912Y-111005488D01*
X131834919Y-111005501D01*
X131917048Y-111128415D01*
X131917051Y-111128419D01*
X132021580Y-111232948D01*
X132021584Y-111232951D01*
X132144498Y-111315080D01*
X132144511Y-111315087D01*
X132250110Y-111358827D01*
X132281087Y-111371658D01*
X132281091Y-111371658D01*
X132281092Y-111371659D01*
X132426079Y-111400500D01*
X132426082Y-111400500D01*
X132573920Y-111400500D01*
X132671462Y-111381096D01*
X132718913Y-111371658D01*
X132731856Y-111366296D01*
X132801322Y-111358827D01*
X132863802Y-111390100D01*
X132889794Y-111424562D01*
X132928369Y-111500269D01*
X132930476Y-111504405D01*
X133046172Y-111663646D01*
X133185354Y-111802828D01*
X133344595Y-111918524D01*
X133422305Y-111958119D01*
X133519970Y-112007882D01*
X133519972Y-112007882D01*
X133519975Y-112007884D01*
X133620317Y-112040487D01*
X133707173Y-112068709D01*
X133901578Y-112099500D01*
X133901583Y-112099500D01*
X134098422Y-112099500D01*
X134292826Y-112068709D01*
X134480025Y-112007884D01*
X134655405Y-111918524D01*
X134814646Y-111802828D01*
X134953828Y-111663646D01*
X134953828Y-111663645D01*
X134957273Y-111660201D01*
X134959052Y-111661980D01*
X135008631Y-111629235D01*
X135078495Y-111628361D01*
X135113942Y-111644664D01*
X135144493Y-111665077D01*
X135144502Y-111665082D01*
X135144505Y-111665084D01*
X135144507Y-111665084D01*
X135144511Y-111665087D01*
X135281082Y-111721656D01*
X135281087Y-111721658D01*
X135281091Y-111721658D01*
X135281092Y-111721659D01*
X135426079Y-111750500D01*
X135426082Y-111750500D01*
X135573920Y-111750500D01*
X135671462Y-111731096D01*
X135718913Y-111721658D01*
X135855495Y-111665084D01*
X135978416Y-111582951D01*
X136082951Y-111478416D01*
X136165084Y-111355495D01*
X136221658Y-111218913D01*
X136239659Y-111128419D01*
X136250500Y-111073920D01*
X136250500Y-110926079D01*
X136221659Y-110781092D01*
X136221658Y-110781091D01*
X136221658Y-110781087D01*
X136197978Y-110723918D01*
X136165087Y-110644511D01*
X136165080Y-110644498D01*
X136082951Y-110521584D01*
X136082948Y-110521580D01*
X135978419Y-110417051D01*
X135978415Y-110417048D01*
X135855501Y-110334919D01*
X135855488Y-110334912D01*
X135718917Y-110278343D01*
X135718907Y-110278340D01*
X135573920Y-110249500D01*
X135573918Y-110249500D01*
X135426082Y-110249500D01*
X135426080Y-110249500D01*
X135281092Y-110278340D01*
X135281086Y-110278342D01*
X135247946Y-110292069D01*
X135178476Y-110299536D01*
X135115998Y-110268260D01*
X135090010Y-110233801D01*
X135069525Y-110193596D01*
X135033858Y-110144505D01*
X134953828Y-110034354D01*
X134814646Y-109895172D01*
X134796510Y-109881995D01*
X155199500Y-109881995D01*
X155199500Y-110118004D01*
X155199501Y-110118020D01*
X155230306Y-110352010D01*
X155291394Y-110579993D01*
X155381714Y-110798045D01*
X155381719Y-110798056D01*
X155452677Y-110920957D01*
X155499727Y-111002450D01*
X155499729Y-111002453D01*
X155499730Y-111002454D01*
X155643406Y-111189697D01*
X155643412Y-111189704D01*
X155810295Y-111356587D01*
X155810302Y-111356593D01*
X155867523Y-111400500D01*
X155997550Y-111500273D01*
X156128918Y-111576118D01*
X156201943Y-111618280D01*
X156201948Y-111618282D01*
X156201951Y-111618284D01*
X156420007Y-111708606D01*
X156647986Y-111769693D01*
X156881989Y-111800500D01*
X156881996Y-111800500D01*
X157118004Y-111800500D01*
X157118011Y-111800500D01*
X157352014Y-111769693D01*
X157579993Y-111708606D01*
X157798049Y-111618284D01*
X158002450Y-111500273D01*
X158189699Y-111356592D01*
X158356592Y-111189699D01*
X158500273Y-111002450D01*
X158618284Y-110798049D01*
X158708606Y-110579993D01*
X158769693Y-110352014D01*
X158800500Y-110118011D01*
X158800500Y-109881989D01*
X158769693Y-109647986D01*
X158708606Y-109420007D01*
X158618284Y-109201951D01*
X158618282Y-109201948D01*
X158618280Y-109201943D01*
X158563564Y-109107173D01*
X158500273Y-108997550D01*
X158356592Y-108810301D01*
X158356587Y-108810295D01*
X158189704Y-108643412D01*
X158189697Y-108643406D01*
X158002454Y-108499730D01*
X158002453Y-108499729D01*
X158002450Y-108499727D01*
X157905083Y-108443512D01*
X157798056Y-108381719D01*
X157798045Y-108381714D01*
X157579993Y-108291394D01*
X157404807Y-108244453D01*
X157352014Y-108230307D01*
X157352013Y-108230306D01*
X157352010Y-108230306D01*
X157118020Y-108199501D01*
X157118017Y-108199500D01*
X157118011Y-108199500D01*
X156881989Y-108199500D01*
X156881983Y-108199500D01*
X156881979Y-108199501D01*
X156647989Y-108230306D01*
X156420006Y-108291394D01*
X156201954Y-108381714D01*
X156201943Y-108381719D01*
X155997545Y-108499730D01*
X155810302Y-108643406D01*
X155810295Y-108643412D01*
X155643412Y-108810295D01*
X155643406Y-108810302D01*
X155499730Y-108997545D01*
X155381719Y-109201943D01*
X155381714Y-109201954D01*
X155291394Y-109420006D01*
X155230306Y-109647989D01*
X155199501Y-109881979D01*
X155199500Y-109881995D01*
X134796510Y-109881995D01*
X134655405Y-109779476D01*
X134480029Y-109690117D01*
X134292826Y-109629290D01*
X134098422Y-109598500D01*
X134098417Y-109598500D01*
X133901583Y-109598500D01*
X133901578Y-109598500D01*
X133707173Y-109629290D01*
X133519970Y-109690117D01*
X133344594Y-109779476D01*
X133185355Y-109895171D01*
X133071391Y-110009135D01*
X133010068Y-110042619D01*
X132940376Y-110037635D01*
X132914819Y-110024555D01*
X132855500Y-109984919D01*
X132855488Y-109984912D01*
X132718917Y-109928343D01*
X132718907Y-109928340D01*
X132573920Y-109899500D01*
X132573918Y-109899500D01*
X132426082Y-109899500D01*
X132426080Y-109899500D01*
X132281092Y-109928340D01*
X132281082Y-109928343D01*
X132144511Y-109984912D01*
X132144498Y-109984919D01*
X132021584Y-110067048D01*
X132021580Y-110067051D01*
X131917051Y-110171580D01*
X131917048Y-110171584D01*
X131834919Y-110294498D01*
X131834912Y-110294511D01*
X131778343Y-110431082D01*
X131778340Y-110431092D01*
X131749500Y-110576079D01*
X131749500Y-110576082D01*
X131749500Y-110723918D01*
X131749500Y-110723920D01*
X131749499Y-110723920D01*
X129470809Y-110723920D01*
X129512130Y-110672644D01*
X129578424Y-110650579D01*
X129582850Y-110650500D01*
X129598422Y-110650500D01*
X129792826Y-110619709D01*
X129980025Y-110558884D01*
X130155405Y-110469524D01*
X130314646Y-110353828D01*
X130453828Y-110214646D01*
X130569524Y-110055405D01*
X130658884Y-109880025D01*
X130719709Y-109692826D01*
X130720138Y-109690116D01*
X130750500Y-109498422D01*
X130750500Y-109301577D01*
X130719709Y-109107173D01*
X130658882Y-108919970D01*
X130586793Y-108778488D01*
X130569524Y-108744595D01*
X130453828Y-108585354D01*
X130314646Y-108446172D01*
X130155405Y-108330476D01*
X129980029Y-108241117D01*
X129792826Y-108180290D01*
X129598422Y-108149500D01*
X129598417Y-108149500D01*
X129401583Y-108149500D01*
X129401578Y-108149500D01*
X129207173Y-108180290D01*
X129019970Y-108241117D01*
X128844594Y-108330476D01*
X128774065Y-108381719D01*
X128685354Y-108446172D01*
X128685352Y-108446174D01*
X128685351Y-108446174D01*
X128546174Y-108585351D01*
X128546174Y-108585352D01*
X128546172Y-108585354D01*
X128505084Y-108641907D01*
X128430476Y-108744594D01*
X128341117Y-108919970D01*
X128280290Y-109107173D01*
X128249500Y-109301577D01*
X128249500Y-109498422D01*
X128280290Y-109692822D01*
X128280290Y-109692823D01*
X128309824Y-109783719D01*
X128311819Y-109853560D01*
X128275738Y-109913393D01*
X128271947Y-109916684D01*
X128167051Y-110021580D01*
X128167048Y-110021584D01*
X128084919Y-110144498D01*
X128084912Y-110144511D01*
X128028343Y-110281082D01*
X128028340Y-110281092D01*
X127999500Y-110426079D01*
X127999500Y-110426082D01*
X127999500Y-110573918D01*
X127999500Y-110573920D01*
X127999499Y-110573920D01*
X117958826Y-110573920D01*
X117958826Y-108073920D01*
X131149499Y-108073920D01*
X131178340Y-108218907D01*
X131178343Y-108218917D01*
X131234912Y-108355488D01*
X131234919Y-108355501D01*
X131317048Y-108478415D01*
X131317051Y-108478419D01*
X131421580Y-108582948D01*
X131421584Y-108582951D01*
X131544498Y-108665080D01*
X131544511Y-108665087D01*
X131681082Y-108721656D01*
X131681087Y-108721658D01*
X131681091Y-108721658D01*
X131681092Y-108721659D01*
X131826079Y-108750500D01*
X131826082Y-108750500D01*
X131973920Y-108750500D01*
X132071462Y-108731096D01*
X132118913Y-108721658D01*
X132255495Y-108665084D01*
X132378416Y-108582951D01*
X132482951Y-108478416D01*
X132565084Y-108355495D01*
X132621658Y-108218913D01*
X132631096Y-108171462D01*
X132650500Y-108073920D01*
X132650500Y-107926079D01*
X132621659Y-107781092D01*
X132621658Y-107781091D01*
X132621658Y-107781087D01*
X132605348Y-107741711D01*
X132565087Y-107644511D01*
X132565080Y-107644498D01*
X132482951Y-107521584D01*
X132482948Y-107521580D01*
X132378419Y-107417051D01*
X132378415Y-107417048D01*
X132255501Y-107334919D01*
X132255488Y-107334912D01*
X132118917Y-107278343D01*
X132118907Y-107278340D01*
X131973920Y-107249500D01*
X131973918Y-107249500D01*
X131826082Y-107249500D01*
X131826080Y-107249500D01*
X131681092Y-107278340D01*
X131681082Y-107278343D01*
X131544511Y-107334912D01*
X131544498Y-107334919D01*
X131421584Y-107417048D01*
X131421580Y-107417051D01*
X131317051Y-107521580D01*
X131317048Y-107521584D01*
X131234919Y-107644498D01*
X131234912Y-107644511D01*
X131178343Y-107781082D01*
X131178340Y-107781092D01*
X131149500Y-107926079D01*
X131149500Y-107926082D01*
X131149500Y-108073918D01*
X131149500Y-108073920D01*
X131149499Y-108073920D01*
X117958826Y-108073920D01*
X117958826Y-106789362D01*
X129836999Y-106789362D01*
X129865840Y-106934349D01*
X129865843Y-106934359D01*
X129922412Y-107070930D01*
X129922419Y-107070943D01*
X130004548Y-107193857D01*
X130004551Y-107193861D01*
X130109080Y-107298390D01*
X130109084Y-107298393D01*
X130231998Y-107380522D01*
X130232011Y-107380529D01*
X130320184Y-107417051D01*
X130368587Y-107437100D01*
X130368591Y-107437100D01*
X130368592Y-107437101D01*
X130513579Y-107465942D01*
X130513582Y-107465942D01*
X130661420Y-107465942D01*
X130758962Y-107446538D01*
X130806413Y-107437100D01*
X130942995Y-107380526D01*
X131065916Y-107298393D01*
X131170451Y-107193858D01*
X131252584Y-107070937D01*
X131309158Y-106934355D01*
X131338000Y-106789360D01*
X131338000Y-106748185D01*
X133075234Y-106748185D01*
X133104075Y-106893172D01*
X133104078Y-106893182D01*
X133160647Y-107029753D01*
X133163524Y-107035135D01*
X133162466Y-107035700D01*
X133181447Y-107096312D01*
X133163457Y-107161894D01*
X133163521Y-107161929D01*
X133163370Y-107162210D01*
X133162964Y-107163693D01*
X133160669Y-107167264D01*
X133160649Y-107167300D01*
X133104078Y-107303876D01*
X133104075Y-107303886D01*
X133075235Y-107448873D01*
X133075235Y-107448876D01*
X133075235Y-107596712D01*
X133075235Y-107596714D01*
X133075234Y-107596714D01*
X133104075Y-107741701D01*
X133104078Y-107741711D01*
X133160647Y-107878282D01*
X133160654Y-107878295D01*
X133242783Y-108001209D01*
X133242786Y-108001213D01*
X133347315Y-108105742D01*
X133347319Y-108105745D01*
X133470233Y-108187874D01*
X133470246Y-108187881D01*
X133606817Y-108244450D01*
X133606822Y-108244452D01*
X133606826Y-108244452D01*
X133606827Y-108244453D01*
X133751814Y-108273294D01*
X133751817Y-108273294D01*
X133899655Y-108273294D01*
X133997197Y-108253890D01*
X134044648Y-108244452D01*
X134181230Y-108187878D01*
X134304151Y-108105745D01*
X134335976Y-108073920D01*
X134749499Y-108073920D01*
X134778340Y-108218907D01*
X134778343Y-108218917D01*
X134834912Y-108355488D01*
X134834919Y-108355501D01*
X134917048Y-108478415D01*
X134917051Y-108478419D01*
X135021580Y-108582948D01*
X135021584Y-108582951D01*
X135144498Y-108665080D01*
X135144511Y-108665087D01*
X135281082Y-108721656D01*
X135281087Y-108721658D01*
X135281091Y-108721658D01*
X135281092Y-108721659D01*
X135426079Y-108750500D01*
X135426082Y-108750500D01*
X135573920Y-108750500D01*
X135671462Y-108731096D01*
X135718913Y-108721658D01*
X135855495Y-108665084D01*
X135978416Y-108582951D01*
X136064447Y-108496920D01*
X138938967Y-108496920D01*
X138967808Y-108641907D01*
X138967811Y-108641917D01*
X139024380Y-108778488D01*
X139024387Y-108778501D01*
X139106516Y-108901415D01*
X139106519Y-108901419D01*
X139211048Y-109005948D01*
X139211052Y-109005951D01*
X139333966Y-109088080D01*
X139333979Y-109088087D01*
X139380060Y-109107174D01*
X139470555Y-109144658D01*
X139470559Y-109144658D01*
X139470560Y-109144659D01*
X139615547Y-109173500D01*
X139615550Y-109173500D01*
X139763388Y-109173500D01*
X139860930Y-109154096D01*
X139908381Y-109144658D01*
X140044963Y-109088084D01*
X140167884Y-109005951D01*
X140272419Y-108901416D01*
X140354552Y-108778495D01*
X140411126Y-108641913D01*
X140439409Y-108499730D01*
X140439968Y-108496920D01*
X141749499Y-108496920D01*
X141778340Y-108641907D01*
X141778343Y-108641917D01*
X141834912Y-108778488D01*
X141834919Y-108778501D01*
X141917048Y-108901415D01*
X141917051Y-108901419D01*
X142021580Y-109005948D01*
X142021584Y-109005951D01*
X142144498Y-109088080D01*
X142144511Y-109088087D01*
X142190592Y-109107174D01*
X142281087Y-109144658D01*
X142281091Y-109144658D01*
X142281092Y-109144659D01*
X142426079Y-109173500D01*
X142426082Y-109173500D01*
X142573920Y-109173500D01*
X142671462Y-109154096D01*
X142718913Y-109144658D01*
X142855495Y-109088084D01*
X142978416Y-109005951D01*
X143082951Y-108901416D01*
X143165084Y-108778495D01*
X143221658Y-108641913D01*
X143250500Y-108496918D01*
X143250804Y-108495390D01*
X143283189Y-108433479D01*
X143343905Y-108398905D01*
X143413674Y-108402645D01*
X143470346Y-108443512D01*
X143475523Y-108450690D01*
X143494051Y-108478419D01*
X143598580Y-108582948D01*
X143598584Y-108582951D01*
X143721498Y-108665080D01*
X143721511Y-108665087D01*
X143858082Y-108721656D01*
X143858087Y-108721658D01*
X143858091Y-108721658D01*
X143858092Y-108721659D01*
X144003079Y-108750500D01*
X144003082Y-108750500D01*
X144150920Y-108750500D01*
X144248462Y-108731096D01*
X144295913Y-108721658D01*
X144432495Y-108665084D01*
X144555416Y-108582951D01*
X144659951Y-108478416D01*
X144742084Y-108355495D01*
X144798658Y-108218913D01*
X144808096Y-108171462D01*
X144827500Y-108073920D01*
X144827500Y-107926079D01*
X144798659Y-107781092D01*
X144798658Y-107781091D01*
X144798658Y-107781087D01*
X144782348Y-107741711D01*
X144742087Y-107644511D01*
X144742080Y-107644498D01*
X144659951Y-107521584D01*
X144659948Y-107521580D01*
X144555419Y-107417051D01*
X144555415Y-107417048D01*
X144432501Y-107334919D01*
X144432488Y-107334912D01*
X144295917Y-107278343D01*
X144295907Y-107278340D01*
X144150920Y-107249500D01*
X144150918Y-107249500D01*
X144003082Y-107249500D01*
X144003080Y-107249500D01*
X143858092Y-107278340D01*
X143858082Y-107278343D01*
X143721511Y-107334912D01*
X143721498Y-107334919D01*
X143598584Y-107417048D01*
X143598580Y-107417051D01*
X143494051Y-107521580D01*
X143494048Y-107521584D01*
X143411919Y-107644498D01*
X143411912Y-107644511D01*
X143355343Y-107781082D01*
X143355340Y-107781092D01*
X143326195Y-107927609D01*
X143293809Y-107989520D01*
X143233093Y-108024094D01*
X143163324Y-108020353D01*
X143106652Y-107979486D01*
X143101476Y-107972308D01*
X143082951Y-107944584D01*
X143082948Y-107944580D01*
X142978419Y-107840051D01*
X142978415Y-107840048D01*
X142855501Y-107757919D01*
X142855488Y-107757912D01*
X142718917Y-107701343D01*
X142718907Y-107701340D01*
X142573920Y-107672500D01*
X142573918Y-107672500D01*
X142426082Y-107672500D01*
X142426080Y-107672500D01*
X142281092Y-107701340D01*
X142281082Y-107701343D01*
X142144511Y-107757912D01*
X142144498Y-107757919D01*
X142021584Y-107840048D01*
X142021580Y-107840051D01*
X141917051Y-107944580D01*
X141917048Y-107944584D01*
X141834919Y-108067498D01*
X141834912Y-108067511D01*
X141778343Y-108204082D01*
X141778340Y-108204092D01*
X141749500Y-108349079D01*
X141749500Y-108349082D01*
X141749500Y-108496918D01*
X141749500Y-108496920D01*
X141749499Y-108496920D01*
X140439968Y-108496920D01*
X140439968Y-108349079D01*
X140411127Y-108204092D01*
X140411126Y-108204091D01*
X140411126Y-108204087D01*
X140411124Y-108204082D01*
X140354555Y-108067511D01*
X140354548Y-108067498D01*
X140272419Y-107944584D01*
X140272416Y-107944580D01*
X140167887Y-107840051D01*
X140167883Y-107840048D01*
X140044969Y-107757919D01*
X140044956Y-107757912D01*
X139908385Y-107701343D01*
X139908375Y-107701340D01*
X139763388Y-107672500D01*
X139763386Y-107672500D01*
X139615550Y-107672500D01*
X139615548Y-107672500D01*
X139470560Y-107701340D01*
X139470550Y-107701343D01*
X139333979Y-107757912D01*
X139333966Y-107757919D01*
X139211052Y-107840048D01*
X139211048Y-107840051D01*
X139106519Y-107944580D01*
X139106516Y-107944584D01*
X139024387Y-108067498D01*
X139024380Y-108067511D01*
X138967811Y-108204082D01*
X138967808Y-108204092D01*
X138938968Y-108349079D01*
X138938968Y-108349082D01*
X138938968Y-108496918D01*
X138938968Y-108496920D01*
X138938967Y-108496920D01*
X136064447Y-108496920D01*
X136082951Y-108478416D01*
X136165084Y-108355495D01*
X136165085Y-108355492D01*
X136165087Y-108355489D01*
X136189919Y-108295538D01*
X136189919Y-108295537D01*
X136191635Y-108291394D01*
X136221658Y-108218913D01*
X136231096Y-108171462D01*
X136250500Y-108073920D01*
X136250500Y-107926079D01*
X136221659Y-107781092D01*
X136221658Y-107781091D01*
X136221658Y-107781087D01*
X136205348Y-107741711D01*
X136165087Y-107644511D01*
X136165080Y-107644498D01*
X136082951Y-107521584D01*
X136082948Y-107521580D01*
X135978419Y-107417051D01*
X135978415Y-107417048D01*
X135855501Y-107334919D01*
X135855488Y-107334912D01*
X135718917Y-107278343D01*
X135718907Y-107278340D01*
X135573920Y-107249500D01*
X135573918Y-107249500D01*
X135426082Y-107249500D01*
X135426080Y-107249500D01*
X135281092Y-107278340D01*
X135281082Y-107278343D01*
X135144511Y-107334912D01*
X135144498Y-107334919D01*
X135021584Y-107417048D01*
X135021580Y-107417051D01*
X134917051Y-107521580D01*
X134917048Y-107521584D01*
X134834919Y-107644498D01*
X134834914Y-107644508D01*
X134803485Y-107720381D01*
X134803480Y-107720397D01*
X134778342Y-107781087D01*
X134760183Y-107872375D01*
X134760177Y-107872397D01*
X134749500Y-107926077D01*
X134749500Y-107926082D01*
X134749500Y-108073918D01*
X134749500Y-108073920D01*
X134749499Y-108073920D01*
X134335976Y-108073920D01*
X134408686Y-108001210D01*
X134490819Y-107878289D01*
X134547393Y-107741707D01*
X134576235Y-107596712D01*
X134576235Y-107448876D01*
X134576235Y-107448873D01*
X134547394Y-107303886D01*
X134547393Y-107303885D01*
X134547393Y-107303881D01*
X134536815Y-107278343D01*
X134490821Y-107167303D01*
X134487950Y-107161932D01*
X134489006Y-107161367D01*
X134470021Y-107100751D01*
X134488010Y-107035159D01*
X134487950Y-107035127D01*
X134488091Y-107034861D01*
X134488501Y-107033370D01*
X134490811Y-107029775D01*
X134490821Y-107029755D01*
X134547391Y-106893182D01*
X134547393Y-106893178D01*
X134572054Y-106769201D01*
X134576235Y-106748185D01*
X134576235Y-106688319D01*
X156372338Y-106688319D01*
X156372338Y-106688320D01*
X156420152Y-106708125D01*
X156420165Y-106708129D01*
X156648087Y-106769201D01*
X156882014Y-106799999D01*
X156882029Y-106800000D01*
X157117971Y-106800000D01*
X157117985Y-106799999D01*
X157351914Y-106769200D01*
X157579834Y-106708130D01*
X157627660Y-106688319D01*
X157000001Y-106060660D01*
X157000000Y-106060660D01*
X156372338Y-106688319D01*
X134576235Y-106688319D01*
X134576235Y-106600344D01*
X134547394Y-106455357D01*
X134547393Y-106455356D01*
X134547393Y-106455352D01*
X134547391Y-106455347D01*
X134490822Y-106318776D01*
X134490815Y-106318763D01*
X134408686Y-106195849D01*
X134408683Y-106195845D01*
X134304154Y-106091316D01*
X134304150Y-106091313D01*
X134181236Y-106009184D01*
X134181223Y-106009177D01*
X134044652Y-105952608D01*
X134044642Y-105952605D01*
X133899655Y-105923765D01*
X133899653Y-105923765D01*
X133751817Y-105923765D01*
X133751815Y-105923765D01*
X133606827Y-105952605D01*
X133606817Y-105952608D01*
X133470246Y-106009177D01*
X133470233Y-106009184D01*
X133347319Y-106091313D01*
X133347315Y-106091316D01*
X133242786Y-106195845D01*
X133242783Y-106195849D01*
X133160654Y-106318763D01*
X133160647Y-106318776D01*
X133104078Y-106455347D01*
X133104075Y-106455357D01*
X133075235Y-106600344D01*
X133075235Y-106600347D01*
X133075235Y-106748183D01*
X133075235Y-106748185D01*
X133075234Y-106748185D01*
X131338000Y-106748185D01*
X131338000Y-106641524D01*
X131338000Y-106641521D01*
X131333410Y-106618447D01*
X131309159Y-106496534D01*
X131309158Y-106496533D01*
X131309158Y-106496529D01*
X131292100Y-106455347D01*
X131252587Y-106359953D01*
X131252580Y-106359940D01*
X131170451Y-106237026D01*
X131170448Y-106237022D01*
X131065919Y-106132493D01*
X131065915Y-106132490D01*
X130943001Y-106050361D01*
X130942988Y-106050354D01*
X130806417Y-105993785D01*
X130806407Y-105993782D01*
X130661420Y-105964942D01*
X130661418Y-105964942D01*
X130513582Y-105964942D01*
X130513580Y-105964942D01*
X130368592Y-105993782D01*
X130368582Y-105993785D01*
X130232011Y-106050354D01*
X130231998Y-106050361D01*
X130109084Y-106132490D01*
X130109080Y-106132493D01*
X130004551Y-106237022D01*
X130004548Y-106237026D01*
X129922419Y-106359940D01*
X129922412Y-106359953D01*
X129865843Y-106496524D01*
X129865840Y-106496534D01*
X129837000Y-106641521D01*
X129837000Y-106641524D01*
X129837000Y-106789360D01*
X129837000Y-106789362D01*
X129836999Y-106789362D01*
X117958826Y-106789362D01*
X117958826Y-105396867D01*
X118546800Y-105396867D01*
X118546800Y-105595534D01*
X118585554Y-105790362D01*
X118585556Y-105790370D01*
X118661577Y-105973902D01*
X118661582Y-105973911D01*
X118771946Y-106139081D01*
X118771949Y-106139085D01*
X118912415Y-106279551D01*
X118912419Y-106279554D01*
X119077589Y-106389918D01*
X119077595Y-106389921D01*
X119077596Y-106389922D01*
X119261131Y-106465945D01*
X119414913Y-106496534D01*
X119455966Y-106504700D01*
X119455970Y-106504701D01*
X119455971Y-106504701D01*
X120238830Y-106504701D01*
X120238831Y-106504700D01*
X120433669Y-106465945D01*
X120617204Y-106389922D01*
X120782381Y-106279554D01*
X120922853Y-106139082D01*
X121033221Y-105973905D01*
X121109244Y-105790370D01*
X121148000Y-105595530D01*
X121148000Y-105396872D01*
X121109244Y-105202032D01*
X121033221Y-105018497D01*
X121033220Y-105018496D01*
X121033217Y-105018490D01*
X120922853Y-104853320D01*
X120922850Y-104853316D01*
X120782384Y-104712850D01*
X120782380Y-104712847D01*
X120617210Y-104602483D01*
X120617201Y-104602478D01*
X120433669Y-104526457D01*
X120433661Y-104526455D01*
X120238833Y-104487701D01*
X120238829Y-104487701D01*
X119455971Y-104487701D01*
X119455966Y-104487701D01*
X119261138Y-104526455D01*
X119261130Y-104526457D01*
X119077598Y-104602478D01*
X119077589Y-104602483D01*
X118912419Y-104712847D01*
X118912415Y-104712850D01*
X118771949Y-104853316D01*
X118771946Y-104853320D01*
X118661582Y-105018490D01*
X118661577Y-105018499D01*
X118585556Y-105202031D01*
X118585554Y-105202039D01*
X118546800Y-105396867D01*
X117958826Y-105396867D01*
X117958826Y-101573920D01*
X119249499Y-101573920D01*
X119278340Y-101718907D01*
X119278343Y-101718917D01*
X119334912Y-101855488D01*
X119334919Y-101855501D01*
X119417048Y-101978415D01*
X119417051Y-101978419D01*
X119521580Y-102082948D01*
X119521584Y-102082951D01*
X119644498Y-102165080D01*
X119644511Y-102165087D01*
X119777939Y-102220354D01*
X119781087Y-102221658D01*
X119781091Y-102221658D01*
X119781092Y-102221659D01*
X119926079Y-102250500D01*
X119926082Y-102250500D01*
X120073920Y-102250500D01*
X120171462Y-102231096D01*
X120218913Y-102221658D01*
X120355495Y-102165084D01*
X120478416Y-102082951D01*
X120582951Y-101978416D01*
X120665084Y-101855495D01*
X120721658Y-101718913D01*
X120736459Y-101644505D01*
X120750500Y-101573920D01*
X120750500Y-101426079D01*
X120721659Y-101281092D01*
X120721658Y-101281091D01*
X120721658Y-101281087D01*
X120718856Y-101274322D01*
X120665087Y-101144511D01*
X120665080Y-101144498D01*
X120582951Y-101021584D01*
X120582948Y-101021580D01*
X120478419Y-100917051D01*
X120478415Y-100917048D01*
X120355501Y-100834919D01*
X120355488Y-100834912D01*
X120218917Y-100778343D01*
X120218907Y-100778340D01*
X120073920Y-100749500D01*
X120073918Y-100749500D01*
X119926082Y-100749500D01*
X119926080Y-100749500D01*
X119781092Y-100778340D01*
X119781082Y-100778343D01*
X119644511Y-100834912D01*
X119644498Y-100834919D01*
X119521584Y-100917048D01*
X119521580Y-100917051D01*
X119417051Y-101021580D01*
X119417048Y-101021584D01*
X119334919Y-101144498D01*
X119334912Y-101144511D01*
X119278343Y-101281082D01*
X119278340Y-101281092D01*
X119249500Y-101426079D01*
X119249500Y-101426082D01*
X119249500Y-101573918D01*
X119249500Y-101573920D01*
X119249499Y-101573920D01*
X117958826Y-101573920D01*
X117958826Y-96416865D01*
X118546800Y-96416865D01*
X118546800Y-96615532D01*
X118585554Y-96810360D01*
X118585556Y-96810368D01*
X118661577Y-96993900D01*
X118661582Y-96993909D01*
X118771946Y-97159079D01*
X118771949Y-97159083D01*
X118912415Y-97299549D01*
X118912419Y-97299552D01*
X119077589Y-97409916D01*
X119077602Y-97409923D01*
X119116614Y-97426082D01*
X119261131Y-97485943D01*
X119261132Y-97485943D01*
X119265608Y-97487797D01*
X119320012Y-97531638D01*
X119342077Y-97597932D01*
X119332718Y-97649810D01*
X119278340Y-97781091D01*
X119278340Y-97781092D01*
X119249500Y-97926079D01*
X119249500Y-97926082D01*
X119249500Y-98073918D01*
X119249500Y-98073920D01*
X119249499Y-98073920D01*
X119278340Y-98218907D01*
X119278343Y-98218917D01*
X119334912Y-98355488D01*
X119334919Y-98355501D01*
X119417048Y-98478415D01*
X119417051Y-98478419D01*
X119521580Y-98582948D01*
X119521584Y-98582951D01*
X119644498Y-98665080D01*
X119644511Y-98665087D01*
X119781082Y-98721656D01*
X119781087Y-98721658D01*
X119781091Y-98721658D01*
X119781092Y-98721659D01*
X119926079Y-98750500D01*
X119926082Y-98750500D01*
X120073920Y-98750500D01*
X120171462Y-98731096D01*
X120218913Y-98721658D01*
X120355495Y-98665084D01*
X120478416Y-98582951D01*
X120582951Y-98478416D01*
X120665084Y-98355495D01*
X120721658Y-98218913D01*
X120736459Y-98144504D01*
X120750500Y-98073920D01*
X120750500Y-97926079D01*
X120721659Y-97781092D01*
X120721658Y-97781091D01*
X120721658Y-97781087D01*
X120717032Y-97769918D01*
X120665087Y-97644511D01*
X120665080Y-97644498D01*
X120610832Y-97563311D01*
X120589954Y-97496634D01*
X120608438Y-97429254D01*
X120645044Y-97391318D01*
X120698667Y-97355488D01*
X120782381Y-97299552D01*
X120922853Y-97159080D01*
X120979755Y-97073920D01*
X121851499Y-97073920D01*
X121880340Y-97218907D01*
X121880343Y-97218917D01*
X121936912Y-97355488D01*
X121936919Y-97355501D01*
X122019048Y-97478415D01*
X122019051Y-97478419D01*
X122123580Y-97582948D01*
X122123584Y-97582951D01*
X122246498Y-97665080D01*
X122246511Y-97665087D01*
X122383082Y-97721656D01*
X122383087Y-97721658D01*
X122383091Y-97721658D01*
X122383092Y-97721659D01*
X122528079Y-97750500D01*
X122528082Y-97750500D01*
X122675920Y-97750500D01*
X122773462Y-97731096D01*
X122820913Y-97721658D01*
X122957495Y-97665084D01*
X122988304Y-97644498D01*
X123085481Y-97579567D01*
X123086439Y-97581001D01*
X123143176Y-97556891D01*
X123212046Y-97568667D01*
X123245235Y-97592370D01*
X123297363Y-97644498D01*
X123312420Y-97659555D01*
X123477589Y-97769918D01*
X123477593Y-97769920D01*
X123477596Y-97769922D01*
X123504563Y-97781092D01*
X123558684Y-97803510D01*
X123613087Y-97847351D01*
X123635152Y-97913645D01*
X123617873Y-97981345D01*
X123598913Y-98005752D01*
X123511881Y-98092784D01*
X123423755Y-98224673D01*
X123423748Y-98224686D01*
X123363047Y-98371234D01*
X123363044Y-98371243D01*
X123332100Y-98526813D01*
X123332100Y-98685452D01*
X123363044Y-98841022D01*
X123363047Y-98841031D01*
X123411805Y-98958744D01*
X123419274Y-99028213D01*
X123411805Y-99053648D01*
X123363047Y-99171360D01*
X123363044Y-99171369D01*
X123332100Y-99326939D01*
X123332100Y-99485578D01*
X123363044Y-99641148D01*
X123363047Y-99641157D01*
X123406550Y-99746183D01*
X123414019Y-99815652D01*
X123406550Y-99841087D01*
X123363047Y-99946112D01*
X123363044Y-99946121D01*
X123332100Y-100101691D01*
X123332100Y-100260330D01*
X123363044Y-100415900D01*
X123363047Y-100415909D01*
X123423748Y-100562457D01*
X123423755Y-100562470D01*
X123511881Y-100694359D01*
X123511884Y-100694363D01*
X123624047Y-100806526D01*
X123624051Y-100806529D01*
X123731160Y-100878098D01*
X123775965Y-100931711D01*
X123784672Y-101001036D01*
X123754517Y-101064063D01*
X123731160Y-101084302D01*
X123624051Y-101155870D01*
X123624047Y-101155873D01*
X123511884Y-101268036D01*
X123511881Y-101268040D01*
X123423755Y-101399929D01*
X123423748Y-101399942D01*
X123363047Y-101546490D01*
X123363044Y-101546499D01*
X123332100Y-101702069D01*
X123332100Y-101860708D01*
X123363044Y-102016278D01*
X123363047Y-102016287D01*
X123416905Y-102146313D01*
X123424374Y-102215782D01*
X123416905Y-102241217D01*
X123363047Y-102371242D01*
X123363044Y-102371251D01*
X123332100Y-102526821D01*
X123332100Y-102685460D01*
X123363044Y-102841030D01*
X123363047Y-102841039D01*
X123411805Y-102958752D01*
X123419274Y-103028221D01*
X123411805Y-103053656D01*
X123363047Y-103171368D01*
X123363044Y-103171377D01*
X123332100Y-103326947D01*
X123332100Y-103485586D01*
X123363044Y-103641156D01*
X123363047Y-103641165D01*
X123423748Y-103787713D01*
X123423755Y-103787726D01*
X123511881Y-103919615D01*
X123511884Y-103919619D01*
X123598912Y-104006647D01*
X123632397Y-104067970D01*
X123627413Y-104137662D01*
X123585541Y-104193595D01*
X123558685Y-104208889D01*
X123477596Y-104242478D01*
X123477589Y-104242481D01*
X123312419Y-104352845D01*
X123312415Y-104352848D01*
X123171949Y-104493314D01*
X123171946Y-104493318D01*
X123061582Y-104658488D01*
X123061577Y-104658497D01*
X122985556Y-104842029D01*
X122985554Y-104842037D01*
X122946800Y-105036865D01*
X122946800Y-105235532D01*
X122985554Y-105430360D01*
X122985556Y-105430368D01*
X123061577Y-105613900D01*
X123061582Y-105613909D01*
X123171946Y-105779079D01*
X123171949Y-105779083D01*
X123312415Y-105919549D01*
X123312419Y-105919552D01*
X123477589Y-106029916D01*
X123477595Y-106029919D01*
X123477596Y-106029920D01*
X123661131Y-106105943D01*
X123855966Y-106144698D01*
X123855970Y-106144699D01*
X123855971Y-106144699D01*
X124638830Y-106144699D01*
X124638831Y-106144698D01*
X124833669Y-106105943D01*
X125017204Y-106029920D01*
X125182381Y-105919552D01*
X125322853Y-105779080D01*
X125336464Y-105758710D01*
X125390076Y-105713904D01*
X125439566Y-105703600D01*
X125581727Y-105703600D01*
X125581728Y-105703599D01*
X125766751Y-105666796D01*
X125901549Y-105610960D01*
X125941034Y-105594606D01*
X125941034Y-105594605D01*
X125941041Y-105594603D01*
X126097898Y-105489794D01*
X126231294Y-105356398D01*
X126336103Y-105199541D01*
X126408296Y-105025251D01*
X126445100Y-104840225D01*
X126445100Y-104372175D01*
X126445100Y-104372172D01*
X126445099Y-104372170D01*
X126419302Y-104242481D01*
X126408296Y-104187149D01*
X126390635Y-104144511D01*
X126336106Y-104012865D01*
X126336099Y-104012852D01*
X126231294Y-103856002D01*
X126231291Y-103855998D01*
X126126870Y-103751577D01*
X127249500Y-103751577D01*
X127249500Y-103948422D01*
X127280291Y-104142827D01*
X127280291Y-104142830D01*
X127341114Y-104330021D01*
X127360825Y-104368707D01*
X127373720Y-104437376D01*
X127360825Y-104481293D01*
X127341114Y-104519978D01*
X127280291Y-104707169D01*
X127280291Y-104707172D01*
X127249500Y-104901577D01*
X127249500Y-105098422D01*
X127280290Y-105292826D01*
X127341117Y-105480029D01*
X127416339Y-105627660D01*
X127430476Y-105655405D01*
X127546172Y-105814646D01*
X127685354Y-105953828D01*
X127844595Y-106069524D01*
X127916070Y-106105942D01*
X128019970Y-106158882D01*
X128019972Y-106158882D01*
X128019975Y-106158884D01*
X128120317Y-106191487D01*
X128207173Y-106219709D01*
X128401578Y-106250500D01*
X128401583Y-106250500D01*
X128598422Y-106250500D01*
X128792826Y-106219709D01*
X128980025Y-106158884D01*
X129155405Y-106069524D01*
X129314646Y-105953828D01*
X129453828Y-105814646D01*
X129569524Y-105655405D01*
X129658884Y-105480025D01*
X129719709Y-105292826D01*
X129726413Y-105250500D01*
X129750500Y-105098422D01*
X129750500Y-104901577D01*
X129719709Y-104707173D01*
X129700510Y-104648087D01*
X129676412Y-104573920D01*
X133749499Y-104573920D01*
X133778340Y-104718907D01*
X133778343Y-104718917D01*
X133834912Y-104855488D01*
X133834919Y-104855501D01*
X133917048Y-104978415D01*
X133917051Y-104978419D01*
X134021580Y-105082948D01*
X134021584Y-105082951D01*
X134144498Y-105165080D01*
X134144511Y-105165087D01*
X134233722Y-105202039D01*
X134281087Y-105221658D01*
X134281091Y-105221658D01*
X134281092Y-105221659D01*
X134426079Y-105250500D01*
X134426082Y-105250500D01*
X134573920Y-105250500D01*
X134671462Y-105231096D01*
X134718913Y-105221658D01*
X134855495Y-105165084D01*
X134978416Y-105082951D01*
X135082951Y-104978416D01*
X135147365Y-104882014D01*
X155200000Y-104882014D01*
X155200000Y-105117985D01*
X155230798Y-105351912D01*
X155291871Y-105579837D01*
X155311678Y-105627660D01*
X155311679Y-105627660D01*
X155939340Y-105000000D01*
X155939340Y-104999999D01*
X155875322Y-104935981D01*
X156350000Y-104935981D01*
X156350000Y-105064019D01*
X156374979Y-105189598D01*
X156423978Y-105307890D01*
X156495112Y-105414351D01*
X156585649Y-105504888D01*
X156692110Y-105576022D01*
X156810402Y-105625021D01*
X156935981Y-105650000D01*
X157064019Y-105650000D01*
X157189598Y-105625021D01*
X157307890Y-105576022D01*
X157414351Y-105504888D01*
X157504888Y-105414351D01*
X157576022Y-105307890D01*
X157625021Y-105189598D01*
X157650000Y-105064019D01*
X157650000Y-104999999D01*
X158060660Y-104999999D01*
X158060660Y-105000000D01*
X158688319Y-105627660D01*
X158708130Y-105579834D01*
X158769200Y-105351914D01*
X158799999Y-105117985D01*
X158800000Y-105117971D01*
X158800000Y-104882028D01*
X158799999Y-104882014D01*
X158769201Y-104648087D01*
X158708129Y-104420165D01*
X158708125Y-104420152D01*
X158688320Y-104372338D01*
X158688319Y-104372338D01*
X158060660Y-104999999D01*
X157650000Y-104999999D01*
X157650000Y-104935981D01*
X157625021Y-104810402D01*
X157576022Y-104692110D01*
X157504888Y-104585649D01*
X157414351Y-104495112D01*
X157307890Y-104423978D01*
X157189598Y-104374979D01*
X157064019Y-104350000D01*
X156935981Y-104350000D01*
X156810402Y-104374979D01*
X156692110Y-104423978D01*
X156585649Y-104495112D01*
X156495112Y-104585649D01*
X156423978Y-104692110D01*
X156374979Y-104810402D01*
X156350000Y-104935981D01*
X155875322Y-104935981D01*
X155311679Y-104372338D01*
X155291872Y-104420159D01*
X155291868Y-104420170D01*
X155230798Y-104648087D01*
X155200000Y-104882014D01*
X135147365Y-104882014D01*
X135165084Y-104855495D01*
X135165085Y-104855492D01*
X135165087Y-104855489D01*
X135175433Y-104830511D01*
X135175433Y-104830510D01*
X135183762Y-104810402D01*
X135221658Y-104718913D01*
X135250500Y-104573918D01*
X135250500Y-104426082D01*
X135250500Y-104426079D01*
X135221659Y-104281092D01*
X135221658Y-104281091D01*
X135221658Y-104281087D01*
X135174176Y-104166455D01*
X135165087Y-104144511D01*
X135165080Y-104144498D01*
X135082951Y-104021584D01*
X135082948Y-104021580D01*
X134978419Y-103917051D01*
X134978415Y-103917048D01*
X134855501Y-103834919D01*
X134855488Y-103834912D01*
X134718917Y-103778343D01*
X134718907Y-103778340D01*
X134573920Y-103749500D01*
X134573918Y-103749500D01*
X134426082Y-103749500D01*
X134426080Y-103749500D01*
X134281092Y-103778340D01*
X134281082Y-103778343D01*
X134144511Y-103834912D01*
X134144498Y-103834919D01*
X134021584Y-103917048D01*
X134021580Y-103917051D01*
X133917051Y-104021580D01*
X133917048Y-104021584D01*
X133834919Y-104144498D01*
X133834912Y-104144511D01*
X133778343Y-104281082D01*
X133778340Y-104281092D01*
X133749500Y-104426079D01*
X133749500Y-104426082D01*
X133749500Y-104573918D01*
X133749500Y-104573920D01*
X133749499Y-104573920D01*
X129676412Y-104573920D01*
X129658884Y-104519975D01*
X129658881Y-104519971D01*
X129658881Y-104519968D01*
X129639176Y-104481296D01*
X129638165Y-104475916D01*
X129634761Y-104471629D01*
X129631785Y-104441946D01*
X129626279Y-104412627D01*
X129628193Y-104406108D01*
X129627792Y-104402107D01*
X129639178Y-104368700D01*
X129641731Y-104363690D01*
X129641731Y-104363689D01*
X129647257Y-104352845D01*
X129658884Y-104330025D01*
X129719709Y-104142826D01*
X129731565Y-104067970D01*
X129750500Y-103948422D01*
X129750500Y-103751577D01*
X129719709Y-103557173D01*
X129683799Y-103446656D01*
X129658884Y-103369975D01*
X129658882Y-103369972D01*
X129658882Y-103369970D01*
X129569523Y-103194594D01*
X129552655Y-103171377D01*
X129453828Y-103035354D01*
X129314646Y-102896172D01*
X129180791Y-102798920D01*
X133249499Y-102798920D01*
X133278340Y-102943907D01*
X133278343Y-102943917D01*
X133334912Y-103080488D01*
X133334919Y-103080501D01*
X133417048Y-103203415D01*
X133417051Y-103203419D01*
X133521580Y-103307948D01*
X133521584Y-103307951D01*
X133644498Y-103390080D01*
X133644511Y-103390087D01*
X133781082Y-103446656D01*
X133781087Y-103446658D01*
X133781091Y-103446658D01*
X133781092Y-103446659D01*
X133926079Y-103475500D01*
X133926082Y-103475500D01*
X134073920Y-103475500D01*
X134171462Y-103456096D01*
X134218913Y-103446658D01*
X134355495Y-103390084D01*
X134472837Y-103311679D01*
X156372338Y-103311679D01*
X157000000Y-103939340D01*
X157000001Y-103939340D01*
X157627660Y-103311679D01*
X157627660Y-103311678D01*
X157579837Y-103291871D01*
X157351912Y-103230798D01*
X157117985Y-103200000D01*
X156882014Y-103200000D01*
X156648087Y-103230798D01*
X156420170Y-103291868D01*
X156420159Y-103291872D01*
X156372338Y-103311679D01*
X134472837Y-103311679D01*
X134478416Y-103307951D01*
X134494499Y-103291868D01*
X134521556Y-103264812D01*
X134582948Y-103203419D01*
X134582951Y-103203416D01*
X134665084Y-103080495D01*
X134721658Y-102943913D01*
X134731155Y-102896172D01*
X134750500Y-102798920D01*
X134750500Y-102651079D01*
X134721659Y-102506092D01*
X134721658Y-102506091D01*
X134721658Y-102506087D01*
X134694662Y-102440912D01*
X134665087Y-102369511D01*
X134665081Y-102369500D01*
X134654999Y-102354411D01*
X134634122Y-102287734D01*
X134652607Y-102220354D01*
X134704586Y-102173664D01*
X134773556Y-102162488D01*
X134805556Y-102170961D01*
X134824096Y-102178641D01*
X134824099Y-102178641D01*
X134824102Y-102178643D01*
X134824106Y-102178643D01*
X134824107Y-102178644D01*
X134969094Y-102207485D01*
X134969097Y-102207485D01*
X135116935Y-102207485D01*
X135214477Y-102188081D01*
X135261928Y-102178643D01*
X135398510Y-102122069D01*
X135521431Y-102039936D01*
X135625966Y-101935401D01*
X135708099Y-101812480D01*
X135759528Y-101688319D01*
X156372338Y-101688319D01*
X156372338Y-101688320D01*
X156420152Y-101708125D01*
X156420165Y-101708129D01*
X156648087Y-101769201D01*
X156882014Y-101799999D01*
X156882029Y-101800000D01*
X157117971Y-101800000D01*
X157117985Y-101799999D01*
X157351914Y-101769200D01*
X157579834Y-101708130D01*
X157627660Y-101688319D01*
X157000001Y-101060660D01*
X157000000Y-101060660D01*
X156372338Y-101688319D01*
X135759528Y-101688319D01*
X135764673Y-101675898D01*
X135787209Y-101562605D01*
X135793515Y-101530905D01*
X135793515Y-101383064D01*
X135764674Y-101238077D01*
X135764673Y-101238076D01*
X135764673Y-101238072D01*
X135742220Y-101183866D01*
X135708102Y-101101496D01*
X135708095Y-101101483D01*
X135625966Y-100978569D01*
X135625963Y-100978565D01*
X135521434Y-100874036D01*
X135521430Y-100874033D01*
X135398516Y-100791904D01*
X135398503Y-100791897D01*
X135261932Y-100735328D01*
X135261922Y-100735325D01*
X135116935Y-100706485D01*
X135116933Y-100706485D01*
X134969097Y-100706485D01*
X134969095Y-100706485D01*
X134824107Y-100735325D01*
X134824097Y-100735328D01*
X134687526Y-100791897D01*
X134687513Y-100791904D01*
X134564599Y-100874033D01*
X134564595Y-100874036D01*
X134460066Y-100978565D01*
X134460063Y-100978569D01*
X134377934Y-101101483D01*
X134377927Y-101101496D01*
X134321358Y-101238067D01*
X134321355Y-101238077D01*
X134292515Y-101383064D01*
X134292515Y-101383067D01*
X134292515Y-101530903D01*
X134292515Y-101530905D01*
X134292514Y-101530905D01*
X134321355Y-101675892D01*
X134321358Y-101675902D01*
X134377927Y-101812473D01*
X134377936Y-101812489D01*
X134388015Y-101827574D01*
X134408892Y-101894252D01*
X134390406Y-101961632D01*
X134338427Y-102008321D01*
X134269457Y-102019496D01*
X134237460Y-102011024D01*
X134218917Y-102003343D01*
X134218907Y-102003340D01*
X134073920Y-101974500D01*
X134073918Y-101974500D01*
X133926082Y-101974500D01*
X133926080Y-101974500D01*
X133781092Y-102003340D01*
X133781082Y-102003343D01*
X133644511Y-102059912D01*
X133644498Y-102059919D01*
X133521584Y-102142048D01*
X133521580Y-102142051D01*
X133417051Y-102246580D01*
X133417048Y-102246584D01*
X133334919Y-102369498D01*
X133334912Y-102369511D01*
X133278343Y-102506082D01*
X133278340Y-102506092D01*
X133249500Y-102651079D01*
X133249500Y-102651082D01*
X133249500Y-102798918D01*
X133249500Y-102798920D01*
X133249499Y-102798920D01*
X129180791Y-102798920D01*
X129155405Y-102780476D01*
X128980029Y-102691117D01*
X128792826Y-102630290D01*
X128598422Y-102599500D01*
X128598417Y-102599500D01*
X128401583Y-102599500D01*
X128401578Y-102599500D01*
X128207173Y-102630290D01*
X128019970Y-102691117D01*
X127844594Y-102780476D01*
X127774321Y-102831533D01*
X127685354Y-102896172D01*
X127685352Y-102896174D01*
X127685351Y-102896174D01*
X127546174Y-103035351D01*
X127546174Y-103035352D01*
X127546172Y-103035354D01*
X127532875Y-103053656D01*
X127430476Y-103194594D01*
X127341117Y-103369970D01*
X127280290Y-103557173D01*
X127249500Y-103751577D01*
X126126870Y-103751577D01*
X126097901Y-103722608D01*
X126097897Y-103722605D01*
X125941047Y-103617800D01*
X125941034Y-103617793D01*
X125766755Y-103545605D01*
X125766743Y-103545602D01*
X125658407Y-103524052D01*
X125658399Y-103524051D01*
X125581725Y-103508800D01*
X125393075Y-103508800D01*
X125393072Y-103508800D01*
X125208056Y-103545602D01*
X125208053Y-103545603D01*
X125208052Y-103545603D01*
X125208049Y-103545604D01*
X125164487Y-103563648D01*
X125114152Y-103584497D01*
X125081513Y-103588005D01*
X125049053Y-103592673D01*
X125046965Y-103591719D01*
X125044682Y-103591965D01*
X125015339Y-103577276D01*
X124985497Y-103563648D01*
X124984255Y-103561716D01*
X124982203Y-103560689D01*
X124965457Y-103532466D01*
X124947723Y-103504870D01*
X124947287Y-103501841D01*
X124946551Y-103500600D01*
X124942700Y-103469935D01*
X124942700Y-103398901D01*
X124962385Y-103331862D01*
X124979019Y-103311220D01*
X125203367Y-103086872D01*
X125191990Y-103029675D01*
X125198217Y-102960084D01*
X125241080Y-102904907D01*
X125244716Y-102902382D01*
X125350749Y-102831533D01*
X125462915Y-102719367D01*
X125462918Y-102719364D01*
X125551048Y-102587468D01*
X125611753Y-102440912D01*
X125625956Y-102369511D01*
X125642699Y-102285334D01*
X125642700Y-102285331D01*
X125642700Y-102126699D01*
X125642699Y-102126695D01*
X125611755Y-101971125D01*
X125611752Y-101971116D01*
X125565661Y-101859841D01*
X125558192Y-101790372D01*
X125565661Y-101764937D01*
X125583587Y-101721659D01*
X125611753Y-101653660D01*
X125613576Y-101644498D01*
X125638025Y-101521580D01*
X125642700Y-101498078D01*
X125642700Y-101339448D01*
X125634819Y-101299827D01*
X125611755Y-101183873D01*
X125611752Y-101183864D01*
X125562995Y-101066152D01*
X125555526Y-100996683D01*
X125562995Y-100971248D01*
X125589636Y-100906929D01*
X125611753Y-100853534D01*
X125615457Y-100834916D01*
X125642699Y-100697956D01*
X125642700Y-100697953D01*
X125642700Y-100539321D01*
X125642699Y-100539317D01*
X125611755Y-100383747D01*
X125611753Y-100383742D01*
X125611753Y-100383740D01*
X125560482Y-100259961D01*
X125553014Y-100190494D01*
X125560481Y-100165063D01*
X125611753Y-100041282D01*
X125613103Y-100034499D01*
X125640268Y-99897928D01*
X125642700Y-99885700D01*
X125642700Y-99752931D01*
X126196401Y-99752931D01*
X126225242Y-99897918D01*
X126225245Y-99897928D01*
X126281814Y-100034499D01*
X126281821Y-100034512D01*
X126363950Y-100157426D01*
X126363953Y-100157430D01*
X126468482Y-100261959D01*
X126468486Y-100261962D01*
X126591400Y-100344091D01*
X126591413Y-100344098D01*
X126727984Y-100400667D01*
X126727989Y-100400669D01*
X126727993Y-100400669D01*
X126727994Y-100400670D01*
X126872981Y-100429511D01*
X126891505Y-100429511D01*
X126958544Y-100449196D01*
X127004299Y-100502000D01*
X127014243Y-100571158D01*
X126985218Y-100634714D01*
X126938958Y-100668072D01*
X126913511Y-100678612D01*
X126913501Y-100678617D01*
X126790587Y-100760746D01*
X126790583Y-100760749D01*
X126686054Y-100865278D01*
X126686051Y-100865282D01*
X126603922Y-100988196D01*
X126603915Y-100988209D01*
X126547346Y-101124780D01*
X126547343Y-101124790D01*
X126518503Y-101269777D01*
X126518503Y-101269780D01*
X126518503Y-101417616D01*
X126518503Y-101417618D01*
X126518502Y-101417618D01*
X126547343Y-101562605D01*
X126547346Y-101562615D01*
X126603915Y-101699186D01*
X126603922Y-101699199D01*
X126686051Y-101822113D01*
X126686054Y-101822117D01*
X126790583Y-101926646D01*
X126790587Y-101926649D01*
X126913501Y-102008778D01*
X126913514Y-102008785D01*
X127036964Y-102059919D01*
X127050090Y-102065356D01*
X127050094Y-102065356D01*
X127050095Y-102065357D01*
X127195082Y-102094198D01*
X127195085Y-102094198D01*
X127342923Y-102094198D01*
X127444863Y-102073920D01*
X131249499Y-102073920D01*
X131278340Y-102218907D01*
X131278343Y-102218917D01*
X131334912Y-102355488D01*
X131334919Y-102355501D01*
X131417048Y-102478415D01*
X131417051Y-102478419D01*
X131521580Y-102582948D01*
X131521584Y-102582951D01*
X131644498Y-102665080D01*
X131644511Y-102665087D01*
X131707354Y-102691117D01*
X131781087Y-102721658D01*
X131781091Y-102721658D01*
X131781092Y-102721659D01*
X131926079Y-102750500D01*
X131926082Y-102750500D01*
X132073920Y-102750500D01*
X132171462Y-102731096D01*
X132218913Y-102721658D01*
X132355495Y-102665084D01*
X132478416Y-102582951D01*
X132478419Y-102582948D01*
X132504059Y-102557309D01*
X132582948Y-102478419D01*
X132582951Y-102478416D01*
X132665084Y-102355495D01*
X132721658Y-102218913D01*
X132732366Y-102165080D01*
X132750500Y-102073920D01*
X132750500Y-101926080D01*
X132737495Y-101860704D01*
X132730381Y-101824940D01*
X132736608Y-101755350D01*
X132779470Y-101700172D01*
X132804546Y-101686188D01*
X132855488Y-101665087D01*
X132855488Y-101665086D01*
X132855495Y-101665084D01*
X132978416Y-101582951D01*
X133082951Y-101478416D01*
X133165084Y-101355495D01*
X133221658Y-101218913D01*
X133236459Y-101144505D01*
X133250500Y-101073920D01*
X133250500Y-100926079D01*
X133221659Y-100781092D01*
X133221658Y-100781091D01*
X133221658Y-100781087D01*
X133213233Y-100760747D01*
X133165087Y-100644511D01*
X133165080Y-100644498D01*
X133082951Y-100521584D01*
X133082948Y-100521580D01*
X132978419Y-100417051D01*
X132978415Y-100417048D01*
X132882713Y-100353102D01*
X132837908Y-100299490D01*
X132829201Y-100230165D01*
X132859355Y-100167138D01*
X132882713Y-100146898D01*
X132950362Y-100101696D01*
X132978416Y-100082951D01*
X133082951Y-99978416D01*
X133147365Y-99882014D01*
X155200000Y-99882014D01*
X155200000Y-100117985D01*
X155230798Y-100351912D01*
X155291871Y-100579837D01*
X155311678Y-100627660D01*
X155311679Y-100627660D01*
X155939340Y-100000000D01*
X155939340Y-99999999D01*
X155875322Y-99935981D01*
X156350000Y-99935981D01*
X156350000Y-100064019D01*
X156374979Y-100189598D01*
X156423978Y-100307890D01*
X156495112Y-100414351D01*
X156585649Y-100504888D01*
X156692110Y-100576022D01*
X156810402Y-100625021D01*
X156935981Y-100650000D01*
X157064019Y-100650000D01*
X157189598Y-100625021D01*
X157307890Y-100576022D01*
X157414351Y-100504888D01*
X157504888Y-100414351D01*
X157576022Y-100307890D01*
X157625021Y-100189598D01*
X157650000Y-100064019D01*
X157650000Y-99999999D01*
X158060660Y-99999999D01*
X158060660Y-100000000D01*
X158688319Y-100627660D01*
X158708130Y-100579834D01*
X158769200Y-100351914D01*
X158799999Y-100117985D01*
X158800000Y-100117971D01*
X158800000Y-99882028D01*
X158799999Y-99882014D01*
X158769201Y-99648087D01*
X158708129Y-99420165D01*
X158708125Y-99420152D01*
X158688320Y-99372338D01*
X158688319Y-99372338D01*
X158060660Y-99999999D01*
X157650000Y-99999999D01*
X157650000Y-99935981D01*
X157625021Y-99810402D01*
X157576022Y-99692110D01*
X157504888Y-99585649D01*
X157414351Y-99495112D01*
X157307890Y-99423978D01*
X157189598Y-99374979D01*
X157064019Y-99350000D01*
X156935981Y-99350000D01*
X156810402Y-99374979D01*
X156692110Y-99423978D01*
X156585649Y-99495112D01*
X156495112Y-99585649D01*
X156423978Y-99692110D01*
X156374979Y-99810402D01*
X156350000Y-99935981D01*
X155875322Y-99935981D01*
X155311679Y-99372338D01*
X155291872Y-99420159D01*
X155291868Y-99420170D01*
X155230798Y-99648087D01*
X155200000Y-99882014D01*
X133147365Y-99882014D01*
X133165084Y-99855495D01*
X133165085Y-99855492D01*
X133165087Y-99855489D01*
X133175433Y-99830511D01*
X133175433Y-99830510D01*
X133183762Y-99810402D01*
X133221658Y-99718913D01*
X133244299Y-99605093D01*
X133250500Y-99573920D01*
X133250500Y-99426079D01*
X133221659Y-99281092D01*
X133221658Y-99281091D01*
X133221658Y-99281087D01*
X133221656Y-99281082D01*
X133165087Y-99144511D01*
X133165080Y-99144498D01*
X133082951Y-99021584D01*
X133082948Y-99021580D01*
X132978419Y-98917051D01*
X132978415Y-98917048D01*
X132855501Y-98834919D01*
X132855488Y-98834912D01*
X132718917Y-98778343D01*
X132718907Y-98778340D01*
X132573920Y-98749500D01*
X132573918Y-98749500D01*
X132426082Y-98749500D01*
X132426080Y-98749500D01*
X132281092Y-98778340D01*
X132281082Y-98778343D01*
X132144511Y-98834912D01*
X132144498Y-98834919D01*
X132021584Y-98917048D01*
X132021580Y-98917051D01*
X131917051Y-99021580D01*
X131917048Y-99021584D01*
X131834919Y-99144498D01*
X131834912Y-99144511D01*
X131778343Y-99281082D01*
X131778340Y-99281092D01*
X131749500Y-99426079D01*
X131749500Y-99426082D01*
X131749500Y-99573918D01*
X131749500Y-99573920D01*
X131749499Y-99573920D01*
X131778340Y-99718907D01*
X131778343Y-99718917D01*
X131834912Y-99855488D01*
X131834919Y-99855501D01*
X131917048Y-99978415D01*
X131917051Y-99978419D01*
X132021580Y-100082948D01*
X132021584Y-100082951D01*
X132117286Y-100146898D01*
X132162091Y-100200511D01*
X132170798Y-100269836D01*
X132140643Y-100332863D01*
X132117286Y-100353102D01*
X132021584Y-100417048D01*
X132021580Y-100417051D01*
X131917051Y-100521580D01*
X131917048Y-100521584D01*
X131834919Y-100644498D01*
X131834912Y-100644511D01*
X131778343Y-100781082D01*
X131778340Y-100781092D01*
X131749500Y-100926079D01*
X131749500Y-100926082D01*
X131749500Y-101073918D01*
X131749500Y-101073920D01*
X131749499Y-101073920D01*
X131769618Y-101175058D01*
X131763391Y-101244650D01*
X131720528Y-101299827D01*
X131695456Y-101313810D01*
X131644510Y-101334913D01*
X131644498Y-101334919D01*
X131521584Y-101417048D01*
X131521580Y-101417051D01*
X131417051Y-101521580D01*
X131417048Y-101521584D01*
X131334919Y-101644498D01*
X131334912Y-101644511D01*
X131278343Y-101781082D01*
X131278340Y-101781092D01*
X131249500Y-101926079D01*
X131249500Y-101926080D01*
X131249500Y-101926082D01*
X131249500Y-102073918D01*
X131249500Y-102073920D01*
X131249499Y-102073920D01*
X127444863Y-102073920D01*
X127444873Y-102073918D01*
X127487916Y-102065356D01*
X127606401Y-102016278D01*
X127624491Y-102008785D01*
X127624491Y-102008784D01*
X127624498Y-102008782D01*
X127747419Y-101926649D01*
X127779816Y-101894252D01*
X127841760Y-101832309D01*
X127851951Y-101822117D01*
X127851954Y-101822114D01*
X127934087Y-101699193D01*
X127934088Y-101699190D01*
X127934090Y-101699187D01*
X127974380Y-101601916D01*
X128018220Y-101547512D01*
X128041477Y-101534812D01*
X128130121Y-101498095D01*
X128253042Y-101415962D01*
X128357577Y-101311427D01*
X128439710Y-101188506D01*
X128496284Y-101051924D01*
X128505722Y-101004473D01*
X128525126Y-100906931D01*
X128525126Y-100759090D01*
X128496285Y-100614103D01*
X128496284Y-100614102D01*
X128496284Y-100614098D01*
X128482093Y-100579837D01*
X128439713Y-100477522D01*
X128439706Y-100477509D01*
X128357577Y-100354595D01*
X128357574Y-100354591D01*
X128253045Y-100250062D01*
X128253041Y-100250059D01*
X128130127Y-100167930D01*
X128130114Y-100167923D01*
X127993543Y-100111354D01*
X127993533Y-100111351D01*
X127848546Y-100082511D01*
X127848544Y-100082511D01*
X127777681Y-100082511D01*
X127710642Y-100062826D01*
X127664887Y-100010022D01*
X127654943Y-99940864D01*
X127663119Y-99911061D01*
X127668558Y-99897928D01*
X127668560Y-99897924D01*
X127697402Y-99752929D01*
X127697402Y-99605093D01*
X127697402Y-99605090D01*
X127691201Y-99573920D01*
X129249499Y-99573920D01*
X129278340Y-99718907D01*
X129278343Y-99718917D01*
X129334912Y-99855488D01*
X129334919Y-99855501D01*
X129417048Y-99978415D01*
X129417051Y-99978419D01*
X129521580Y-100082948D01*
X129521584Y-100082951D01*
X129617286Y-100146898D01*
X129662091Y-100200511D01*
X129670798Y-100269836D01*
X129640643Y-100332863D01*
X129617286Y-100353102D01*
X129521584Y-100417048D01*
X129521580Y-100417051D01*
X129417051Y-100521580D01*
X129417048Y-100521584D01*
X129334919Y-100644498D01*
X129334912Y-100644511D01*
X129278343Y-100781082D01*
X129278340Y-100781092D01*
X129249500Y-100926079D01*
X129249500Y-100926082D01*
X129249500Y-101073918D01*
X129249500Y-101073920D01*
X129249499Y-101073920D01*
X129278340Y-101218907D01*
X129278343Y-101218917D01*
X129334912Y-101355488D01*
X129334919Y-101355501D01*
X129417048Y-101478415D01*
X129417051Y-101478419D01*
X129521580Y-101582948D01*
X129521584Y-101582951D01*
X129644498Y-101665080D01*
X129644511Y-101665087D01*
X129781082Y-101721656D01*
X129781087Y-101721658D01*
X129781091Y-101721658D01*
X129781092Y-101721659D01*
X129926079Y-101750500D01*
X129926082Y-101750500D01*
X130073920Y-101750500D01*
X130171462Y-101731096D01*
X130218913Y-101721658D01*
X130355495Y-101665084D01*
X130478416Y-101582951D01*
X130582951Y-101478416D01*
X130665084Y-101355495D01*
X130721658Y-101218913D01*
X130736459Y-101144505D01*
X130750500Y-101073920D01*
X130750500Y-100926079D01*
X130721659Y-100781092D01*
X130721658Y-100781091D01*
X130721658Y-100781087D01*
X130713233Y-100760747D01*
X130665087Y-100644511D01*
X130665080Y-100644498D01*
X130582951Y-100521584D01*
X130582948Y-100521580D01*
X130478419Y-100417051D01*
X130478415Y-100417048D01*
X130382713Y-100353102D01*
X130337908Y-100299490D01*
X130329201Y-100230165D01*
X130359355Y-100167138D01*
X130382713Y-100146898D01*
X130450362Y-100101696D01*
X130478416Y-100082951D01*
X130582951Y-99978416D01*
X130665084Y-99855495D01*
X130721658Y-99718913D01*
X130744299Y-99605093D01*
X130750500Y-99573920D01*
X130750500Y-99426079D01*
X130721659Y-99281092D01*
X130721658Y-99281091D01*
X130721658Y-99281087D01*
X130721656Y-99281082D01*
X130665087Y-99144511D01*
X130665080Y-99144498D01*
X130582951Y-99021584D01*
X130582948Y-99021580D01*
X130478419Y-98917051D01*
X130478415Y-98917048D01*
X130355501Y-98834919D01*
X130355488Y-98834912D01*
X130218917Y-98778343D01*
X130218907Y-98778340D01*
X130073920Y-98749500D01*
X130073918Y-98749500D01*
X129926082Y-98749500D01*
X129926080Y-98749500D01*
X129781092Y-98778340D01*
X129781082Y-98778343D01*
X129644511Y-98834912D01*
X129644498Y-98834919D01*
X129521584Y-98917048D01*
X129521580Y-98917051D01*
X129417051Y-99021580D01*
X129417048Y-99021584D01*
X129334919Y-99144498D01*
X129334912Y-99144511D01*
X129278343Y-99281082D01*
X129278340Y-99281092D01*
X129249500Y-99426079D01*
X129249500Y-99426082D01*
X129249500Y-99573918D01*
X129249500Y-99573920D01*
X129249499Y-99573920D01*
X127691201Y-99573920D01*
X127673628Y-99485578D01*
X127668560Y-99460098D01*
X127625232Y-99355495D01*
X127611989Y-99323522D01*
X127611982Y-99323509D01*
X127529853Y-99200595D01*
X127529850Y-99200591D01*
X127425321Y-99096062D01*
X127425317Y-99096059D01*
X127302403Y-99013930D01*
X127302390Y-99013923D01*
X127165819Y-98957354D01*
X127165809Y-98957351D01*
X127020822Y-98928511D01*
X127020820Y-98928511D01*
X126872984Y-98928511D01*
X126872982Y-98928511D01*
X126727994Y-98957351D01*
X126727984Y-98957354D01*
X126591413Y-99013923D01*
X126591400Y-99013930D01*
X126468486Y-99096059D01*
X126468482Y-99096062D01*
X126363953Y-99200591D01*
X126363950Y-99200595D01*
X126281821Y-99323509D01*
X126281814Y-99323522D01*
X126225245Y-99460093D01*
X126225242Y-99460103D01*
X126196402Y-99605090D01*
X126196402Y-99605093D01*
X126196402Y-99752929D01*
X126196402Y-99752931D01*
X126196401Y-99752931D01*
X125642700Y-99752931D01*
X125642700Y-99727070D01*
X125641624Y-99721659D01*
X125622038Y-99623192D01*
X125611755Y-99571495D01*
X125611752Y-99571486D01*
X125551051Y-99424938D01*
X125551044Y-99424925D01*
X125462918Y-99293036D01*
X125462915Y-99293032D01*
X125350752Y-99180869D01*
X125350748Y-99180866D01*
X125244716Y-99110017D01*
X125199911Y-99056404D01*
X125191204Y-98987079D01*
X125191990Y-98982724D01*
X125203367Y-98925526D01*
X124979019Y-98701178D01*
X124945534Y-98639855D01*
X124942700Y-98613497D01*
X124942700Y-98526817D01*
X124942699Y-98526813D01*
X124916148Y-98393330D01*
X124952504Y-98378272D01*
X125009665Y-98321111D01*
X125040600Y-98246426D01*
X125040600Y-98165588D01*
X125009665Y-98090903D01*
X125003293Y-98084531D01*
X125057510Y-98088409D01*
X125101857Y-98116910D01*
X125556919Y-98571974D01*
X125611271Y-98440758D01*
X125611273Y-98440750D01*
X125642199Y-98285277D01*
X125642200Y-98285275D01*
X125642200Y-98126738D01*
X125642199Y-98126736D01*
X125624329Y-98036895D01*
X125630556Y-97967304D01*
X125673419Y-97912126D01*
X125685535Y-97905372D01*
X125685203Y-97904797D01*
X125720010Y-97884701D01*
X125813257Y-97830865D01*
X125912065Y-97732057D01*
X125981933Y-97611042D01*
X125991880Y-97573920D01*
X141749499Y-97573920D01*
X141778340Y-97718907D01*
X141778343Y-97718917D01*
X141834912Y-97855488D01*
X141834919Y-97855501D01*
X141885439Y-97931109D01*
X141906317Y-97997787D01*
X141887832Y-98065167D01*
X141885439Y-98068891D01*
X141834919Y-98144498D01*
X141834912Y-98144511D01*
X141778343Y-98281082D01*
X141778340Y-98281092D01*
X141749500Y-98426079D01*
X141749500Y-98426082D01*
X141749500Y-98573918D01*
X141749500Y-98573920D01*
X141749499Y-98573920D01*
X141778340Y-98718907D01*
X141778343Y-98718917D01*
X141834912Y-98855488D01*
X141834919Y-98855501D01*
X141917048Y-98978415D01*
X141917051Y-98978419D01*
X142021580Y-99082948D01*
X142021584Y-99082951D01*
X142144498Y-99165080D01*
X142144511Y-99165087D01*
X142281082Y-99221656D01*
X142281087Y-99221658D01*
X142281091Y-99221658D01*
X142281092Y-99221659D01*
X142426079Y-99250500D01*
X142426082Y-99250500D01*
X142573920Y-99250500D01*
X142671462Y-99231096D01*
X142718913Y-99221658D01*
X142855495Y-99165084D01*
X142978416Y-99082951D01*
X142987447Y-99073920D01*
X143903499Y-99073920D01*
X143932340Y-99218907D01*
X143932343Y-99218917D01*
X143988912Y-99355488D01*
X143988919Y-99355501D01*
X144071048Y-99478415D01*
X144071051Y-99478419D01*
X144175580Y-99582948D01*
X144175584Y-99582951D01*
X144298498Y-99665080D01*
X144298511Y-99665087D01*
X144435082Y-99721656D01*
X144435087Y-99721658D01*
X144435091Y-99721658D01*
X144435092Y-99721659D01*
X144580079Y-99750500D01*
X144580082Y-99750500D01*
X144727920Y-99750500D01*
X144825462Y-99731096D01*
X144872913Y-99721658D01*
X145009495Y-99665084D01*
X145132416Y-99582951D01*
X145236951Y-99478416D01*
X145319084Y-99355495D01*
X145375658Y-99218913D01*
X145390459Y-99144505D01*
X145404500Y-99073920D01*
X145404500Y-98926079D01*
X145375659Y-98781092D01*
X145375658Y-98781091D01*
X145375658Y-98781087D01*
X145374520Y-98778340D01*
X145319087Y-98644511D01*
X145319080Y-98644498D01*
X145236951Y-98521584D01*
X145236948Y-98521580D01*
X145147834Y-98432466D01*
X145114349Y-98371143D01*
X145118602Y-98311679D01*
X156372338Y-98311679D01*
X157000000Y-98939340D01*
X157000001Y-98939340D01*
X157627660Y-98311679D01*
X157627660Y-98311678D01*
X157579837Y-98291871D01*
X157351912Y-98230798D01*
X157117985Y-98200000D01*
X156882014Y-98200000D01*
X156648087Y-98230798D01*
X156420170Y-98291868D01*
X156420159Y-98291872D01*
X156372338Y-98311679D01*
X145118602Y-98311679D01*
X145119333Y-98301451D01*
X145161205Y-98245518D01*
X145211324Y-98223168D01*
X145214460Y-98222543D01*
X145218913Y-98221658D01*
X145355495Y-98165084D01*
X145478416Y-98082951D01*
X145582951Y-97978416D01*
X145665084Y-97855495D01*
X145721658Y-97718913D01*
X145736459Y-97644505D01*
X145750500Y-97573920D01*
X145750500Y-97426079D01*
X145721659Y-97281092D01*
X145721658Y-97281091D01*
X145721658Y-97281087D01*
X145721656Y-97281082D01*
X145665087Y-97144511D01*
X145665080Y-97144498D01*
X145582951Y-97021584D01*
X145582948Y-97021580D01*
X145478419Y-96917051D01*
X145478415Y-96917048D01*
X145355501Y-96834919D01*
X145355488Y-96834912D01*
X145218917Y-96778343D01*
X145218907Y-96778340D01*
X145073920Y-96749500D01*
X145073918Y-96749500D01*
X144926082Y-96749500D01*
X144926080Y-96749500D01*
X144781092Y-96778340D01*
X144781082Y-96778343D01*
X144644511Y-96834912D01*
X144644498Y-96834919D01*
X144521584Y-96917048D01*
X144521580Y-96917051D01*
X144417051Y-97021580D01*
X144417048Y-97021584D01*
X144334919Y-97144498D01*
X144334912Y-97144511D01*
X144278343Y-97281082D01*
X144278340Y-97281092D01*
X144249500Y-97426079D01*
X144249500Y-97426082D01*
X144249500Y-97573918D01*
X144249500Y-97573920D01*
X144249499Y-97573920D01*
X144278340Y-97718907D01*
X144278343Y-97718917D01*
X144334912Y-97855488D01*
X144334919Y-97855501D01*
X144417048Y-97978415D01*
X144417051Y-97978419D01*
X144506165Y-98067533D01*
X144539650Y-98128856D01*
X144534666Y-98198548D01*
X144492794Y-98254481D01*
X144442685Y-98276829D01*
X144435099Y-98278338D01*
X144435082Y-98278343D01*
X144298511Y-98334912D01*
X144298498Y-98334919D01*
X144175584Y-98417048D01*
X144175580Y-98417051D01*
X144071051Y-98521580D01*
X144071048Y-98521584D01*
X143988919Y-98644498D01*
X143988912Y-98644511D01*
X143932343Y-98781082D01*
X143932340Y-98781092D01*
X143903500Y-98926079D01*
X143903500Y-98926082D01*
X143903500Y-99073918D01*
X143903500Y-99073920D01*
X143903499Y-99073920D01*
X142987447Y-99073920D01*
X143082951Y-98978416D01*
X143165084Y-98855495D01*
X143221658Y-98718913D01*
X143236459Y-98644505D01*
X143250500Y-98573920D01*
X143250500Y-98426079D01*
X143221659Y-98281092D01*
X143221658Y-98281091D01*
X143221658Y-98281087D01*
X143212300Y-98258494D01*
X143165087Y-98144511D01*
X143165083Y-98144504D01*
X143164237Y-98143238D01*
X143114559Y-98068888D01*
X143093682Y-98002214D01*
X143112166Y-97934834D01*
X143114531Y-97931151D01*
X143165084Y-97855495D01*
X143221658Y-97718913D01*
X143236459Y-97644505D01*
X143250500Y-97573920D01*
X143250500Y-97426079D01*
X143221659Y-97281092D01*
X143221658Y-97281091D01*
X143221658Y-97281087D01*
X143221656Y-97281082D01*
X143165087Y-97144511D01*
X143165080Y-97144498D01*
X143082951Y-97021584D01*
X143082948Y-97021580D01*
X142978419Y-96917051D01*
X142978415Y-96917048D01*
X142855501Y-96834919D01*
X142855488Y-96834912D01*
X142718917Y-96778343D01*
X142718907Y-96778340D01*
X142573920Y-96749500D01*
X142573918Y-96749500D01*
X142426082Y-96749500D01*
X142426080Y-96749500D01*
X142281092Y-96778340D01*
X142281082Y-96778343D01*
X142144511Y-96834912D01*
X142144498Y-96834919D01*
X142021584Y-96917048D01*
X142021580Y-96917051D01*
X141917051Y-97021580D01*
X141917048Y-97021584D01*
X141834919Y-97144498D01*
X141834912Y-97144511D01*
X141778343Y-97281082D01*
X141778340Y-97281092D01*
X141749500Y-97426079D01*
X141749500Y-97426082D01*
X141749500Y-97573918D01*
X141749500Y-97573920D01*
X141749499Y-97573920D01*
X125991880Y-97573920D01*
X126018100Y-97476068D01*
X126018100Y-97336332D01*
X125981933Y-97201358D01*
X125981932Y-97201357D01*
X125981932Y-97201355D01*
X125981931Y-97201354D01*
X125961175Y-97165404D01*
X125912065Y-97080343D01*
X125813257Y-96981535D01*
X125717210Y-96926082D01*
X125692245Y-96911668D01*
X125692238Y-96911665D01*
X125639905Y-96897642D01*
X125580245Y-96861277D01*
X125550310Y-96801689D01*
X125548000Y-96789888D01*
X125548000Y-96776872D01*
X125530943Y-96691121D01*
X126249499Y-96691121D01*
X126278340Y-96836108D01*
X126278343Y-96836118D01*
X126334912Y-96972689D01*
X126334919Y-96972702D01*
X126417048Y-97095616D01*
X126417051Y-97095620D01*
X126521580Y-97200149D01*
X126521584Y-97200152D01*
X126644498Y-97282281D01*
X126644511Y-97282288D01*
X126781082Y-97338857D01*
X126781087Y-97338859D01*
X126781091Y-97338859D01*
X126781092Y-97338860D01*
X126926079Y-97367701D01*
X126926082Y-97367701D01*
X127073920Y-97367701D01*
X127171462Y-97348297D01*
X127218913Y-97338859D01*
X127355495Y-97282285D01*
X127478416Y-97200152D01*
X127582951Y-97095617D01*
X127665084Y-96972696D01*
X127721658Y-96836114D01*
X127750500Y-96691119D01*
X127750500Y-96543283D01*
X127750500Y-96543280D01*
X127721659Y-96398293D01*
X127721658Y-96398292D01*
X127721658Y-96398288D01*
X127702912Y-96353031D01*
X127665087Y-96261712D01*
X127665080Y-96261699D01*
X127582951Y-96138785D01*
X127582948Y-96138781D01*
X127478419Y-96034252D01*
X127478415Y-96034249D01*
X127355501Y-95952120D01*
X127355488Y-95952113D01*
X127218917Y-95895544D01*
X127218907Y-95895541D01*
X127073920Y-95866701D01*
X127073918Y-95866701D01*
X126926082Y-95866701D01*
X126926080Y-95866701D01*
X126781092Y-95895541D01*
X126781082Y-95895544D01*
X126644511Y-95952113D01*
X126644498Y-95952120D01*
X126521584Y-96034249D01*
X126521580Y-96034252D01*
X126417051Y-96138781D01*
X126417048Y-96138785D01*
X126334919Y-96261699D01*
X126334912Y-96261712D01*
X126278343Y-96398283D01*
X126278340Y-96398293D01*
X126249500Y-96543280D01*
X126249500Y-96543283D01*
X126249500Y-96691119D01*
X126249500Y-96691121D01*
X126249499Y-96691121D01*
X125530943Y-96691121D01*
X125509244Y-96582032D01*
X125433221Y-96398497D01*
X125433219Y-96398494D01*
X125433217Y-96398490D01*
X125322853Y-96233320D01*
X125322850Y-96233316D01*
X125182384Y-96092850D01*
X125182380Y-96092847D01*
X125017210Y-95982483D01*
X125017201Y-95982478D01*
X124833669Y-95906457D01*
X124833661Y-95906455D01*
X124638833Y-95867701D01*
X124638829Y-95867701D01*
X123855971Y-95867701D01*
X123855966Y-95867701D01*
X123661138Y-95906455D01*
X123661130Y-95906457D01*
X123477598Y-95982478D01*
X123477589Y-95982483D01*
X123312419Y-96092847D01*
X123312415Y-96092850D01*
X123171946Y-96233319D01*
X123127714Y-96299519D01*
X123074102Y-96344324D01*
X123004777Y-96353031D01*
X122963420Y-96336759D01*
X122962870Y-96337789D01*
X122957488Y-96334912D01*
X122820917Y-96278343D01*
X122820907Y-96278340D01*
X122675920Y-96249500D01*
X122675918Y-96249500D01*
X122528082Y-96249500D01*
X122528080Y-96249500D01*
X122383092Y-96278340D01*
X122383082Y-96278343D01*
X122246511Y-96334912D01*
X122246498Y-96334919D01*
X122123584Y-96417048D01*
X122123580Y-96417051D01*
X122019051Y-96521580D01*
X122019048Y-96521584D01*
X121936919Y-96644498D01*
X121936912Y-96644511D01*
X121880343Y-96781082D01*
X121880340Y-96781092D01*
X121851500Y-96926079D01*
X121851500Y-96926082D01*
X121851500Y-97073918D01*
X121851500Y-97073920D01*
X121851499Y-97073920D01*
X120979755Y-97073920D01*
X121033221Y-96993903D01*
X121073094Y-96897642D01*
X121083493Y-96872537D01*
X121083493Y-96872535D01*
X121088157Y-96861277D01*
X121109244Y-96810368D01*
X121148000Y-96615528D01*
X121148000Y-96416870D01*
X121109244Y-96222030D01*
X121033221Y-96038495D01*
X121033220Y-96038494D01*
X121033217Y-96038488D01*
X120922853Y-95873318D01*
X120922850Y-95873314D01*
X120782384Y-95732848D01*
X120782380Y-95732845D01*
X120617210Y-95622481D01*
X120617201Y-95622476D01*
X120433669Y-95546455D01*
X120433661Y-95546453D01*
X120238833Y-95507699D01*
X120238829Y-95507699D01*
X119455971Y-95507699D01*
X119455966Y-95507699D01*
X119261138Y-95546453D01*
X119261130Y-95546455D01*
X119077598Y-95622476D01*
X119077589Y-95622481D01*
X118912419Y-95732845D01*
X118912415Y-95732848D01*
X118771949Y-95873314D01*
X118771946Y-95873318D01*
X118661582Y-96038488D01*
X118661577Y-96038497D01*
X118585556Y-96222029D01*
X118585554Y-96222037D01*
X118546800Y-96416865D01*
X117958826Y-96416865D01*
X117958826Y-89302311D01*
X117958913Y-89297674D01*
X117961860Y-89218907D01*
X117961885Y-89218234D01*
X119400000Y-89218234D01*
X119400000Y-89581765D01*
X119435632Y-89943556D01*
X119506550Y-90300090D01*
X119506553Y-90300101D01*
X119612086Y-90647997D01*
X119751207Y-90983864D01*
X119751209Y-90983869D01*
X119922570Y-91304462D01*
X119922581Y-91304480D01*
X120124551Y-91606750D01*
X120311678Y-91834765D01*
X120311679Y-91834766D01*
X121805747Y-90340697D01*
X121879588Y-90442330D01*
X122057670Y-90620412D01*
X122159301Y-90694251D01*
X120665232Y-92188319D01*
X120665233Y-92188320D01*
X120893249Y-92375448D01*
X121195519Y-92577418D01*
X121195537Y-92577429D01*
X121516130Y-92748790D01*
X121516135Y-92748792D01*
X121852002Y-92887913D01*
X122199898Y-92993446D01*
X122199909Y-92993449D01*
X122556443Y-93064367D01*
X122918234Y-93100000D01*
X123167772Y-93100000D01*
X123234811Y-93119685D01*
X123280566Y-93172489D01*
X123290510Y-93241647D01*
X123282332Y-93271454D01*
X123278343Y-93281082D01*
X123278340Y-93281092D01*
X123249500Y-93426079D01*
X123249500Y-93533330D01*
X123229815Y-93600369D01*
X123177011Y-93646124D01*
X123107853Y-93656068D01*
X123101311Y-93654948D01*
X123073919Y-93649500D01*
X123073918Y-93649500D01*
X122926082Y-93649500D01*
X122926080Y-93649500D01*
X122781092Y-93678340D01*
X122781082Y-93678343D01*
X122644511Y-93734912D01*
X122644498Y-93734919D01*
X122568891Y-93785439D01*
X122502213Y-93806317D01*
X122434833Y-93787832D01*
X122431109Y-93785439D01*
X122355501Y-93734919D01*
X122355488Y-93734912D01*
X122218917Y-93678343D01*
X122218907Y-93678340D01*
X122073920Y-93649500D01*
X122073918Y-93649500D01*
X121926082Y-93649500D01*
X121926080Y-93649500D01*
X121781092Y-93678340D01*
X121781082Y-93678343D01*
X121644511Y-93734912D01*
X121644498Y-93734919D01*
X121521584Y-93817048D01*
X121521580Y-93817051D01*
X121417051Y-93921580D01*
X121417048Y-93921584D01*
X121334919Y-94044498D01*
X121334912Y-94044511D01*
X121278343Y-94181082D01*
X121278340Y-94181092D01*
X121249500Y-94326079D01*
X121249500Y-94326082D01*
X121249500Y-94473918D01*
X121249500Y-94473920D01*
X121249499Y-94473920D01*
X121278340Y-94618907D01*
X121278343Y-94618917D01*
X121334912Y-94755488D01*
X121334919Y-94755501D01*
X121417048Y-94878415D01*
X121417051Y-94878419D01*
X121521580Y-94982948D01*
X121521584Y-94982951D01*
X121644498Y-95065080D01*
X121644511Y-95065087D01*
X121781082Y-95121656D01*
X121781087Y-95121658D01*
X121781091Y-95121658D01*
X121781092Y-95121659D01*
X121926079Y-95150500D01*
X121926082Y-95150500D01*
X122073920Y-95150500D01*
X122171462Y-95131096D01*
X122218913Y-95121658D01*
X122355495Y-95065084D01*
X122431111Y-95014559D01*
X122497786Y-94993682D01*
X122565166Y-95012166D01*
X122568848Y-95014531D01*
X122644505Y-95065084D01*
X122644507Y-95065085D01*
X122644511Y-95065087D01*
X122781082Y-95121656D01*
X122781087Y-95121658D01*
X122781091Y-95121658D01*
X122781092Y-95121659D01*
X122926079Y-95150500D01*
X122926082Y-95150500D01*
X123073920Y-95150500D01*
X123171462Y-95131096D01*
X123218913Y-95121658D01*
X123355495Y-95065084D01*
X123478416Y-94982951D01*
X123582951Y-94878416D01*
X123665084Y-94755495D01*
X123721658Y-94618913D01*
X123750500Y-94473918D01*
X123750500Y-94366669D01*
X123770185Y-94299630D01*
X123822989Y-94253875D01*
X123892147Y-94243931D01*
X123898692Y-94245052D01*
X123926080Y-94250500D01*
X123926082Y-94250500D01*
X124073920Y-94250500D01*
X124209361Y-94223558D01*
X124218913Y-94221658D01*
X124271799Y-94199751D01*
X124341267Y-94192283D01*
X124403747Y-94223558D01*
X124439399Y-94283647D01*
X124440868Y-94290121D01*
X124463542Y-94404108D01*
X124463545Y-94404118D01*
X124520114Y-94540689D01*
X124520121Y-94540702D01*
X124602250Y-94663616D01*
X124602253Y-94663620D01*
X124706782Y-94768149D01*
X124706786Y-94768152D01*
X124829700Y-94850281D01*
X124829713Y-94850288D01*
X124966284Y-94906857D01*
X124966289Y-94906859D01*
X124966293Y-94906859D01*
X124966294Y-94906860D01*
X125111281Y-94935701D01*
X125111284Y-94935701D01*
X125259122Y-94935701D01*
X125373620Y-94912925D01*
X125443211Y-94919152D01*
X125485493Y-94946861D01*
X125521580Y-94982948D01*
X125521584Y-94982951D01*
X125644498Y-95065080D01*
X125644511Y-95065087D01*
X125781082Y-95121656D01*
X125781087Y-95121658D01*
X125781091Y-95121658D01*
X125781092Y-95121659D01*
X125926079Y-95150500D01*
X125926082Y-95150500D01*
X126073920Y-95150500D01*
X126171462Y-95131096D01*
X126218913Y-95121658D01*
X126355495Y-95065084D01*
X126478416Y-94982951D01*
X126582951Y-94878416D01*
X126665084Y-94755495D01*
X126721658Y-94618913D01*
X126750500Y-94473918D01*
X126750500Y-94326082D01*
X126750500Y-94326079D01*
X126721659Y-94181092D01*
X126721658Y-94181091D01*
X126721658Y-94181087D01*
X126693107Y-94112159D01*
X126665087Y-94044511D01*
X126665080Y-94044498D01*
X126582951Y-93921584D01*
X126582948Y-93921580D01*
X126478419Y-93817051D01*
X126478415Y-93817048D01*
X126355501Y-93734919D01*
X126355488Y-93734912D01*
X126218917Y-93678343D01*
X126218907Y-93678340D01*
X126073920Y-93649500D01*
X126073918Y-93649500D01*
X125926082Y-93649500D01*
X125926077Y-93649500D01*
X125811580Y-93672275D01*
X125741988Y-93666048D01*
X125699708Y-93638339D01*
X125663621Y-93602252D01*
X125663617Y-93602249D01*
X125540703Y-93520120D01*
X125540690Y-93520113D01*
X125404119Y-93463544D01*
X125404109Y-93463541D01*
X125259122Y-93434701D01*
X125259120Y-93434701D01*
X125111284Y-93434701D01*
X125111282Y-93434701D01*
X124966294Y-93463541D01*
X124966288Y-93463543D01*
X124913401Y-93485449D01*
X124894716Y-93487457D01*
X124877241Y-93494372D01*
X124860695Y-93491114D01*
X124843931Y-93492916D01*
X124827128Y-93484504D01*
X124808688Y-93480874D01*
X124796530Y-93469188D01*
X124781452Y-93461640D01*
X124771862Y-93445476D01*
X124758315Y-93432455D01*
X124748381Y-93405900D01*
X124745801Y-93401551D01*
X124745329Y-93399637D01*
X124744788Y-93397370D01*
X124721658Y-93281087D01*
X124708781Y-93250000D01*
X148405138Y-93250000D01*
X148413430Y-93291690D01*
X148413430Y-93291692D01*
X148488807Y-93473671D01*
X148488814Y-93473684D01*
X148598248Y-93637462D01*
X148598251Y-93637466D01*
X148737533Y-93776748D01*
X148737537Y-93776751D01*
X148901315Y-93886185D01*
X148901328Y-93886192D01*
X149083308Y-93961569D01*
X149125000Y-93969862D01*
X149125000Y-93250000D01*
X148405138Y-93250000D01*
X124708781Y-93250000D01*
X124665084Y-93144505D01*
X124665083Y-93144504D01*
X124665080Y-93144498D01*
X124582951Y-93021584D01*
X124582948Y-93021580D01*
X124550840Y-92989472D01*
X124517355Y-92928149D01*
X124522339Y-92858457D01*
X124564211Y-92802524D01*
X124591069Y-92787230D01*
X124683857Y-92748795D01*
X124683869Y-92748790D01*
X125004462Y-92577429D01*
X125004480Y-92577418D01*
X125306736Y-92375457D01*
X125306750Y-92375447D01*
X125534765Y-92188320D01*
X125534766Y-92188319D01*
X124040698Y-90694251D01*
X124142330Y-90620412D01*
X124320412Y-90442330D01*
X124394251Y-90340698D01*
X125888319Y-91834766D01*
X125888320Y-91834765D01*
X126075447Y-91606750D01*
X126075457Y-91606736D01*
X126277418Y-91304480D01*
X126277429Y-91304462D01*
X126448790Y-90983869D01*
X126448792Y-90983864D01*
X126587913Y-90647997D01*
X126633662Y-90497185D01*
X140192735Y-90497185D01*
X140221576Y-90642172D01*
X140221579Y-90642182D01*
X140278148Y-90778753D01*
X140278155Y-90778766D01*
X140360284Y-90901680D01*
X140360287Y-90901684D01*
X140464816Y-91006213D01*
X140464820Y-91006216D01*
X140587734Y-91088345D01*
X140587747Y-91088352D01*
X140724318Y-91144921D01*
X140724323Y-91144923D01*
X140724327Y-91144923D01*
X140724328Y-91144924D01*
X140869315Y-91173765D01*
X140869318Y-91173765D01*
X141017156Y-91173765D01*
X141114698Y-91154361D01*
X141162149Y-91144923D01*
X141289103Y-91092337D01*
X141298724Y-91088352D01*
X141298724Y-91088351D01*
X141298731Y-91088349D01*
X141421652Y-91006216D01*
X141526187Y-90901681D01*
X141608320Y-90778760D01*
X141664894Y-90642178D01*
X141676179Y-90585445D01*
X141693736Y-90497185D01*
X141693736Y-90349344D01*
X141666018Y-90210000D01*
X148405138Y-90210000D01*
X149125000Y-90210000D01*
X149125000Y-89440000D01*
X148405138Y-89440000D01*
X148413430Y-89481690D01*
X148413430Y-89481692D01*
X148488807Y-89663671D01*
X148488814Y-89663684D01*
X148550571Y-89756109D01*
X148571449Y-89822786D01*
X148552965Y-89890167D01*
X148550571Y-89893891D01*
X148488814Y-89986315D01*
X148488807Y-89986328D01*
X148413430Y-90168307D01*
X148413430Y-90168309D01*
X148405138Y-90210000D01*
X141666018Y-90210000D01*
X141664895Y-90204357D01*
X141664894Y-90204356D01*
X141664894Y-90204352D01*
X141636168Y-90135000D01*
X141608323Y-90067776D01*
X141608316Y-90067763D01*
X141526187Y-89944849D01*
X141526184Y-89944845D01*
X141421655Y-89840316D01*
X141421650Y-89840312D01*
X141411749Y-89833696D01*
X141366946Y-89780082D01*
X141358240Y-89710757D01*
X141388397Y-89647731D01*
X141411749Y-89627496D01*
X141478416Y-89582951D01*
X141582951Y-89478416D01*
X141665084Y-89355495D01*
X141721658Y-89218913D01*
X141747011Y-89091459D01*
X141750500Y-89073920D01*
X141750500Y-88926080D01*
X141743107Y-88888917D01*
X141749333Y-88819325D01*
X141792196Y-88764147D01*
X141858085Y-88740902D01*
X141888915Y-88743106D01*
X141909318Y-88747165D01*
X141926081Y-88750500D01*
X141926082Y-88750500D01*
X142073920Y-88750500D01*
X142171462Y-88731096D01*
X142218913Y-88721658D01*
X142355495Y-88665084D01*
X142478416Y-88582951D01*
X142582951Y-88478416D01*
X142665084Y-88355495D01*
X142721658Y-88218913D01*
X142743107Y-88111084D01*
X142750500Y-88073920D01*
X147249499Y-88073920D01*
X147278340Y-88218907D01*
X147278343Y-88218917D01*
X147334912Y-88355488D01*
X147334919Y-88355501D01*
X147417048Y-88478415D01*
X147417051Y-88478419D01*
X147521580Y-88582948D01*
X147521584Y-88582951D01*
X147644498Y-88665080D01*
X147644511Y-88665087D01*
X147767620Y-88716080D01*
X147781087Y-88721658D01*
X147781091Y-88721658D01*
X147781092Y-88721659D01*
X147926079Y-88750500D01*
X147926082Y-88750500D01*
X148073920Y-88750500D01*
X148171462Y-88731096D01*
X148218913Y-88721658D01*
X148265466Y-88702374D01*
X148334934Y-88694906D01*
X148397413Y-88726181D01*
X148433066Y-88786269D01*
X148430573Y-88856095D01*
X148427480Y-88864387D01*
X148413431Y-88898305D01*
X148413430Y-88898307D01*
X148405138Y-88940000D01*
X149165382Y-88940000D01*
X149114936Y-88990446D01*
X149072149Y-89064555D01*
X149050000Y-89147213D01*
X149050000Y-89232787D01*
X149072149Y-89315445D01*
X149114936Y-89389554D01*
X149175446Y-89450064D01*
X149249555Y-89492851D01*
X149332213Y-89515000D01*
X149417787Y-89515000D01*
X149500445Y-89492851D01*
X149574554Y-89450064D01*
X149625000Y-89399618D01*
X149625000Y-90250382D01*
X149574554Y-90199936D01*
X149500445Y-90157149D01*
X149417787Y-90135000D01*
X149332213Y-90135000D01*
X149249555Y-90157149D01*
X149175446Y-90199936D01*
X149114936Y-90260446D01*
X149072149Y-90334555D01*
X149050000Y-90417213D01*
X149050000Y-90502787D01*
X149072149Y-90585445D01*
X149114936Y-90659554D01*
X149165382Y-90710000D01*
X148405138Y-90710000D01*
X148413430Y-90751690D01*
X148413430Y-90751692D01*
X148488807Y-90933671D01*
X148488814Y-90933684D01*
X148550270Y-91025659D01*
X148571148Y-91092337D01*
X148552663Y-91159717D01*
X148550271Y-91163440D01*
X148488370Y-91256082D01*
X148488364Y-91256093D01*
X148412950Y-91438160D01*
X148412947Y-91438170D01*
X148374500Y-91631456D01*
X148374500Y-91631459D01*
X148374500Y-91828541D01*
X148374500Y-91828543D01*
X148374499Y-91828543D01*
X148412947Y-92021829D01*
X148412950Y-92021839D01*
X148488365Y-92203907D01*
X148488368Y-92203914D01*
X148528885Y-92264552D01*
X148550271Y-92296559D01*
X148571148Y-92363236D01*
X148552663Y-92430616D01*
X148550271Y-92434339D01*
X148488809Y-92526325D01*
X148413430Y-92708307D01*
X148413430Y-92708309D01*
X148405138Y-92750000D01*
X149165382Y-92750000D01*
X149114936Y-92800446D01*
X149072149Y-92874555D01*
X149050000Y-92957213D01*
X149050000Y-93042787D01*
X149072149Y-93125445D01*
X149114936Y-93199554D01*
X149175446Y-93260064D01*
X149249555Y-93302851D01*
X149332213Y-93325000D01*
X149417787Y-93325000D01*
X149500445Y-93302851D01*
X149574554Y-93260064D01*
X149625000Y-93209618D01*
X149625000Y-93969862D01*
X149666690Y-93961569D01*
X149666692Y-93961569D01*
X149848673Y-93886191D01*
X149848676Y-93886189D01*
X149940657Y-93824729D01*
X150007334Y-93803850D01*
X150074715Y-93822334D01*
X150078440Y-93824728D01*
X150171079Y-93886628D01*
X150171092Y-93886635D01*
X150255468Y-93921584D01*
X150353165Y-93962051D01*
X150353169Y-93962051D01*
X150353170Y-93962052D01*
X150546456Y-94000500D01*
X150546459Y-94000500D01*
X150743543Y-94000500D01*
X150897567Y-93969862D01*
X150936835Y-93962051D01*
X151118914Y-93886632D01*
X151282782Y-93777139D01*
X151422139Y-93637782D01*
X151531632Y-93473914D01*
X151607051Y-93291835D01*
X151636357Y-93144505D01*
X151645500Y-93098543D01*
X151645500Y-92901456D01*
X151607052Y-92708170D01*
X151607051Y-92708169D01*
X151607051Y-92708165D01*
X151602488Y-92697149D01*
X151531635Y-92526092D01*
X151531633Y-92526088D01*
X151531632Y-92526086D01*
X151470029Y-92433891D01*
X151449151Y-92367214D01*
X151467635Y-92299834D01*
X151470029Y-92296109D01*
X151482872Y-92276887D01*
X151531632Y-92203914D01*
X151607051Y-92021835D01*
X151645500Y-91828541D01*
X151645500Y-91631459D01*
X151645500Y-91631456D01*
X151607052Y-91438170D01*
X151607051Y-91438169D01*
X151607051Y-91438165D01*
X151607049Y-91438160D01*
X151531635Y-91256092D01*
X151531633Y-91256088D01*
X151531632Y-91256086D01*
X151531628Y-91256080D01*
X151470029Y-91163891D01*
X151449151Y-91097214D01*
X151467635Y-91029834D01*
X151470029Y-91026109D01*
X151498256Y-90983864D01*
X151531632Y-90933914D01*
X151607051Y-90751835D01*
X151628863Y-90642182D01*
X151645500Y-90558543D01*
X151645500Y-90361456D01*
X151607052Y-90168170D01*
X151607051Y-90168169D01*
X151607051Y-90168165D01*
X151565469Y-90067776D01*
X151531635Y-89986092D01*
X151531633Y-89986088D01*
X151531632Y-89986086D01*
X151504078Y-89944849D01*
X151470029Y-89893891D01*
X151449151Y-89827214D01*
X151467635Y-89759834D01*
X151470029Y-89756109D01*
X151506446Y-89701607D01*
X151531632Y-89663914D01*
X151607051Y-89481835D01*
X151632183Y-89355488D01*
X151645500Y-89288543D01*
X151645500Y-89218234D01*
X153900000Y-89218234D01*
X153900000Y-89581765D01*
X153935632Y-89943556D01*
X154006550Y-90300090D01*
X154006553Y-90300101D01*
X154112086Y-90647997D01*
X154251207Y-90983864D01*
X154251209Y-90983869D01*
X154422570Y-91304462D01*
X154422581Y-91304480D01*
X154624551Y-91606750D01*
X154811678Y-91834765D01*
X154811679Y-91834766D01*
X156305747Y-90340697D01*
X156379588Y-90442330D01*
X156557670Y-90620412D01*
X156659301Y-90694251D01*
X155165232Y-92188319D01*
X155165233Y-92188320D01*
X155393249Y-92375448D01*
X155695519Y-92577418D01*
X155695537Y-92577429D01*
X156016130Y-92748790D01*
X156016135Y-92748792D01*
X156352002Y-92887913D01*
X156699898Y-92993446D01*
X156699909Y-92993449D01*
X157056443Y-93064367D01*
X157418234Y-93100000D01*
X157781766Y-93100000D01*
X158143556Y-93064367D01*
X158500090Y-92993449D01*
X158500101Y-92993446D01*
X158847997Y-92887913D01*
X159183864Y-92748792D01*
X159183869Y-92748790D01*
X159504462Y-92577429D01*
X159504480Y-92577418D01*
X159806736Y-92375457D01*
X159806750Y-92375447D01*
X160034765Y-92188320D01*
X160034766Y-92188319D01*
X158540698Y-90694251D01*
X158642330Y-90620412D01*
X158820412Y-90442330D01*
X158894251Y-90340698D01*
X160388319Y-91834766D01*
X160388320Y-91834765D01*
X160575447Y-91606750D01*
X160575457Y-91606736D01*
X160777418Y-91304480D01*
X160777429Y-91304462D01*
X160948790Y-90983869D01*
X160948792Y-90983864D01*
X161087913Y-90647997D01*
X161193446Y-90300101D01*
X161193449Y-90300090D01*
X161264367Y-89943556D01*
X161300000Y-89581765D01*
X161300000Y-89218234D01*
X161264367Y-88856443D01*
X161193449Y-88499909D01*
X161193446Y-88499898D01*
X161087913Y-88152002D01*
X160948792Y-87816135D01*
X160948790Y-87816130D01*
X160777429Y-87495537D01*
X160777418Y-87495519D01*
X160575448Y-87193249D01*
X160388320Y-86965233D01*
X160388319Y-86965232D01*
X158894251Y-88459300D01*
X158820412Y-88357670D01*
X158642330Y-88179588D01*
X158540698Y-88105748D01*
X160034766Y-86611679D01*
X160034765Y-86611678D01*
X159806750Y-86424551D01*
X159504480Y-86222581D01*
X159504462Y-86222570D01*
X159183869Y-86051209D01*
X159183864Y-86051207D01*
X158847997Y-85912086D01*
X158500101Y-85806553D01*
X158500090Y-85806550D01*
X158143556Y-85735632D01*
X157781766Y-85700000D01*
X157418234Y-85700000D01*
X157056443Y-85735632D01*
X156699909Y-85806550D01*
X156699898Y-85806553D01*
X156352002Y-85912086D01*
X156016135Y-86051207D01*
X156016130Y-86051209D01*
X155695537Y-86222570D01*
X155695519Y-86222581D01*
X155393258Y-86424545D01*
X155393254Y-86424548D01*
X155165233Y-86611679D01*
X155165233Y-86611680D01*
X156659301Y-88105748D01*
X156557670Y-88179588D01*
X156379588Y-88357670D01*
X156305748Y-88459301D01*
X154811680Y-86965233D01*
X154811679Y-86965233D01*
X154624548Y-87193254D01*
X154624545Y-87193258D01*
X154422581Y-87495519D01*
X154422570Y-87495537D01*
X154251209Y-87816130D01*
X154251207Y-87816135D01*
X154112086Y-88152002D01*
X154006553Y-88499898D01*
X154006550Y-88499909D01*
X153935632Y-88856443D01*
X153900000Y-89218234D01*
X151645500Y-89218234D01*
X151645500Y-89091456D01*
X151607052Y-88898170D01*
X151607051Y-88898169D01*
X151607051Y-88898165D01*
X151578501Y-88829238D01*
X151531635Y-88716092D01*
X151531633Y-88716088D01*
X151531632Y-88716086D01*
X151470029Y-88623891D01*
X151449151Y-88557214D01*
X151467635Y-88489834D01*
X151470029Y-88486109D01*
X151516172Y-88417051D01*
X151531632Y-88393914D01*
X151607051Y-88211835D01*
X151634484Y-88073922D01*
X151645500Y-88018543D01*
X151645500Y-87821456D01*
X151607052Y-87628170D01*
X151607051Y-87628169D01*
X151607051Y-87628165D01*
X151562904Y-87521584D01*
X151531635Y-87446092D01*
X151531628Y-87446079D01*
X151422139Y-87282218D01*
X151422136Y-87282214D01*
X151282785Y-87142863D01*
X151282781Y-87142860D01*
X151118920Y-87033371D01*
X151118907Y-87033364D01*
X150936839Y-86957950D01*
X150936829Y-86957947D01*
X150743543Y-86919500D01*
X150743541Y-86919500D01*
X150546459Y-86919500D01*
X150546457Y-86919500D01*
X150353171Y-86957947D01*
X150353168Y-86957948D01*
X150353166Y-86957948D01*
X150353165Y-86957949D01*
X150313206Y-86974500D01*
X150250874Y-87000318D01*
X150181404Y-87007785D01*
X150129113Y-86985023D01*
X150117335Y-86976206D01*
X150117328Y-86976202D01*
X149982482Y-86925908D01*
X149982483Y-86925908D01*
X149922883Y-86919501D01*
X149922881Y-86919500D01*
X149922873Y-86919500D01*
X149922864Y-86919500D01*
X148827129Y-86919500D01*
X148827123Y-86919501D01*
X148767516Y-86925908D01*
X148632671Y-86976202D01*
X148632664Y-86976206D01*
X148517455Y-87062452D01*
X148517452Y-87062455D01*
X148431206Y-87177664D01*
X148431202Y-87177671D01*
X148415180Y-87220630D01*
X148373309Y-87276564D01*
X148307844Y-87300981D01*
X148251547Y-87291859D01*
X148218913Y-87278342D01*
X148218907Y-87278340D01*
X148073920Y-87249500D01*
X148073918Y-87249500D01*
X147926082Y-87249500D01*
X147926080Y-87249500D01*
X147781092Y-87278340D01*
X147781082Y-87278343D01*
X147644511Y-87334912D01*
X147644498Y-87334919D01*
X147521584Y-87417048D01*
X147521580Y-87417051D01*
X147417051Y-87521580D01*
X147417048Y-87521584D01*
X147334919Y-87644498D01*
X147334912Y-87644511D01*
X147278343Y-87781082D01*
X147278340Y-87781092D01*
X147249500Y-87926079D01*
X147249500Y-87926082D01*
X147249500Y-88073918D01*
X147249500Y-88073920D01*
X147249499Y-88073920D01*
X142750500Y-88073920D01*
X142750500Y-87926079D01*
X142721659Y-87781092D01*
X142721658Y-87781091D01*
X142721658Y-87781087D01*
X142721656Y-87781082D01*
X142665087Y-87644511D01*
X142662211Y-87639130D01*
X142664545Y-87637882D01*
X142647087Y-87582160D01*
X142665560Y-87514777D01*
X142702175Y-87476823D01*
X142804151Y-87408686D01*
X142908686Y-87304151D01*
X142990819Y-87181230D01*
X143047393Y-87044648D01*
X143064639Y-86957947D01*
X143076235Y-86899655D01*
X143076235Y-86751814D01*
X143047394Y-86606827D01*
X143047393Y-86606826D01*
X143047393Y-86606822D01*
X143033765Y-86573920D01*
X145749499Y-86573920D01*
X145778340Y-86718907D01*
X145778343Y-86718917D01*
X145834912Y-86855488D01*
X145834919Y-86855501D01*
X145917048Y-86978415D01*
X145917051Y-86978419D01*
X146021580Y-87082948D01*
X146021584Y-87082951D01*
X146144498Y-87165080D01*
X146144511Y-87165087D01*
X146278605Y-87220630D01*
X146281087Y-87221658D01*
X146281091Y-87221658D01*
X146281092Y-87221659D01*
X146426079Y-87250500D01*
X146426082Y-87250500D01*
X146573920Y-87250500D01*
X146671462Y-87231096D01*
X146718913Y-87221658D01*
X146855495Y-87165084D01*
X146978416Y-87082951D01*
X147082951Y-86978416D01*
X147165084Y-86855495D01*
X147221658Y-86718913D01*
X147238091Y-86636302D01*
X147250500Y-86573920D01*
X147250500Y-86426079D01*
X147221659Y-86281092D01*
X147221658Y-86281091D01*
X147221658Y-86281087D01*
X147205793Y-86242786D01*
X147165087Y-86144511D01*
X147165080Y-86144498D01*
X147082951Y-86021584D01*
X147082948Y-86021580D01*
X146978419Y-85917051D01*
X146978415Y-85917048D01*
X146855501Y-85834919D01*
X146855488Y-85834912D01*
X146718917Y-85778343D01*
X146718907Y-85778340D01*
X146573920Y-85749500D01*
X146573918Y-85749500D01*
X146426082Y-85749500D01*
X146426080Y-85749500D01*
X146281092Y-85778340D01*
X146281082Y-85778343D01*
X146144511Y-85834912D01*
X146144498Y-85834919D01*
X146021584Y-85917048D01*
X146021580Y-85917051D01*
X145917051Y-86021580D01*
X145917048Y-86021584D01*
X145834919Y-86144498D01*
X145834912Y-86144511D01*
X145778343Y-86281082D01*
X145778340Y-86281092D01*
X145749500Y-86426079D01*
X145749500Y-86426082D01*
X145749500Y-86573918D01*
X145749500Y-86573920D01*
X145749499Y-86573920D01*
X143033765Y-86573920D01*
X143033764Y-86573918D01*
X142990823Y-86470249D01*
X142990815Y-86470233D01*
X142908686Y-86347319D01*
X142908683Y-86347315D01*
X142804154Y-86242786D01*
X142804150Y-86242783D01*
X142681236Y-86160654D01*
X142681223Y-86160647D01*
X142544652Y-86104078D01*
X142544642Y-86104075D01*
X142399655Y-86075235D01*
X142399653Y-86075235D01*
X142251817Y-86075235D01*
X142251815Y-86075235D01*
X142106827Y-86104075D01*
X142106817Y-86104078D01*
X141970246Y-86160647D01*
X141970233Y-86160654D01*
X141847319Y-86242783D01*
X141847315Y-86242786D01*
X141742786Y-86347315D01*
X141742783Y-86347319D01*
X141660654Y-86470233D01*
X141660647Y-86470246D01*
X141604078Y-86606817D01*
X141604075Y-86606827D01*
X141575235Y-86751814D01*
X141575235Y-86751817D01*
X141575235Y-86899653D01*
X141575235Y-86899655D01*
X141575234Y-86899655D01*
X141604075Y-87044642D01*
X141604078Y-87044652D01*
X141660649Y-87181228D01*
X141663521Y-87186600D01*
X141661206Y-87187837D01*
X141678649Y-87243687D01*
X141660114Y-87311054D01*
X141623558Y-87348911D01*
X141521584Y-87417048D01*
X141521580Y-87417051D01*
X141417051Y-87521580D01*
X141417048Y-87521584D01*
X141334919Y-87644498D01*
X141334912Y-87644511D01*
X141278343Y-87781082D01*
X141278340Y-87781092D01*
X141249500Y-87926079D01*
X141249500Y-88073922D01*
X141256892Y-88111084D01*
X141250665Y-88180676D01*
X141207802Y-88235853D01*
X141141912Y-88259097D01*
X141111084Y-88256892D01*
X141073922Y-88249500D01*
X141073918Y-88249500D01*
X140926082Y-88249500D01*
X140926080Y-88249500D01*
X140781092Y-88278340D01*
X140781082Y-88278343D01*
X140644511Y-88334912D01*
X140644498Y-88334919D01*
X140521584Y-88417048D01*
X140521580Y-88417051D01*
X140417051Y-88521580D01*
X140417048Y-88521584D01*
X140334919Y-88644498D01*
X140334912Y-88644511D01*
X140278343Y-88781082D01*
X140278340Y-88781092D01*
X140249500Y-88926079D01*
X140249500Y-88926080D01*
X140249500Y-88926082D01*
X140249500Y-89073918D01*
X140249500Y-89073920D01*
X140249499Y-89073920D01*
X140278340Y-89218907D01*
X140278343Y-89218917D01*
X140334912Y-89355488D01*
X140334919Y-89355501D01*
X140417048Y-89478415D01*
X140417051Y-89478419D01*
X140521580Y-89582948D01*
X140521587Y-89582953D01*
X140531484Y-89589567D01*
X140576289Y-89643180D01*
X140584995Y-89712505D01*
X140554839Y-89775532D01*
X140531484Y-89795770D01*
X140464816Y-89840316D01*
X140360287Y-89944845D01*
X140360284Y-89944849D01*
X140278155Y-90067763D01*
X140278148Y-90067776D01*
X140221579Y-90204347D01*
X140221576Y-90204357D01*
X140192736Y-90349344D01*
X140192736Y-90349347D01*
X140192736Y-90497183D01*
X140192736Y-90497185D01*
X140192735Y-90497185D01*
X126633662Y-90497185D01*
X126691275Y-90307260D01*
X126693446Y-90300101D01*
X126693449Y-90300090D01*
X126764367Y-89943556D01*
X126800000Y-89581765D01*
X126800000Y-89218234D01*
X126764367Y-88856443D01*
X126693449Y-88499909D01*
X126693446Y-88499898D01*
X126587913Y-88152002D01*
X126448792Y-87816135D01*
X126448790Y-87816130D01*
X126277429Y-87495537D01*
X126277418Y-87495519D01*
X126075448Y-87193249D01*
X125888320Y-86965233D01*
X125888319Y-86965232D01*
X124394251Y-88459300D01*
X124320412Y-88357670D01*
X124142330Y-88179588D01*
X124040698Y-88105748D01*
X125534766Y-86611679D01*
X125534765Y-86611678D01*
X125306750Y-86424551D01*
X125004480Y-86222581D01*
X125004462Y-86222570D01*
X124683869Y-86051209D01*
X124683864Y-86051207D01*
X124347997Y-85912086D01*
X124000101Y-85806553D01*
X124000090Y-85806550D01*
X123643556Y-85735632D01*
X123281766Y-85700000D01*
X122918234Y-85700000D01*
X122556443Y-85735632D01*
X122199909Y-85806550D01*
X122199898Y-85806553D01*
X121852002Y-85912086D01*
X121516135Y-86051207D01*
X121516130Y-86051209D01*
X121195537Y-86222570D01*
X121195519Y-86222581D01*
X120893258Y-86424545D01*
X120893254Y-86424548D01*
X120665233Y-86611679D01*
X120665233Y-86611680D01*
X122159301Y-88105748D01*
X122057670Y-88179588D01*
X121879588Y-88357670D01*
X121805748Y-88459301D01*
X120311680Y-86965233D01*
X120311679Y-86965233D01*
X120124548Y-87193254D01*
X120124545Y-87193258D01*
X119922581Y-87495519D01*
X119922570Y-87495537D01*
X119751209Y-87816130D01*
X119751207Y-87816135D01*
X119612086Y-88152002D01*
X119506553Y-88499898D01*
X119506550Y-88499909D01*
X119435632Y-88856443D01*
X119400000Y-89218234D01*
X117961885Y-89218234D01*
X117976268Y-88833858D01*
X117976958Y-88824646D01*
X118028667Y-88365708D01*
X118030048Y-88356552D01*
X118115908Y-87902773D01*
X118117960Y-87893781D01*
X118237502Y-87447645D01*
X118240226Y-87438817D01*
X118392757Y-87002911D01*
X118396132Y-86994308D01*
X118580824Y-86570990D01*
X118584846Y-86562642D01*
X118657022Y-86426079D01*
X118800630Y-86154358D01*
X118805263Y-86146334D01*
X118805267Y-86146328D01*
X119050973Y-85755289D01*
X119056184Y-85747647D01*
X119330440Y-85376045D01*
X119336191Y-85368833D01*
X119637454Y-85018761D01*
X119643736Y-85011992D01*
X119970308Y-84685420D01*
X119977064Y-84679150D01*
X120327174Y-84377857D01*
X120334369Y-84372120D01*
X120705968Y-84097870D01*
X120713594Y-84092669D01*
X121104668Y-83846942D01*
X121112651Y-83842333D01*
X121520985Y-83626524D01*
X121529317Y-83622512D01*
X121952633Y-83437822D01*
X121961218Y-83434453D01*
X122397152Y-83281914D01*
X122405986Y-83279190D01*
X122852087Y-83159659D01*
X122861106Y-83157600D01*
X123314898Y-83071741D01*
X123324024Y-83070365D01*
X123782967Y-83018656D01*
X123792182Y-83017966D01*
X124005846Y-83009972D01*
X124256712Y-83000587D01*
X124261348Y-83000500D01*
X124324216Y-83000500D01*
X156484108Y-83000500D01*
X156547688Y-83000500D01*
X156552324Y-83000587D01*
G37*
%TD.AperFunction*%
%TD*%
M02*
