%TF.GenerationSoftware,KiCad,Pcbnew,9.0.0*%
%TF.CreationDate,2025-08-18T10:04:00-07:00*%
%TF.ProjectId,USB_C_Simple_Trig,5553425f-435f-4536-996d-706c655f5472,rev?*%
%TF.SameCoordinates,Original*%
%TF.FileFunction,Legend,Bot*%
%TF.FilePolarity,Positive*%
%FSLAX46Y46*%
G04 Gerber Fmt 4.6, Leading zero omitted, Abs format (unit mm)*
G04 Created by KiCad (PCBNEW 9.0.0) date 2025-08-18 10:04:00*
%MOMM*%
%LPD*%
G01*
G04 APERTURE LIST*
%ADD10C,0.000000*%
%ADD11C,0.200000*%
%ADD12C,0.100000*%
%ADD13C,0.250000*%
%ADD14C,0.508000*%
G04 APERTURE END LIST*
D10*
G36*
X144031678Y-100677987D02*
G01*
X143925845Y-100254653D01*
X143608344Y-100254653D01*
X143608344Y-100042986D01*
X144031678Y-99831319D01*
X144031678Y-100677987D01*
G37*
G36*
X152643411Y-98122067D02*
G01*
X152680146Y-98212283D01*
X152714552Y-98302812D01*
X152746799Y-98393666D01*
X152805502Y-98576400D01*
X152857618Y-98760584D01*
X152904512Y-98946319D01*
X152947549Y-99133704D01*
X153027510Y-99513820D01*
X152710010Y-99513820D01*
X152699675Y-101158782D01*
X152696781Y-101828923D01*
X152690247Y-102818865D01*
X152689340Y-103131170D01*
X152686029Y-103436522D01*
X152685981Y-103718988D01*
X152683794Y-103799280D01*
X152682528Y-103862175D01*
X152682462Y-103912963D01*
X152682968Y-103935470D01*
X152683880Y-103956935D01*
X152685233Y-103978018D01*
X152687062Y-103999382D01*
X152692290Y-104045595D01*
X152699845Y-104100866D01*
X152710010Y-104170485D01*
X152921677Y-104382152D01*
X152951508Y-104489359D01*
X152977018Y-104585648D01*
X152987495Y-104630752D01*
X152996104Y-104674391D01*
X153002583Y-104716987D01*
X153006668Y-104758962D01*
X153008097Y-104800737D01*
X153006607Y-104842734D01*
X153001937Y-104885374D01*
X152993822Y-104929080D01*
X152982002Y-104974272D01*
X152966212Y-105021373D01*
X152946192Y-105070804D01*
X152921677Y-105122986D01*
X152705463Y-105169288D01*
X152626811Y-105184378D01*
X152556221Y-105195746D01*
X152485011Y-105204634D01*
X152404499Y-105212282D01*
X152180843Y-105228818D01*
X151969177Y-105017153D01*
X151960495Y-104931473D01*
X151954294Y-104863777D01*
X151950573Y-104807863D01*
X151949643Y-104782386D01*
X151949333Y-104757530D01*
X151949643Y-104732518D01*
X151950573Y-104706577D01*
X151954294Y-104648802D01*
X151960495Y-104578006D01*
X151969177Y-104487986D01*
X152042496Y-104393485D01*
X152072249Y-104354299D01*
X152097877Y-104319448D01*
X152119738Y-104288153D01*
X152138192Y-104259634D01*
X152153598Y-104233111D01*
X152166314Y-104207804D01*
X152176701Y-104182933D01*
X152185116Y-104157717D01*
X152191920Y-104131378D01*
X152197472Y-104103134D01*
X152202129Y-104072206D01*
X152206253Y-104037815D01*
X152214333Y-103955520D01*
X152224304Y-103706974D01*
X152237096Y-103424532D01*
X152247816Y-103120833D01*
X152287245Y-102156990D01*
X152313704Y-101485921D01*
X152392510Y-99513820D01*
X152075010Y-99513820D01*
X152075131Y-99408567D01*
X152075979Y-99326641D01*
X152076903Y-99292413D01*
X152078281Y-99261603D01*
X152080203Y-99233406D01*
X152082762Y-99207016D01*
X152086047Y-99181629D01*
X152090150Y-99156440D01*
X152095161Y-99130644D01*
X152101172Y-99103436D01*
X152116553Y-99041567D01*
X152137022Y-98964394D01*
X152220531Y-98713454D01*
X152256163Y-98605589D01*
X152273147Y-98556487D01*
X152290018Y-98510114D01*
X152307107Y-98466099D01*
X152324746Y-98424076D01*
X152343264Y-98383673D01*
X152362994Y-98344524D01*
X152384267Y-98306258D01*
X152407413Y-98268507D01*
X152432764Y-98230902D01*
X152460650Y-98193073D01*
X152491404Y-98154653D01*
X152525355Y-98115272D01*
X152562836Y-98074562D01*
X152604177Y-98032152D01*
X152643411Y-98122067D01*
G37*
G36*
X148582510Y-117293818D02*
G01*
X148582097Y-117364305D01*
X148581115Y-117394045D01*
X148579203Y-117421149D01*
X148576051Y-117446393D01*
X148571348Y-117470552D01*
X148564785Y-117494401D01*
X148556052Y-117518714D01*
X148544838Y-117544268D01*
X148530834Y-117571838D01*
X148513729Y-117602197D01*
X148493213Y-117636123D01*
X148440710Y-117717772D01*
X148370844Y-117822985D01*
X147841677Y-117187985D01*
X148582510Y-117293818D01*
G37*
G36*
X144033516Y-100031897D02*
G01*
X144032534Y-100231400D01*
X144028729Y-100430146D01*
X144022094Y-100628452D01*
X144012625Y-100826635D01*
X144000316Y-101025014D01*
X143985163Y-101223905D01*
X143967159Y-101423626D01*
X143855541Y-102673626D01*
X143764232Y-103924830D01*
X143690789Y-105177049D01*
X143632768Y-106430097D01*
X143553216Y-108937933D01*
X143506025Y-111446843D01*
X143502511Y-111684652D01*
X143498850Y-113023901D01*
X143501756Y-113940199D01*
X143514944Y-114856439D01*
X143542127Y-116195514D01*
X143548812Y-116513298D01*
X143590419Y-118121718D01*
X143652370Y-119727909D01*
X143739792Y-121332820D01*
X143857812Y-122937401D01*
X143945350Y-123980419D01*
X143965945Y-124230862D01*
X143984442Y-124462232D01*
X143999733Y-124692951D01*
X144011951Y-124923277D01*
X144021232Y-125153465D01*
X144027710Y-125383773D01*
X144031521Y-125614457D01*
X144031678Y-126077984D01*
X143714178Y-126077984D01*
X143349506Y-125329128D01*
X143202036Y-124987841D01*
X143075686Y-124644891D01*
X142968865Y-124282458D01*
X142879982Y-123882723D01*
X142807445Y-123427868D01*
X142749662Y-122900074D01*
X142671989Y-121554391D01*
X142634231Y-119703125D01*
X142627520Y-113913637D01*
X142628249Y-112226479D01*
X142604881Y-110781555D01*
X142561385Y-109246054D01*
X142528667Y-107654121D01*
X142537629Y-106039899D01*
X142567397Y-105235099D01*
X142619174Y-104437531D01*
X142696823Y-103651462D01*
X142804206Y-102881160D01*
X142945187Y-102130894D01*
X143123629Y-101404931D01*
X143343393Y-100707539D01*
X143608344Y-100042986D01*
X143683100Y-99994688D01*
X143741695Y-99957590D01*
X143766482Y-99942467D01*
X143789088Y-99929213D01*
X143810135Y-99917520D01*
X143830242Y-99907076D01*
X143850030Y-99897573D01*
X143870117Y-99888699D01*
X143891125Y-99880145D01*
X143913674Y-99871601D01*
X143965874Y-99853301D01*
X144031678Y-99831319D01*
X144033516Y-100031897D01*
G37*
G36*
X147213292Y-107180121D02*
G01*
X147210968Y-107249238D01*
X147206755Y-107309524D01*
X147200900Y-107362127D01*
X147193651Y-107408193D01*
X147185256Y-107448870D01*
X147175963Y-107485304D01*
X147166019Y-107518641D01*
X147155672Y-107550029D01*
X147134760Y-107611544D01*
X147124691Y-107643965D01*
X147115209Y-107679023D01*
X147106563Y-107717866D01*
X147099001Y-107761640D01*
X147092769Y-107811492D01*
X147088117Y-107868569D01*
X147088829Y-108141329D01*
X147088854Y-108449503D01*
X147090508Y-108784571D01*
X147092860Y-109841379D01*
X147095030Y-110578389D01*
X147099165Y-112278336D01*
X147100844Y-112742984D01*
X145936677Y-112742984D01*
X145936677Y-107451319D01*
X146148344Y-107451319D01*
X146148344Y-107027985D01*
X146465844Y-107027985D01*
X146465844Y-106816318D01*
X147206677Y-106816318D01*
X147213292Y-107180121D01*
G37*
G36*
X147946809Y-115459042D02*
G01*
X148027887Y-115514044D01*
X148061191Y-115537281D01*
X148090623Y-115558445D01*
X148116898Y-115578115D01*
X148140729Y-115596868D01*
X148162831Y-115615282D01*
X148183917Y-115633935D01*
X148204701Y-115653403D01*
X148225898Y-115674266D01*
X148248221Y-115697101D01*
X148272385Y-115722485D01*
X148329089Y-115783213D01*
X148496521Y-115984131D01*
X148645681Y-116162448D01*
X148794177Y-116341318D01*
X148723794Y-116341086D01*
X148694300Y-116340533D01*
X148667673Y-116339458D01*
X148643217Y-116337685D01*
X148620234Y-116335040D01*
X148598026Y-116331348D01*
X148575896Y-116326435D01*
X148553145Y-116320128D01*
X148529077Y-116312250D01*
X148502993Y-116302629D01*
X148474197Y-116291089D01*
X148405674Y-116261556D01*
X148317927Y-116222256D01*
X148259647Y-116176704D01*
X148207335Y-116131939D01*
X148160526Y-116087606D01*
X148118757Y-116043348D01*
X148081563Y-115998812D01*
X148048480Y-115953640D01*
X148019044Y-115907478D01*
X147992792Y-115859971D01*
X147969258Y-115810762D01*
X147947980Y-115759497D01*
X147928492Y-115705821D01*
X147910332Y-115649376D01*
X147893034Y-115589810D01*
X147876135Y-115526765D01*
X147841677Y-115388819D01*
X147946809Y-115459042D01*
G37*
G36*
X148856559Y-116396814D02*
G01*
X148906314Y-116440352D01*
X148948405Y-116475652D01*
X148968125Y-116491376D01*
X148987790Y-116506436D01*
X149008020Y-116521297D01*
X149029433Y-116536424D01*
X149078293Y-116569336D01*
X149139332Y-116608894D01*
X149217510Y-116658818D01*
X149640844Y-116658818D01*
X149746677Y-117082151D01*
X149323344Y-117082151D01*
X149275142Y-117043503D01*
X149229949Y-117004101D01*
X149187554Y-116963888D01*
X149147742Y-116922808D01*
X149110303Y-116880802D01*
X149075022Y-116837813D01*
X149041688Y-116793785D01*
X149010087Y-116748660D01*
X148980008Y-116702382D01*
X148951236Y-116654892D01*
X148923561Y-116606134D01*
X148896769Y-116556050D01*
X148844983Y-116451678D01*
X148794177Y-116341318D01*
X148856559Y-116396814D01*
G37*
G36*
X152850570Y-111366738D02*
G01*
X152864213Y-111410611D01*
X152875375Y-111449834D01*
X152884056Y-111485335D01*
X152890258Y-111518047D01*
X152893978Y-111548897D01*
X152895218Y-111578818D01*
X152893978Y-111608739D01*
X152890258Y-111639590D01*
X152884056Y-111672301D01*
X152875375Y-111707803D01*
X152864213Y-111747025D01*
X152850570Y-111790898D01*
X152815844Y-111896318D01*
X152752107Y-111984473D01*
X152690719Y-112066656D01*
X152630918Y-112143140D01*
X152571943Y-112214200D01*
X152513034Y-112280106D01*
X152453429Y-112341132D01*
X152392367Y-112397551D01*
X152329087Y-112449635D01*
X152262828Y-112497657D01*
X152192829Y-112541889D01*
X152118330Y-112582606D01*
X152038568Y-112620078D01*
X151952782Y-112654579D01*
X151860213Y-112686382D01*
X151760098Y-112715760D01*
X151651677Y-112742984D01*
X151651677Y-112531319D01*
X151801332Y-112366781D01*
X151856316Y-112308076D01*
X151906338Y-112256813D01*
X151957601Y-112206790D01*
X152016306Y-112151806D01*
X152180843Y-112002152D01*
X152392510Y-112002152D01*
X152392510Y-111790485D01*
X152468574Y-111760406D01*
X152499737Y-111747334D01*
X152526966Y-111734941D01*
X152550746Y-111722753D01*
X152571561Y-111710294D01*
X152581008Y-111703814D01*
X152589896Y-111697089D01*
X152598285Y-111690059D01*
X152606235Y-111682665D01*
X152613808Y-111674846D01*
X152621063Y-111666545D01*
X152628062Y-111657701D01*
X152634864Y-111648256D01*
X152648123Y-111627322D01*
X152661324Y-111603269D01*
X152674952Y-111575623D01*
X152689491Y-111543907D01*
X152723239Y-111466370D01*
X152815844Y-111261318D01*
X152850570Y-111366738D01*
G37*
G36*
X146465844Y-107027985D02*
G01*
X146148344Y-107027985D01*
X146148344Y-107451319D01*
X145936677Y-107451319D01*
X145969750Y-107153663D01*
X145983313Y-107092444D01*
X145996673Y-107036251D01*
X146010182Y-106984587D01*
X146024194Y-106936955D01*
X146039062Y-106892857D01*
X146055139Y-106851796D01*
X146072777Y-106813275D01*
X146082291Y-106794811D01*
X146092329Y-106776796D01*
X146102933Y-106759167D01*
X146114148Y-106741863D01*
X146126019Y-106724820D01*
X146138588Y-106707977D01*
X146151901Y-106691272D01*
X146166001Y-106674642D01*
X146196739Y-106641360D01*
X146231157Y-106607634D01*
X146269606Y-106572967D01*
X146312439Y-106536861D01*
X146360011Y-106498819D01*
X146465844Y-107027985D01*
G37*
G36*
X144033640Y-100084464D02*
G01*
X144030276Y-100336419D01*
X144022078Y-100587523D01*
X144009540Y-100838116D01*
X143993155Y-101088536D01*
X143973415Y-101339123D01*
X143925845Y-101842153D01*
X143820011Y-101842153D01*
X143820011Y-100466320D01*
X143608344Y-100466320D01*
X143608344Y-100783818D01*
X143396677Y-100889653D01*
X143439241Y-100672056D01*
X143461321Y-100565790D01*
X143484887Y-100460654D01*
X143510656Y-100356225D01*
X143539345Y-100252085D01*
X143571669Y-100147812D01*
X143608344Y-100042986D01*
X143682965Y-99990483D01*
X143741463Y-99950382D01*
X143766216Y-99934207D01*
X143788799Y-99920203D01*
X143809831Y-99908059D01*
X143829933Y-99897466D01*
X143849725Y-99888112D01*
X143869827Y-99879689D01*
X143890860Y-99871886D01*
X143913442Y-99864392D01*
X143938195Y-99856899D01*
X143965739Y-99849096D01*
X144031678Y-99831319D01*
X144033640Y-100084464D01*
G37*
G36*
X146889177Y-115812152D02*
G01*
X146889177Y-116023819D01*
X147206677Y-116023819D01*
X147312511Y-116658818D01*
X147176758Y-116569342D01*
X147066799Y-116492437D01*
X147017617Y-116454823D01*
X146970232Y-116415701D01*
X146923094Y-116373521D01*
X146874653Y-116326733D01*
X146823358Y-116273786D01*
X146767660Y-116213130D01*
X146636851Y-116062489D01*
X146469825Y-115862408D01*
X146254177Y-115600486D01*
X146889177Y-115812152D01*
G37*
G36*
X145305170Y-98242306D02*
G01*
X145306291Y-98451802D01*
X145304953Y-98660839D01*
X145301070Y-98869613D01*
X145294555Y-99078324D01*
X145285323Y-99287169D01*
X145273286Y-99496347D01*
X145258358Y-99706054D01*
X145239665Y-99935500D01*
X145199487Y-100431438D01*
X145083046Y-102039569D01*
X144991642Y-103648141D01*
X144920613Y-105257758D01*
X144865295Y-106869024D01*
X144858500Y-107094132D01*
X144778410Y-109877956D01*
X144772511Y-110097152D01*
X144666677Y-110097152D01*
X144666677Y-104276319D01*
X144349178Y-104276319D01*
X144137511Y-106498819D01*
X144031678Y-106498819D01*
X144021149Y-105788171D01*
X144028262Y-105077254D01*
X144051497Y-104366382D01*
X144089333Y-103655870D01*
X144140249Y-102946035D01*
X144202727Y-102237191D01*
X144275245Y-101529654D01*
X144356283Y-100823739D01*
X144395480Y-100512621D01*
X144466371Y-99938751D01*
X144507253Y-99647937D01*
X144555503Y-99357495D01*
X144613930Y-99069643D01*
X144647837Y-98927382D01*
X144685340Y-98786601D01*
X144726792Y-98647577D01*
X144772542Y-98510587D01*
X144822943Y-98375908D01*
X144878344Y-98243819D01*
X144952210Y-98197887D01*
X145010169Y-98162480D01*
X145034733Y-98147948D01*
X145057181Y-98135117D01*
X145078132Y-98123677D01*
X145098208Y-98113318D01*
X145118027Y-98103730D01*
X145138210Y-98094602D01*
X145159377Y-98085626D01*
X145182148Y-98076490D01*
X145234983Y-98056500D01*
X145301677Y-98032152D01*
X145305170Y-98242306D01*
G37*
G36*
X145304909Y-98294805D02*
G01*
X145304048Y-98556675D01*
X145299336Y-98817986D01*
X145291012Y-99078963D01*
X145279319Y-99339830D01*
X145264498Y-99600811D01*
X145226437Y-100124013D01*
X145195844Y-100479549D01*
X145090011Y-101736318D01*
X144878344Y-101630486D01*
X144876150Y-101414990D01*
X144877613Y-101200617D01*
X144882561Y-100987036D01*
X144890822Y-100773914D01*
X144902227Y-100560919D01*
X144916603Y-100347719D01*
X144933779Y-100133981D01*
X144953585Y-99919375D01*
X144984177Y-99619652D01*
X145070580Y-98751903D01*
X145090011Y-98561318D01*
X144878344Y-98561318D01*
X144878344Y-98243819D01*
X145301677Y-98032152D01*
X145304909Y-98294805D01*
G37*
G36*
X153041906Y-113703594D02*
G01*
X153048119Y-113866438D01*
X153053348Y-114029314D01*
X153060583Y-114297413D01*
X153070546Y-114487398D01*
X153077000Y-114662223D01*
X153077482Y-114745036D01*
X153075372Y-114825361D01*
X153070101Y-114903632D01*
X153061095Y-114980284D01*
X153047784Y-115055749D01*
X153029597Y-115130462D01*
X153005962Y-115204858D01*
X152976308Y-115279369D01*
X152940064Y-115354431D01*
X152896659Y-115430477D01*
X152845520Y-115507941D01*
X152786078Y-115587256D01*
X152498344Y-115812152D01*
X152366543Y-115929276D01*
X152245439Y-116034463D01*
X151757510Y-116447152D01*
X151969177Y-115494652D01*
X152075010Y-115706319D01*
X152180399Y-115677271D01*
X152223902Y-115664784D01*
X152262336Y-115653112D01*
X152296496Y-115641849D01*
X152327176Y-115630586D01*
X152355172Y-115618918D01*
X152381277Y-115606438D01*
X152406286Y-115592738D01*
X152430994Y-115577411D01*
X152456195Y-115560051D01*
X152482684Y-115540250D01*
X152511255Y-115517603D01*
X152542703Y-115491700D01*
X152617406Y-115428505D01*
X152704795Y-115277178D01*
X152740305Y-115213887D01*
X152770952Y-115156907D01*
X152797182Y-115104783D01*
X152819441Y-115056063D01*
X152838175Y-115009294D01*
X152853828Y-114963021D01*
X152866848Y-114915792D01*
X152877680Y-114866153D01*
X152886769Y-114812650D01*
X152894562Y-114753831D01*
X152901503Y-114688241D01*
X152908039Y-114614428D01*
X152921677Y-114436318D01*
X152604177Y-114542151D01*
X152286677Y-114542151D01*
X152180843Y-114753818D01*
X151757510Y-114647985D01*
X151757843Y-114577731D01*
X151758633Y-114548543D01*
X151760172Y-114522514D01*
X151762708Y-114499043D01*
X151764429Y-114488080D01*
X151766492Y-114477530D01*
X151768930Y-114467319D01*
X151771774Y-114457373D01*
X151775053Y-114447615D01*
X151778801Y-114437972D01*
X151783048Y-114428367D01*
X151787825Y-114418725D01*
X151793163Y-114408973D01*
X151799094Y-114399033D01*
X151812858Y-114378295D01*
X151829367Y-114355909D01*
X151848869Y-114331276D01*
X151871615Y-114303794D01*
X151927836Y-114237880D01*
X152154385Y-114012986D01*
X152256163Y-113912480D01*
X152356332Y-113818677D01*
X152406393Y-113774184D01*
X152456748Y-113731243D01*
X152507629Y-113689810D01*
X152559268Y-113649846D01*
X152611896Y-113611307D01*
X152665747Y-113574154D01*
X152721052Y-113538343D01*
X152778043Y-113503834D01*
X152836952Y-113470586D01*
X152898012Y-113438556D01*
X152961454Y-113407703D01*
X153027510Y-113377985D01*
X153041906Y-113703594D01*
G37*
G36*
X153041906Y-113703594D02*
G01*
X153048119Y-113866438D01*
X153053348Y-114029314D01*
X153060583Y-114297413D01*
X153070546Y-114487398D01*
X153077000Y-114662223D01*
X153077482Y-114745036D01*
X153075372Y-114825361D01*
X153070101Y-114903632D01*
X153061095Y-114980284D01*
X153047784Y-115055749D01*
X153029597Y-115130462D01*
X153005962Y-115204858D01*
X152976308Y-115279369D01*
X152940064Y-115354431D01*
X152896659Y-115430477D01*
X152845520Y-115507941D01*
X152786078Y-115587256D01*
X152498344Y-115812152D01*
X152366543Y-115929276D01*
X152245439Y-116034463D01*
X151757510Y-116447152D01*
X151969177Y-115494652D01*
X152075010Y-115706319D01*
X152180396Y-115677002D01*
X152223917Y-115664416D01*
X152262392Y-115652671D01*
X152296622Y-115641364D01*
X152327411Y-115630090D01*
X152355559Y-115618444D01*
X152381868Y-115606022D01*
X152407141Y-115592419D01*
X152432179Y-115577231D01*
X152457783Y-115560053D01*
X152484755Y-115540481D01*
X152513898Y-115518110D01*
X152546014Y-115492536D01*
X152622367Y-115430159D01*
X152696570Y-115347264D01*
X152726630Y-115312304D01*
X152752455Y-115280461D01*
X152774388Y-115250828D01*
X152792774Y-115222501D01*
X152807956Y-115194573D01*
X152820278Y-115166138D01*
X152830085Y-115136290D01*
X152837719Y-115104123D01*
X152843526Y-115068732D01*
X152847850Y-115029210D01*
X152851033Y-114984651D01*
X152853421Y-114934150D01*
X152857185Y-114811696D01*
X152842302Y-114409861D01*
X152830816Y-114052605D01*
X152823853Y-113874022D01*
X152815844Y-113695485D01*
X152604177Y-113589652D01*
X153027510Y-113377985D01*
X153041906Y-113703594D01*
G37*
G36*
X143502511Y-118246318D02*
G01*
X143432575Y-118106037D01*
X143379587Y-117997190D01*
X143358544Y-117951976D01*
X143340652Y-117911527D01*
X143325550Y-117874810D01*
X143312874Y-117840794D01*
X143302264Y-117808448D01*
X143293358Y-117776739D01*
X143285792Y-117744638D01*
X143279206Y-117711111D01*
X143273238Y-117675128D01*
X143267526Y-117635657D01*
X143255419Y-117542124D01*
X143243302Y-117225192D01*
X143229452Y-116876273D01*
X143218084Y-116513298D01*
X143192182Y-115888316D01*
X143188786Y-115586409D01*
X143192049Y-115437402D01*
X143199598Y-115289428D01*
X143212170Y-115142285D01*
X143230498Y-114995775D01*
X143255318Y-114849698D01*
X143287364Y-114703855D01*
X143327372Y-114558045D01*
X143376076Y-114412068D01*
X143434210Y-114265726D01*
X143502511Y-114118819D01*
X143502511Y-118246318D01*
G37*
G36*
X145304286Y-98267212D02*
G01*
X145304063Y-98501474D01*
X145300898Y-98735163D01*
X145294683Y-98968507D01*
X145285311Y-99201732D01*
X145272671Y-99435066D01*
X145256657Y-99668736D01*
X145237159Y-99902968D01*
X145145383Y-100984752D01*
X145067919Y-102067631D01*
X144949875Y-104235872D01*
X144870926Y-106406091D01*
X144818971Y-108576687D01*
X144812198Y-108932985D01*
X144784465Y-110772253D01*
X144773090Y-112611187D01*
X144779461Y-114450132D01*
X144804964Y-116289435D01*
X144825143Y-117330431D01*
X144865853Y-119086340D01*
X144927155Y-120840328D01*
X145013118Y-122593208D01*
X145127812Y-124345791D01*
X145215350Y-125525967D01*
X145235945Y-125809267D01*
X145254337Y-126068050D01*
X145269746Y-126326379D01*
X145282212Y-126584439D01*
X145291770Y-126842414D01*
X145298458Y-127100489D01*
X145302314Y-127358847D01*
X145303374Y-127617673D01*
X145301677Y-127877151D01*
X145179503Y-127821798D01*
X145134903Y-127800931D01*
X145094681Y-127781298D01*
X145053874Y-127760417D01*
X145007524Y-127735808D01*
X144878344Y-127665484D01*
X144710949Y-127299833D01*
X144581644Y-126967932D01*
X144528370Y-126793543D01*
X144481132Y-126602276D01*
X144438770Y-126385693D01*
X144400120Y-126135357D01*
X144329312Y-125499669D01*
X144259412Y-124627705D01*
X144085159Y-121904924D01*
X144066404Y-121591230D01*
X144011356Y-120584796D01*
X143968659Y-119578607D01*
X143914906Y-117566372D01*
X143894320Y-115553337D01*
X143896078Y-113538311D01*
X143900419Y-111998458D01*
X143903440Y-110088614D01*
X143904347Y-109725495D01*
X143927141Y-107497294D01*
X143955865Y-106382631D01*
X143998916Y-105268307D01*
X144058377Y-104154860D01*
X144136332Y-103042824D01*
X144234862Y-101932736D01*
X144356050Y-100825133D01*
X144395480Y-100512621D01*
X144466378Y-99938750D01*
X144507260Y-99647937D01*
X144555509Y-99357496D01*
X144613933Y-99069646D01*
X144647838Y-98927385D01*
X144685341Y-98786604D01*
X144726792Y-98647580D01*
X144772542Y-98510589D01*
X144822942Y-98375910D01*
X144878344Y-98243819D01*
X144952210Y-98197887D01*
X145010169Y-98162480D01*
X145034733Y-98147948D01*
X145057181Y-98135117D01*
X145078132Y-98123677D01*
X145098208Y-98113318D01*
X145118027Y-98103730D01*
X145138210Y-98094602D01*
X145159377Y-98085626D01*
X145182148Y-98076490D01*
X145234983Y-98056500D01*
X145301677Y-98032152D01*
X145304286Y-98267212D01*
G37*
G36*
X149746677Y-103217986D02*
G01*
X149217510Y-103323819D01*
X149210896Y-103012934D01*
X149213286Y-102905744D01*
X149214660Y-102861970D01*
X149216373Y-102823902D01*
X149217409Y-102806811D01*
X149218591Y-102790912D01*
X149219940Y-102776123D01*
X149221476Y-102762368D01*
X149223222Y-102749568D01*
X149225196Y-102737643D01*
X149227419Y-102726515D01*
X149229913Y-102716105D01*
X149232697Y-102706335D01*
X149235792Y-102697125D01*
X149239220Y-102688398D01*
X149243000Y-102680074D01*
X149247153Y-102672074D01*
X149251699Y-102664320D01*
X149256660Y-102656734D01*
X149262055Y-102649235D01*
X149267906Y-102641747D01*
X149274233Y-102634189D01*
X149281057Y-102626484D01*
X149288398Y-102618552D01*
X149304713Y-102601694D01*
X149323344Y-102582985D01*
X149746677Y-102582985D01*
X149746677Y-103217986D01*
G37*
G36*
X149440753Y-106288889D02*
G01*
X149550976Y-106391942D01*
X149602817Y-106442993D01*
X149652172Y-106494377D01*
X149698809Y-106546583D01*
X149742500Y-106600097D01*
X149783014Y-106655406D01*
X149820122Y-106713000D01*
X149853592Y-106773364D01*
X149883196Y-106836987D01*
X149896476Y-106870173D01*
X149908703Y-106904357D01*
X149919848Y-106939599D01*
X149929883Y-106975960D01*
X149938779Y-107013502D01*
X149946507Y-107052285D01*
X149953038Y-107092370D01*
X149958344Y-107133818D01*
X149852510Y-106922152D01*
X149535011Y-106922152D01*
X149538925Y-106846302D01*
X149540053Y-106814609D01*
X149540421Y-106786115D01*
X149539875Y-106760102D01*
X149538260Y-106735853D01*
X149535420Y-106712652D01*
X149531200Y-106689781D01*
X149525446Y-106666524D01*
X149518003Y-106642164D01*
X149508714Y-106615982D01*
X149497426Y-106587264D01*
X149483984Y-106555290D01*
X149468231Y-106519345D01*
X149429177Y-106432673D01*
X149323344Y-106181319D01*
X149440753Y-106288889D01*
G37*
G36*
X153027510Y-126501318D02*
G01*
X145830844Y-126501318D01*
X145830844Y-125125485D01*
X153027510Y-125125485D01*
X153027510Y-126501318D01*
G37*
G36*
X144878344Y-101312987D02*
G01*
X144909019Y-101425884D01*
X144921846Y-101478639D01*
X144932914Y-101529460D01*
X144942156Y-101578745D01*
X144949509Y-101626893D01*
X144954908Y-101674299D01*
X144958286Y-101721362D01*
X144959580Y-101768479D01*
X144958724Y-101816047D01*
X144955653Y-101864465D01*
X144950302Y-101914128D01*
X144942607Y-101965435D01*
X144932501Y-102018784D01*
X144919922Y-102074570D01*
X144904802Y-102133193D01*
X144860515Y-102212000D01*
X144841376Y-102244291D01*
X144823360Y-102272513D01*
X144805810Y-102297169D01*
X144788065Y-102318763D01*
X144769468Y-102337800D01*
X144759644Y-102346516D01*
X144749359Y-102354782D01*
X144727080Y-102370214D01*
X144701972Y-102384600D01*
X144673376Y-102398443D01*
X144640632Y-102412247D01*
X144603083Y-102426516D01*
X144560069Y-102441755D01*
X144455010Y-102477153D01*
X144455010Y-101207152D01*
X144878344Y-101312987D01*
G37*
G36*
X149715878Y-96460362D02*
G01*
X149746585Y-96513028D01*
X149773372Y-96562769D01*
X149796704Y-96611448D01*
X149817046Y-96660925D01*
X149834863Y-96713059D01*
X149850621Y-96769711D01*
X149864784Y-96832741D01*
X149877818Y-96904010D01*
X149890187Y-96985378D01*
X149902356Y-97078706D01*
X149927958Y-97308681D01*
X149958344Y-97608818D01*
X149640844Y-97608818D01*
X149640844Y-97820485D01*
X149005843Y-97714653D01*
X149005843Y-97397152D01*
X149063527Y-97243808D01*
X149121449Y-97096180D01*
X149151430Y-97024557D01*
X149182589Y-96954418D01*
X149215297Y-96885783D01*
X149249927Y-96818670D01*
X149286851Y-96753098D01*
X149326442Y-96689087D01*
X149369072Y-96626653D01*
X149415114Y-96565817D01*
X149464939Y-96506597D01*
X149518921Y-96449012D01*
X149577432Y-96393080D01*
X149640844Y-96338820D01*
X149715878Y-96460362D01*
G37*
G36*
X146610912Y-98122067D02*
G01*
X146647647Y-98212283D01*
X146682052Y-98302812D01*
X146714300Y-98393666D01*
X146773002Y-98576400D01*
X146825118Y-98760584D01*
X146872012Y-98946319D01*
X146915049Y-99133704D01*
X146995010Y-99513820D01*
X146677511Y-99513820D01*
X146668628Y-100333706D01*
X146662008Y-101153615D01*
X146657667Y-101822307D01*
X146651919Y-102315638D01*
X146647866Y-102808983D01*
X146646505Y-103120833D01*
X146641539Y-103424532D01*
X146641467Y-103706974D01*
X146640629Y-103811084D01*
X146640795Y-103857668D01*
X146641787Y-103901181D01*
X146643930Y-103942054D01*
X146647552Y-103980718D01*
X146652978Y-104017605D01*
X146660534Y-104053147D01*
X146665213Y-104070548D01*
X146670548Y-104087775D01*
X146676578Y-104104882D01*
X146683345Y-104121921D01*
X146690889Y-104138948D01*
X146699252Y-104156017D01*
X146708474Y-104173180D01*
X146718596Y-104190493D01*
X146729658Y-104208009D01*
X146741702Y-104225783D01*
X146768897Y-104262316D01*
X146800508Y-104300525D01*
X146836860Y-104340842D01*
X146889114Y-104389954D01*
X146910357Y-104410893D01*
X146928704Y-104430250D01*
X146944427Y-104448649D01*
X146957795Y-104466712D01*
X146969079Y-104485061D01*
X146978549Y-104504319D01*
X146986476Y-104525108D01*
X146993130Y-104548051D01*
X146998782Y-104573771D01*
X147003702Y-104602889D01*
X147008160Y-104636028D01*
X147012427Y-104673811D01*
X147021469Y-104765798D01*
X147006292Y-104894682D01*
X146996949Y-104947107D01*
X146984732Y-104992426D01*
X146977146Y-105012632D01*
X146968361Y-105031317D01*
X146958218Y-105048563D01*
X146946557Y-105064457D01*
X146933219Y-105079083D01*
X146918042Y-105092525D01*
X146900868Y-105104870D01*
X146881536Y-105116200D01*
X146859887Y-105126602D01*
X146835760Y-105136160D01*
X146779436Y-105153082D01*
X146711284Y-105167645D01*
X146630025Y-105180528D01*
X146534381Y-105192409D01*
X146423072Y-105203965D01*
X146148344Y-105228818D01*
X145936677Y-105017153D01*
X145927995Y-104931473D01*
X145921794Y-104863777D01*
X145918074Y-104807863D01*
X145917143Y-104782386D01*
X145916833Y-104757530D01*
X145917143Y-104732518D01*
X145918074Y-104706577D01*
X145921794Y-104648802D01*
X145927995Y-104578006D01*
X145936677Y-104487986D01*
X146009996Y-104393485D01*
X146039749Y-104354299D01*
X146065377Y-104319448D01*
X146087238Y-104288153D01*
X146105692Y-104259634D01*
X146121098Y-104233111D01*
X146133814Y-104207804D01*
X146144201Y-104182933D01*
X146152616Y-104157717D01*
X146159421Y-104131378D01*
X146164972Y-104103134D01*
X146169630Y-104072206D01*
X146173753Y-104037815D01*
X146181834Y-103955520D01*
X146191804Y-103706974D01*
X146204597Y-103424532D01*
X146215317Y-103120833D01*
X146254746Y-102156990D01*
X146281204Y-101485921D01*
X146360011Y-99513820D01*
X146042510Y-99513820D01*
X146042631Y-99408567D01*
X146043479Y-99326641D01*
X146044403Y-99292413D01*
X146045780Y-99261603D01*
X146047703Y-99233406D01*
X146050262Y-99207016D01*
X146053547Y-99181629D01*
X146057650Y-99156440D01*
X146062661Y-99130644D01*
X146068671Y-99103436D01*
X146084053Y-99041567D01*
X146104522Y-98964394D01*
X146188031Y-98713454D01*
X146223663Y-98605589D01*
X146240647Y-98556487D01*
X146257518Y-98510114D01*
X146274608Y-98466099D01*
X146292246Y-98424076D01*
X146310765Y-98383673D01*
X146330495Y-98344524D01*
X146351767Y-98306258D01*
X146374914Y-98268507D01*
X146400264Y-98230902D01*
X146428151Y-98193073D01*
X146458905Y-98154653D01*
X146492856Y-98115272D01*
X146530337Y-98074562D01*
X146571677Y-98032152D01*
X146610912Y-98122067D01*
G37*
G36*
X152710010Y-104487986D02*
G01*
X152815844Y-105017153D01*
X152180843Y-105122986D01*
X152075010Y-104699653D01*
X152286677Y-104699653D01*
X152286677Y-104382152D01*
X152710010Y-104487986D01*
G37*
G36*
X146995010Y-99513820D02*
G01*
X146677511Y-99513820D01*
X146681359Y-99994634D01*
X146678544Y-100232627D01*
X146671058Y-100469690D01*
X146657763Y-100706331D01*
X146637525Y-100943060D01*
X146609208Y-101180387D01*
X146571677Y-101418819D01*
X146539803Y-101367707D01*
X146511124Y-101318676D01*
X146485452Y-101271332D01*
X146462597Y-101225280D01*
X146442372Y-101180127D01*
X146424586Y-101135478D01*
X146409051Y-101090940D01*
X146395578Y-101046117D01*
X146383978Y-101000617D01*
X146374062Y-100954045D01*
X146365641Y-100906007D01*
X146358525Y-100856108D01*
X146352526Y-100803956D01*
X146347455Y-100749155D01*
X146339340Y-100630031D01*
X146346781Y-100228194D01*
X146352569Y-99823052D01*
X146360011Y-99513820D01*
X146042510Y-99513820D01*
X146042510Y-99196318D01*
X146148344Y-99407985D01*
X146889177Y-99407985D01*
X146889177Y-99196318D01*
X146995010Y-99513820D01*
G37*
G36*
X149435063Y-100737404D02*
G01*
X149439513Y-101114342D01*
X149442407Y-101425432D01*
X149445462Y-101674818D01*
X149444117Y-101917090D01*
X149436118Y-102154078D01*
X149428919Y-102271162D01*
X149419213Y-102387612D01*
X149406718Y-102503656D01*
X149391152Y-102619523D01*
X149372234Y-102735442D01*
X149349683Y-102851641D01*
X149323216Y-102968350D01*
X149292553Y-103085796D01*
X149257411Y-103204210D01*
X149217510Y-103323819D01*
X149005843Y-103217986D01*
X148998402Y-103072051D01*
X148996542Y-103017998D01*
X148995922Y-102968285D01*
X148996542Y-102916712D01*
X148998402Y-102857078D01*
X149005843Y-102688820D01*
X149079392Y-102594061D01*
X149109236Y-102554751D01*
X149134939Y-102519770D01*
X149156861Y-102488328D01*
X149175361Y-102459639D01*
X149190799Y-102432914D01*
X149203534Y-102407364D01*
X149213926Y-102382201D01*
X149222334Y-102356637D01*
X149229118Y-102329883D01*
X149234637Y-102301152D01*
X149239251Y-102269655D01*
X149243319Y-102234604D01*
X149251255Y-102150686D01*
X149261332Y-101900444D01*
X149273734Y-101628624D01*
X149283656Y-101346059D01*
X149300903Y-100943071D01*
X149316988Y-100540035D01*
X149323344Y-100360485D01*
X149429177Y-100360485D01*
X149435063Y-100737404D01*
G37*
G36*
X146610119Y-98117714D02*
G01*
X146644972Y-98202505D01*
X146676474Y-98286702D01*
X146704862Y-98370483D01*
X146730375Y-98454025D01*
X146753249Y-98537506D01*
X146773722Y-98621103D01*
X146792033Y-98704993D01*
X146823116Y-98874365D01*
X146848400Y-99047041D01*
X146869787Y-99224441D01*
X146889177Y-99407985D01*
X146148344Y-99407985D01*
X146135114Y-99183089D01*
X146139697Y-99098371D01*
X146146152Y-99015721D01*
X146154727Y-98935059D01*
X146165668Y-98856308D01*
X146179224Y-98779392D01*
X146195641Y-98704232D01*
X146215168Y-98630750D01*
X146238053Y-98558870D01*
X146264541Y-98488513D01*
X146294882Y-98419602D01*
X146329322Y-98352059D01*
X146368109Y-98285807D01*
X146411491Y-98220768D01*
X146459714Y-98156864D01*
X146513027Y-98094018D01*
X146571677Y-98032152D01*
X146610119Y-98117714D01*
G37*
G36*
X146254177Y-113589652D02*
G01*
X146042510Y-113695485D01*
X145998689Y-114029935D01*
X145976365Y-114442933D01*
X145955706Y-114809999D01*
X145936677Y-115177152D01*
X146148344Y-115177152D01*
X146254177Y-115600486D01*
X146184440Y-115567716D01*
X146155404Y-115553613D01*
X146129430Y-115540411D01*
X146105898Y-115527645D01*
X146084188Y-115514850D01*
X146063679Y-115501562D01*
X146043751Y-115487313D01*
X146023784Y-115471641D01*
X146003159Y-115454079D01*
X145981255Y-115434163D01*
X145957451Y-115411427D01*
X145901667Y-115355636D01*
X145830844Y-115282985D01*
X145817389Y-115194048D01*
X145807296Y-115106112D01*
X145800142Y-115018791D01*
X145795504Y-114931699D01*
X145792958Y-114844452D01*
X145792080Y-114756662D01*
X145793637Y-114577912D01*
X145804385Y-114310642D01*
X145815827Y-113844273D01*
X145830844Y-113377985D01*
X146254177Y-113589652D01*
G37*
G36*
X148188259Y-105715608D02*
G01*
X148307874Y-105721712D01*
X148426035Y-105731883D01*
X148542623Y-105746915D01*
X148657518Y-105767604D01*
X148770602Y-105794742D01*
X148881754Y-105829125D01*
X148990856Y-105871546D01*
X149097788Y-105922799D01*
X149150403Y-105951986D01*
X149202431Y-105983679D01*
X149253856Y-106017978D01*
X149304665Y-106054981D01*
X149354842Y-106094788D01*
X149404372Y-106137497D01*
X149561469Y-106326839D01*
X149602356Y-106375586D01*
X149640608Y-106423174D01*
X149676329Y-106469898D01*
X149709626Y-106516057D01*
X149740602Y-106561946D01*
X149769364Y-106607862D01*
X149796016Y-106654103D01*
X149820664Y-106700964D01*
X149843414Y-106748743D01*
X149864371Y-106797737D01*
X149883639Y-106848242D01*
X149901324Y-106900554D01*
X149917532Y-106954971D01*
X149932368Y-107011790D01*
X149945936Y-107071307D01*
X149958344Y-107133818D01*
X149852510Y-106922152D01*
X149535011Y-106922152D01*
X149535011Y-106604653D01*
X149431421Y-106564229D01*
X149388267Y-106547938D01*
X149349632Y-106534055D01*
X149314588Y-106522424D01*
X149282204Y-106512891D01*
X149251549Y-106505301D01*
X149221694Y-106499498D01*
X149191708Y-106495327D01*
X149160661Y-106492634D01*
X149127623Y-106491263D01*
X149091664Y-106491060D01*
X149051853Y-106491869D01*
X149007261Y-106493535D01*
X148900011Y-106498819D01*
X148857325Y-106600743D01*
X148840323Y-106643091D01*
X148826096Y-106680862D01*
X148814558Y-106714927D01*
X148805620Y-106746161D01*
X148799193Y-106775435D01*
X148795190Y-106803624D01*
X148793522Y-106831600D01*
X148794101Y-106860236D01*
X148796840Y-106890405D01*
X148801649Y-106922980D01*
X148808441Y-106958835D01*
X148817128Y-106998841D01*
X148839833Y-107094803D01*
X148860151Y-107226829D01*
X148876410Y-107356944D01*
X148889027Y-107485844D01*
X148898416Y-107614223D01*
X148904992Y-107742776D01*
X148909172Y-107872199D01*
X148911370Y-108003185D01*
X148912001Y-108136429D01*
X148910346Y-108393070D01*
X148907994Y-109217464D01*
X148905824Y-109789626D01*
X148900011Y-111472985D01*
X148794177Y-111472985D01*
X148761724Y-110214560D01*
X148747875Y-109700277D01*
X148728495Y-108943340D01*
X148721830Y-108703128D01*
X148716790Y-108385823D01*
X148712544Y-108227212D01*
X148704096Y-108069188D01*
X148697581Y-107990526D01*
X148689157Y-107912167D01*
X148678538Y-107834165D01*
X148665439Y-107756570D01*
X148649572Y-107679436D01*
X148630653Y-107602814D01*
X148608394Y-107526758D01*
X148582510Y-107451319D01*
X148519608Y-107373991D01*
X148493190Y-107342712D01*
X148469267Y-107315904D01*
X148447194Y-107293225D01*
X148436649Y-107283328D01*
X148426324Y-107274336D01*
X148416139Y-107266206D01*
X148406013Y-107258896D01*
X148395865Y-107252363D01*
X148385614Y-107246564D01*
X148375180Y-107241457D01*
X148364482Y-107237001D01*
X148353440Y-107233151D01*
X148341972Y-107229865D01*
X148329998Y-107227102D01*
X148317438Y-107224817D01*
X148290234Y-107221517D01*
X148259716Y-107219623D01*
X148225236Y-107218796D01*
X148141814Y-107218981D01*
X147881365Y-107226423D01*
X147649829Y-107232173D01*
X147418344Y-107239652D01*
X147394942Y-107323998D01*
X147373827Y-107407088D01*
X147355010Y-107489486D01*
X147338502Y-107571753D01*
X147324312Y-107654452D01*
X147312453Y-107738146D01*
X147302934Y-107823396D01*
X147295766Y-107910767D01*
X147290781Y-108187088D01*
X147284384Y-108501610D01*
X147279024Y-108838727D01*
X147259309Y-109910549D01*
X147246080Y-110656446D01*
X147214713Y-112379493D01*
X147206677Y-112848818D01*
X147100844Y-112848818D01*
X145830844Y-112848818D01*
X145825676Y-110950847D01*
X145824230Y-110176526D01*
X145820963Y-109034588D01*
X145820509Y-108673363D01*
X145818853Y-108322216D01*
X145818829Y-107994852D01*
X145820166Y-107872757D01*
X145824919Y-107753868D01*
X145833285Y-107637938D01*
X145845460Y-107524717D01*
X145856182Y-107451319D01*
X145936677Y-107451319D01*
X145936677Y-112742984D01*
X147100844Y-112742984D01*
X147095677Y-110985160D01*
X147094229Y-110269130D01*
X147090962Y-109211246D01*
X147090508Y-108877588D01*
X147088854Y-108551191D01*
X147088829Y-108249462D01*
X147089189Y-108129248D01*
X147091113Y-108009035D01*
X147094898Y-107888875D01*
X147100844Y-107768819D01*
X147145130Y-107615916D01*
X147178062Y-107495007D01*
X147190658Y-107443061D01*
X147200881Y-107394927D01*
X147208885Y-107349211D01*
X147214826Y-107304517D01*
X147218858Y-107259449D01*
X147221138Y-107212613D01*
X147221819Y-107162612D01*
X147221057Y-107108053D01*
X147215823Y-106979676D01*
X147206677Y-106816318D01*
X146465844Y-106816318D01*
X146465844Y-107027985D01*
X146148344Y-107027985D01*
X146148344Y-107451319D01*
X145936677Y-107451319D01*
X145856182Y-107451319D01*
X145861640Y-107413958D01*
X145882021Y-107305414D01*
X145906799Y-107198835D01*
X145936169Y-107093973D01*
X145970329Y-106990582D01*
X146009474Y-106888412D01*
X146053800Y-106787215D01*
X146103504Y-106686744D01*
X146158780Y-106586750D01*
X146219826Y-106486986D01*
X146286838Y-106387203D01*
X146360011Y-106287153D01*
X146427949Y-106220955D01*
X146495508Y-106159729D01*
X146562993Y-106103284D01*
X146630709Y-106051431D01*
X146698961Y-106003979D01*
X146768056Y-105960740D01*
X146838298Y-105921524D01*
X146909994Y-105886141D01*
X146983449Y-105854401D01*
X147058968Y-105826114D01*
X147136857Y-105801092D01*
X147217422Y-105779143D01*
X147300968Y-105760079D01*
X147387800Y-105743711D01*
X147478224Y-105729847D01*
X147572546Y-105718299D01*
X147821881Y-105713757D01*
X148067309Y-105712777D01*
X148188259Y-105715608D01*
G37*
G36*
X144772511Y-121632985D02*
G01*
X144349178Y-121527151D01*
X144394333Y-121388649D01*
X144440751Y-121253482D01*
X144488910Y-121120871D01*
X144539286Y-120990035D01*
X144592357Y-120860192D01*
X144648600Y-120730562D01*
X144708492Y-120600365D01*
X144772511Y-120468818D01*
X144772511Y-121632985D01*
G37*
G36*
X143826534Y-100691824D02*
G01*
X143827343Y-100797712D01*
X143826120Y-100849535D01*
X143823427Y-100900839D01*
X143818973Y-100951793D01*
X143812469Y-101002568D01*
X143803626Y-101053334D01*
X143792153Y-101104261D01*
X143777762Y-101155519D01*
X143760162Y-101207280D01*
X143739064Y-101259712D01*
X143714178Y-101312987D01*
X143716010Y-101439922D01*
X143719515Y-101563194D01*
X143721704Y-101683511D01*
X143721372Y-101742781D01*
X143719590Y-101801578D01*
X143715986Y-101859989D01*
X143710185Y-101918103D01*
X143701815Y-101976008D01*
X143690501Y-102033792D01*
X143675871Y-102091543D01*
X143657550Y-102149351D01*
X143635166Y-102207302D01*
X143608344Y-102265487D01*
X143396677Y-102265487D01*
X143389236Y-101979406D01*
X143383448Y-101604027D01*
X143380759Y-101443609D01*
X143381217Y-101292947D01*
X143383510Y-101220563D01*
X143387649Y-101149763D01*
X143393989Y-101080264D01*
X143402882Y-101011781D01*
X143414682Y-100944028D01*
X143429742Y-100876722D01*
X143448415Y-100809578D01*
X143471054Y-100742311D01*
X143498014Y-100674636D01*
X143529646Y-100606269D01*
X143566305Y-100536925D01*
X143608344Y-100466320D01*
X143820011Y-100466320D01*
X143826534Y-100691824D01*
G37*
G36*
X152075010Y-115706319D02*
G01*
X152286677Y-115706319D01*
X152286677Y-116023819D01*
X152129581Y-116160658D01*
X152072737Y-116208923D01*
X152022094Y-116250368D01*
X151971451Y-116289952D01*
X151914607Y-116332637D01*
X151757510Y-116447152D01*
X151969177Y-115494652D01*
X152075010Y-115706319D01*
G37*
G36*
X145093731Y-99059066D02*
G01*
X145096625Y-99434444D01*
X145097625Y-99726621D01*
X145094464Y-99868828D01*
X145086933Y-100009483D01*
X145081077Y-100079473D01*
X145073586Y-100149366D01*
X145064279Y-100219260D01*
X145052975Y-100289253D01*
X145039494Y-100359441D01*
X145023654Y-100429922D01*
X145005276Y-100500793D01*
X144984177Y-100572152D01*
X144666677Y-100572152D01*
X144666677Y-99513820D01*
X144878344Y-99513820D01*
X144878344Y-98772985D01*
X145090011Y-98772985D01*
X145093731Y-99059066D01*
G37*
G36*
X143572418Y-121420707D02*
G01*
X143600781Y-121464110D01*
X143625204Y-121502418D01*
X143646027Y-121536411D01*
X143663591Y-121566872D01*
X143678237Y-121594582D01*
X143690303Y-121620324D01*
X143700131Y-121644879D01*
X143708062Y-121669028D01*
X143714435Y-121693554D01*
X143719590Y-121719239D01*
X143723869Y-121746864D01*
X143727611Y-121777211D01*
X143734847Y-121849199D01*
X143727407Y-122076162D01*
X143714178Y-122479651D01*
X143608344Y-122479651D01*
X143570439Y-122400657D01*
X143537453Y-122324992D01*
X143509227Y-122252121D01*
X143485600Y-122181509D01*
X143466412Y-122112620D01*
X143451503Y-122044919D01*
X143440713Y-121977871D01*
X143433882Y-121910940D01*
X143430848Y-121843591D01*
X143431453Y-121775290D01*
X143435536Y-121705499D01*
X143442936Y-121633685D01*
X143453494Y-121559312D01*
X143467049Y-121481845D01*
X143483442Y-121400747D01*
X143502511Y-121315485D01*
X143572418Y-121420707D01*
G37*
G36*
X146465844Y-104487986D02*
G01*
X146889177Y-104487986D01*
X146889177Y-104911319D01*
X146783344Y-105017153D01*
X146651066Y-105019603D01*
X146518759Y-105020461D01*
X146386452Y-105019665D01*
X146254177Y-105017153D01*
X146188031Y-104825330D01*
X146175345Y-104748293D01*
X146171026Y-104715903D01*
X146168394Y-104686527D01*
X146167700Y-104659359D01*
X146169195Y-104633597D01*
X146170843Y-104620991D01*
X146173132Y-104608436D01*
X146176095Y-104595829D01*
X146179763Y-104583070D01*
X146189339Y-104556698D01*
X146202113Y-104528513D01*
X146218336Y-104497712D01*
X146238261Y-104463491D01*
X146262139Y-104425045D01*
X146290222Y-104381571D01*
X146360011Y-104276319D01*
X146465844Y-104487986D01*
G37*
G36*
X143609101Y-106038271D02*
G01*
X143600816Y-107059038D01*
X143584990Y-108079730D01*
X143563126Y-109100623D01*
X143547727Y-109754537D01*
X143502511Y-111684652D01*
X143396677Y-111684652D01*
X143396677Y-106392986D01*
X142867510Y-106392986D01*
X142888013Y-106480085D01*
X142905884Y-106566475D01*
X142921291Y-106652276D01*
X142934401Y-106737608D01*
X142945381Y-106822592D01*
X142954398Y-106907347D01*
X142967212Y-107076655D01*
X142974177Y-107246494D01*
X142976630Y-107417826D01*
X142973344Y-107768819D01*
X142761677Y-107768819D01*
X142761677Y-105757985D01*
X142973344Y-106075486D01*
X143185011Y-106075486D01*
X143187333Y-106000020D01*
X143194122Y-105926503D01*
X143205109Y-105854783D01*
X143220028Y-105784709D01*
X143238611Y-105716130D01*
X143260591Y-105648895D01*
X143285699Y-105582852D01*
X143313669Y-105517850D01*
X143344233Y-105453737D01*
X143377123Y-105390363D01*
X143412073Y-105327576D01*
X143448814Y-105265225D01*
X143526601Y-105141225D01*
X143608344Y-105017153D01*
X143609101Y-106038271D01*
G37*
G36*
X146889177Y-99407985D02*
G01*
X146148344Y-99407985D01*
X146148344Y-99090487D01*
X146677511Y-98984652D01*
X146783344Y-98561318D01*
X146889177Y-99407985D01*
G37*
G36*
X152815844Y-99302153D02*
G01*
X152604177Y-99513820D01*
X152286677Y-99407985D01*
X152286677Y-99090487D01*
X152710010Y-98984652D01*
X152815844Y-99302153D01*
G37*
G36*
X142763553Y-102104967D02*
G01*
X142762362Y-102260935D01*
X142758217Y-102416182D01*
X142751233Y-102571002D01*
X142741522Y-102725687D01*
X142729197Y-102880530D01*
X142714372Y-103035824D01*
X142697160Y-103191863D01*
X142584858Y-104237557D01*
X142493137Y-105284659D01*
X142419515Y-106332956D01*
X142361510Y-107382236D01*
X142282424Y-109482893D01*
X142236025Y-111584929D01*
X142232511Y-111790485D01*
X142224144Y-112798515D01*
X142231283Y-113806217D01*
X142248940Y-114813848D01*
X142272128Y-115821663D01*
X142278813Y-116096579D01*
X142311606Y-117314041D01*
X142357681Y-118530876D01*
X142388334Y-119138891D01*
X142425468Y-119746548D01*
X142470138Y-120353780D01*
X142523397Y-120960519D01*
X142593999Y-121710024D01*
X142657366Y-122459752D01*
X142713319Y-123210064D01*
X142761677Y-123961318D01*
X142695873Y-123953379D01*
X142643674Y-123946409D01*
X142621125Y-123942900D01*
X142600117Y-123939168D01*
X142580030Y-123935058D01*
X142560242Y-123930415D01*
X142540135Y-123925085D01*
X142519089Y-123918911D01*
X142471695Y-123903414D01*
X142413101Y-123882686D01*
X142338345Y-123855484D01*
X141961733Y-123231042D01*
X141809543Y-122945109D01*
X141679294Y-122656211D01*
X141569384Y-122348980D01*
X141478211Y-122008048D01*
X141404171Y-121618046D01*
X141345662Y-121163607D01*
X141301082Y-120629362D01*
X141268829Y-119999943D01*
X141234892Y-118394111D01*
X141244431Y-113364162D01*
X141246425Y-112839647D01*
X141246603Y-112315130D01*
X141253773Y-110430703D01*
X141270603Y-109488965D01*
X141301360Y-108547951D01*
X141349865Y-107607964D01*
X141419940Y-106669310D01*
X141515408Y-105732292D01*
X141640092Y-104797217D01*
X141690115Y-104487986D01*
X141782742Y-103865069D01*
X141837471Y-103550304D01*
X141902581Y-103237014D01*
X141940145Y-103081785D01*
X141981646Y-102927960D01*
X142027530Y-102775884D01*
X142078244Y-102625903D01*
X142134235Y-102478361D01*
X142195951Y-102333603D01*
X142263839Y-102191974D01*
X142338345Y-102053820D01*
X142413219Y-102025804D01*
X142471899Y-102004494D01*
X142496715Y-101995966D01*
X142519343Y-101988648D01*
X142540402Y-101982387D01*
X142560514Y-101977028D01*
X142580297Y-101972414D01*
X142600371Y-101968391D01*
X142621358Y-101964804D01*
X142643877Y-101961499D01*
X142695992Y-101955110D01*
X142761677Y-101947985D01*
X142763553Y-102104967D01*
G37*
G36*
X149755920Y-112394535D02*
G01*
X149860625Y-112459299D01*
X149910518Y-112487971D01*
X149959534Y-112514213D01*
X150008243Y-112538060D01*
X150057218Y-112559544D01*
X150107031Y-112578699D01*
X150158254Y-112595558D01*
X150211457Y-112610156D01*
X150267213Y-112622524D01*
X150326093Y-112632698D01*
X150388669Y-112640709D01*
X150455514Y-112646592D01*
X150527198Y-112650380D01*
X150671514Y-112647940D01*
X150813147Y-112650387D01*
X150952903Y-112657279D01*
X151091585Y-112668177D01*
X151229999Y-112682637D01*
X151368949Y-112700220D01*
X151509240Y-112720483D01*
X151651677Y-112742984D01*
X151651677Y-112848818D01*
X151496648Y-112883958D01*
X151436806Y-112896257D01*
X151378825Y-112906696D01*
X151315263Y-112916515D01*
X151238679Y-112926953D01*
X151016677Y-112954651D01*
X150896513Y-112952424D01*
X150781409Y-112947318D01*
X150670878Y-112939068D01*
X150564434Y-112927410D01*
X150461592Y-112912080D01*
X150361867Y-112892813D01*
X150264772Y-112869346D01*
X150169823Y-112841413D01*
X150076533Y-112808751D01*
X149984417Y-112771095D01*
X149892989Y-112728181D01*
X149801764Y-112679744D01*
X149710256Y-112625521D01*
X149617979Y-112565246D01*
X149524448Y-112498656D01*
X149429177Y-112425486D01*
X149640844Y-112319652D01*
X149755920Y-112394535D01*
G37*
G36*
X153027510Y-120892151D02*
G01*
X145830844Y-120892151D01*
X145830844Y-119516318D01*
X153027510Y-119516318D01*
X153027510Y-120892151D01*
G37*
G36*
X148182301Y-105716536D02*
G01*
X148300631Y-105722679D01*
X148417590Y-105732702D01*
X148533108Y-105747342D01*
X148647114Y-105767333D01*
X148759539Y-105793412D01*
X148870311Y-105826313D01*
X148979361Y-105866771D01*
X149086618Y-105915524D01*
X149192012Y-105973304D01*
X149243989Y-106005810D01*
X149295473Y-106040849D01*
X149346457Y-106078513D01*
X149396931Y-106118894D01*
X149548239Y-106293767D01*
X149765337Y-106537987D01*
X149853255Y-106645242D01*
X149928746Y-106748298D01*
X149992806Y-106851437D01*
X150046429Y-106958938D01*
X150090610Y-107075079D01*
X150126344Y-107204142D01*
X150154627Y-107350406D01*
X150176453Y-107518151D01*
X150192818Y-107711655D01*
X150204717Y-107935200D01*
X150219097Y-108489527D01*
X150227552Y-109215371D01*
X150235123Y-109941916D01*
X150243184Y-110404317D01*
X150242267Y-110556132D01*
X150239963Y-110692420D01*
X150239912Y-110755763D01*
X150241460Y-110816450D01*
X150245254Y-110874891D01*
X150251944Y-110931492D01*
X150262177Y-110986664D01*
X150268825Y-111013841D01*
X150276603Y-111040814D01*
X150285591Y-111067634D01*
X150295870Y-111094352D01*
X150307521Y-111121019D01*
X150320626Y-111147686D01*
X150335265Y-111174404D01*
X150351519Y-111201224D01*
X150369470Y-111228197D01*
X150389199Y-111255375D01*
X150410786Y-111282808D01*
X150434313Y-111310548D01*
X150459861Y-111338645D01*
X150487510Y-111367151D01*
X150609042Y-111381623D01*
X150704945Y-111391961D01*
X150745999Y-111395579D01*
X150783902Y-111398163D01*
X150819738Y-111399714D01*
X150854594Y-111400230D01*
X150889553Y-111399714D01*
X150925702Y-111398163D01*
X150964126Y-111395579D01*
X151005909Y-111391961D01*
X151103895Y-111381623D01*
X151228344Y-111367151D01*
X151268579Y-111337151D01*
X151305685Y-111308408D01*
X151339826Y-111280560D01*
X151371164Y-111253243D01*
X151399863Y-111226094D01*
X151426087Y-111198750D01*
X151449997Y-111170847D01*
X151471758Y-111142024D01*
X151491533Y-111111916D01*
X151509484Y-111080160D01*
X151525776Y-111046393D01*
X151540570Y-111010253D01*
X151554031Y-110971375D01*
X151566321Y-110929397D01*
X151577604Y-110883955D01*
X151588042Y-110834687D01*
X151591603Y-110586141D01*
X151597951Y-110303698D01*
X151600000Y-110000000D01*
X151608402Y-109518093D01*
X151615012Y-109036158D01*
X151623901Y-108365087D01*
X151647000Y-106815415D01*
X151651677Y-106392986D01*
X153027510Y-106392986D01*
X153032678Y-108108023D01*
X153034125Y-108807308D01*
X153037392Y-109839278D01*
X153037845Y-110165365D01*
X153039501Y-110483092D01*
X153039525Y-110778377D01*
X153037501Y-110888583D01*
X153030869Y-110995838D01*
X153019709Y-111100377D01*
X153004098Y-111202436D01*
X152984116Y-111302252D01*
X152959841Y-111400061D01*
X152931353Y-111496098D01*
X152898730Y-111590599D01*
X152862051Y-111683801D01*
X152821394Y-111775939D01*
X152776839Y-111867250D01*
X152728464Y-111957970D01*
X152676348Y-112048334D01*
X152620570Y-112138578D01*
X152561209Y-112228939D01*
X152498344Y-112319652D01*
X152404275Y-112398667D01*
X152309081Y-112471097D01*
X152212665Y-112537231D01*
X152114934Y-112597355D01*
X152015793Y-112651757D01*
X151915146Y-112700723D01*
X151812899Y-112744542D01*
X151708957Y-112783501D01*
X151603225Y-112817885D01*
X151495608Y-112847984D01*
X151386011Y-112874084D01*
X151274339Y-112896472D01*
X151160499Y-112915436D01*
X151044393Y-112931262D01*
X150925929Y-112944238D01*
X150805010Y-112954651D01*
X150688550Y-112946775D01*
X150576548Y-112934726D01*
X150468636Y-112918457D01*
X150364448Y-112897920D01*
X150263618Y-112873068D01*
X150165779Y-112843855D01*
X150070564Y-112810233D01*
X149977607Y-112772154D01*
X149886542Y-112729573D01*
X149797001Y-112682442D01*
X149708619Y-112630713D01*
X149621029Y-112574340D01*
X149533864Y-112513276D01*
X149446757Y-112447473D01*
X149359343Y-112376884D01*
X149271254Y-112301462D01*
X149205188Y-112218500D01*
X149144143Y-112135832D01*
X149087991Y-112053197D01*
X149036604Y-111970336D01*
X148989852Y-111886987D01*
X148947608Y-111802888D01*
X148909743Y-111717779D01*
X148876127Y-111631399D01*
X148846634Y-111543487D01*
X148821133Y-111453781D01*
X148799497Y-111362022D01*
X148781597Y-111267947D01*
X148767304Y-111171296D01*
X148756490Y-111071808D01*
X148749026Y-110969222D01*
X148744784Y-110863277D01*
X148743741Y-110638721D01*
X148736458Y-110274855D01*
X148730822Y-109910962D01*
X148725882Y-109535446D01*
X148719763Y-109159948D01*
X148710668Y-108680805D01*
X148709436Y-108368798D01*
X148706870Y-108213184D01*
X148699937Y-108058242D01*
X148694113Y-107981117D01*
X148686335Y-107904276D01*
X148676314Y-107827756D01*
X148663764Y-107751596D01*
X148648396Y-107675833D01*
X148629923Y-107600507D01*
X148608057Y-107525656D01*
X148582510Y-107451319D01*
X148519608Y-107373991D01*
X148493190Y-107342712D01*
X148469267Y-107315904D01*
X148447194Y-107293225D01*
X148436649Y-107283328D01*
X148426324Y-107274336D01*
X148416139Y-107266206D01*
X148406013Y-107258896D01*
X148395865Y-107252363D01*
X148385614Y-107246564D01*
X148375180Y-107241457D01*
X148364482Y-107237001D01*
X148353440Y-107233151D01*
X148341972Y-107229865D01*
X148329998Y-107227102D01*
X148317438Y-107224817D01*
X148290234Y-107221517D01*
X148259716Y-107219623D01*
X148225236Y-107218796D01*
X148141814Y-107218981D01*
X147881365Y-107226423D01*
X147649829Y-107232173D01*
X147418344Y-107239652D01*
X147394942Y-107323998D01*
X147373827Y-107407088D01*
X147355010Y-107489486D01*
X147338502Y-107571753D01*
X147324312Y-107654452D01*
X147312453Y-107738146D01*
X147302934Y-107823396D01*
X147295766Y-107910767D01*
X147290781Y-108187088D01*
X147284384Y-108501610D01*
X147279024Y-108838727D01*
X147259309Y-109910549D01*
X147246080Y-110656446D01*
X147214713Y-112379493D01*
X147206677Y-112848818D01*
X145830844Y-112848818D01*
X145825676Y-110950847D01*
X145824230Y-110176526D01*
X145820963Y-109034588D01*
X145820509Y-108673363D01*
X145818853Y-108322216D01*
X145818829Y-107994852D01*
X145820166Y-107872757D01*
X145824919Y-107753868D01*
X145833285Y-107637938D01*
X145845460Y-107524717D01*
X145861640Y-107413958D01*
X145882021Y-107305414D01*
X145906799Y-107198835D01*
X145936169Y-107093973D01*
X145970329Y-106990582D01*
X146009474Y-106888412D01*
X146053800Y-106787215D01*
X146103504Y-106686744D01*
X146158780Y-106586750D01*
X146219826Y-106486986D01*
X146286838Y-106387203D01*
X146360011Y-106287153D01*
X146427949Y-106220955D01*
X146495508Y-106159729D01*
X146562992Y-106103284D01*
X146630708Y-106051431D01*
X146698960Y-106003979D01*
X146768055Y-105960740D01*
X146838298Y-105921524D01*
X146909994Y-105886141D01*
X146983448Y-105854401D01*
X147058968Y-105826114D01*
X147136857Y-105801092D01*
X147217422Y-105779143D01*
X147300967Y-105760079D01*
X147387800Y-105743711D01*
X147478224Y-105729847D01*
X147572546Y-105718299D01*
X147819788Y-105714040D01*
X148062670Y-105713539D01*
X148182301Y-105716536D01*
G37*
G36*
X150946057Y-117335910D02*
G01*
X150779769Y-117481098D01*
X150701412Y-117554168D01*
X150626764Y-117628355D01*
X150556215Y-117704260D01*
X150490155Y-117782484D01*
X150428974Y-117863627D01*
X150373060Y-117948290D01*
X150322803Y-118037074D01*
X150299918Y-118083199D01*
X150278594Y-118130579D01*
X150258878Y-118179289D01*
X150240820Y-118229405D01*
X150224468Y-118281001D01*
X150209872Y-118334153D01*
X150197079Y-118388936D01*
X150186139Y-118445424D01*
X150177100Y-118503693D01*
X150170010Y-118563818D01*
X150170010Y-118987152D01*
X150064177Y-118987152D01*
X150064177Y-117717151D01*
X150487510Y-117505485D01*
X150652875Y-117333506D01*
X150703712Y-117285472D01*
X150725501Y-117266039D01*
X150745789Y-117249376D01*
X150765263Y-117235272D01*
X150784611Y-117223512D01*
X150804521Y-117213884D01*
X150825681Y-117206175D01*
X150848779Y-117200171D01*
X150874502Y-117195659D01*
X150903539Y-117192426D01*
X150936578Y-117190259D01*
X150974307Y-117188944D01*
X151017413Y-117188269D01*
X151122510Y-117187985D01*
X150946057Y-117335910D01*
G37*
G36*
X143714178Y-124807985D02*
G01*
X143396677Y-124913818D01*
X143389236Y-124712900D01*
X143383448Y-124450797D01*
X143376006Y-124190348D01*
X143383243Y-124114337D01*
X143386985Y-124082769D01*
X143391264Y-124054633D01*
X143396420Y-124029282D01*
X143399433Y-124017449D01*
X143402793Y-124006071D01*
X143406542Y-123995067D01*
X143410724Y-123984355D01*
X143415379Y-123973856D01*
X143420552Y-123963488D01*
X143426284Y-123953171D01*
X143432619Y-123942825D01*
X143439598Y-123932368D01*
X143447264Y-123921719D01*
X143464828Y-123899526D01*
X143485651Y-123875600D01*
X143510074Y-123849295D01*
X143538437Y-123819965D01*
X143608344Y-123749651D01*
X143714178Y-124807985D01*
G37*
G36*
X142616371Y-121976037D02*
G01*
X142671585Y-122637108D01*
X142718929Y-123298826D01*
X142761677Y-123961318D01*
X142695060Y-123951480D01*
X142642279Y-123943154D01*
X142598374Y-123935099D01*
X142578199Y-123930785D01*
X142558383Y-123926075D01*
X142538305Y-123920812D01*
X142517345Y-123914841D01*
X142470300Y-123900159D01*
X142412287Y-123880787D01*
X142338345Y-123855484D01*
X142290198Y-123750370D01*
X142245762Y-123646242D01*
X142204861Y-123542868D01*
X142167321Y-123440017D01*
X142132965Y-123337455D01*
X142101617Y-123234953D01*
X142073103Y-123132277D01*
X142047247Y-123029196D01*
X142023873Y-122925479D01*
X142002806Y-122820893D01*
X141966889Y-122608187D01*
X141938092Y-122389225D01*
X141915011Y-122162151D01*
X141984363Y-122273247D01*
X142040396Y-122360396D01*
X142065356Y-122397317D01*
X142089312Y-122431041D01*
X142113039Y-122462500D01*
X142137313Y-122492623D01*
X142162907Y-122522341D01*
X142190598Y-122552584D01*
X142221161Y-122584282D01*
X142255370Y-122618365D01*
X142337830Y-122697407D01*
X142444178Y-122797151D01*
X142444178Y-121315485D01*
X142550010Y-121315485D01*
X142616371Y-121976037D01*
G37*
G36*
X152815844Y-98561318D02*
G01*
X152921677Y-99407985D01*
X152816257Y-99442712D01*
X152772384Y-99456355D01*
X152733161Y-99467518D01*
X152697659Y-99476199D01*
X152664948Y-99482401D01*
X152634097Y-99486121D01*
X152604177Y-99487362D01*
X152574256Y-99486121D01*
X152543405Y-99482401D01*
X152510694Y-99476199D01*
X152475192Y-99467518D01*
X152435970Y-99456355D01*
X152392097Y-99442712D01*
X152286677Y-99407985D01*
X152498344Y-98455486D01*
X152815844Y-98561318D01*
G37*
G36*
X142763553Y-102104967D02*
G01*
X142762362Y-102260935D01*
X142758217Y-102416182D01*
X142751233Y-102571002D01*
X142741522Y-102725687D01*
X142729197Y-102880530D01*
X142714372Y-103035824D01*
X142697160Y-103191863D01*
X142586534Y-104223782D01*
X142496498Y-105256846D01*
X142424375Y-106290919D01*
X142367492Y-107325868D01*
X142288746Y-109397845D01*
X142238867Y-111471694D01*
X142232511Y-111790485D01*
X142126678Y-111790485D01*
X142121510Y-109731696D01*
X142120063Y-108893297D01*
X142116796Y-107654236D01*
X142116341Y-107263630D01*
X142114687Y-106881112D01*
X142114663Y-106528016D01*
X142115010Y-106388378D01*
X142116910Y-106248741D01*
X142120690Y-106109151D01*
X142126678Y-105969652D01*
X142192381Y-105745850D01*
X142242174Y-105568911D01*
X142261958Y-105492919D01*
X142278790Y-105422529D01*
X142293010Y-105355702D01*
X142304960Y-105290400D01*
X142314983Y-105224585D01*
X142323418Y-105156218D01*
X142330609Y-105083263D01*
X142336896Y-105003681D01*
X142348127Y-104816481D01*
X142359841Y-104578316D01*
X142428158Y-103875232D01*
X142473565Y-103416425D01*
X142494613Y-103197728D01*
X142511419Y-103017820D01*
X142526557Y-102837753D01*
X142539572Y-102657529D01*
X142550010Y-102477153D01*
X142444178Y-102371318D01*
X142124763Y-103662026D01*
X142017864Y-104130801D01*
X141933444Y-104550608D01*
X141861959Y-104973011D01*
X141793862Y-105449575D01*
X141629653Y-106771437D01*
X141597511Y-107027985D01*
X141491677Y-107027985D01*
X141485833Y-106765472D01*
X141486850Y-106505203D01*
X141494450Y-106246547D01*
X141508357Y-105988871D01*
X141528292Y-105731545D01*
X141553978Y-105473937D01*
X141585136Y-105215415D01*
X141621488Y-104955347D01*
X141676885Y-104600434D01*
X141769767Y-103949786D01*
X141823876Y-103619959D01*
X141888672Y-103291398D01*
X141926384Y-103128592D01*
X141968336Y-102967302D01*
X142015050Y-102807930D01*
X142067049Y-102650874D01*
X142124855Y-102496535D01*
X142188991Y-102345313D01*
X142259980Y-102197608D01*
X142338345Y-102053820D01*
X142413202Y-102025948D01*
X142471869Y-102004741D01*
X142496682Y-101996249D01*
X142519306Y-101988957D01*
X142540364Y-101982712D01*
X142560475Y-101977357D01*
X142580258Y-101972738D01*
X142600335Y-101968700D01*
X142621325Y-101965087D01*
X142643848Y-101961746D01*
X142695975Y-101955254D01*
X142761677Y-101947985D01*
X142763553Y-102104967D01*
G37*
G36*
X152971480Y-104584718D02*
G01*
X152981567Y-104629999D01*
X152990092Y-104673911D01*
X152996747Y-104716842D01*
X153001224Y-104759179D01*
X153003215Y-104801309D01*
X153002413Y-104843620D01*
X152998508Y-104886500D01*
X152991194Y-104930335D01*
X152980162Y-104975514D01*
X152965103Y-105022424D01*
X152945711Y-105071452D01*
X152921677Y-105122986D01*
X152737140Y-105153903D01*
X152552116Y-105181922D01*
X152366664Y-105206931D01*
X152180843Y-105228818D01*
X152180843Y-105122986D01*
X152815844Y-105017153D01*
X152604177Y-104487986D01*
X152921677Y-104382152D01*
X152971480Y-104584718D01*
G37*
G36*
X145129285Y-126898813D02*
G01*
X145145124Y-126933927D01*
X145158637Y-126967646D01*
X145169980Y-127001365D01*
X145179307Y-127036479D01*
X145186775Y-127074384D01*
X145192537Y-127116474D01*
X145196748Y-127164145D01*
X145199564Y-127218793D01*
X145201631Y-127354599D01*
X145199978Y-127535053D01*
X145195844Y-127771318D01*
X144984177Y-127771318D01*
X144878344Y-126818818D01*
X145090011Y-126818818D01*
X145129285Y-126898813D01*
G37*
G36*
X149685099Y-96421739D02*
G01*
X149726507Y-96503532D01*
X149765146Y-96584935D01*
X149801091Y-96666683D01*
X149834420Y-96749513D01*
X149865210Y-96834161D01*
X149893539Y-96921362D01*
X149919483Y-97011852D01*
X149971573Y-97264861D01*
X150018351Y-97489659D01*
X150064177Y-97714653D01*
X149746677Y-97714653D01*
X149741509Y-99364785D01*
X149740063Y-100036370D01*
X149736796Y-101029580D01*
X149736342Y-101342339D01*
X149734686Y-101649346D01*
X149734662Y-101931838D01*
X149734982Y-102041769D01*
X149736831Y-102151701D01*
X149740598Y-102261572D01*
X149743324Y-102316464D01*
X149746677Y-102371318D01*
X149796509Y-102422391D01*
X149816905Y-102445733D01*
X149834702Y-102469266D01*
X149850209Y-102494230D01*
X149863736Y-102521865D01*
X149875594Y-102553411D01*
X149886092Y-102590110D01*
X149895541Y-102633200D01*
X149904251Y-102683922D01*
X149912531Y-102743517D01*
X149920692Y-102813225D01*
X149937896Y-102987939D01*
X149958344Y-103217986D01*
X149887960Y-103287904D01*
X149858466Y-103316294D01*
X149831840Y-103340769D01*
X149807384Y-103361679D01*
X149784401Y-103379372D01*
X149762193Y-103394196D01*
X149751161Y-103400642D01*
X149740062Y-103406502D01*
X149728808Y-103411819D01*
X149717312Y-103416637D01*
X149693243Y-103424950D01*
X149667160Y-103431791D01*
X149638363Y-103437507D01*
X149606156Y-103442449D01*
X149569840Y-103446964D01*
X149482094Y-103456110D01*
X149394347Y-103446964D01*
X149358032Y-103442449D01*
X149325824Y-103437507D01*
X149297027Y-103431791D01*
X149283690Y-103428533D01*
X149270944Y-103424950D01*
X149258701Y-103420999D01*
X149246875Y-103416637D01*
X149235379Y-103411819D01*
X149224125Y-103406502D01*
X149213026Y-103400642D01*
X149201994Y-103394196D01*
X149190944Y-103387121D01*
X149179786Y-103379372D01*
X149168435Y-103370906D01*
X149156803Y-103361679D01*
X149132347Y-103340769D01*
X149105721Y-103316294D01*
X149076227Y-103287904D01*
X149005843Y-103217986D01*
X148997162Y-103132306D01*
X148990961Y-103064610D01*
X148987240Y-103008696D01*
X148986310Y-102983219D01*
X148986000Y-102958363D01*
X148986310Y-102933352D01*
X148987240Y-102907410D01*
X148990961Y-102849636D01*
X148997162Y-102778840D01*
X149005843Y-102688820D01*
X149079163Y-102594320D01*
X149108916Y-102555133D01*
X149134543Y-102520282D01*
X149156405Y-102488987D01*
X149174858Y-102460468D01*
X149190264Y-102433945D01*
X149202981Y-102408637D01*
X149213367Y-102383766D01*
X149221783Y-102358550D01*
X149228587Y-102332211D01*
X149234138Y-102303967D01*
X149238796Y-102273039D01*
X149242920Y-102238648D01*
X149251000Y-102156353D01*
X149260970Y-101907808D01*
X149273763Y-101625365D01*
X149284483Y-101321666D01*
X149323912Y-100357824D01*
X149350371Y-99686754D01*
X149429177Y-97714653D01*
X149005843Y-97714653D01*
X149005843Y-97397152D01*
X149063527Y-97243808D01*
X149121449Y-97096180D01*
X149151430Y-97024557D01*
X149182589Y-96954418D01*
X149215297Y-96885783D01*
X149249927Y-96818670D01*
X149286851Y-96753098D01*
X149326442Y-96689087D01*
X149369072Y-96626653D01*
X149415114Y-96565817D01*
X149464939Y-96506597D01*
X149518921Y-96449012D01*
X149577432Y-96393080D01*
X149640844Y-96338820D01*
X149685099Y-96421739D01*
G37*
G36*
X153027510Y-123643818D02*
G01*
X145830844Y-123643818D01*
X145830844Y-122267985D01*
X153027510Y-122267985D01*
X153027510Y-123643818D01*
G37*
G36*
X146178081Y-113498473D02*
G01*
X146310681Y-113622564D01*
X146440554Y-113749803D01*
X146567939Y-113879735D01*
X146693079Y-114011905D01*
X146816214Y-114145859D01*
X146937586Y-114281143D01*
X147057436Y-114417301D01*
X147194034Y-114576161D01*
X147332053Y-114733344D01*
X147471486Y-114888981D01*
X147612321Y-115043205D01*
X147754550Y-115196147D01*
X147898165Y-115347938D01*
X148189511Y-115648595D01*
X148390688Y-115851839D01*
X148585249Y-116050535D01*
X148772266Y-116237966D01*
X148816524Y-116281728D01*
X148860504Y-116323496D01*
X148904364Y-116363388D01*
X148948261Y-116401521D01*
X148992351Y-116438011D01*
X149036792Y-116472978D01*
X149081741Y-116506537D01*
X149127353Y-116538808D01*
X149173788Y-116569906D01*
X149221201Y-116599950D01*
X149269748Y-116629058D01*
X149319589Y-116657346D01*
X149370878Y-116684931D01*
X149423774Y-116711933D01*
X149478432Y-116738467D01*
X149535011Y-116764652D01*
X149989082Y-116318843D01*
X150440848Y-115870311D01*
X150663542Y-115642989D01*
X150882872Y-115412544D01*
X151097907Y-115178161D01*
X151307719Y-114939026D01*
X151689028Y-114493330D01*
X151886003Y-114274189D01*
X151987092Y-114167322D01*
X152090306Y-114062934D01*
X152195935Y-113961532D01*
X152304272Y-113863625D01*
X152415610Y-113769720D01*
X152530238Y-113680324D01*
X152648451Y-113595944D01*
X152770539Y-113517090D01*
X152896795Y-113444268D01*
X153027510Y-113377985D01*
X153059155Y-113648221D01*
X153080236Y-113901724D01*
X153090023Y-114140023D01*
X153087788Y-114364647D01*
X153081934Y-114472308D01*
X153072801Y-114577124D01*
X153060298Y-114679286D01*
X153044333Y-114778984D01*
X153024815Y-114876411D01*
X153001653Y-114971756D01*
X152974756Y-115065212D01*
X152944033Y-115156969D01*
X152909392Y-115247219D01*
X152870743Y-115336152D01*
X152827994Y-115423959D01*
X152781054Y-115510833D01*
X152729832Y-115596963D01*
X152674236Y-115682542D01*
X152614176Y-115767759D01*
X152549560Y-115852807D01*
X152480297Y-115937876D01*
X152406296Y-116023158D01*
X152243716Y-116195123D01*
X152061088Y-116370232D01*
X151857685Y-116550013D01*
X151659150Y-116719430D01*
X151462334Y-116890685D01*
X151266928Y-117063553D01*
X151072627Y-117237811D01*
X150888106Y-117406679D01*
X150746308Y-117536769D01*
X150679166Y-117600347D01*
X150614829Y-117663629D01*
X150553521Y-117727128D01*
X150495465Y-117791358D01*
X150440886Y-117856830D01*
X150390008Y-117924057D01*
X150343056Y-117993551D01*
X150300253Y-118065826D01*
X150261825Y-118141393D01*
X150227994Y-118220765D01*
X150198986Y-118304455D01*
X150175025Y-118392975D01*
X150156334Y-118486838D01*
X150143139Y-118586556D01*
X150170010Y-118987152D01*
X150134514Y-119022105D01*
X150119044Y-119036287D01*
X150104323Y-119048498D01*
X150089774Y-119058910D01*
X150074820Y-119067692D01*
X150058884Y-119075015D01*
X150041388Y-119081048D01*
X150021755Y-119085962D01*
X149999410Y-119089927D01*
X149973773Y-119093114D01*
X149944268Y-119095692D01*
X149871347Y-119099702D01*
X149776029Y-119103320D01*
X149422562Y-119099599D01*
X149108365Y-119096717D01*
X148794177Y-119092985D01*
X148792857Y-118984053D01*
X148790032Y-118875141D01*
X148785980Y-118766263D01*
X148780974Y-118657430D01*
X148769848Y-118570557D01*
X148756716Y-118489328D01*
X148741360Y-118413209D01*
X148723564Y-118341666D01*
X148703110Y-118274165D01*
X148679781Y-118210173D01*
X148653362Y-118149155D01*
X148623634Y-118090578D01*
X148590380Y-118033908D01*
X148553385Y-117978611D01*
X148512431Y-117924153D01*
X148467301Y-117870000D01*
X148417778Y-117815618D01*
X148363645Y-117760474D01*
X148304685Y-117704033D01*
X148240682Y-117645762D01*
X148144447Y-117564638D01*
X148049134Y-117482419D01*
X147954721Y-117399166D01*
X147861186Y-117314940D01*
X147710205Y-117177781D01*
X147558480Y-117041542D01*
X147406057Y-116906083D01*
X147252979Y-116771266D01*
X146905204Y-116473867D01*
X146733760Y-116322730D01*
X146565490Y-116168453D01*
X146401550Y-116009899D01*
X146321566Y-115928664D01*
X146243098Y-115845933D01*
X146166292Y-115761565D01*
X146091292Y-115675417D01*
X146018243Y-115587348D01*
X145947290Y-115497216D01*
X145840376Y-115296800D01*
X145797923Y-115209861D01*
X145762578Y-115127628D01*
X145734172Y-115046998D01*
X145712534Y-114964866D01*
X145697493Y-114878128D01*
X145688878Y-114783679D01*
X145686519Y-114678416D01*
X145690246Y-114559232D01*
X145699887Y-114423026D01*
X145715272Y-114266691D01*
X145762593Y-113881220D01*
X145830844Y-113377985D01*
X146042510Y-113377985D01*
X146178081Y-113498473D01*
G37*
G36*
X142232511Y-119304651D02*
G01*
X142257538Y-119429471D01*
X142276830Y-119552104D01*
X142290712Y-119672855D01*
X142299508Y-119792027D01*
X142303544Y-119909925D01*
X142303145Y-120026853D01*
X142298634Y-120143114D01*
X142290338Y-120259014D01*
X142278582Y-120374855D01*
X142263689Y-120490942D01*
X142225796Y-120725069D01*
X142179260Y-120963828D01*
X142126678Y-121209652D01*
X141915011Y-121209652D01*
X141845089Y-121104173D01*
X141816692Y-121060159D01*
X141792202Y-121020664D01*
X141771268Y-120984713D01*
X141753538Y-120951331D01*
X141738662Y-120919545D01*
X141726288Y-120888379D01*
X141716066Y-120856859D01*
X141707643Y-120824012D01*
X141700669Y-120788862D01*
X141694792Y-120750435D01*
X141689661Y-120707757D01*
X141684925Y-120659854D01*
X141675233Y-120544472D01*
X141676885Y-120144703D01*
X141675233Y-119744107D01*
X141684925Y-119633573D01*
X141689661Y-119588037D01*
X141694792Y-119547925D01*
X141700669Y-119512436D01*
X141703997Y-119496177D01*
X141707643Y-119480773D01*
X141711651Y-119466127D01*
X141716066Y-119452137D01*
X141720930Y-119438705D01*
X141726288Y-119425729D01*
X141732184Y-119413111D01*
X141738662Y-119400750D01*
X141745765Y-119388547D01*
X141753538Y-119376402D01*
X141762024Y-119364214D01*
X141771268Y-119351885D01*
X141781312Y-119339313D01*
X141792202Y-119326401D01*
X141816692Y-119299151D01*
X141845089Y-119269336D01*
X141915011Y-119198818D01*
X142232511Y-119304651D01*
G37*
G36*
X143854970Y-125019367D02*
G01*
X143881403Y-125103367D01*
X143891858Y-125139854D01*
X143900704Y-125174035D01*
X143908116Y-125206936D01*
X143914269Y-125239586D01*
X143919336Y-125273011D01*
X143923493Y-125308238D01*
X143926913Y-125346295D01*
X143929772Y-125388208D01*
X143934500Y-125487710D01*
X143939072Y-125614964D01*
X143934500Y-125733070D01*
X143932242Y-125781262D01*
X143929772Y-125823116D01*
X143928402Y-125841879D01*
X143926913Y-125859312D01*
X143925284Y-125875501D01*
X143923493Y-125890528D01*
X143921518Y-125904480D01*
X143919336Y-125917442D01*
X143916927Y-125929498D01*
X143914269Y-125940732D01*
X143911339Y-125951230D01*
X143908116Y-125961076D01*
X143904578Y-125970356D01*
X143900704Y-125979153D01*
X143896471Y-125987554D01*
X143891858Y-125995641D01*
X143886842Y-126003501D01*
X143881403Y-126011219D01*
X143875518Y-126018878D01*
X143869165Y-126026563D01*
X143862323Y-126034360D01*
X143854970Y-126042354D01*
X143838644Y-126059268D01*
X143820011Y-126077984D01*
X143750014Y-126007716D01*
X143721436Y-125978494D01*
X143696595Y-125952398D01*
X143675082Y-125928816D01*
X143656489Y-125907137D01*
X143640408Y-125886750D01*
X143626431Y-125867041D01*
X143614150Y-125847401D01*
X143603156Y-125827217D01*
X143593041Y-125805877D01*
X143583398Y-125782770D01*
X143573817Y-125757284D01*
X143563892Y-125728808D01*
X143541372Y-125660439D01*
X143489282Y-125429755D01*
X143396677Y-125019651D01*
X143820011Y-124913818D01*
X143854970Y-125019367D01*
G37*
D11*
X159817219Y-108426816D02*
X160817219Y-108760149D01*
X160817219Y-108760149D02*
X159817219Y-109093482D01*
X159817219Y-109617292D02*
X159817219Y-109807768D01*
X159817219Y-109807768D02*
X159864838Y-109903006D01*
X159864838Y-109903006D02*
X159960076Y-109998244D01*
X159960076Y-109998244D02*
X160150552Y-110045863D01*
X160150552Y-110045863D02*
X160483885Y-110045863D01*
X160483885Y-110045863D02*
X160674361Y-109998244D01*
X160674361Y-109998244D02*
X160769600Y-109903006D01*
X160769600Y-109903006D02*
X160817219Y-109807768D01*
X160817219Y-109807768D02*
X160817219Y-109617292D01*
X160817219Y-109617292D02*
X160769600Y-109522054D01*
X160769600Y-109522054D02*
X160674361Y-109426816D01*
X160674361Y-109426816D02*
X160483885Y-109379197D01*
X160483885Y-109379197D02*
X160150552Y-109379197D01*
X160150552Y-109379197D02*
X159960076Y-109426816D01*
X159960076Y-109426816D02*
X159864838Y-109522054D01*
X159864838Y-109522054D02*
X159817219Y-109617292D01*
X159817219Y-110474435D02*
X160626742Y-110474435D01*
X160626742Y-110474435D02*
X160721980Y-110522054D01*
X160721980Y-110522054D02*
X160769600Y-110569673D01*
X160769600Y-110569673D02*
X160817219Y-110664911D01*
X160817219Y-110664911D02*
X160817219Y-110855387D01*
X160817219Y-110855387D02*
X160769600Y-110950625D01*
X160769600Y-110950625D02*
X160721980Y-110998244D01*
X160721980Y-110998244D02*
X160626742Y-111045863D01*
X160626742Y-111045863D02*
X159817219Y-111045863D01*
X159817219Y-111379197D02*
X159817219Y-111950625D01*
X160817219Y-111664911D02*
X159817219Y-111664911D01*
X159817219Y-113326816D02*
X160817219Y-113660149D01*
X160817219Y-113660149D02*
X159817219Y-113993482D01*
X159817219Y-114517292D02*
X159817219Y-114707768D01*
X159817219Y-114707768D02*
X159864838Y-114803006D01*
X159864838Y-114803006D02*
X159960076Y-114898244D01*
X159960076Y-114898244D02*
X160150552Y-114945863D01*
X160150552Y-114945863D02*
X160483885Y-114945863D01*
X160483885Y-114945863D02*
X160674361Y-114898244D01*
X160674361Y-114898244D02*
X160769600Y-114803006D01*
X160769600Y-114803006D02*
X160817219Y-114707768D01*
X160817219Y-114707768D02*
X160817219Y-114517292D01*
X160817219Y-114517292D02*
X160769600Y-114422054D01*
X160769600Y-114422054D02*
X160674361Y-114326816D01*
X160674361Y-114326816D02*
X160483885Y-114279197D01*
X160483885Y-114279197D02*
X160150552Y-114279197D01*
X160150552Y-114279197D02*
X159960076Y-114326816D01*
X159960076Y-114326816D02*
X159864838Y-114422054D01*
X159864838Y-114422054D02*
X159817219Y-114517292D01*
X159817219Y-115374435D02*
X160626742Y-115374435D01*
X160626742Y-115374435D02*
X160721980Y-115422054D01*
X160721980Y-115422054D02*
X160769600Y-115469673D01*
X160769600Y-115469673D02*
X160817219Y-115564911D01*
X160817219Y-115564911D02*
X160817219Y-115755387D01*
X160817219Y-115755387D02*
X160769600Y-115850625D01*
X160769600Y-115850625D02*
X160721980Y-115898244D01*
X160721980Y-115898244D02*
X160626742Y-115945863D01*
X160626742Y-115945863D02*
X159817219Y-115945863D01*
X159817219Y-116279197D02*
X159817219Y-116850625D01*
X160817219Y-116564911D02*
X159817219Y-116564911D01*
D12*
X132819925Y-118913561D02*
X132667544Y-119446895D01*
X132667544Y-119446895D02*
X132515163Y-119065942D01*
X132515163Y-119065942D02*
X132362782Y-119446895D01*
X132362782Y-119446895D02*
X132210401Y-118913561D01*
X131905639Y-119446895D02*
X131905639Y-118646895D01*
X131562782Y-119446895D02*
X131562782Y-119027847D01*
X131562782Y-119027847D02*
X131600877Y-118951657D01*
X131600877Y-118951657D02*
X131677068Y-118913561D01*
X131677068Y-118913561D02*
X131791354Y-118913561D01*
X131791354Y-118913561D02*
X131867544Y-118951657D01*
X131867544Y-118951657D02*
X131905639Y-118989752D01*
X131067544Y-119446895D02*
X131143734Y-119408800D01*
X131143734Y-119408800D02*
X131181829Y-119370704D01*
X131181829Y-119370704D02*
X131219925Y-119294514D01*
X131219925Y-119294514D02*
X131219925Y-119065942D01*
X131219925Y-119065942D02*
X131181829Y-118989752D01*
X131181829Y-118989752D02*
X131143734Y-118951657D01*
X131143734Y-118951657D02*
X131067544Y-118913561D01*
X131067544Y-118913561D02*
X130953258Y-118913561D01*
X130953258Y-118913561D02*
X130877067Y-118951657D01*
X130877067Y-118951657D02*
X130838972Y-118989752D01*
X130838972Y-118989752D02*
X130800877Y-119065942D01*
X130800877Y-119065942D02*
X130800877Y-119294514D01*
X130800877Y-119294514D02*
X130838972Y-119370704D01*
X130838972Y-119370704D02*
X130877067Y-119408800D01*
X130877067Y-119408800D02*
X130953258Y-119446895D01*
X130953258Y-119446895D02*
X131067544Y-119446895D01*
X130115162Y-119446895D02*
X130115162Y-119027847D01*
X130115162Y-119027847D02*
X130153257Y-118951657D01*
X130153257Y-118951657D02*
X130229448Y-118913561D01*
X130229448Y-118913561D02*
X130381829Y-118913561D01*
X130381829Y-118913561D02*
X130458019Y-118951657D01*
X130115162Y-119408800D02*
X130191353Y-119446895D01*
X130191353Y-119446895D02*
X130381829Y-119446895D01*
X130381829Y-119446895D02*
X130458019Y-119408800D01*
X130458019Y-119408800D02*
X130496115Y-119332609D01*
X130496115Y-119332609D02*
X130496115Y-119256419D01*
X130496115Y-119256419D02*
X130458019Y-119180228D01*
X130458019Y-119180228D02*
X130381829Y-119142133D01*
X130381829Y-119142133D02*
X130191353Y-119142133D01*
X130191353Y-119142133D02*
X130115162Y-119104038D01*
X129734209Y-119446895D02*
X129734209Y-118913561D01*
X129734209Y-118989752D02*
X129696114Y-118951657D01*
X129696114Y-118951657D02*
X129619924Y-118913561D01*
X129619924Y-118913561D02*
X129505638Y-118913561D01*
X129505638Y-118913561D02*
X129429447Y-118951657D01*
X129429447Y-118951657D02*
X129391352Y-119027847D01*
X129391352Y-119027847D02*
X129391352Y-119446895D01*
X129391352Y-119027847D02*
X129353257Y-118951657D01*
X129353257Y-118951657D02*
X129277066Y-118913561D01*
X129277066Y-118913561D02*
X129162781Y-118913561D01*
X129162781Y-118913561D02*
X129086590Y-118951657D01*
X129086590Y-118951657D02*
X129048495Y-119027847D01*
X129048495Y-119027847D02*
X129048495Y-119446895D01*
X128667542Y-119446895D02*
X128667542Y-118913561D01*
X128667542Y-118646895D02*
X128705638Y-118684990D01*
X128705638Y-118684990D02*
X128667542Y-118723085D01*
X128667542Y-118723085D02*
X128629447Y-118684990D01*
X128629447Y-118684990D02*
X128667542Y-118646895D01*
X128667542Y-118646895D02*
X128667542Y-118723085D01*
X127791352Y-119065942D02*
X127829447Y-119027847D01*
X127829447Y-119027847D02*
X127905638Y-118989752D01*
X127905638Y-118989752D02*
X127981828Y-118989752D01*
X127981828Y-118989752D02*
X128058019Y-119027847D01*
X128058019Y-119027847D02*
X128096114Y-119065942D01*
X128096114Y-119065942D02*
X128134209Y-119142133D01*
X128134209Y-119142133D02*
X128134209Y-119218323D01*
X128134209Y-119218323D02*
X128096114Y-119294514D01*
X128096114Y-119294514D02*
X128058019Y-119332609D01*
X128058019Y-119332609D02*
X127981828Y-119370704D01*
X127981828Y-119370704D02*
X127905638Y-119370704D01*
X127905638Y-119370704D02*
X127829447Y-119332609D01*
X127829447Y-119332609D02*
X127791352Y-119294514D01*
X127791352Y-118989752D02*
X127791352Y-119294514D01*
X127791352Y-119294514D02*
X127753257Y-119332609D01*
X127753257Y-119332609D02*
X127715162Y-119332609D01*
X127715162Y-119332609D02*
X127638971Y-119294514D01*
X127638971Y-119294514D02*
X127600876Y-119218323D01*
X127600876Y-119218323D02*
X127600876Y-119027847D01*
X127600876Y-119027847D02*
X127677067Y-118913561D01*
X127677067Y-118913561D02*
X127791352Y-118837371D01*
X127791352Y-118837371D02*
X127943733Y-118799276D01*
X127943733Y-118799276D02*
X128096114Y-118837371D01*
X128096114Y-118837371D02*
X128210400Y-118913561D01*
X128210400Y-118913561D02*
X128286590Y-119027847D01*
X128286590Y-119027847D02*
X128324686Y-119180228D01*
X128324686Y-119180228D02*
X128286590Y-119332609D01*
X128286590Y-119332609D02*
X128210400Y-119446895D01*
X128210400Y-119446895D02*
X128096114Y-119523085D01*
X128096114Y-119523085D02*
X127943733Y-119561180D01*
X127943733Y-119561180D02*
X127791352Y-119523085D01*
X127791352Y-119523085D02*
X127677067Y-119446895D01*
X127258019Y-119446895D02*
X127258019Y-118913561D01*
X127258019Y-118646895D02*
X127296115Y-118684990D01*
X127296115Y-118684990D02*
X127258019Y-118723085D01*
X127258019Y-118723085D02*
X127219924Y-118684990D01*
X127219924Y-118684990D02*
X127258019Y-118646895D01*
X127258019Y-118646895D02*
X127258019Y-118723085D01*
X126877067Y-119446895D02*
X126877067Y-118646895D01*
X126534210Y-119446895D02*
X126534210Y-119027847D01*
X126534210Y-119027847D02*
X126572305Y-118951657D01*
X126572305Y-118951657D02*
X126648496Y-118913561D01*
X126648496Y-118913561D02*
X126762782Y-118913561D01*
X126762782Y-118913561D02*
X126838972Y-118951657D01*
X126838972Y-118951657D02*
X126877067Y-118989752D01*
X126191353Y-119408800D02*
X126115162Y-119446895D01*
X126115162Y-119446895D02*
X125962781Y-119446895D01*
X125962781Y-119446895D02*
X125886591Y-119408800D01*
X125886591Y-119408800D02*
X125848495Y-119332609D01*
X125848495Y-119332609D02*
X125848495Y-119294514D01*
X125848495Y-119294514D02*
X125886591Y-119218323D01*
X125886591Y-119218323D02*
X125962781Y-119180228D01*
X125962781Y-119180228D02*
X126077067Y-119180228D01*
X126077067Y-119180228D02*
X126153257Y-119142133D01*
X126153257Y-119142133D02*
X126191353Y-119065942D01*
X126191353Y-119065942D02*
X126191353Y-119027847D01*
X126191353Y-119027847D02*
X126153257Y-118951657D01*
X126153257Y-118951657D02*
X126077067Y-118913561D01*
X126077067Y-118913561D02*
X125962781Y-118913561D01*
X125962781Y-118913561D02*
X125886591Y-118951657D01*
X125162781Y-119446895D02*
X125162781Y-119027847D01*
X125162781Y-119027847D02*
X125200876Y-118951657D01*
X125200876Y-118951657D02*
X125277067Y-118913561D01*
X125277067Y-118913561D02*
X125429448Y-118913561D01*
X125429448Y-118913561D02*
X125505638Y-118951657D01*
X125162781Y-119408800D02*
X125238972Y-119446895D01*
X125238972Y-119446895D02*
X125429448Y-119446895D01*
X125429448Y-119446895D02*
X125505638Y-119408800D01*
X125505638Y-119408800D02*
X125543734Y-119332609D01*
X125543734Y-119332609D02*
X125543734Y-119256419D01*
X125543734Y-119256419D02*
X125505638Y-119180228D01*
X125505638Y-119180228D02*
X125429448Y-119142133D01*
X125429448Y-119142133D02*
X125238972Y-119142133D01*
X125238972Y-119142133D02*
X125162781Y-119104038D01*
X124781828Y-118913561D02*
X124781828Y-119446895D01*
X124781828Y-118989752D02*
X124743733Y-118951657D01*
X124743733Y-118951657D02*
X124667543Y-118913561D01*
X124667543Y-118913561D02*
X124553257Y-118913561D01*
X124553257Y-118913561D02*
X124477066Y-118951657D01*
X124477066Y-118951657D02*
X124438971Y-119027847D01*
X124438971Y-119027847D02*
X124438971Y-119446895D01*
X124058018Y-119370704D02*
X124019923Y-119408800D01*
X124019923Y-119408800D02*
X124058018Y-119446895D01*
X124058018Y-119446895D02*
X124096114Y-119408800D01*
X124096114Y-119408800D02*
X124058018Y-119370704D01*
X124058018Y-119370704D02*
X124058018Y-119446895D01*
X123753257Y-118913561D02*
X123600876Y-119446895D01*
X123600876Y-119446895D02*
X123448495Y-119065942D01*
X123448495Y-119065942D02*
X123296114Y-119446895D01*
X123296114Y-119446895D02*
X123143733Y-118913561D01*
X122953257Y-118913561D02*
X122648495Y-118913561D01*
X122838971Y-118646895D02*
X122838971Y-119332609D01*
X122838971Y-119332609D02*
X122800876Y-119408800D01*
X122800876Y-119408800D02*
X122724686Y-119446895D01*
X122724686Y-119446895D02*
X122648495Y-119446895D01*
X122496114Y-118913561D02*
X122191352Y-118913561D01*
X122381828Y-119446895D02*
X122381828Y-118761180D01*
X122381828Y-118761180D02*
X122343733Y-118684990D01*
X122343733Y-118684990D02*
X122267543Y-118646895D01*
X122267543Y-118646895D02*
X122191352Y-118646895D01*
D11*
X159864838Y-104343482D02*
X159817219Y-104248244D01*
X159817219Y-104248244D02*
X159817219Y-104105387D01*
X159817219Y-104105387D02*
X159864838Y-103962530D01*
X159864838Y-103962530D02*
X159960076Y-103867292D01*
X159960076Y-103867292D02*
X160055314Y-103819673D01*
X160055314Y-103819673D02*
X160245790Y-103772054D01*
X160245790Y-103772054D02*
X160388647Y-103772054D01*
X160388647Y-103772054D02*
X160579123Y-103819673D01*
X160579123Y-103819673D02*
X160674361Y-103867292D01*
X160674361Y-103867292D02*
X160769600Y-103962530D01*
X160769600Y-103962530D02*
X160817219Y-104105387D01*
X160817219Y-104105387D02*
X160817219Y-104200625D01*
X160817219Y-104200625D02*
X160769600Y-104343482D01*
X160769600Y-104343482D02*
X160721980Y-104391101D01*
X160721980Y-104391101D02*
X160388647Y-104391101D01*
X160388647Y-104391101D02*
X160388647Y-104200625D01*
X160817219Y-104819673D02*
X159817219Y-104819673D01*
X159817219Y-104819673D02*
X160817219Y-105391101D01*
X160817219Y-105391101D02*
X159817219Y-105391101D01*
X160817219Y-105867292D02*
X159817219Y-105867292D01*
X159817219Y-105867292D02*
X159817219Y-106105387D01*
X159817219Y-106105387D02*
X159864838Y-106248244D01*
X159864838Y-106248244D02*
X159960076Y-106343482D01*
X159960076Y-106343482D02*
X160055314Y-106391101D01*
X160055314Y-106391101D02*
X160245790Y-106438720D01*
X160245790Y-106438720D02*
X160388647Y-106438720D01*
X160388647Y-106438720D02*
X160579123Y-106391101D01*
X160579123Y-106391101D02*
X160674361Y-106343482D01*
X160674361Y-106343482D02*
X160769600Y-106248244D01*
X160769600Y-106248244D02*
X160817219Y-106105387D01*
X160817219Y-106105387D02*
X160817219Y-105867292D01*
D12*
X138677300Y-113137219D02*
X137867777Y-113137219D01*
X137867777Y-113137219D02*
X137772539Y-113089600D01*
X137772539Y-113089600D02*
X137724920Y-113041981D01*
X137724920Y-113041981D02*
X137677300Y-112946743D01*
X137677300Y-112946743D02*
X137677300Y-112756267D01*
X137677300Y-112756267D02*
X137724920Y-112661029D01*
X137724920Y-112661029D02*
X137772539Y-112613410D01*
X137772539Y-112613410D02*
X137867777Y-112565791D01*
X137867777Y-112565791D02*
X138677300Y-112565791D01*
X137724920Y-112137219D02*
X137677300Y-111994362D01*
X137677300Y-111994362D02*
X137677300Y-111756267D01*
X137677300Y-111756267D02*
X137724920Y-111661029D01*
X137724920Y-111661029D02*
X137772539Y-111613410D01*
X137772539Y-111613410D02*
X137867777Y-111565791D01*
X137867777Y-111565791D02*
X137963015Y-111565791D01*
X137963015Y-111565791D02*
X138058253Y-111613410D01*
X138058253Y-111613410D02*
X138105872Y-111661029D01*
X138105872Y-111661029D02*
X138153491Y-111756267D01*
X138153491Y-111756267D02*
X138201110Y-111946743D01*
X138201110Y-111946743D02*
X138248729Y-112041981D01*
X138248729Y-112041981D02*
X138296348Y-112089600D01*
X138296348Y-112089600D02*
X138391586Y-112137219D01*
X138391586Y-112137219D02*
X138486824Y-112137219D01*
X138486824Y-112137219D02*
X138582062Y-112089600D01*
X138582062Y-112089600D02*
X138629681Y-112041981D01*
X138629681Y-112041981D02*
X138677300Y-111946743D01*
X138677300Y-111946743D02*
X138677300Y-111708648D01*
X138677300Y-111708648D02*
X138629681Y-111565791D01*
X138201110Y-110803886D02*
X138153491Y-110661029D01*
X138153491Y-110661029D02*
X138105872Y-110613410D01*
X138105872Y-110613410D02*
X138010634Y-110565791D01*
X138010634Y-110565791D02*
X137867777Y-110565791D01*
X137867777Y-110565791D02*
X137772539Y-110613410D01*
X137772539Y-110613410D02*
X137724920Y-110661029D01*
X137724920Y-110661029D02*
X137677300Y-110756267D01*
X137677300Y-110756267D02*
X137677300Y-111137219D01*
X137677300Y-111137219D02*
X138677300Y-111137219D01*
X138677300Y-111137219D02*
X138677300Y-110803886D01*
X138677300Y-110803886D02*
X138629681Y-110708648D01*
X138629681Y-110708648D02*
X138582062Y-110661029D01*
X138582062Y-110661029D02*
X138486824Y-110613410D01*
X138486824Y-110613410D02*
X138391586Y-110613410D01*
X138391586Y-110613410D02*
X138296348Y-110661029D01*
X138296348Y-110661029D02*
X138248729Y-110708648D01*
X138248729Y-110708648D02*
X138201110Y-110803886D01*
X138201110Y-110803886D02*
X138201110Y-111137219D01*
X138058253Y-110137219D02*
X138058253Y-109375315D01*
X137772539Y-108327696D02*
X137724920Y-108375315D01*
X137724920Y-108375315D02*
X137677300Y-108518172D01*
X137677300Y-108518172D02*
X137677300Y-108613410D01*
X137677300Y-108613410D02*
X137724920Y-108756267D01*
X137724920Y-108756267D02*
X137820158Y-108851505D01*
X137820158Y-108851505D02*
X137915396Y-108899124D01*
X137915396Y-108899124D02*
X138105872Y-108946743D01*
X138105872Y-108946743D02*
X138248729Y-108946743D01*
X138248729Y-108946743D02*
X138439205Y-108899124D01*
X138439205Y-108899124D02*
X138534443Y-108851505D01*
X138534443Y-108851505D02*
X138629681Y-108756267D01*
X138629681Y-108756267D02*
X138677300Y-108613410D01*
X138677300Y-108613410D02*
X138677300Y-108518172D01*
X138677300Y-108518172D02*
X138629681Y-108375315D01*
X138629681Y-108375315D02*
X138582062Y-108327696D01*
X137677300Y-107137219D02*
X138677300Y-107137219D01*
X138677300Y-107137219D02*
X138677300Y-106756267D01*
X138677300Y-106756267D02*
X138629681Y-106661029D01*
X138629681Y-106661029D02*
X138582062Y-106613410D01*
X138582062Y-106613410D02*
X138486824Y-106565791D01*
X138486824Y-106565791D02*
X138343967Y-106565791D01*
X138343967Y-106565791D02*
X138248729Y-106613410D01*
X138248729Y-106613410D02*
X138201110Y-106661029D01*
X138201110Y-106661029D02*
X138153491Y-106756267D01*
X138153491Y-106756267D02*
X138153491Y-107137219D01*
X137677300Y-106137219D02*
X138677300Y-106137219D01*
X138677300Y-106137219D02*
X138677300Y-105899124D01*
X138677300Y-105899124D02*
X138629681Y-105756267D01*
X138629681Y-105756267D02*
X138534443Y-105661029D01*
X138534443Y-105661029D02*
X138439205Y-105613410D01*
X138439205Y-105613410D02*
X138248729Y-105565791D01*
X138248729Y-105565791D02*
X138105872Y-105565791D01*
X138105872Y-105565791D02*
X137915396Y-105613410D01*
X137915396Y-105613410D02*
X137820158Y-105661029D01*
X137820158Y-105661029D02*
X137724920Y-105756267D01*
X137724920Y-105756267D02*
X137677300Y-105899124D01*
X137677300Y-105899124D02*
X137677300Y-106137219D01*
X137724920Y-104422933D02*
X137677300Y-104280076D01*
X137677300Y-104280076D02*
X137677300Y-104041981D01*
X137677300Y-104041981D02*
X137724920Y-103946743D01*
X137724920Y-103946743D02*
X137772539Y-103899124D01*
X137772539Y-103899124D02*
X137867777Y-103851505D01*
X137867777Y-103851505D02*
X137963015Y-103851505D01*
X137963015Y-103851505D02*
X138058253Y-103899124D01*
X138058253Y-103899124D02*
X138105872Y-103946743D01*
X138105872Y-103946743D02*
X138153491Y-104041981D01*
X138153491Y-104041981D02*
X138201110Y-104232457D01*
X138201110Y-104232457D02*
X138248729Y-104327695D01*
X138248729Y-104327695D02*
X138296348Y-104375314D01*
X138296348Y-104375314D02*
X138391586Y-104422933D01*
X138391586Y-104422933D02*
X138486824Y-104422933D01*
X138486824Y-104422933D02*
X138582062Y-104375314D01*
X138582062Y-104375314D02*
X138629681Y-104327695D01*
X138629681Y-104327695D02*
X138677300Y-104232457D01*
X138677300Y-104232457D02*
X138677300Y-103994362D01*
X138677300Y-103994362D02*
X138629681Y-103851505D01*
X137677300Y-103422933D02*
X138343967Y-103422933D01*
X138677300Y-103422933D02*
X138629681Y-103470552D01*
X138629681Y-103470552D02*
X138582062Y-103422933D01*
X138582062Y-103422933D02*
X138629681Y-103375314D01*
X138629681Y-103375314D02*
X138677300Y-103422933D01*
X138677300Y-103422933D02*
X138582062Y-103422933D01*
X137677300Y-102946743D02*
X138343967Y-102946743D01*
X138248729Y-102946743D02*
X138296348Y-102899124D01*
X138296348Y-102899124D02*
X138343967Y-102803886D01*
X138343967Y-102803886D02*
X138343967Y-102661029D01*
X138343967Y-102661029D02*
X138296348Y-102565791D01*
X138296348Y-102565791D02*
X138201110Y-102518172D01*
X138201110Y-102518172D02*
X137677300Y-102518172D01*
X138201110Y-102518172D02*
X138296348Y-102470553D01*
X138296348Y-102470553D02*
X138343967Y-102375315D01*
X138343967Y-102375315D02*
X138343967Y-102232458D01*
X138343967Y-102232458D02*
X138296348Y-102137219D01*
X138296348Y-102137219D02*
X138201110Y-102089600D01*
X138201110Y-102089600D02*
X137677300Y-102089600D01*
X138343967Y-101613410D02*
X137343967Y-101613410D01*
X138296348Y-101613410D02*
X138343967Y-101518172D01*
X138343967Y-101518172D02*
X138343967Y-101327696D01*
X138343967Y-101327696D02*
X138296348Y-101232458D01*
X138296348Y-101232458D02*
X138248729Y-101184839D01*
X138248729Y-101184839D02*
X138153491Y-101137220D01*
X138153491Y-101137220D02*
X137867777Y-101137220D01*
X137867777Y-101137220D02*
X137772539Y-101184839D01*
X137772539Y-101184839D02*
X137724920Y-101232458D01*
X137724920Y-101232458D02*
X137677300Y-101327696D01*
X137677300Y-101327696D02*
X137677300Y-101518172D01*
X137677300Y-101518172D02*
X137724920Y-101613410D01*
X137677300Y-100565791D02*
X137724920Y-100661029D01*
X137724920Y-100661029D02*
X137820158Y-100708648D01*
X137820158Y-100708648D02*
X138677300Y-100708648D01*
X137724920Y-99803886D02*
X137677300Y-99899124D01*
X137677300Y-99899124D02*
X137677300Y-100089600D01*
X137677300Y-100089600D02*
X137724920Y-100184838D01*
X137724920Y-100184838D02*
X137820158Y-100232457D01*
X137820158Y-100232457D02*
X138201110Y-100232457D01*
X138201110Y-100232457D02*
X138296348Y-100184838D01*
X138296348Y-100184838D02*
X138343967Y-100089600D01*
X138343967Y-100089600D02*
X138343967Y-99899124D01*
X138343967Y-99899124D02*
X138296348Y-99803886D01*
X138296348Y-99803886D02*
X138201110Y-99756267D01*
X138201110Y-99756267D02*
X138105872Y-99756267D01*
X138105872Y-99756267D02*
X138010634Y-100232457D01*
X138677300Y-98708647D02*
X138677300Y-98137219D01*
X137677300Y-98422933D02*
X138677300Y-98422933D01*
X137677300Y-97803885D02*
X138343967Y-97803885D01*
X138153491Y-97803885D02*
X138248729Y-97756266D01*
X138248729Y-97756266D02*
X138296348Y-97708647D01*
X138296348Y-97708647D02*
X138343967Y-97613409D01*
X138343967Y-97613409D02*
X138343967Y-97518171D01*
X137677300Y-97184837D02*
X138343967Y-97184837D01*
X138677300Y-97184837D02*
X138629681Y-97232456D01*
X138629681Y-97232456D02*
X138582062Y-97184837D01*
X138582062Y-97184837D02*
X138629681Y-97137218D01*
X138629681Y-97137218D02*
X138677300Y-97184837D01*
X138677300Y-97184837D02*
X138582062Y-97184837D01*
X138343967Y-96280076D02*
X137534443Y-96280076D01*
X137534443Y-96280076D02*
X137439205Y-96327695D01*
X137439205Y-96327695D02*
X137391586Y-96375314D01*
X137391586Y-96375314D02*
X137343967Y-96470552D01*
X137343967Y-96470552D02*
X137343967Y-96613409D01*
X137343967Y-96613409D02*
X137391586Y-96708647D01*
X137724920Y-96280076D02*
X137677300Y-96375314D01*
X137677300Y-96375314D02*
X137677300Y-96565790D01*
X137677300Y-96565790D02*
X137724920Y-96661028D01*
X137724920Y-96661028D02*
X137772539Y-96708647D01*
X137772539Y-96708647D02*
X137867777Y-96756266D01*
X137867777Y-96756266D02*
X138153491Y-96756266D01*
X138153491Y-96756266D02*
X138248729Y-96708647D01*
X138248729Y-96708647D02*
X138296348Y-96661028D01*
X138296348Y-96661028D02*
X138343967Y-96565790D01*
X138343967Y-96565790D02*
X138343967Y-96375314D01*
X138343967Y-96375314D02*
X138296348Y-96280076D01*
X138343967Y-95375314D02*
X137534443Y-95375314D01*
X137534443Y-95375314D02*
X137439205Y-95422933D01*
X137439205Y-95422933D02*
X137391586Y-95470552D01*
X137391586Y-95470552D02*
X137343967Y-95565790D01*
X137343967Y-95565790D02*
X137343967Y-95708647D01*
X137343967Y-95708647D02*
X137391586Y-95803885D01*
X137724920Y-95375314D02*
X137677300Y-95470552D01*
X137677300Y-95470552D02*
X137677300Y-95661028D01*
X137677300Y-95661028D02*
X137724920Y-95756266D01*
X137724920Y-95756266D02*
X137772539Y-95803885D01*
X137772539Y-95803885D02*
X137867777Y-95851504D01*
X137867777Y-95851504D02*
X138153491Y-95851504D01*
X138153491Y-95851504D02*
X138248729Y-95803885D01*
X138248729Y-95803885D02*
X138296348Y-95756266D01*
X138296348Y-95756266D02*
X138343967Y-95661028D01*
X138343967Y-95661028D02*
X138343967Y-95470552D01*
X138343967Y-95470552D02*
X138296348Y-95375314D01*
X137724920Y-94518171D02*
X137677300Y-94613409D01*
X137677300Y-94613409D02*
X137677300Y-94803885D01*
X137677300Y-94803885D02*
X137724920Y-94899123D01*
X137724920Y-94899123D02*
X137820158Y-94946742D01*
X137820158Y-94946742D02*
X138201110Y-94946742D01*
X138201110Y-94946742D02*
X138296348Y-94899123D01*
X138296348Y-94899123D02*
X138343967Y-94803885D01*
X138343967Y-94803885D02*
X138343967Y-94613409D01*
X138343967Y-94613409D02*
X138296348Y-94518171D01*
X138296348Y-94518171D02*
X138201110Y-94470552D01*
X138201110Y-94470552D02*
X138105872Y-94470552D01*
X138105872Y-94470552D02*
X138010634Y-94946742D01*
X137677300Y-94041980D02*
X138343967Y-94041980D01*
X138153491Y-94041980D02*
X138248729Y-93994361D01*
X138248729Y-93994361D02*
X138296348Y-93946742D01*
X138296348Y-93946742D02*
X138343967Y-93851504D01*
X138343967Y-93851504D02*
X138343967Y-93756266D01*
X138201110Y-92327694D02*
X138153491Y-92184837D01*
X138153491Y-92184837D02*
X138105872Y-92137218D01*
X138105872Y-92137218D02*
X138010634Y-92089599D01*
X138010634Y-92089599D02*
X137867777Y-92089599D01*
X137867777Y-92089599D02*
X137772539Y-92137218D01*
X137772539Y-92137218D02*
X137724920Y-92184837D01*
X137724920Y-92184837D02*
X137677300Y-92280075D01*
X137677300Y-92280075D02*
X137677300Y-92661027D01*
X137677300Y-92661027D02*
X138677300Y-92661027D01*
X138677300Y-92661027D02*
X138677300Y-92327694D01*
X138677300Y-92327694D02*
X138629681Y-92232456D01*
X138629681Y-92232456D02*
X138582062Y-92184837D01*
X138582062Y-92184837D02*
X138486824Y-92137218D01*
X138486824Y-92137218D02*
X138391586Y-92137218D01*
X138391586Y-92137218D02*
X138296348Y-92184837D01*
X138296348Y-92184837D02*
X138248729Y-92232456D01*
X138248729Y-92232456D02*
X138201110Y-92327694D01*
X138201110Y-92327694D02*
X138201110Y-92661027D01*
X137677300Y-91518170D02*
X137724920Y-91613408D01*
X137724920Y-91613408D02*
X137772539Y-91661027D01*
X137772539Y-91661027D02*
X137867777Y-91708646D01*
X137867777Y-91708646D02*
X138153491Y-91708646D01*
X138153491Y-91708646D02*
X138248729Y-91661027D01*
X138248729Y-91661027D02*
X138296348Y-91613408D01*
X138296348Y-91613408D02*
X138343967Y-91518170D01*
X138343967Y-91518170D02*
X138343967Y-91375313D01*
X138343967Y-91375313D02*
X138296348Y-91280075D01*
X138296348Y-91280075D02*
X138248729Y-91232456D01*
X138248729Y-91232456D02*
X138153491Y-91184837D01*
X138153491Y-91184837D02*
X137867777Y-91184837D01*
X137867777Y-91184837D02*
X137772539Y-91232456D01*
X137772539Y-91232456D02*
X137724920Y-91280075D01*
X137724920Y-91280075D02*
X137677300Y-91375313D01*
X137677300Y-91375313D02*
X137677300Y-91518170D01*
X137677300Y-90327694D02*
X138201110Y-90327694D01*
X138201110Y-90327694D02*
X138296348Y-90375313D01*
X138296348Y-90375313D02*
X138343967Y-90470551D01*
X138343967Y-90470551D02*
X138343967Y-90661027D01*
X138343967Y-90661027D02*
X138296348Y-90756265D01*
X137724920Y-90327694D02*
X137677300Y-90422932D01*
X137677300Y-90422932D02*
X137677300Y-90661027D01*
X137677300Y-90661027D02*
X137724920Y-90756265D01*
X137724920Y-90756265D02*
X137820158Y-90803884D01*
X137820158Y-90803884D02*
X137915396Y-90803884D01*
X137915396Y-90803884D02*
X138010634Y-90756265D01*
X138010634Y-90756265D02*
X138058253Y-90661027D01*
X138058253Y-90661027D02*
X138058253Y-90422932D01*
X138058253Y-90422932D02*
X138105872Y-90327694D01*
X137677300Y-89851503D02*
X138343967Y-89851503D01*
X138153491Y-89851503D02*
X138248729Y-89803884D01*
X138248729Y-89803884D02*
X138296348Y-89756265D01*
X138296348Y-89756265D02*
X138343967Y-89661027D01*
X138343967Y-89661027D02*
X138343967Y-89565789D01*
X137677300Y-88803884D02*
X138677300Y-88803884D01*
X137724920Y-88803884D02*
X137677300Y-88899122D01*
X137677300Y-88899122D02*
X137677300Y-89089598D01*
X137677300Y-89089598D02*
X137724920Y-89184836D01*
X137724920Y-89184836D02*
X137772539Y-89232455D01*
X137772539Y-89232455D02*
X137867777Y-89280074D01*
X137867777Y-89280074D02*
X138153491Y-89280074D01*
X138153491Y-89280074D02*
X138248729Y-89232455D01*
X138248729Y-89232455D02*
X138296348Y-89184836D01*
X138296348Y-89184836D02*
X138343967Y-89089598D01*
X138343967Y-89089598D02*
X138343967Y-88899122D01*
X138343967Y-88899122D02*
X138296348Y-88803884D01*
X138677300Y-87708645D02*
X137677300Y-87375312D01*
X137677300Y-87375312D02*
X138677300Y-87041979D01*
X137677300Y-86184836D02*
X137677300Y-86756264D01*
X137677300Y-86470550D02*
X138677300Y-86470550D01*
X138677300Y-86470550D02*
X138534443Y-86565788D01*
X138534443Y-86565788D02*
X138439205Y-86661026D01*
X138439205Y-86661026D02*
X138391586Y-86756264D01*
X137772539Y-85756264D02*
X137724920Y-85708645D01*
X137724920Y-85708645D02*
X137677300Y-85756264D01*
X137677300Y-85756264D02*
X137724920Y-85803883D01*
X137724920Y-85803883D02*
X137772539Y-85756264D01*
X137772539Y-85756264D02*
X137677300Y-85756264D01*
X138677300Y-85089598D02*
X138677300Y-84994360D01*
X138677300Y-84994360D02*
X138629681Y-84899122D01*
X138629681Y-84899122D02*
X138582062Y-84851503D01*
X138582062Y-84851503D02*
X138486824Y-84803884D01*
X138486824Y-84803884D02*
X138296348Y-84756265D01*
X138296348Y-84756265D02*
X138058253Y-84756265D01*
X138058253Y-84756265D02*
X137867777Y-84803884D01*
X137867777Y-84803884D02*
X137772539Y-84851503D01*
X137772539Y-84851503D02*
X137724920Y-84899122D01*
X137724920Y-84899122D02*
X137677300Y-84994360D01*
X137677300Y-84994360D02*
X137677300Y-85089598D01*
X137677300Y-85089598D02*
X137724920Y-85184836D01*
X137724920Y-85184836D02*
X137772539Y-85232455D01*
X137772539Y-85232455D02*
X137867777Y-85280074D01*
X137867777Y-85280074D02*
X138058253Y-85327693D01*
X138058253Y-85327693D02*
X138296348Y-85327693D01*
X138296348Y-85327693D02*
X138486824Y-85280074D01*
X138486824Y-85280074D02*
X138582062Y-85232455D01*
X138582062Y-85232455D02*
X138629681Y-85184836D01*
X138629681Y-85184836D02*
X138677300Y-85089598D01*
X137067356Y-104803886D02*
X136257833Y-104803886D01*
X136257833Y-104803886D02*
X136162595Y-104756267D01*
X136162595Y-104756267D02*
X136114976Y-104708648D01*
X136114976Y-104708648D02*
X136067356Y-104613410D01*
X136067356Y-104613410D02*
X136067356Y-104422934D01*
X136067356Y-104422934D02*
X136114976Y-104327696D01*
X136114976Y-104327696D02*
X136162595Y-104280077D01*
X136162595Y-104280077D02*
X136257833Y-104232458D01*
X136257833Y-104232458D02*
X137067356Y-104232458D01*
X136734023Y-103756267D02*
X135734023Y-103756267D01*
X136686404Y-103756267D02*
X136734023Y-103661029D01*
X136734023Y-103661029D02*
X136734023Y-103470553D01*
X136734023Y-103470553D02*
X136686404Y-103375315D01*
X136686404Y-103375315D02*
X136638785Y-103327696D01*
X136638785Y-103327696D02*
X136543547Y-103280077D01*
X136543547Y-103280077D02*
X136257833Y-103280077D01*
X136257833Y-103280077D02*
X136162595Y-103327696D01*
X136162595Y-103327696D02*
X136114976Y-103375315D01*
X136114976Y-103375315D02*
X136067356Y-103470553D01*
X136067356Y-103470553D02*
X136067356Y-103661029D01*
X136067356Y-103661029D02*
X136114976Y-103756267D01*
X136734023Y-102232457D02*
X136734023Y-101851505D01*
X137067356Y-102089600D02*
X136210214Y-102089600D01*
X136210214Y-102089600D02*
X136114976Y-102041981D01*
X136114976Y-102041981D02*
X136067356Y-101946743D01*
X136067356Y-101946743D02*
X136067356Y-101851505D01*
X136067356Y-101375314D02*
X136114976Y-101470552D01*
X136114976Y-101470552D02*
X136162595Y-101518171D01*
X136162595Y-101518171D02*
X136257833Y-101565790D01*
X136257833Y-101565790D02*
X136543547Y-101565790D01*
X136543547Y-101565790D02*
X136638785Y-101518171D01*
X136638785Y-101518171D02*
X136686404Y-101470552D01*
X136686404Y-101470552D02*
X136734023Y-101375314D01*
X136734023Y-101375314D02*
X136734023Y-101232457D01*
X136734023Y-101232457D02*
X136686404Y-101137219D01*
X136686404Y-101137219D02*
X136638785Y-101089600D01*
X136638785Y-101089600D02*
X136543547Y-101041981D01*
X136543547Y-101041981D02*
X136257833Y-101041981D01*
X136257833Y-101041981D02*
X136162595Y-101089600D01*
X136162595Y-101089600D02*
X136114976Y-101137219D01*
X136114976Y-101137219D02*
X136067356Y-101232457D01*
X136067356Y-101232457D02*
X136067356Y-101375314D01*
X136972118Y-99899123D02*
X137019737Y-99851504D01*
X137019737Y-99851504D02*
X137067356Y-99756266D01*
X137067356Y-99756266D02*
X137067356Y-99518171D01*
X137067356Y-99518171D02*
X137019737Y-99422933D01*
X137019737Y-99422933D02*
X136972118Y-99375314D01*
X136972118Y-99375314D02*
X136876880Y-99327695D01*
X136876880Y-99327695D02*
X136781642Y-99327695D01*
X136781642Y-99327695D02*
X136638785Y-99375314D01*
X136638785Y-99375314D02*
X136067356Y-99946742D01*
X136067356Y-99946742D02*
X136067356Y-99327695D01*
X136638785Y-98756266D02*
X136686404Y-98851504D01*
X136686404Y-98851504D02*
X136734023Y-98899123D01*
X136734023Y-98899123D02*
X136829261Y-98946742D01*
X136829261Y-98946742D02*
X136876880Y-98946742D01*
X136876880Y-98946742D02*
X136972118Y-98899123D01*
X136972118Y-98899123D02*
X137019737Y-98851504D01*
X137019737Y-98851504D02*
X137067356Y-98756266D01*
X137067356Y-98756266D02*
X137067356Y-98565790D01*
X137067356Y-98565790D02*
X137019737Y-98470552D01*
X137019737Y-98470552D02*
X136972118Y-98422933D01*
X136972118Y-98422933D02*
X136876880Y-98375314D01*
X136876880Y-98375314D02*
X136829261Y-98375314D01*
X136829261Y-98375314D02*
X136734023Y-98422933D01*
X136734023Y-98422933D02*
X136686404Y-98470552D01*
X136686404Y-98470552D02*
X136638785Y-98565790D01*
X136638785Y-98565790D02*
X136638785Y-98756266D01*
X136638785Y-98756266D02*
X136591166Y-98851504D01*
X136591166Y-98851504D02*
X136543547Y-98899123D01*
X136543547Y-98899123D02*
X136448309Y-98946742D01*
X136448309Y-98946742D02*
X136257833Y-98946742D01*
X136257833Y-98946742D02*
X136162595Y-98899123D01*
X136162595Y-98899123D02*
X136114976Y-98851504D01*
X136114976Y-98851504D02*
X136067356Y-98756266D01*
X136067356Y-98756266D02*
X136067356Y-98565790D01*
X136067356Y-98565790D02*
X136114976Y-98470552D01*
X136114976Y-98470552D02*
X136162595Y-98422933D01*
X136162595Y-98422933D02*
X136257833Y-98375314D01*
X136257833Y-98375314D02*
X136448309Y-98375314D01*
X136448309Y-98375314D02*
X136543547Y-98422933D01*
X136543547Y-98422933D02*
X136591166Y-98470552D01*
X136591166Y-98470552D02*
X136638785Y-98565790D01*
X137067356Y-98089599D02*
X136067356Y-97756266D01*
X136067356Y-97756266D02*
X137067356Y-97422933D01*
X137067356Y-95851504D02*
X137067356Y-96327694D01*
X137067356Y-96327694D02*
X136591166Y-96375313D01*
X136591166Y-96375313D02*
X136638785Y-96327694D01*
X136638785Y-96327694D02*
X136686404Y-96232456D01*
X136686404Y-96232456D02*
X136686404Y-95994361D01*
X136686404Y-95994361D02*
X136638785Y-95899123D01*
X136638785Y-95899123D02*
X136591166Y-95851504D01*
X136591166Y-95851504D02*
X136495928Y-95803885D01*
X136495928Y-95803885D02*
X136257833Y-95803885D01*
X136257833Y-95803885D02*
X136162595Y-95851504D01*
X136162595Y-95851504D02*
X136114976Y-95899123D01*
X136114976Y-95899123D02*
X136067356Y-95994361D01*
X136067356Y-95994361D02*
X136067356Y-96232456D01*
X136067356Y-96232456D02*
X136114976Y-96327694D01*
X136114976Y-96327694D02*
X136162595Y-96375313D01*
X136353071Y-95422932D02*
X136353071Y-94946742D01*
X136067356Y-95518170D02*
X137067356Y-95184837D01*
X137067356Y-95184837D02*
X136067356Y-94851504D01*
X136734023Y-93851503D02*
X136067356Y-93661027D01*
X136067356Y-93661027D02*
X136543547Y-93470551D01*
X136543547Y-93470551D02*
X136067356Y-93280075D01*
X136067356Y-93280075D02*
X136734023Y-93089599D01*
X136067356Y-92708646D02*
X136734023Y-92708646D01*
X137067356Y-92708646D02*
X137019737Y-92756265D01*
X137019737Y-92756265D02*
X136972118Y-92708646D01*
X136972118Y-92708646D02*
X137019737Y-92661027D01*
X137019737Y-92661027D02*
X137067356Y-92708646D01*
X137067356Y-92708646D02*
X136972118Y-92708646D01*
X136734023Y-92375313D02*
X136734023Y-91994361D01*
X137067356Y-92232456D02*
X136210214Y-92232456D01*
X136210214Y-92232456D02*
X136114976Y-92184837D01*
X136114976Y-92184837D02*
X136067356Y-92089599D01*
X136067356Y-92089599D02*
X136067356Y-91994361D01*
X136067356Y-91661027D02*
X137067356Y-91661027D01*
X136067356Y-91232456D02*
X136591166Y-91232456D01*
X136591166Y-91232456D02*
X136686404Y-91280075D01*
X136686404Y-91280075D02*
X136734023Y-91375313D01*
X136734023Y-91375313D02*
X136734023Y-91518170D01*
X136734023Y-91518170D02*
X136686404Y-91613408D01*
X136686404Y-91613408D02*
X136638785Y-91661027D01*
X136067356Y-89994360D02*
X137067356Y-89994360D01*
X137067356Y-89994360D02*
X137067356Y-89613408D01*
X137067356Y-89613408D02*
X137019737Y-89518170D01*
X137019737Y-89518170D02*
X136972118Y-89470551D01*
X136972118Y-89470551D02*
X136876880Y-89422932D01*
X136876880Y-89422932D02*
X136734023Y-89422932D01*
X136734023Y-89422932D02*
X136638785Y-89470551D01*
X136638785Y-89470551D02*
X136591166Y-89518170D01*
X136591166Y-89518170D02*
X136543547Y-89613408D01*
X136543547Y-89613408D02*
X136543547Y-89994360D01*
X136067356Y-88994360D02*
X137067356Y-88994360D01*
X137067356Y-88994360D02*
X137067356Y-88756265D01*
X137067356Y-88756265D02*
X137019737Y-88613408D01*
X137019737Y-88613408D02*
X136924499Y-88518170D01*
X136924499Y-88518170D02*
X136829261Y-88470551D01*
X136829261Y-88470551D02*
X136638785Y-88422932D01*
X136638785Y-88422932D02*
X136495928Y-88422932D01*
X136495928Y-88422932D02*
X136305452Y-88470551D01*
X136305452Y-88470551D02*
X136210214Y-88518170D01*
X136210214Y-88518170D02*
X136114976Y-88613408D01*
X136114976Y-88613408D02*
X136067356Y-88756265D01*
X136067356Y-88756265D02*
X136067356Y-88994360D01*
X136591166Y-87232455D02*
X136591166Y-86899122D01*
X136067356Y-86756265D02*
X136067356Y-87232455D01*
X136067356Y-87232455D02*
X137067356Y-87232455D01*
X137067356Y-87232455D02*
X137067356Y-86756265D01*
X136067356Y-86327693D02*
X137067356Y-86327693D01*
X137067356Y-86327693D02*
X137067356Y-85946741D01*
X137067356Y-85946741D02*
X137019737Y-85851503D01*
X137019737Y-85851503D02*
X136972118Y-85803884D01*
X136972118Y-85803884D02*
X136876880Y-85756265D01*
X136876880Y-85756265D02*
X136734023Y-85756265D01*
X136734023Y-85756265D02*
X136638785Y-85803884D01*
X136638785Y-85803884D02*
X136591166Y-85851503D01*
X136591166Y-85851503D02*
X136543547Y-85946741D01*
X136543547Y-85946741D02*
X136543547Y-86327693D01*
X136067356Y-84756265D02*
X136543547Y-85089598D01*
X136067356Y-85327693D02*
X137067356Y-85327693D01*
X137067356Y-85327693D02*
X137067356Y-84946741D01*
X137067356Y-84946741D02*
X137019737Y-84851503D01*
X137019737Y-84851503D02*
X136972118Y-84803884D01*
X136972118Y-84803884D02*
X136876880Y-84756265D01*
X136876880Y-84756265D02*
X136734023Y-84756265D01*
X136734023Y-84756265D02*
X136638785Y-84803884D01*
X136638785Y-84803884D02*
X136591166Y-84851503D01*
X136591166Y-84851503D02*
X136543547Y-84946741D01*
X136543547Y-84946741D02*
X136543547Y-85327693D01*
X134457412Y-99041980D02*
X135457412Y-99041980D01*
X135457412Y-99041980D02*
X135457412Y-98661028D01*
X135457412Y-98661028D02*
X135409793Y-98565790D01*
X135409793Y-98565790D02*
X135362174Y-98518171D01*
X135362174Y-98518171D02*
X135266936Y-98470552D01*
X135266936Y-98470552D02*
X135124079Y-98470552D01*
X135124079Y-98470552D02*
X135028841Y-98518171D01*
X135028841Y-98518171D02*
X134981222Y-98565790D01*
X134981222Y-98565790D02*
X134933603Y-98661028D01*
X134933603Y-98661028D02*
X134933603Y-99041980D01*
X134457412Y-98041980D02*
X135457412Y-98041980D01*
X135457412Y-98041980D02*
X135457412Y-97803885D01*
X135457412Y-97803885D02*
X135409793Y-97661028D01*
X135409793Y-97661028D02*
X135314555Y-97565790D01*
X135314555Y-97565790D02*
X135219317Y-97518171D01*
X135219317Y-97518171D02*
X135028841Y-97470552D01*
X135028841Y-97470552D02*
X134885984Y-97470552D01*
X134885984Y-97470552D02*
X134695508Y-97518171D01*
X134695508Y-97518171D02*
X134600270Y-97565790D01*
X134600270Y-97565790D02*
X134505032Y-97661028D01*
X134505032Y-97661028D02*
X134457412Y-97803885D01*
X134457412Y-97803885D02*
X134457412Y-98041980D01*
X134457412Y-96280075D02*
X135457412Y-96280075D01*
X135457412Y-96280075D02*
X135457412Y-95899123D01*
X135457412Y-95899123D02*
X135409793Y-95803885D01*
X135409793Y-95803885D02*
X135362174Y-95756266D01*
X135362174Y-95756266D02*
X135266936Y-95708647D01*
X135266936Y-95708647D02*
X135124079Y-95708647D01*
X135124079Y-95708647D02*
X135028841Y-95756266D01*
X135028841Y-95756266D02*
X134981222Y-95803885D01*
X134981222Y-95803885D02*
X134933603Y-95899123D01*
X134933603Y-95899123D02*
X134933603Y-96280075D01*
X134457412Y-95280075D02*
X135457412Y-95280075D01*
X135457412Y-95280075D02*
X135457412Y-94899123D01*
X135457412Y-94899123D02*
X135409793Y-94803885D01*
X135409793Y-94803885D02*
X135362174Y-94756266D01*
X135362174Y-94756266D02*
X135266936Y-94708647D01*
X135266936Y-94708647D02*
X135124079Y-94708647D01*
X135124079Y-94708647D02*
X135028841Y-94756266D01*
X135028841Y-94756266D02*
X134981222Y-94803885D01*
X134981222Y-94803885D02*
X134933603Y-94899123D01*
X134933603Y-94899123D02*
X134933603Y-95280075D01*
X134505032Y-94327694D02*
X134457412Y-94184837D01*
X134457412Y-94184837D02*
X134457412Y-93946742D01*
X134457412Y-93946742D02*
X134505032Y-93851504D01*
X134505032Y-93851504D02*
X134552651Y-93803885D01*
X134552651Y-93803885D02*
X134647889Y-93756266D01*
X134647889Y-93756266D02*
X134743127Y-93756266D01*
X134743127Y-93756266D02*
X134838365Y-93803885D01*
X134838365Y-93803885D02*
X134885984Y-93851504D01*
X134885984Y-93851504D02*
X134933603Y-93946742D01*
X134933603Y-93946742D02*
X134981222Y-94137218D01*
X134981222Y-94137218D02*
X135028841Y-94232456D01*
X135028841Y-94232456D02*
X135076460Y-94280075D01*
X135076460Y-94280075D02*
X135171698Y-94327694D01*
X135171698Y-94327694D02*
X135266936Y-94327694D01*
X135266936Y-94327694D02*
X135362174Y-94280075D01*
X135362174Y-94280075D02*
X135409793Y-94232456D01*
X135409793Y-94232456D02*
X135457412Y-94137218D01*
X135457412Y-94137218D02*
X135457412Y-93899123D01*
X135457412Y-93899123D02*
X135409793Y-93756266D01*
X134505032Y-92137218D02*
X134457412Y-92232456D01*
X134457412Y-92232456D02*
X134457412Y-92422932D01*
X134457412Y-92422932D02*
X134505032Y-92518170D01*
X134505032Y-92518170D02*
X134552651Y-92565789D01*
X134552651Y-92565789D02*
X134647889Y-92613408D01*
X134647889Y-92613408D02*
X134933603Y-92613408D01*
X134933603Y-92613408D02*
X135028841Y-92565789D01*
X135028841Y-92565789D02*
X135076460Y-92518170D01*
X135076460Y-92518170D02*
X135124079Y-92422932D01*
X135124079Y-92422932D02*
X135124079Y-92232456D01*
X135124079Y-92232456D02*
X135076460Y-92137218D01*
X134457412Y-91565789D02*
X134505032Y-91661027D01*
X134505032Y-91661027D02*
X134552651Y-91708646D01*
X134552651Y-91708646D02*
X134647889Y-91756265D01*
X134647889Y-91756265D02*
X134933603Y-91756265D01*
X134933603Y-91756265D02*
X135028841Y-91708646D01*
X135028841Y-91708646D02*
X135076460Y-91661027D01*
X135076460Y-91661027D02*
X135124079Y-91565789D01*
X135124079Y-91565789D02*
X135124079Y-91422932D01*
X135124079Y-91422932D02*
X135076460Y-91327694D01*
X135076460Y-91327694D02*
X135028841Y-91280075D01*
X135028841Y-91280075D02*
X134933603Y-91232456D01*
X134933603Y-91232456D02*
X134647889Y-91232456D01*
X134647889Y-91232456D02*
X134552651Y-91280075D01*
X134552651Y-91280075D02*
X134505032Y-91327694D01*
X134505032Y-91327694D02*
X134457412Y-91422932D01*
X134457412Y-91422932D02*
X134457412Y-91565789D01*
X134457412Y-90803884D02*
X135124079Y-90803884D01*
X135028841Y-90803884D02*
X135076460Y-90756265D01*
X135076460Y-90756265D02*
X135124079Y-90661027D01*
X135124079Y-90661027D02*
X135124079Y-90518170D01*
X135124079Y-90518170D02*
X135076460Y-90422932D01*
X135076460Y-90422932D02*
X134981222Y-90375313D01*
X134981222Y-90375313D02*
X134457412Y-90375313D01*
X134981222Y-90375313D02*
X135076460Y-90327694D01*
X135076460Y-90327694D02*
X135124079Y-90232456D01*
X135124079Y-90232456D02*
X135124079Y-90089599D01*
X135124079Y-90089599D02*
X135076460Y-89994360D01*
X135076460Y-89994360D02*
X134981222Y-89946741D01*
X134981222Y-89946741D02*
X134457412Y-89946741D01*
X135124079Y-89470551D02*
X134124079Y-89470551D01*
X135076460Y-89470551D02*
X135124079Y-89375313D01*
X135124079Y-89375313D02*
X135124079Y-89184837D01*
X135124079Y-89184837D02*
X135076460Y-89089599D01*
X135076460Y-89089599D02*
X135028841Y-89041980D01*
X135028841Y-89041980D02*
X134933603Y-88994361D01*
X134933603Y-88994361D02*
X134647889Y-88994361D01*
X134647889Y-88994361D02*
X134552651Y-89041980D01*
X134552651Y-89041980D02*
X134505032Y-89089599D01*
X134505032Y-89089599D02*
X134457412Y-89184837D01*
X134457412Y-89184837D02*
X134457412Y-89375313D01*
X134457412Y-89375313D02*
X134505032Y-89470551D01*
X134457412Y-88137218D02*
X134981222Y-88137218D01*
X134981222Y-88137218D02*
X135076460Y-88184837D01*
X135076460Y-88184837D02*
X135124079Y-88280075D01*
X135124079Y-88280075D02*
X135124079Y-88470551D01*
X135124079Y-88470551D02*
X135076460Y-88565789D01*
X134505032Y-88137218D02*
X134457412Y-88232456D01*
X134457412Y-88232456D02*
X134457412Y-88470551D01*
X134457412Y-88470551D02*
X134505032Y-88565789D01*
X134505032Y-88565789D02*
X134600270Y-88613408D01*
X134600270Y-88613408D02*
X134695508Y-88613408D01*
X134695508Y-88613408D02*
X134790746Y-88565789D01*
X134790746Y-88565789D02*
X134838365Y-88470551D01*
X134838365Y-88470551D02*
X134838365Y-88232456D01*
X134838365Y-88232456D02*
X134885984Y-88137218D01*
X135124079Y-87803884D02*
X135124079Y-87422932D01*
X135457412Y-87661027D02*
X134600270Y-87661027D01*
X134600270Y-87661027D02*
X134505032Y-87613408D01*
X134505032Y-87613408D02*
X134457412Y-87518170D01*
X134457412Y-87518170D02*
X134457412Y-87422932D01*
X134457412Y-87089598D02*
X135124079Y-87089598D01*
X135457412Y-87089598D02*
X135409793Y-87137217D01*
X135409793Y-87137217D02*
X135362174Y-87089598D01*
X135362174Y-87089598D02*
X135409793Y-87041979D01*
X135409793Y-87041979D02*
X135457412Y-87089598D01*
X135457412Y-87089598D02*
X135362174Y-87089598D01*
X134457412Y-86613408D02*
X135457412Y-86613408D01*
X135076460Y-86613408D02*
X135124079Y-86518170D01*
X135124079Y-86518170D02*
X135124079Y-86327694D01*
X135124079Y-86327694D02*
X135076460Y-86232456D01*
X135076460Y-86232456D02*
X135028841Y-86184837D01*
X135028841Y-86184837D02*
X134933603Y-86137218D01*
X134933603Y-86137218D02*
X134647889Y-86137218D01*
X134647889Y-86137218D02*
X134552651Y-86184837D01*
X134552651Y-86184837D02*
X134505032Y-86232456D01*
X134505032Y-86232456D02*
X134457412Y-86327694D01*
X134457412Y-86327694D02*
X134457412Y-86518170D01*
X134457412Y-86518170D02*
X134505032Y-86613408D01*
X134457412Y-85565789D02*
X134505032Y-85661027D01*
X134505032Y-85661027D02*
X134600270Y-85708646D01*
X134600270Y-85708646D02*
X135457412Y-85708646D01*
X134505032Y-84803884D02*
X134457412Y-84899122D01*
X134457412Y-84899122D02*
X134457412Y-85089598D01*
X134457412Y-85089598D02*
X134505032Y-85184836D01*
X134505032Y-85184836D02*
X134600270Y-85232455D01*
X134600270Y-85232455D02*
X134981222Y-85232455D01*
X134981222Y-85232455D02*
X135076460Y-85184836D01*
X135076460Y-85184836D02*
X135124079Y-85089598D01*
X135124079Y-85089598D02*
X135124079Y-84899122D01*
X135124079Y-84899122D02*
X135076460Y-84803884D01*
X135076460Y-84803884D02*
X134981222Y-84756265D01*
X134981222Y-84756265D02*
X134885984Y-84756265D01*
X134885984Y-84756265D02*
X134790746Y-85232455D01*
X133847468Y-94756267D02*
X133847468Y-94946743D01*
X133847468Y-94946743D02*
X133799849Y-95041981D01*
X133799849Y-95041981D02*
X133752230Y-95089600D01*
X133752230Y-95089600D02*
X133609373Y-95184838D01*
X133609373Y-95184838D02*
X133418897Y-95232457D01*
X133418897Y-95232457D02*
X133037945Y-95232457D01*
X133037945Y-95232457D02*
X132942707Y-95184838D01*
X132942707Y-95184838D02*
X132895088Y-95137219D01*
X132895088Y-95137219D02*
X132847468Y-95041981D01*
X132847468Y-95041981D02*
X132847468Y-94851505D01*
X132847468Y-94851505D02*
X132895088Y-94756267D01*
X132895088Y-94756267D02*
X132942707Y-94708648D01*
X132942707Y-94708648D02*
X133037945Y-94661029D01*
X133037945Y-94661029D02*
X133276040Y-94661029D01*
X133276040Y-94661029D02*
X133371278Y-94708648D01*
X133371278Y-94708648D02*
X133418897Y-94756267D01*
X133418897Y-94756267D02*
X133466516Y-94851505D01*
X133466516Y-94851505D02*
X133466516Y-95041981D01*
X133466516Y-95041981D02*
X133418897Y-95137219D01*
X133418897Y-95137219D02*
X133371278Y-95184838D01*
X133371278Y-95184838D02*
X133276040Y-95232457D01*
X133228421Y-94232457D02*
X133228421Y-93470553D01*
X132847468Y-92851505D02*
X132895088Y-92946743D01*
X132895088Y-92946743D02*
X132990326Y-92994362D01*
X132990326Y-92994362D02*
X133847468Y-92994362D01*
X132847468Y-92041981D02*
X133371278Y-92041981D01*
X133371278Y-92041981D02*
X133466516Y-92089600D01*
X133466516Y-92089600D02*
X133514135Y-92184838D01*
X133514135Y-92184838D02*
X133514135Y-92375314D01*
X133514135Y-92375314D02*
X133466516Y-92470552D01*
X132895088Y-92041981D02*
X132847468Y-92137219D01*
X132847468Y-92137219D02*
X132847468Y-92375314D01*
X132847468Y-92375314D02*
X132895088Y-92470552D01*
X132895088Y-92470552D02*
X132990326Y-92518171D01*
X132990326Y-92518171D02*
X133085564Y-92518171D01*
X133085564Y-92518171D02*
X133180802Y-92470552D01*
X133180802Y-92470552D02*
X133228421Y-92375314D01*
X133228421Y-92375314D02*
X133228421Y-92137219D01*
X133228421Y-92137219D02*
X133276040Y-92041981D01*
X133514135Y-91661028D02*
X132847468Y-91422933D01*
X133514135Y-91184838D02*
X132847468Y-91422933D01*
X132847468Y-91422933D02*
X132609373Y-91518171D01*
X132609373Y-91518171D02*
X132561754Y-91565790D01*
X132561754Y-91565790D02*
X132514135Y-91661028D01*
X132895088Y-90422933D02*
X132847468Y-90518171D01*
X132847468Y-90518171D02*
X132847468Y-90708647D01*
X132847468Y-90708647D02*
X132895088Y-90803885D01*
X132895088Y-90803885D02*
X132990326Y-90851504D01*
X132990326Y-90851504D02*
X133371278Y-90851504D01*
X133371278Y-90851504D02*
X133466516Y-90803885D01*
X133466516Y-90803885D02*
X133514135Y-90708647D01*
X133514135Y-90708647D02*
X133514135Y-90518171D01*
X133514135Y-90518171D02*
X133466516Y-90422933D01*
X133466516Y-90422933D02*
X133371278Y-90375314D01*
X133371278Y-90375314D02*
X133276040Y-90375314D01*
X133276040Y-90375314D02*
X133180802Y-90851504D01*
X132847468Y-89946742D02*
X133514135Y-89946742D01*
X133323659Y-89946742D02*
X133418897Y-89899123D01*
X133418897Y-89899123D02*
X133466516Y-89851504D01*
X133466516Y-89851504D02*
X133514135Y-89756266D01*
X133514135Y-89756266D02*
X133514135Y-89661028D01*
X132847468Y-88565789D02*
X133847468Y-88565789D01*
X133466516Y-88565789D02*
X133514135Y-88470551D01*
X133514135Y-88470551D02*
X133514135Y-88280075D01*
X133514135Y-88280075D02*
X133466516Y-88184837D01*
X133466516Y-88184837D02*
X133418897Y-88137218D01*
X133418897Y-88137218D02*
X133323659Y-88089599D01*
X133323659Y-88089599D02*
X133037945Y-88089599D01*
X133037945Y-88089599D02*
X132942707Y-88137218D01*
X132942707Y-88137218D02*
X132895088Y-88184837D01*
X132895088Y-88184837D02*
X132847468Y-88280075D01*
X132847468Y-88280075D02*
X132847468Y-88470551D01*
X132847468Y-88470551D02*
X132895088Y-88565789D01*
X132847468Y-87518170D02*
X132895088Y-87613408D01*
X132895088Y-87613408D02*
X132942707Y-87661027D01*
X132942707Y-87661027D02*
X133037945Y-87708646D01*
X133037945Y-87708646D02*
X133323659Y-87708646D01*
X133323659Y-87708646D02*
X133418897Y-87661027D01*
X133418897Y-87661027D02*
X133466516Y-87613408D01*
X133466516Y-87613408D02*
X133514135Y-87518170D01*
X133514135Y-87518170D02*
X133514135Y-87375313D01*
X133514135Y-87375313D02*
X133466516Y-87280075D01*
X133466516Y-87280075D02*
X133418897Y-87232456D01*
X133418897Y-87232456D02*
X133323659Y-87184837D01*
X133323659Y-87184837D02*
X133037945Y-87184837D01*
X133037945Y-87184837D02*
X132942707Y-87232456D01*
X132942707Y-87232456D02*
X132895088Y-87280075D01*
X132895088Y-87280075D02*
X132847468Y-87375313D01*
X132847468Y-87375313D02*
X132847468Y-87518170D01*
X132847468Y-86327694D02*
X133371278Y-86327694D01*
X133371278Y-86327694D02*
X133466516Y-86375313D01*
X133466516Y-86375313D02*
X133514135Y-86470551D01*
X133514135Y-86470551D02*
X133514135Y-86661027D01*
X133514135Y-86661027D02*
X133466516Y-86756265D01*
X132895088Y-86327694D02*
X132847468Y-86422932D01*
X132847468Y-86422932D02*
X132847468Y-86661027D01*
X132847468Y-86661027D02*
X132895088Y-86756265D01*
X132895088Y-86756265D02*
X132990326Y-86803884D01*
X132990326Y-86803884D02*
X133085564Y-86803884D01*
X133085564Y-86803884D02*
X133180802Y-86756265D01*
X133180802Y-86756265D02*
X133228421Y-86661027D01*
X133228421Y-86661027D02*
X133228421Y-86422932D01*
X133228421Y-86422932D02*
X133276040Y-86327694D01*
X132847468Y-85851503D02*
X133514135Y-85851503D01*
X133323659Y-85851503D02*
X133418897Y-85803884D01*
X133418897Y-85803884D02*
X133466516Y-85756265D01*
X133466516Y-85756265D02*
X133514135Y-85661027D01*
X133514135Y-85661027D02*
X133514135Y-85565789D01*
X132847468Y-84803884D02*
X133847468Y-84803884D01*
X132895088Y-84803884D02*
X132847468Y-84899122D01*
X132847468Y-84899122D02*
X132847468Y-85089598D01*
X132847468Y-85089598D02*
X132895088Y-85184836D01*
X132895088Y-85184836D02*
X132942707Y-85232455D01*
X132942707Y-85232455D02*
X133037945Y-85280074D01*
X133037945Y-85280074D02*
X133323659Y-85280074D01*
X133323659Y-85280074D02*
X133418897Y-85232455D01*
X133418897Y-85232455D02*
X133466516Y-85184836D01*
X133466516Y-85184836D02*
X133514135Y-85089598D01*
X133514135Y-85089598D02*
X133514135Y-84899122D01*
X133514135Y-84899122D02*
X133466516Y-84803884D01*
X129627580Y-93184835D02*
X130627580Y-93184835D01*
X129627580Y-92756264D02*
X130151390Y-92756264D01*
X130151390Y-92756264D02*
X130246628Y-92803883D01*
X130246628Y-92803883D02*
X130294247Y-92899121D01*
X130294247Y-92899121D02*
X130294247Y-93041978D01*
X130294247Y-93041978D02*
X130246628Y-93137216D01*
X130246628Y-93137216D02*
X130199009Y-93184835D01*
X129627580Y-92280073D02*
X130294247Y-92280073D01*
X130627580Y-92280073D02*
X130579961Y-92327692D01*
X130579961Y-92327692D02*
X130532342Y-92280073D01*
X130532342Y-92280073D02*
X130579961Y-92232454D01*
X130579961Y-92232454D02*
X130627580Y-92280073D01*
X130627580Y-92280073D02*
X130532342Y-92280073D01*
X130103771Y-91184836D02*
X130151390Y-91232455D01*
X130151390Y-91232455D02*
X130199009Y-91327693D01*
X130199009Y-91327693D02*
X130199009Y-91422931D01*
X130199009Y-91422931D02*
X130151390Y-91518169D01*
X130151390Y-91518169D02*
X130103771Y-91565788D01*
X130103771Y-91565788D02*
X130008533Y-91613407D01*
X130008533Y-91613407D02*
X129913295Y-91613407D01*
X129913295Y-91613407D02*
X129818057Y-91565788D01*
X129818057Y-91565788D02*
X129770438Y-91518169D01*
X129770438Y-91518169D02*
X129722819Y-91422931D01*
X129722819Y-91422931D02*
X129722819Y-91327693D01*
X129722819Y-91327693D02*
X129770438Y-91232455D01*
X129770438Y-91232455D02*
X129818057Y-91184836D01*
X130199009Y-91184836D02*
X129818057Y-91184836D01*
X129818057Y-91184836D02*
X129770438Y-91137217D01*
X129770438Y-91137217D02*
X129770438Y-91089598D01*
X129770438Y-91089598D02*
X129818057Y-90994359D01*
X129818057Y-90994359D02*
X129913295Y-90946740D01*
X129913295Y-90946740D02*
X130151390Y-90946740D01*
X130151390Y-90946740D02*
X130294247Y-91041979D01*
X130294247Y-91041979D02*
X130389485Y-91184836D01*
X130389485Y-91184836D02*
X130437104Y-91375312D01*
X130437104Y-91375312D02*
X130389485Y-91565788D01*
X130389485Y-91565788D02*
X130294247Y-91708645D01*
X130294247Y-91708645D02*
X130151390Y-91803883D01*
X130151390Y-91803883D02*
X129960914Y-91851502D01*
X129960914Y-91851502D02*
X129770438Y-91803883D01*
X129770438Y-91803883D02*
X129627580Y-91708645D01*
X129627580Y-91708645D02*
X129532342Y-91565788D01*
X129532342Y-91565788D02*
X129484723Y-91375312D01*
X129484723Y-91375312D02*
X129532342Y-91184836D01*
X129532342Y-91184836D02*
X129627580Y-91041979D01*
X129627580Y-90518169D02*
X130294247Y-90518169D01*
X130627580Y-90518169D02*
X130579961Y-90565788D01*
X130579961Y-90565788D02*
X130532342Y-90518169D01*
X130532342Y-90518169D02*
X130579961Y-90470550D01*
X130579961Y-90470550D02*
X130627580Y-90518169D01*
X130627580Y-90518169D02*
X130532342Y-90518169D01*
X129627580Y-90041979D02*
X130627580Y-90041979D01*
X129627580Y-89613408D02*
X130151390Y-89613408D01*
X130151390Y-89613408D02*
X130246628Y-89661027D01*
X130246628Y-89661027D02*
X130294247Y-89756265D01*
X130294247Y-89756265D02*
X130294247Y-89899122D01*
X130294247Y-89899122D02*
X130246628Y-89994360D01*
X130246628Y-89994360D02*
X130199009Y-90041979D01*
X129675200Y-89184836D02*
X129627580Y-89089598D01*
X129627580Y-89089598D02*
X129627580Y-88899122D01*
X129627580Y-88899122D02*
X129675200Y-88803884D01*
X129675200Y-88803884D02*
X129770438Y-88756265D01*
X129770438Y-88756265D02*
X129818057Y-88756265D01*
X129818057Y-88756265D02*
X129913295Y-88803884D01*
X129913295Y-88803884D02*
X129960914Y-88899122D01*
X129960914Y-88899122D02*
X129960914Y-89041979D01*
X129960914Y-89041979D02*
X130008533Y-89137217D01*
X130008533Y-89137217D02*
X130103771Y-89184836D01*
X130103771Y-89184836D02*
X130151390Y-89184836D01*
X130151390Y-89184836D02*
X130246628Y-89137217D01*
X130246628Y-89137217D02*
X130294247Y-89041979D01*
X130294247Y-89041979D02*
X130294247Y-88899122D01*
X130294247Y-88899122D02*
X130246628Y-88803884D01*
X129627580Y-87899122D02*
X130151390Y-87899122D01*
X130151390Y-87899122D02*
X130246628Y-87946741D01*
X130246628Y-87946741D02*
X130294247Y-88041979D01*
X130294247Y-88041979D02*
X130294247Y-88232455D01*
X130294247Y-88232455D02*
X130246628Y-88327693D01*
X129675200Y-87899122D02*
X129627580Y-87994360D01*
X129627580Y-87994360D02*
X129627580Y-88232455D01*
X129627580Y-88232455D02*
X129675200Y-88327693D01*
X129675200Y-88327693D02*
X129770438Y-88375312D01*
X129770438Y-88375312D02*
X129865676Y-88375312D01*
X129865676Y-88375312D02*
X129960914Y-88327693D01*
X129960914Y-88327693D02*
X130008533Y-88232455D01*
X130008533Y-88232455D02*
X130008533Y-87994360D01*
X130008533Y-87994360D02*
X130056152Y-87899122D01*
X130294247Y-87422931D02*
X129627580Y-87422931D01*
X130199009Y-87422931D02*
X130246628Y-87375312D01*
X130246628Y-87375312D02*
X130294247Y-87280074D01*
X130294247Y-87280074D02*
X130294247Y-87137217D01*
X130294247Y-87137217D02*
X130246628Y-87041979D01*
X130246628Y-87041979D02*
X130151390Y-86994360D01*
X130151390Y-86994360D02*
X129627580Y-86994360D01*
X129722819Y-86518169D02*
X129675200Y-86470550D01*
X129675200Y-86470550D02*
X129627580Y-86518169D01*
X129627580Y-86518169D02*
X129675200Y-86565788D01*
X129675200Y-86565788D02*
X129722819Y-86518169D01*
X129722819Y-86518169D02*
X129627580Y-86518169D01*
X129675200Y-85613408D02*
X129627580Y-85708646D01*
X129627580Y-85708646D02*
X129627580Y-85899122D01*
X129627580Y-85899122D02*
X129675200Y-85994360D01*
X129675200Y-85994360D02*
X129722819Y-86041979D01*
X129722819Y-86041979D02*
X129818057Y-86089598D01*
X129818057Y-86089598D02*
X130103771Y-86089598D01*
X130103771Y-86089598D02*
X130199009Y-86041979D01*
X130199009Y-86041979D02*
X130246628Y-85994360D01*
X130246628Y-85994360D02*
X130294247Y-85899122D01*
X130294247Y-85899122D02*
X130294247Y-85708646D01*
X130294247Y-85708646D02*
X130246628Y-85613408D01*
X129675200Y-84756265D02*
X129627580Y-84851503D01*
X129627580Y-84851503D02*
X129627580Y-85041979D01*
X129627580Y-85041979D02*
X129675200Y-85137217D01*
X129675200Y-85137217D02*
X129722819Y-85184836D01*
X129722819Y-85184836D02*
X129818057Y-85232455D01*
X129818057Y-85232455D02*
X130103771Y-85232455D01*
X130103771Y-85232455D02*
X130199009Y-85184836D01*
X130199009Y-85184836D02*
X130246628Y-85137217D01*
X130246628Y-85137217D02*
X130294247Y-85041979D01*
X130294247Y-85041979D02*
X130294247Y-84851503D01*
X130294247Y-84851503D02*
X130246628Y-84756265D01*
D13*
X140035380Y-97747431D02*
X141035380Y-97747431D01*
X140035380Y-97271241D02*
X141035380Y-97271241D01*
X140035380Y-96795051D02*
X141035380Y-96795051D01*
X140035380Y-96223623D02*
X140606809Y-96652194D01*
X141035380Y-96223623D02*
X140463952Y-96795051D01*
X140083000Y-95842670D02*
X140035380Y-95699813D01*
X140035380Y-95699813D02*
X140035380Y-95461718D01*
X140035380Y-95461718D02*
X140083000Y-95366480D01*
X140083000Y-95366480D02*
X140130619Y-95318861D01*
X140130619Y-95318861D02*
X140225857Y-95271242D01*
X140225857Y-95271242D02*
X140321095Y-95271242D01*
X140321095Y-95271242D02*
X140416333Y-95318861D01*
X140416333Y-95318861D02*
X140463952Y-95366480D01*
X140463952Y-95366480D02*
X140511571Y-95461718D01*
X140511571Y-95461718D02*
X140559190Y-95652194D01*
X140559190Y-95652194D02*
X140606809Y-95747432D01*
X140606809Y-95747432D02*
X140654428Y-95795051D01*
X140654428Y-95795051D02*
X140749666Y-95842670D01*
X140749666Y-95842670D02*
X140844904Y-95842670D01*
X140844904Y-95842670D02*
X140940142Y-95795051D01*
X140940142Y-95795051D02*
X140987761Y-95747432D01*
X140987761Y-95747432D02*
X141035380Y-95652194D01*
X141035380Y-95652194D02*
X141035380Y-95414099D01*
X141035380Y-95414099D02*
X140987761Y-95271242D01*
X141035380Y-94223622D02*
X141035380Y-93652194D01*
X140035380Y-93937908D02*
X141035380Y-93937908D01*
X140083000Y-92937908D02*
X140035380Y-93033146D01*
X140035380Y-93033146D02*
X140035380Y-93223622D01*
X140035380Y-93223622D02*
X140083000Y-93318860D01*
X140083000Y-93318860D02*
X140178238Y-93366479D01*
X140178238Y-93366479D02*
X140559190Y-93366479D01*
X140559190Y-93366479D02*
X140654428Y-93318860D01*
X140654428Y-93318860D02*
X140702047Y-93223622D01*
X140702047Y-93223622D02*
X140702047Y-93033146D01*
X140702047Y-93033146D02*
X140654428Y-92937908D01*
X140654428Y-92937908D02*
X140559190Y-92890289D01*
X140559190Y-92890289D02*
X140463952Y-92890289D01*
X140463952Y-92890289D02*
X140368714Y-93366479D01*
X140083000Y-92033146D02*
X140035380Y-92128384D01*
X140035380Y-92128384D02*
X140035380Y-92318860D01*
X140035380Y-92318860D02*
X140083000Y-92414098D01*
X140083000Y-92414098D02*
X140130619Y-92461717D01*
X140130619Y-92461717D02*
X140225857Y-92509336D01*
X140225857Y-92509336D02*
X140511571Y-92509336D01*
X140511571Y-92509336D02*
X140606809Y-92461717D01*
X140606809Y-92461717D02*
X140654428Y-92414098D01*
X140654428Y-92414098D02*
X140702047Y-92318860D01*
X140702047Y-92318860D02*
X140702047Y-92128384D01*
X140702047Y-92128384D02*
X140654428Y-92033146D01*
X140035380Y-91604574D02*
X141035380Y-91604574D01*
X140035380Y-91176003D02*
X140559190Y-91176003D01*
X140559190Y-91176003D02*
X140654428Y-91223622D01*
X140654428Y-91223622D02*
X140702047Y-91318860D01*
X140702047Y-91318860D02*
X140702047Y-91461717D01*
X140702047Y-91461717D02*
X140654428Y-91556955D01*
X140654428Y-91556955D02*
X140606809Y-91604574D01*
X140702047Y-90699812D02*
X140035380Y-90699812D01*
X140606809Y-90699812D02*
X140654428Y-90652193D01*
X140654428Y-90652193D02*
X140702047Y-90556955D01*
X140702047Y-90556955D02*
X140702047Y-90414098D01*
X140702047Y-90414098D02*
X140654428Y-90318860D01*
X140654428Y-90318860D02*
X140559190Y-90271241D01*
X140559190Y-90271241D02*
X140035380Y-90271241D01*
X140035380Y-89652193D02*
X140083000Y-89747431D01*
X140083000Y-89747431D02*
X140130619Y-89795050D01*
X140130619Y-89795050D02*
X140225857Y-89842669D01*
X140225857Y-89842669D02*
X140511571Y-89842669D01*
X140511571Y-89842669D02*
X140606809Y-89795050D01*
X140606809Y-89795050D02*
X140654428Y-89747431D01*
X140654428Y-89747431D02*
X140702047Y-89652193D01*
X140702047Y-89652193D02*
X140702047Y-89509336D01*
X140702047Y-89509336D02*
X140654428Y-89414098D01*
X140654428Y-89414098D02*
X140606809Y-89366479D01*
X140606809Y-89366479D02*
X140511571Y-89318860D01*
X140511571Y-89318860D02*
X140225857Y-89318860D01*
X140225857Y-89318860D02*
X140130619Y-89366479D01*
X140130619Y-89366479D02*
X140083000Y-89414098D01*
X140083000Y-89414098D02*
X140035380Y-89509336D01*
X140035380Y-89509336D02*
X140035380Y-89652193D01*
X140035380Y-88747431D02*
X140083000Y-88842669D01*
X140083000Y-88842669D02*
X140178238Y-88890288D01*
X140178238Y-88890288D02*
X141035380Y-88890288D01*
X140035380Y-88223621D02*
X140083000Y-88318859D01*
X140083000Y-88318859D02*
X140130619Y-88366478D01*
X140130619Y-88366478D02*
X140225857Y-88414097D01*
X140225857Y-88414097D02*
X140511571Y-88414097D01*
X140511571Y-88414097D02*
X140606809Y-88366478D01*
X140606809Y-88366478D02*
X140654428Y-88318859D01*
X140654428Y-88318859D02*
X140702047Y-88223621D01*
X140702047Y-88223621D02*
X140702047Y-88080764D01*
X140702047Y-88080764D02*
X140654428Y-87985526D01*
X140654428Y-87985526D02*
X140606809Y-87937907D01*
X140606809Y-87937907D02*
X140511571Y-87890288D01*
X140511571Y-87890288D02*
X140225857Y-87890288D01*
X140225857Y-87890288D02*
X140130619Y-87937907D01*
X140130619Y-87937907D02*
X140083000Y-87985526D01*
X140083000Y-87985526D02*
X140035380Y-88080764D01*
X140035380Y-88080764D02*
X140035380Y-88223621D01*
X140702047Y-87033145D02*
X139892523Y-87033145D01*
X139892523Y-87033145D02*
X139797285Y-87080764D01*
X139797285Y-87080764D02*
X139749666Y-87128383D01*
X139749666Y-87128383D02*
X139702047Y-87223621D01*
X139702047Y-87223621D02*
X139702047Y-87366478D01*
X139702047Y-87366478D02*
X139749666Y-87461716D01*
X140083000Y-87033145D02*
X140035380Y-87128383D01*
X140035380Y-87128383D02*
X140035380Y-87318859D01*
X140035380Y-87318859D02*
X140083000Y-87414097D01*
X140083000Y-87414097D02*
X140130619Y-87461716D01*
X140130619Y-87461716D02*
X140225857Y-87509335D01*
X140225857Y-87509335D02*
X140511571Y-87509335D01*
X140511571Y-87509335D02*
X140606809Y-87461716D01*
X140606809Y-87461716D02*
X140654428Y-87414097D01*
X140654428Y-87414097D02*
X140702047Y-87318859D01*
X140702047Y-87318859D02*
X140702047Y-87128383D01*
X140702047Y-87128383D02*
X140654428Y-87033145D01*
X140035380Y-86556954D02*
X140702047Y-86556954D01*
X141035380Y-86556954D02*
X140987761Y-86604573D01*
X140987761Y-86604573D02*
X140940142Y-86556954D01*
X140940142Y-86556954D02*
X140987761Y-86509335D01*
X140987761Y-86509335D02*
X141035380Y-86556954D01*
X141035380Y-86556954D02*
X140940142Y-86556954D01*
X140083000Y-85699812D02*
X140035380Y-85795050D01*
X140035380Y-85795050D02*
X140035380Y-85985526D01*
X140035380Y-85985526D02*
X140083000Y-86080764D01*
X140083000Y-86080764D02*
X140178238Y-86128383D01*
X140178238Y-86128383D02*
X140559190Y-86128383D01*
X140559190Y-86128383D02*
X140654428Y-86080764D01*
X140654428Y-86080764D02*
X140702047Y-85985526D01*
X140702047Y-85985526D02*
X140702047Y-85795050D01*
X140702047Y-85795050D02*
X140654428Y-85699812D01*
X140654428Y-85699812D02*
X140559190Y-85652193D01*
X140559190Y-85652193D02*
X140463952Y-85652193D01*
X140463952Y-85652193D02*
X140368714Y-86128383D01*
X140083000Y-85271240D02*
X140035380Y-85176002D01*
X140035380Y-85176002D02*
X140035380Y-84985526D01*
X140035380Y-84985526D02*
X140083000Y-84890288D01*
X140083000Y-84890288D02*
X140178238Y-84842669D01*
X140178238Y-84842669D02*
X140225857Y-84842669D01*
X140225857Y-84842669D02*
X140321095Y-84890288D01*
X140321095Y-84890288D02*
X140368714Y-84985526D01*
X140368714Y-84985526D02*
X140368714Y-85128383D01*
X140368714Y-85128383D02*
X140416333Y-85223621D01*
X140416333Y-85223621D02*
X140511571Y-85271240D01*
X140511571Y-85271240D02*
X140559190Y-85271240D01*
X140559190Y-85271240D02*
X140654428Y-85223621D01*
X140654428Y-85223621D02*
X140702047Y-85128383D01*
X140702047Y-85128383D02*
X140702047Y-84985526D01*
X140702047Y-84985526D02*
X140654428Y-84890288D01*
D11*
X159864838Y-99443482D02*
X159817219Y-99348244D01*
X159817219Y-99348244D02*
X159817219Y-99205387D01*
X159817219Y-99205387D02*
X159864838Y-99062530D01*
X159864838Y-99062530D02*
X159960076Y-98967292D01*
X159960076Y-98967292D02*
X160055314Y-98919673D01*
X160055314Y-98919673D02*
X160245790Y-98872054D01*
X160245790Y-98872054D02*
X160388647Y-98872054D01*
X160388647Y-98872054D02*
X160579123Y-98919673D01*
X160579123Y-98919673D02*
X160674361Y-98967292D01*
X160674361Y-98967292D02*
X160769600Y-99062530D01*
X160769600Y-99062530D02*
X160817219Y-99205387D01*
X160817219Y-99205387D02*
X160817219Y-99300625D01*
X160817219Y-99300625D02*
X160769600Y-99443482D01*
X160769600Y-99443482D02*
X160721980Y-99491101D01*
X160721980Y-99491101D02*
X160388647Y-99491101D01*
X160388647Y-99491101D02*
X160388647Y-99300625D01*
X160817219Y-99919673D02*
X159817219Y-99919673D01*
X159817219Y-99919673D02*
X160817219Y-100491101D01*
X160817219Y-100491101D02*
X159817219Y-100491101D01*
X160817219Y-100967292D02*
X159817219Y-100967292D01*
X159817219Y-100967292D02*
X159817219Y-101205387D01*
X159817219Y-101205387D02*
X159864838Y-101348244D01*
X159864838Y-101348244D02*
X159960076Y-101443482D01*
X159960076Y-101443482D02*
X160055314Y-101491101D01*
X160055314Y-101491101D02*
X160245790Y-101538720D01*
X160245790Y-101538720D02*
X160388647Y-101538720D01*
X160388647Y-101538720D02*
X160579123Y-101491101D01*
X160579123Y-101491101D02*
X160674361Y-101443482D01*
X160674361Y-101443482D02*
X160769600Y-101348244D01*
X160769600Y-101348244D02*
X160817219Y-101205387D01*
X160817219Y-101205387D02*
X160817219Y-100967292D01*
D14*
%TO.C,J1*%
X128849400Y-94173600D02*
G75*
G02*
X128087400Y-94173600I-381000J0D01*
G01*
X128087400Y-94173600D02*
G75*
G02*
X128849400Y-94173600I381000J0D01*
G01*
%TD*%
M02*
