%TF.GenerationSoftware,KiCad,Pcbnew,9.0.0*%
%TF.CreationDate,2025-08-18T10:04:00-07:00*%
%TF.ProjectId,USB_C_Simple_Trig,5553425f-435f-4536-996d-706c655f5472,rev?*%
%TF.SameCoordinates,Original*%
%TF.FileFunction,Legend,Top*%
%TF.FilePolarity,Positive*%
%FSLAX46Y46*%
G04 Gerber Fmt 4.6, Leading zero omitted, Abs format (unit mm)*
G04 Created by KiCad (PCBNEW 9.0.0) date 2025-08-18 10:04:00*
%MOMM*%
%LPD*%
G01*
G04 APERTURE LIST*
%ADD10C,0.000000*%
%ADD11C,0.150000*%
%ADD12C,0.200000*%
%ADD13C,0.100000*%
%ADD14C,0.254000*%
%ADD15C,0.120000*%
%ADD16C,0.152400*%
%ADD17C,0.508000*%
G04 APERTURE END LIST*
D10*
G36*
X159717703Y-96209472D02*
G01*
X159715885Y-96225898D01*
X159714262Y-96238929D01*
X159713427Y-96244560D01*
X159712524Y-96249808D01*
X159711514Y-96254827D01*
X159710359Y-96259773D01*
X159709021Y-96264800D01*
X159707459Y-96270065D01*
X159705637Y-96275721D01*
X159703513Y-96281924D01*
X159698212Y-96296591D01*
X159691244Y-96315305D01*
X159655297Y-96334896D01*
X159618371Y-96352644D01*
X159580565Y-96368678D01*
X159541980Y-96383129D01*
X159502716Y-96396129D01*
X159462873Y-96407807D01*
X159422551Y-96418295D01*
X159381849Y-96427724D01*
X159299709Y-96443923D01*
X159217252Y-96457450D01*
X159054590Y-96480670D01*
X158965862Y-96494519D01*
X158900845Y-96503608D01*
X158836214Y-96511397D01*
X158771812Y-96517818D01*
X158707481Y-96522802D01*
X158643062Y-96526279D01*
X158578398Y-96528179D01*
X158513331Y-96528433D01*
X158447702Y-96526972D01*
X158447702Y-96500514D01*
X158511839Y-96492478D01*
X158842305Y-96451426D01*
X158961446Y-96434402D01*
X159067047Y-96416530D01*
X159171998Y-96395425D01*
X159289192Y-96368701D01*
X159611869Y-96288847D01*
X159585410Y-96262389D01*
X159540316Y-96264999D01*
X159495261Y-96268252D01*
X159450244Y-96272037D01*
X159405267Y-96276238D01*
X159350593Y-96281500D01*
X159235891Y-96292852D01*
X159060120Y-96309931D01*
X159000578Y-96312860D01*
X158953779Y-96315667D01*
X158933883Y-96317239D01*
X158915644Y-96319037D01*
X158898553Y-96321146D01*
X158882099Y-96323651D01*
X158865773Y-96326639D01*
X158849067Y-96330194D01*
X158831469Y-96334402D01*
X158812471Y-96339348D01*
X158768236Y-96351796D01*
X158712286Y-96368222D01*
X158677411Y-96369719D01*
X158642513Y-96370664D01*
X158607604Y-96371139D01*
X158572695Y-96371226D01*
X158484421Y-96371220D01*
X158388791Y-96370806D01*
X158291140Y-96370692D01*
X157981374Y-96369876D01*
X157771775Y-96369514D01*
X157257077Y-96368222D01*
X157257077Y-96341764D01*
X157336775Y-96340175D01*
X157855238Y-96327705D01*
X158373232Y-96308019D01*
X158631969Y-96293798D01*
X158890487Y-96275767D01*
X159148753Y-96253258D01*
X159406733Y-96225602D01*
X159445743Y-96221299D01*
X159484566Y-96217592D01*
X159523277Y-96214511D01*
X159561948Y-96212083D01*
X159600653Y-96210337D01*
X159639465Y-96209301D01*
X159678457Y-96209003D01*
X159717703Y-96209472D01*
G37*
G36*
X159558952Y-94569056D02*
G01*
X159554275Y-94573713D01*
X159550061Y-94577792D01*
X159548078Y-94579627D01*
X159546151Y-94581333D01*
X159544262Y-94582915D01*
X159542390Y-94584378D01*
X159540515Y-94585727D01*
X159538619Y-94586967D01*
X159536680Y-94588103D01*
X159534680Y-94589142D01*
X159532599Y-94590087D01*
X159530417Y-94590943D01*
X159528115Y-94591717D01*
X159525672Y-94592413D01*
X159523070Y-94593037D01*
X159520288Y-94593593D01*
X159517307Y-94594086D01*
X159514107Y-94594522D01*
X159510668Y-94594907D01*
X159506971Y-94595244D01*
X159502996Y-94595539D01*
X159498723Y-94595798D01*
X159489206Y-94596227D01*
X159478263Y-94596570D01*
X159451465Y-94597168D01*
X159373744Y-94595514D01*
X159400202Y-94463222D01*
X159558952Y-94463222D01*
X159558952Y-94569056D01*
G37*
G36*
X159082702Y-93722389D02*
G01*
X159109161Y-93828222D01*
X159029786Y-93828222D01*
X159029786Y-93881139D01*
X158923952Y-93854681D01*
X158950411Y-93695931D01*
X159082702Y-93722389D01*
G37*
G36*
X156164087Y-94738471D02*
G01*
X156208666Y-94775761D01*
X156258896Y-94817619D01*
X156274077Y-94831795D01*
X156280424Y-94837836D01*
X156286132Y-94843417D01*
X156291348Y-94848716D01*
X156296215Y-94853912D01*
X156300878Y-94859184D01*
X156305482Y-94864709D01*
X156310170Y-94870667D01*
X156315087Y-94877236D01*
X156320379Y-94884594D01*
X156326188Y-94892920D01*
X156339938Y-94913189D01*
X156357494Y-94939472D01*
X156323008Y-94930858D01*
X156307246Y-94926633D01*
X156292355Y-94922309D01*
X156278244Y-94917768D01*
X156264824Y-94912897D01*
X156252008Y-94907577D01*
X156239706Y-94901694D01*
X156227829Y-94895130D01*
X156216289Y-94887772D01*
X156204996Y-94879501D01*
X156193862Y-94870202D01*
X156182797Y-94859760D01*
X156171714Y-94848058D01*
X156160523Y-94834980D01*
X156149135Y-94820410D01*
X156139310Y-94798473D01*
X156131927Y-94781342D01*
X156129042Y-94774143D01*
X156126636Y-94767622D01*
X156124667Y-94761605D01*
X156123090Y-94755918D01*
X156121862Y-94750385D01*
X156120939Y-94744833D01*
X156120278Y-94739087D01*
X156119834Y-94732973D01*
X156119565Y-94726317D01*
X156119427Y-94718943D01*
X156119369Y-94701347D01*
X156164087Y-94738471D01*
G37*
G36*
X160405619Y-95177597D02*
G01*
X160352702Y-95177597D01*
X160352702Y-95362806D01*
X160405619Y-95389264D01*
X160326244Y-95389264D01*
X160326244Y-95309889D01*
X160248936Y-95311749D01*
X160147650Y-95313196D01*
X160047191Y-95315056D01*
X160017410Y-95313028D01*
X160003710Y-95311760D01*
X159990672Y-95310260D01*
X159978197Y-95308481D01*
X159966187Y-95306376D01*
X159954544Y-95303897D01*
X159943169Y-95300997D01*
X159931964Y-95297629D01*
X159920829Y-95293745D01*
X159909667Y-95289299D01*
X159898379Y-95284242D01*
X159886866Y-95278529D01*
X159875030Y-95272111D01*
X159862772Y-95264941D01*
X159849994Y-95256972D01*
X159909602Y-95247589D01*
X159968934Y-95240510D01*
X160028116Y-95235451D01*
X160087276Y-95232127D01*
X160146542Y-95230255D01*
X160206040Y-95229552D01*
X160326244Y-95230514D01*
X160326244Y-95151139D01*
X160405619Y-95177597D01*
G37*
G36*
X160193952Y-95997805D02*
G01*
X160141036Y-95997805D01*
X160141036Y-95918430D01*
X160035202Y-95891972D01*
X160246869Y-95891972D01*
X160193952Y-95997805D01*
G37*
G36*
X154379992Y-96220159D02*
G01*
X154545422Y-96231995D01*
X154710689Y-96245799D01*
X154875827Y-96262389D01*
X154875827Y-96288847D01*
X154505411Y-96288847D01*
X154530347Y-96315434D01*
X154550108Y-96336049D01*
X154558628Y-96344601D01*
X154566553Y-96352242D01*
X154574113Y-96359165D01*
X154581543Y-96365563D01*
X154589074Y-96371632D01*
X154596938Y-96377563D01*
X154605370Y-96383552D01*
X154614600Y-96389793D01*
X154636387Y-96403801D01*
X154664161Y-96421139D01*
X154607393Y-96415368D01*
X154552652Y-96408169D01*
X154499476Y-96399190D01*
X154473329Y-96393923D01*
X154447400Y-96388080D01*
X154421629Y-96381616D01*
X154395961Y-96374487D01*
X154370335Y-96366650D01*
X154344695Y-96358061D01*
X154318982Y-96348676D01*
X154293138Y-96338451D01*
X154267106Y-96327342D01*
X154240828Y-96315305D01*
X154234502Y-96296820D01*
X154229659Y-96282316D01*
X154225988Y-96270555D01*
X154224496Y-96265315D01*
X154223180Y-96260296D01*
X154222002Y-96255342D01*
X154220924Y-96250298D01*
X154218910Y-96239322D01*
X154216829Y-96226127D01*
X154214369Y-96209472D01*
X154379992Y-96220159D01*
G37*
G36*
X153923328Y-95442180D02*
G01*
X153579369Y-95442180D01*
X153579369Y-93643014D01*
X153923328Y-93643014D01*
X153923328Y-95442180D01*
G37*
G36*
X158950411Y-95997805D02*
G01*
X158919392Y-96018241D01*
X158888392Y-96037688D01*
X158872805Y-96046873D01*
X158857108Y-96055611D01*
X158841264Y-96063833D01*
X158825236Y-96071474D01*
X158808986Y-96078467D01*
X158792475Y-96084744D01*
X158775666Y-96090239D01*
X158758521Y-96094884D01*
X158741003Y-96098614D01*
X158723073Y-96101361D01*
X158704694Y-96103058D01*
X158685827Y-96103639D01*
X158685827Y-96156556D01*
X158765202Y-96209472D01*
X158262494Y-96209472D01*
X158262494Y-96156556D01*
X158350242Y-96155734D01*
X158393075Y-96156347D01*
X158435535Y-96158089D01*
X158477862Y-96161292D01*
X158499051Y-96163546D01*
X158520297Y-96166291D01*
X158541630Y-96169569D01*
X158563080Y-96173421D01*
X158584677Y-96177888D01*
X158606452Y-96183014D01*
X158606452Y-96050722D01*
X157283536Y-96050722D01*
X157283536Y-96024264D01*
X157766065Y-96012960D01*
X157929543Y-96009110D01*
X158184766Y-96003644D01*
X158439939Y-95999688D01*
X158695131Y-95997616D01*
X158950411Y-95997805D01*
G37*
G36*
X156729268Y-93629833D02*
G01*
X156792643Y-93635103D01*
X156860202Y-93643014D01*
X156843632Y-93675693D01*
X156825426Y-93707257D01*
X156805713Y-93737779D01*
X156784618Y-93767332D01*
X156762269Y-93795989D01*
X156738792Y-93823823D01*
X156714316Y-93850908D01*
X156688965Y-93877315D01*
X156662868Y-93903118D01*
X156636152Y-93928391D01*
X156581366Y-93977635D01*
X156469942Y-94072962D01*
X156410159Y-94125415D01*
X156351563Y-94179174D01*
X156293951Y-94234006D01*
X156237121Y-94289680D01*
X156124988Y-94402621D01*
X156013536Y-94516139D01*
X156020082Y-94530283D01*
X156026716Y-94543948D01*
X156033466Y-94557172D01*
X156040362Y-94569994D01*
X156047434Y-94582454D01*
X156054711Y-94594591D01*
X156062222Y-94606445D01*
X156069997Y-94618053D01*
X156078064Y-94629456D01*
X156086454Y-94640693D01*
X156095196Y-94651804D01*
X156104319Y-94662826D01*
X156113852Y-94673800D01*
X156123825Y-94684765D01*
X156134267Y-94695761D01*
X156145207Y-94706825D01*
X156192065Y-94753579D01*
X156241739Y-94802220D01*
X156292550Y-94852514D01*
X156367714Y-94925350D01*
X156405662Y-94961254D01*
X156443897Y-94996811D01*
X156482453Y-95032020D01*
X156521363Y-95066878D01*
X156560659Y-95101383D01*
X156600374Y-95135533D01*
X156634413Y-95165495D01*
X156668234Y-95195838D01*
X156701723Y-95226622D01*
X156734765Y-95257907D01*
X156767248Y-95289753D01*
X156799058Y-95322221D01*
X156830080Y-95355371D01*
X156860202Y-95389264D01*
X156860202Y-95442180D01*
X156734394Y-95459243D01*
X156638026Y-95471073D01*
X156598942Y-95474920D01*
X156564891Y-95477330D01*
X156535095Y-95478262D01*
X156508779Y-95477672D01*
X156485167Y-95475518D01*
X156463482Y-95471758D01*
X156442949Y-95466348D01*
X156422792Y-95459247D01*
X156402234Y-95450411D01*
X156380499Y-95439798D01*
X156330395Y-95413069D01*
X156307862Y-95395331D01*
X156285844Y-95377068D01*
X156264308Y-95358318D01*
X156243216Y-95339117D01*
X156222533Y-95319500D01*
X156202224Y-95299504D01*
X156162586Y-95258519D01*
X156124016Y-95216451D01*
X156086232Y-95173591D01*
X156011882Y-95086647D01*
X155978178Y-95048377D01*
X155944313Y-95010272D01*
X155910254Y-94972340D01*
X155875964Y-94934595D01*
X155854907Y-94911211D01*
X155834094Y-94887608D01*
X155813539Y-94863780D01*
X155793258Y-94839721D01*
X155778690Y-94823720D01*
X155764580Y-94808980D01*
X155750794Y-94795447D01*
X155737199Y-94783066D01*
X155723661Y-94771784D01*
X155710046Y-94761545D01*
X155696222Y-94752296D01*
X155682054Y-94743983D01*
X155667410Y-94736551D01*
X155652156Y-94729946D01*
X155636158Y-94724114D01*
X155619282Y-94719001D01*
X155601397Y-94714551D01*
X155582367Y-94710712D01*
X155562060Y-94707429D01*
X155540341Y-94704648D01*
X155513133Y-94703397D01*
X155485913Y-94702383D01*
X155458685Y-94701677D01*
X155431452Y-94701347D01*
X155430519Y-94622800D01*
X155429799Y-94544251D01*
X155428869Y-94455884D01*
X155429773Y-94432055D01*
X155430776Y-94413824D01*
X155431420Y-94406448D01*
X155432217Y-94400039D01*
X155433208Y-94394453D01*
X155434437Y-94389545D01*
X155435945Y-94385171D01*
X155437776Y-94381187D01*
X155439971Y-94377448D01*
X155442574Y-94373811D01*
X155445627Y-94370130D01*
X155449172Y-94366263D01*
X155457911Y-94357389D01*
X155558060Y-94364107D01*
X155582989Y-94360808D01*
X155606455Y-94356135D01*
X155628585Y-94350145D01*
X155649508Y-94342893D01*
X155669351Y-94334435D01*
X155688242Y-94324828D01*
X155706311Y-94314128D01*
X155723685Y-94302389D01*
X155740491Y-94289670D01*
X155756859Y-94276025D01*
X155772917Y-94261511D01*
X155788792Y-94246184D01*
X155804612Y-94230100D01*
X155820506Y-94213315D01*
X155853029Y-94177865D01*
X155895246Y-94131735D01*
X155938810Y-94083159D01*
X155982028Y-94034308D01*
X156024841Y-93985104D01*
X156067195Y-93935470D01*
X156112141Y-93884619D01*
X156155918Y-93838963D01*
X156198909Y-93798317D01*
X156220230Y-93779817D01*
X156241497Y-93762502D01*
X156262759Y-93746348D01*
X156284063Y-93731332D01*
X156305458Y-93717434D01*
X156326991Y-93704628D01*
X156348709Y-93692893D01*
X156370661Y-93682206D01*
X156392894Y-93672543D01*
X156415456Y-93663883D01*
X156438396Y-93656202D01*
X156461760Y-93649478D01*
X156485596Y-93643688D01*
X156509953Y-93638808D01*
X156534877Y-93634817D01*
X156560418Y-93631691D01*
X156586622Y-93629408D01*
X156613537Y-93627944D01*
X156669693Y-93627386D01*
X156729268Y-93629833D01*
G37*
G36*
X156539143Y-93630642D02*
G01*
X156582849Y-93632255D01*
X156630346Y-93634746D01*
X156697370Y-93636554D01*
X156738089Y-93637862D01*
X156778800Y-93639415D01*
X156860202Y-93643014D01*
X156852773Y-93659528D01*
X156845060Y-93675389D01*
X156837052Y-93690653D01*
X156828740Y-93705381D01*
X156820113Y-93719628D01*
X156811160Y-93733455D01*
X156801872Y-93746917D01*
X156792237Y-93760075D01*
X156782246Y-93772984D01*
X156771888Y-93785704D01*
X156761153Y-93798293D01*
X156750030Y-93810808D01*
X156726579Y-93835851D01*
X156701452Y-93861295D01*
X156645229Y-93917933D01*
X156628750Y-93931988D01*
X156621880Y-93937674D01*
X156615721Y-93942550D01*
X156610125Y-93946677D01*
X156604940Y-93950118D01*
X156602456Y-93951601D01*
X156600017Y-93952935D01*
X156597607Y-93954130D01*
X156595206Y-93955191D01*
X156592795Y-93956128D01*
X156590356Y-93956948D01*
X156587869Y-93957659D01*
X156585316Y-93958268D01*
X156582679Y-93958784D01*
X156579938Y-93959214D01*
X156574070Y-93959849D01*
X156567563Y-93960233D01*
X156560266Y-93960431D01*
X156542703Y-93960514D01*
X156516244Y-93854681D01*
X156569161Y-93828222D01*
X156569161Y-93748847D01*
X156595619Y-93669472D01*
X156551092Y-93672882D01*
X156532638Y-93674516D01*
X156516241Y-93676251D01*
X156501536Y-93678199D01*
X156488161Y-93680471D01*
X156475751Y-93683179D01*
X156463943Y-93686434D01*
X156452375Y-93690348D01*
X156440683Y-93695031D01*
X156428503Y-93700596D01*
X156415472Y-93707154D01*
X156401227Y-93714815D01*
X156385404Y-93723693D01*
X156347572Y-93745540D01*
X156331774Y-93764216D01*
X156325298Y-93772078D01*
X156319636Y-93779221D01*
X156314686Y-93785843D01*
X156310346Y-93792143D01*
X156306514Y-93798320D01*
X156303089Y-93804572D01*
X156299969Y-93811099D01*
X156297052Y-93818097D01*
X156294237Y-93825768D01*
X156291421Y-93834308D01*
X156288503Y-93843916D01*
X156285381Y-93854792D01*
X156278119Y-93881139D01*
X156331036Y-93907597D01*
X156092911Y-93960514D01*
X156196083Y-93838532D01*
X156222380Y-93808256D01*
X156251661Y-93775306D01*
X156307885Y-93703372D01*
X156327714Y-93688511D01*
X156347080Y-93675727D01*
X156366091Y-93664875D01*
X156384856Y-93655814D01*
X156403484Y-93648401D01*
X156422083Y-93642492D01*
X156440762Y-93637945D01*
X156459628Y-93634618D01*
X156478791Y-93632366D01*
X156498358Y-93631048D01*
X156518440Y-93630521D01*
X156539143Y-93630642D01*
G37*
G36*
X158500619Y-95098222D02*
G01*
X158500619Y-95283430D01*
X158447702Y-95283430D01*
X158447702Y-95362806D01*
X158341869Y-95362806D01*
X158341869Y-95415722D01*
X157018953Y-95415722D01*
X157018953Y-95124681D01*
X157135115Y-95125100D01*
X157560101Y-95126134D01*
X157744354Y-95126677D01*
X158008556Y-95127264D01*
X158092323Y-95127678D01*
X158169367Y-95127684D01*
X158237557Y-95127862D01*
X158251826Y-95126699D01*
X158264289Y-95125141D01*
X158275232Y-95123251D01*
X158284943Y-95121089D01*
X158293708Y-95118719D01*
X158301813Y-95116201D01*
X158317191Y-95110973D01*
X158325039Y-95108387D01*
X158333373Y-95105901D01*
X158342481Y-95103577D01*
X158352650Y-95101479D01*
X158364167Y-95099667D01*
X158377318Y-95098203D01*
X158392389Y-95097149D01*
X158409668Y-95096568D01*
X158500619Y-95098222D01*
G37*
G36*
X158579994Y-95309889D02*
G01*
X158570483Y-95321782D01*
X158561457Y-95332490D01*
X158552790Y-95342102D01*
X158544359Y-95350707D01*
X158536038Y-95358391D01*
X158531881Y-95361916D01*
X158527705Y-95365244D01*
X158523494Y-95368387D01*
X158519233Y-95371354D01*
X158514907Y-95374158D01*
X158510500Y-95376809D01*
X158505996Y-95379319D01*
X158501380Y-95381697D01*
X158491750Y-95386107D01*
X158481485Y-95390126D01*
X158470460Y-95393843D01*
X158458552Y-95397346D01*
X158445636Y-95400723D01*
X158431588Y-95404063D01*
X158416283Y-95407454D01*
X158341869Y-95415722D01*
X158341869Y-95362806D01*
X158447702Y-95362806D01*
X158447702Y-95283430D01*
X158579994Y-95309889D01*
G37*
G36*
X160564369Y-95204056D02*
G01*
X160458536Y-95230514D01*
X160432077Y-95362806D01*
X160352702Y-95362806D01*
X160352702Y-95177597D01*
X160564369Y-95204056D01*
G37*
G36*
X160246869Y-95891972D02*
G01*
X160242425Y-95908457D01*
X160240474Y-95915343D01*
X160238601Y-95921531D01*
X160236727Y-95927177D01*
X160234777Y-95932435D01*
X160232671Y-95937460D01*
X160230332Y-95942408D01*
X160227684Y-95947434D01*
X160224648Y-95952692D01*
X160221147Y-95958337D01*
X160217103Y-95964526D01*
X160207078Y-95979150D01*
X160193952Y-95997805D01*
X160167746Y-96006974D01*
X160141678Y-96015055D01*
X160115642Y-96022227D01*
X160089535Y-96028670D01*
X160063251Y-96034561D01*
X160036685Y-96040081D01*
X159982285Y-96050722D01*
X160008744Y-95997805D01*
X160088119Y-95997805D01*
X160088119Y-95944889D01*
X159744161Y-95944889D01*
X159744161Y-95918430D01*
X159869918Y-95906538D01*
X159932565Y-95901603D01*
X159995170Y-95897506D01*
X160057818Y-95894372D01*
X160120594Y-95892323D01*
X160183583Y-95891481D01*
X160246869Y-95891972D01*
G37*
G36*
X160564369Y-93695931D02*
G01*
X160590827Y-93775306D01*
X160352702Y-93828222D01*
X160344021Y-93801867D01*
X160340610Y-93790899D01*
X160337819Y-93781093D01*
X160335649Y-93772218D01*
X160334099Y-93764040D01*
X160333168Y-93756327D01*
X160332858Y-93748847D01*
X160333168Y-93741367D01*
X160334099Y-93733654D01*
X160335649Y-93725477D01*
X160337819Y-93716601D01*
X160340610Y-93706796D01*
X160344021Y-93695827D01*
X160352702Y-93669472D01*
X160564369Y-93695931D01*
G37*
G36*
X154267286Y-95997805D02*
G01*
X154249707Y-96015282D01*
X154242375Y-96022373D01*
X154235799Y-96028479D01*
X154229817Y-96033684D01*
X154224269Y-96038076D01*
X154221607Y-96039992D01*
X154218993Y-96041737D01*
X154216406Y-96043320D01*
X154213827Y-96044754D01*
X154211235Y-96046047D01*
X154208610Y-96047211D01*
X154205932Y-96048256D01*
X154203181Y-96049193D01*
X154200336Y-96050033D01*
X154197378Y-96050787D01*
X154191041Y-96052075D01*
X154184007Y-96053145D01*
X154176115Y-96054081D01*
X154157112Y-96055890D01*
X154092000Y-96054029D01*
X154026474Y-96052583D01*
X153976244Y-96050722D01*
X154002703Y-95971347D01*
X154267286Y-95997805D01*
G37*
G36*
X156539143Y-93630642D02*
G01*
X156582849Y-93632255D01*
X156630346Y-93634746D01*
X156697370Y-93636554D01*
X156738089Y-93637862D01*
X156778800Y-93639415D01*
X156860202Y-93643014D01*
X156807286Y-93748847D01*
X156780827Y-93695931D01*
X156736193Y-93693928D01*
X156691547Y-93692187D01*
X156602234Y-93689316D01*
X156501775Y-93685595D01*
X156471161Y-93686536D01*
X156458536Y-93687133D01*
X156447396Y-93687929D01*
X156437516Y-93689010D01*
X156428668Y-93690462D01*
X156420626Y-93692370D01*
X156413164Y-93694822D01*
X156406056Y-93697903D01*
X156399074Y-93701698D01*
X156391992Y-93706294D01*
X156384584Y-93711778D01*
X156376623Y-93718234D01*
X156367883Y-93725749D01*
X156347159Y-93744300D01*
X156331565Y-93763388D01*
X156325171Y-93771417D01*
X156319578Y-93778703D01*
X156314685Y-93785446D01*
X156310391Y-93791847D01*
X156306594Y-93798106D01*
X156303193Y-93804424D01*
X156300088Y-93811002D01*
X156297176Y-93818039D01*
X156294358Y-93825736D01*
X156291531Y-93834294D01*
X156288595Y-93843912D01*
X156285448Y-93854792D01*
X156278119Y-93881139D01*
X156331036Y-93907597D01*
X156092911Y-93960514D01*
X156196083Y-93838532D01*
X156222380Y-93808256D01*
X156251661Y-93775306D01*
X156307885Y-93703372D01*
X156327714Y-93688511D01*
X156347080Y-93675727D01*
X156366091Y-93664875D01*
X156384856Y-93655814D01*
X156403484Y-93648401D01*
X156422083Y-93642492D01*
X156440762Y-93637945D01*
X156459628Y-93634618D01*
X156478791Y-93632366D01*
X156498358Y-93631048D01*
X156518440Y-93630521D01*
X156539143Y-93630642D01*
G37*
G36*
X160246869Y-95891972D02*
G01*
X160241374Y-95908423D01*
X160236799Y-95921473D01*
X160234663Y-95927110D01*
X160232524Y-95932362D01*
X160230306Y-95937384D01*
X160227930Y-95942331D01*
X160225319Y-95947358D01*
X160222395Y-95952619D01*
X160219082Y-95958271D01*
X160215301Y-95964468D01*
X160206027Y-95979116D01*
X160193952Y-95997805D01*
X160027814Y-96064043D01*
X159853466Y-96118984D01*
X159671975Y-96163595D01*
X159484409Y-96198840D01*
X159291833Y-96225686D01*
X159095316Y-96245098D01*
X158895924Y-96258042D01*
X158694724Y-96265484D01*
X158291169Y-96267725D01*
X157893185Y-96259545D01*
X157509310Y-96248671D01*
X157148079Y-96242829D01*
X156726289Y-96243011D01*
X155278918Y-96241334D01*
X154816101Y-96231894D01*
X154479680Y-96212476D01*
X154347732Y-96198030D01*
X154234018Y-96179896D01*
X154134084Y-96157675D01*
X154043476Y-96130970D01*
X153957738Y-96099383D01*
X153872417Y-96062515D01*
X153685203Y-95971347D01*
X153685203Y-95891972D01*
X153801084Y-95892011D01*
X153858756Y-95892964D01*
X153916333Y-95894583D01*
X153973880Y-95896904D01*
X154031461Y-95899958D01*
X154089141Y-95903781D01*
X154146983Y-95908405D01*
X154209594Y-95913554D01*
X154470348Y-95935439D01*
X154871494Y-95964944D01*
X155272721Y-95986799D01*
X155674269Y-96002287D01*
X156076374Y-96012688D01*
X156155820Y-96014360D01*
X156490589Y-96021156D01*
X156719649Y-96024453D01*
X156948723Y-96025179D01*
X157283536Y-96024264D01*
X157342988Y-96023385D01*
X157970216Y-96011588D01*
X158597175Y-95991700D01*
X158910437Y-95977194D01*
X159223491Y-95958833D01*
X159536292Y-95936006D01*
X159848792Y-95908102D01*
X159898723Y-95903601D01*
X159948445Y-95899813D01*
X159998040Y-95896735D01*
X160047586Y-95894368D01*
X160097162Y-95892709D01*
X160146849Y-95891758D01*
X160196724Y-95891513D01*
X160246869Y-95891972D01*
G37*
G36*
X155054608Y-95722768D02*
G01*
X155022058Y-95737741D01*
X154989651Y-95751802D01*
X154957190Y-95765070D01*
X154924481Y-95777664D01*
X154891328Y-95789704D01*
X154857537Y-95801308D01*
X154822911Y-95812597D01*
X154796453Y-95706764D01*
X155087494Y-95706764D01*
X155054608Y-95722768D01*
G37*
G36*
X160877528Y-94417902D02*
G01*
X160935022Y-94424302D01*
X160958354Y-94427345D01*
X160978696Y-94430437D01*
X160996513Y-94433695D01*
X161012271Y-94437236D01*
X161026434Y-94441176D01*
X161039468Y-94445630D01*
X161051837Y-94450715D01*
X161064006Y-94456548D01*
X161076442Y-94463245D01*
X161089608Y-94470922D01*
X161119994Y-94489680D01*
X161106429Y-94505533D01*
X161092446Y-94520161D01*
X161078049Y-94533657D01*
X161063244Y-94546113D01*
X161048035Y-94557623D01*
X161032427Y-94568281D01*
X161016424Y-94578179D01*
X161000031Y-94587410D01*
X160983253Y-94596067D01*
X160966094Y-94604244D01*
X160948560Y-94612034D01*
X160930654Y-94619529D01*
X160893747Y-94634010D01*
X160855411Y-94648431D01*
X160776035Y-94648431D01*
X160749577Y-94489680D01*
X160802494Y-94489680D01*
X160802494Y-94410306D01*
X160877528Y-94417902D01*
G37*
G36*
X157024578Y-94022581D02*
G01*
X157029644Y-94057654D01*
X157034039Y-94092392D01*
X157037655Y-94126995D01*
X157040379Y-94161666D01*
X157042102Y-94196605D01*
X157042714Y-94232013D01*
X157042104Y-94268092D01*
X157043051Y-94286013D01*
X157044521Y-94302724D01*
X157046524Y-94318368D01*
X157049068Y-94333088D01*
X157052160Y-94347027D01*
X157055809Y-94360328D01*
X157060024Y-94373134D01*
X157064813Y-94385587D01*
X157070184Y-94397831D01*
X157076145Y-94410008D01*
X157082706Y-94422262D01*
X157089874Y-94434735D01*
X157106065Y-94460911D01*
X157124786Y-94489680D01*
X157098327Y-94542597D01*
X157080035Y-94518780D01*
X157063387Y-94495397D01*
X157048319Y-94472328D01*
X157034763Y-94449451D01*
X157022654Y-94426644D01*
X157011925Y-94403787D01*
X157002511Y-94380758D01*
X156994345Y-94357436D01*
X156987362Y-94333698D01*
X156981495Y-94309425D01*
X156976679Y-94284493D01*
X156972846Y-94258783D01*
X156969932Y-94232172D01*
X156967869Y-94204539D01*
X156966593Y-94175763D01*
X156966036Y-94145722D01*
X156972960Y-94090222D01*
X156975570Y-94071076D01*
X156978025Y-94055185D01*
X156980634Y-94040690D01*
X156983709Y-94025730D01*
X156992494Y-93986972D01*
X157018953Y-93986972D01*
X157024578Y-94022581D01*
G37*
G36*
X159014904Y-93649585D02*
G01*
X159025488Y-93650705D01*
X159036221Y-93652369D01*
X159047199Y-93654500D01*
X159058519Y-93657021D01*
X159109161Y-93669472D01*
X159082702Y-93748847D01*
X158950411Y-93695931D01*
X158923952Y-93854681D01*
X158897494Y-93854681D01*
X158902966Y-93808226D01*
X158909218Y-93761863D01*
X158916223Y-93715607D01*
X158923952Y-93669472D01*
X158936836Y-93663464D01*
X158949093Y-93658616D01*
X158960820Y-93654851D01*
X158972115Y-93652093D01*
X158983074Y-93650264D01*
X158993794Y-93649288D01*
X159004372Y-93649088D01*
X159014904Y-93649585D01*
G37*
G36*
X158431606Y-94411632D02*
G01*
X158441628Y-94413265D01*
X158451323Y-94415197D01*
X158460709Y-94417421D01*
X158469799Y-94419929D01*
X158478610Y-94422716D01*
X158487155Y-94425773D01*
X158495452Y-94429093D01*
X158511358Y-94436493D01*
X158526449Y-94444861D01*
X158540847Y-94454138D01*
X158554675Y-94464266D01*
X158568053Y-94475189D01*
X158581104Y-94486849D01*
X158593951Y-94499187D01*
X158606713Y-94512147D01*
X158632476Y-94539703D01*
X158659369Y-94569056D01*
X158596531Y-94542597D01*
X158574862Y-94532834D01*
X158565876Y-94528896D01*
X158557883Y-94525535D01*
X158550703Y-94522713D01*
X158544158Y-94520391D01*
X158538068Y-94518530D01*
X158532253Y-94517091D01*
X158526536Y-94516037D01*
X158520735Y-94515327D01*
X158514673Y-94514923D01*
X158508170Y-94514786D01*
X158501046Y-94514878D01*
X158493123Y-94515160D01*
X158474161Y-94516139D01*
X158474161Y-94436764D01*
X158421244Y-94410306D01*
X158431606Y-94411632D01*
G37*
G36*
X160421273Y-93663004D02*
G01*
X160468119Y-93673764D01*
X160514553Y-93685487D01*
X160560599Y-93698516D01*
X160606282Y-93713192D01*
X160628996Y-93721254D01*
X160651628Y-93729855D01*
X160674182Y-93739039D01*
X160696661Y-93748847D01*
X160686058Y-93759183D01*
X160675881Y-93768553D01*
X160666035Y-93777041D01*
X160656430Y-93784729D01*
X160646973Y-93791701D01*
X160637572Y-93798038D01*
X160628134Y-93803825D01*
X160618568Y-93809143D01*
X160608780Y-93814075D01*
X160598680Y-93818705D01*
X160588174Y-93823115D01*
X160577170Y-93827387D01*
X160565577Y-93831605D01*
X160553301Y-93835851D01*
X160526335Y-93844759D01*
X160463600Y-93865636D01*
X160444307Y-93870753D01*
X160428840Y-93874599D01*
X160422038Y-93876101D01*
X160415589Y-93877354D01*
X160409292Y-93878380D01*
X160402945Y-93879201D01*
X160396347Y-93879841D01*
X160389298Y-93880321D01*
X160381595Y-93880666D01*
X160373039Y-93880897D01*
X160352557Y-93881109D01*
X160326244Y-93881139D01*
X160326244Y-93801764D01*
X159833218Y-93821466D01*
X159665451Y-93828080D01*
X159424490Y-93837937D01*
X159348566Y-93840617D01*
X159277955Y-93843816D01*
X159215819Y-93846308D01*
X159195245Y-93848328D01*
X159186647Y-93849359D01*
X159178915Y-93850524D01*
X159171854Y-93851911D01*
X159165269Y-93853612D01*
X159158966Y-93855716D01*
X159152748Y-93858313D01*
X159146421Y-93861492D01*
X159139790Y-93865344D01*
X159132660Y-93869957D01*
X159124837Y-93875422D01*
X159116124Y-93881829D01*
X159106327Y-93889267D01*
X159082702Y-93907597D01*
X159060197Y-93909768D01*
X159042498Y-93911318D01*
X159028055Y-93912248D01*
X159021569Y-93912481D01*
X159015316Y-93912558D01*
X159009102Y-93912481D01*
X159002733Y-93912248D01*
X158988755Y-93911318D01*
X158971830Y-93909768D01*
X158950411Y-93907597D01*
X158897494Y-93854681D01*
X158901628Y-93798767D01*
X158903540Y-93778639D01*
X158905762Y-93760836D01*
X158908604Y-93743189D01*
X158912377Y-93723526D01*
X158923952Y-93669472D01*
X158936998Y-93663344D01*
X158949355Y-93658338D01*
X158961131Y-93654391D01*
X158972429Y-93651436D01*
X158983355Y-93649407D01*
X158994015Y-93648240D01*
X159004515Y-93647867D01*
X159014958Y-93648225D01*
X159025452Y-93649246D01*
X159036101Y-93650865D01*
X159047011Y-93653018D01*
X159058287Y-93655637D01*
X159082359Y-93662014D01*
X159109161Y-93669472D01*
X159162077Y-93722389D01*
X159179482Y-93724930D01*
X159193300Y-93726819D01*
X159204853Y-93728126D01*
X159210194Y-93728583D01*
X159215465Y-93728922D01*
X159220831Y-93729149D01*
X159226458Y-93729276D01*
X159239155Y-93729260D01*
X159254879Y-93728943D01*
X159274952Y-93728396D01*
X159345568Y-93728384D01*
X159421906Y-93727557D01*
X159499983Y-93727330D01*
X159747468Y-93725696D01*
X159915003Y-93724973D01*
X160326244Y-93722389D01*
X160326244Y-93643014D01*
X160421273Y-93663004D01*
G37*
G36*
X159036246Y-95146785D02*
G01*
X159045692Y-95147852D01*
X159053977Y-95148966D01*
X159061256Y-95150196D01*
X159067686Y-95151609D01*
X159073422Y-95153273D01*
X159078619Y-95155254D01*
X159083433Y-95157622D01*
X159088021Y-95160443D01*
X159092536Y-95163785D01*
X159097136Y-95167715D01*
X159101976Y-95172302D01*
X159107210Y-95177613D01*
X159119488Y-95190677D01*
X159129567Y-95199765D01*
X159139120Y-95207667D01*
X159148253Y-95214466D01*
X159152696Y-95217477D01*
X159157075Y-95220243D01*
X159161404Y-95222773D01*
X159165695Y-95225078D01*
X159169962Y-95227169D01*
X159174218Y-95229055D01*
X159178478Y-95230747D01*
X159182755Y-95232255D01*
X159187062Y-95233588D01*
X159191412Y-95234758D01*
X159200297Y-95236647D01*
X159209519Y-95238004D01*
X159219185Y-95238909D01*
X159229403Y-95239445D01*
X159240282Y-95239693D01*
X159251928Y-95239734D01*
X159277955Y-95239525D01*
X159348566Y-95239507D01*
X159424490Y-95238265D01*
X159502453Y-95237925D01*
X159625789Y-95236912D01*
X159749122Y-95235475D01*
X159916295Y-95234390D01*
X160121272Y-95232735D01*
X160326244Y-95230514D01*
X160326244Y-95151139D01*
X160421273Y-95171129D01*
X160468119Y-95181889D01*
X160514553Y-95193612D01*
X160560599Y-95206641D01*
X160606282Y-95221317D01*
X160628996Y-95229378D01*
X160651628Y-95237980D01*
X160674182Y-95247164D01*
X160696661Y-95256972D01*
X160686058Y-95267307D01*
X160675881Y-95276677D01*
X160666035Y-95285165D01*
X160656430Y-95292854D01*
X160646973Y-95299825D01*
X160637572Y-95306163D01*
X160628134Y-95311950D01*
X160618568Y-95317268D01*
X160608780Y-95322200D01*
X160598680Y-95326830D01*
X160588174Y-95331240D01*
X160577170Y-95335512D01*
X160565577Y-95339730D01*
X160553301Y-95343976D01*
X160526335Y-95352884D01*
X160463600Y-95373761D01*
X160444307Y-95378878D01*
X160428840Y-95382724D01*
X160422038Y-95384226D01*
X160415589Y-95385479D01*
X160409292Y-95386505D01*
X160402945Y-95387326D01*
X160396347Y-95387966D01*
X160389298Y-95388446D01*
X160381595Y-95388791D01*
X160373039Y-95389022D01*
X160352557Y-95389234D01*
X160326244Y-95389264D01*
X160326244Y-95309889D01*
X159833218Y-95329590D01*
X159665451Y-95336205D01*
X159424490Y-95346062D01*
X159348566Y-95348742D01*
X159277955Y-95351941D01*
X159215819Y-95354433D01*
X159195245Y-95356453D01*
X159186647Y-95357484D01*
X159178915Y-95358649D01*
X159171854Y-95360036D01*
X159165269Y-95361737D01*
X159158966Y-95363841D01*
X159152748Y-95366438D01*
X159146421Y-95369617D01*
X159139790Y-95373469D01*
X159132660Y-95378082D01*
X159124837Y-95383547D01*
X159116124Y-95389954D01*
X159106327Y-95397392D01*
X159082702Y-95415722D01*
X159060197Y-95417893D01*
X159042498Y-95419443D01*
X159028055Y-95420373D01*
X159021569Y-95420606D01*
X159015316Y-95420683D01*
X159009102Y-95420606D01*
X159002733Y-95420373D01*
X158988755Y-95419443D01*
X158971830Y-95417893D01*
X158950411Y-95415722D01*
X158897494Y-95362806D01*
X158903708Y-95294124D01*
X158906597Y-95266296D01*
X158909567Y-95242385D01*
X158912787Y-95222071D01*
X158916428Y-95205033D01*
X158920659Y-95190951D01*
X158923048Y-95184920D01*
X158925649Y-95179508D01*
X158928481Y-95174675D01*
X158931567Y-95170381D01*
X158934928Y-95166587D01*
X158938585Y-95163252D01*
X158942558Y-95160337D01*
X158946870Y-95157801D01*
X158951541Y-95155605D01*
X158956592Y-95153708D01*
X158967922Y-95150654D01*
X158981028Y-95148318D01*
X159013249Y-95144524D01*
X159036246Y-95146785D01*
G37*
G36*
X160398588Y-95182445D02*
G01*
X160442938Y-95187791D01*
X160486107Y-95194112D01*
X160528450Y-95201883D01*
X160549423Y-95206461D01*
X160570322Y-95211579D01*
X160591192Y-95217298D01*
X160612078Y-95223676D01*
X160633023Y-95230773D01*
X160654072Y-95238648D01*
X160675270Y-95247362D01*
X160696661Y-95256972D01*
X160681194Y-95271635D01*
X160665483Y-95284963D01*
X160649507Y-95297019D01*
X160633247Y-95307864D01*
X160616684Y-95317561D01*
X160599798Y-95326171D01*
X160582570Y-95333756D01*
X160564981Y-95340378D01*
X160547011Y-95346099D01*
X160528641Y-95350981D01*
X160509851Y-95355086D01*
X160490622Y-95358475D01*
X160470934Y-95361210D01*
X160450769Y-95363353D01*
X160430106Y-95364967D01*
X160408926Y-95366113D01*
X160352702Y-95362806D01*
X160352702Y-95177597D01*
X160398588Y-95182445D01*
G37*
G36*
X159717703Y-96209472D02*
G01*
X159715921Y-96225893D01*
X159714324Y-96238922D01*
X159713498Y-96244552D01*
X159712601Y-96249799D01*
X159711595Y-96254817D01*
X159710442Y-96259763D01*
X159709102Y-96264791D01*
X159707537Y-96270056D01*
X159705707Y-96275713D01*
X159703575Y-96281917D01*
X159698248Y-96296587D01*
X159691244Y-96315305D01*
X159656705Y-96333932D01*
X159621298Y-96350904D01*
X159585109Y-96366333D01*
X159548223Y-96380331D01*
X159510728Y-96393009D01*
X159472709Y-96404480D01*
X159434253Y-96414855D01*
X159395445Y-96424246D01*
X159317123Y-96440524D01*
X159238431Y-96454206D01*
X159082702Y-96477363D01*
X159005394Y-96489869D01*
X158771626Y-96521039D01*
X158537371Y-96544906D01*
X158302708Y-96562425D01*
X158067711Y-96574552D01*
X157832457Y-96582241D01*
X157597023Y-96586448D01*
X157125916Y-96588241D01*
X156994787Y-96588285D01*
X156863658Y-96588784D01*
X155606171Y-96591168D01*
X155204713Y-96582684D01*
X155047358Y-96574621D01*
X154913797Y-96563476D01*
X154800187Y-96548849D01*
X154702687Y-96530339D01*
X154617454Y-96507545D01*
X154540646Y-96480068D01*
X154468422Y-96447506D01*
X154396938Y-96409458D01*
X154240828Y-96315305D01*
X154234027Y-96296616D01*
X154228845Y-96281968D01*
X154224971Y-96270119D01*
X154223428Y-96264858D01*
X154222095Y-96259831D01*
X154220934Y-96254884D01*
X154219907Y-96249862D01*
X154218974Y-96244610D01*
X154218096Y-96238973D01*
X154216354Y-96225923D01*
X154214369Y-96209472D01*
X154402183Y-96221562D01*
X154589761Y-96235550D01*
X154777193Y-96251392D01*
X154964569Y-96269042D01*
X155116254Y-96282357D01*
X155268062Y-96293525D01*
X155419976Y-96302808D01*
X155571980Y-96310471D01*
X155876189Y-96321990D01*
X156180554Y-96330188D01*
X156249283Y-96331860D01*
X156501237Y-96337656D01*
X156753144Y-96342071D01*
X157005070Y-96343856D01*
X157257077Y-96341764D01*
X157308466Y-96340885D01*
X157833975Y-96329285D01*
X158359140Y-96309514D01*
X158621460Y-96295013D01*
X158883534Y-96276607D01*
X159145309Y-96253677D01*
X159406733Y-96225602D01*
X159445743Y-96221299D01*
X159484566Y-96217592D01*
X159523277Y-96214511D01*
X159561948Y-96212083D01*
X159600653Y-96210337D01*
X159639465Y-96209301D01*
X159678457Y-96209003D01*
X159717703Y-96209472D01*
G37*
G36*
X158436872Y-94413407D02*
G01*
X158451751Y-94416800D01*
X158465956Y-94420508D01*
X158479560Y-94424560D01*
X158492638Y-94428982D01*
X158505265Y-94433799D01*
X158517513Y-94439038D01*
X158529458Y-94444725D01*
X158541173Y-94450887D01*
X158552733Y-94457551D01*
X158564212Y-94464741D01*
X158575685Y-94472485D01*
X158587224Y-94480809D01*
X158598905Y-94489739D01*
X158610802Y-94499302D01*
X158622989Y-94509524D01*
X158670324Y-94548798D01*
X158681002Y-94561181D01*
X158690954Y-94573725D01*
X158700204Y-94586427D01*
X158708779Y-94599284D01*
X158716702Y-94612291D01*
X158723999Y-94625445D01*
X158736812Y-94652178D01*
X158747418Y-94679453D01*
X158756013Y-94707241D01*
X158762798Y-94735512D01*
X158767970Y-94764236D01*
X158771728Y-94793383D01*
X158774271Y-94822923D01*
X158775797Y-94852827D01*
X158776505Y-94883064D01*
X158776260Y-94944421D01*
X158775124Y-95006755D01*
X158772237Y-95030335D01*
X158768771Y-95052941D01*
X158764679Y-95074650D01*
X158759913Y-95095536D01*
X158754426Y-95115677D01*
X158748170Y-95135149D01*
X158741099Y-95154029D01*
X158733164Y-95172393D01*
X158724318Y-95190317D01*
X158714514Y-95207878D01*
X158703704Y-95225151D01*
X158691841Y-95242214D01*
X158678878Y-95259143D01*
X158664767Y-95276014D01*
X158649460Y-95292904D01*
X158632911Y-95309889D01*
X158607898Y-95328182D01*
X158582952Y-95344935D01*
X158558011Y-95360196D01*
X158533013Y-95374016D01*
X158507895Y-95386441D01*
X158482596Y-95397523D01*
X158457053Y-95407309D01*
X158431205Y-95415849D01*
X158404990Y-95423192D01*
X158378345Y-95429386D01*
X158351209Y-95434481D01*
X158323519Y-95438526D01*
X158295214Y-95441570D01*
X158266232Y-95443662D01*
X158236509Y-95444850D01*
X158205986Y-95445184D01*
X158124145Y-95445178D01*
X158036358Y-95444764D01*
X157946052Y-95444651D01*
X157660567Y-95443834D01*
X157466987Y-95443472D01*
X156992494Y-95442180D01*
X156992494Y-95124681D01*
X157018953Y-95124681D01*
X157018953Y-95415722D01*
X158341869Y-95415722D01*
X158341869Y-95362806D01*
X158447702Y-95362806D01*
X158447702Y-95283430D01*
X158500619Y-95283430D01*
X158500619Y-95098222D01*
X158459780Y-95095936D01*
X158427685Y-95094627D01*
X158414046Y-95094437D01*
X158401546Y-95094607D01*
X158389836Y-95095177D01*
X158378570Y-95096185D01*
X158367396Y-95097670D01*
X158355967Y-95099671D01*
X158343934Y-95102227D01*
X158330947Y-95105376D01*
X158300720Y-95113609D01*
X158262494Y-95124681D01*
X158232480Y-95126167D01*
X158202440Y-95127113D01*
X158172387Y-95127594D01*
X158142333Y-95127684D01*
X158066901Y-95127678D01*
X157985302Y-95127264D01*
X157901887Y-95127151D01*
X157637416Y-95126334D01*
X157458409Y-95125972D01*
X157018953Y-95124681D01*
X156992494Y-95124681D01*
X156992494Y-95098222D01*
X157109826Y-95096213D01*
X157540587Y-95088371D01*
X157727062Y-95085064D01*
X157995017Y-95080136D01*
X158079296Y-95078795D01*
X158157927Y-95077196D01*
X158227007Y-95075950D01*
X158248850Y-95074158D01*
X158270162Y-95071778D01*
X158291086Y-95068813D01*
X158311761Y-95065266D01*
X158332327Y-95061139D01*
X158352927Y-95056435D01*
X158373699Y-95051156D01*
X158394786Y-95045305D01*
X158396656Y-94987434D01*
X158398093Y-94929550D01*
X158399954Y-94864438D01*
X158400000Y-94843582D01*
X158399793Y-94834963D01*
X158399320Y-94827333D01*
X158398494Y-94820532D01*
X158397923Y-94817392D01*
X158397232Y-94814398D01*
X158396411Y-94811532D01*
X158395449Y-94808771D01*
X158394334Y-94806096D01*
X158393058Y-94803488D01*
X158391608Y-94800925D01*
X158389975Y-94798388D01*
X158388147Y-94795857D01*
X158386115Y-94793310D01*
X158383867Y-94790729D01*
X158381392Y-94788093D01*
X158375723Y-94782575D01*
X158369021Y-94776594D01*
X158361201Y-94769989D01*
X158341869Y-94754264D01*
X158323009Y-94747793D01*
X158303995Y-94742228D01*
X158284840Y-94737498D01*
X158265556Y-94733532D01*
X158246158Y-94730257D01*
X158226657Y-94727602D01*
X158207067Y-94725496D01*
X158187402Y-94723868D01*
X158147896Y-94721756D01*
X158108243Y-94720694D01*
X158028917Y-94719434D01*
X157968864Y-94717768D01*
X157779630Y-94712923D01*
X157651059Y-94709460D01*
X157336453Y-94701347D01*
X157336453Y-94674889D01*
X157757292Y-94673435D01*
X157900333Y-94672893D01*
X158106431Y-94672305D01*
X158170591Y-94671891D01*
X158203903Y-94672049D01*
X158236649Y-94672599D01*
X158269005Y-94673643D01*
X158301143Y-94675288D01*
X158333238Y-94677635D01*
X158365463Y-94680789D01*
X158397992Y-94684854D01*
X158430998Y-94689933D01*
X158454988Y-94695609D01*
X158464990Y-94697781D01*
X158473954Y-94699479D01*
X158482098Y-94700682D01*
X158489640Y-94701366D01*
X158496799Y-94701511D01*
X158503793Y-94701094D01*
X158510840Y-94700093D01*
X158518159Y-94698487D01*
X158525967Y-94696252D01*
X158534483Y-94693367D01*
X158543926Y-94689811D01*
X158554513Y-94685560D01*
X158579994Y-94674889D01*
X158581315Y-94648076D01*
X158581732Y-94636928D01*
X158581934Y-94626976D01*
X158581883Y-94617986D01*
X158581540Y-94609726D01*
X158580867Y-94601965D01*
X158579824Y-94594468D01*
X158578374Y-94587004D01*
X158576476Y-94579341D01*
X158574093Y-94571244D01*
X158571185Y-94562483D01*
X158567714Y-94552825D01*
X158563642Y-94542036D01*
X158553536Y-94516139D01*
X158474161Y-94516139D01*
X158474161Y-94436764D01*
X158421244Y-94410306D01*
X158436872Y-94413407D01*
G37*
G36*
X156039994Y-94489680D02*
G01*
X156039994Y-94595514D01*
X156052475Y-94615058D01*
X156062365Y-94630318D01*
X156070593Y-94642533D01*
X156074375Y-94647887D01*
X156078090Y-94652944D01*
X156081855Y-94657860D01*
X156085786Y-94662790D01*
X156094611Y-94673313D01*
X156105495Y-94685752D01*
X156119369Y-94701347D01*
X156091779Y-94688646D01*
X156065686Y-94675699D01*
X156053165Y-94669001D01*
X156040976Y-94662082D01*
X156029103Y-94654890D01*
X156017534Y-94647370D01*
X156006252Y-94639470D01*
X155995245Y-94631136D01*
X155984498Y-94622316D01*
X155973997Y-94612956D01*
X155963727Y-94603003D01*
X155953673Y-94592404D01*
X155943823Y-94581106D01*
X155934161Y-94569056D01*
X155934161Y-94463222D01*
X156039994Y-94489680D01*
G37*
G36*
X160832284Y-94395304D02*
G01*
X160888484Y-94406998D01*
X160951736Y-94420021D01*
X160974358Y-94426507D01*
X160996159Y-94433589D01*
X161017320Y-94441287D01*
X161038028Y-94449619D01*
X161058465Y-94458605D01*
X161078816Y-94468265D01*
X161099264Y-94478617D01*
X161119994Y-94489680D01*
X161106429Y-94505533D01*
X161092446Y-94520161D01*
X161078049Y-94533657D01*
X161063244Y-94546113D01*
X161048035Y-94557623D01*
X161032427Y-94568281D01*
X161016424Y-94578179D01*
X161000031Y-94587410D01*
X160983253Y-94596067D01*
X160966094Y-94604244D01*
X160948560Y-94612034D01*
X160930654Y-94619529D01*
X160893747Y-94634010D01*
X160855411Y-94648431D01*
X160776035Y-94648431D01*
X160776035Y-94542597D01*
X160283010Y-94562299D01*
X160115243Y-94568913D01*
X159874282Y-94578771D01*
X159798357Y-94581451D01*
X159727747Y-94584649D01*
X159665611Y-94587141D01*
X159645037Y-94589162D01*
X159636439Y-94590192D01*
X159628707Y-94591357D01*
X159621646Y-94592745D01*
X159615061Y-94594446D01*
X159608757Y-94596550D01*
X159602539Y-94599146D01*
X159596213Y-94602325D01*
X159589582Y-94606177D01*
X159582452Y-94610790D01*
X159574628Y-94616256D01*
X159565916Y-94622663D01*
X159556119Y-94630101D01*
X159532494Y-94648431D01*
X159509989Y-94650601D01*
X159492290Y-94652151D01*
X159477846Y-94653081D01*
X159471361Y-94653314D01*
X159465108Y-94653392D01*
X159458894Y-94653314D01*
X159452525Y-94653081D01*
X159438546Y-94652151D01*
X159421622Y-94650601D01*
X159400202Y-94648431D01*
X159382723Y-94630835D01*
X159375625Y-94623461D01*
X159369506Y-94616805D01*
X159364279Y-94610691D01*
X159361972Y-94607783D01*
X159359856Y-94604945D01*
X159357919Y-94602156D01*
X159356150Y-94599393D01*
X159354538Y-94596635D01*
X159353073Y-94593860D01*
X159351744Y-94591047D01*
X159350540Y-94588173D01*
X159349449Y-94585216D01*
X159348461Y-94582156D01*
X159347566Y-94578969D01*
X159346751Y-94575635D01*
X159345322Y-94568435D01*
X159344087Y-94560384D01*
X159342958Y-94551305D01*
X159340671Y-94529368D01*
X159342958Y-94507431D01*
X159344087Y-94498353D01*
X159345322Y-94490301D01*
X159346751Y-94483102D01*
X159348461Y-94476581D01*
X159350540Y-94470564D01*
X159351744Y-94467689D01*
X159353073Y-94464876D01*
X159354538Y-94462101D01*
X159356150Y-94459343D01*
X159359856Y-94453791D01*
X159364279Y-94448046D01*
X159369506Y-94441932D01*
X159375625Y-94435275D01*
X159382723Y-94427901D01*
X159400202Y-94410306D01*
X159457714Y-94415418D01*
X159501393Y-94419719D01*
X159518819Y-94421759D01*
X159533718Y-94423829D01*
X159546399Y-94426006D01*
X159557171Y-94428368D01*
X159566346Y-94430993D01*
X159574233Y-94433957D01*
X159581141Y-94437339D01*
X159587382Y-94441216D01*
X159593265Y-94445665D01*
X159599101Y-94450764D01*
X159611869Y-94463222D01*
X159625583Y-94464060D01*
X159639306Y-94464742D01*
X159666774Y-94465684D01*
X159694257Y-94466146D01*
X159721739Y-94466226D01*
X159792362Y-94466220D01*
X159869114Y-94465806D01*
X159947304Y-94465693D01*
X160195606Y-94464876D01*
X160363503Y-94464514D01*
X160776035Y-94463222D01*
X160776035Y-94383847D01*
X160832284Y-94395304D01*
G37*
G36*
X154637703Y-95442180D02*
G01*
X154293744Y-95442180D01*
X154293744Y-93643014D01*
X154637703Y-93643014D01*
X154637703Y-95442180D01*
G37*
G36*
X155325619Y-95442180D02*
G01*
X154981661Y-95442180D01*
X154981661Y-93643014D01*
X155325619Y-93643014D01*
X155325619Y-95442180D01*
G37*
G36*
X156278119Y-93881139D02*
G01*
X156331036Y-93907597D01*
X156092911Y-93960514D01*
X156121540Y-93921240D01*
X156132211Y-93907029D01*
X156142107Y-93894368D01*
X156152468Y-93881707D01*
X156164534Y-93867496D01*
X156198744Y-93828222D01*
X156278119Y-93828222D01*
X156278119Y-93881139D01*
G37*
G36*
X159082702Y-95283430D02*
G01*
X159135619Y-95309889D01*
X159109306Y-95327336D01*
X159098437Y-95334357D01*
X159088826Y-95340326D01*
X159080271Y-95345307D01*
X159072571Y-95349363D01*
X159065524Y-95352557D01*
X159058931Y-95354951D01*
X159055742Y-95355868D01*
X159052590Y-95356608D01*
X159049451Y-95357181D01*
X159046299Y-95357593D01*
X159039859Y-95357967D01*
X159033067Y-95357793D01*
X159025723Y-95357135D01*
X159017625Y-95356055D01*
X158998366Y-95352884D01*
X158950411Y-95336347D01*
X158949783Y-95303279D01*
X158949584Y-95270202D01*
X158949798Y-95237125D01*
X158950411Y-95204056D01*
X158976869Y-95177597D01*
X159082702Y-95177597D01*
X159082702Y-95283430D01*
G37*
G36*
X160696661Y-95574472D02*
G01*
X160643744Y-95680305D01*
X160564369Y-95680305D01*
X160564369Y-95627389D01*
X160516723Y-95632246D01*
X160299786Y-95653847D01*
X160224855Y-95661495D01*
X160171203Y-95666447D01*
X160117769Y-95670741D01*
X160064469Y-95674335D01*
X160011220Y-95677186D01*
X159957940Y-95679251D01*
X159904544Y-95680488D01*
X159850951Y-95680854D01*
X159797077Y-95680305D01*
X159770619Y-95627389D01*
X160084811Y-95600931D01*
X160173695Y-95593282D01*
X160304496Y-95583767D01*
X160369741Y-95580062D01*
X160434958Y-95577138D01*
X160500202Y-95575058D01*
X160565530Y-95573879D01*
X160630997Y-95573664D01*
X160696661Y-95574472D01*
G37*
G36*
X159774358Y-95660320D02*
G01*
X159786124Y-95661165D01*
X159797976Y-95662514D01*
X159810012Y-95664352D01*
X159822334Y-95666663D01*
X159835039Y-95669430D01*
X159848228Y-95672637D01*
X159876452Y-95680305D01*
X159902911Y-95786139D01*
X159585410Y-95786139D01*
X159594260Y-95759874D01*
X159598070Y-95749121D01*
X159601637Y-95739733D01*
X159605088Y-95731548D01*
X159608549Y-95724398D01*
X159612145Y-95718121D01*
X159616003Y-95712552D01*
X159618070Y-95709981D01*
X159620249Y-95707524D01*
X159625008Y-95702875D01*
X159630406Y-95698439D01*
X159636571Y-95694051D01*
X159643626Y-95689548D01*
X159651699Y-95684763D01*
X159671401Y-95673691D01*
X159686056Y-95669911D01*
X159700003Y-95666766D01*
X159713340Y-95664240D01*
X159726167Y-95662316D01*
X159738583Y-95660978D01*
X159750687Y-95660211D01*
X159762579Y-95659997D01*
X159774358Y-95660320D01*
G37*
G36*
X160696661Y-95574472D02*
G01*
X160690574Y-95591146D01*
X160685576Y-95604355D01*
X160683292Y-95610047D01*
X160681048Y-95615339D01*
X160678766Y-95620385D01*
X160676369Y-95625340D01*
X160673780Y-95630358D01*
X160670920Y-95635596D01*
X160667712Y-95641208D01*
X160664079Y-95647349D01*
X160655227Y-95661839D01*
X160643744Y-95680305D01*
X160610721Y-95694156D01*
X160577051Y-95706756D01*
X160542804Y-95718194D01*
X160508048Y-95728556D01*
X160472852Y-95737932D01*
X160437287Y-95746408D01*
X160365325Y-95761014D01*
X160292715Y-95773077D01*
X160220011Y-95783297D01*
X160076544Y-95801022D01*
X159998415Y-95810879D01*
X159721515Y-95841176D01*
X159443993Y-95865809D01*
X159165984Y-95885297D01*
X158887622Y-95900162D01*
X158609041Y-95910925D01*
X158330375Y-95918106D01*
X157773325Y-95923805D01*
X157682545Y-95924031D01*
X157205084Y-95924787D01*
X156820121Y-95925872D01*
X156316365Y-95926312D01*
X155813106Y-95921165D01*
X155310047Y-95907727D01*
X155058500Y-95897052D01*
X154806891Y-95883290D01*
X154728468Y-95878602D01*
X154047773Y-95835038D01*
X153829782Y-95817564D01*
X153670860Y-95799861D01*
X153608275Y-95790199D01*
X153554130Y-95779608D01*
X153506313Y-95767799D01*
X153462716Y-95754481D01*
X153379740Y-95722154D01*
X153288328Y-95680305D01*
X153270747Y-95648011D01*
X153264595Y-95636423D01*
X153259374Y-95626221D01*
X153254466Y-95616166D01*
X153249249Y-95605016D01*
X153235411Y-95574472D01*
X153300280Y-95574048D01*
X153364987Y-95574313D01*
X153429576Y-95575277D01*
X153494095Y-95576949D01*
X153558589Y-95579339D01*
X153623104Y-95582455D01*
X153687686Y-95586307D01*
X153752382Y-95590905D01*
X153823207Y-95596054D01*
X154118251Y-95617938D01*
X154556397Y-95646612D01*
X154994617Y-95668103D01*
X155433114Y-95683428D01*
X155872091Y-95693606D01*
X156132340Y-95698651D01*
X156592166Y-95705026D01*
X157051902Y-95706619D01*
X157511635Y-95703775D01*
X157971452Y-95696842D01*
X158060527Y-95695149D01*
X158603176Y-95682160D01*
X159145731Y-95662423D01*
X159687791Y-95632912D01*
X159958511Y-95613546D01*
X160228957Y-95590602D01*
X160287515Y-95585727D01*
X160345932Y-95581724D01*
X160404266Y-95578564D01*
X160462572Y-95576221D01*
X160520908Y-95574667D01*
X160579330Y-95573876D01*
X160637896Y-95573820D01*
X160696661Y-95574472D01*
G37*
G36*
X156860202Y-95442180D02*
G01*
X156743630Y-95445935D01*
X156627038Y-95448795D01*
X156560221Y-95451482D01*
X156515533Y-95451871D01*
X156493586Y-95451652D01*
X156471774Y-95451016D01*
X156450001Y-95449856D01*
X156428171Y-95448068D01*
X156406187Y-95445544D01*
X156383952Y-95442180D01*
X156365790Y-95424475D01*
X156351842Y-95410529D01*
X156346158Y-95404578D01*
X156341179Y-95399102D01*
X156336789Y-95393945D01*
X156332870Y-95388954D01*
X156329308Y-95383972D01*
X156325986Y-95378845D01*
X156322787Y-95373417D01*
X156319596Y-95367534D01*
X156316296Y-95361040D01*
X156312770Y-95353782D01*
X156304577Y-95336347D01*
X156410411Y-95362806D01*
X156410411Y-95415722D01*
X156502199Y-95410965D01*
X156593966Y-95405800D01*
X156697215Y-95400219D01*
X156780827Y-95389264D01*
X156807286Y-95336347D01*
X156860202Y-95442180D01*
G37*
G36*
X153400000Y-95600000D02*
G01*
X153413662Y-95600704D01*
X153425580Y-95601757D01*
X153436103Y-95603198D01*
X153445579Y-95605065D01*
X153454358Y-95607397D01*
X153462787Y-95610232D01*
X153471217Y-95613611D01*
X153479996Y-95617570D01*
X153499994Y-95627389D01*
X153499994Y-95680305D01*
X153261869Y-95653847D01*
X153261869Y-95600931D01*
X153320935Y-95599897D01*
X153366049Y-95599484D01*
X153400000Y-95600000D01*
G37*
G36*
X154760396Y-95967989D02*
G01*
X154767983Y-95968924D01*
X154774889Y-95969994D01*
X154781310Y-95971283D01*
X154787442Y-95972876D01*
X154793479Y-95974859D01*
X154799618Y-95977316D01*
X154806053Y-95980332D01*
X154812981Y-95983994D01*
X154820596Y-95988385D01*
X154829094Y-95993591D01*
X154838671Y-95999696D01*
X154849522Y-96006787D01*
X154875827Y-96024264D01*
X154854512Y-96029031D01*
X154834238Y-96033129D01*
X154814871Y-96036518D01*
X154796277Y-96039157D01*
X154778324Y-96041008D01*
X154760876Y-96042028D01*
X154743801Y-96042179D01*
X154726964Y-96041421D01*
X154710231Y-96039713D01*
X154693469Y-96037016D01*
X154676544Y-96033288D01*
X154659322Y-96028492D01*
X154641668Y-96022585D01*
X154623451Y-96015528D01*
X154604534Y-96007282D01*
X154584786Y-95997805D01*
X154584786Y-95971347D01*
X154685658Y-95968040D01*
X154742399Y-95966180D01*
X154760396Y-95967989D01*
G37*
G36*
X156638267Y-96041339D02*
G01*
X156601682Y-96055873D01*
X156565188Y-96068049D01*
X156528735Y-96078050D01*
X156492274Y-96086062D01*
X156455755Y-96092267D01*
X156419127Y-96096849D01*
X156382342Y-96099992D01*
X156345348Y-96101879D01*
X156308097Y-96102695D01*
X156232620Y-96101846D01*
X156076374Y-96095370D01*
X155985630Y-96092529D01*
X155898401Y-96089066D01*
X155819168Y-96086037D01*
X155795785Y-96083010D01*
X155785917Y-96081582D01*
X155776921Y-96080090D01*
X155768539Y-96078443D01*
X155760514Y-96076552D01*
X155752587Y-96074325D01*
X155744500Y-96071673D01*
X155735996Y-96068504D01*
X155726817Y-96064728D01*
X155716705Y-96060255D01*
X155705401Y-96054995D01*
X155678190Y-96041748D01*
X155643119Y-96024264D01*
X156674994Y-96024264D01*
X156638267Y-96041339D01*
G37*
G36*
X159848341Y-94539290D02*
G01*
X159926113Y-94540013D01*
X160020348Y-94541126D01*
X160114578Y-94542597D01*
X160114578Y-94569056D01*
X160069690Y-94570645D01*
X159968931Y-94574666D01*
X159868184Y-94578977D01*
X159797543Y-94581458D01*
X159729588Y-94584558D01*
X159667027Y-94587078D01*
X159646048Y-94589062D01*
X159637285Y-94590079D01*
X159629411Y-94591232D01*
X159622228Y-94592612D01*
X159615540Y-94594308D01*
X159609149Y-94596410D01*
X159602858Y-94599008D01*
X159596470Y-94602192D01*
X159589789Y-94606051D01*
X159582617Y-94610676D01*
X159574756Y-94616157D01*
X159566011Y-94622583D01*
X159556183Y-94630044D01*
X159532494Y-94648431D01*
X159490429Y-94650291D01*
X159475521Y-94650756D01*
X159462627Y-94650911D01*
X159450199Y-94650756D01*
X159436686Y-94650291D01*
X159400202Y-94648431D01*
X159373744Y-94595514D01*
X159403646Y-94585539D01*
X159433250Y-94576753D01*
X159462611Y-94569088D01*
X159491788Y-94562471D01*
X159520838Y-94556833D01*
X159549818Y-94552103D01*
X159578785Y-94548212D01*
X159607796Y-94545088D01*
X159636908Y-94542662D01*
X159666179Y-94540862D01*
X159725426Y-94538862D01*
X159785994Y-94538526D01*
X159848341Y-94539290D01*
G37*
G36*
X157583926Y-93640016D02*
G01*
X157663358Y-93640430D01*
X157744879Y-93640544D01*
X158002872Y-93641360D01*
X158177693Y-93641722D01*
X158606452Y-93643014D01*
X158606452Y-93986972D01*
X158500845Y-93988141D01*
X158113427Y-93993916D01*
X157945659Y-93996138D01*
X157825176Y-93997791D01*
X157704699Y-93999891D01*
X157628774Y-94000404D01*
X157558164Y-94001991D01*
X157496027Y-94002881D01*
X157483710Y-94005491D01*
X157472350Y-94008311D01*
X157461855Y-94011384D01*
X157452136Y-94014749D01*
X157443100Y-94018448D01*
X157434659Y-94022520D01*
X157426720Y-94027008D01*
X157419193Y-94031952D01*
X157411987Y-94037392D01*
X157405011Y-94043370D01*
X157398175Y-94049926D01*
X157391388Y-94057100D01*
X157384559Y-94064935D01*
X157377597Y-94073470D01*
X157370411Y-94082747D01*
X157362911Y-94092806D01*
X157359293Y-94123918D01*
X157356709Y-94148414D01*
X157355804Y-94158860D01*
X157355158Y-94168466D01*
X157354770Y-94177503D01*
X157354641Y-94186243D01*
X157354770Y-94194957D01*
X157355158Y-94203916D01*
X157355804Y-94213392D01*
X157356709Y-94223655D01*
X157359293Y-94247631D01*
X157362911Y-94278014D01*
X157370037Y-94284926D01*
X157377062Y-94291313D01*
X157383997Y-94297195D01*
X157390855Y-94302592D01*
X157397649Y-94307524D01*
X157404393Y-94312012D01*
X157411098Y-94316075D01*
X157417777Y-94319735D01*
X157424444Y-94323011D01*
X157431111Y-94325924D01*
X157437790Y-94328494D01*
X157444495Y-94330741D01*
X157451238Y-94332685D01*
X157458033Y-94334347D01*
X157471826Y-94336906D01*
X157485976Y-94338578D01*
X157500586Y-94339527D01*
X157515758Y-94339913D01*
X157531594Y-94339901D01*
X157565666Y-94339325D01*
X157603619Y-94339096D01*
X157719220Y-94341111D01*
X157900856Y-94343003D01*
X158082317Y-94345117D01*
X158220899Y-94348712D01*
X158276785Y-94351687D01*
X158325161Y-94355778D01*
X158367097Y-94361235D01*
X158403663Y-94368306D01*
X158435929Y-94377239D01*
X158464964Y-94388284D01*
X158491839Y-94401690D01*
X158517624Y-94417705D01*
X158543388Y-94436578D01*
X158570202Y-94458557D01*
X158631257Y-94512832D01*
X158674975Y-94550659D01*
X158685070Y-94563277D01*
X158694486Y-94576023D01*
X158703246Y-94588894D01*
X158711373Y-94601888D01*
X158725818Y-94628237D01*
X158738006Y-94655051D01*
X158748121Y-94682314D01*
X158756346Y-94710007D01*
X158762865Y-94738113D01*
X158767863Y-94766615D01*
X158771523Y-94795494D01*
X158774029Y-94824734D01*
X158775565Y-94854316D01*
X158776314Y-94884224D01*
X158776189Y-94944944D01*
X158775124Y-95006755D01*
X158772237Y-95030335D01*
X158768771Y-95052942D01*
X158764679Y-95074650D01*
X158759913Y-95095536D01*
X158754426Y-95115677D01*
X158748170Y-95135150D01*
X158741099Y-95154029D01*
X158733164Y-95172393D01*
X158724318Y-95190317D01*
X158714514Y-95207878D01*
X158703704Y-95225151D01*
X158691841Y-95242214D01*
X158678878Y-95259143D01*
X158664767Y-95276015D01*
X158649460Y-95292904D01*
X158632911Y-95309889D01*
X158607898Y-95328182D01*
X158582952Y-95344935D01*
X158558011Y-95360196D01*
X158533013Y-95374016D01*
X158507895Y-95386441D01*
X158482596Y-95397523D01*
X158457053Y-95407309D01*
X158431205Y-95415849D01*
X158404990Y-95423192D01*
X158378345Y-95429386D01*
X158351209Y-95434481D01*
X158323519Y-95438526D01*
X158295214Y-95441570D01*
X158266232Y-95443662D01*
X158236509Y-95444850D01*
X158205986Y-95445184D01*
X158124145Y-95445178D01*
X158036358Y-95444764D01*
X157946052Y-95444651D01*
X157660567Y-95443834D01*
X157466987Y-95443472D01*
X156992494Y-95442180D01*
X156992494Y-95098222D01*
X157109826Y-95096213D01*
X157540587Y-95088371D01*
X157727062Y-95085064D01*
X157995017Y-95080136D01*
X158079296Y-95078795D01*
X158157927Y-95077196D01*
X158227007Y-95075950D01*
X158248850Y-95074158D01*
X158270162Y-95071778D01*
X158291086Y-95068813D01*
X158311761Y-95065266D01*
X158332327Y-95061139D01*
X158352927Y-95056435D01*
X158373699Y-95051156D01*
X158394786Y-95045305D01*
X158396656Y-94987434D01*
X158398093Y-94929550D01*
X158399954Y-94864438D01*
X158400000Y-94843582D01*
X158399793Y-94834963D01*
X158399320Y-94827333D01*
X158398494Y-94820532D01*
X158397923Y-94817392D01*
X158397232Y-94814398D01*
X158396411Y-94811532D01*
X158395449Y-94808771D01*
X158394334Y-94806096D01*
X158393058Y-94803488D01*
X158391608Y-94800925D01*
X158389975Y-94798388D01*
X158388147Y-94795857D01*
X158386115Y-94793310D01*
X158383867Y-94790729D01*
X158381392Y-94788093D01*
X158375723Y-94782575D01*
X158369021Y-94776594D01*
X158361201Y-94769989D01*
X158341869Y-94754264D01*
X158323285Y-94747877D01*
X158304572Y-94742411D01*
X158285740Y-94737793D01*
X158266800Y-94733951D01*
X158247760Y-94730813D01*
X158228630Y-94728308D01*
X158209419Y-94726363D01*
X158190138Y-94724907D01*
X158151403Y-94723174D01*
X158112499Y-94722532D01*
X158034498Y-94722224D01*
X157914712Y-94719951D01*
X157820837Y-94718421D01*
X157726958Y-94717186D01*
X157635985Y-94715777D01*
X157545018Y-94713956D01*
X157488879Y-94713696D01*
X157462393Y-94712635D01*
X157436747Y-94710769D01*
X157411875Y-94708066D01*
X157387712Y-94704492D01*
X157364193Y-94700017D01*
X157341253Y-94694608D01*
X157318827Y-94688233D01*
X157296849Y-94680860D01*
X157275254Y-94672456D01*
X157253977Y-94662989D01*
X157232952Y-94652428D01*
X157212115Y-94640741D01*
X157191399Y-94627894D01*
X157170741Y-94613856D01*
X157150074Y-94598595D01*
X157129333Y-94582078D01*
X157110478Y-94560056D01*
X157092831Y-94538202D01*
X157076380Y-94516426D01*
X157061114Y-94494634D01*
X157047020Y-94472737D01*
X157034088Y-94450641D01*
X157022305Y-94428256D01*
X157011660Y-94405490D01*
X157002141Y-94382251D01*
X156993735Y-94358447D01*
X156986432Y-94333987D01*
X156980219Y-94308780D01*
X156975085Y-94282733D01*
X156971017Y-94255755D01*
X156968005Y-94227754D01*
X156966036Y-94198639D01*
X156968639Y-94168409D01*
X156971883Y-94138793D01*
X156975840Y-94109767D01*
X156980581Y-94081307D01*
X156986178Y-94053389D01*
X156992703Y-94025990D01*
X157000227Y-93999085D01*
X157008824Y-93972652D01*
X157018563Y-93946667D01*
X157029518Y-93921105D01*
X157041760Y-93895943D01*
X157055360Y-93871158D01*
X157070391Y-93846725D01*
X157086925Y-93822621D01*
X157105032Y-93798823D01*
X157124786Y-93775306D01*
X157147464Y-93759589D01*
X157170054Y-93744749D01*
X157192615Y-93730804D01*
X157215206Y-93717775D01*
X157237886Y-93705682D01*
X157260714Y-93694543D01*
X157283748Y-93684379D01*
X157307049Y-93675209D01*
X157330674Y-93667053D01*
X157354684Y-93659931D01*
X157379136Y-93653863D01*
X157404090Y-93648867D01*
X157429605Y-93644964D01*
X157455739Y-93642174D01*
X157482553Y-93640516D01*
X157510104Y-93640010D01*
X157583926Y-93640016D01*
G37*
G36*
X157317474Y-93676397D02*
G01*
X157325187Y-93677327D01*
X157333365Y-93678877D01*
X157342240Y-93681048D01*
X157352046Y-93683838D01*
X157363014Y-93687249D01*
X157389369Y-93695931D01*
X157338106Y-93719082D01*
X157318722Y-93727519D01*
X157310793Y-93731153D01*
X157303881Y-93734560D01*
X157297868Y-93737861D01*
X157292635Y-93741175D01*
X157290273Y-93742876D01*
X157288062Y-93744626D01*
X157285987Y-93746440D01*
X157284033Y-93748333D01*
X157282184Y-93750320D01*
X157280426Y-93752418D01*
X157278745Y-93754639D01*
X157277125Y-93757001D01*
X157274011Y-93762205D01*
X157270963Y-93768150D01*
X157267865Y-93774957D01*
X157264597Y-93782748D01*
X157257077Y-93801764D01*
X157204161Y-93801764D01*
X157204161Y-93854681D01*
X157166747Y-93895815D01*
X157153001Y-93910491D01*
X157140496Y-93923307D01*
X157127680Y-93935813D01*
X157113004Y-93949559D01*
X157071869Y-93986972D01*
X157018953Y-93986972D01*
X157025759Y-93959867D01*
X157033103Y-93934838D01*
X157041054Y-93911696D01*
X157049679Y-93890250D01*
X157059047Y-93870309D01*
X157069226Y-93851684D01*
X157080285Y-93834184D01*
X157092290Y-93817620D01*
X157105311Y-93801800D01*
X157119416Y-93786534D01*
X157134672Y-93771633D01*
X157151149Y-93756906D01*
X157168914Y-93742162D01*
X157188035Y-93727212D01*
X157208581Y-93711865D01*
X157230619Y-93695931D01*
X157256974Y-93687249D01*
X157267942Y-93683838D01*
X157277748Y-93681048D01*
X157286624Y-93678877D01*
X157294801Y-93677327D01*
X157302514Y-93676397D01*
X157309994Y-93676087D01*
X157317474Y-93676397D01*
G37*
G36*
X160031743Y-95943258D02*
G01*
X160088119Y-95944889D01*
X160088119Y-95997805D01*
X160070467Y-96008315D01*
X160053132Y-96017480D01*
X160036040Y-96025388D01*
X160019121Y-96032128D01*
X160002304Y-96037788D01*
X159985518Y-96042456D01*
X159968692Y-96046221D01*
X159951754Y-96049171D01*
X159934633Y-96051394D01*
X159917258Y-96052979D01*
X159899558Y-96054014D01*
X159881462Y-96054587D01*
X159843796Y-96054702D01*
X159803692Y-96054029D01*
X159709847Y-96052583D01*
X159638327Y-96050722D01*
X159638327Y-95997805D01*
X159652873Y-95991100D01*
X159667361Y-95985504D01*
X159681813Y-95980924D01*
X159696251Y-95977266D01*
X159710697Y-95974438D01*
X159725173Y-95972345D01*
X159739701Y-95970895D01*
X159754304Y-95969994D01*
X159769003Y-95969548D01*
X159783821Y-95969465D01*
X159813900Y-95970013D01*
X159844718Y-95970889D01*
X159876452Y-95971347D01*
X159889771Y-95965126D01*
X159902879Y-95959851D01*
X159915819Y-95955451D01*
X159928634Y-95951853D01*
X159941365Y-95948985D01*
X159954057Y-95946774D01*
X159966751Y-95945148D01*
X159979489Y-95944035D01*
X159992315Y-95943361D01*
X160005271Y-95943056D01*
X160031743Y-95943258D01*
G37*
G36*
X160644122Y-95573599D02*
G01*
X160696661Y-95574472D01*
X160690574Y-95591146D01*
X160685576Y-95604355D01*
X160683292Y-95610047D01*
X160681048Y-95615339D01*
X160678766Y-95620385D01*
X160676369Y-95625340D01*
X160673780Y-95630358D01*
X160670920Y-95635596D01*
X160667712Y-95641208D01*
X160664079Y-95647349D01*
X160655227Y-95661839D01*
X160643744Y-95680305D01*
X160610722Y-95694156D01*
X160577052Y-95706756D01*
X160542805Y-95718194D01*
X160508048Y-95728556D01*
X160472853Y-95737932D01*
X160437288Y-95746409D01*
X160365325Y-95761016D01*
X160292715Y-95773078D01*
X160220011Y-95783299D01*
X160076544Y-95801022D01*
X159998764Y-95810821D01*
X159822285Y-95831080D01*
X159645401Y-95849210D01*
X159468190Y-95864829D01*
X159290731Y-95877558D01*
X159113103Y-95887017D01*
X158935385Y-95892826D01*
X158757656Y-95894604D01*
X158579994Y-95891972D01*
X158579994Y-95865514D01*
X159135619Y-95812597D01*
X159135619Y-95733222D01*
X157680411Y-95733222D01*
X157680411Y-95706764D01*
X157735210Y-95705289D01*
X158431166Y-95685267D01*
X158487443Y-95683568D01*
X158890259Y-95669738D01*
X159292663Y-95651981D01*
X159694806Y-95629130D01*
X160096839Y-95600020D01*
X160220824Y-95589975D01*
X160278185Y-95585302D01*
X160330612Y-95581570D01*
X160382906Y-95578561D01*
X160435118Y-95576253D01*
X160487295Y-95574624D01*
X160539489Y-95573653D01*
X160591748Y-95573319D01*
X160644122Y-95573599D01*
G37*
G36*
X153832771Y-95916267D02*
G01*
X153857647Y-95917449D01*
X153868125Y-95918163D01*
X153877639Y-95919018D01*
X153886446Y-95920057D01*
X153894802Y-95921324D01*
X153902965Y-95922862D01*
X153911190Y-95924716D01*
X153919735Y-95926927D01*
X153928857Y-95929541D01*
X153949857Y-95936149D01*
X153976244Y-95944889D01*
X153949786Y-96050722D01*
X153847260Y-96027571D01*
X153789589Y-96014549D01*
X153772497Y-96008919D01*
X153765378Y-96006437D01*
X153759006Y-96004042D01*
X153753230Y-96001631D01*
X153747895Y-95999103D01*
X153742849Y-95996354D01*
X153737938Y-95993284D01*
X153733011Y-95989789D01*
X153727914Y-95985769D01*
X153722495Y-95981121D01*
X153716599Y-95975743D01*
X153710075Y-95969532D01*
X153702770Y-95962388D01*
X153685203Y-95944889D01*
X153689882Y-95940231D01*
X153694110Y-95936149D01*
X153696109Y-95934311D01*
X153698058Y-95932600D01*
X153699979Y-95931012D01*
X153701894Y-95929541D01*
X153703823Y-95928181D01*
X153705788Y-95926927D01*
X153707810Y-95925774D01*
X153709910Y-95924716D01*
X153712110Y-95923747D01*
X153714430Y-95922862D01*
X153716891Y-95922057D01*
X153719516Y-95921324D01*
X153722324Y-95920660D01*
X153725338Y-95920057D01*
X153728579Y-95919512D01*
X153732067Y-95919018D01*
X153735824Y-95918570D01*
X153739871Y-95918163D01*
X153744229Y-95917791D01*
X153748920Y-95917449D01*
X153759383Y-95916831D01*
X153771431Y-95916267D01*
X153800958Y-95915123D01*
X153832771Y-95916267D01*
G37*
G36*
X155907703Y-94939472D02*
G01*
X155748953Y-94807181D01*
X155775256Y-94789714D01*
X155795668Y-94776588D01*
X155804149Y-94771459D01*
X155811739Y-94767183D01*
X155818632Y-94763682D01*
X155825020Y-94760878D01*
X155831099Y-94758695D01*
X155837061Y-94757054D01*
X155843100Y-94755879D01*
X155849411Y-94755091D01*
X155856188Y-94754613D01*
X155863622Y-94754367D01*
X155881244Y-94754264D01*
X155907703Y-94939472D01*
G37*
G36*
X160346088Y-95625735D02*
G01*
X160439932Y-95626459D01*
X160511453Y-95627389D01*
X160511453Y-95680305D01*
X160326244Y-95680305D01*
X160326244Y-95733222D01*
X160061661Y-95733222D01*
X160061661Y-95653847D01*
X160079500Y-95648573D01*
X160097218Y-95643978D01*
X160114838Y-95640018D01*
X160132386Y-95636648D01*
X160149884Y-95633822D01*
X160167357Y-95631495D01*
X160184831Y-95629622D01*
X160202328Y-95628158D01*
X160237492Y-95626275D01*
X160273043Y-95625485D01*
X160346088Y-95625735D01*
G37*
G36*
X160458536Y-93722389D02*
G01*
X160432077Y-93828222D01*
X160352702Y-93828222D01*
X160326244Y-93748847D01*
X160379160Y-93695931D01*
X160458536Y-93722389D01*
G37*
G36*
X156198744Y-95098222D02*
G01*
X156198744Y-95177597D01*
X156251661Y-95177597D01*
X156304577Y-95336347D01*
X156239097Y-95282435D01*
X156189077Y-95240679D01*
X156151416Y-95207976D01*
X156136252Y-95194052D01*
X156123015Y-95181228D01*
X156111318Y-95169118D01*
X156100773Y-95157334D01*
X156090993Y-95145487D01*
X156081590Y-95133192D01*
X156062363Y-95105702D01*
X156039994Y-95071764D01*
X156198744Y-95098222D01*
G37*
G36*
X155907631Y-94145538D02*
G01*
X155907463Y-94156315D01*
X155907134Y-94165747D01*
X155906592Y-94174007D01*
X155905784Y-94181266D01*
X155904656Y-94187697D01*
X155903155Y-94193471D01*
X155901228Y-94198761D01*
X155898821Y-94203739D01*
X155895881Y-94208576D01*
X155892355Y-94213444D01*
X155888189Y-94218516D01*
X155883331Y-94223964D01*
X155871322Y-94236673D01*
X155828327Y-94278014D01*
X155775411Y-94383847D01*
X155457911Y-94383847D01*
X155457911Y-94357389D01*
X155563744Y-94357389D01*
X155578775Y-94355617D01*
X155593343Y-94353357D01*
X155607465Y-94350622D01*
X155621161Y-94347424D01*
X155634448Y-94343774D01*
X155647348Y-94339687D01*
X155659877Y-94335172D01*
X155672054Y-94330243D01*
X155683899Y-94324912D01*
X155695430Y-94319191D01*
X155717626Y-94306627D01*
X155738792Y-94292648D01*
X155759078Y-94277353D01*
X155778634Y-94260838D01*
X155797610Y-94243201D01*
X155816157Y-94224539D01*
X155834424Y-94204949D01*
X155870721Y-94163377D01*
X155907703Y-94119264D01*
X155907631Y-94145538D01*
G37*
G36*
X155256692Y-96325014D02*
G01*
X155286485Y-96327213D01*
X155316673Y-96330684D01*
X155347331Y-96335507D01*
X155378536Y-96341764D01*
X155404994Y-96421139D01*
X155387365Y-96438619D01*
X155379911Y-96445719D01*
X155373099Y-96451841D01*
X155369870Y-96454563D01*
X155366728Y-96457075D01*
X155363645Y-96459385D01*
X155360598Y-96461507D01*
X155357562Y-96463450D01*
X155354511Y-96465226D01*
X155351421Y-96466845D01*
X155348266Y-96468319D01*
X155345023Y-96469659D01*
X155341664Y-96470875D01*
X155338167Y-96471979D01*
X155334505Y-96472981D01*
X155330655Y-96473892D01*
X155326590Y-96474724D01*
X155317718Y-96476194D01*
X155307689Y-96477476D01*
X155296306Y-96478660D01*
X155268672Y-96481083D01*
X155168523Y-96480670D01*
X155068581Y-96481083D01*
X155039735Y-96478660D01*
X155027759Y-96477476D01*
X155017090Y-96476194D01*
X155007483Y-96474724D01*
X154998696Y-96472981D01*
X154990484Y-96470875D01*
X154982604Y-96468319D01*
X154974813Y-96465226D01*
X154966866Y-96461507D01*
X154958520Y-96457075D01*
X154949533Y-96451841D01*
X154939659Y-96445719D01*
X154928656Y-96438619D01*
X154902286Y-96421139D01*
X154902286Y-96368222D01*
X154963742Y-96355077D01*
X155023431Y-96343442D01*
X155081963Y-96333969D01*
X155110985Y-96330246D01*
X155139945Y-96327307D01*
X155168920Y-96325233D01*
X155197986Y-96324105D01*
X155227217Y-96324005D01*
X155256692Y-96325014D01*
G37*
D11*
X121867438Y-121189411D02*
X121819819Y-121284649D01*
X121819819Y-121284649D02*
X121819819Y-121427506D01*
X121819819Y-121427506D02*
X121867438Y-121570363D01*
X121867438Y-121570363D02*
X121962676Y-121665601D01*
X121962676Y-121665601D02*
X122057914Y-121713220D01*
X122057914Y-121713220D02*
X122248390Y-121760839D01*
X122248390Y-121760839D02*
X122391247Y-121760839D01*
X122391247Y-121760839D02*
X122581723Y-121713220D01*
X122581723Y-121713220D02*
X122676961Y-121665601D01*
X122676961Y-121665601D02*
X122772200Y-121570363D01*
X122772200Y-121570363D02*
X122819819Y-121427506D01*
X122819819Y-121427506D02*
X122819819Y-121332268D01*
X122819819Y-121332268D02*
X122772200Y-121189411D01*
X122772200Y-121189411D02*
X122724580Y-121141792D01*
X122724580Y-121141792D02*
X122391247Y-121141792D01*
X122391247Y-121141792D02*
X122391247Y-121332268D01*
X122819819Y-120713220D02*
X121819819Y-120713220D01*
X121819819Y-120713220D02*
X122819819Y-120141792D01*
X122819819Y-120141792D02*
X121819819Y-120141792D01*
X122819819Y-119665601D02*
X121819819Y-119665601D01*
X121819819Y-119665601D02*
X121819819Y-119427506D01*
X121819819Y-119427506D02*
X121867438Y-119284649D01*
X121867438Y-119284649D02*
X121962676Y-119189411D01*
X121962676Y-119189411D02*
X122057914Y-119141792D01*
X122057914Y-119141792D02*
X122248390Y-119094173D01*
X122248390Y-119094173D02*
X122391247Y-119094173D01*
X122391247Y-119094173D02*
X122581723Y-119141792D01*
X122581723Y-119141792D02*
X122676961Y-119189411D01*
X122676961Y-119189411D02*
X122772200Y-119284649D01*
X122772200Y-119284649D02*
X122819819Y-119427506D01*
X122819819Y-119427506D02*
X122819819Y-119665601D01*
D12*
X149964838Y-99506517D02*
X149917219Y-99601755D01*
X149917219Y-99601755D02*
X149917219Y-99744612D01*
X149917219Y-99744612D02*
X149964838Y-99887469D01*
X149964838Y-99887469D02*
X150060076Y-99982707D01*
X150060076Y-99982707D02*
X150155314Y-100030326D01*
X150155314Y-100030326D02*
X150345790Y-100077945D01*
X150345790Y-100077945D02*
X150488647Y-100077945D01*
X150488647Y-100077945D02*
X150679123Y-100030326D01*
X150679123Y-100030326D02*
X150774361Y-99982707D01*
X150774361Y-99982707D02*
X150869600Y-99887469D01*
X150869600Y-99887469D02*
X150917219Y-99744612D01*
X150917219Y-99744612D02*
X150917219Y-99649374D01*
X150917219Y-99649374D02*
X150869600Y-99506517D01*
X150869600Y-99506517D02*
X150821980Y-99458898D01*
X150821980Y-99458898D02*
X150488647Y-99458898D01*
X150488647Y-99458898D02*
X150488647Y-99649374D01*
X150917219Y-99030326D02*
X149917219Y-99030326D01*
X149917219Y-99030326D02*
X150917219Y-98458898D01*
X150917219Y-98458898D02*
X149917219Y-98458898D01*
X150917219Y-97982707D02*
X149917219Y-97982707D01*
X149917219Y-97982707D02*
X149917219Y-97744612D01*
X149917219Y-97744612D02*
X149964838Y-97601755D01*
X149964838Y-97601755D02*
X150060076Y-97506517D01*
X150060076Y-97506517D02*
X150155314Y-97458898D01*
X150155314Y-97458898D02*
X150345790Y-97411279D01*
X150345790Y-97411279D02*
X150488647Y-97411279D01*
X150488647Y-97411279D02*
X150679123Y-97458898D01*
X150679123Y-97458898D02*
X150774361Y-97506517D01*
X150774361Y-97506517D02*
X150869600Y-97601755D01*
X150869600Y-97601755D02*
X150917219Y-97744612D01*
X150917219Y-97744612D02*
X150917219Y-97982707D01*
X120917292Y-114391695D02*
X120917292Y-113591695D01*
X120917292Y-113591695D02*
X121317292Y-114163123D01*
X121317292Y-114163123D02*
X121717292Y-113591695D01*
X121717292Y-113591695D02*
X121717292Y-114391695D01*
X122974435Y-114315504D02*
X122917292Y-114353600D01*
X122917292Y-114353600D02*
X122745864Y-114391695D01*
X122745864Y-114391695D02*
X122631578Y-114391695D01*
X122631578Y-114391695D02*
X122460149Y-114353600D01*
X122460149Y-114353600D02*
X122345864Y-114277409D01*
X122345864Y-114277409D02*
X122288721Y-114201219D01*
X122288721Y-114201219D02*
X122231578Y-114048838D01*
X122231578Y-114048838D02*
X122231578Y-113934552D01*
X122231578Y-113934552D02*
X122288721Y-113782171D01*
X122288721Y-113782171D02*
X122345864Y-113705980D01*
X122345864Y-113705980D02*
X122460149Y-113629790D01*
X122460149Y-113629790D02*
X122631578Y-113591695D01*
X122631578Y-113591695D02*
X122745864Y-113591695D01*
X122745864Y-113591695D02*
X122917292Y-113629790D01*
X122917292Y-113629790D02*
X122974435Y-113667885D01*
X123488721Y-113591695D02*
X123488721Y-114239314D01*
X123488721Y-114239314D02*
X123545864Y-114315504D01*
X123545864Y-114315504D02*
X123603007Y-114353600D01*
X123603007Y-114353600D02*
X123717292Y-114391695D01*
X123717292Y-114391695D02*
X123945864Y-114391695D01*
X123945864Y-114391695D02*
X124060149Y-114353600D01*
X124060149Y-114353600D02*
X124117292Y-114315504D01*
X124117292Y-114315504D02*
X124174435Y-114239314D01*
X124174435Y-114239314D02*
X124174435Y-113591695D01*
D13*
X128572419Y-125874687D02*
X128096228Y-126208020D01*
X128572419Y-126446115D02*
X127572419Y-126446115D01*
X127572419Y-126446115D02*
X127572419Y-126065163D01*
X127572419Y-126065163D02*
X127620038Y-125969925D01*
X127620038Y-125969925D02*
X127667657Y-125922306D01*
X127667657Y-125922306D02*
X127762895Y-125874687D01*
X127762895Y-125874687D02*
X127905752Y-125874687D01*
X127905752Y-125874687D02*
X128000990Y-125922306D01*
X128000990Y-125922306D02*
X128048609Y-125969925D01*
X128048609Y-125969925D02*
X128096228Y-126065163D01*
X128096228Y-126065163D02*
X128096228Y-126446115D01*
X128524800Y-125065163D02*
X128572419Y-125160401D01*
X128572419Y-125160401D02*
X128572419Y-125350877D01*
X128572419Y-125350877D02*
X128524800Y-125446115D01*
X128524800Y-125446115D02*
X128429561Y-125493734D01*
X128429561Y-125493734D02*
X128048609Y-125493734D01*
X128048609Y-125493734D02*
X127953371Y-125446115D01*
X127953371Y-125446115D02*
X127905752Y-125350877D01*
X127905752Y-125350877D02*
X127905752Y-125160401D01*
X127905752Y-125160401D02*
X127953371Y-125065163D01*
X127953371Y-125065163D02*
X128048609Y-125017544D01*
X128048609Y-125017544D02*
X128143847Y-125017544D01*
X128143847Y-125017544D02*
X128239085Y-125493734D01*
X128524800Y-124636591D02*
X128572419Y-124541353D01*
X128572419Y-124541353D02*
X128572419Y-124350877D01*
X128572419Y-124350877D02*
X128524800Y-124255639D01*
X128524800Y-124255639D02*
X128429561Y-124208020D01*
X128429561Y-124208020D02*
X128381942Y-124208020D01*
X128381942Y-124208020D02*
X128286704Y-124255639D01*
X128286704Y-124255639D02*
X128239085Y-124350877D01*
X128239085Y-124350877D02*
X128239085Y-124493734D01*
X128239085Y-124493734D02*
X128191466Y-124588972D01*
X128191466Y-124588972D02*
X128096228Y-124636591D01*
X128096228Y-124636591D02*
X128048609Y-124636591D01*
X128048609Y-124636591D02*
X127953371Y-124588972D01*
X127953371Y-124588972D02*
X127905752Y-124493734D01*
X127905752Y-124493734D02*
X127905752Y-124350877D01*
X127905752Y-124350877D02*
X127953371Y-124255639D01*
X128524800Y-123398496D02*
X128572419Y-123493734D01*
X128572419Y-123493734D02*
X128572419Y-123684210D01*
X128572419Y-123684210D02*
X128524800Y-123779448D01*
X128524800Y-123779448D02*
X128429561Y-123827067D01*
X128429561Y-123827067D02*
X128048609Y-123827067D01*
X128048609Y-123827067D02*
X127953371Y-123779448D01*
X127953371Y-123779448D02*
X127905752Y-123684210D01*
X127905752Y-123684210D02*
X127905752Y-123493734D01*
X127905752Y-123493734D02*
X127953371Y-123398496D01*
X127953371Y-123398496D02*
X128048609Y-123350877D01*
X128048609Y-123350877D02*
X128143847Y-123350877D01*
X128143847Y-123350877D02*
X128239085Y-123827067D01*
X127905752Y-123065162D02*
X127905752Y-122684210D01*
X127572419Y-122922305D02*
X128429561Y-122922305D01*
X128429561Y-122922305D02*
X128524800Y-122874686D01*
X128524800Y-122874686D02*
X128572419Y-122779448D01*
X128572419Y-122779448D02*
X128572419Y-122684210D01*
D12*
X125241695Y-111082707D02*
X124441695Y-111082707D01*
X125165504Y-109825564D02*
X125203600Y-109882707D01*
X125203600Y-109882707D02*
X125241695Y-110054135D01*
X125241695Y-110054135D02*
X125241695Y-110168421D01*
X125241695Y-110168421D02*
X125203600Y-110339850D01*
X125203600Y-110339850D02*
X125127409Y-110454135D01*
X125127409Y-110454135D02*
X125051219Y-110511278D01*
X125051219Y-110511278D02*
X124898838Y-110568421D01*
X124898838Y-110568421D02*
X124784552Y-110568421D01*
X124784552Y-110568421D02*
X124632171Y-110511278D01*
X124632171Y-110511278D02*
X124555980Y-110454135D01*
X124555980Y-110454135D02*
X124479790Y-110339850D01*
X124479790Y-110339850D02*
X124441695Y-110168421D01*
X124441695Y-110168421D02*
X124441695Y-110054135D01*
X124441695Y-110054135D02*
X124479790Y-109882707D01*
X124479790Y-109882707D02*
X124517885Y-109825564D01*
X121317292Y-106972647D02*
X121488720Y-107010742D01*
X121488720Y-107010742D02*
X121545863Y-107048838D01*
X121545863Y-107048838D02*
X121603006Y-107125028D01*
X121603006Y-107125028D02*
X121603006Y-107239314D01*
X121603006Y-107239314D02*
X121545863Y-107315504D01*
X121545863Y-107315504D02*
X121488720Y-107353600D01*
X121488720Y-107353600D02*
X121374435Y-107391695D01*
X121374435Y-107391695D02*
X120917292Y-107391695D01*
X120917292Y-107391695D02*
X120917292Y-106591695D01*
X120917292Y-106591695D02*
X121317292Y-106591695D01*
X121317292Y-106591695D02*
X121431578Y-106629790D01*
X121431578Y-106629790D02*
X121488720Y-106667885D01*
X121488720Y-106667885D02*
X121545863Y-106744076D01*
X121545863Y-106744076D02*
X121545863Y-106820266D01*
X121545863Y-106820266D02*
X121488720Y-106896457D01*
X121488720Y-106896457D02*
X121431578Y-106934552D01*
X121431578Y-106934552D02*
X121317292Y-106972647D01*
X121317292Y-106972647D02*
X120917292Y-106972647D01*
X122117292Y-106591695D02*
X122117292Y-107239314D01*
X122117292Y-107239314D02*
X122174435Y-107315504D01*
X122174435Y-107315504D02*
X122231578Y-107353600D01*
X122231578Y-107353600D02*
X122345863Y-107391695D01*
X122345863Y-107391695D02*
X122574435Y-107391695D01*
X122574435Y-107391695D02*
X122688720Y-107353600D01*
X122688720Y-107353600D02*
X122745863Y-107315504D01*
X122745863Y-107315504D02*
X122803006Y-107239314D01*
X122803006Y-107239314D02*
X122803006Y-106591695D01*
X123317292Y-107353600D02*
X123488721Y-107391695D01*
X123488721Y-107391695D02*
X123774435Y-107391695D01*
X123774435Y-107391695D02*
X123888721Y-107353600D01*
X123888721Y-107353600D02*
X123945863Y-107315504D01*
X123945863Y-107315504D02*
X124003006Y-107239314D01*
X124003006Y-107239314D02*
X124003006Y-107163123D01*
X124003006Y-107163123D02*
X123945863Y-107086933D01*
X123945863Y-107086933D02*
X123888721Y-107048838D01*
X123888721Y-107048838D02*
X123774435Y-107010742D01*
X123774435Y-107010742D02*
X123545863Y-106972647D01*
X123545863Y-106972647D02*
X123431578Y-106934552D01*
X123431578Y-106934552D02*
X123374435Y-106896457D01*
X123374435Y-106896457D02*
X123317292Y-106820266D01*
X123317292Y-106820266D02*
X123317292Y-106744076D01*
X123317292Y-106744076D02*
X123374435Y-106667885D01*
X123374435Y-106667885D02*
X123431578Y-106629790D01*
X123431578Y-106629790D02*
X123545863Y-106591695D01*
X123545863Y-106591695D02*
X123831578Y-106591695D01*
X123831578Y-106591695D02*
X124003006Y-106629790D01*
X155276816Y-118417219D02*
X155610149Y-119417219D01*
X155610149Y-119417219D02*
X155943482Y-118417219D01*
X156467292Y-118417219D02*
X156657768Y-118417219D01*
X156657768Y-118417219D02*
X156753006Y-118464838D01*
X156753006Y-118464838D02*
X156848244Y-118560076D01*
X156848244Y-118560076D02*
X156895863Y-118750552D01*
X156895863Y-118750552D02*
X156895863Y-119083885D01*
X156895863Y-119083885D02*
X156848244Y-119274361D01*
X156848244Y-119274361D02*
X156753006Y-119369600D01*
X156753006Y-119369600D02*
X156657768Y-119417219D01*
X156657768Y-119417219D02*
X156467292Y-119417219D01*
X156467292Y-119417219D02*
X156372054Y-119369600D01*
X156372054Y-119369600D02*
X156276816Y-119274361D01*
X156276816Y-119274361D02*
X156229197Y-119083885D01*
X156229197Y-119083885D02*
X156229197Y-118750552D01*
X156229197Y-118750552D02*
X156276816Y-118560076D01*
X156276816Y-118560076D02*
X156372054Y-118464838D01*
X156372054Y-118464838D02*
X156467292Y-118417219D01*
X157324435Y-118417219D02*
X157324435Y-119226742D01*
X157324435Y-119226742D02*
X157372054Y-119321980D01*
X157372054Y-119321980D02*
X157419673Y-119369600D01*
X157419673Y-119369600D02*
X157514911Y-119417219D01*
X157514911Y-119417219D02*
X157705387Y-119417219D01*
X157705387Y-119417219D02*
X157800625Y-119369600D01*
X157800625Y-119369600D02*
X157848244Y-119321980D01*
X157848244Y-119321980D02*
X157895863Y-119226742D01*
X157895863Y-119226742D02*
X157895863Y-118417219D01*
X158229197Y-118417219D02*
X158800625Y-118417219D01*
X158514911Y-119417219D02*
X158514911Y-118417219D01*
D11*
X130419819Y-114441792D02*
X129943628Y-114775125D01*
X130419819Y-115013220D02*
X129419819Y-115013220D01*
X129419819Y-115013220D02*
X129419819Y-114632268D01*
X129419819Y-114632268D02*
X129467438Y-114537030D01*
X129467438Y-114537030D02*
X129515057Y-114489411D01*
X129515057Y-114489411D02*
X129610295Y-114441792D01*
X129610295Y-114441792D02*
X129753152Y-114441792D01*
X129753152Y-114441792D02*
X129848390Y-114489411D01*
X129848390Y-114489411D02*
X129896009Y-114537030D01*
X129896009Y-114537030D02*
X129943628Y-114632268D01*
X129943628Y-114632268D02*
X129943628Y-115013220D01*
X129419819Y-114108458D02*
X130419819Y-113441792D01*
X129419819Y-113441792D02*
X130419819Y-114108458D01*
X131869819Y-115056077D02*
X131869819Y-114484649D01*
X132869819Y-114770363D02*
X131869819Y-114770363D01*
X131869819Y-114246553D02*
X132869819Y-113579887D01*
X131869819Y-113579887D02*
X132869819Y-114246553D01*
D13*
X121803884Y-84762475D02*
X121803884Y-83762475D01*
X122280074Y-84762475D02*
X122280074Y-83762475D01*
X122708645Y-84762475D02*
X122708645Y-84238665D01*
X122708645Y-84238665D02*
X122661026Y-84143427D01*
X122661026Y-84143427D02*
X122565788Y-84095808D01*
X122565788Y-84095808D02*
X122422931Y-84095808D01*
X122422931Y-84095808D02*
X122327693Y-84143427D01*
X122327693Y-84143427D02*
X122280074Y-84191046D01*
X123137217Y-84714856D02*
X123232455Y-84762475D01*
X123232455Y-84762475D02*
X123422931Y-84762475D01*
X123422931Y-84762475D02*
X123518169Y-84714856D01*
X123518169Y-84714856D02*
X123565788Y-84619617D01*
X123565788Y-84619617D02*
X123565788Y-84571998D01*
X123565788Y-84571998D02*
X123518169Y-84476760D01*
X123518169Y-84476760D02*
X123422931Y-84429141D01*
X123422931Y-84429141D02*
X123280074Y-84429141D01*
X123280074Y-84429141D02*
X123184836Y-84381522D01*
X123184836Y-84381522D02*
X123137217Y-84286284D01*
X123137217Y-84286284D02*
X123137217Y-84238665D01*
X123137217Y-84238665D02*
X123184836Y-84143427D01*
X123184836Y-84143427D02*
X123280074Y-84095808D01*
X123280074Y-84095808D02*
X123422931Y-84095808D01*
X123422931Y-84095808D02*
X123518169Y-84143427D01*
X124422931Y-84762475D02*
X124422931Y-84238665D01*
X124422931Y-84238665D02*
X124375312Y-84143427D01*
X124375312Y-84143427D02*
X124280074Y-84095808D01*
X124280074Y-84095808D02*
X124089598Y-84095808D01*
X124089598Y-84095808D02*
X123994360Y-84143427D01*
X124422931Y-84714856D02*
X124327693Y-84762475D01*
X124327693Y-84762475D02*
X124089598Y-84762475D01*
X124089598Y-84762475D02*
X123994360Y-84714856D01*
X123994360Y-84714856D02*
X123946741Y-84619617D01*
X123946741Y-84619617D02*
X123946741Y-84524379D01*
X123946741Y-84524379D02*
X123994360Y-84429141D01*
X123994360Y-84429141D02*
X124089598Y-84381522D01*
X124089598Y-84381522D02*
X124327693Y-84381522D01*
X124327693Y-84381522D02*
X124422931Y-84333903D01*
X124899122Y-84095808D02*
X124899122Y-84762475D01*
X124899122Y-84191046D02*
X124946741Y-84143427D01*
X124946741Y-84143427D02*
X125041979Y-84095808D01*
X125041979Y-84095808D02*
X125184836Y-84095808D01*
X125184836Y-84095808D02*
X125280074Y-84143427D01*
X125280074Y-84143427D02*
X125327693Y-84238665D01*
X125327693Y-84238665D02*
X125327693Y-84762475D01*
X126518170Y-84714856D02*
X126661027Y-84762475D01*
X126661027Y-84762475D02*
X126899122Y-84762475D01*
X126899122Y-84762475D02*
X126994360Y-84714856D01*
X126994360Y-84714856D02*
X127041979Y-84667236D01*
X127041979Y-84667236D02*
X127089598Y-84571998D01*
X127089598Y-84571998D02*
X127089598Y-84476760D01*
X127089598Y-84476760D02*
X127041979Y-84381522D01*
X127041979Y-84381522D02*
X126994360Y-84333903D01*
X126994360Y-84333903D02*
X126899122Y-84286284D01*
X126899122Y-84286284D02*
X126708646Y-84238665D01*
X126708646Y-84238665D02*
X126613408Y-84191046D01*
X126613408Y-84191046D02*
X126565789Y-84143427D01*
X126565789Y-84143427D02*
X126518170Y-84048189D01*
X126518170Y-84048189D02*
X126518170Y-83952951D01*
X126518170Y-83952951D02*
X126565789Y-83857713D01*
X126565789Y-83857713D02*
X126613408Y-83810094D01*
X126613408Y-83810094D02*
X126708646Y-83762475D01*
X126708646Y-83762475D02*
X126946741Y-83762475D01*
X126946741Y-83762475D02*
X127089598Y-83810094D01*
X127946741Y-84762475D02*
X127946741Y-84238665D01*
X127946741Y-84238665D02*
X127899122Y-84143427D01*
X127899122Y-84143427D02*
X127803884Y-84095808D01*
X127803884Y-84095808D02*
X127613408Y-84095808D01*
X127613408Y-84095808D02*
X127518170Y-84143427D01*
X127946741Y-84714856D02*
X127851503Y-84762475D01*
X127851503Y-84762475D02*
X127613408Y-84762475D01*
X127613408Y-84762475D02*
X127518170Y-84714856D01*
X127518170Y-84714856D02*
X127470551Y-84619617D01*
X127470551Y-84619617D02*
X127470551Y-84524379D01*
X127470551Y-84524379D02*
X127518170Y-84429141D01*
X127518170Y-84429141D02*
X127613408Y-84381522D01*
X127613408Y-84381522D02*
X127851503Y-84381522D01*
X127851503Y-84381522D02*
X127946741Y-84333903D01*
X128565789Y-84762475D02*
X128470551Y-84714856D01*
X128470551Y-84714856D02*
X128422932Y-84619617D01*
X128422932Y-84619617D02*
X128422932Y-83762475D01*
X129375313Y-84762475D02*
X129375313Y-84238665D01*
X129375313Y-84238665D02*
X129327694Y-84143427D01*
X129327694Y-84143427D02*
X129232456Y-84095808D01*
X129232456Y-84095808D02*
X129041980Y-84095808D01*
X129041980Y-84095808D02*
X128946742Y-84143427D01*
X129375313Y-84714856D02*
X129280075Y-84762475D01*
X129280075Y-84762475D02*
X129041980Y-84762475D01*
X129041980Y-84762475D02*
X128946742Y-84714856D01*
X128946742Y-84714856D02*
X128899123Y-84619617D01*
X128899123Y-84619617D02*
X128899123Y-84524379D01*
X128899123Y-84524379D02*
X128946742Y-84429141D01*
X128946742Y-84429141D02*
X129041980Y-84381522D01*
X129041980Y-84381522D02*
X129280075Y-84381522D01*
X129280075Y-84381522D02*
X129375313Y-84333903D01*
X129851504Y-84762475D02*
X129851504Y-84095808D01*
X129851504Y-84286284D02*
X129899123Y-84191046D01*
X129899123Y-84191046D02*
X129946742Y-84143427D01*
X129946742Y-84143427D02*
X130041980Y-84095808D01*
X130041980Y-84095808D02*
X130137218Y-84095808D01*
X130470552Y-84762475D02*
X130470552Y-84095808D01*
X130470552Y-83762475D02*
X130422933Y-83810094D01*
X130422933Y-83810094D02*
X130470552Y-83857713D01*
X130470552Y-83857713D02*
X130518171Y-83810094D01*
X130518171Y-83810094D02*
X130470552Y-83762475D01*
X130470552Y-83762475D02*
X130470552Y-83857713D01*
X134756267Y-84762475D02*
X134756267Y-83762475D01*
X135184838Y-84762475D02*
X135184838Y-84238665D01*
X135184838Y-84238665D02*
X135137219Y-84143427D01*
X135137219Y-84143427D02*
X135041981Y-84095808D01*
X135041981Y-84095808D02*
X134899124Y-84095808D01*
X134899124Y-84095808D02*
X134803886Y-84143427D01*
X134803886Y-84143427D02*
X134756267Y-84191046D01*
X135661029Y-84762475D02*
X135661029Y-84095808D01*
X135661029Y-83762475D02*
X135613410Y-83810094D01*
X135613410Y-83810094D02*
X135661029Y-83857713D01*
X135661029Y-83857713D02*
X135708648Y-83810094D01*
X135708648Y-83810094D02*
X135661029Y-83762475D01*
X135661029Y-83762475D02*
X135661029Y-83857713D01*
X136756266Y-84286284D02*
X136708647Y-84238665D01*
X136708647Y-84238665D02*
X136613409Y-84191046D01*
X136613409Y-84191046D02*
X136518171Y-84191046D01*
X136518171Y-84191046D02*
X136422933Y-84238665D01*
X136422933Y-84238665D02*
X136375314Y-84286284D01*
X136375314Y-84286284D02*
X136327695Y-84381522D01*
X136327695Y-84381522D02*
X136327695Y-84476760D01*
X136327695Y-84476760D02*
X136375314Y-84571998D01*
X136375314Y-84571998D02*
X136422933Y-84619617D01*
X136422933Y-84619617D02*
X136518171Y-84667236D01*
X136518171Y-84667236D02*
X136613409Y-84667236D01*
X136613409Y-84667236D02*
X136708647Y-84619617D01*
X136708647Y-84619617D02*
X136756266Y-84571998D01*
X136756266Y-84191046D02*
X136756266Y-84571998D01*
X136756266Y-84571998D02*
X136803885Y-84619617D01*
X136803885Y-84619617D02*
X136851504Y-84619617D01*
X136851504Y-84619617D02*
X136946743Y-84571998D01*
X136946743Y-84571998D02*
X136994362Y-84476760D01*
X136994362Y-84476760D02*
X136994362Y-84238665D01*
X136994362Y-84238665D02*
X136899124Y-84095808D01*
X136899124Y-84095808D02*
X136756266Y-84000570D01*
X136756266Y-84000570D02*
X136565790Y-83952951D01*
X136565790Y-83952951D02*
X136375314Y-84000570D01*
X136375314Y-84000570D02*
X136232457Y-84095808D01*
X136232457Y-84095808D02*
X136137219Y-84238665D01*
X136137219Y-84238665D02*
X136089600Y-84429141D01*
X136089600Y-84429141D02*
X136137219Y-84619617D01*
X136137219Y-84619617D02*
X136232457Y-84762475D01*
X136232457Y-84762475D02*
X136375314Y-84857713D01*
X136375314Y-84857713D02*
X136565790Y-84905332D01*
X136565790Y-84905332D02*
X136756266Y-84857713D01*
X136756266Y-84857713D02*
X136899124Y-84762475D01*
X137422933Y-84762475D02*
X137422933Y-84095808D01*
X137422933Y-83762475D02*
X137375314Y-83810094D01*
X137375314Y-83810094D02*
X137422933Y-83857713D01*
X137422933Y-83857713D02*
X137470552Y-83810094D01*
X137470552Y-83810094D02*
X137422933Y-83762475D01*
X137422933Y-83762475D02*
X137422933Y-83857713D01*
X137899123Y-84762475D02*
X137899123Y-83762475D01*
X138327694Y-84762475D02*
X138327694Y-84238665D01*
X138327694Y-84238665D02*
X138280075Y-84143427D01*
X138280075Y-84143427D02*
X138184837Y-84095808D01*
X138184837Y-84095808D02*
X138041980Y-84095808D01*
X138041980Y-84095808D02*
X137946742Y-84143427D01*
X137946742Y-84143427D02*
X137899123Y-84191046D01*
X138756266Y-84714856D02*
X138851504Y-84762475D01*
X138851504Y-84762475D02*
X139041980Y-84762475D01*
X139041980Y-84762475D02*
X139137218Y-84714856D01*
X139137218Y-84714856D02*
X139184837Y-84619617D01*
X139184837Y-84619617D02*
X139184837Y-84571998D01*
X139184837Y-84571998D02*
X139137218Y-84476760D01*
X139137218Y-84476760D02*
X139041980Y-84429141D01*
X139041980Y-84429141D02*
X138899123Y-84429141D01*
X138899123Y-84429141D02*
X138803885Y-84381522D01*
X138803885Y-84381522D02*
X138756266Y-84286284D01*
X138756266Y-84286284D02*
X138756266Y-84238665D01*
X138756266Y-84238665D02*
X138803885Y-84143427D01*
X138803885Y-84143427D02*
X138899123Y-84095808D01*
X138899123Y-84095808D02*
X139041980Y-84095808D01*
X139041980Y-84095808D02*
X139137218Y-84143427D01*
X140041980Y-84762475D02*
X140041980Y-84238665D01*
X140041980Y-84238665D02*
X139994361Y-84143427D01*
X139994361Y-84143427D02*
X139899123Y-84095808D01*
X139899123Y-84095808D02*
X139708647Y-84095808D01*
X139708647Y-84095808D02*
X139613409Y-84143427D01*
X140041980Y-84714856D02*
X139946742Y-84762475D01*
X139946742Y-84762475D02*
X139708647Y-84762475D01*
X139708647Y-84762475D02*
X139613409Y-84714856D01*
X139613409Y-84714856D02*
X139565790Y-84619617D01*
X139565790Y-84619617D02*
X139565790Y-84524379D01*
X139565790Y-84524379D02*
X139613409Y-84429141D01*
X139613409Y-84429141D02*
X139708647Y-84381522D01*
X139708647Y-84381522D02*
X139946742Y-84381522D01*
X139946742Y-84381522D02*
X140041980Y-84333903D01*
X140518171Y-84095808D02*
X140518171Y-84762475D01*
X140518171Y-84191046D02*
X140565790Y-84143427D01*
X140565790Y-84143427D02*
X140661028Y-84095808D01*
X140661028Y-84095808D02*
X140803885Y-84095808D01*
X140803885Y-84095808D02*
X140899123Y-84143427D01*
X140899123Y-84143427D02*
X140946742Y-84238665D01*
X140946742Y-84238665D02*
X140946742Y-84762475D01*
X141422933Y-84667236D02*
X141470552Y-84714856D01*
X141470552Y-84714856D02*
X141422933Y-84762475D01*
X141422933Y-84762475D02*
X141375314Y-84714856D01*
X141375314Y-84714856D02*
X141422933Y-84667236D01*
X141422933Y-84667236D02*
X141422933Y-84762475D01*
X142327694Y-84714856D02*
X142232456Y-84762475D01*
X142232456Y-84762475D02*
X142041980Y-84762475D01*
X142041980Y-84762475D02*
X141946742Y-84714856D01*
X141946742Y-84714856D02*
X141899123Y-84667236D01*
X141899123Y-84667236D02*
X141851504Y-84571998D01*
X141851504Y-84571998D02*
X141851504Y-84286284D01*
X141851504Y-84286284D02*
X141899123Y-84191046D01*
X141899123Y-84191046D02*
X141946742Y-84143427D01*
X141946742Y-84143427D02*
X142041980Y-84095808D01*
X142041980Y-84095808D02*
X142232456Y-84095808D01*
X142232456Y-84095808D02*
X142327694Y-84143427D01*
X143184837Y-84714856D02*
X143089599Y-84762475D01*
X143089599Y-84762475D02*
X142899123Y-84762475D01*
X142899123Y-84762475D02*
X142803885Y-84714856D01*
X142803885Y-84714856D02*
X142756266Y-84667236D01*
X142756266Y-84667236D02*
X142708647Y-84571998D01*
X142708647Y-84571998D02*
X142708647Y-84286284D01*
X142708647Y-84286284D02*
X142756266Y-84191046D01*
X142756266Y-84191046D02*
X142803885Y-84143427D01*
X142803885Y-84143427D02*
X142899123Y-84095808D01*
X142899123Y-84095808D02*
X143089599Y-84095808D01*
X143089599Y-84095808D02*
X143184837Y-84143427D01*
X146661029Y-84762475D02*
X146661029Y-83762475D01*
X147089600Y-84762475D02*
X147089600Y-84238665D01*
X147089600Y-84238665D02*
X147041981Y-84143427D01*
X147041981Y-84143427D02*
X146946743Y-84095808D01*
X146946743Y-84095808D02*
X146803886Y-84095808D01*
X146803886Y-84095808D02*
X146708648Y-84143427D01*
X146708648Y-84143427D02*
X146661029Y-84191046D01*
X147422934Y-84095808D02*
X147803886Y-84095808D01*
X147565791Y-83762475D02*
X147565791Y-84619617D01*
X147565791Y-84619617D02*
X147613410Y-84714856D01*
X147613410Y-84714856D02*
X147708648Y-84762475D01*
X147708648Y-84762475D02*
X147803886Y-84762475D01*
X147994363Y-84095808D02*
X148375315Y-84095808D01*
X148137220Y-83762475D02*
X148137220Y-84619617D01*
X148137220Y-84619617D02*
X148184839Y-84714856D01*
X148184839Y-84714856D02*
X148280077Y-84762475D01*
X148280077Y-84762475D02*
X148375315Y-84762475D01*
X148708649Y-84095808D02*
X148708649Y-85095808D01*
X148708649Y-84143427D02*
X148803887Y-84095808D01*
X148803887Y-84095808D02*
X148994363Y-84095808D01*
X148994363Y-84095808D02*
X149089601Y-84143427D01*
X149089601Y-84143427D02*
X149137220Y-84191046D01*
X149137220Y-84191046D02*
X149184839Y-84286284D01*
X149184839Y-84286284D02*
X149184839Y-84571998D01*
X149184839Y-84571998D02*
X149137220Y-84667236D01*
X149137220Y-84667236D02*
X149089601Y-84714856D01*
X149089601Y-84714856D02*
X148994363Y-84762475D01*
X148994363Y-84762475D02*
X148803887Y-84762475D01*
X148803887Y-84762475D02*
X148708649Y-84714856D01*
X149565792Y-84714856D02*
X149661030Y-84762475D01*
X149661030Y-84762475D02*
X149851506Y-84762475D01*
X149851506Y-84762475D02*
X149946744Y-84714856D01*
X149946744Y-84714856D02*
X149994363Y-84619617D01*
X149994363Y-84619617D02*
X149994363Y-84571998D01*
X149994363Y-84571998D02*
X149946744Y-84476760D01*
X149946744Y-84476760D02*
X149851506Y-84429141D01*
X149851506Y-84429141D02*
X149708649Y-84429141D01*
X149708649Y-84429141D02*
X149613411Y-84381522D01*
X149613411Y-84381522D02*
X149565792Y-84286284D01*
X149565792Y-84286284D02*
X149565792Y-84238665D01*
X149565792Y-84238665D02*
X149613411Y-84143427D01*
X149613411Y-84143427D02*
X149708649Y-84095808D01*
X149708649Y-84095808D02*
X149851506Y-84095808D01*
X149851506Y-84095808D02*
X149946744Y-84143427D01*
X150422935Y-84667236D02*
X150470554Y-84714856D01*
X150470554Y-84714856D02*
X150422935Y-84762475D01*
X150422935Y-84762475D02*
X150375316Y-84714856D01*
X150375316Y-84714856D02*
X150422935Y-84667236D01*
X150422935Y-84667236D02*
X150422935Y-84762475D01*
X150422935Y-84143427D02*
X150470554Y-84191046D01*
X150470554Y-84191046D02*
X150422935Y-84238665D01*
X150422935Y-84238665D02*
X150375316Y-84191046D01*
X150375316Y-84191046D02*
X150422935Y-84143427D01*
X150422935Y-84143427D02*
X150422935Y-84238665D01*
X151613410Y-83714856D02*
X150756268Y-85000570D01*
X152661029Y-83714856D02*
X151803887Y-85000570D01*
X152994363Y-84762475D02*
X152994363Y-84095808D01*
X152994363Y-83762475D02*
X152946744Y-83810094D01*
X152946744Y-83810094D02*
X152994363Y-83857713D01*
X152994363Y-83857713D02*
X153041982Y-83810094D01*
X153041982Y-83810094D02*
X152994363Y-83762475D01*
X152994363Y-83762475D02*
X152994363Y-83857713D01*
X153470553Y-84762475D02*
X153470553Y-83762475D01*
X153899124Y-84762475D02*
X153899124Y-84238665D01*
X153899124Y-84238665D02*
X153851505Y-84143427D01*
X153851505Y-84143427D02*
X153756267Y-84095808D01*
X153756267Y-84095808D02*
X153613410Y-84095808D01*
X153613410Y-84095808D02*
X153518172Y-84143427D01*
X153518172Y-84143427D02*
X153470553Y-84191046D01*
X154327696Y-84714856D02*
X154422934Y-84762475D01*
X154422934Y-84762475D02*
X154613410Y-84762475D01*
X154613410Y-84762475D02*
X154708648Y-84714856D01*
X154708648Y-84714856D02*
X154756267Y-84619617D01*
X154756267Y-84619617D02*
X154756267Y-84571998D01*
X154756267Y-84571998D02*
X154708648Y-84476760D01*
X154708648Y-84476760D02*
X154613410Y-84429141D01*
X154613410Y-84429141D02*
X154470553Y-84429141D01*
X154470553Y-84429141D02*
X154375315Y-84381522D01*
X154375315Y-84381522D02*
X154327696Y-84286284D01*
X154327696Y-84286284D02*
X154327696Y-84238665D01*
X154327696Y-84238665D02*
X154375315Y-84143427D01*
X154375315Y-84143427D02*
X154470553Y-84095808D01*
X154470553Y-84095808D02*
X154613410Y-84095808D01*
X154613410Y-84095808D02*
X154708648Y-84143427D01*
X155613410Y-84762475D02*
X155613410Y-84238665D01*
X155613410Y-84238665D02*
X155565791Y-84143427D01*
X155565791Y-84143427D02*
X155470553Y-84095808D01*
X155470553Y-84095808D02*
X155280077Y-84095808D01*
X155280077Y-84095808D02*
X155184839Y-84143427D01*
X155613410Y-84714856D02*
X155518172Y-84762475D01*
X155518172Y-84762475D02*
X155280077Y-84762475D01*
X155280077Y-84762475D02*
X155184839Y-84714856D01*
X155184839Y-84714856D02*
X155137220Y-84619617D01*
X155137220Y-84619617D02*
X155137220Y-84524379D01*
X155137220Y-84524379D02*
X155184839Y-84429141D01*
X155184839Y-84429141D02*
X155280077Y-84381522D01*
X155280077Y-84381522D02*
X155518172Y-84381522D01*
X155518172Y-84381522D02*
X155613410Y-84333903D01*
X156089601Y-84095808D02*
X156089601Y-84762475D01*
X156089601Y-84191046D02*
X156137220Y-84143427D01*
X156137220Y-84143427D02*
X156232458Y-84095808D01*
X156232458Y-84095808D02*
X156375315Y-84095808D01*
X156375315Y-84095808D02*
X156470553Y-84143427D01*
X156470553Y-84143427D02*
X156518172Y-84238665D01*
X156518172Y-84238665D02*
X156518172Y-84762475D01*
X156994363Y-84667236D02*
X157041982Y-84714856D01*
X157041982Y-84714856D02*
X156994363Y-84762475D01*
X156994363Y-84762475D02*
X156946744Y-84714856D01*
X156946744Y-84714856D02*
X156994363Y-84667236D01*
X156994363Y-84667236D02*
X156994363Y-84762475D01*
X157899124Y-84714856D02*
X157803886Y-84762475D01*
X157803886Y-84762475D02*
X157613410Y-84762475D01*
X157613410Y-84762475D02*
X157518172Y-84714856D01*
X157518172Y-84714856D02*
X157470553Y-84667236D01*
X157470553Y-84667236D02*
X157422934Y-84571998D01*
X157422934Y-84571998D02*
X157422934Y-84286284D01*
X157422934Y-84286284D02*
X157470553Y-84191046D01*
X157470553Y-84191046D02*
X157518172Y-84143427D01*
X157518172Y-84143427D02*
X157613410Y-84095808D01*
X157613410Y-84095808D02*
X157803886Y-84095808D01*
X157803886Y-84095808D02*
X157899124Y-84143427D01*
X158756267Y-84714856D02*
X158661029Y-84762475D01*
X158661029Y-84762475D02*
X158470553Y-84762475D01*
X158470553Y-84762475D02*
X158375315Y-84714856D01*
X158375315Y-84714856D02*
X158327696Y-84667236D01*
X158327696Y-84667236D02*
X158280077Y-84571998D01*
X158280077Y-84571998D02*
X158280077Y-84286284D01*
X158280077Y-84286284D02*
X158327696Y-84191046D01*
X158327696Y-84191046D02*
X158375315Y-84143427D01*
X158375315Y-84143427D02*
X158470553Y-84095808D01*
X158470553Y-84095808D02*
X158661029Y-84095808D01*
X158661029Y-84095808D02*
X158756267Y-84143427D01*
D11*
X118761905Y-108954819D02*
X118761905Y-107954819D01*
X118761905Y-107954819D02*
X119000000Y-107954819D01*
X119000000Y-107954819D02*
X119142857Y-108002438D01*
X119142857Y-108002438D02*
X119238095Y-108097676D01*
X119238095Y-108097676D02*
X119285714Y-108192914D01*
X119285714Y-108192914D02*
X119333333Y-108383390D01*
X119333333Y-108383390D02*
X119333333Y-108526247D01*
X119333333Y-108526247D02*
X119285714Y-108716723D01*
X119285714Y-108716723D02*
X119238095Y-108811961D01*
X119238095Y-108811961D02*
X119142857Y-108907200D01*
X119142857Y-108907200D02*
X119000000Y-108954819D01*
X119000000Y-108954819D02*
X118761905Y-108954819D01*
X119714286Y-108050057D02*
X119761905Y-108002438D01*
X119761905Y-108002438D02*
X119857143Y-107954819D01*
X119857143Y-107954819D02*
X120095238Y-107954819D01*
X120095238Y-107954819D02*
X120190476Y-108002438D01*
X120190476Y-108002438D02*
X120238095Y-108050057D01*
X120238095Y-108050057D02*
X120285714Y-108145295D01*
X120285714Y-108145295D02*
X120285714Y-108240533D01*
X120285714Y-108240533D02*
X120238095Y-108383390D01*
X120238095Y-108383390D02*
X119666667Y-108954819D01*
X119666667Y-108954819D02*
X120285714Y-108954819D01*
X129833333Y-112954819D02*
X129500000Y-112478628D01*
X129261905Y-112954819D02*
X129261905Y-111954819D01*
X129261905Y-111954819D02*
X129642857Y-111954819D01*
X129642857Y-111954819D02*
X129738095Y-112002438D01*
X129738095Y-112002438D02*
X129785714Y-112050057D01*
X129785714Y-112050057D02*
X129833333Y-112145295D01*
X129833333Y-112145295D02*
X129833333Y-112288152D01*
X129833333Y-112288152D02*
X129785714Y-112383390D01*
X129785714Y-112383390D02*
X129738095Y-112431009D01*
X129738095Y-112431009D02*
X129642857Y-112478628D01*
X129642857Y-112478628D02*
X129261905Y-112478628D01*
X130309524Y-112954819D02*
X130500000Y-112954819D01*
X130500000Y-112954819D02*
X130595238Y-112907200D01*
X130595238Y-112907200D02*
X130642857Y-112859580D01*
X130642857Y-112859580D02*
X130738095Y-112716723D01*
X130738095Y-112716723D02*
X130785714Y-112526247D01*
X130785714Y-112526247D02*
X130785714Y-112145295D01*
X130785714Y-112145295D02*
X130738095Y-112050057D01*
X130738095Y-112050057D02*
X130690476Y-112002438D01*
X130690476Y-112002438D02*
X130595238Y-111954819D01*
X130595238Y-111954819D02*
X130404762Y-111954819D01*
X130404762Y-111954819D02*
X130309524Y-112002438D01*
X130309524Y-112002438D02*
X130261905Y-112050057D01*
X130261905Y-112050057D02*
X130214286Y-112145295D01*
X130214286Y-112145295D02*
X130214286Y-112383390D01*
X130214286Y-112383390D02*
X130261905Y-112478628D01*
X130261905Y-112478628D02*
X130309524Y-112526247D01*
X130309524Y-112526247D02*
X130404762Y-112573866D01*
X130404762Y-112573866D02*
X130595238Y-112573866D01*
X130595238Y-112573866D02*
X130690476Y-112526247D01*
X130690476Y-112526247D02*
X130738095Y-112478628D01*
X130738095Y-112478628D02*
X130785714Y-112383390D01*
X136833333Y-114859580D02*
X136785714Y-114907200D01*
X136785714Y-114907200D02*
X136642857Y-114954819D01*
X136642857Y-114954819D02*
X136547619Y-114954819D01*
X136547619Y-114954819D02*
X136404762Y-114907200D01*
X136404762Y-114907200D02*
X136309524Y-114811961D01*
X136309524Y-114811961D02*
X136261905Y-114716723D01*
X136261905Y-114716723D02*
X136214286Y-114526247D01*
X136214286Y-114526247D02*
X136214286Y-114383390D01*
X136214286Y-114383390D02*
X136261905Y-114192914D01*
X136261905Y-114192914D02*
X136309524Y-114097676D01*
X136309524Y-114097676D02*
X136404762Y-114002438D01*
X136404762Y-114002438D02*
X136547619Y-113954819D01*
X136547619Y-113954819D02*
X136642857Y-113954819D01*
X136642857Y-113954819D02*
X136785714Y-114002438D01*
X136785714Y-114002438D02*
X136833333Y-114050057D01*
X137690476Y-114288152D02*
X137690476Y-114954819D01*
X137452381Y-113907200D02*
X137214286Y-114621485D01*
X137214286Y-114621485D02*
X137833333Y-114621485D01*
X135183333Y-111009580D02*
X135135714Y-111057200D01*
X135135714Y-111057200D02*
X134992857Y-111104819D01*
X134992857Y-111104819D02*
X134897619Y-111104819D01*
X134897619Y-111104819D02*
X134754762Y-111057200D01*
X134754762Y-111057200D02*
X134659524Y-110961961D01*
X134659524Y-110961961D02*
X134611905Y-110866723D01*
X134611905Y-110866723D02*
X134564286Y-110676247D01*
X134564286Y-110676247D02*
X134564286Y-110533390D01*
X134564286Y-110533390D02*
X134611905Y-110342914D01*
X134611905Y-110342914D02*
X134659524Y-110247676D01*
X134659524Y-110247676D02*
X134754762Y-110152438D01*
X134754762Y-110152438D02*
X134897619Y-110104819D01*
X134897619Y-110104819D02*
X134992857Y-110104819D01*
X134992857Y-110104819D02*
X135135714Y-110152438D01*
X135135714Y-110152438D02*
X135183333Y-110200057D01*
X135564286Y-110200057D02*
X135611905Y-110152438D01*
X135611905Y-110152438D02*
X135707143Y-110104819D01*
X135707143Y-110104819D02*
X135945238Y-110104819D01*
X135945238Y-110104819D02*
X136040476Y-110152438D01*
X136040476Y-110152438D02*
X136088095Y-110200057D01*
X136088095Y-110200057D02*
X136135714Y-110295295D01*
X136135714Y-110295295D02*
X136135714Y-110390533D01*
X136135714Y-110390533D02*
X136088095Y-110533390D01*
X136088095Y-110533390D02*
X135516667Y-111104819D01*
X135516667Y-111104819D02*
X136135714Y-111104819D01*
X150666666Y-94354819D02*
X150666666Y-95069104D01*
X150666666Y-95069104D02*
X150619047Y-95211961D01*
X150619047Y-95211961D02*
X150523809Y-95307200D01*
X150523809Y-95307200D02*
X150380952Y-95354819D01*
X150380952Y-95354819D02*
X150285714Y-95354819D01*
X151571428Y-94688152D02*
X151571428Y-95354819D01*
X151333333Y-94307200D02*
X151095238Y-95021485D01*
X151095238Y-95021485D02*
X151714285Y-95021485D01*
X145695833Y-117359580D02*
X145648214Y-117407200D01*
X145648214Y-117407200D02*
X145505357Y-117454819D01*
X145505357Y-117454819D02*
X145410119Y-117454819D01*
X145410119Y-117454819D02*
X145267262Y-117407200D01*
X145267262Y-117407200D02*
X145172024Y-117311961D01*
X145172024Y-117311961D02*
X145124405Y-117216723D01*
X145124405Y-117216723D02*
X145076786Y-117026247D01*
X145076786Y-117026247D02*
X145076786Y-116883390D01*
X145076786Y-116883390D02*
X145124405Y-116692914D01*
X145124405Y-116692914D02*
X145172024Y-116597676D01*
X145172024Y-116597676D02*
X145267262Y-116502438D01*
X145267262Y-116502438D02*
X145410119Y-116454819D01*
X145410119Y-116454819D02*
X145505357Y-116454819D01*
X145505357Y-116454819D02*
X145648214Y-116502438D01*
X145648214Y-116502438D02*
X145695833Y-116550057D01*
X146172024Y-117454819D02*
X146362500Y-117454819D01*
X146362500Y-117454819D02*
X146457738Y-117407200D01*
X146457738Y-117407200D02*
X146505357Y-117359580D01*
X146505357Y-117359580D02*
X146600595Y-117216723D01*
X146600595Y-117216723D02*
X146648214Y-117026247D01*
X146648214Y-117026247D02*
X146648214Y-116645295D01*
X146648214Y-116645295D02*
X146600595Y-116550057D01*
X146600595Y-116550057D02*
X146552976Y-116502438D01*
X146552976Y-116502438D02*
X146457738Y-116454819D01*
X146457738Y-116454819D02*
X146267262Y-116454819D01*
X146267262Y-116454819D02*
X146172024Y-116502438D01*
X146172024Y-116502438D02*
X146124405Y-116550057D01*
X146124405Y-116550057D02*
X146076786Y-116645295D01*
X146076786Y-116645295D02*
X146076786Y-116883390D01*
X146076786Y-116883390D02*
X146124405Y-116978628D01*
X146124405Y-116978628D02*
X146172024Y-117026247D01*
X146172024Y-117026247D02*
X146267262Y-117073866D01*
X146267262Y-117073866D02*
X146457738Y-117073866D01*
X146457738Y-117073866D02*
X146552976Y-117026247D01*
X146552976Y-117026247D02*
X146600595Y-116978628D01*
X146600595Y-116978628D02*
X146648214Y-116883390D01*
X129833333Y-108954819D02*
X129500000Y-108478628D01*
X129261905Y-108954819D02*
X129261905Y-107954819D01*
X129261905Y-107954819D02*
X129642857Y-107954819D01*
X129642857Y-107954819D02*
X129738095Y-108002438D01*
X129738095Y-108002438D02*
X129785714Y-108050057D01*
X129785714Y-108050057D02*
X129833333Y-108145295D01*
X129833333Y-108145295D02*
X129833333Y-108288152D01*
X129833333Y-108288152D02*
X129785714Y-108383390D01*
X129785714Y-108383390D02*
X129738095Y-108431009D01*
X129738095Y-108431009D02*
X129642857Y-108478628D01*
X129642857Y-108478628D02*
X129261905Y-108478628D01*
X130214286Y-108050057D02*
X130261905Y-108002438D01*
X130261905Y-108002438D02*
X130357143Y-107954819D01*
X130357143Y-107954819D02*
X130595238Y-107954819D01*
X130595238Y-107954819D02*
X130690476Y-108002438D01*
X130690476Y-108002438D02*
X130738095Y-108050057D01*
X130738095Y-108050057D02*
X130785714Y-108145295D01*
X130785714Y-108145295D02*
X130785714Y-108240533D01*
X130785714Y-108240533D02*
X130738095Y-108383390D01*
X130738095Y-108383390D02*
X130166667Y-108954819D01*
X130166667Y-108954819D02*
X130785714Y-108954819D01*
X152254761Y-120200057D02*
X152159523Y-120152438D01*
X152159523Y-120152438D02*
X152064285Y-120057200D01*
X152064285Y-120057200D02*
X151921428Y-119914342D01*
X151921428Y-119914342D02*
X151826190Y-119866723D01*
X151826190Y-119866723D02*
X151730952Y-119866723D01*
X151778571Y-120104819D02*
X151683333Y-120057200D01*
X151683333Y-120057200D02*
X151588095Y-119961961D01*
X151588095Y-119961961D02*
X151540476Y-119771485D01*
X151540476Y-119771485D02*
X151540476Y-119438152D01*
X151540476Y-119438152D02*
X151588095Y-119247676D01*
X151588095Y-119247676D02*
X151683333Y-119152438D01*
X151683333Y-119152438D02*
X151778571Y-119104819D01*
X151778571Y-119104819D02*
X151969047Y-119104819D01*
X151969047Y-119104819D02*
X152064285Y-119152438D01*
X152064285Y-119152438D02*
X152159523Y-119247676D01*
X152159523Y-119247676D02*
X152207142Y-119438152D01*
X152207142Y-119438152D02*
X152207142Y-119771485D01*
X152207142Y-119771485D02*
X152159523Y-119961961D01*
X152159523Y-119961961D02*
X152064285Y-120057200D01*
X152064285Y-120057200D02*
X151969047Y-120104819D01*
X151969047Y-120104819D02*
X151778571Y-120104819D01*
X152588095Y-119200057D02*
X152635714Y-119152438D01*
X152635714Y-119152438D02*
X152730952Y-119104819D01*
X152730952Y-119104819D02*
X152969047Y-119104819D01*
X152969047Y-119104819D02*
X153064285Y-119152438D01*
X153064285Y-119152438D02*
X153111904Y-119200057D01*
X153111904Y-119200057D02*
X153159523Y-119295295D01*
X153159523Y-119295295D02*
X153159523Y-119390533D01*
X153159523Y-119390533D02*
X153111904Y-119533390D01*
X153111904Y-119533390D02*
X152540476Y-120104819D01*
X152540476Y-120104819D02*
X153159523Y-120104819D01*
X137859580Y-95767857D02*
X137907200Y-95815476D01*
X137907200Y-95815476D02*
X137954819Y-95958333D01*
X137954819Y-95958333D02*
X137954819Y-96053571D01*
X137954819Y-96053571D02*
X137907200Y-96196428D01*
X137907200Y-96196428D02*
X137811961Y-96291666D01*
X137811961Y-96291666D02*
X137716723Y-96339285D01*
X137716723Y-96339285D02*
X137526247Y-96386904D01*
X137526247Y-96386904D02*
X137383390Y-96386904D01*
X137383390Y-96386904D02*
X137192914Y-96339285D01*
X137192914Y-96339285D02*
X137097676Y-96291666D01*
X137097676Y-96291666D02*
X137002438Y-96196428D01*
X137002438Y-96196428D02*
X136954819Y-96053571D01*
X136954819Y-96053571D02*
X136954819Y-95958333D01*
X136954819Y-95958333D02*
X137002438Y-95815476D01*
X137002438Y-95815476D02*
X137050057Y-95767857D01*
X137050057Y-95386904D02*
X137002438Y-95339285D01*
X137002438Y-95339285D02*
X136954819Y-95244047D01*
X136954819Y-95244047D02*
X136954819Y-95005952D01*
X136954819Y-95005952D02*
X137002438Y-94910714D01*
X137002438Y-94910714D02*
X137050057Y-94863095D01*
X137050057Y-94863095D02*
X137145295Y-94815476D01*
X137145295Y-94815476D02*
X137240533Y-94815476D01*
X137240533Y-94815476D02*
X137383390Y-94863095D01*
X137383390Y-94863095D02*
X137954819Y-95434523D01*
X137954819Y-95434523D02*
X137954819Y-94815476D01*
X137954819Y-93863095D02*
X137954819Y-94434523D01*
X137954819Y-94148809D02*
X136954819Y-94148809D01*
X136954819Y-94148809D02*
X137097676Y-94244047D01*
X137097676Y-94244047D02*
X137192914Y-94339285D01*
X137192914Y-94339285D02*
X137240533Y-94434523D01*
X138207200Y-120183332D02*
X138254819Y-120040475D01*
X138254819Y-120040475D02*
X138254819Y-119802380D01*
X138254819Y-119802380D02*
X138207200Y-119707142D01*
X138207200Y-119707142D02*
X138159580Y-119659523D01*
X138159580Y-119659523D02*
X138064342Y-119611904D01*
X138064342Y-119611904D02*
X137969104Y-119611904D01*
X137969104Y-119611904D02*
X137873866Y-119659523D01*
X137873866Y-119659523D02*
X137826247Y-119707142D01*
X137826247Y-119707142D02*
X137778628Y-119802380D01*
X137778628Y-119802380D02*
X137731009Y-119992856D01*
X137731009Y-119992856D02*
X137683390Y-120088094D01*
X137683390Y-120088094D02*
X137635771Y-120135713D01*
X137635771Y-120135713D02*
X137540533Y-120183332D01*
X137540533Y-120183332D02*
X137445295Y-120183332D01*
X137445295Y-120183332D02*
X137350057Y-120135713D01*
X137350057Y-120135713D02*
X137302438Y-120088094D01*
X137302438Y-120088094D02*
X137254819Y-119992856D01*
X137254819Y-119992856D02*
X137254819Y-119754761D01*
X137254819Y-119754761D02*
X137302438Y-119611904D01*
X137254819Y-119278570D02*
X138254819Y-119040475D01*
X138254819Y-119040475D02*
X137540533Y-118849999D01*
X137540533Y-118849999D02*
X138254819Y-118659523D01*
X138254819Y-118659523D02*
X137254819Y-118421428D01*
X138254819Y-117516666D02*
X138254819Y-118088094D01*
X138254819Y-117802380D02*
X137254819Y-117802380D01*
X137254819Y-117802380D02*
X137397676Y-117897618D01*
X137397676Y-117897618D02*
X137492914Y-117992856D01*
X137492914Y-117992856D02*
X137540533Y-118088094D01*
X130857142Y-104874819D02*
X130523809Y-104398628D01*
X130285714Y-104874819D02*
X130285714Y-103874819D01*
X130285714Y-103874819D02*
X130666666Y-103874819D01*
X130666666Y-103874819D02*
X130761904Y-103922438D01*
X130761904Y-103922438D02*
X130809523Y-103970057D01*
X130809523Y-103970057D02*
X130857142Y-104065295D01*
X130857142Y-104065295D02*
X130857142Y-104208152D01*
X130857142Y-104208152D02*
X130809523Y-104303390D01*
X130809523Y-104303390D02*
X130761904Y-104351009D01*
X130761904Y-104351009D02*
X130666666Y-104398628D01*
X130666666Y-104398628D02*
X130285714Y-104398628D01*
X131809523Y-104874819D02*
X131238095Y-104874819D01*
X131523809Y-104874819D02*
X131523809Y-103874819D01*
X131523809Y-103874819D02*
X131428571Y-104017676D01*
X131428571Y-104017676D02*
X131333333Y-104112914D01*
X131333333Y-104112914D02*
X131238095Y-104160533D01*
X132190476Y-103970057D02*
X132238095Y-103922438D01*
X132238095Y-103922438D02*
X132333333Y-103874819D01*
X132333333Y-103874819D02*
X132571428Y-103874819D01*
X132571428Y-103874819D02*
X132666666Y-103922438D01*
X132666666Y-103922438D02*
X132714285Y-103970057D01*
X132714285Y-103970057D02*
X132761904Y-104065295D01*
X132761904Y-104065295D02*
X132761904Y-104160533D01*
X132761904Y-104160533D02*
X132714285Y-104303390D01*
X132714285Y-104303390D02*
X132142857Y-104874819D01*
X132142857Y-104874819D02*
X132761904Y-104874819D01*
X122787580Y-100462173D02*
X122073295Y-100462173D01*
X122073295Y-100462173D02*
X121930438Y-100414554D01*
X121930438Y-100414554D02*
X121835200Y-100319316D01*
X121835200Y-100319316D02*
X121787580Y-100176459D01*
X121787580Y-100176459D02*
X121787580Y-100081221D01*
X121787580Y-101462173D02*
X121787580Y-100890745D01*
X121787580Y-101176459D02*
X122787580Y-101176459D01*
X122787580Y-101176459D02*
X122644723Y-101081221D01*
X122644723Y-101081221D02*
X122549485Y-100985983D01*
X122549485Y-100985983D02*
X122501866Y-100890745D01*
X145833333Y-110859580D02*
X145785714Y-110907200D01*
X145785714Y-110907200D02*
X145642857Y-110954819D01*
X145642857Y-110954819D02*
X145547619Y-110954819D01*
X145547619Y-110954819D02*
X145404762Y-110907200D01*
X145404762Y-110907200D02*
X145309524Y-110811961D01*
X145309524Y-110811961D02*
X145261905Y-110716723D01*
X145261905Y-110716723D02*
X145214286Y-110526247D01*
X145214286Y-110526247D02*
X145214286Y-110383390D01*
X145214286Y-110383390D02*
X145261905Y-110192914D01*
X145261905Y-110192914D02*
X145309524Y-110097676D01*
X145309524Y-110097676D02*
X145404762Y-110002438D01*
X145404762Y-110002438D02*
X145547619Y-109954819D01*
X145547619Y-109954819D02*
X145642857Y-109954819D01*
X145642857Y-109954819D02*
X145785714Y-110002438D01*
X145785714Y-110002438D02*
X145833333Y-110050057D01*
X146690476Y-109954819D02*
X146500000Y-109954819D01*
X146500000Y-109954819D02*
X146404762Y-110002438D01*
X146404762Y-110002438D02*
X146357143Y-110050057D01*
X146357143Y-110050057D02*
X146261905Y-110192914D01*
X146261905Y-110192914D02*
X146214286Y-110383390D01*
X146214286Y-110383390D02*
X146214286Y-110764342D01*
X146214286Y-110764342D02*
X146261905Y-110859580D01*
X146261905Y-110859580D02*
X146309524Y-110907200D01*
X146309524Y-110907200D02*
X146404762Y-110954819D01*
X146404762Y-110954819D02*
X146595238Y-110954819D01*
X146595238Y-110954819D02*
X146690476Y-110907200D01*
X146690476Y-110907200D02*
X146738095Y-110859580D01*
X146738095Y-110859580D02*
X146785714Y-110764342D01*
X146785714Y-110764342D02*
X146785714Y-110526247D01*
X146785714Y-110526247D02*
X146738095Y-110431009D01*
X146738095Y-110431009D02*
X146690476Y-110383390D01*
X146690476Y-110383390D02*
X146595238Y-110335771D01*
X146595238Y-110335771D02*
X146404762Y-110335771D01*
X146404762Y-110335771D02*
X146309524Y-110383390D01*
X146309524Y-110383390D02*
X146261905Y-110431009D01*
X146261905Y-110431009D02*
X146214286Y-110526247D01*
X160516666Y-118454819D02*
X160516666Y-119169104D01*
X160516666Y-119169104D02*
X160469047Y-119311961D01*
X160469047Y-119311961D02*
X160373809Y-119407200D01*
X160373809Y-119407200D02*
X160230952Y-119454819D01*
X160230952Y-119454819D02*
X160135714Y-119454819D01*
X160945238Y-118550057D02*
X160992857Y-118502438D01*
X160992857Y-118502438D02*
X161088095Y-118454819D01*
X161088095Y-118454819D02*
X161326190Y-118454819D01*
X161326190Y-118454819D02*
X161421428Y-118502438D01*
X161421428Y-118502438D02*
X161469047Y-118550057D01*
X161469047Y-118550057D02*
X161516666Y-118645295D01*
X161516666Y-118645295D02*
X161516666Y-118740533D01*
X161516666Y-118740533D02*
X161469047Y-118883390D01*
X161469047Y-118883390D02*
X160897619Y-119454819D01*
X160897619Y-119454819D02*
X161516666Y-119454819D01*
X138838095Y-94304819D02*
X138838095Y-95114342D01*
X138838095Y-95114342D02*
X138885714Y-95209580D01*
X138885714Y-95209580D02*
X138933333Y-95257200D01*
X138933333Y-95257200D02*
X139028571Y-95304819D01*
X139028571Y-95304819D02*
X139219047Y-95304819D01*
X139219047Y-95304819D02*
X139314285Y-95257200D01*
X139314285Y-95257200D02*
X139361904Y-95209580D01*
X139361904Y-95209580D02*
X139409523Y-95114342D01*
X139409523Y-95114342D02*
X139409523Y-94304819D01*
X140361904Y-94304819D02*
X139885714Y-94304819D01*
X139885714Y-94304819D02*
X139838095Y-94781009D01*
X139838095Y-94781009D02*
X139885714Y-94733390D01*
X139885714Y-94733390D02*
X139980952Y-94685771D01*
X139980952Y-94685771D02*
X140219047Y-94685771D01*
X140219047Y-94685771D02*
X140314285Y-94733390D01*
X140314285Y-94733390D02*
X140361904Y-94781009D01*
X140361904Y-94781009D02*
X140409523Y-94876247D01*
X140409523Y-94876247D02*
X140409523Y-95114342D01*
X140409523Y-95114342D02*
X140361904Y-95209580D01*
X140361904Y-95209580D02*
X140314285Y-95257200D01*
X140314285Y-95257200D02*
X140219047Y-95304819D01*
X140219047Y-95304819D02*
X139980952Y-95304819D01*
X139980952Y-95304819D02*
X139885714Y-95257200D01*
X139885714Y-95257200D02*
X139838095Y-95209580D01*
X142954819Y-112142857D02*
X142478628Y-112476190D01*
X142954819Y-112714285D02*
X141954819Y-112714285D01*
X141954819Y-112714285D02*
X141954819Y-112333333D01*
X141954819Y-112333333D02*
X142002438Y-112238095D01*
X142002438Y-112238095D02*
X142050057Y-112190476D01*
X142050057Y-112190476D02*
X142145295Y-112142857D01*
X142145295Y-112142857D02*
X142288152Y-112142857D01*
X142288152Y-112142857D02*
X142383390Y-112190476D01*
X142383390Y-112190476D02*
X142431009Y-112238095D01*
X142431009Y-112238095D02*
X142478628Y-112333333D01*
X142478628Y-112333333D02*
X142478628Y-112714285D01*
X142954819Y-111190476D02*
X142954819Y-111761904D01*
X142954819Y-111476190D02*
X141954819Y-111476190D01*
X141954819Y-111476190D02*
X142097676Y-111571428D01*
X142097676Y-111571428D02*
X142192914Y-111666666D01*
X142192914Y-111666666D02*
X142240533Y-111761904D01*
X142954819Y-110238095D02*
X142954819Y-110809523D01*
X142954819Y-110523809D02*
X141954819Y-110523809D01*
X141954819Y-110523809D02*
X142097676Y-110619047D01*
X142097676Y-110619047D02*
X142192914Y-110714285D01*
X142192914Y-110714285D02*
X142240533Y-110809523D01*
X135083333Y-112879580D02*
X135035714Y-112927200D01*
X135035714Y-112927200D02*
X134892857Y-112974819D01*
X134892857Y-112974819D02*
X134797619Y-112974819D01*
X134797619Y-112974819D02*
X134654762Y-112927200D01*
X134654762Y-112927200D02*
X134559524Y-112831961D01*
X134559524Y-112831961D02*
X134511905Y-112736723D01*
X134511905Y-112736723D02*
X134464286Y-112546247D01*
X134464286Y-112546247D02*
X134464286Y-112403390D01*
X134464286Y-112403390D02*
X134511905Y-112212914D01*
X134511905Y-112212914D02*
X134559524Y-112117676D01*
X134559524Y-112117676D02*
X134654762Y-112022438D01*
X134654762Y-112022438D02*
X134797619Y-111974819D01*
X134797619Y-111974819D02*
X134892857Y-111974819D01*
X134892857Y-111974819D02*
X135035714Y-112022438D01*
X135035714Y-112022438D02*
X135083333Y-112070057D01*
X135416667Y-111974819D02*
X136035714Y-111974819D01*
X136035714Y-111974819D02*
X135702381Y-112355771D01*
X135702381Y-112355771D02*
X135845238Y-112355771D01*
X135845238Y-112355771D02*
X135940476Y-112403390D01*
X135940476Y-112403390D02*
X135988095Y-112451009D01*
X135988095Y-112451009D02*
X136035714Y-112546247D01*
X136035714Y-112546247D02*
X136035714Y-112784342D01*
X136035714Y-112784342D02*
X135988095Y-112879580D01*
X135988095Y-112879580D02*
X135940476Y-112927200D01*
X135940476Y-112927200D02*
X135845238Y-112974819D01*
X135845238Y-112974819D02*
X135559524Y-112974819D01*
X135559524Y-112974819D02*
X135464286Y-112927200D01*
X135464286Y-112927200D02*
X135416667Y-112879580D01*
X142004761Y-119950057D02*
X141909523Y-119902438D01*
X141909523Y-119902438D02*
X141814285Y-119807200D01*
X141814285Y-119807200D02*
X141671428Y-119664342D01*
X141671428Y-119664342D02*
X141576190Y-119616723D01*
X141576190Y-119616723D02*
X141480952Y-119616723D01*
X141528571Y-119854819D02*
X141433333Y-119807200D01*
X141433333Y-119807200D02*
X141338095Y-119711961D01*
X141338095Y-119711961D02*
X141290476Y-119521485D01*
X141290476Y-119521485D02*
X141290476Y-119188152D01*
X141290476Y-119188152D02*
X141338095Y-118997676D01*
X141338095Y-118997676D02*
X141433333Y-118902438D01*
X141433333Y-118902438D02*
X141528571Y-118854819D01*
X141528571Y-118854819D02*
X141719047Y-118854819D01*
X141719047Y-118854819D02*
X141814285Y-118902438D01*
X141814285Y-118902438D02*
X141909523Y-118997676D01*
X141909523Y-118997676D02*
X141957142Y-119188152D01*
X141957142Y-119188152D02*
X141957142Y-119521485D01*
X141957142Y-119521485D02*
X141909523Y-119711961D01*
X141909523Y-119711961D02*
X141814285Y-119807200D01*
X141814285Y-119807200D02*
X141719047Y-119854819D01*
X141719047Y-119854819D02*
X141528571Y-119854819D01*
X142909523Y-119854819D02*
X142338095Y-119854819D01*
X142623809Y-119854819D02*
X142623809Y-118854819D01*
X142623809Y-118854819D02*
X142528571Y-118997676D01*
X142528571Y-118997676D02*
X142433333Y-119092914D01*
X142433333Y-119092914D02*
X142338095Y-119140533D01*
X119266666Y-116504819D02*
X119266666Y-117219104D01*
X119266666Y-117219104D02*
X119219047Y-117361961D01*
X119219047Y-117361961D02*
X119123809Y-117457200D01*
X119123809Y-117457200D02*
X118980952Y-117504819D01*
X118980952Y-117504819D02*
X118885714Y-117504819D01*
X119647619Y-116504819D02*
X120266666Y-116504819D01*
X120266666Y-116504819D02*
X119933333Y-116885771D01*
X119933333Y-116885771D02*
X120076190Y-116885771D01*
X120076190Y-116885771D02*
X120171428Y-116933390D01*
X120171428Y-116933390D02*
X120219047Y-116981009D01*
X120219047Y-116981009D02*
X120266666Y-117076247D01*
X120266666Y-117076247D02*
X120266666Y-117314342D01*
X120266666Y-117314342D02*
X120219047Y-117409580D01*
X120219047Y-117409580D02*
X120171428Y-117457200D01*
X120171428Y-117457200D02*
X120076190Y-117504819D01*
X120076190Y-117504819D02*
X119790476Y-117504819D01*
X119790476Y-117504819D02*
X119695238Y-117457200D01*
X119695238Y-117457200D02*
X119647619Y-117409580D01*
X133833333Y-98304819D02*
X133500000Y-97828628D01*
X133261905Y-98304819D02*
X133261905Y-97304819D01*
X133261905Y-97304819D02*
X133642857Y-97304819D01*
X133642857Y-97304819D02*
X133738095Y-97352438D01*
X133738095Y-97352438D02*
X133785714Y-97400057D01*
X133785714Y-97400057D02*
X133833333Y-97495295D01*
X133833333Y-97495295D02*
X133833333Y-97638152D01*
X133833333Y-97638152D02*
X133785714Y-97733390D01*
X133785714Y-97733390D02*
X133738095Y-97781009D01*
X133738095Y-97781009D02*
X133642857Y-97828628D01*
X133642857Y-97828628D02*
X133261905Y-97828628D01*
X134738095Y-97304819D02*
X134261905Y-97304819D01*
X134261905Y-97304819D02*
X134214286Y-97781009D01*
X134214286Y-97781009D02*
X134261905Y-97733390D01*
X134261905Y-97733390D02*
X134357143Y-97685771D01*
X134357143Y-97685771D02*
X134595238Y-97685771D01*
X134595238Y-97685771D02*
X134690476Y-97733390D01*
X134690476Y-97733390D02*
X134738095Y-97781009D01*
X134738095Y-97781009D02*
X134785714Y-97876247D01*
X134785714Y-97876247D02*
X134785714Y-98114342D01*
X134785714Y-98114342D02*
X134738095Y-98209580D01*
X134738095Y-98209580D02*
X134690476Y-98257200D01*
X134690476Y-98257200D02*
X134595238Y-98304819D01*
X134595238Y-98304819D02*
X134357143Y-98304819D01*
X134357143Y-98304819D02*
X134261905Y-98257200D01*
X134261905Y-98257200D02*
X134214286Y-98209580D01*
X133952080Y-95767857D02*
X133999700Y-95815476D01*
X133999700Y-95815476D02*
X134047319Y-95958333D01*
X134047319Y-95958333D02*
X134047319Y-96053571D01*
X134047319Y-96053571D02*
X133999700Y-96196428D01*
X133999700Y-96196428D02*
X133904461Y-96291666D01*
X133904461Y-96291666D02*
X133809223Y-96339285D01*
X133809223Y-96339285D02*
X133618747Y-96386904D01*
X133618747Y-96386904D02*
X133475890Y-96386904D01*
X133475890Y-96386904D02*
X133285414Y-96339285D01*
X133285414Y-96339285D02*
X133190176Y-96291666D01*
X133190176Y-96291666D02*
X133094938Y-96196428D01*
X133094938Y-96196428D02*
X133047319Y-96053571D01*
X133047319Y-96053571D02*
X133047319Y-95958333D01*
X133047319Y-95958333D02*
X133094938Y-95815476D01*
X133094938Y-95815476D02*
X133142557Y-95767857D01*
X134047319Y-94815476D02*
X134047319Y-95386904D01*
X134047319Y-95101190D02*
X133047319Y-95101190D01*
X133047319Y-95101190D02*
X133190176Y-95196428D01*
X133190176Y-95196428D02*
X133285414Y-95291666D01*
X133285414Y-95291666D02*
X133333033Y-95386904D01*
X134047319Y-94339285D02*
X134047319Y-94148809D01*
X134047319Y-94148809D02*
X133999700Y-94053571D01*
X133999700Y-94053571D02*
X133952080Y-94005952D01*
X133952080Y-94005952D02*
X133809223Y-93910714D01*
X133809223Y-93910714D02*
X133618747Y-93863095D01*
X133618747Y-93863095D02*
X133237795Y-93863095D01*
X133237795Y-93863095D02*
X133142557Y-93910714D01*
X133142557Y-93910714D02*
X133094938Y-93958333D01*
X133094938Y-93958333D02*
X133047319Y-94053571D01*
X133047319Y-94053571D02*
X133047319Y-94244047D01*
X133047319Y-94244047D02*
X133094938Y-94339285D01*
X133094938Y-94339285D02*
X133142557Y-94386904D01*
X133142557Y-94386904D02*
X133237795Y-94434523D01*
X133237795Y-94434523D02*
X133475890Y-94434523D01*
X133475890Y-94434523D02*
X133571128Y-94386904D01*
X133571128Y-94386904D02*
X133618747Y-94339285D01*
X133618747Y-94339285D02*
X133666366Y-94244047D01*
X133666366Y-94244047D02*
X133666366Y-94053571D01*
X133666366Y-94053571D02*
X133618747Y-93958333D01*
X133618747Y-93958333D02*
X133571128Y-93910714D01*
X133571128Y-93910714D02*
X133475890Y-93863095D01*
X145357142Y-115359580D02*
X145309523Y-115407200D01*
X145309523Y-115407200D02*
X145166666Y-115454819D01*
X145166666Y-115454819D02*
X145071428Y-115454819D01*
X145071428Y-115454819D02*
X144928571Y-115407200D01*
X144928571Y-115407200D02*
X144833333Y-115311961D01*
X144833333Y-115311961D02*
X144785714Y-115216723D01*
X144785714Y-115216723D02*
X144738095Y-115026247D01*
X144738095Y-115026247D02*
X144738095Y-114883390D01*
X144738095Y-114883390D02*
X144785714Y-114692914D01*
X144785714Y-114692914D02*
X144833333Y-114597676D01*
X144833333Y-114597676D02*
X144928571Y-114502438D01*
X144928571Y-114502438D02*
X145071428Y-114454819D01*
X145071428Y-114454819D02*
X145166666Y-114454819D01*
X145166666Y-114454819D02*
X145309523Y-114502438D01*
X145309523Y-114502438D02*
X145357142Y-114550057D01*
X146309523Y-115454819D02*
X145738095Y-115454819D01*
X146023809Y-115454819D02*
X146023809Y-114454819D01*
X146023809Y-114454819D02*
X145928571Y-114597676D01*
X145928571Y-114597676D02*
X145833333Y-114692914D01*
X145833333Y-114692914D02*
X145738095Y-114740533D01*
X146928571Y-114454819D02*
X147023809Y-114454819D01*
X147023809Y-114454819D02*
X147119047Y-114502438D01*
X147119047Y-114502438D02*
X147166666Y-114550057D01*
X147166666Y-114550057D02*
X147214285Y-114645295D01*
X147214285Y-114645295D02*
X147261904Y-114835771D01*
X147261904Y-114835771D02*
X147261904Y-115073866D01*
X147261904Y-115073866D02*
X147214285Y-115264342D01*
X147214285Y-115264342D02*
X147166666Y-115359580D01*
X147166666Y-115359580D02*
X147119047Y-115407200D01*
X147119047Y-115407200D02*
X147023809Y-115454819D01*
X147023809Y-115454819D02*
X146928571Y-115454819D01*
X146928571Y-115454819D02*
X146833333Y-115407200D01*
X146833333Y-115407200D02*
X146785714Y-115359580D01*
X146785714Y-115359580D02*
X146738095Y-115264342D01*
X146738095Y-115264342D02*
X146690476Y-115073866D01*
X146690476Y-115073866D02*
X146690476Y-114835771D01*
X146690476Y-114835771D02*
X146738095Y-114645295D01*
X146738095Y-114645295D02*
X146785714Y-114550057D01*
X146785714Y-114550057D02*
X146833333Y-114502438D01*
X146833333Y-114502438D02*
X146928571Y-114454819D01*
X135859580Y-95767857D02*
X135907200Y-95815476D01*
X135907200Y-95815476D02*
X135954819Y-95958333D01*
X135954819Y-95958333D02*
X135954819Y-96053571D01*
X135954819Y-96053571D02*
X135907200Y-96196428D01*
X135907200Y-96196428D02*
X135811961Y-96291666D01*
X135811961Y-96291666D02*
X135716723Y-96339285D01*
X135716723Y-96339285D02*
X135526247Y-96386904D01*
X135526247Y-96386904D02*
X135383390Y-96386904D01*
X135383390Y-96386904D02*
X135192914Y-96339285D01*
X135192914Y-96339285D02*
X135097676Y-96291666D01*
X135097676Y-96291666D02*
X135002438Y-96196428D01*
X135002438Y-96196428D02*
X134954819Y-96053571D01*
X134954819Y-96053571D02*
X134954819Y-95958333D01*
X134954819Y-95958333D02*
X135002438Y-95815476D01*
X135002438Y-95815476D02*
X135050057Y-95767857D01*
X135050057Y-95386904D02*
X135002438Y-95339285D01*
X135002438Y-95339285D02*
X134954819Y-95244047D01*
X134954819Y-95244047D02*
X134954819Y-95005952D01*
X134954819Y-95005952D02*
X135002438Y-94910714D01*
X135002438Y-94910714D02*
X135050057Y-94863095D01*
X135050057Y-94863095D02*
X135145295Y-94815476D01*
X135145295Y-94815476D02*
X135240533Y-94815476D01*
X135240533Y-94815476D02*
X135383390Y-94863095D01*
X135383390Y-94863095D02*
X135954819Y-95434523D01*
X135954819Y-95434523D02*
X135954819Y-94815476D01*
X134954819Y-94196428D02*
X134954819Y-94101190D01*
X134954819Y-94101190D02*
X135002438Y-94005952D01*
X135002438Y-94005952D02*
X135050057Y-93958333D01*
X135050057Y-93958333D02*
X135145295Y-93910714D01*
X135145295Y-93910714D02*
X135335771Y-93863095D01*
X135335771Y-93863095D02*
X135573866Y-93863095D01*
X135573866Y-93863095D02*
X135764342Y-93910714D01*
X135764342Y-93910714D02*
X135859580Y-93958333D01*
X135859580Y-93958333D02*
X135907200Y-94005952D01*
X135907200Y-94005952D02*
X135954819Y-94101190D01*
X135954819Y-94101190D02*
X135954819Y-94196428D01*
X135954819Y-94196428D02*
X135907200Y-94291666D01*
X135907200Y-94291666D02*
X135859580Y-94339285D01*
X135859580Y-94339285D02*
X135764342Y-94386904D01*
X135764342Y-94386904D02*
X135573866Y-94434523D01*
X135573866Y-94434523D02*
X135335771Y-94434523D01*
X135335771Y-94434523D02*
X135145295Y-94386904D01*
X135145295Y-94386904D02*
X135050057Y-94339285D01*
X135050057Y-94339285D02*
X135002438Y-94291666D01*
X135002438Y-94291666D02*
X134954819Y-94196428D01*
X144784580Y-105916666D02*
X144832200Y-105964285D01*
X144832200Y-105964285D02*
X144879819Y-106107142D01*
X144879819Y-106107142D02*
X144879819Y-106202380D01*
X144879819Y-106202380D02*
X144832200Y-106345237D01*
X144832200Y-106345237D02*
X144736961Y-106440475D01*
X144736961Y-106440475D02*
X144641723Y-106488094D01*
X144641723Y-106488094D02*
X144451247Y-106535713D01*
X144451247Y-106535713D02*
X144308390Y-106535713D01*
X144308390Y-106535713D02*
X144117914Y-106488094D01*
X144117914Y-106488094D02*
X144022676Y-106440475D01*
X144022676Y-106440475D02*
X143927438Y-106345237D01*
X143927438Y-106345237D02*
X143879819Y-106202380D01*
X143879819Y-106202380D02*
X143879819Y-106107142D01*
X143879819Y-106107142D02*
X143927438Y-105964285D01*
X143927438Y-105964285D02*
X143975057Y-105916666D01*
X143879819Y-105583332D02*
X143879819Y-104916666D01*
X143879819Y-104916666D02*
X144879819Y-105345237D01*
X128657142Y-86609580D02*
X128609523Y-86657200D01*
X128609523Y-86657200D02*
X128466666Y-86704819D01*
X128466666Y-86704819D02*
X128371428Y-86704819D01*
X128371428Y-86704819D02*
X128228571Y-86657200D01*
X128228571Y-86657200D02*
X128133333Y-86561961D01*
X128133333Y-86561961D02*
X128085714Y-86466723D01*
X128085714Y-86466723D02*
X128038095Y-86276247D01*
X128038095Y-86276247D02*
X128038095Y-86133390D01*
X128038095Y-86133390D02*
X128085714Y-85942914D01*
X128085714Y-85942914D02*
X128133333Y-85847676D01*
X128133333Y-85847676D02*
X128228571Y-85752438D01*
X128228571Y-85752438D02*
X128371428Y-85704819D01*
X128371428Y-85704819D02*
X128466666Y-85704819D01*
X128466666Y-85704819D02*
X128609523Y-85752438D01*
X128609523Y-85752438D02*
X128657142Y-85800057D01*
X129038095Y-85800057D02*
X129085714Y-85752438D01*
X129085714Y-85752438D02*
X129180952Y-85704819D01*
X129180952Y-85704819D02*
X129419047Y-85704819D01*
X129419047Y-85704819D02*
X129514285Y-85752438D01*
X129514285Y-85752438D02*
X129561904Y-85800057D01*
X129561904Y-85800057D02*
X129609523Y-85895295D01*
X129609523Y-85895295D02*
X129609523Y-85990533D01*
X129609523Y-85990533D02*
X129561904Y-86133390D01*
X129561904Y-86133390D02*
X128990476Y-86704819D01*
X128990476Y-86704819D02*
X129609523Y-86704819D01*
X129990476Y-85800057D02*
X130038095Y-85752438D01*
X130038095Y-85752438D02*
X130133333Y-85704819D01*
X130133333Y-85704819D02*
X130371428Y-85704819D01*
X130371428Y-85704819D02*
X130466666Y-85752438D01*
X130466666Y-85752438D02*
X130514285Y-85800057D01*
X130514285Y-85800057D02*
X130561904Y-85895295D01*
X130561904Y-85895295D02*
X130561904Y-85990533D01*
X130561904Y-85990533D02*
X130514285Y-86133390D01*
X130514285Y-86133390D02*
X129942857Y-86704819D01*
X129942857Y-86704819D02*
X130561904Y-86704819D01*
X137833333Y-98209580D02*
X137785714Y-98257200D01*
X137785714Y-98257200D02*
X137642857Y-98304819D01*
X137642857Y-98304819D02*
X137547619Y-98304819D01*
X137547619Y-98304819D02*
X137404762Y-98257200D01*
X137404762Y-98257200D02*
X137309524Y-98161961D01*
X137309524Y-98161961D02*
X137261905Y-98066723D01*
X137261905Y-98066723D02*
X137214286Y-97876247D01*
X137214286Y-97876247D02*
X137214286Y-97733390D01*
X137214286Y-97733390D02*
X137261905Y-97542914D01*
X137261905Y-97542914D02*
X137309524Y-97447676D01*
X137309524Y-97447676D02*
X137404762Y-97352438D01*
X137404762Y-97352438D02*
X137547619Y-97304819D01*
X137547619Y-97304819D02*
X137642857Y-97304819D01*
X137642857Y-97304819D02*
X137785714Y-97352438D01*
X137785714Y-97352438D02*
X137833333Y-97400057D01*
X138785714Y-98304819D02*
X138214286Y-98304819D01*
X138500000Y-98304819D02*
X138500000Y-97304819D01*
X138500000Y-97304819D02*
X138404762Y-97447676D01*
X138404762Y-97447676D02*
X138309524Y-97542914D01*
X138309524Y-97542914D02*
X138214286Y-97590533D01*
X146857142Y-96359580D02*
X146809523Y-96407200D01*
X146809523Y-96407200D02*
X146666666Y-96454819D01*
X146666666Y-96454819D02*
X146571428Y-96454819D01*
X146571428Y-96454819D02*
X146428571Y-96407200D01*
X146428571Y-96407200D02*
X146333333Y-96311961D01*
X146333333Y-96311961D02*
X146285714Y-96216723D01*
X146285714Y-96216723D02*
X146238095Y-96026247D01*
X146238095Y-96026247D02*
X146238095Y-95883390D01*
X146238095Y-95883390D02*
X146285714Y-95692914D01*
X146285714Y-95692914D02*
X146333333Y-95597676D01*
X146333333Y-95597676D02*
X146428571Y-95502438D01*
X146428571Y-95502438D02*
X146571428Y-95454819D01*
X146571428Y-95454819D02*
X146666666Y-95454819D01*
X146666666Y-95454819D02*
X146809523Y-95502438D01*
X146809523Y-95502438D02*
X146857142Y-95550057D01*
X147238095Y-95550057D02*
X147285714Y-95502438D01*
X147285714Y-95502438D02*
X147380952Y-95454819D01*
X147380952Y-95454819D02*
X147619047Y-95454819D01*
X147619047Y-95454819D02*
X147714285Y-95502438D01*
X147714285Y-95502438D02*
X147761904Y-95550057D01*
X147761904Y-95550057D02*
X147809523Y-95645295D01*
X147809523Y-95645295D02*
X147809523Y-95740533D01*
X147809523Y-95740533D02*
X147761904Y-95883390D01*
X147761904Y-95883390D02*
X147190476Y-96454819D01*
X147190476Y-96454819D02*
X147809523Y-96454819D01*
X148714285Y-95454819D02*
X148238095Y-95454819D01*
X148238095Y-95454819D02*
X148190476Y-95931009D01*
X148190476Y-95931009D02*
X148238095Y-95883390D01*
X148238095Y-95883390D02*
X148333333Y-95835771D01*
X148333333Y-95835771D02*
X148571428Y-95835771D01*
X148571428Y-95835771D02*
X148666666Y-95883390D01*
X148666666Y-95883390D02*
X148714285Y-95931009D01*
X148714285Y-95931009D02*
X148761904Y-96026247D01*
X148761904Y-96026247D02*
X148761904Y-96264342D01*
X148761904Y-96264342D02*
X148714285Y-96359580D01*
X148714285Y-96359580D02*
X148666666Y-96407200D01*
X148666666Y-96407200D02*
X148571428Y-96454819D01*
X148571428Y-96454819D02*
X148333333Y-96454819D01*
X148333333Y-96454819D02*
X148238095Y-96407200D01*
X148238095Y-96407200D02*
X148190476Y-96359580D01*
X141833333Y-100954819D02*
X141500000Y-100478628D01*
X141261905Y-100954819D02*
X141261905Y-99954819D01*
X141261905Y-99954819D02*
X141642857Y-99954819D01*
X141642857Y-99954819D02*
X141738095Y-100002438D01*
X141738095Y-100002438D02*
X141785714Y-100050057D01*
X141785714Y-100050057D02*
X141833333Y-100145295D01*
X141833333Y-100145295D02*
X141833333Y-100288152D01*
X141833333Y-100288152D02*
X141785714Y-100383390D01*
X141785714Y-100383390D02*
X141738095Y-100431009D01*
X141738095Y-100431009D02*
X141642857Y-100478628D01*
X141642857Y-100478628D02*
X141261905Y-100478628D01*
X142690476Y-99954819D02*
X142500000Y-99954819D01*
X142500000Y-99954819D02*
X142404762Y-100002438D01*
X142404762Y-100002438D02*
X142357143Y-100050057D01*
X142357143Y-100050057D02*
X142261905Y-100192914D01*
X142261905Y-100192914D02*
X142214286Y-100383390D01*
X142214286Y-100383390D02*
X142214286Y-100764342D01*
X142214286Y-100764342D02*
X142261905Y-100859580D01*
X142261905Y-100859580D02*
X142309524Y-100907200D01*
X142309524Y-100907200D02*
X142404762Y-100954819D01*
X142404762Y-100954819D02*
X142595238Y-100954819D01*
X142595238Y-100954819D02*
X142690476Y-100907200D01*
X142690476Y-100907200D02*
X142738095Y-100859580D01*
X142738095Y-100859580D02*
X142785714Y-100764342D01*
X142785714Y-100764342D02*
X142785714Y-100526247D01*
X142785714Y-100526247D02*
X142738095Y-100431009D01*
X142738095Y-100431009D02*
X142690476Y-100383390D01*
X142690476Y-100383390D02*
X142595238Y-100335771D01*
X142595238Y-100335771D02*
X142404762Y-100335771D01*
X142404762Y-100335771D02*
X142309524Y-100383390D01*
X142309524Y-100383390D02*
X142261905Y-100431009D01*
X142261905Y-100431009D02*
X142214286Y-100526247D01*
X128657142Y-89009580D02*
X128609523Y-89057200D01*
X128609523Y-89057200D02*
X128466666Y-89104819D01*
X128466666Y-89104819D02*
X128371428Y-89104819D01*
X128371428Y-89104819D02*
X128228571Y-89057200D01*
X128228571Y-89057200D02*
X128133333Y-88961961D01*
X128133333Y-88961961D02*
X128085714Y-88866723D01*
X128085714Y-88866723D02*
X128038095Y-88676247D01*
X128038095Y-88676247D02*
X128038095Y-88533390D01*
X128038095Y-88533390D02*
X128085714Y-88342914D01*
X128085714Y-88342914D02*
X128133333Y-88247676D01*
X128133333Y-88247676D02*
X128228571Y-88152438D01*
X128228571Y-88152438D02*
X128371428Y-88104819D01*
X128371428Y-88104819D02*
X128466666Y-88104819D01*
X128466666Y-88104819D02*
X128609523Y-88152438D01*
X128609523Y-88152438D02*
X128657142Y-88200057D01*
X129038095Y-88200057D02*
X129085714Y-88152438D01*
X129085714Y-88152438D02*
X129180952Y-88104819D01*
X129180952Y-88104819D02*
X129419047Y-88104819D01*
X129419047Y-88104819D02*
X129514285Y-88152438D01*
X129514285Y-88152438D02*
X129561904Y-88200057D01*
X129561904Y-88200057D02*
X129609523Y-88295295D01*
X129609523Y-88295295D02*
X129609523Y-88390533D01*
X129609523Y-88390533D02*
X129561904Y-88533390D01*
X129561904Y-88533390D02*
X128990476Y-89104819D01*
X128990476Y-89104819D02*
X129609523Y-89104819D01*
X129942857Y-88104819D02*
X130561904Y-88104819D01*
X130561904Y-88104819D02*
X130228571Y-88485771D01*
X130228571Y-88485771D02*
X130371428Y-88485771D01*
X130371428Y-88485771D02*
X130466666Y-88533390D01*
X130466666Y-88533390D02*
X130514285Y-88581009D01*
X130514285Y-88581009D02*
X130561904Y-88676247D01*
X130561904Y-88676247D02*
X130561904Y-88914342D01*
X130561904Y-88914342D02*
X130514285Y-89009580D01*
X130514285Y-89009580D02*
X130466666Y-89057200D01*
X130466666Y-89057200D02*
X130371428Y-89104819D01*
X130371428Y-89104819D02*
X130085714Y-89104819D01*
X130085714Y-89104819D02*
X129990476Y-89057200D01*
X129990476Y-89057200D02*
X129942857Y-89009580D01*
X118761905Y-110954819D02*
X118761905Y-109954819D01*
X118761905Y-109954819D02*
X119000000Y-109954819D01*
X119000000Y-109954819D02*
X119142857Y-110002438D01*
X119142857Y-110002438D02*
X119238095Y-110097676D01*
X119238095Y-110097676D02*
X119285714Y-110192914D01*
X119285714Y-110192914D02*
X119333333Y-110383390D01*
X119333333Y-110383390D02*
X119333333Y-110526247D01*
X119333333Y-110526247D02*
X119285714Y-110716723D01*
X119285714Y-110716723D02*
X119238095Y-110811961D01*
X119238095Y-110811961D02*
X119142857Y-110907200D01*
X119142857Y-110907200D02*
X119000000Y-110954819D01*
X119000000Y-110954819D02*
X118761905Y-110954819D01*
X120285714Y-110954819D02*
X119714286Y-110954819D01*
X120000000Y-110954819D02*
X120000000Y-109954819D01*
X120000000Y-109954819D02*
X119904762Y-110097676D01*
X119904762Y-110097676D02*
X119809524Y-110192914D01*
X119809524Y-110192914D02*
X119714286Y-110240533D01*
X130609580Y-95842857D02*
X130657200Y-95890476D01*
X130657200Y-95890476D02*
X130704819Y-96033333D01*
X130704819Y-96033333D02*
X130704819Y-96128571D01*
X130704819Y-96128571D02*
X130657200Y-96271428D01*
X130657200Y-96271428D02*
X130561961Y-96366666D01*
X130561961Y-96366666D02*
X130466723Y-96414285D01*
X130466723Y-96414285D02*
X130276247Y-96461904D01*
X130276247Y-96461904D02*
X130133390Y-96461904D01*
X130133390Y-96461904D02*
X129942914Y-96414285D01*
X129942914Y-96414285D02*
X129847676Y-96366666D01*
X129847676Y-96366666D02*
X129752438Y-96271428D01*
X129752438Y-96271428D02*
X129704819Y-96128571D01*
X129704819Y-96128571D02*
X129704819Y-96033333D01*
X129704819Y-96033333D02*
X129752438Y-95890476D01*
X129752438Y-95890476D02*
X129800057Y-95842857D01*
X130704819Y-94890476D02*
X130704819Y-95461904D01*
X130704819Y-95176190D02*
X129704819Y-95176190D01*
X129704819Y-95176190D02*
X129847676Y-95271428D01*
X129847676Y-95271428D02*
X129942914Y-95366666D01*
X129942914Y-95366666D02*
X129990533Y-95461904D01*
X129704819Y-94557142D02*
X129704819Y-93890476D01*
X129704819Y-93890476D02*
X130704819Y-94319047D01*
X135833333Y-98304819D02*
X135500000Y-97828628D01*
X135261905Y-98304819D02*
X135261905Y-97304819D01*
X135261905Y-97304819D02*
X135642857Y-97304819D01*
X135642857Y-97304819D02*
X135738095Y-97352438D01*
X135738095Y-97352438D02*
X135785714Y-97400057D01*
X135785714Y-97400057D02*
X135833333Y-97495295D01*
X135833333Y-97495295D02*
X135833333Y-97638152D01*
X135833333Y-97638152D02*
X135785714Y-97733390D01*
X135785714Y-97733390D02*
X135738095Y-97781009D01*
X135738095Y-97781009D02*
X135642857Y-97828628D01*
X135642857Y-97828628D02*
X135261905Y-97828628D01*
X136690476Y-97638152D02*
X136690476Y-98304819D01*
X136452381Y-97257200D02*
X136214286Y-97971485D01*
X136214286Y-97971485D02*
X136833333Y-97971485D01*
X144454819Y-114642857D02*
X143978628Y-114976190D01*
X144454819Y-115214285D02*
X143454819Y-115214285D01*
X143454819Y-115214285D02*
X143454819Y-114833333D01*
X143454819Y-114833333D02*
X143502438Y-114738095D01*
X143502438Y-114738095D02*
X143550057Y-114690476D01*
X143550057Y-114690476D02*
X143645295Y-114642857D01*
X143645295Y-114642857D02*
X143788152Y-114642857D01*
X143788152Y-114642857D02*
X143883390Y-114690476D01*
X143883390Y-114690476D02*
X143931009Y-114738095D01*
X143931009Y-114738095D02*
X143978628Y-114833333D01*
X143978628Y-114833333D02*
X143978628Y-115214285D01*
X144454819Y-113690476D02*
X144454819Y-114261904D01*
X144454819Y-113976190D02*
X143454819Y-113976190D01*
X143454819Y-113976190D02*
X143597676Y-114071428D01*
X143597676Y-114071428D02*
X143692914Y-114166666D01*
X143692914Y-114166666D02*
X143740533Y-114261904D01*
X143454819Y-113071428D02*
X143454819Y-112976190D01*
X143454819Y-112976190D02*
X143502438Y-112880952D01*
X143502438Y-112880952D02*
X143550057Y-112833333D01*
X143550057Y-112833333D02*
X143645295Y-112785714D01*
X143645295Y-112785714D02*
X143835771Y-112738095D01*
X143835771Y-112738095D02*
X144073866Y-112738095D01*
X144073866Y-112738095D02*
X144264342Y-112785714D01*
X144264342Y-112785714D02*
X144359580Y-112833333D01*
X144359580Y-112833333D02*
X144407200Y-112880952D01*
X144407200Y-112880952D02*
X144454819Y-112976190D01*
X144454819Y-112976190D02*
X144454819Y-113071428D01*
X144454819Y-113071428D02*
X144407200Y-113166666D01*
X144407200Y-113166666D02*
X144359580Y-113214285D01*
X144359580Y-113214285D02*
X144264342Y-113261904D01*
X144264342Y-113261904D02*
X144073866Y-113309523D01*
X144073866Y-113309523D02*
X143835771Y-113309523D01*
X143835771Y-113309523D02*
X143645295Y-113261904D01*
X143645295Y-113261904D02*
X143550057Y-113214285D01*
X143550057Y-113214285D02*
X143502438Y-113166666D01*
X143502438Y-113166666D02*
X143454819Y-113071428D01*
X132209580Y-95792857D02*
X132257200Y-95840476D01*
X132257200Y-95840476D02*
X132304819Y-95983333D01*
X132304819Y-95983333D02*
X132304819Y-96078571D01*
X132304819Y-96078571D02*
X132257200Y-96221428D01*
X132257200Y-96221428D02*
X132161961Y-96316666D01*
X132161961Y-96316666D02*
X132066723Y-96364285D01*
X132066723Y-96364285D02*
X131876247Y-96411904D01*
X131876247Y-96411904D02*
X131733390Y-96411904D01*
X131733390Y-96411904D02*
X131542914Y-96364285D01*
X131542914Y-96364285D02*
X131447676Y-96316666D01*
X131447676Y-96316666D02*
X131352438Y-96221428D01*
X131352438Y-96221428D02*
X131304819Y-96078571D01*
X131304819Y-96078571D02*
X131304819Y-95983333D01*
X131304819Y-95983333D02*
X131352438Y-95840476D01*
X131352438Y-95840476D02*
X131400057Y-95792857D01*
X132304819Y-94840476D02*
X132304819Y-95411904D01*
X132304819Y-95126190D02*
X131304819Y-95126190D01*
X131304819Y-95126190D02*
X131447676Y-95221428D01*
X131447676Y-95221428D02*
X131542914Y-95316666D01*
X131542914Y-95316666D02*
X131590533Y-95411904D01*
X131733390Y-94269047D02*
X131685771Y-94364285D01*
X131685771Y-94364285D02*
X131638152Y-94411904D01*
X131638152Y-94411904D02*
X131542914Y-94459523D01*
X131542914Y-94459523D02*
X131495295Y-94459523D01*
X131495295Y-94459523D02*
X131400057Y-94411904D01*
X131400057Y-94411904D02*
X131352438Y-94364285D01*
X131352438Y-94364285D02*
X131304819Y-94269047D01*
X131304819Y-94269047D02*
X131304819Y-94078571D01*
X131304819Y-94078571D02*
X131352438Y-93983333D01*
X131352438Y-93983333D02*
X131400057Y-93935714D01*
X131400057Y-93935714D02*
X131495295Y-93888095D01*
X131495295Y-93888095D02*
X131542914Y-93888095D01*
X131542914Y-93888095D02*
X131638152Y-93935714D01*
X131638152Y-93935714D02*
X131685771Y-93983333D01*
X131685771Y-93983333D02*
X131733390Y-94078571D01*
X131733390Y-94078571D02*
X131733390Y-94269047D01*
X131733390Y-94269047D02*
X131781009Y-94364285D01*
X131781009Y-94364285D02*
X131828628Y-94411904D01*
X131828628Y-94411904D02*
X131923866Y-94459523D01*
X131923866Y-94459523D02*
X132114342Y-94459523D01*
X132114342Y-94459523D02*
X132209580Y-94411904D01*
X132209580Y-94411904D02*
X132257200Y-94364285D01*
X132257200Y-94364285D02*
X132304819Y-94269047D01*
X132304819Y-94269047D02*
X132304819Y-94078571D01*
X132304819Y-94078571D02*
X132257200Y-93983333D01*
X132257200Y-93983333D02*
X132209580Y-93935714D01*
X132209580Y-93935714D02*
X132114342Y-93888095D01*
X132114342Y-93888095D02*
X131923866Y-93888095D01*
X131923866Y-93888095D02*
X131828628Y-93935714D01*
X131828628Y-93935714D02*
X131781009Y-93983333D01*
X131781009Y-93983333D02*
X131733390Y-94078571D01*
X145833333Y-108859580D02*
X145785714Y-108907200D01*
X145785714Y-108907200D02*
X145642857Y-108954819D01*
X145642857Y-108954819D02*
X145547619Y-108954819D01*
X145547619Y-108954819D02*
X145404762Y-108907200D01*
X145404762Y-108907200D02*
X145309524Y-108811961D01*
X145309524Y-108811961D02*
X145261905Y-108716723D01*
X145261905Y-108716723D02*
X145214286Y-108526247D01*
X145214286Y-108526247D02*
X145214286Y-108383390D01*
X145214286Y-108383390D02*
X145261905Y-108192914D01*
X145261905Y-108192914D02*
X145309524Y-108097676D01*
X145309524Y-108097676D02*
X145404762Y-108002438D01*
X145404762Y-108002438D02*
X145547619Y-107954819D01*
X145547619Y-107954819D02*
X145642857Y-107954819D01*
X145642857Y-107954819D02*
X145785714Y-108002438D01*
X145785714Y-108002438D02*
X145833333Y-108050057D01*
X146738095Y-107954819D02*
X146261905Y-107954819D01*
X146261905Y-107954819D02*
X146214286Y-108431009D01*
X146214286Y-108431009D02*
X146261905Y-108383390D01*
X146261905Y-108383390D02*
X146357143Y-108335771D01*
X146357143Y-108335771D02*
X146595238Y-108335771D01*
X146595238Y-108335771D02*
X146690476Y-108383390D01*
X146690476Y-108383390D02*
X146738095Y-108431009D01*
X146738095Y-108431009D02*
X146785714Y-108526247D01*
X146785714Y-108526247D02*
X146785714Y-108764342D01*
X146785714Y-108764342D02*
X146738095Y-108859580D01*
X146738095Y-108859580D02*
X146690476Y-108907200D01*
X146690476Y-108907200D02*
X146595238Y-108954819D01*
X146595238Y-108954819D02*
X146357143Y-108954819D01*
X146357143Y-108954819D02*
X146261905Y-108907200D01*
X146261905Y-108907200D02*
X146214286Y-108859580D01*
X118761905Y-112954819D02*
X118761905Y-111954819D01*
X118761905Y-111954819D02*
X119000000Y-111954819D01*
X119000000Y-111954819D02*
X119142857Y-112002438D01*
X119142857Y-112002438D02*
X119238095Y-112097676D01*
X119238095Y-112097676D02*
X119285714Y-112192914D01*
X119285714Y-112192914D02*
X119333333Y-112383390D01*
X119333333Y-112383390D02*
X119333333Y-112526247D01*
X119333333Y-112526247D02*
X119285714Y-112716723D01*
X119285714Y-112716723D02*
X119238095Y-112811961D01*
X119238095Y-112811961D02*
X119142857Y-112907200D01*
X119142857Y-112907200D02*
X119000000Y-112954819D01*
X119000000Y-112954819D02*
X118761905Y-112954819D01*
X119666667Y-111954819D02*
X120285714Y-111954819D01*
X120285714Y-111954819D02*
X119952381Y-112335771D01*
X119952381Y-112335771D02*
X120095238Y-112335771D01*
X120095238Y-112335771D02*
X120190476Y-112383390D01*
X120190476Y-112383390D02*
X120238095Y-112431009D01*
X120238095Y-112431009D02*
X120285714Y-112526247D01*
X120285714Y-112526247D02*
X120285714Y-112764342D01*
X120285714Y-112764342D02*
X120238095Y-112859580D01*
X120238095Y-112859580D02*
X120190476Y-112907200D01*
X120190476Y-112907200D02*
X120095238Y-112954819D01*
X120095238Y-112954819D02*
X119809524Y-112954819D01*
X119809524Y-112954819D02*
X119714286Y-112907200D01*
X119714286Y-112907200D02*
X119666667Y-112859580D01*
X138773809Y-86378628D02*
X138773809Y-86854819D01*
X138440476Y-85854819D02*
X138773809Y-86378628D01*
X138773809Y-86378628D02*
X139107142Y-85854819D01*
X139964285Y-86854819D02*
X139392857Y-86854819D01*
X139678571Y-86854819D02*
X139678571Y-85854819D01*
X139678571Y-85854819D02*
X139583333Y-85997676D01*
X139583333Y-85997676D02*
X139488095Y-86092914D01*
X139488095Y-86092914D02*
X139392857Y-86140533D01*
X129833333Y-111054819D02*
X129500000Y-110578628D01*
X129261905Y-111054819D02*
X129261905Y-110054819D01*
X129261905Y-110054819D02*
X129642857Y-110054819D01*
X129642857Y-110054819D02*
X129738095Y-110102438D01*
X129738095Y-110102438D02*
X129785714Y-110150057D01*
X129785714Y-110150057D02*
X129833333Y-110245295D01*
X129833333Y-110245295D02*
X129833333Y-110388152D01*
X129833333Y-110388152D02*
X129785714Y-110483390D01*
X129785714Y-110483390D02*
X129738095Y-110531009D01*
X129738095Y-110531009D02*
X129642857Y-110578628D01*
X129642857Y-110578628D02*
X129261905Y-110578628D01*
X130785714Y-111054819D02*
X130214286Y-111054819D01*
X130500000Y-111054819D02*
X130500000Y-110054819D01*
X130500000Y-110054819D02*
X130404762Y-110197676D01*
X130404762Y-110197676D02*
X130309524Y-110292914D01*
X130309524Y-110292914D02*
X130214286Y-110340533D01*
X134583333Y-109654819D02*
X134250000Y-109178628D01*
X134011905Y-109654819D02*
X134011905Y-108654819D01*
X134011905Y-108654819D02*
X134392857Y-108654819D01*
X134392857Y-108654819D02*
X134488095Y-108702438D01*
X134488095Y-108702438D02*
X134535714Y-108750057D01*
X134535714Y-108750057D02*
X134583333Y-108845295D01*
X134583333Y-108845295D02*
X134583333Y-108988152D01*
X134583333Y-108988152D02*
X134535714Y-109083390D01*
X134535714Y-109083390D02*
X134488095Y-109131009D01*
X134488095Y-109131009D02*
X134392857Y-109178628D01*
X134392857Y-109178628D02*
X134011905Y-109178628D01*
X134916667Y-108654819D02*
X135535714Y-108654819D01*
X135535714Y-108654819D02*
X135202381Y-109035771D01*
X135202381Y-109035771D02*
X135345238Y-109035771D01*
X135345238Y-109035771D02*
X135440476Y-109083390D01*
X135440476Y-109083390D02*
X135488095Y-109131009D01*
X135488095Y-109131009D02*
X135535714Y-109226247D01*
X135535714Y-109226247D02*
X135535714Y-109464342D01*
X135535714Y-109464342D02*
X135488095Y-109559580D01*
X135488095Y-109559580D02*
X135440476Y-109607200D01*
X135440476Y-109607200D02*
X135345238Y-109654819D01*
X135345238Y-109654819D02*
X135059524Y-109654819D01*
X135059524Y-109654819D02*
X134964286Y-109607200D01*
X134964286Y-109607200D02*
X134916667Y-109559580D01*
X145695833Y-119379580D02*
X145648214Y-119427200D01*
X145648214Y-119427200D02*
X145505357Y-119474819D01*
X145505357Y-119474819D02*
X145410119Y-119474819D01*
X145410119Y-119474819D02*
X145267262Y-119427200D01*
X145267262Y-119427200D02*
X145172024Y-119331961D01*
X145172024Y-119331961D02*
X145124405Y-119236723D01*
X145124405Y-119236723D02*
X145076786Y-119046247D01*
X145076786Y-119046247D02*
X145076786Y-118903390D01*
X145076786Y-118903390D02*
X145124405Y-118712914D01*
X145124405Y-118712914D02*
X145172024Y-118617676D01*
X145172024Y-118617676D02*
X145267262Y-118522438D01*
X145267262Y-118522438D02*
X145410119Y-118474819D01*
X145410119Y-118474819D02*
X145505357Y-118474819D01*
X145505357Y-118474819D02*
X145648214Y-118522438D01*
X145648214Y-118522438D02*
X145695833Y-118570057D01*
X146267262Y-118903390D02*
X146172024Y-118855771D01*
X146172024Y-118855771D02*
X146124405Y-118808152D01*
X146124405Y-118808152D02*
X146076786Y-118712914D01*
X146076786Y-118712914D02*
X146076786Y-118665295D01*
X146076786Y-118665295D02*
X146124405Y-118570057D01*
X146124405Y-118570057D02*
X146172024Y-118522438D01*
X146172024Y-118522438D02*
X146267262Y-118474819D01*
X146267262Y-118474819D02*
X146457738Y-118474819D01*
X146457738Y-118474819D02*
X146552976Y-118522438D01*
X146552976Y-118522438D02*
X146600595Y-118570057D01*
X146600595Y-118570057D02*
X146648214Y-118665295D01*
X146648214Y-118665295D02*
X146648214Y-118712914D01*
X146648214Y-118712914D02*
X146600595Y-118808152D01*
X146600595Y-118808152D02*
X146552976Y-118855771D01*
X146552976Y-118855771D02*
X146457738Y-118903390D01*
X146457738Y-118903390D02*
X146267262Y-118903390D01*
X146267262Y-118903390D02*
X146172024Y-118951009D01*
X146172024Y-118951009D02*
X146124405Y-118998628D01*
X146124405Y-118998628D02*
X146076786Y-119093866D01*
X146076786Y-119093866D02*
X146076786Y-119284342D01*
X146076786Y-119284342D02*
X146124405Y-119379580D01*
X146124405Y-119379580D02*
X146172024Y-119427200D01*
X146172024Y-119427200D02*
X146267262Y-119474819D01*
X146267262Y-119474819D02*
X146457738Y-119474819D01*
X146457738Y-119474819D02*
X146552976Y-119427200D01*
X146552976Y-119427200D02*
X146600595Y-119379580D01*
X146600595Y-119379580D02*
X146648214Y-119284342D01*
X146648214Y-119284342D02*
X146648214Y-119093866D01*
X146648214Y-119093866D02*
X146600595Y-118998628D01*
X146600595Y-118998628D02*
X146552976Y-118951009D01*
X146552976Y-118951009D02*
X146457738Y-118903390D01*
X146857142Y-101359580D02*
X146809523Y-101407200D01*
X146809523Y-101407200D02*
X146666666Y-101454819D01*
X146666666Y-101454819D02*
X146571428Y-101454819D01*
X146571428Y-101454819D02*
X146428571Y-101407200D01*
X146428571Y-101407200D02*
X146333333Y-101311961D01*
X146333333Y-101311961D02*
X146285714Y-101216723D01*
X146285714Y-101216723D02*
X146238095Y-101026247D01*
X146238095Y-101026247D02*
X146238095Y-100883390D01*
X146238095Y-100883390D02*
X146285714Y-100692914D01*
X146285714Y-100692914D02*
X146333333Y-100597676D01*
X146333333Y-100597676D02*
X146428571Y-100502438D01*
X146428571Y-100502438D02*
X146571428Y-100454819D01*
X146571428Y-100454819D02*
X146666666Y-100454819D01*
X146666666Y-100454819D02*
X146809523Y-100502438D01*
X146809523Y-100502438D02*
X146857142Y-100550057D01*
X147238095Y-100550057D02*
X147285714Y-100502438D01*
X147285714Y-100502438D02*
X147380952Y-100454819D01*
X147380952Y-100454819D02*
X147619047Y-100454819D01*
X147619047Y-100454819D02*
X147714285Y-100502438D01*
X147714285Y-100502438D02*
X147761904Y-100550057D01*
X147761904Y-100550057D02*
X147809523Y-100645295D01*
X147809523Y-100645295D02*
X147809523Y-100740533D01*
X147809523Y-100740533D02*
X147761904Y-100883390D01*
X147761904Y-100883390D02*
X147190476Y-101454819D01*
X147190476Y-101454819D02*
X147809523Y-101454819D01*
X148666666Y-100788152D02*
X148666666Y-101454819D01*
X148428571Y-100407200D02*
X148190476Y-101121485D01*
X148190476Y-101121485D02*
X148809523Y-101121485D01*
D14*
X141760237Y-103574318D02*
X141760237Y-102304318D01*
X143090714Y-103453365D02*
X143030238Y-103513842D01*
X143030238Y-103513842D02*
X142848809Y-103574318D01*
X142848809Y-103574318D02*
X142727857Y-103574318D01*
X142727857Y-103574318D02*
X142546428Y-103513842D01*
X142546428Y-103513842D02*
X142425476Y-103392889D01*
X142425476Y-103392889D02*
X142364999Y-103271937D01*
X142364999Y-103271937D02*
X142304523Y-103030032D01*
X142304523Y-103030032D02*
X142304523Y-102848603D01*
X142304523Y-102848603D02*
X142364999Y-102606699D01*
X142364999Y-102606699D02*
X142425476Y-102485746D01*
X142425476Y-102485746D02*
X142546428Y-102364794D01*
X142546428Y-102364794D02*
X142727857Y-102304318D01*
X142727857Y-102304318D02*
X142848809Y-102304318D01*
X142848809Y-102304318D02*
X143030238Y-102364794D01*
X143030238Y-102364794D02*
X143090714Y-102425270D01*
X144300238Y-103574318D02*
X143574523Y-103574318D01*
X143937380Y-103574318D02*
X143937380Y-102304318D01*
X143937380Y-102304318D02*
X143816428Y-102485746D01*
X143816428Y-102485746D02*
X143695476Y-102606699D01*
X143695476Y-102606699D02*
X143574523Y-102667175D01*
D11*
X144333333Y-96454819D02*
X144000000Y-95978628D01*
X143761905Y-96454819D02*
X143761905Y-95454819D01*
X143761905Y-95454819D02*
X144142857Y-95454819D01*
X144142857Y-95454819D02*
X144238095Y-95502438D01*
X144238095Y-95502438D02*
X144285714Y-95550057D01*
X144285714Y-95550057D02*
X144333333Y-95645295D01*
X144333333Y-95645295D02*
X144333333Y-95788152D01*
X144333333Y-95788152D02*
X144285714Y-95883390D01*
X144285714Y-95883390D02*
X144238095Y-95931009D01*
X144238095Y-95931009D02*
X144142857Y-95978628D01*
X144142857Y-95978628D02*
X143761905Y-95978628D01*
X144904762Y-95883390D02*
X144809524Y-95835771D01*
X144809524Y-95835771D02*
X144761905Y-95788152D01*
X144761905Y-95788152D02*
X144714286Y-95692914D01*
X144714286Y-95692914D02*
X144714286Y-95645295D01*
X144714286Y-95645295D02*
X144761905Y-95550057D01*
X144761905Y-95550057D02*
X144809524Y-95502438D01*
X144809524Y-95502438D02*
X144904762Y-95454819D01*
X144904762Y-95454819D02*
X145095238Y-95454819D01*
X145095238Y-95454819D02*
X145190476Y-95502438D01*
X145190476Y-95502438D02*
X145238095Y-95550057D01*
X145238095Y-95550057D02*
X145285714Y-95645295D01*
X145285714Y-95645295D02*
X145285714Y-95692914D01*
X145285714Y-95692914D02*
X145238095Y-95788152D01*
X145238095Y-95788152D02*
X145190476Y-95835771D01*
X145190476Y-95835771D02*
X145095238Y-95883390D01*
X145095238Y-95883390D02*
X144904762Y-95883390D01*
X144904762Y-95883390D02*
X144809524Y-95931009D01*
X144809524Y-95931009D02*
X144761905Y-95978628D01*
X144761905Y-95978628D02*
X144714286Y-96073866D01*
X144714286Y-96073866D02*
X144714286Y-96264342D01*
X144714286Y-96264342D02*
X144761905Y-96359580D01*
X144761905Y-96359580D02*
X144809524Y-96407200D01*
X144809524Y-96407200D02*
X144904762Y-96454819D01*
X144904762Y-96454819D02*
X145095238Y-96454819D01*
X145095238Y-96454819D02*
X145190476Y-96407200D01*
X145190476Y-96407200D02*
X145238095Y-96359580D01*
X145238095Y-96359580D02*
X145285714Y-96264342D01*
X145285714Y-96264342D02*
X145285714Y-96073866D01*
X145285714Y-96073866D02*
X145238095Y-95978628D01*
X145238095Y-95978628D02*
X145190476Y-95931009D01*
X145190476Y-95931009D02*
X145095238Y-95883390D01*
X145833333Y-113454819D02*
X145500000Y-112978628D01*
X145261905Y-113454819D02*
X145261905Y-112454819D01*
X145261905Y-112454819D02*
X145642857Y-112454819D01*
X145642857Y-112454819D02*
X145738095Y-112502438D01*
X145738095Y-112502438D02*
X145785714Y-112550057D01*
X145785714Y-112550057D02*
X145833333Y-112645295D01*
X145833333Y-112645295D02*
X145833333Y-112788152D01*
X145833333Y-112788152D02*
X145785714Y-112883390D01*
X145785714Y-112883390D02*
X145738095Y-112931009D01*
X145738095Y-112931009D02*
X145642857Y-112978628D01*
X145642857Y-112978628D02*
X145261905Y-112978628D01*
X146166667Y-112454819D02*
X146833333Y-112454819D01*
X146833333Y-112454819D02*
X146404762Y-113454819D01*
X145761905Y-105454819D02*
X145761905Y-106264342D01*
X145761905Y-106264342D02*
X145809524Y-106359580D01*
X145809524Y-106359580D02*
X145857143Y-106407200D01*
X145857143Y-106407200D02*
X145952381Y-106454819D01*
X145952381Y-106454819D02*
X146142857Y-106454819D01*
X146142857Y-106454819D02*
X146238095Y-106407200D01*
X146238095Y-106407200D02*
X146285714Y-106359580D01*
X146285714Y-106359580D02*
X146333333Y-106264342D01*
X146333333Y-106264342D02*
X146333333Y-105454819D01*
X147333333Y-106454819D02*
X146761905Y-106454819D01*
X147047619Y-106454819D02*
X147047619Y-105454819D01*
X147047619Y-105454819D02*
X146952381Y-105597676D01*
X146952381Y-105597676D02*
X146857143Y-105692914D01*
X146857143Y-105692914D02*
X146761905Y-105740533D01*
X147952381Y-105454819D02*
X148047619Y-105454819D01*
X148047619Y-105454819D02*
X148142857Y-105502438D01*
X148142857Y-105502438D02*
X148190476Y-105550057D01*
X148190476Y-105550057D02*
X148238095Y-105645295D01*
X148238095Y-105645295D02*
X148285714Y-105835771D01*
X148285714Y-105835771D02*
X148285714Y-106073866D01*
X148285714Y-106073866D02*
X148238095Y-106264342D01*
X148238095Y-106264342D02*
X148190476Y-106359580D01*
X148190476Y-106359580D02*
X148142857Y-106407200D01*
X148142857Y-106407200D02*
X148047619Y-106454819D01*
X148047619Y-106454819D02*
X147952381Y-106454819D01*
X147952381Y-106454819D02*
X147857143Y-106407200D01*
X147857143Y-106407200D02*
X147809524Y-106359580D01*
X147809524Y-106359580D02*
X147761905Y-106264342D01*
X147761905Y-106264342D02*
X147714286Y-106073866D01*
X147714286Y-106073866D02*
X147714286Y-105835771D01*
X147714286Y-105835771D02*
X147761905Y-105645295D01*
X147761905Y-105645295D02*
X147809524Y-105550057D01*
X147809524Y-105550057D02*
X147857143Y-105502438D01*
X147857143Y-105502438D02*
X147952381Y-105454819D01*
D15*
%TO.C,D2*%
X120840000Y-107765000D02*
X120840000Y-109235000D01*
X120840000Y-109235000D02*
X123300000Y-109235000D01*
X123300000Y-107765000D02*
X120840000Y-107765000D01*
%TO.C,R9*%
X126832776Y-111977500D02*
X127342224Y-111977500D01*
X126832776Y-113022500D02*
X127342224Y-113022500D01*
%TO.C,C4*%
X139853733Y-113990000D02*
X140146267Y-113990000D01*
X139853733Y-115010000D02*
X140146267Y-115010000D01*
%TO.C,C2*%
X137853733Y-109990000D02*
X138146267Y-109990000D01*
X137853733Y-111010000D02*
X138146267Y-111010000D01*
%TO.C,J4*%
X148245000Y-87160000D02*
X149375000Y-87160000D01*
X148245000Y-87920000D02*
X148245000Y-87160000D01*
X148245000Y-88680000D02*
X148245000Y-93695000D01*
X148245000Y-88680000D02*
X148811529Y-88680000D01*
X148245000Y-93695000D02*
X149067470Y-93695000D01*
X149682530Y-93695000D02*
X150337470Y-93695000D01*
X149938471Y-88680000D02*
X150081529Y-88680000D01*
X150135000Y-87225000D02*
X150337470Y-87225000D01*
X150135000Y-87356529D02*
X150135000Y-87225000D01*
X150135000Y-88626529D02*
X150135000Y-88483471D01*
X150952530Y-87225000D02*
X151775000Y-87225000D01*
X150952530Y-93695000D02*
X151775000Y-93695000D01*
X151775000Y-87225000D02*
X151775000Y-93695000D01*
%TO.C,C9*%
X149146267Y-116490000D02*
X148853733Y-116490000D01*
X149146267Y-117510000D02*
X148853733Y-117510000D01*
%TO.C,R2*%
X127429724Y-107977500D02*
X126920276Y-107977500D01*
X127429724Y-109022500D02*
X126920276Y-109022500D01*
%TO.C,Q2*%
X146090000Y-122940000D02*
X147350000Y-122940000D01*
X146090000Y-126700000D02*
X146090000Y-122940000D01*
X152910000Y-122940000D02*
X151650000Y-122940000D01*
X152910000Y-126700000D02*
X152910000Y-122940000D01*
X146190000Y-127980000D02*
X145860000Y-128220000D01*
X145860000Y-127740000D01*
X146190000Y-127980000D01*
G36*
X146190000Y-127980000D02*
G01*
X145860000Y-128220000D01*
X145860000Y-127740000D01*
X146190000Y-127980000D01*
G37*
%TO.C,C21*%
X136990000Y-91478733D02*
X136990000Y-91771267D01*
X138010000Y-91478733D02*
X138010000Y-91771267D01*
%TO.C,SW1*%
X129750000Y-122250000D02*
X129750000Y-126750000D01*
X132250000Y-128000000D02*
X133750000Y-128000000D01*
X133750000Y-121000000D02*
X132250000Y-121000000D01*
X136250000Y-126750000D02*
X136250000Y-122250000D01*
%TO.C,R12*%
X131245276Y-105327500D02*
X131754724Y-105327500D01*
X131245276Y-106372500D02*
X131754724Y-106372500D01*
D16*
%TO.C,J1*%
X117190800Y-95951600D02*
X117190800Y-106060800D01*
X117190800Y-106060800D02*
X120595660Y-106060800D01*
X120595660Y-95951600D02*
X117190800Y-95951600D01*
X123801140Y-106060800D02*
X127325400Y-106060800D01*
X127325400Y-95951600D02*
X123801140Y-95951600D01*
X127325400Y-96626535D02*
X127325400Y-95951600D01*
X127325400Y-103826536D02*
X127325400Y-98185864D01*
X127325400Y-106060800D02*
X127325400Y-105385865D01*
D17*
X128849400Y-94173600D02*
G75*
G02*
X128087400Y-94173600I-381000J0D01*
G01*
X128087400Y-94173600D02*
G75*
G02*
X128849400Y-94173600I381000J0D01*
G01*
D15*
%TO.C,C6*%
X148853733Y-109990000D02*
X149146267Y-109990000D01*
X148853733Y-111010000D02*
X149146267Y-111010000D01*
%TO.C,J2*%
X151680000Y-97380000D02*
X161720000Y-97380000D01*
X151680000Y-117620000D02*
X151680000Y-97380000D01*
X151680000Y-117620000D02*
X161720000Y-117620000D01*
X154700000Y-117620000D02*
X154700000Y-97380000D01*
X155589000Y-98816000D02*
X155633000Y-98860000D01*
X155589000Y-103816000D02*
X155633000Y-103860000D01*
X155589000Y-108816000D02*
X155633000Y-108860000D01*
X155816000Y-98589000D02*
X155860000Y-98633000D01*
X155816000Y-103589000D02*
X155860000Y-103633000D01*
X155816000Y-108589000D02*
X155860000Y-108633000D01*
X158140000Y-101367000D02*
X158183000Y-101411000D01*
X158140000Y-106367000D02*
X158183000Y-106411000D01*
X158140000Y-111367000D02*
X158183000Y-111411000D01*
X158367000Y-101140000D02*
X158410000Y-101184000D01*
X158367000Y-106140000D02*
X158410000Y-106184000D01*
X158367000Y-111140000D02*
X158410000Y-111184000D01*
X159600000Y-117620000D02*
X159600000Y-97380000D01*
X161100000Y-117620000D02*
X161100000Y-97380000D01*
X161720000Y-114700000D02*
X161720000Y-97380000D01*
X161720000Y-117620000D02*
X161720000Y-115300000D01*
X155220000Y-115540000D02*
G75*
G02*
X155219794Y-114460679I1780000J540000D01*
G01*
X156460000Y-113220000D02*
G75*
G02*
X157539321Y-113219794I540000J-1780013D01*
G01*
X157540000Y-116780000D02*
G75*
G02*
X156460679Y-116780206I-540000J1780000D01*
G01*
X158780000Y-114460000D02*
G75*
G02*
X158780206Y-115539321I-1780013J-540000D01*
G01*
X158860000Y-100000000D02*
G75*
G02*
X155140000Y-100000000I-1860000J0D01*
G01*
X155140000Y-100000000D02*
G75*
G02*
X158860000Y-100000000I1860000J0D01*
G01*
X158860000Y-105000000D02*
G75*
G02*
X155140000Y-105000000I-1860000J0D01*
G01*
X155140000Y-105000000D02*
G75*
G02*
X158860000Y-105000000I1860000J0D01*
G01*
X158860000Y-110000000D02*
G75*
G02*
X155140000Y-110000000I-1860000J0D01*
G01*
X155140000Y-110000000D02*
G75*
G02*
X158860000Y-110000000I1860000J0D01*
G01*
X162330000Y-115440000D02*
X161720000Y-115000000D01*
X162330000Y-114560000D01*
X162330000Y-115440000D01*
G36*
X162330000Y-115440000D02*
G01*
X161720000Y-115000000D01*
X162330000Y-114560000D01*
X162330000Y-115440000D01*
G37*
%TO.C,U5*%
X142637500Y-87115000D02*
X140437500Y-87115000D01*
X142637500Y-87115000D02*
X144837500Y-87115000D01*
X142637500Y-93885000D02*
X140437500Y-93885000D01*
X142637500Y-93885000D02*
X144837500Y-93885000D01*
X138777500Y-87575000D02*
X138447500Y-87815000D01*
X138447500Y-87335000D01*
X138777500Y-87575000D01*
G36*
X138777500Y-87575000D02*
G01*
X138447500Y-87815000D01*
X138447500Y-87335000D01*
X138777500Y-87575000D01*
G37*
%TO.C,R11*%
X140477500Y-111754724D02*
X140477500Y-111245276D01*
X141522500Y-111754724D02*
X141522500Y-111245276D01*
%TO.C,C3*%
X137853733Y-112010000D02*
X138146267Y-112010000D01*
X137853733Y-113030000D02*
X138146267Y-113030000D01*
%TO.C,Q1*%
X138090000Y-122940000D02*
X139350000Y-122940000D01*
X138090000Y-126700000D02*
X138090000Y-122940000D01*
X144910000Y-122940000D02*
X143650000Y-122940000D01*
X144910000Y-126700000D02*
X144910000Y-122940000D01*
X138190000Y-127980000D02*
X137860000Y-128220000D01*
X137860000Y-127740000D01*
X138190000Y-127980000D01*
G36*
X138190000Y-127980000D02*
G01*
X137860000Y-128220000D01*
X137860000Y-127740000D01*
X138190000Y-127980000D01*
G37*
%TO.C,J3*%
X121010000Y-118330000D02*
X121010000Y-117000000D01*
X122340000Y-118330000D02*
X121010000Y-118330000D01*
X123610000Y-115670000D02*
X136370000Y-115670000D01*
X123610000Y-118330000D02*
X123610000Y-115670000D01*
X123610000Y-118330000D02*
X136370000Y-118330000D01*
X136370000Y-118330000D02*
X136370000Y-115670000D01*
%TO.C,R5*%
X133477500Y-100095276D02*
X133477500Y-100604724D01*
X134522500Y-100095276D02*
X134522500Y-100604724D01*
%TO.C,C19*%
X132990000Y-91478733D02*
X132990000Y-91771267D01*
X134010000Y-91478733D02*
X134010000Y-91771267D01*
%TO.C,C10*%
X149146267Y-114490000D02*
X148853733Y-114490000D01*
X149146267Y-115510000D02*
X148853733Y-115510000D01*
%TO.C,C20*%
X134990000Y-91478733D02*
X134990000Y-91771267D01*
X136010000Y-91478733D02*
X136010000Y-91771267D01*
%TO.C,C7*%
X141990000Y-105853733D02*
X141990000Y-106146267D01*
X143010000Y-105853733D02*
X143010000Y-106146267D01*
%TO.C,C22*%
X132353733Y-85615000D02*
X132646267Y-85615000D01*
X132353733Y-86635000D02*
X132646267Y-86635000D01*
%TO.C,C1*%
X137490000Y-100496267D02*
X137490000Y-100203733D01*
X138510000Y-100496267D02*
X138510000Y-100203733D01*
%TO.C,C25*%
X146853733Y-96980000D02*
X147146267Y-96980000D01*
X146853733Y-98000000D02*
X147146267Y-98000000D01*
%TO.C,R6*%
X139477500Y-100604724D02*
X139477500Y-100095276D01*
X140522500Y-100604724D02*
X140522500Y-100095276D01*
%TO.C,C23*%
X132353733Y-88115000D02*
X132646267Y-88115000D01*
X132353733Y-89135000D02*
X132646267Y-89135000D01*
%TO.C,D1*%
X120840000Y-109765000D02*
X120840000Y-111235000D01*
X120840000Y-111235000D02*
X123300000Y-111235000D01*
X123300000Y-109765000D02*
X120840000Y-109765000D01*
%TO.C,C17*%
X128990000Y-91478733D02*
X128990000Y-91771267D01*
X130010000Y-91478733D02*
X130010000Y-91771267D01*
%TO.C,R4*%
X135477500Y-100095276D02*
X135477500Y-100604724D01*
X136522500Y-100095276D02*
X136522500Y-100604724D01*
%TO.C,R10*%
X143477500Y-111254724D02*
X143477500Y-110745276D01*
X144522500Y-111254724D02*
X144522500Y-110745276D01*
%TO.C,C18*%
X130990000Y-91478733D02*
X130990000Y-91771267D01*
X132010000Y-91478733D02*
X132010000Y-91771267D01*
%TO.C,C5*%
X148853733Y-107990000D02*
X149146267Y-107990000D01*
X148853733Y-109010000D02*
X149146267Y-109010000D01*
%TO.C,D3*%
X120840000Y-111765000D02*
X120840000Y-113235000D01*
X120840000Y-113235000D02*
X123300000Y-113235000D01*
X123300000Y-111765000D02*
X120840000Y-111765000D01*
D16*
%TO.C,Y1*%
X135077600Y-87335381D02*
X135077600Y-87664619D01*
X137922400Y-87664619D02*
X137922400Y-87335381D01*
D15*
%TO.C,R1*%
X126832776Y-109977500D02*
X127342224Y-109977500D01*
X126832776Y-111022500D02*
X127342224Y-111022500D01*
%TO.C,R3*%
X131590000Y-110272936D02*
X131590000Y-111727064D01*
X133410000Y-110272936D02*
X133410000Y-111727064D01*
%TO.C,C8*%
X149146267Y-118510000D02*
X148853733Y-118510000D01*
X149146267Y-119530000D02*
X148853733Y-119530000D01*
%TO.C,C24*%
X146853733Y-98990000D02*
X147146267Y-98990000D01*
X146853733Y-100010000D02*
X147146267Y-100010000D01*
D13*
%TO.C,IC1*%
X136500000Y-108725000D02*
X136500000Y-108725000D01*
X136500000Y-108825000D02*
X136500000Y-108825000D01*
X136500000Y-108725000D02*
G75*
G02*
X136500000Y-108825000I0J-50000D01*
G01*
X136500000Y-108825000D02*
G75*
G02*
X136500000Y-108725000I0J50000D01*
G01*
D15*
%TO.C,R8*%
X141754724Y-95977500D02*
X141245276Y-95977500D01*
X141754724Y-97022500D02*
X141245276Y-97022500D01*
%TO.C,R7*%
X148745276Y-112477500D02*
X149254724Y-112477500D01*
X148745276Y-113522500D02*
X149254724Y-113522500D01*
%TO.C,U10*%
X148500000Y-101940000D02*
X147850000Y-101940000D01*
X148500000Y-101940000D02*
X149150000Y-101940000D01*
X148500000Y-105060000D02*
X147850000Y-105060000D01*
X148500000Y-105060000D02*
X149150000Y-105060000D01*
X149902500Y-105340000D02*
X149422500Y-105340000D01*
X149662500Y-105010000D01*
X149902500Y-105340000D01*
G36*
X149902500Y-105340000D02*
G01*
X149422500Y-105340000D01*
X149662500Y-105010000D01*
X149902500Y-105340000D01*
G37*
%TD*%
M02*
