M48
; DRILL file {KiCad 9.0.0} date 2025-07-24T15:18:33-0400
; FORMAT={-:-/ absolute / metric / decimal}
; #@! TF.CreationDate,2025-07-24T15:18:33-04:00
; #@! TF.GenerationSoftware,Kicad,Pcbnew,9.0.0
; #@! TF.FileFunction,Plated,1,2,PTH
FMAT,2
METRIC
; #@! TA.AperFunction,Plated,PTH,ViaDrill
T1C0.300
; #@! TA.AperFunction,Plated,PTH,ComponentDrill
T2C0.406
; #@! TA.AperFunction,Plated,PTH,ViaDrill
T3C0.500
; #@! TA.AperFunction,Plated,PTH,ComponentDrill
T4C0.508
; #@! TA.AperFunction,Plated,PTH,ComponentDrill
T5C0.650
; #@! TA.AperFunction,Plated,PTH,ComponentDrill
T6C0.660
; #@! TA.AperFunction,Plated,PTH,ViaDrill
T7C0.900
; #@! TA.AperFunction,Plated,PTH,ComponentDrill
T8C1.000
; #@! TA.AperFunction,Plated,PTH,ComponentDrill
T9C1.100
; #@! TA.AperFunction,Plated,PTH,ComponentDrill
T10C1.300
; #@! TA.AperFunction,Plated,PTH,ComponentDrill
T11C3.200
%
G90
G05
T1
X120.0Y-98.0
X120.0Y-101.5
X120.753Y-111.5
X122.0Y-94.4
X122.602Y-97.0
X123.0Y-94.4
X123.103Y-103.2
X123.103Y-104.024
X123.15Y-97.95
X123.15Y-98.95
X124.0Y-93.5
X125.158Y-103.4
X125.185Y-94.185
X125.4Y-106.2
X126.0Y-94.4
X126.318Y-97.4
X126.65Y-105.55
X126.73Y-103.794
X126.75Y-97.7
X126.85Y-98.25
X126.9Y-104.75
X126.947Y-99.679
X127.0Y-96.617
X127.0Y-104.2
X127.269Y-101.344
X127.775Y-100.833
X128.0Y-92.5
X128.75Y-110.5
X129.5Y-109.5
X130.0Y-99.5
X130.0Y-101.0
X130.8Y-124.3
X130.989Y-114.698
X131.0Y-118.5
X131.186Y-107.314
X131.637Y-87.35
X131.9Y-108.0
X132.0Y-102.0
X132.5Y-99.5
X132.5Y-101.0
X132.5Y-110.65
X133.826Y-106.674
X133.826Y-107.523
X134.0Y-102.725
X134.1Y-111.0
X134.5Y-104.5
X135.0Y-100.5
X135.043Y-101.457
X135.5Y-108.0
X136.9Y-93.5
X137.5Y-109.0
X137.75Y-105.925
X139.689Y-108.423
X140.943Y-90.423
X141.0Y-89.0
X141.0Y-99.5
X141.0Y-106.0
X142.0Y-88.0
X142.326Y-86.826
X142.5Y-97.5
X142.5Y-98.5
X142.5Y-108.423
X144.077Y-108.0
X144.654Y-99.0
X145.0Y-97.5
X146.5Y-86.5
X148.0Y-88.0
X149.5Y-97.5
X150.0Y-107.5
X151.0Y-105.5
T2
X124.137Y-98.606
X124.137Y-99.406
X124.137Y-100.181
X124.137Y-101.781
X124.137Y-102.606
X124.137Y-103.406
X124.837Y-98.206
X124.837Y-99.806
X124.837Y-100.619
X124.837Y-101.419
X124.837Y-102.206
X124.837Y-103.806
T3
X127.4Y-97.75
X127.9Y-98.4
X128.5Y-103.85
X128.5Y-105.0
T5
X149.375Y-87.92
X149.375Y-89.19
X149.375Y-90.46
X149.375Y-91.73
X149.375Y-93.0
X150.645Y-87.92
X150.645Y-89.19
X150.645Y-90.46
X150.645Y-91.73
X150.645Y-93.0
T7
X134.0Y-124.5
X137.5Y-128.0
X139.5Y-119.5
X142.5Y-114.5
X144.0Y-119.0
X146.099Y-124.401
T8
X122.34Y-117.0
X124.88Y-117.0
X127.42Y-117.0
X129.96Y-117.0
X132.5Y-117.0
X135.04Y-117.0
T9
X130.75Y-121.25
X130.75Y-127.75
X135.25Y-121.25
X135.25Y-127.75
T10
X157.0Y-100.0
X157.0Y-105.0
X157.0Y-110.0
X157.0Y-115.0
T11
X123.1Y-89.4
X123.1Y-125.7
X157.6Y-89.4
X157.6Y-125.7
T4
G00X119.555Y-96.516
M15
G01X120.139Y-96.516
M16
G05
G00X119.555Y-105.496
M15
G01X120.139Y-105.496
M16
G05
G00X123.955Y-96.876
M15
G01X124.539Y-96.876
M16
G05
G00X123.955Y-105.136
M15
G01X124.539Y-105.136
M16
G05
T6
G00X125.487Y-104.466
M15
G01X125.487Y-104.746
M16
G05
M30
