%TF.GenerationSoftware,KiCad,Pcbnew,9.0.0*%
%TF.CreationDate,2025-08-18T10:04:00-07:00*%
%TF.ProjectId,USB_C_Simple_Trig,5553425f-435f-4536-996d-706c655f5472,rev?*%
%TF.SameCoordinates,Original*%
%TF.FileFunction,Paste,Top*%
%TF.FilePolarity,Positive*%
%FSLAX46Y46*%
G04 Gerber Fmt 4.6, Leading zero omitted, Abs format (unit mm)*
G04 Created by KiCad (PCBNEW 9.0.0) date 2025-08-18 10:04:00*
%MOMM*%
%LPD*%
G01*
G04 APERTURE LIST*
G04 Aperture macros list*
%AMRoundRect*
0 Rectangle with rounded corners*
0 $1 Rounding radius*
0 $2 $3 $4 $5 $6 $7 $8 $9 X,Y pos of 4 corners*
0 Add a 4 corners polygon primitive as box body*
4,1,4,$2,$3,$4,$5,$6,$7,$8,$9,$2,$3,0*
0 Add four circle primitives for the rounded corners*
1,1,$1+$1,$2,$3*
1,1,$1+$1,$4,$5*
1,1,$1+$1,$6,$7*
1,1,$1+$1,$8,$9*
0 Add four rect primitives between the rounded corners*
20,1,$1+$1,$2,$3,$4,$5,0*
20,1,$1+$1,$4,$5,$6,$7,0*
20,1,$1+$1,$6,$7,$8,$9,0*
20,1,$1+$1,$8,$9,$2,$3,0*%
G04 Aperture macros list end*
%ADD10RoundRect,0.237500X-0.287500X-0.237500X0.287500X-0.237500X0.287500X0.237500X-0.287500X0.237500X0*%
%ADD11RoundRect,0.237500X-0.250000X-0.237500X0.250000X-0.237500X0.250000X0.237500X-0.250000X0.237500X0*%
%ADD12RoundRect,0.237500X-0.300000X-0.237500X0.300000X-0.237500X0.300000X0.237500X-0.300000X0.237500X0*%
%ADD13RoundRect,0.237500X0.300000X0.237500X-0.300000X0.237500X-0.300000X-0.237500X0.300000X-0.237500X0*%
%ADD14RoundRect,0.237500X0.250000X0.237500X-0.250000X0.237500X-0.250000X-0.237500X0.250000X-0.237500X0*%
%ADD15RoundRect,0.375000X0.375000X-0.625000X0.375000X0.625000X-0.375000X0.625000X-0.375000X-0.625000X0*%
%ADD16RoundRect,0.500000X1.400000X-0.500000X1.400000X0.500000X-1.400000X0.500000X-1.400000X-0.500000X0*%
%ADD17RoundRect,0.237500X-0.237500X0.300000X-0.237500X-0.300000X0.237500X-0.300000X0.237500X0.300000X0*%
%ADD18R,0.889000X0.304800*%
%ADD19RoundRect,0.100000X-0.637500X-0.100000X0.637500X-0.100000X0.637500X0.100000X-0.637500X0.100000X0*%
%ADD20RoundRect,0.237500X0.237500X-0.250000X0.237500X0.250000X-0.237500X0.250000X-0.237500X-0.250000X0*%
%ADD21RoundRect,0.237500X-0.237500X0.250000X-0.237500X-0.250000X0.237500X-0.250000X0.237500X0.250000X0*%
%ADD22RoundRect,0.237500X0.237500X-0.300000X0.237500X0.300000X-0.237500X0.300000X-0.237500X-0.300000X0*%
%ADD23R,2.387600X1.193800*%
%ADD24RoundRect,0.250000X-0.625000X0.400000X-0.625000X-0.400000X0.625000X-0.400000X0.625000X0.400000X0*%
%ADD25R,0.300000X0.750000*%
%ADD26R,0.750000X0.300000*%
%ADD27R,2.700000X2.700000*%
%ADD28RoundRect,0.150000X0.587500X0.150000X-0.587500X0.150000X-0.587500X-0.150000X0.587500X-0.150000X0*%
G04 APERTURE END LIST*
D10*
%TO.C,D2*%
X121625000Y-108500000D03*
X123375000Y-108500000D03*
%TD*%
D11*
%TO.C,R9*%
X126175000Y-112500000D03*
X128000000Y-112500000D03*
%TD*%
D12*
%TO.C,C4*%
X139137500Y-114500000D03*
X140862500Y-114500000D03*
%TD*%
%TO.C,C2*%
X137137500Y-110500000D03*
X138862500Y-110500000D03*
%TD*%
D13*
%TO.C,C9*%
X149862500Y-117000000D03*
X148137500Y-117000000D03*
%TD*%
D14*
%TO.C,R2*%
X128087500Y-108500000D03*
X126262500Y-108500000D03*
%TD*%
D15*
%TO.C,Q2*%
X149500000Y-128000000D03*
D16*
X149500000Y-121700000D03*
D15*
X147200000Y-128000000D03*
X151800000Y-128000000D03*
%TD*%
D17*
%TO.C,C21*%
X137500000Y-90762500D03*
X137500000Y-92487500D03*
%TD*%
D11*
%TO.C,R12*%
X130587500Y-105850000D03*
X132412500Y-105850000D03*
%TD*%
D18*
%TO.C,J1*%
X126052400Y-98255507D03*
X126052400Y-98755633D03*
X126052400Y-99255759D03*
X126052400Y-99755885D03*
X126052400Y-100256011D03*
X126052400Y-100756137D03*
X126052400Y-101256263D03*
X126052400Y-101756389D03*
X126052400Y-102256515D03*
X126052400Y-102756641D03*
X126052400Y-103256767D03*
X126052400Y-103756893D03*
%TD*%
D12*
%TO.C,C6*%
X148137500Y-110500000D03*
X149862500Y-110500000D03*
%TD*%
D19*
%TO.C,U5*%
X139775000Y-87575000D03*
X139775000Y-88225000D03*
X139775000Y-88875000D03*
X139775000Y-89525000D03*
X139775000Y-90175000D03*
X139775000Y-90825000D03*
X139775000Y-91475000D03*
X139775000Y-92125000D03*
X139775000Y-92775000D03*
X139775000Y-93425000D03*
X145500000Y-93425000D03*
X145500000Y-92775000D03*
X145500000Y-92125000D03*
X145500000Y-91475000D03*
X145500000Y-90825000D03*
X145500000Y-90175000D03*
X145500000Y-89525000D03*
X145500000Y-88875000D03*
X145500000Y-88225000D03*
X145500000Y-87575000D03*
%TD*%
D20*
%TO.C,R11*%
X141000000Y-112412500D03*
X141000000Y-110587500D03*
%TD*%
D12*
%TO.C,C3*%
X137137500Y-112520000D03*
X138862500Y-112520000D03*
%TD*%
D15*
%TO.C,Q1*%
X141500000Y-128000000D03*
D16*
X141500000Y-121700000D03*
D15*
X139200000Y-128000000D03*
X143800000Y-128000000D03*
%TD*%
D21*
%TO.C,R5*%
X134000000Y-99437500D03*
X134000000Y-101262500D03*
%TD*%
D17*
%TO.C,C19*%
X133500000Y-90762500D03*
X133500000Y-92487500D03*
%TD*%
D13*
%TO.C,C10*%
X149862500Y-115000000D03*
X148137500Y-115000000D03*
%TD*%
D17*
%TO.C,C20*%
X135500000Y-90762500D03*
X135500000Y-92487500D03*
%TD*%
%TO.C,C7*%
X142500000Y-105137500D03*
X142500000Y-106862500D03*
%TD*%
D12*
%TO.C,C22*%
X131637500Y-86125000D03*
X133362500Y-86125000D03*
%TD*%
D22*
%TO.C,C1*%
X138000000Y-101212500D03*
X138000000Y-99487500D03*
%TD*%
D12*
%TO.C,C25*%
X146137500Y-97490000D03*
X147862500Y-97490000D03*
%TD*%
D20*
%TO.C,R6*%
X140000000Y-101262500D03*
X140000000Y-99437500D03*
%TD*%
D12*
%TO.C,C23*%
X131637500Y-88625000D03*
X133362500Y-88625000D03*
%TD*%
D10*
%TO.C,D1*%
X121625000Y-110500000D03*
X123375000Y-110500000D03*
%TD*%
D17*
%TO.C,C17*%
X129500000Y-90762500D03*
X129500000Y-92487500D03*
%TD*%
D21*
%TO.C,R4*%
X136000000Y-99437500D03*
X136000000Y-101262500D03*
%TD*%
D20*
%TO.C,R10*%
X144000000Y-111912500D03*
X144000000Y-110087500D03*
%TD*%
D17*
%TO.C,C18*%
X131500000Y-90762500D03*
X131500000Y-92487500D03*
%TD*%
D12*
%TO.C,C5*%
X148137500Y-108500000D03*
X149862500Y-108500000D03*
%TD*%
D10*
%TO.C,D3*%
X121625000Y-112500000D03*
X123375000Y-112500000D03*
%TD*%
D23*
%TO.C,Y1*%
X136500000Y-88503300D03*
X136500000Y-86496700D03*
%TD*%
D11*
%TO.C,R1*%
X126175000Y-110500000D03*
X128000000Y-110500000D03*
%TD*%
D24*
%TO.C,R3*%
X132500000Y-109450000D03*
X132500000Y-112550000D03*
%TD*%
D13*
%TO.C,C8*%
X149862500Y-119020000D03*
X148137500Y-119020000D03*
%TD*%
D12*
%TO.C,C24*%
X146137500Y-99500000D03*
X147862500Y-99500000D03*
%TD*%
D25*
%TO.C,IC1*%
X136500000Y-107850000D03*
X137000000Y-107850000D03*
X137500000Y-107850000D03*
X138000000Y-107850000D03*
X138500000Y-107850000D03*
X139000000Y-107850000D03*
D26*
X139675000Y-107175000D03*
X139675000Y-106675000D03*
X139675000Y-106175000D03*
X139675000Y-105675000D03*
X139675000Y-105175000D03*
X139675000Y-104675000D03*
D25*
X139000000Y-104000000D03*
X138500000Y-104000000D03*
X138000000Y-104000000D03*
X137500000Y-104000000D03*
X137000000Y-104000000D03*
X136500000Y-104000000D03*
D26*
X135825000Y-104675000D03*
X135825000Y-105175000D03*
X135825000Y-105675000D03*
X135825000Y-106175000D03*
X135825000Y-106675000D03*
X135825000Y-107175000D03*
D27*
X137750000Y-105925000D03*
%TD*%
D14*
%TO.C,R8*%
X142412500Y-96500000D03*
X140587500Y-96500000D03*
%TD*%
D11*
%TO.C,R7*%
X148087500Y-113000000D03*
X149912500Y-113000000D03*
%TD*%
D28*
%TO.C,U10*%
X149437500Y-104450000D03*
X149437500Y-102550000D03*
X147562500Y-103500000D03*
%TD*%
M02*
